# Blender 5.0.1
# www.blender.org
mtllib base_zorro_narukami.mtl
g NarukamiShrine_mesh.087_Malla
v 0.184464 5.095178 -0.607994
v 0.187150 5.095178 0.014533
v 0.569230 5.095178 0.014533
v 0.569230 5.095178 -0.607994
v 0.185563 5.556176 -0.611900
v 0.570695 5.556176 -0.611900
v 0.570695 5.556176 0.018015
v 0.185563 5.556176 0.018044
v 0.570695 5.556176 0.018015
v 0.569230 5.095178 0.014533
v 0.187150 5.095178 0.014533
v 0.185563 5.556176 0.018044
v 0.185563 5.556176 -0.611900
v 0.184464 5.095178 -0.607994
v 0.569230 5.095178 -0.607994
v 0.570695 5.556176 -0.611900
v 0.570695 5.556176 0.018015
v 0.570695 5.556176 -0.611900
v 0.569230 5.095178 -0.607994
v 0.569230 5.095178 0.014533
v 0.557511 5.547876 0.010719
v 0.533585 5.547876 0.662026
v 0.193131 5.547876 0.648843
v 0.216813 5.547876 0.009987
v 0.558975 5.102746 0.009987
v 0.215348 5.102746 0.005959
v 0.191422 5.102746 0.652261
v 0.535050 5.102746 0.665933
v 0.535050 5.102746 0.665933
v 0.533585 5.547876 0.662026
v 0.557511 5.547876 0.010719
v 0.558975 5.102746 0.009987
v 0.191422 5.102746 0.652261
v 0.193131 5.547876 0.648843
v 0.533585 5.547876 0.662026
v 0.535050 5.102746 0.665933
v 0.191422 5.102746 0.652261
v 0.215348 5.102746 0.005959
v 0.216813 5.547876 0.009987
v 0.193131 5.547876 0.648843
v 0.190446 5.091516 0.000710
v 0.186661 5.091516 -0.627037
v -0.157577 5.091516 -0.624596
v -0.153793 5.091516 0.003029
v 0.192033 5.569299 0.004433
v -0.155380 5.569299 0.006935
v -0.159164 5.569299 -0.628014
v 0.188248 5.569299 -0.630455
v 0.188248 5.569299 -0.630455
v 0.186661 5.091516 -0.627037
v 0.190446 5.091516 0.000710
v 0.192033 5.569299 0.004433
v -0.159164 5.569299 -0.628014
v -0.157577 5.091516 -0.624596
v 0.186661 5.091516 -0.627037
v 0.188248 5.569299 -0.630455
v -0.159164 5.569299 -0.628014
v -0.155380 5.569299 0.006935
v -0.153793 5.091516 0.003029
v -0.157577 5.091516 -0.624596
v 0.249650 5.115441 -0.006493
v -0.202865 5.116906 -0.003014
v -0.202865 5.118859 0.631753
v 0.249650 5.117395 0.635659
v 0.249650 5.117395 0.635659
v -0.202865 5.118859 0.631753
v -0.202865 5.534692 0.631265
v 0.249650 5.536279 0.635171
v 0.249650 5.534814 -0.014427
v 0.249650 5.536279 0.635171
v -0.202865 5.534692 0.631265
v -0.202865 5.533288 -0.010948
v -0.507430 5.096887 -0.602623
v -0.507430 5.530848 -0.608971
v -0.507430 5.540612 0.026039
v -0.507430 5.106652 0.032021
v -0.507430 5.106652 0.032021
v -0.095016 5.108117 0.028513
v -0.095016 5.098596 -0.598717
v -0.507430 5.096887 -0.602623
v -0.507430 5.096887 -0.602623
v -0.095016 5.098596 -0.598717
v -0.095016 5.529321 -0.605064
v -0.507430 5.530848 -0.608971
v -0.507430 5.540612 0.026039
v -0.507430 5.530848 -0.608971
v -0.095016 5.529321 -0.605064
v -0.095016 5.538964 0.022560
v -0.132064 5.098840 0.645425
v -0.150741 5.098840 0.010719
v -0.525985 5.098840 0.022194
v -0.507430 5.098840 0.656655
v -0.130477 5.551416 0.649331
v -0.508895 5.551416 0.660562
v -0.527938 5.551416 0.018776
v -0.149276 5.551416 0.007179
v -0.149276 5.551416 0.007179
v -0.150741 5.098840 0.010719
v -0.132064 5.098840 0.645425
v -0.130477 5.551416 0.649331
v -0.527938 5.551416 0.018776
v -0.525985 5.098840 0.022194
v -0.150741 5.098840 0.010719
v -0.149276 5.551416 0.007179
v -0.130477 5.551416 0.649331
v -0.132064 5.098840 0.645425
v -0.507430 5.098840 0.656655
v -0.508895 5.551416 0.660562
v -0.527938 5.551416 0.018776
v -0.508895 5.551416 0.660562
v -0.507430 5.098840 0.656655
v -0.525985 5.098840 0.022194
v 0.541886 4.697961 0.245888
v 0.037736 4.697961 0.224770
v 0.026340 4.697961 0.621499
v 0.530167 4.697961 0.642983
v 0.546281 4.945031 0.244179
v 0.534562 4.945031 0.644937
v 0.022332 4.945031 0.623452
v 0.033829 4.945031 0.222694
v 0.033829 4.945031 0.222694
v 0.037736 4.697961 0.224770
v 0.541886 4.697961 0.245888
v 0.546281 4.945031 0.244179
v 0.022332 4.945031 0.623452
v 0.026340 4.697961 0.621499
v 0.037736 4.697961 0.224770
v 0.033829 4.945031 0.222694
v 0.546281 4.945031 0.244179
v 0.541886 4.697961 0.245888
v 0.530167 4.697961 0.642983
v 0.534562 4.945031 0.644937
v 0.022332 4.945031 0.623452
v 0.534562 4.945031 0.644937
v 0.530167 4.697961 0.642983
v 0.026340 4.697961 0.621499
v 0.042634 4.932824 0.600015
v -0.489852 4.932824 0.622964
v -0.502059 4.932824 0.228065
v 0.030240 4.932824 0.205116
v 0.046998 4.710168 0.601968
v 0.034623 4.710168 0.202919
v -0.505965 4.710168 0.226234
v -0.493758 4.710168 0.624917
v -0.493758 4.710168 0.624917
v -0.489852 4.932824 0.622964
v 0.042634 4.932824 0.600015
v 0.046998 4.710168 0.601968
v -0.505965 4.710168 0.226234
v -0.502059 4.932824 0.228065
v -0.489852 4.932824 0.622964
v -0.493758 4.710168 0.624917
v 0.530167 4.725305 -0.155235
v 0.017380 4.725305 -0.176353
v 0.005982 4.725305 0.270058
v 0.518692 4.725305 0.291176
v 0.534562 4.926965 -0.157066
v 0.522843 4.926965 0.293373
v 0.001969 4.926965 0.271889
v 0.013474 4.926965 -0.178307
v 0.534562 4.926965 -0.157066
v 0.530167 4.725305 -0.155235
v 0.518692 4.725305 0.291176
v 0.522843 4.926965 0.293373
v 0.087265 4.698449 -0.173058
v -0.504012 4.698449 -0.196129
v -0.516708 4.698449 0.250282
v 0.074876 4.698449 0.273232
v 0.091630 4.943566 -0.174889
v 0.079240 4.943566 0.275429
v -0.520614 4.943566 0.252113
v -0.507919 4.943566 -0.198082
v -0.507919 4.943566 -0.198082
v -0.504012 4.698449 -0.196129
v 0.087265 4.698449 -0.173058
v 0.091630 4.943566 -0.174889
v -0.520614 4.943566 0.252113
v -0.516708 4.698449 0.250282
v -0.504012 4.698449 -0.196129
v -0.507919 4.943566 -0.198082
v -0.520614 4.943566 0.252113
v 0.079240 4.943566 0.275429
v 0.074876 4.698449 0.273232
v -0.516708 4.698449 0.250282
v 0.036225 4.710168 -0.608482
v 0.036225 4.934289 -0.609459
v 0.036225 4.934777 -0.104454
v 0.036225 4.720422 -0.107628
v 0.550187 4.705773 -0.610435
v 0.550187 4.716516 -0.105431
v 0.550187 4.938684 -0.102623
v 0.550187 4.937707 -0.611900
v 0.550187 4.937707 -0.611900
v 0.036225 4.934289 -0.609459
v 0.036225 4.710168 -0.608482
v 0.550187 4.705773 -0.610435
v 0.550187 4.938684 -0.102623
v 0.036225 4.934777 -0.104454
v 0.036225 4.934289 -0.609459
v 0.550187 4.937707 -0.611900
v 0.550187 4.705773 -0.610435
v 0.036225 4.710168 -0.608482
v 0.036225 4.720422 -0.107628
v 0.550187 4.716516 -0.105431
v 0.550187 4.938684 -0.102623
v 0.550187 4.716516 -0.105431
v 0.036225 4.720422 -0.107628
v 0.036225 4.934777 -0.104454
v -0.490829 4.718469 -0.113243
v 0.038789 4.718469 -0.116295
v 0.037156 4.718469 -0.585045
v -0.492782 4.718469 -0.581627
v -0.495223 4.927454 -0.111290
v -0.497176 4.927454 -0.584068
v 0.041108 4.927454 -0.586998
v 0.042756 4.927454 -0.114342
v -0.495223 4.927454 -0.111290
v -0.490829 4.718469 -0.113243
v -0.492782 4.718469 -0.581627
v -0.497176 4.927454 -0.584068
v 0.041108 4.927454 -0.586998
v -0.497176 4.927454 -0.584068
v -0.492782 4.718469 -0.581627
v 0.037156 4.718469 -0.585045
v 0.598038 0.572962 -0.729576
v 0.017518 0.537806 -0.740318
v 0.017091 -0.048132 -0.754478
v 0.639542 -0.048132 -0.773033
v -0.594344 0.467493 -0.785728
v -0.605575 -0.048132 -0.773033
v -0.677840 0.467493 -0.777428
v -0.674911 -0.048132 -0.773521
v 0.017915 1.072962 -0.708580
v -0.590438 0.526087 -0.744713
v -0.561141 1.072962 -0.725182
v -0.559676 1.092493 -0.756432
v 0.589738 1.194056 -0.718346
v 0.662492 0.572962 -0.726158
v 0.651261 1.194056 -0.715904
v 0.018334 1.625695 -0.671471
v 0.580460 1.580774 -0.732018
v -0.713485 -0.048132 -0.724205
v -0.724715 0.467493 -0.707115
v -0.671493 -0.048132 0.028053
v -0.675887 0.526087 0.027903
v -0.713485 -0.048132 0.780190
v -0.663680 0.514368 0.758706
v -0.681258 0.533900 0.746987
v -0.626571 1.072962 -0.727135
v -0.649520 0.526087 -0.742760
v -0.661239 1.072962 -0.679283
v -0.688583 0.526087 -0.701256
v -0.626571 1.072962 0.027781
v 0.701554 0.572962 -0.682701
v 0.705949 -0.048132 -0.769127
v 0.747453 -0.048132 -0.724205
v 0.705949 -0.048132 0.028053
v 0.678605 0.572962 0.027931
v 0.718643 0.572962 0.755288
v 0.688370 1.194056 0.728921
v 0.650285 1.194056 0.027839
v 0.747453 -0.048132 0.780190
v 0.688370 1.194056 -0.672935
v 0.695695 1.580774 -0.662193
v 0.620988 1.639367 0.027687
v 0.651261 1.194056 0.774331
v 0.678605 0.572962 0.801675
v 0.615128 0.572962 0.802651
v 0.589738 1.194056 0.774331
v 0.017998 1.194056 0.788980
v 0.555557 1.613978 0.752847
v 0.018357 1.653040 0.723062
v 0.017503 0.510462 0.787026
v 0.639542 -0.048132 0.829019
v 0.705460 -0.048132 0.827554
v 0.017091 -0.048132 0.810464
v -0.585555 0.514368 0.794351
v -0.605575 -0.048132 0.829019
v -0.527450 1.627649 0.749429
v -0.553329 1.194056 0.793374
v -0.620223 1.194056 0.796792
v -0.591415 1.627649 0.753823
v -0.658309 0.580775 0.820230
v -0.570419 0.572962 0.817300
v -0.506942 2.125696 0.735269
v 0.018731 2.174524 0.703530
v -0.642196 0.514368 0.805581
v -0.676376 -0.048132 0.830972
v -0.505477 2.180384 0.709390
v -0.505965 2.160852 0.723550
v -0.580672 2.211634 0.738687
v -0.607528 2.207727 0.676187
v -0.504501 2.203821 0.731362
v -0.616317 2.244836 0.674233
v -0.587997 2.246789 0.747964
v -0.502547 2.238977 0.743081
v -0.578719 2.703822 0.726968
v -0.612411 2.707727 0.648355
v -0.473739 2.696008 0.744058
v -0.594344 2.735071 0.646401
v -0.563583 2.733118 0.715737
v -0.539169 2.750697 0.702065
v -0.470077 2.746789 0.696206
v -0.471542 2.729211 0.728433
v -0.499618 3.285852 0.665444
v -0.524032 3.285852 0.619546
v -0.565536 2.748743 0.645425
v -0.498153 3.841516 0.599038
v -0.476180 3.843469 0.643960
v -0.420028 3.840539 0.636147
v -0.441024 3.285852 0.658120
v 0.019143 2.744836 0.677163
v 0.019536 3.285852 0.650308
v 0.019963 3.869836 0.627358
v 0.533097 2.744836 0.695230
v 0.541886 2.174524 0.730386
v 0.510636 3.289758 0.654702
v 0.587785 2.744836 0.697671
v 0.602921 2.174524 0.731851
v 0.621475 1.694055 0.765054
v 0.551651 1.686242 0.764077
v 0.636124 2.174524 0.679605
v 0.656143 1.696009 0.696694
v 0.600480 2.174524 0.027658
v 0.619035 2.746789 0.654702
v 0.578018 2.740931 -0.065514
v 0.624893 2.178431 -0.615318
v 0.663956 1.639367 -0.660240
v 0.629288 1.639367 -0.692955
v 0.683488 1.615930 -0.661217
v 0.651261 1.612024 -0.718834
v 0.579972 1.613978 -0.718346
v 0.579484 1.639367 -0.694420
v 0.536026 2.178431 -0.656822
v 0.592667 2.178431 -0.656334
v 0.018914 2.190149 -0.661217
v -0.527450 1.623742 -0.701256
v -0.497665 2.194056 -0.657310
v -0.598251 1.623742 -0.697350
v -0.557723 1.123743 -0.770103
v -0.651962 1.127650 -0.745201
v -0.689559 1.123743 -0.675865
v -0.630965 1.623742 -0.644615
v -0.587508 2.194056 -0.615318
v -0.558212 2.194056 -0.661217
v -0.586044 1.627649 0.027595
v -0.622176 1.627649 0.705483
v -0.652450 1.194056 0.747476
v -0.607528 2.133509 0.678628
v -0.560653 2.197961 0.027472
v -0.644637 1.096400 -0.744225
v -0.677840 1.088587 -0.678307
v -0.596297 2.170618 0.677651
v -0.588973 2.180384 0.677651
v -0.607528 2.207727 0.676187
v -0.616317 2.244836 0.674233
v -0.612411 2.707727 0.648355
v -0.550887 2.752649 0.027350
v -0.594344 2.735071 0.646401
v -0.524032 3.285852 0.619546
v -0.526962 3.307336 0.027228
v -0.489852 3.853235 0.027106
v -0.498153 3.841516 0.599038
v -0.553329 3.055383 -0.584068
v -0.505477 3.831750 -0.530357
v -0.526473 3.055383 -0.628990
v -0.542098 2.752648 -0.644615
v -0.570419 2.746789 -0.599693
v -0.480575 3.831750 -0.578209
v -0.487899 4.354211 -0.514244
v -0.461288 4.354211 -0.574303
v -0.467880 4.398156 -0.512291
v -0.446639 4.398156 -0.554771
v -0.483016 2.750696 -0.640221
v -0.468856 3.055383 -0.623619
v -0.396102 4.354211 -0.580162
v -0.422714 3.831750 -0.574791
v 0.019940 3.839562 -0.568443
v 0.020367 4.420618 -0.516197
v 0.019597 3.295618 -0.592857
v 0.019185 2.744836 -0.630455
v -0.394393 4.398156 -0.547447
v 0.520158 2.785851 -0.650963
v 0.499650 3.238976 -0.622154
v 0.449357 4.297571 -0.551842
v 0.479141 3.676476 -0.587975
v 0.530656 3.677454 -0.589439
v 0.497697 4.298547 -0.554283
v 0.423478 4.918176 -0.524986
v 0.469132 4.919641 -0.528893
v 0.443497 5.207482 -0.523033
v 0.489396 5.208947 -0.526451
v 0.496964 3.295618 -0.593834
v 0.020730 4.918664 -0.512779
v 0.423478 5.496667 -0.521080
v 0.021237 5.207482 -0.514732
v -0.359725 5.206994 -0.517662
v -0.375106 4.917688 -0.525963
v -0.379989 5.496148 -0.522057
v 0.469376 5.498254 -0.524498
v -0.410018 5.206994 -0.525963
v -0.425155 4.917688 -0.534264
v -0.429305 5.206994 -0.484459
v -0.444198 4.917688 -0.492760
v -0.450546 4.918176 0.026833
v -0.438583 5.207238 0.026772
v -0.500106 4.453820 -0.510338
v -0.457870 4.413781 0.026955
v -0.478622 4.297571 0.582437
v -0.444686 4.918664 0.533607
v -0.430282 5.496148 -0.530357
v -0.449813 5.496148 -0.488365
v -0.450057 5.496423 0.026682
v -0.450301 5.496728 0.541908
v -0.447860 5.207482 0.537758
v -0.471786 4.452844 -0.582115
v -0.391952 4.463586 -0.591881
v -0.463729 4.419641 -0.573326
v -0.393172 4.430383 -0.580650
v -0.488876 4.419641 -0.511803
v -0.525497 3.891321 0.597573
v -0.515243 3.856164 0.598550
v 0.471817 5.209436 0.537758
v 0.450578 5.207971 0.577065
v 0.469376 5.497094 0.581460
v 0.490861 5.498681 0.541908
v 0.490617 5.499261 0.027077
v 0.491105 5.210046 0.024025
v 0.464494 4.919641 0.027199
v 0.490372 4.920129 0.533607
v 0.493790 4.298547 0.027292
v 0.521867 4.299524 0.570230
v 0.517716 3.852258 0.027382
v 0.527725 3.859094 0.584390
v 0.489884 4.921106 -0.492271
v 0.521378 4.300500 -0.516685
v 0.490128 5.499841 -0.487877
v 0.510148 5.210534 -0.489830
v 0.423966 5.495477 0.575601
v 0.405167 5.206506 0.570962
v 0.021241 5.207238 0.572915
v 0.020730 4.918664 0.553871
v 0.423966 4.917199 0.566567
v 0.449600 4.296594 0.605386
v 0.469132 4.918664 0.572915
v 0.497697 4.297571 0.610757
v 0.470841 3.858118 0.618569
v 0.501603 3.857141 0.612222
v 0.020276 4.297571 0.624917
v -0.404159 4.297571 0.617593
v -0.417831 3.898157 0.667397
v -0.489852 3.910852 0.660073
v -0.458358 4.297571 0.626382
v -0.375594 4.918664 0.566567
v -0.427108 4.918664 0.576577
v -0.378524 5.207482 0.570962
v -0.430282 5.207482 0.580483
v -0.380477 5.496728 0.575601
v -0.432479 5.496728 0.584878
v -0.447860 5.207482 0.537758
v -0.444686 4.918664 0.533607
v -0.478622 4.297571 0.582437
v -0.525497 3.891321 0.597573
v -0.450301 5.496728 0.541908
v -0.486922 3.872766 0.656655
v -0.515243 3.856164 0.598550
v -0.419296 3.863000 0.657632
v 0.471817 3.840539 0.634683
v 0.518692 3.840539 0.636636
v 0.543839 3.841516 0.592202
v 0.528214 3.808313 0.649331
v 0.473771 3.803430 0.651284
v 0.556046 3.295618 0.651772
v 0.584367 3.295618 0.620034
v 0.554581 3.805383 0.598550
v 0.552140 3.301477 0.030954
v 0.557023 3.679406 -0.550377
v 0.563859 3.297570 -0.564049
v 0.584367 3.268273 -0.570396
v 0.536026 3.295618 -0.587486
v 0.557511 3.264368 -0.613853
v 0.498429 3.266320 -0.613365
v 0.565324 3.238976 -0.623131
v 0.593643 3.240931 -0.573814
v 0.592667 2.789758 -0.650963
v 0.622941 2.787806 -0.597252
v 0.585343 2.764368 -0.646080
v 0.614640 2.762414 -0.598717
v 0.594620 2.735071 -0.599693
v 0.564347 2.735071 -0.630455
v 0.604386 2.723351 -0.600670
v 0.575578 2.719446 -0.639244
v 0.522599 2.735071 -0.630455
v 0.523820 2.709681 -0.640221
v 0.521378 2.758508 -0.644615
v 0.583878 2.692101 -0.645592
v 0.614640 2.697961 -0.601646
v 0.525040 2.680383 -0.646568
v -0.484969 2.699914 -0.669029
v -0.566024 2.703821 -0.673424
v -0.594833 2.696008 -0.601646
v -0.483993 2.735071 -0.655846
v -0.556258 2.735071 -0.661705
v -0.583114 2.731164 -0.600670
v 0.599503 1.653040 0.730386
v 0.620011 1.627649 0.752847
v 0.554093 1.629603 0.744546
v 0.552628 1.653040 0.718667
v 0.634171 1.653040 0.698159
v 0.655167 1.629603 0.704507
v 0.552140 1.670617 0.755776
v 0.617570 1.678430 0.759194
v 0.650773 1.676478 0.697183
v 0.625870 1.612024 0.759194
v 0.662003 1.612024 0.706948
v 0.661026 1.580774 -0.730064
v -0.593856 0.502650 -0.773033
v -0.670516 0.502650 -0.767662
v -0.713485 0.502650 -0.705650
v -0.693465 0.569056 0.749429
v -0.650497 0.549525 0.809487
v -0.571395 0.537806 0.805093
v -0.561141 1.072962 -0.725182
v 0.017915 1.072962 -0.708580
v -0.578719 2.129602 0.740151
v -0.570419 2.164759 0.728921
v -0.560653 2.180384 0.714272
v -0.588973 2.180384 0.677651
v -0.505477 2.180384 0.709390
v -0.587997 2.246789 0.747964
v -0.578719 2.703822 0.726968
v -0.539169 2.750697 0.702065
v -0.499618 3.285852 0.665444
v -0.476180 3.843469 0.643960
v 0.587785 2.744836 0.697671
v 0.621475 1.694055 0.765054
v -0.558212 2.194056 -0.661217
v -0.626571 1.072962 -0.727135
v -0.661239 1.072962 -0.679283
v -0.588973 2.180384 0.677651
v -0.565536 2.748743 0.645425
v -0.526473 3.055383 -0.628990
v -0.542098 2.752648 -0.644615
v -0.480575 3.831750 -0.578209
v -0.461288 4.354211 -0.574303
v -0.446639 4.398156 -0.554771
v -0.425155 4.917688 -0.534264
v -0.410018 5.206994 -0.525963
v -0.430282 5.496148 -0.530357
v -0.471786 4.452844 -0.582115
v -0.394393 4.398156 -0.547447
v -0.446639 4.398156 -0.554771
v -0.467880 4.398156 -0.512291
v -0.463729 4.419641 -0.573326
v 0.469376 5.497094 0.581460
v 0.450578 5.207971 0.577065
v 0.497697 4.297571 0.610757
v 0.469132 4.918664 0.572915
v -0.430282 5.207482 0.580483
v -0.427108 4.918664 0.576577
v -0.458358 4.297571 0.626382
v -0.489852 3.910852 0.660073
v -0.432479 5.496728 0.584878
v 0.501603 3.857141 0.612222
v 0.528214 3.808313 0.649331
v 0.497697 4.298547 -0.554283
v 0.469132 4.919641 -0.528893
v 0.489396 5.208947 -0.526451
v 0.469376 5.498254 -0.524498
v 0.565324 3.238976 -0.623131
v 0.592667 2.789758 -0.650963
v 0.594620 2.735071 -0.599693
v 0.564347 2.735071 -0.630455
v 0.522599 2.735071 -0.630455
v -0.566024 2.703821 -0.673424
v -0.556258 2.735071 -0.661705
v 0.599503 1.653040 0.730386
v 0.552628 1.653040 0.718667
v 0.018357 1.653040 0.723062
v 0.634171 1.653040 0.698159
v 0.625870 1.612024 0.759194
v 0.661026 1.580774 -0.730064
v -0.649520 0.526087 -0.742760
v -0.650497 0.549525 0.809487
vn -0.0000 -1.0000 -0.0000
vn -0.0000 1.0000 -0.0000
vn -0.0000 -0.0076 1.0000
vn 0.0001 -0.0076 1.0000
vn -0.0000 -0.0085 -1.0000
vn 1.0000 -0.0032 -0.0000
vn 0.9993 0.0034 0.0365
vn 0.9993 0.0036 0.0367
vn 0.9993 0.0035 0.0366
vn 0.9993 0.0032 0.0365
vn -0.0391 0.0082 0.9992
vn -0.0387 0.0078 0.9992
vn -0.0393 0.0083 0.9992
vn -0.0398 0.0086 0.9992
vn -0.9993 0.0036 -0.0370
vn 1.0000 -0.0033 -0.0060
vn 1.0000 -0.0034 -0.0060
vn -0.0071 -0.0072 -0.9999
vn -0.0071 -0.0071 -0.9999
vn -0.0070 -0.0071 -0.9999
vn -1.0000 -0.0033 0.0060
vn -1.0000 -0.0034 0.0060
vn -0.0032 -1.0000 0.0031
vn -0.0033 -1.0000 0.0030
vn -0.0086 0.0012 1.0000
vn -0.0034 1.0000 -0.0022
vn -0.0035 1.0000 -0.0023
vn -1.0000 -0.0000 -0.0000
vn 0.0039 -0.9999 0.0153
vn 0.0037 -0.9999 0.0152
vn 0.0038 -0.9999 0.0153
vn 0.0040 -0.9999 0.0154
vn 0.0095 -0.0147 -0.9998
vn 0.0094 -0.0146 -0.9998
vn 0.0039 0.9999 -0.0154
vn 0.0038 0.9999 -0.0154
vn 0.9996 -0.0033 -0.0293
vn 0.9996 -0.0035 -0.0294
vn 0.9996 -0.0034 -0.0294
vn -0.0306 -0.0077 -0.9995
vn 0.0298 -0.0086 0.9995
vn 0.0299 -0.0087 0.9995
vn 0.0297 -0.0085 0.9995
vn -0.9996 -0.0037 0.0295
vn -0.9996 -0.0035 0.0297
vn -0.9996 -0.0039 0.0294
vn -0.9996 -0.0041 0.0292
vn 0.0419 -0.0077 -0.9991
vn -0.9995 -0.0160 -0.0287
vn 0.9994 -0.0179 0.0293
vn 0.9994 -0.0176 0.0295
vn 0.9994 -0.0177 0.0294
vn 0.9994 -0.0180 0.0292
vn -0.0421 -0.0076 0.9991
vn -0.0419 -0.0072 0.9991
vn -0.0424 -0.0082 0.9991
vn -0.0426 -0.0086 0.9991
vn 0.0426 0.0092 0.9991
vn 0.0431 0.0080 0.9990
vn 0.0429 0.0084 0.9990
vn 0.0424 0.0096 0.9991
vn -0.9994 0.0176 0.0307
vn -0.9994 0.0173 0.0309
vn -0.9994 0.0174 0.0308
vn -0.9994 0.0178 0.0306
vn 0.9994 -0.0210 0.0259
vn 0.9994 -0.0215 0.0257
vn 0.9994 -0.0214 0.0258
vn 0.9994 -0.0209 0.0260
vn 0.0387 -0.0080 -0.9992
vn 0.0390 -0.0073 -0.9992
vn 0.0389 -0.0075 -0.9992
vn 0.0387 -0.0082 -0.9992
vn -0.9995 -0.0160 -0.0283
vn -0.9995 -0.0157 -0.0284
vn -0.9995 -0.0159 -0.0283
vn -0.9995 -0.0162 -0.0282
vn -0.0388 -0.0082 0.9992
vn -0.0388 -0.0083 0.9992
vn -0.0388 -0.0081 0.9992
vn 1.0000 -0.0000 -0.0000
vn -0.0045 -0.0049 -1.0000
vn -0.0047 -0.0044 -1.0000
vn -0.0041 -0.0058 -1.0000
vn -0.0039 -0.0063 -1.0000
vn -0.0071 1.0000 -0.0014
vn -0.0076 1.0000 -0.0010
vn -0.0067 1.0000 -0.0019
vn -0.0081 -0.9997 0.0209
vn -0.0085 -0.9998 0.0205
vn -0.0077 -0.9997 0.0213
vn -0.0037 -0.0142 0.9999
vn -0.0044 -0.0126 0.9999
vn -0.0041 -0.0132 0.9999
vn -0.0034 -0.0148 0.9999
vn -0.9998 -0.0210 0.0041
vn -0.9998 -0.0211 0.0042
vn -0.9998 -0.0210 0.0042
vn -0.0057 -0.0112 -0.9999
vn -0.0054 -0.0118 -0.9999
vn -0.0062 -0.0098 -0.9999
vn -0.0064 -0.0092 -0.9999
vn 0.0227 0.0245 -0.9994
vn 0.0262 0.0517 -0.9983
vn 0.0232 0.0437 -0.9988
vn 0.0161 0.0706 -0.9974
vn -0.0276 0.1590 -0.9869
vn 0.0128 -0.0170 -0.9998
vn -0.5050 0.1567 -0.8488
vn -0.4345 -0.0093 -0.9006
vn 0.0170 0.0565 -0.9983
vn -0.0118 0.4475 -0.8942
vn 0.0293 -0.0242 -0.9993
vn -0.0490 -0.6415 -0.7656
vn 0.0152 -0.8482 -0.5294
vn -0.0437 -0.8463 -0.5310
vn -0.0051 0.0024 -1.0000
vn 0.4275 0.0583 -0.9021
vn 0.4320 -0.0102 -0.9018
vn 0.0013 0.0427 -0.9991
vn -0.0380 0.1666 -0.9853
vn -0.9526 -0.0168 -0.3037
vn -0.9557 0.1431 -0.2574
vn -0.9999 -0.0108 0.0034
vn -0.9986 0.0515 0.0072
vn -0.9495 0.0747 0.3048
vn -0.9314 -0.2640 0.2504
vn -0.8643 -0.4639 0.1946
vn -0.2569 -0.2410 -0.9359
vn -0.2854 0.3818 -0.8791
vn -0.8943 -0.2639 -0.3614
vn -0.8209 0.4851 -0.3014
vn -0.9975 0.0703 0.0054
vn 0.9404 0.0546 -0.3356
vn 0.4330 0.0930 -0.8966
vn 0.9339 0.0921 -0.3456
vn 0.9987 0.0500 -0.0062
vn 0.9991 0.0420 -0.0083
vn 0.9451 0.0576 0.3217
vn 0.9484 0.0675 0.3097
vn 0.9988 0.0482 0.0076
vn 0.9412 0.0563 0.3330
vn 0.9468 -0.0002 -0.3217
vn 0.9690 0.1583 -0.1895
vn 0.9980 0.0618 0.0095
vn 0.4311 0.0630 0.9001
vn 0.4222 0.0577 0.9046
vn -0.0006 0.0369 0.9993
vn 0.0103 0.0454 0.9989
vn 0.0103 0.0675 0.9977
vn -0.0443 0.2714 0.9615
vn -0.0065 0.0938 0.9956
vn 0.0011 0.0141 0.9999
vn -0.0034 0.0419 0.9991
vn 0.4246 0.0560 0.9037
vn -0.0047 0.0462 0.9989
vn 0.1137 -0.2135 0.9703
vn 0.0341 0.0521 0.9981
vn 0.0506 0.0671 0.9965
vn 0.0292 0.0680 0.9973
vn 0.0517 0.0648 0.9966
vn 0.0684 0.0608 0.9958
vn 0.0232 -0.1236 0.9921
vn 0.0214 -0.1525 0.9881
vn 0.0614 0.1644 0.9845
vn 0.0055 0.0434 0.9990
vn 0.1223 -0.0715 0.9899
vn 0.0275 0.0434 0.9987
vn 0.0752 0.1498 0.9859
vn 0.0891 0.3446 0.9345
vn 0.0620 0.4523 0.8897
vn 0.0543 0.5929 0.8035
vn -0.7819 -0.5888 0.2051
vn -0.2560 -0.7045 0.6619
vn -0.4563 -0.4595 0.7620
vn -0.9088 -0.3830 0.1654
vn 0.0323 -0.6843 0.7285
vn 0.0299 -0.5040 0.8632
vn -0.9831 -0.1035 0.1508
vn -0.9264 -0.1138 0.3589
vn 0.0392 -0.1158 0.9925
vn 0.0564 -0.1554 0.9862
vn -0.8807 0.2711 0.3884
vn -0.9460 0.2838 0.1569
vn -0.0043 0.2096 0.9778
vn -0.1413 0.2149 0.9664
vn -0.6703 0.7304 0.1314
vn -0.4570 0.6694 0.5857
vn -0.4225 0.6098 0.6705
vn -0.0071 0.6704 0.7420
vn 0.0408 0.5252 0.8500
vn 0.1229 0.0494 0.9912
vn 0.0878 0.0615 0.9942
vn -0.8807 0.0778 0.4673
vn -0.9690 0.0701 0.2368
vn -0.8611 0.4606 0.2154
vn -0.8899 -0.4015 0.2164
vn -0.8372 -0.2725 0.4741
vn 0.0755 -0.3381 0.9381
vn 0.0412 -0.2753 0.9605
vn 0.0729 0.0488 0.9961
vn 0.0157 0.0590 0.9981
vn 0.0007 0.0476 0.9989
vn 0.0294 0.0202 0.9994
vn -0.0375 0.0639 0.9973
vn -0.0378 0.0639 0.9972
vn 0.0206 0.0475 0.9987
vn 0.4245 0.0788 0.9020
vn 0.4688 0.0722 0.8803
vn 0.0363 -0.1107 0.9932
vn -0.0290 -0.2109 0.9771
vn 0.9664 0.0498 0.2521
vn 0.8427 0.0545 0.5356
vn 0.8758 -0.1499 0.4588
vn 0.9737 -0.0972 0.2059
vn 0.9664 0.0498 0.2520
vn 0.9993 0.0351 -0.0082
vn 0.9570 0.0596 0.2840
vn 0.9992 0.0381 0.0153
vn 0.9519 0.0524 -0.3018
vn 0.8385 0.3965 -0.3738
vn 0.3449 0.4795 -0.8069
vn 0.8388 0.5026 -0.2094
vn 0.3987 0.5790 -0.7112
vn -0.0237 0.5411 -0.8406
vn -0.0030 0.3962 -0.9182
vn 0.0094 0.0453 -0.9989
vn 0.4370 0.0587 -0.8975
vn 0.0076 0.0366 -0.9993
vn 0.0014 0.0912 -0.9958
vn 0.0256 0.0229 -0.9994
vn -0.5088 0.1245 -0.8518
vn -0.0577 -0.1173 -0.9914
vn -0.6363 -0.0140 -0.7713
vn -0.9763 -0.0811 -0.2005
vn -0.9659 0.0995 -0.2389
vn -0.9657 0.0445 -0.2560
vn -0.8467 0.0465 -0.5300
vn 0.0644 0.0186 -0.9978
vn -0.9984 0.0567 0.0045
vn -0.9665 0.0630 0.2488
vn -0.9600 0.0825 0.2675
vn -0.9688 0.1619 0.1878
vn -0.9994 0.0298 -0.0152
vn -0.5057 -0.4441 -0.7397
vn -0.5057 -0.4441 -0.7396
vn -0.5579 -0.7248 -0.4042
vn -0.8943 -0.2638 -0.3614
vn -0.8393 -0.5045 -0.2024
vn -0.6839 -0.7288 0.0335
vn -0.8647 0.4534 0.2163
vn -0.7655 0.5741 0.2905
vn -0.7818 -0.5888 0.2051
vn -0.9831 -0.1036 0.1508
vn -0.9991 0.0422 -0.0055
vn -0.8611 0.4606 0.2153
vn -0.9983 0.0558 0.0148
vn -0.9985 0.0537 0.0043
vn -0.9644 0.0692 -0.2551
vn -0.9729 0.0579 -0.2237
vn -0.8563 0.0791 -0.5104
vn -0.8010 0.4317 -0.4148
vn -0.8893 0.3936 -0.2329
vn -0.8713 0.0621 -0.4869
vn -0.9573 0.2202 -0.1873
vn -0.8883 0.2181 -0.4041
vn -0.8836 0.4245 -0.1976
vn -0.5850 0.4842 -0.6507
vn 0.0521 0.4042 -0.9132
vn 0.0724 0.4363 -0.8969
vn 0.0916 0.0544 -0.9943
vn 0.0590 0.0565 -0.9967
vn 0.0598 0.0256 -0.9979
vn -0.8664 0.1116 -0.4868
vn -0.0877 0.2026 -0.9753
vn -0.2280 0.1879 -0.9554
vn -0.4498 -0.0012 -0.8931
vn 0.0176 0.2857 -0.9582
vn 0.0363 0.0244 -0.9990
vn 0.0067 0.0520 -0.9986
vn 0.0277 0.0537 -0.9982
vn 0.0027 0.0588 -0.9983
vn 0.0069 0.0651 -0.9979
vn 0.0671 0.5941 -0.8016
vn 0.1120 0.5906 -0.7992
vn -0.0158 -0.0806 -0.9966
vn -0.0238 0.1824 -0.9829
vn -0.0497 0.0511 -0.9975
vn -0.0234 0.0382 -0.9990
vn 0.4546 0.0507 -0.8892
vn -0.0522 0.0474 -0.9975
vn -0.0567 0.0252 -0.9981
vn -0.0855 0.0244 -0.9960
vn -0.0501 0.0059 -0.9987
vn -0.0745 0.0075 -0.9972
vn 0.0730 0.2979 -0.9518
vn -0.0055 0.0104 -0.9999
vn -0.0420 -0.0021 -0.9991
vn -0.0038 -0.0114 -0.9999
vn 0.0864 0.0035 -0.9963
vn 0.1168 0.0610 -0.9913
vn 0.0877 -0.0107 -0.9961
vn -0.0743 0.0016 -0.9972
vn 0.1629 0.0080 -0.9866
vn 0.1473 0.0802 -0.9858
vn -0.9749 -0.0085 -0.2226
vn -0.9069 -0.0048 -0.4214
vn -0.9060 0.0925 -0.4130
vn -0.9715 0.0912 -0.2189
vn -0.9991 0.0420 0.0009
vn -0.9999 0.0008 -0.0122
vn -0.9824 -0.0948 -0.1611
vn -0.9994 0.0295 0.0161
vn -0.9757 0.0830 0.2026
vn -0.9805 0.0268 0.1945
vn -0.9045 -0.0698 -0.4207
vn 0.1628 -0.0036 -0.9866
vn -0.9730 -0.0667 -0.2211
vn -0.9992 -0.0396 -0.0005
vn -0.9815 -0.0160 0.1907
vn -0.9818 -0.0078 0.1898
vn -0.9255 -0.0817 -0.3697
vn 0.0383 -0.0787 -0.9962
vn -0.1088 -0.0910 -0.9899
vn -0.2248 -0.5903 -0.7752
vn 0.0527 -0.5165 -0.8546
vn 0.0733 -0.7042 -0.7062
vn -0.2382 -0.7364 -0.6333
vn -0.6973 -0.7019 -0.1455
vn -0.8548 -0.4987 -0.1434
vn -0.8804 -0.3089 -0.3599
vn -0.9734 -0.0736 0.2171
vn -0.8364 -0.5077 0.2064
vn 0.8781 -0.0646 0.4742
vn 0.8799 -0.0067 0.4752
vn 0.9694 -0.0123 0.2452
vn 0.9682 -0.0672 0.2411
vn 0.9999 -0.0095 0.0122
vn 0.9988 -0.0392 0.0308
vn 0.9999 -0.0074 0.0117
vn 0.9748 0.0605 0.2145
vn 0.9987 0.0506 -0.0006
vn 0.9679 0.0464 0.2471
vn 0.9982 0.0597 0.0015
vn 0.9285 0.2909 0.2309
vn 0.9728 -0.0057 -0.2314
vn 0.9655 0.0633 -0.2527
vn 0.9685 0.0572 -0.2423
vn 0.9726 0.0003 -0.2323
vn -0.1327 -0.0152 0.9910
vn -0.1277 -0.0068 0.9918
vn -0.0662 -0.0100 0.9978
vn -0.0669 -0.0213 0.9975
vn -0.0000 -0.0389 0.9992
vn 0.0028 0.0207 0.9998
vn -0.0858 0.0196 0.9961
vn -0.0436 0.0480 0.9979
vn -0.1390 0.0171 0.9901
vn -0.0828 0.0389 0.9958
vn 0.8767 0.0612 0.4772
vn 0.8568 0.0491 0.5133
vn 0.1107 0.3776 0.9193
vn 0.3666 0.3965 0.8417
vn 0.9285 0.2908 0.2309
vn 0.0286 0.0737 0.9969
vn 0.0692 0.0951 0.9931
vn -0.0301 -0.0925 0.9953
vn -0.5271 0.0125 0.8497
vn 0.1604 0.0730 0.9843
vn 0.1096 0.0306 0.9935
vn 0.1901 0.0287 0.9813
vn 0.0942 -0.0194 0.9954
vn 0.1806 -0.0129 0.9835
vn 0.0875 -0.0136 0.9961
vn 0.1756 -0.0136 0.9844
vn -0.9251 0.0313 0.3785
vn -0.9246 -0.0143 0.3806
vn -0.9818 -0.0078 0.1897
vn -0.9043 0.0963 0.4159
vn -0.9026 0.1098 0.4162
vn -0.9734 -0.0736 0.2170
vn -0.9236 -0.0128 0.3831
vn -0.4894 -0.2794 0.8261
vn 0.0130 -0.4667 0.8843
vn 0.0278 0.5667 0.8235
vn 0.3760 0.6316 0.6780
vn 0.4441 0.8543 0.2701
vn 0.8163 0.5318 0.2254
vn 0.0286 0.1863 0.9821
vn -0.0040 0.1953 0.9807
vn 0.4360 0.0613 0.8979
vn 0.9441 0.0698 0.3222
vn 0.9574 0.1913 0.2163
vn 0.8671 0.2403 0.4363
vn 0.9982 0.0593 -0.0042
vn 0.9601 0.0535 -0.2745
vn 0.8483 0.3375 -0.4080
vn 0.8333 0.4904 -0.2552
vn 0.8430 0.0695 -0.5334
vn 0.3745 0.3783 -0.8466
vn 0.8699 0.0040 -0.4931
vn 0.8700 0.0016 -0.4931
vn 0.8671 0.0633 -0.4941
vn 0.3797 0.5526 -0.7419
vn 0.0138 0.4476 -0.8941
vn 0.2707 0.2811 -0.9207
vn 0.9519 0.2013 -0.2308
vn 0.8626 -0.1212 -0.4912
vn 0.8627 0.0834 -0.4987
vn -0.0026 -0.0533 -0.9986
vn 0.9686 -0.1129 -0.2215
vn 0.4264 -0.4164 -0.8030
vn 0.8746 -0.4240 -0.2352
vn 0.7480 -0.6036 -0.2760
vn 0.2414 -0.5928 -0.7683
vn 0.2484 0.5924 -0.7664
vn 0.7118 0.6206 -0.3289
vn 0.8169 0.5032 -0.2821
vn 0.3649 0.4575 -0.8109
vn -0.0153 0.3722 -0.9280
vn -0.0167 0.2795 -0.9600
vn -0.0048 -0.5173 -0.8558
vn -0.0033 -0.3736 -0.9276
vn 0.4557 0.1707 -0.8736
vn 0.9407 0.1987 -0.2750
vn -0.0052 0.1122 -0.9937
vn 0.0494 0.1684 -0.9845
vn 0.0640 0.1457 -0.9873
vn -0.9768 0.1432 -0.1591
vn -0.9187 0.1860 -0.3485
vn 0.0527 0.5357 -0.8428
vn 0.0720 0.4551 -0.8875
vn -0.7925 0.5352 -0.2924
vn -0.8643 0.4752 -0.1645
vn -0.0569 0.5963 0.8007
vn 0.3074 0.5679 0.7635
vn 0.1218 0.7376 0.6642
vn -0.0734 0.7371 0.6717
vn 0.6645 0.7084 0.2378
vn 0.8132 0.5251 0.2512
vn -0.0179 -0.7077 0.7062
vn -0.0478 -0.9030 0.4271
vn 0.2706 -0.8071 0.5248
vn 0.0035 -0.9037 0.4281
vn 0.4232 -0.5832 0.6934
vn 0.7551 -0.5181 0.4017
vn 0.8710 -0.4317 0.2346
vn 0.2147 0.3176 0.9236
vn 0.9354 0.2251 0.2726
vn 0.8204 0.0704 0.5674
vn 0.6751 0.2574 -0.6914
vn 0.0258 -0.0350 -0.9991
vn -0.0245 0.5618 -0.8269
vn -0.4105 0.5443 -0.7315
vn -0.4272 0.8099 -0.4021
vn -0.8245 0.5105 -0.2442
vn -0.9638 -0.1386 0.2276
vn 0.0311 -0.3637 0.9310
vn 0.0403 -0.1009 0.9941
vn -0.5830 -0.3555 0.7305
vt 0.003374 -0.335449
vt 0.003374 -0.245117
vt 0.164917 -0.245117
vt 0.164917 -0.335449
vt 0.003262 -0.443848
vt 0.164917 -0.443848
vt 0.164917 -0.534180
vt 0.003262 -0.534180
vt 0.264160 -0.433838
vt 0.173828 -0.433838
vt 0.173828 -0.342773
vt 0.264160 -0.342773
vt 0.173462 -0.443359
vt 0.263672 -0.443359
vt 0.263672 -0.534668
vt 0.173462 -0.534668
vt 0.164917 -0.342773
vt 0.164917 -0.433838
vt 0.003284 -0.433838
vt 0.003319 -0.342773
vt 0.164917 -0.237549
vt 0.003374 -0.237549
vt 0.003374 -0.146484
vt 0.164917 -0.146484
vt 0.623047 0.000346
vt 0.623047 -0.116882
vt 0.521973 -0.124023
vt 0.521973 0.000346
vt 0.714355 -0.101563
vt 0.712891 0.000346
vt 0.722168 -0.102844
vt 0.722168 0.000346
vt 0.623047 -0.223999
vt 0.712891 -0.114929
vt 0.713379 -0.223999
vt 0.713379 -0.228271
vt 0.521973 -0.248413
vt 0.512695 -0.124023
vt 0.512695 -0.248413
vt 0.623047 -0.334961
vt 0.521973 -0.325928
vt 0.731445 0.000346
vt 0.730957 -0.102661
vt 0.865723 0.000346
vt 0.865723 -0.114746
vt 1.000000 0.000346
vt 1.000977 -0.112366
vt 1.000977 -0.116150
vt 0.722168 -0.223999
vt 0.722168 -0.115112
vt 0.730957 -0.223999
vt 0.731445 -0.114929
vt 0.865723 -0.223999
vt 0.503906 -0.124023
vt 0.512695 0.000346
vt 0.503906 0.000346
vt 0.364990 0.000346
vt 0.364990 -0.124023
vt 0.226807 -0.124023
vt 0.226807 -0.248413
vt 0.364990 -0.248413
vt 0.226807 0.000346
vt 0.503906 -0.248413
vt 0.503906 -0.325928
vt 0.364990 -0.337402
vt 0.217529 -0.248413
vt 0.217529 -0.124023
vt 0.208374 -0.124023
vt 0.208374 -0.248413
vt 0.106201 -0.248413
vt 0.209961 -0.332031
vt 0.106201 -0.340576
vt 0.106384 -0.111572
vt 0.208374 0.000346
vt 0.217529 0.000346
vt 0.106201 0.000346
vt 0.018509 -0.112305
vt 0.018829 0.000346
vt 0.016678 -0.335693
vt 0.018829 -0.248413
vt 0.009521 -0.248413
vt 0.010010 -0.335205
vt 0.009483 -0.125854
vt 0.018539 -0.123840
vt 0.018738 -0.435059
vt 0.106201 -0.444824
vt 0.009476 -0.112305
vt 0.009521 0.000346
vt 0.009232 -0.436279
vt 0.009193 -0.442871
vt 0.018723 -0.442383
vt 0.018723 -0.446289
vt 0.000342 -0.446289
vt 0.009178 -0.446289
vt 0.009193 -0.451172
vt 0.000339 -0.450439
vt 0.018723 -0.449463
vt 0.000334 -0.457031
vt 0.009201 -0.457275
vt 0.018723 -0.455566
vt 0.009712 -0.547363
vt 0.000140 -0.548340
vt 0.019470 -0.545898
vt 0.000126 -0.554688
vt 0.009750 -0.553711
vt 0.009781 -0.559082
vt 0.019547 -0.553223
vt 0.019577 -0.558594
vt 0.009285 -0.667480
vt -0.000014 -0.667480
vt 0.000117 -0.559082
vt 0.000215 -0.778809
vt 0.009521 -0.779297
vt 0.018829 -0.778320
vt 0.019241 -0.667480
vt 0.106262 -0.559082
vt 0.106201 -0.666992
vt 0.106201 -0.784180
vt 0.207764 -0.559082
vt 0.209229 -0.445068
vt 0.208374 -0.668457
vt 0.215454 -0.559570
vt 0.218140 -0.444824
vt 0.218506 -0.349854
vt 0.210205 -0.347900
vt 0.226929 -0.445313
vt 0.226929 -0.349121
vt 0.364990 -0.444824
vt 0.224243 -0.558594
vt 0.384521 -0.558105
vt 0.504883 -0.445801
vt 0.503906 -0.337646
vt 0.512695 -0.337646
vt 0.503906 -0.333008
vt 0.512695 -0.332275
vt 0.521973 -0.332764
vt 0.521973 -0.337646
vt 0.523438 -0.446045
vt 0.513672 -0.445801
vt 0.622070 -0.448975
vt 0.714844 -0.335205
vt 0.712402 -0.449219
vt 0.723633 -0.334473
vt 0.713379 -0.234497
vt 0.722168 -0.234985
vt 0.730957 -0.234253
vt 0.730957 -0.334473
vt 0.731934 -0.448730
vt 0.721680 -0.449219
vt 0.865723 -0.335205
vt 1.002930 -0.335205
vt 1.000000 -0.248413
vt 0.999512 -0.436768
vt 0.865723 -0.449707
vt 0.722168 -0.229004
vt 0.730957 -0.227417
vt 0.999512 -0.444092
vt 0.999512 -0.446289
vt 0.999512 -0.450439
vt 0.999512 -0.457031
vt 0.999512 -0.548340
vt 0.866211 -0.560547
vt 0.999512 -0.554688
vt 0.999512 -0.559082
vt 0.999023 -0.667480
vt 0.866211 -0.671875
vt 0.865723 -0.780762
vt 1.000000 -0.778809
vt 0.731445 -0.621094
vt 0.731445 -0.777344
vt 0.722168 -0.621094
vt 0.722168 -0.560547
vt 0.731445 -0.559570
vt 0.721191 -0.776855
vt 0.731934 -0.881348
vt 0.722168 -0.881348
vt 0.730957 -0.890137
vt 0.722168 -0.890137
vt 0.712891 -0.560059
vt 0.712891 -0.621094
vt 0.712402 -0.881348
vt 0.712402 -0.776855
vt 0.623535 -0.778809
vt 0.623047 -0.894531
vt 0.620605 -0.666504
vt 0.623047 -0.559082
vt 0.713379 -0.890137
vt 0.521973 -0.567383
vt 0.521973 -0.657715
vt 0.521973 -0.870117
vt 0.521973 -0.745605
vt 0.512695 -0.745605
vt 0.512695 -0.870117
vt 0.521973 -0.994629
vt 0.512695 -0.994629
vt 0.521973 -1.069336
vt 0.512695 -1.069336
vt 0.521973 -0.668945
vt 0.623047 -0.994629
vt 0.521973 -1.126953
vt 0.623047 -1.069336
vt 0.712891 -1.069336
vt 0.712891 -0.994629
vt 0.712891 -1.126953
vt 0.512695 -1.126953
vt 0.722168 -1.069336
vt 0.722168 -0.994629
vt 0.731445 -1.069336
vt 0.731445 -0.994629
vt 0.865723 -0.994629
vt 0.865723 -1.069336
vt 0.731445 -0.901367
vt 0.865723 -0.893555
vt 1.000000 -0.870117
vt 1.000000 -0.994629
vt 0.722168 -1.126953
vt 0.731445 -1.126953
vt 0.865723 -1.126953
vt 1.000000 -1.126953
vt 1.000000 -1.069336
vt 0.722168 -0.901367
vt 0.713379 -0.903320
vt 0.722168 -0.894531
vt 0.713379 -0.896484
vt 0.731445 -0.894531
vt 1.000000 -0.788574
vt 1.000000 -0.781738
vt 0.217529 -1.126953
vt 0.217529 -1.069336
vt 0.226807 -1.069336
vt 0.226807 -1.126953
vt 0.364990 -1.126953
vt 0.364990 -1.069336
vt 0.364990 -0.994629
vt 0.226807 -0.994629
vt 0.364990 -0.870117
vt 0.226807 -0.870117
vt 0.364990 -0.780273
vt 0.227783 -0.782715
vt 0.503906 -0.994629
vt 0.503906 -0.870117
vt 0.503906 -1.126953
vt 0.503906 -1.069336
vt 0.208374 -1.126953
vt 0.208374 -1.069336
vt 0.106201 -1.069336
vt 0.106201 -0.994629
vt 0.208374 -0.994629
vt 0.208374 -0.870117
vt 0.217529 -0.994629
vt 0.217529 -0.870117
vt 0.208252 -0.782715
vt 0.215820 -0.783203
vt 0.106201 -0.870117
vt 0.018829 -0.870117
vt 0.018829 -0.790039
vt 0.009521 -0.792480
vt 0.009521 -0.870117
vt 0.018829 -0.994629
vt 0.009521 -0.994629
vt 0.018829 -1.069336
vt 0.009521 -1.069336
vt 0.018829 -1.126953
vt 0.009521 -1.126953
vt 0.000215 -1.069336
vt 0.000215 -0.994629
vt 0.000215 -0.870117
vt 0.000215 -0.788574
vt 0.000215 -1.126953
vt 0.000215 -0.781738
vt 0.009521 -0.784668
vt 0.018829 -0.782715
vt 0.208374 -0.777344
vt 0.216797 -0.777344
vt 0.227295 -0.777344
vt 0.217407 -0.770508
vt 0.208374 -0.770020
vt 0.217529 -0.669434
vt 0.226807 -0.668945
vt 0.226929 -0.770020
vt 0.367188 -0.667480
vt 0.503906 -0.745605
vt 0.503906 -0.669434
vt 0.503906 -0.663086
vt 0.512695 -0.668945
vt 0.512695 -0.663086
vt 0.521973 -0.663574
vt 0.512695 -0.657715
vt 0.503906 -0.657715
vt 0.512695 -0.567871
vt 0.493652 -0.567383
vt 0.512695 -0.562500
vt 0.493164 -0.562012
vt 0.492432 -0.557129
vt 0.512695 -0.557129
vt 0.492920 -0.554688
vt 0.512695 -0.553711
vt 0.521973 -0.557129
vt 0.521973 -0.551758
vt 0.521973 -0.562012
vt 0.512695 -0.548340
vt 0.493896 -0.549316
vt 0.521973 -0.545898
vt 0.712891 -0.550293
vt 0.722168 -0.550781
vt 0.731445 -0.549316
vt 0.712891 -0.557129
vt 0.722168 -0.557129
vt 0.731445 -0.556641
vt 0.209961 -0.335449
vt 0.218750 -0.334961
vt 0.217896 -0.340576
vt 0.210083 -0.340576
vt 0.225952 -0.340576
vt 0.226074 -0.334961
vt 0.210205 -0.344971
vt 0.218384 -0.346436
vt 0.226685 -0.345459
vt 0.218994 -0.331543
vt 0.226074 -0.331299
vt 0.512695 -0.325928
vt 0.713867 -0.109131
vt 0.722168 -0.110168
vt 0.730957 -0.110107
vt 1.000977 -0.123047
vt 0.018509 -0.116882
vt 0.009483 -0.119080
s 1
g センター
g NarukamiShrine_mesh.087_Material.013
usemtl Material.013
f 3/1/1 2/2/1 1/3/1
f 1/3/1 4/4/1 3/1/1
s 2
f 7/5/2 6/6/2 5/7/2
f 5/7/2 8/8/2 7/5/2
s 3
f 11/9/3 10/10/3 9/11/3
f 9/11/3 12/12/4 11/9/3
s 4
f 15/13/5 14/14/5 13/15/5
f 13/15/5 16/16/5 15/13/5
s 5
f 19/17/6 18/18/6 17/19/6
f 17/19/6 20/20/6 19/17/6
s 6
f 23/1/2 22/2/2 21/3/2
f 21/3/2 24/4/2 23/1/2
s 7
f 27/5/1 26/6/1 25/7/1
f 25/7/1 28/8/1 27/5/1
s 8
f 31/21/7 30/22/8 29/23/9
f 29/23/9 32/24/10 31/21/7
s 9
f 35/9/11 34/10/12 33/11/13
f 33/11/13 36/12/14 35/9/11
s 10
f 39/17/15 38/18/15 37/19/15
f 37/19/15 40/20/15 39/17/15
s 11
f 43/1/1 42/2/1 41/3/1
f 41/3/1 44/4/1 43/1/1
s 12
f 47/5/2 46/6/2 45/7/2
f 45/7/2 48/8/2 47/5/2
s 13
f 51/21/16 50/22/17 49/23/16
f 49/23/16 52/24/16 51/21/16
s 14
f 55/9/18 54/10/18 53/11/19
f 53/11/19 56/12/20 55/9/18
s 15
f 59/17/21 58/18/22 57/19/21
f 57/19/21 60/20/21 59/17/21
s 16
f 63/21/23 62/22/23 61/23/23
f 61/23/23 64/24/24 63/21/23
s 17
f 67/13/25 66/14/25 65/15/25
f 65/15/25 68/16/25 67/13/25
s 18
f 71/17/26 70/18/27 69/19/26
f 69/19/26 72/20/26 71/17/26
s 19
f 75/5/28 74/6/28 73/7/28
f 73/7/28 76/8/28 75/5/28
s 20
f 79/21/29 78/22/30 77/23/31
f 77/23/31 80/24/32 79/21/29
s 21
f 83/13/33 82/14/33 81/15/33
f 81/15/33 84/16/34 83/13/33
s 22
f 87/17/35 86/18/36 85/19/35
f 85/19/35 88/20/35 87/17/35
s 23
f 91/1/1 90/2/1 89/3/1
f 89/3/1 92/4/1 91/1/1
s 24
f 95/5/2 94/6/2 93/7/2
f 93/7/2 96/8/2 95/5/2
s 25
f 99/21/37 98/22/38 97/23/39
f 97/23/39 100/24/37 99/21/37
s 26
f 103/9/40 102/10/40 101/11/40
f 101/11/40 104/12/40 103/9/40
s 27
f 107/13/41 106/14/42 105/15/41
f 105/15/41 108/16/43 107/13/41
s 28
f 111/17/44 110/18/45 109/19/46
f 109/19/46 112/20/47 111/17/44
s 29
f 115/1/1 114/2/1 113/3/1
f 113/3/1 116/4/1 115/1/1
s 30
f 119/5/2 118/6/2 117/7/2
f 117/7/2 120/8/2 119/5/2
s 31
f 123/21/48 122/22/48 121/23/48
f 121/23/48 124/24/48 123/21/48
s 32
f 127/9/49 126/10/49 125/11/49
f 125/11/49 128/12/49 127/9/49
s 33
f 131/13/50 130/14/51 129/15/52
f 129/15/52 132/16/53 131/13/50
s 34
f 135/17/54 134/18/55 133/19/56
f 133/19/56 136/20/57 135/17/54
s 35
f 139/1/2 138/2/2 137/3/2
f 137/3/2 140/4/2 139/1/2
s 36
f 143/5/1 142/6/1 141/7/1
f 141/7/1 144/8/1 143/5/1
s 37
f 147/21/58 146/22/59 145/23/60
f 145/23/60 148/24/61 147/21/58
s 38
f 151/9/62 150/10/63 149/11/64
f 149/11/64 152/12/65 151/9/62
s 39
f 155/1/1 154/2/1 153/3/1
f 153/3/1 156/4/1 155/1/1
s 40
f 159/5/2 158/6/2 157/7/2
f 157/7/1 159/5/1 160/8/1
s 41
f 163/13/66 162/14/67 161/15/68
f 161/15/68 164/16/69 163/13/66
s 42
f 167/1/1 166/2/1 165/3/1
f 165/3/1 168/4/1 167/1/1
s 43
f 171/5/2 170/6/2 169/7/2
f 169/7/2 172/8/2 171/5/2
s 44
f 175/21/70 174/22/71 173/23/72
f 173/23/72 176/24/73 175/21/70
s 45
f 179/9/74 178/10/75 177/11/76
f 177/11/76 180/12/77 179/9/74
s 46
f 183/17/78 182/18/79 181/19/80
f 181/19/80 184/20/80 183/17/78
s 47
f 187/1/28 186/2/28 185/3/28
f 185/3/28 188/4/28 187/1/28
s 48
f 191/5/81 190/6/81 189/7/81
f 189/7/81 192/8/81 191/5/81
s 49
f 195/21/82 194/22/83 193/23/84
f 193/23/84 196/24/85 195/21/82
s 50
f 199/9/86 198/10/87 197/11/86
f 197/11/86 200/12/88 199/9/86
s 51
f 203/13/89 202/14/90 201/15/89
f 201/15/89 204/16/91 203/13/89
s 52
f 207/17/92 206/18/93 205/19/94
f 205/19/94 208/20/95 207/17/92
s 53
f 211/1/1 210/2/1 209/3/1
f 209/3/1 212/4/1 211/1/1
s 54
f 215/5/2 214/6/2 213/7/2
f 213/7/2 216/8/2 215/5/2
s 55
f 219/13/96 218/14/97 217/15/98
f 217/15/98 220/16/96 219/13/96
s 56
f 223/17/99 222/18/100 221/19/101
f 221/19/101 224/20/102 223/17/99
s 57
f 227/25/103 226/26/104 225/27/105
f 225/27/105 228/28/106 227/25/103
f 229/29/107 226/26/104 227/25/103
f 227/25/103 230/30/108 229/29/107
f 231/31/109 229/29/107 230/30/108
f 230/30/108 232/32/110 231/31/109
f 225/27/105 226/26/104 233/33/111
f 233/33/111 226/26/104 234/34/112
f 234/34/112 235/35/113 233/33/111
f 236/36/114 524/33/115 523/35/116
f 233/33/111 237/37/117 225/27/105
f 238/38/118 225/27/105 237/37/117
f 228/28/106 225/27/105 238/38/118
f 237/37/117 239/39/119 238/38/118
f 237/37/117 233/33/111 240/40/120
f 240/40/120 241/41/121 237/37/117
f 231/31/109 232/32/110 242/42/122
f 242/42/122 243/43/123 231/31/109
f 243/43/123 242/42/122 244/44/124
f 244/44/124 245/45/125 243/43/123
f 245/45/125 244/44/124 246/46/126
f 246/46/126 247/47/127 245/45/125
f 247/47/127 248/48/128 245/45/125
f 249/49/129 235/35/113 234/34/112
f 234/34/112 250/50/130 249/49/129
f 251/51/131 249/49/129 250/50/130
f 250/50/130 252/52/132 251/51/131
f 253/53/133 251/51/131 252/52/132
f 252/52/132 245/45/125 253/53/133
f 254/54/134 238/38/118 239/39/119
f 255/55/135 238/38/118 254/54/134
f 254/54/134 256/56/136 255/55/135
f 257/57/137 256/56/136 254/54/134
f 254/54/134 258/58/138 257/57/137
f 257/57/137 258/58/138 259/59/139
f 260/60/140 259/59/139 258/58/138
f 258/58/138 261/61/141 260/60/140
f 259/59/139 262/62/142 257/57/137
f 258/58/138 254/54/134 263/63/143
f 263/63/143 261/61/141 258/58/138
f 261/61/141 263/63/143 264/64/144
f 264/64/144 265/65/145 261/61/141
f 259/59/139 260/60/140 266/66/146
f 266/66/146 267/67/147 259/59/139
f 262/62/142 259/59/139 267/67/147
f 268/68/148 267/67/147 266/66/146
f 266/66/146 269/69/149 268/68/148
f 268/68/148 269/69/149 270/70/150
f 270/70/150 269/69/149 271/71/151
f 271/71/151 272/72/152 270/70/150
f 270/70/150 273/73/153 268/68/148
f 267/67/147 268/68/148 274/74/154
f 274/74/154 275/75/155 267/67/147
f 267/67/147 275/75/155 262/62/142
f 276/76/156 274/74/154 268/68/148
f 268/68/148 273/73/153 276/76/156
f 276/76/156 273/73/153 277/77/157
f 277/77/157 278/78/158 276/76/156
f 270/70/150 272/72/152 279/79/159
f 279/79/159 280/80/160 270/70/150
f 281/81/161 280/80/160 279/79/159
f 279/79/159 282/82/162 281/81/161
f 280/80/160 281/81/161 283/83/163
f 283/83/163 284/84/164 280/80/160
f 270/70/150 280/80/160 284/84/164
f 284/84/164 273/73/153 270/70/150
f 285/85/165 279/79/159 272/72/152
f 282/82/162 279/79/159 285/85/165
f 272/72/152 286/86/166 285/85/165
f 278/78/158 277/77/157 287/87/167
f 287/87/167 288/88/168 278/78/158
f 285/85/165 525/89/169 282/82/162
f 526/90/170 525/89/169 285/85/165
f 526/90/170 290/91/171 289/92/172
f 285/85/165 290/91/171 526/90/170
f 286/86/166 290/91/171 285/85/165
f 286/86/166 289/92/172 290/91/171
f 528/93/173 527/94/174 291/95/175
f 291/95/175 292/96/176 528/93/173
f 527/94/174 529/92/177 293/97/178
f 293/97/178 291/95/175 527/94/174
f 294/98/179 292/96/176 291/95/175
f 291/95/175 295/99/180 294/98/179
f 530/99/181 291/95/175 293/97/178
f 293/97/178 296/100/182 530/99/181
f 293/97/178 529/92/177 286/86/166
f 296/100/182 293/97/178 286/86/166
f 294/98/179 295/99/180 297/101/183
f 297/101/183 298/102/184 294/98/179
f 530/99/181 296/100/182 299/103/185
f 299/103/185 531/101/186 530/99/181
f 300/104/187 298/102/184 297/101/183
f 297/101/183 301/105/188 300/104/187
f 301/105/188 531/101/186 299/103/185
f 300/104/187 301/105/188 302/106/189
f 301/105/188 304/107/190 303/108/191
f 299/103/185 304/107/190 301/105/188
f 305/109/192 532/106/193 303/108/191
f 302/106/189 533/109/194 306/110/195
f 306/110/195 307/111/196 302/106/189
f 302/106/189 307/111/196 300/104/187
f 308/112/197 306/110/195 533/109/194
f 533/109/194 309/113/198 308/112/197
f 310/114/199 534/113/200 305/109/192
f 305/109/192 311/115/201 310/114/199
f 303/108/191 311/115/201 305/109/192
f 311/115/201 303/108/191 312/116/202
f 303/108/191 304/107/190 312/116/202
f 304/107/190 299/103/185 312/116/202
f 312/116/202 313/117/203 311/115/201
f 314/118/204 310/114/199 311/115/201
f 311/115/201 313/117/203 314/118/204
f 312/116/202 299/103/185 296/100/182
f 296/100/182 286/86/166 312/116/202
f 315/119/205 312/116/202 286/86/166
f 315/119/205 313/117/203 312/116/202
f 286/86/166 316/120/206 315/119/205
f 315/119/205 317/121/207 313/117/203
f 314/118/204 313/117/203 317/121/207
f 318/122/208 315/119/205 316/120/206
f 316/120/206 319/123/209 318/122/208
f 320/124/210 319/123/209 316/120/206
f 316/120/206 321/125/211 320/124/210
f 321/125/211 316/120/206 286/86/166
f 322/126/212 319/123/209 320/124/210
f 535/122/213 319/123/209 322/126/212
f 536/124/214 323/127/215 322/126/216
f 324/128/217 322/126/216 323/127/215
f 323/127/215 265/65/145 324/128/217
f 325/129/218 322/126/216 324/128/217
f 322/126/216 325/129/218 318/122/208
f 324/128/217 326/130/219 325/129/218
f 327/131/220 324/128/217 265/65/145
f 265/65/145 328/132/221 327/131/220
f 327/131/220 328/132/221 329/133/222
f 329/133/222 328/132/221 330/134/223
f 330/134/223 328/132/221 265/65/145
f 330/134/223 331/135/224 329/133/222
f 329/133/222 331/135/224 332/136/225
f 332/136/225 333/137/226 329/133/222
f 329/133/222 333/137/226 334/138/227
f 334/138/227 335/139/228 329/133/222
f 329/133/222 335/139/228 327/131/220
f 336/140/229 334/138/227 333/137/226
f 333/137/226 240/40/120 336/140/229
f 240/40/120 333/137/226 332/136/225
f 336/140/229 240/40/120 337/141/230
f 337/141/230 338/142/231 336/140/229
f 338/142/231 337/141/230 339/143/232
f 339/143/232 337/141/230 340/144/233
f 340/144/233 341/145/234 339/143/232
f 339/143/232 341/145/234 342/146/235
f 342/146/235 343/147/236 339/143/232
f 339/143/232 343/147/236 344/148/237
f 344/148/237 345/149/238 339/143/232
f 339/143/232 537/149/239 338/142/231
f 343/147/236 342/146/235 253/53/133
f 253/53/133 346/150/240 343/147/236
f 347/151/241 346/150/240 253/53/133
f 253/53/133 348/152/242 347/151/241
f 346/150/240 347/151/241 349/153/243
f 349/153/243 350/154/244 346/150/240
f 350/154/244 344/148/237 343/147/236
f 343/147/236 346/150/240 350/154/244
f 351/155/245 341/145/234 340/144/233
f 340/144/233 236/36/114 351/155/245
f 351/155/245 236/36/114 523/35/116
f 235/35/113 249/49/129 351/155/246
f 351/155/245 538/49/247 251/51/248
f 251/51/248 352/156/249 351/155/245
f 352/156/249 539/51/250 253/53/133
f 342/146/235 352/156/249 253/53/133
f 341/145/234 351/155/245 352/156/249
f 352/156/249 342/146/235 341/145/234
f 349/153/243 353/157/251 350/154/244
f 353/157/251 354/158/252 350/154/244
f 540/158/253 355/159/176 350/154/244
f 355/159/176 356/160/254 350/154/244
f 350/154/244 356/160/254 357/161/184
f 357/161/184 358/162/255 350/154/244
f 357/161/184 359/163/187 358/162/255
f 358/162/255 541/164/256 360/165/195
f 360/165/195 361/166/257 358/162/255
f 362/167/258 361/166/257 360/165/195
f 360/165/195 363/168/197 362/167/258
f 361/166/257 364/169/259 358/162/255
f 362/167/258 365/170/260 361/166/257
f 365/170/260 364/169/259 361/166/257
f 366/171/261 364/169/259 365/170/260
f 364/169/259 366/171/261 367/172/262
f 367/172/262 368/173/263 364/169/259
f 364/169/259 368/173/263 358/162/255
f 365/170/260 369/174/264 366/171/261
f 369/174/264 365/170/260 370/175/265
f 370/175/265 365/170/260 362/167/258
f 370/175/265 371/176/266 369/174/264
f 371/176/266 370/175/265 372/177/267
f 372/177/267 373/178/268 371/176/266
f 374/179/269 543/172/270 542/171/271
f 542/171/271 375/180/272 374/179/269
f 375/180/272 542/171/271 544/174/273
s 58
f 369/174/274 545/176/275 376/181/276
f 376/181/276 545/176/275 373/178/277
s 57
f 376/181/278 377/182/279 544/174/273
f 544/174/273 377/182/279 375/180/272
f 378/183/280 377/182/279 376/181/278
f 375/180/272 377/182/279 378/183/280
f 376/181/278 379/184/281 378/183/280
f 378/183/280 380/185/282 375/180/272
f 375/180/272 380/185/282 381/186/283
f 381/186/283 374/179/269 375/180/272
f 376/181/278 382/187/284 379/184/281
f 546/178/285 382/187/284 376/181/278
f 383/188/286 381/186/283 380/185/282
f 380/185/282 384/189/287 383/188/286
f 378/183/280 379/184/281 385/190/288
f 385/190/288 386/191/289 378/183/280
f 380/185/282 378/183/280 386/191/289
f 387/192/290 386/191/289 385/190/288
f 385/190/288 388/193/291 387/192/290
f 388/193/291 385/190/288 389/194/292
f 389/194/292 390/195/293 388/193/291
f 390/195/293 389/194/292 391/196/294
f 391/196/294 392/197/295 390/195/293
f 386/191/289 393/198/296 380/185/282
f 393/198/296 386/191/289 387/192/290
f 394/199/297 389/194/292 385/190/288
f 385/190/288 379/184/281 394/199/297
f 391/196/294 389/194/292 394/199/297
f 392/197/295 391/196/294 395/200/298
f 395/200/298 391/196/294 396/201/299
f 394/199/297 396/201/299 391/196/294
f 397/202/300 396/201/299 394/199/297
f 394/199/297 398/203/301 397/202/300
f 399/204/302 395/200/298 396/201/299
f 397/202/300 399/204/302 396/201/299
f 395/200/298 400/205/303 392/197/295
f 401/206/304 397/202/300 398/203/301
f 399/204/302 397/202/300 401/206/304
f 398/203/301 402/207/305 401/206/304
f 403/208/306 548/206/307 547/207/308
f 547/207/308 404/209/309 403/208/306
f 403/208/306 404/209/309 405/210/310
f 405/210/310 406/211/311 403/208/306
f 405/210/310 404/209/309 407/212/312
f 407/212/312 404/209/309 547/207/308
f 407/212/312 408/213/313 405/210/310
f 405/210/310 408/213/313 409/214/314
f 409/214/314 410/215/315 405/210/310
f 411/216/316 548/206/307 403/208/306
f 401/206/304 549/216/317 399/204/302
f 403/208/306 412/217/318 411/216/316
f 412/217/318 403/208/306 406/211/311
f 406/211/311 413/218/319 412/217/318
f 414/219/320 413/218/319 406/211/311
f 406/211/311 415/220/321 414/219/320
f 405/210/310 410/215/315 415/220/321
f 415/220/321 406/211/311 405/210/310
f 547/207/308 416/221/322 407/212/312
f 417/222/323 550/221/324 402/207/305
f 402/207/305 398/203/301 417/222/323
f 418/223/325 550/221/324 417/222/323
f 417/222/323 419/224/326 418/223/325
f 418/223/325 419/224/326 551/187/327
f 551/187/327 419/224/326 379/184/281
f 379/184/281 419/224/326 417/222/323
f 379/184/281 417/222/323 398/203/301
f 551/187/327 552/178/328 418/223/325
f 418/223/325 552/178/328 553/177/329
f 553/177/329 420/225/330 418/223/325
f 416/221/322 554/223/331 420/225/330
f 420/225/330 407/212/312 416/221/322
f 398/203/301 394/199/297 379/184/281
f 408/213/313 407/212/312 420/225/330
f 420/225/330 553/177/329 408/213/313
f 372/177/267 370/175/265 408/213/313
f 362/167/258 408/213/313 370/175/265
f 409/214/314 408/213/313 362/167/258
f 362/167/258 421/226/332 409/214/314
f 422/227/333 421/226/332 362/167/258
f 363/168/197 422/227/333 362/167/258
f 425/228/334 424/229/335 423/230/336
f 423/230/336 426/231/337 425/228/334
f 427/232/338 426/231/337 423/230/336
f 423/230/336 428/233/339 427/232/338
f 429/234/340 428/233/339 423/230/336
f 423/230/336 430/235/341 429/234/340
f 430/235/341 423/230/336 424/229/335
f 431/236/342 429/234/340 430/235/341
f 430/235/341 432/237/343 431/236/342
f 433/238/344 431/236/342 432/237/343
f 432/237/343 434/239/345 433/238/344
f 435/240/346 429/234/340 431/236/342
f 431/236/342 436/241/347 435/240/346
f 436/241/347 431/236/342 433/238/344
f 437/242/348 427/232/338 428/233/339
f 428/233/339 438/243/349 437/242/348
f 429/234/340 435/240/346 438/243/349
f 438/243/349 428/233/339 429/234/340
f 556/229/350 555/228/351 439/244/352
f 439/244/352 440/245/353 556/229/350
f 440/245/353 439/244/352 441/246/354
f 440/245/353 441/246/354 442/247/355
f 442/247/355 443/248/356 440/245/353
f 444/249/357 443/248/356 442/247/355
f 445/250/358 443/248/356 444/249/357
f 444/249/357 446/251/359 445/250/358
f 558/250/360 557/251/361 432/237/343
f 434/239/345 432/237/343 557/251/361
f 446/251/359 444/249/357 447/252/362
f 447/252/362 448/253/363 446/251/359
f 446/251/359 448/253/363 434/239/364
f 442/247/355 449/254/365 444/249/357
f 450/255/366 449/254/365 442/247/355
f 449/254/365 450/255/366 451/256/367
f 452/257/368 451/256/367 450/255/366
f 450/255/366 453/258/369 452/257/368
f 453/258/369 450/255/366 454/259/370
f 442/247/355 454/259/370 450/255/366
f 454/259/370 455/260/371 453/258/369
f 455/260/371 454/259/370 456/261/372
f 442/247/355 441/246/354 456/261/372
f 456/261/372 454/259/370 442/247/355
f 456/261/372 457/262/373 455/260/371
f 451/256/367 314/118/204 449/254/365
f 444/249/357 449/254/365 314/118/204
f 314/118/204 447/252/362 444/249/357
f 443/248/356 445/250/358 556/229/350
f 457/262/373 456/261/372 458/263/374
f 458/263/374 456/261/372 441/246/354
f 439/244/352 458/263/374 441/246/354
f 458/263/374 459/264/375 457/262/373
s 59
f 560/260/376 559/262/377 460/265/378
f 460/265/378 461/266/315 560/260/376
f 561/258/379 560/260/376 461/266/315
f 562/257/380 561/258/379 462/267/314
f 461/266/315 462/267/314 561/258/379
s 57
f 462/267/314 463/268/381 452/257/368
s 59
f 464/269/320 460/265/378 559/262/377
f 559/262/377 563/264/382 464/269/320
s 57
f 556/229/350 440/245/353 443/248/356
f 424/229/335 558/250/360 430/235/341
f 432/237/343 430/235/341 558/250/360
f 463/268/381 466/270/333 465/271/383
f 309/113/198 465/271/383 466/270/333
f 466/270/333 308/112/197 309/113/198
f 467/272/384 465/271/383 534/113/200
f 534/113/200 310/114/199 467/272/384
f 465/271/383 452/257/368 463/268/381
f 452/257/368 465/271/383 467/272/384
f 467/272/384 451/256/367 452/257/368
f 467/272/384 310/114/199 314/118/204
f 451/256/367 467/272/384 314/118/204
f 468/273/385 447/252/362 314/118/204
f 448/253/363 447/252/362 468/273/385
f 468/273/385 469/274/386 448/253/363
f 564/253/387 469/274/386 470/275/388
f 434/239/345 470/275/388 433/238/344
f 471/276/389 469/274/386 468/273/385
f 468/273/385 472/277/390 471/276/389
f 472/277/390 468/273/385 314/118/204
f 473/278/391 471/276/389 472/277/390
f 472/277/390 317/121/207 473/278/391
f 317/121/207 472/277/390 314/118/204
f 471/276/389 473/278/391 474/279/392
f 474/279/392 475/280/393 565/276/394
f 469/274/386 565/276/394 475/280/393
f 475/280/393 470/275/388 469/274/386
f 470/275/388 475/280/393 433/238/344
f 475/280/393 474/279/392 476/281/395
f 476/281/395 433/238/344 475/280/393
f 477/282/396 433/238/344 476/281/395
f 476/281/395 478/283/397 477/282/396
f 476/281/395 479/284/398 478/283/397
f 387/192/290 477/282/396 478/283/397
f 436/241/347 477/282/396 387/192/290
f 433/238/344 477/282/396 436/241/347
f 387/192/290 566/193/399 436/241/347
f 478/283/397 480/285/400 387/192/290
f 480/285/400 478/283/397 479/284/398
f 435/240/346 436/241/347 566/193/399
f 566/193/399 567/195/401 435/240/346
f 435/240/346 567/195/401 568/197/402
f 568/197/402 438/243/349 435/240/346
f 437/242/348 438/243/349 568/197/402
f 568/197/402 569/205/403 437/242/348
f 387/192/290 480/285/400 393/198/296
f 479/284/398 481/286/404 480/285/400
f 482/287/405 393/198/296 480/285/400
f 480/285/400 481/286/404 482/287/405
f 384/189/287 482/287/405 481/286/404
f 481/286/404 483/288/406 384/189/287
f 483/288/406 481/286/404 479/284/398
f 479/284/398 484/289/407 483/288/406
f 485/290/408 570/288/409 484/289/407
f 384/189/287 483/288/406 571/290/410
f 484/289/407 486/291/411 485/290/408
f 380/185/282 482/287/405 384/189/287
f 380/185/282 393/198/296 482/287/405
f 571/290/410 383/188/286 384/189/287
f 487/292/412 485/290/408 486/291/411
f 486/291/411 488/293/413 487/292/412
f 487/292/412 488/293/413 489/294/414
f 489/294/414 490/295/415 487/292/412
f 573/295/416 572/294/417 491/296/418
f 491/296/418 492/297/419 573/295/416
f 493/298/420 573/295/416 492/297/419
f 492/297/419 494/299/421 493/298/420
f 490/295/415 574/298/422 495/300/423
f 495/300/423 487/292/412 490/295/415
f 571/290/410 487/292/412 495/300/423
f 495/300/423 383/188/286 571/290/410
f 493/298/420 494/299/421 381/186/283
f 495/300/423 574/298/422 381/186/283
f 383/188/286 495/300/423 381/186/283
f 496/301/424 492/297/419 491/296/418
f 491/296/418 497/302/425 496/301/424
f 496/301/424 497/302/425 327/131/220
f 324/128/217 327/131/220 497/302/425
f 497/302/425 326/130/219 324/128/217
f 489/294/414 488/293/413 326/130/219
f 497/302/425 491/296/418 326/130/219
f 491/296/418 572/294/417 326/130/219
f 327/131/220 335/139/228 496/301/424
f 498/303/426 496/301/424 335/139/228
f 492/297/419 496/301/424 498/303/426
f 498/303/426 494/299/421 492/297/419
f 494/299/421 498/303/426 381/186/283
f 335/139/228 334/138/227 498/303/426
f 498/303/426 334/138/227 336/140/229
f 336/140/229 381/186/283 498/303/426
f 499/304/427 381/186/283 336/140/229
f 336/140/229 338/142/231 499/304/427
f 500/305/428 499/304/427 338/142/231
f 338/142/231 537/149/239 500/305/428
f 501/306/429 575/305/430 345/149/238
f 345/149/238 344/148/237 501/306/429
f 502/307/431 499/304/427 500/305/428
f 500/305/428 503/308/432 502/307/431
f 576/308/433 575/305/430 501/306/429
f 502/307/431 503/308/432 543/172/270
f 543/172/270 374/179/269 502/307/431
f 381/186/283 502/307/431 374/179/269
f 381/186/283 499/304/427 502/307/431
f 367/172/262 576/308/433 504/309/434
f 501/306/429 504/309/434 576/308/433
f 504/309/434 368/173/263 367/172/262
f 368/173/263 504/309/434 358/162/255
f 501/306/429 344/148/237 358/162/255
f 504/309/434 501/306/429 358/162/255
f 344/148/237 350/154/244 358/162/255
f 507/310/435 506/311/436 505/312/437
f 505/312/437 508/313/438 507/310/435
f 509/314/439 505/312/437 506/311/436
f 506/311/436 510/315/440 509/314/439
f 509/314/439 510/315/440 265/65/145
f 511/316/441 578/313/442 577/312/443
f 511/316/441 579/72/444 578/313/442
f 507/310/435 508/313/438 272/72/152
f 577/312/443 512/317/445 511/316/441
f 577/312/443 580/314/446 513/318/447
f 513/318/447 512/317/445 577/312/443
f 513/318/447 580/314/446 265/65/145
f 514/319/448 506/311/436 507/310/435
f 507/310/435 271/71/151 514/319/448
f 271/71/151 507/310/435 272/72/152
f 514/319/448 271/71/151 269/69/149
f 269/69/149 266/66/146 514/319/448
f 515/320/449 581/319/450 266/66/146
f 506/311/436 514/319/448 515/320/449
f 515/320/449 510/315/440 506/311/436
f 510/315/440 515/320/449 265/65/145
f 266/66/146 260/60/140 515/320/449
f 321/125/211 511/316/441 512/317/445
f 511/316/441 321/125/211 272/72/152
f 512/317/445 320/124/210 321/125/211
f 536/124/214 512/317/445 513/318/447
f 513/318/447 323/127/215 536/124/214
f 323/127/215 513/318/447 265/65/145
f 515/320/449 260/60/140 261/61/141
f 261/61/141 265/65/145 515/320/449
f 286/86/166 272/72/152 321/125/211
f 264/64/144 330/134/223 265/65/145
f 330/134/223 264/64/144 516/321/451
f 516/321/451 264/64/144 263/63/143
f 263/63/143 239/39/119 516/321/451
f 239/39/119 263/63/143 254/54/134
f 582/321/452 239/39/119 237/37/117
f 237/37/117 241/41/121 582/321/452
f 516/321/451 331/135/224 330/134/223
f 331/135/224 516/321/451 241/41/121
f 241/41/121 332/136/225 331/135/224
f 240/40/120 332/136/225 241/41/121
f 337/141/230 240/40/120 233/33/111
f 233/33/111 340/144/233 337/141/230
f 236/36/114 340/144/233 233/33/111
f 238/38/118 255/55/135 228/28/106
f 476/281/395 484/289/407 479/284/398
f 486/291/411 484/289/407 476/281/395
f 476/281/395 326/130/219 486/291/411
f 326/130/219 476/281/395 325/129/218
f 488/293/413 486/291/411 326/130/219
f 474/279/392 325/129/218 476/281/395
f 318/122/208 325/129/218 474/279/392
f 474/279/392 473/278/391 318/122/208
f 315/119/205 318/122/208 473/278/391
f 473/278/391 317/121/207 315/119/205
f 250/50/130 234/34/112 517/322/453
f 517/322/453 518/323/454 250/50/130
f 252/52/132 583/50/455 518/323/454
f 518/323/454 519/324/456 252/52/132
f 231/31/109 518/323/454 517/322/453
f 517/322/453 229/29/107 231/31/109
f 243/43/123 519/324/456 518/323/454
f 518/323/454 231/31/109 243/43/123
f 245/45/125 519/324/456 243/43/123
f 245/45/125 252/52/132 519/324/456
f 226/26/104 229/29/107 517/322/453
f 517/322/453 234/34/112 226/26/104
f 248/48/128 520/325/457 245/45/125
f 253/53/133 245/45/125 520/325/457
f 520/325/457 348/152/242 253/53/133
f 522/326/458 584/327/459 287/87/167
f 287/87/167 277/77/157 522/326/458
f 283/83/163 521/327/460 522/326/458
f 522/326/458 284/84/164 283/83/163
f 284/84/164 522/326/458 273/73/153
f 522/326/458 277/77/157 273/73/153
