# Blender 5.0.1
# www.blender.org
mtllib durmiente_vias.mtl
g default.096_Mesh
v 1.468922 -0.029800 15.388452
v -1.498289 0.320079 15.388452
v 1.468922 0.320079 15.388452
vn -0.0000 -0.0000 -1.0000
vt 1.000000 1.000000
vt 0.000000 1.000000
vt 0.000000 0.000000
s 1
g off
g default.096_Material.005
usemtl Material.005
f 2/1/1 3/2/1 1/3/1
g default.097_Mesh
v -1.498289 -0.029800 15.388452
v -1.498289 0.320079 15.388452
v 1.468922 -0.029800 15.388452
vn -0.0000 -0.0000 -1.0000
vt 1.000000 1.000000
vt 0.000000 0.000000
vt 1.000000 0.000000
s 1
g off
g default.097_Material.005
usemtl Material.005
f 5/4/2 6/5/2 4/6/2
g default.098_Mesh
v -1.498289 -0.029800 16.070513
v 1.468922 0.320079 16.070513
v -1.498289 0.320079 16.070513
vn -0.0000 -0.0000 1.0000
vt 1.000000 1.000000
vt 0.000000 1.000000
vt 0.000000 0.000000
s 1
g off
g default.098_Material.005
usemtl Material.005
f 8/7/3 9/8/3 7/9/3
g default.099_Mesh
v 1.468922 -0.029800 16.070513
v 1.468922 0.320079 16.070513
v -1.498289 -0.029800 16.070513
vn -0.0000 -0.0000 1.0000
vt 1.000000 1.000000
vt 0.000000 0.000000
vt 1.000000 0.000000
s 1
g off
g default.099_Material.005
usemtl Material.005
f 11/10/4 12/11/4 10/12/4
g default.100_Mesh
v 1.468922 -0.029800 16.070513
v 1.468922 0.320079 15.388452
v 1.468922 0.320079 16.070513
vn 1.0000 -0.0000 -0.0000
vt 1.000000 1.000000
vt 0.000000 1.000000
vt 0.000000 0.000000
s 1
g off
g default.100_Material.005
usemtl Material.005
f 14/13/5 15/14/5 13/15/5
g default.101_Mesh
v 1.468922 -0.029800 15.388452
v 1.468922 0.320079 15.388452
v 1.468922 -0.029800 16.070513
vn 1.0000 -0.0000 -0.0000
vt 1.000000 1.000000
vt 0.000000 0.000000
vt 1.000000 0.000000
s 1
g off
g default.101_Material.005
usemtl Material.005
f 17/16/6 18/17/6 16/18/6
g default.102_Mesh
v -1.498289 -0.029800 15.388452
v -1.498289 0.320079 16.070513
v -1.498289 0.320079 15.388452
vn -1.0000 -0.0000 -0.0000
vt 1.000000 1.000000
vt 0.000000 1.000000
vt 0.000000 0.000000
s 1
g off
g default.102_Material.005
usemtl Material.005
f 20/19/7 21/20/7 19/21/7
g default.103_Mesh
v -1.498289 -0.029800 16.070513
v -1.498289 0.320079 16.070513
v -1.498289 -0.029800 15.388452
vn -1.0000 -0.0000 -0.0000
vt 1.000000 1.000000
vt 0.000000 0.000000
vt 1.000000 0.000000
s 1
g off
g default.103_Material.005
usemtl Material.005
f 23/22/8 24/23/8 22/24/8
g default.104_Mesh
v 1.468922 0.320079 15.388452
v -1.498289 0.320079 16.070513
v 1.468922 0.320079 16.070513
vn -0.0000 1.0000 -0.0000
vt 1.000000 1.000000
vt 0.000000 1.000000
vt 0.000000 0.000000
s 1
g off
g default.104_Material.005
usemtl Material.005
f 26/25/9 27/26/9 25/27/9
g default.105_Mesh
v -1.498289 0.320079 15.388452
v -1.498289 0.320079 16.070513
v 1.468922 0.320079 15.388452
vn -0.0000 1.0000 -0.0000
vt 1.000000 1.000000
vt 0.000000 0.000000
vt 1.000000 0.000000
s 1
g off
g default.105_Material.005
usemtl Material.005
f 29/28/10 30/29/10 28/30/10
g default.106_Mesh
v -1.498289 -0.029800 15.388452
v 1.468922 -0.029800 16.070513
v -1.498289 -0.029800 16.070513
vn -0.0000 -1.0000 -0.0000
vt 1.000000 1.000000
vt 0.000000 1.000000
vt 0.000000 0.000000
s 1
g off
g default.106_Material.005
usemtl Material.005
f 32/31/11 33/32/11 31/33/11
g default.107_Mesh
v 1.468922 -0.029800 15.388452
v 1.468922 -0.029800 16.070513
v -1.498289 -0.029800 15.388452
vn -0.0000 -1.0000 -0.0000
vt 1.000000 1.000000
vt 0.000000 0.000000
vt 1.000000 0.000000
s 1
g off
g default.107_Material.005
usemtl Material.005
f 35/34/12 36/35/12 34/36/12
