# Blender 5.0.1
# www.blender.org
mtllib Hojas_arbol.mtl
g Cube_0_Cube_0
v -1.987910 2.992850 -1.898731
v -1.987910 2.992851 0.553230
v -1.987910 5.444811 0.553229
v -1.987910 5.444811 -1.898731
v -1.987910 5.444811 -1.898731
v 0.464050 5.444811 -1.898731
v 0.464050 2.992850 -1.898731
v -1.987910 2.992850 -1.898731
v 0.464050 5.444811 -1.898731
v 0.464050 5.444811 0.553229
v 0.464050 2.992851 0.553230
v 0.464050 2.992850 -1.898731
v -1.987910 2.992851 0.553230
v 0.464050 2.992851 0.553230
v 0.464050 5.444811 0.553229
v -1.987910 5.444811 0.553229
v -1.987910 2.992851 0.553230
v -1.987910 2.992850 -1.898731
v 0.464050 2.992850 -1.898731
v 0.464050 2.992851 0.553230
v 0.464050 5.444811 0.553229
v 0.464050 5.444811 -1.898731
v -1.987910 5.444811 -1.898731
v -1.987910 5.444811 0.553229
vn -1.0000 -0.0000 -0.0000
vn -0.0000 -0.0000 -1.0000
vn 1.0000 -0.0000 -0.0000
vn -0.0000 -0.0000 1.0000
vn -0.0000 -1.0000 -0.0000
vn -0.0000 1.0000 -0.0000
s 0
g off
g Cube_0_Material.002
usemtl Material.002
f 1//1 2//1 3//1
f 1//1 3//1 4//1
f 5//2 6//2 7//2
f 5//2 7//2 8//2
f 9//3 10//3 11//3
f 9//3 11//3 12//3
f 13//4 14//4 15//4
f 13//4 15//4 16//4
f 17//5 18//5 19//5
f 17//5 19//5 20//5
f 21//6 22//6 23//6
f 21//6 23//6 24//6
g Cube.001_0_Cube.001_0
v -0.075780 2.688291 -1.766931
v -0.075780 2.688291 0.233070
v 0.578120 4.578371 0.233069
v 0.578120 4.578371 -1.766931
v 0.578120 4.578371 -1.766931
v 2.468200 3.924470 -1.766931
v 1.814300 2.034390 -1.766930
v -0.075780 2.688291 -1.766931
v 2.468200 3.924470 -1.766931
v 2.468200 3.924470 0.233069
v 1.814300 2.034390 0.233070
v 1.814300 2.034390 -1.766930
v -0.075780 2.688291 0.233070
v 1.814300 2.034390 0.233070
v 2.468200 3.924470 0.233069
v 0.578120 4.578371 0.233069
v -0.075780 2.688291 0.233070
v -0.075780 2.688291 -1.766931
v 1.814300 2.034390 -1.766930
v 1.814300 2.034390 0.233070
v 2.468200 3.924470 0.233069
v 2.468200 3.924470 -1.766931
v 0.578120 4.578371 -1.766931
v 0.578120 4.578371 0.233069
vn -0.9450 0.3270 -0.0000
vn -0.0000 -0.0000 -1.0000
vn 0.9450 -0.3270 -0.0000
vn -0.0000 -0.0000 1.0000
vn -0.3270 -0.9450 -0.0000
vn 0.3270 0.9450 -0.0000
s 0
g off
g Cube.001_0_Material.002
usemtl Material.002
f 25//7 26//7 27//7
f 25//7 27//7 28//7
f 29//8 30//8 31//8
f 29//8 31//8 32//8
f 33//9 34//9 35//9
f 33//9 35//9 36//9
f 37//10 38//10 39//10
f 37//10 39//10 40//10
f 41//11 42//11 43//11
f 41//11 43//11 44//11
f 45//12 46//12 47//12
f 45//12 47//12 48//12
