# Blender 5.0.1
# www.blender.org
mtllib narukami_lampara_3.mtl
g NarukamiShrine_mesh.087_Malla
v 0.064835 1.317258 0.052000
v 0.065140 0.129392 0.052061
v -0.090622 0.129392 0.052061
v -0.090317 1.317258 0.052000
v -0.090622 0.129392 -0.104067
v 0.064835 1.317258 -0.104006
v -0.090317 1.317258 -0.104006
v 0.065140 0.129392 -0.104067
v 0.212479 1.703001 0.279415
v -0.236862 1.732297 -0.330690
v -0.236496 1.703001 -0.330690
v 0.212845 1.732297 -0.330690
v 0.212479 1.703001 -0.330690
v -0.253830 1.732297 0.330442
v -0.253830 1.732297 -0.381716
v -0.204025 1.732297 0.330442
v -0.253830 1.732297 0.274044
v -0.253830 1.793821 0.330442
v -0.204025 1.793821 0.330442
v -0.247726 1.882688 -0.294802
v -0.247726 1.882688 0.243773
v -0.243698 1.786008 0.243773
v -0.243698 1.786008 -0.294802
v 0.223343 1.886594 0.246946
v 0.223343 1.886594 -0.296511
v 0.220291 1.783079 -0.296511
v 0.220291 1.783079 0.246946
v -0.058609 1.898313 -0.306032
v -0.254318 1.794797 -0.306032
v 0.229935 1.794797 -0.306032
v 0.034256 1.898313 -0.306032
v 0.185989 1.725462 -0.306032
v -0.210251 1.725462 -0.306032
v 0.034256 1.898313 0.260374
v 0.229935 1.794797 0.260374
v -0.254318 1.794797 0.260374
v -0.058609 1.898313 0.260374
v -0.210251 1.727415 0.260374
v 0.185989 1.727415 0.260374
v 0.057022 2.103390 -0.336306
v 0.057022 2.019407 -0.336306
v 0.057022 2.019407 0.284054
v -0.090744 2.103390 0.284054
v 0.057022 2.103390 0.284054
v -0.090744 2.019407 0.284054
v -0.090744 2.019407 -0.336306
v -0.090744 2.103390 -0.336306
v 0.043472 1.941282 -0.288210
v 0.454544 1.725462 -0.288210
v 0.419632 1.687376 -0.288210
v -0.068954 1.941282 -0.288210
v 0.034103 1.894407 -0.334597
v 0.419632 1.687376 -0.334597
v 0.454544 1.725462 -0.334597
v 0.043472 1.941282 -0.334597
v -0.068954 1.941282 -0.334597
v -0.059586 1.894407 -0.334597
v -0.478073 1.726438 -0.334597
v 0.034103 1.894407 -0.288210
v -0.059586 1.894407 -0.288210
v -0.443161 1.688352 -0.334597
v -0.443161 1.688352 -0.288210
v -0.478073 1.726438 -0.288210
v 0.478714 1.702024 -0.025623
v 0.053726 1.930539 -0.025623
v -0.079208 1.930539 0.313108
v 0.508743 1.752805 0.313108
v 0.508743 1.752805 -0.025623
v -0.505173 1.702024 -0.025623
v -0.534714 1.753782 -0.025623
v -0.534714 1.753782 0.313108
v -0.079208 1.930539 -0.025623
v 0.071243 1.990110 0.313108
v 0.478714 1.702024 0.313108
v 0.053726 1.930539 0.313108
v -0.096725 1.990110 0.313108
v -0.505173 1.702024 0.313108
v 0.071243 1.990110 -0.364382
v 0.053726 1.930539 -0.364382
v 0.478714 1.702024 -0.364382
v 0.508743 1.752805 -0.364382
v -0.096725 1.990110 -0.364382
v -0.236496 1.703001 0.279415
v 0.212845 1.732297 0.279415
v -0.236862 1.732297 0.279415
v 0.135941 1.705930 0.130491
v 0.099930 1.536985 0.095274
v 0.086624 1.445188 0.079039
v 0.153275 1.536985 0.095274
v 0.191483 1.705930 0.182493
v 0.191483 1.705930 0.130491
v 0.139114 1.445188 0.079039
v 0.153275 1.536985 0.144651
v 0.099930 1.536985 0.144651
v 0.135941 1.705930 0.182493
v -0.123947 1.536985 0.095274
v -0.159958 1.705930 0.130491
v -0.215500 1.705930 0.130491
v -0.110641 1.445188 0.079039
v -0.177292 1.536985 0.095274
v -0.215500 1.705930 0.182493
v -0.177292 1.536985 0.144651
v -0.163132 1.445188 0.127684
v -0.163132 1.445188 0.079039
v -0.159958 1.705930 0.182493
v -0.123947 1.536985 0.144651
v -0.177292 1.536985 -0.146669
v -0.159958 1.705930 -0.181887
v -0.123947 1.536985 -0.146669
v -0.110641 1.445188 -0.130495
v -0.177292 1.536985 -0.196047
v -0.215500 1.705930 -0.181887
v -0.163132 1.445188 -0.179079
v -0.215500 1.705930 -0.234011
v -0.123947 1.536985 -0.196047
v -0.159958 1.705930 -0.234011
v 0.153275 1.536985 -0.146669
v 0.099930 1.536985 -0.146669
v 0.135941 1.705930 -0.181887
v 0.191483 1.705930 -0.181887
v 0.191483 1.705930 -0.234011
v 0.153275 1.536985 -0.196047
v 0.139114 1.445188 -0.130495
v 0.135941 1.705930 -0.234011
v 0.099930 1.536985 -0.196047
v 0.086624 1.445188 -0.179079
v -0.122421 1.387571 -0.156252
v 0.097183 1.387571 -0.156130
v 0.097183 1.414915 -0.162477
v -0.122421 1.415891 -0.162600
v 0.097183 1.421751 -0.136415
v -0.122421 1.421751 -0.136477
v -0.170212 1.683469 -0.176149
v 0.144974 1.682493 -0.176149
v -0.170212 1.674680 -0.213625
v 0.144974 1.673704 -0.213503
v 0.144974 1.713743 -0.222660
v -0.170212 1.713743 -0.222660
v 0.117874 1.387571 -0.135317
v 0.117874 1.387571 0.084286
v 0.124222 1.415891 -0.135317
v 0.124100 1.414915 0.084286
v 0.098038 1.421751 0.084286
v 0.098099 1.421751 -0.135317
v 0.137772 1.683469 -0.183107
v 0.137772 1.682493 0.132078
v 0.175247 1.674680 -0.183107
v 0.175247 1.673704 0.132078
v 0.184280 1.713743 0.132078
v 0.184280 1.713743 -0.183107
v -0.143356 1.387571 0.084105
v -0.143356 1.387571 -0.135500
v -0.149704 1.415891 0.084105
v -0.149582 1.414915 -0.135500
v -0.123520 1.421751 -0.135500
v -0.123581 1.421751 0.084105
v -0.163254 1.683469 0.131834
v -0.163254 1.682493 -0.183352
v -0.200729 1.673704 -0.183352
v -0.200729 1.674680 0.131834
v -0.209763 1.713743 -0.183352
v -0.209763 1.713743 0.131832
v 0.097000 1.387571 0.104979
v -0.122665 1.387571 0.104979
v 0.097000 1.415891 0.111326
v -0.122665 1.414915 0.111204
v -0.122665 1.421751 0.085142
v 0.097000 1.421751 0.085203
v 0.144730 1.683469 0.124876
v -0.170456 1.682493 0.124876
v 0.144730 1.674680 0.162352
v -0.170456 1.673704 0.162352
v -0.170456 1.713743 0.171383
v 0.144730 1.713743 0.171505
v 0.179764 1.793821 0.330442
v 0.229446 1.732297 0.330442
v 0.179764 1.793821 -0.381716
v 0.179764 1.732297 0.330442
v 0.229446 1.793821 0.330442
v 0.229446 1.732297 0.274044
v 0.043472 1.941282 0.286251
v 0.454544 1.725462 0.286251
v -0.059586 1.894407 0.286251
v -0.068954 1.941282 0.286251
v -0.443161 1.688352 0.286251
v 0.034103 1.894407 0.239866
v 0.419632 1.687376 0.239866
v 0.043472 1.941282 0.239866
v -0.068954 1.941282 0.239866
v -0.443161 1.688352 0.239866
v 0.034103 1.894407 0.286251
v 0.419632 1.687376 0.286251
v 0.454544 1.725462 0.239866
v -0.059586 1.894407 0.239866
v -0.478073 1.726438 0.239866
v -0.478073 1.726438 0.286251
v -0.079208 1.930539 -0.364382
v -0.505173 1.702024 -0.364382
v -0.534714 1.753782 -0.364382
v 0.086319 2.119015 0.296995
v 0.067825 2.177609 0.233030
v 0.067825 2.177609 0.296995
v 0.039597 2.195188 0.233030
v 0.011839 2.197140 0.233030
v -0.012741 2.187376 0.296995
v 0.126907 2.040890 0.233030
v 0.124710 2.005734 0.296995
v 0.121658 2.052609 0.296995
v 0.109512 2.111203 0.296995
v 0.109512 2.111203 0.233030
v 0.127274 2.089719 0.296995
v 0.127274 2.089719 0.233030
v 0.127640 2.064328 0.296995
v 0.127640 2.064328 0.233030
v -0.107773 2.150265 0.296995
v -0.111801 2.119015 0.296995
v -0.107773 2.150265 0.233030
v -0.093307 2.177609 0.233030
v -0.093307 2.177609 0.296995
v -0.065079 2.195188 0.296995
v -0.037323 2.197140 0.233030
v -0.150192 2.005734 0.296995
v -0.152390 2.040890 0.233030
v -0.147141 2.052609 0.296995
v -0.152390 2.040890 0.296995
v 0.126907 2.040890 0.296995
v 0.082291 2.150265 0.296995
v -0.037323 2.197140 0.296995
v 0.039597 2.195188 0.296995
v 0.011839 2.197140 0.296995
v -0.065079 2.195188 0.233030
v -0.012741 2.187376 0.233030
v 0.082291 2.150265 0.233030
v -0.111801 2.119015 0.233030
v 0.121658 2.052609 0.233030
v -0.147141 2.052609 0.233030
v 0.124710 2.005734 0.233030
v -0.150192 2.005734 0.233030
v -0.134995 2.111203 0.296995
v -0.134995 2.111203 0.233030
v -0.152756 2.089719 0.296995
v -0.152756 2.089719 0.233030
v -0.153122 2.064328 0.296995
v -0.153122 2.064328 0.233030
v 0.082291 2.150265 -0.348269
v 0.067825 2.177609 -0.348269
v 0.011839 2.197140 -0.348269
v -0.012741 2.187376 -0.348269
v 0.109512 2.111203 -0.284548
v -0.107773 2.150265 -0.348269
v -0.111801 2.119015 -0.284548
v -0.111801 2.119015 -0.348269
v -0.093307 2.177609 -0.284548
v -0.093307 2.177609 -0.348269
v -0.065079 2.195188 -0.284548
v -0.065079 2.195188 -0.348269
v -0.037323 2.197140 -0.284548
v -0.037323 2.197140 -0.348269
v -0.152390 2.040890 -0.348269
v -0.147141 2.052609 -0.348269
v -0.150192 2.005734 -0.348269
v 0.124710 2.005734 -0.348269
v 0.126907 2.040890 -0.348269
v 0.121658 2.052609 -0.348269
v 0.127640 2.064328 -0.348269
v 0.127274 2.089719 -0.348269
v -0.152756 2.089719 -0.348269
v 0.109512 2.111203 -0.348269
v 0.086319 2.119015 -0.348269
v 0.039597 2.195188 -0.348269
v -0.012741 2.187376 -0.284548
v -0.107773 2.150265 -0.284548
v 0.082291 2.150265 -0.284548
v 0.086319 2.119015 -0.284548
v 0.067825 2.177609 -0.284548
v 0.039597 2.195188 -0.284548
v 0.011839 2.197140 -0.284548
v -0.134995 2.111203 -0.284548
v 0.127274 2.089719 -0.284548
v -0.152756 2.089719 -0.284548
v 0.127640 2.064328 -0.284548
v 0.121658 2.052609 -0.284548
v -0.147141 2.052609 -0.284548
v -0.152390 2.040890 -0.284548
v 0.126907 2.040890 -0.284548
v 0.124710 2.005734 -0.284548
v -0.150192 2.005734 -0.284548
v -0.134995 2.111203 -0.348269
v -0.153122 2.064328 -0.348269
v -0.153122 2.064328 -0.284548
v -0.302536 1.344602 0.148800
v -0.302536 1.344602 0.013454
v -0.302536 1.390501 0.013454
v -0.302536 1.390501 0.148800
v 0.280472 1.390501 0.013454
v 0.280472 1.390501 0.148800
v 0.280472 1.344602 0.148800
v 0.280472 1.344602 0.013454
v -0.052444 1.396360 0.263548
v -0.052444 1.344602 -0.319460
v -0.187790 1.396360 0.263548
v -0.052444 1.396360 -0.319460
v -0.187790 1.344602 -0.319460
v -0.187790 1.396360 -0.319460
v -0.187790 1.344602 0.263548
v -0.052444 1.344602 0.263548
v 0.164383 1.396360 0.263548
v 0.029099 1.396360 -0.319460
v 0.029099 1.344602 0.263548
v 0.164383 1.344602 0.263548
v 0.164383 1.396360 -0.319460
v 0.029099 1.344602 -0.319460
v 0.164383 1.344602 -0.319460
v 0.029099 1.396360 0.263548
v -0.197556 1.346555 -0.211672
v 0.171951 1.285032 -0.211428
v 0.171951 1.285032 0.159422
v 0.172073 1.346555 0.159666
v -0.197556 1.346555 0.159666
v 0.172073 1.346555 -0.211672
v -0.197311 1.285032 -0.211428
v -0.197311 1.285032 0.159422
v -0.204025 1.732297 -0.381716
v -0.253830 1.732297 -0.322390
v -0.253830 1.793821 -0.381716
v -0.204025 1.793821 -0.322390
v -0.204025 1.793821 -0.381716
v 0.229446 1.732297 -0.381716
v 0.179764 1.732297 -0.322390
v 0.179764 1.732297 -0.381716
v 0.229446 1.793821 -0.381716
v 0.229446 1.732297 -0.322390
v -0.204025 1.732297 0.274044
v -0.253830 1.793821 -0.322390
v -0.253830 1.793821 0.274044
v -0.204025 1.793821 0.274044
v -0.204025 1.732297 -0.322390
v 0.179764 1.732297 0.274044
v 0.179764 1.793821 -0.322390
v 0.179764 1.793821 0.274044
v 0.229446 1.793821 0.274044
v 0.229446 1.793821 -0.322390
v 0.078629 1.389524 0.069334
v 0.130569 1.389524 0.069334
v 0.139114 1.445188 0.127684
v 0.130569 1.389524 0.117550
v 0.078629 1.389524 0.117550
v 0.086624 1.445188 0.127684
v -0.102707 1.389524 0.069334
v -0.154709 1.389524 0.117550
v -0.154709 1.389524 0.069334
v -0.110641 1.445188 0.127684
v -0.102707 1.389524 0.117550
v -0.163132 1.445188 -0.130495
v -0.154709 1.389524 -0.120790
v -0.154709 1.389524 -0.168947
v -0.110641 1.445188 -0.179079
v -0.102707 1.389524 -0.168947
v -0.102707 1.389524 -0.120790
v 0.130569 1.389524 -0.120790
v 0.078629 1.389524 -0.120790
v 0.086624 1.445188 -0.130495
v 0.130569 1.389524 -0.168947
v 0.139114 1.445188 -0.179079
v 0.078629 1.389524 -0.168947
v 0.280472 1.390501 -0.068117
v -0.302536 1.344602 -0.068117
v -0.302536 1.390501 -0.203493
v 0.280472 1.344602 -0.203493
v 0.280472 1.390501 -0.203493
v -0.302536 1.390501 -0.068117
v 0.280472 1.344602 -0.068117
v -0.302536 1.344602 -0.203493
v 0.130569 0.141843 0.118040
v -0.197556 -0.017702 0.159422
v 0.172073 -0.017704 -0.211428
v -0.197556 -0.017703 -0.211428
v -0.156052 0.141843 -0.170046
v 0.172073 -0.017703 0.159422
v -0.156052 0.141843 0.118040
v 0.130569 0.141843 -0.170046
v 0.511185 1.713743 0.380980
v 0.093399 1.994016 0.389036
v 0.098831 2.029171 0.315062
v 0.553177 1.772337 0.144529
v 0.527786 1.737180 0.144529
v 0.063004 1.978391 0.315062
v 0.527786 1.737180 0.315062
v 0.553177 1.772337 0.315062
v 0.534134 1.745969 0.389036
v -0.536667 1.713743 0.380980
v -0.559616 1.745969 0.389036
v -0.118881 1.994016 0.389036
v -0.088486 1.978391 0.315062
v -0.124313 2.029171 0.144529
v -0.553268 1.737180 0.315062
v -0.088486 1.978391 0.144529
v -0.578659 1.772337 0.315062
v 0.511185 1.713743 -0.432985
v 0.098831 2.029171 -0.367067
v 0.553177 1.772337 -0.367067
v 0.527786 1.737180 -0.367067
v 0.553177 1.772337 -0.196537
v 0.534134 1.745969 -0.441042
v 0.527786 1.737180 -0.196535
v 0.093399 1.994016 -0.441042
v -0.559616 1.745969 -0.441042
v -0.088486 1.978391 -0.367067
v -0.553268 1.737180 -0.367067
v -0.578659 1.772337 -0.196537
v -0.578659 1.772337 -0.367067
v -0.536667 1.713743 -0.432985
v -0.553268 1.737180 -0.196535
v -0.088486 1.978391 -0.196537
v -0.578659 1.772337 0.144529
v -0.553268 1.737180 0.144529
v -0.124313 2.029171 0.315062
v -0.093918 1.953977 0.380980
v 0.063004 1.978391 0.144529
v 0.098831 2.029171 0.144529
v 0.068436 1.953977 0.380980
v -0.124313 2.029171 -0.367067
v -0.118881 1.994016 -0.441042
v 0.068436 1.953977 -0.432985
v 0.063004 1.978391 -0.196537
v -0.124252 2.029171 -0.196537
v 0.098831 2.029171 -0.196537
v -0.093918 1.953977 -0.432985
v 0.063004 1.978391 -0.367067
v 0.086319 2.119015 0.233030
v 0.115555 1.536985 -0.170900
v 0.146194 1.683469 -0.202150
v -0.168991 1.683469 -0.202150
v -0.138351 1.536985 -0.170900
v -0.117111 1.409055 -0.145998
v 0.094254 1.410032 -0.145998
v 0.130936 1.536985 0.102415
v 0.162186 1.683469 0.133053
v 0.162186 1.683469 -0.182131
v 0.130936 1.536985 -0.151369
v 0.106033 1.409055 -0.130190
v 0.106033 1.410032 0.081173
v -0.139572 1.536985 0.121214
v -0.170212 1.683469 0.152464
v 0.144974 1.683469 0.152464
v 0.114334 1.536985 0.121214
v 0.093033 1.409055 0.096373
v -0.118332 1.409055 0.096373
v -0.154953 1.536985 -0.152102
v -0.186203 1.683469 -0.182743
v -0.186203 1.683469 0.132444
v -0.154953 1.536985 0.101803
v -0.130112 1.409055 0.080503
v -0.130112 1.409055 -0.130861
vn -0.0000 0.0001 1.0000
vn -0.0000 0.0001 -1.0000
vn -1.0000 0.0003 -0.0000
vn 1.0000 0.0003 -0.0000
vn -0.0000 -0.0000 1.0000
vn -0.0000 -0.0000 -1.0000
vn 0.7027 -0.7115 -0.0000
vn -0.7027 -0.7115 -0.0000
vn -0.9999 -0.0125 -0.0000
vn -0.0000 1.0000 -0.0000
vn 0.9999 -0.0125 -0.0000
vn -0.0000 -1.0000 -0.0000
vn -1.0000 -0.0000 -0.0000
vn 1.0000 -0.0000 -0.0000
vn -0.9991 -0.0416 -0.0000
vn -0.9996 0.0295 -0.0000
vn 0.1672 -0.9859 -0.0000
vn -0.2439 -0.9698 -0.0000
vn 0.7372 -0.6757 -0.0000
vn 0.2440 -0.9698 -0.0000
vn -0.1672 -0.9859 -0.0000
vn -0.7372 -0.6757 -0.0000
vn -0.2442 -0.9697 -0.0000
vn 0.2684 -0.9633 -0.0000
vn -0.2762 -0.9611 -0.0000
vn 0.2437 -0.9698 -0.0000
vn 0.8608 -0.5090 -0.0000
vn -0.8685 -0.4957 -0.0000
vn -0.6764 0.2857 -0.6788
vn -0.0000 0.2041 -0.9790
vn -0.0000 0.1909 -0.9816
vn -0.6894 0.2502 -0.6798
vn -0.0000 0.1731 -0.9849
vn -0.6913 0.2205 -0.6882
vn 0.6741 -0.3033 0.6734
vn 0.6775 -0.2728 0.6831
vn 0.9832 -0.1825 -0.0000
vn 0.9754 -0.2206 -0.0000
vn 0.6897 -0.2321 0.6859
vn 0.9884 -0.1521 -0.0000
vn -0.0000 -0.2186 0.9758
vn -0.0000 -0.1981 0.9802
vn -0.0000 -0.1803 0.9836
vn -0.9836 0.1801 -0.0000
vn -0.9780 0.2085 -0.0000
vn -0.9897 0.1429 -0.0000
vn 0.6764 0.2857 -0.6788
vn 0.6894 0.2502 -0.6798
vn 0.6915 0.2201 -0.6881
vn -0.6741 -0.3033 0.6734
vn -0.9754 -0.2206 -0.0000
vn -0.9832 -0.1825 -0.0000
vn -0.6775 -0.2728 0.6831
vn -0.6896 -0.2314 0.6862
vn -0.9886 -0.1509 -0.0000
vn 0.9780 0.2085 -0.0000
vn 0.9836 0.1801 -0.0000
vn 0.9898 0.1424 -0.0000
vn 0.6764 0.2857 0.6788
vn -0.0000 0.2041 0.9790
vn -0.0000 0.1906 0.9817
vn 0.6894 0.2500 0.6799
vn -0.0000 0.1727 0.9850
vn 0.6916 0.2199 0.6881
vn -0.6739 -0.3037 -0.6735
vn -0.6775 -0.2731 -0.6829
vn -0.6896 -0.2314 -0.6862
vn -0.0000 -0.2192 -0.9757
vn -0.0000 -0.1984 -0.9801
vn -0.0000 -0.1803 -0.9836
vn -0.6764 0.2857 0.6788
vn -0.6894 0.2500 0.6799
vn -0.6913 0.2203 0.6881
vn 0.6739 -0.3037 -0.6735
vn 0.6775 -0.2731 -0.6829
vn 0.6897 -0.2321 -0.6859
vn 0.0034 0.5157 -0.8568
vn 0.0005 -0.2261 -0.9741
vn -0.0004 -0.2193 -0.9757
vn -0.0000 0.5354 -0.8446
vn 0.0041 0.9680 -0.2510
vn 0.0001 0.9758 -0.2189
vn -0.0030 -0.9734 0.2290
vn -0.0031 -0.9736 0.2284
vn -0.0031 -0.9736 0.2283
vn -0.0003 -0.2231 -0.9748
vn -0.0003 -0.2229 -0.9748
vn -0.0000 -0.2251 -0.9743
vn -0.0000 -0.2253 -0.9743
vn -0.8557 -0.5174 -0.0031
vn -0.9757 0.2190 0.0004
vn -0.9750 0.2220 -0.0000
vn -0.8446 -0.5354 -0.0000
vn -0.2510 -0.9680 -0.0041
vn -0.2189 -0.9758 -0.0001
vn -0.2283 -0.9736 -0.0030
vn 0.9754 -0.2205 -0.0006
vn 0.9755 -0.2201 -0.0007
vn 0.9744 -0.2249 -0.0001
vn 0.9743 -0.2253 -0.0000
vn -0.8557 0.5174 -0.0031
vn -0.9750 -0.2220 -0.0000
vn -0.9757 -0.2190 0.0004
vn -0.8446 0.5354 -0.0000
vn -0.2510 0.9680 -0.0041
vn -0.2189 0.9757 -0.0001
vn 0.2283 -0.9736 0.0030
vn -0.9754 -0.2205 0.0006
vn -0.9755 -0.2201 0.0007
vn -0.9744 -0.2249 0.0001
vn -0.9743 -0.2253 -0.0000
vn 0.0031 -0.5174 -0.8557
vn -0.0004 0.2190 -0.9757
vn -0.0000 0.2220 -0.9750
vn -0.0000 -0.5354 -0.8446
vn 0.0041 -0.9680 -0.2510
vn 0.0001 -0.9758 -0.2189
vn 0.0030 -0.9736 -0.2283
vn 0.0006 -0.2207 0.9753
vn 0.0007 -0.2200 0.9755
vn -0.0003 -0.2275 0.9738
vn -0.0004 -0.2281 0.9736
vn 0.7731 0.6343 -0.0000
vn 0.9531 0.3026 -0.0000
vn 0.7315 0.6818 -0.0000
vn 0.3085 0.9512 -0.0000
vn -0.1534 0.9882 -0.0000
vn -0.1533 0.9882 -0.0000
vn 0.9981 -0.0624 -0.0000
vn 0.9840 0.1784 -0.0000
vn 0.9997 -0.0254 -0.0000
vn 0.5667 0.8240 -0.0000
vn 0.5666 0.8240 -0.0000
vn 0.9385 0.3453 -0.0000
vn 0.9385 0.3454 -0.0000
vn 0.9739 -0.2268 -0.0000
vn 0.9740 -0.2268 -0.0000
vn -0.7731 0.6343 -0.0000
vn -0.9531 0.3026 -0.0000
vn -0.7315 0.6818 -0.0000
vn -0.3085 0.9512 -0.0000
vn 0.1533 0.9882 -0.0000
vn -0.9981 -0.0624 -0.0000
vn -0.9840 0.1784 -0.0000
vn -0.9997 -0.0254 -0.0000
vn -0.5666 0.8240 -0.0000
vn -0.5667 0.8240 -0.0000
vn -0.9385 0.3453 -0.0000
vn -0.9385 0.3454 -0.0000
vn -0.9739 -0.2268 -0.0000
vn -0.9740 -0.2268 -0.0000
vn -0.5763 -0.5795 0.5763
vn 0.5769 -0.5789 0.5762
vn -0.0000 -0.0040 1.0000
vn 0.5769 -0.5789 -0.5762
vn -0.5763 -0.5794 -0.5763
vn -0.0000 -0.0040 -1.0000
vn -1.0000 -0.0040 -0.0000
vn 1.0000 -0.0020 -0.0000
vn -0.0000 0.1718 -0.9851
vn -0.6841 0.2195 -0.6956
vn 0.6952 -0.2307 0.6808
vn 0.9884 -0.1517 -0.0000
vn -0.0000 -0.1791 0.9838
vn -0.9898 0.1422 -0.0000
vn 0.6840 0.2188 -0.6959
vn -0.9887 -0.1496 -0.0000
vn -0.6960 -0.2292 0.6805
vn 0.9900 0.1411 -0.0000
vn -0.0000 0.1718 0.9851
vn 0.6840 0.2188 0.6959
vn -0.6960 -0.2292 -0.6805
vn -0.0000 -0.1791 -0.9838
vn -0.6841 0.2195 0.6956
vn 0.6952 -0.2306 -0.6808
vn -0.6639 0.3448 0.6636
vn 0.6639 0.3448 0.6636
vn 0.5001 0.7067 0.5004
vn -0.5001 0.7067 0.5004
vn 0.6639 0.3448 -0.6636
vn -0.6639 0.3448 -0.6636
vn -0.5001 0.7067 -0.5004
vn 0.5001 0.7067 -0.5004
vn 0.1357 0.5102 0.8493
vn -0.0335 -0.1770 0.9836
vn 0.0959 -0.9151 0.3918
vn 0.6978 -0.0012 0.7163
vn -0.2582 -0.9127 -0.3168
vn -0.2271 -0.9601 -0.1631
vn 0.3040 -0.9448 -0.1221
vn 0.4921 0.8705 -0.0000
vn 0.2544 0.9671 -0.0000
vn 0.2453 0.9456 0.2137
vn 0.4820 0.8527 0.2016
vn 0.2312 -0.9729 -0.0000
vn 0.8107 -0.5855 -0.0000
vn 0.8112 -0.5847 -0.0007
vn -0.2371 -0.9715 -0.0000
vn -0.1357 0.5102 0.8493
vn -0.6978 -0.0012 0.7163
vn -0.0959 -0.9151 0.3918
vn 0.0335 -0.1770 0.9836
vn -0.3040 -0.9448 -0.1221
vn 0.2271 -0.9601 -0.1631
vn 0.2582 -0.9127 -0.3168
vn -0.4921 0.8705 -0.0000
vn -0.4820 0.8527 0.2016
vn -0.2454 0.9456 0.2137
vn -0.2544 0.9671 -0.0000
vn -0.2312 -0.9729 -0.0000
vn -0.8112 -0.5847 -0.0007
vn -0.8107 -0.5855 -0.0000
vn 0.2371 -0.9715 -0.0000
vn 0.1357 0.5102 -0.8493
vn 0.6978 -0.0012 -0.7163
vn 0.0959 -0.9151 -0.3918
vn -0.0335 -0.1770 -0.9836
vn 0.3040 -0.9448 0.1221
vn -0.2271 -0.9601 0.1631
vn -0.2582 -0.9127 0.3168
vn 0.4820 0.8527 -0.2016
vn 0.2453 0.9456 -0.2137
vn 0.8112 -0.5847 0.0007
vn -0.1357 0.5102 -0.8493
vn 0.0335 -0.1770 -0.9836
vn -0.0959 -0.9151 -0.3918
vn -0.6978 -0.0012 -0.7163
vn 0.2582 -0.9127 0.3168
vn 0.2271 -0.9601 0.1631
vn -0.3040 -0.9448 0.1221
vn -0.2454 0.9456 -0.2137
vn -0.4820 0.8527 -0.2016
vn -0.8112 -0.5847 0.0007
vn -0.0000 0.2086 0.9780
vn -0.0003 0.2013 0.9795
vn -0.0000 0.2009 0.9796
vn -0.0003 0.1915 0.9815
vn -0.0009 0.1926 0.9813
vn -0.9780 0.2086 -0.0000
vn -0.9795 0.2013 -0.0003
vn -0.9796 0.2009 -0.0000
vn -0.9815 0.1915 -0.0003
vn -0.9813 0.1926 -0.0009
vn -0.0000 0.2086 -0.9780
vn -0.0000 0.2007 -0.9797
vn -0.0000 0.1906 -0.9817
vn 0.9780 0.2086 -0.0000
vn 0.9797 0.2007 -0.0000
vn 0.9817 0.1906 -0.0000
vt 0.335449 -0.996094
vt 0.371094 -0.996094
vt 0.371094 -0.730957
vt 0.335449 -0.730957
vt 0.376465 -0.730957
vt 0.413086 -0.730957
vt 0.413086 -0.996094
vt 0.376465 -0.996094
vt 0.152710 -0.556641
vt 0.160645 -0.556641
vt 0.160645 -0.435791
vt 0.152710 -0.435791
vt 0.166748 -0.557129
vt 0.166748 -0.439453
vt 0.336670 -0.557129
vt 0.331055 -0.572266
vt 0.331055 -0.564453
vt 0.166138 -0.564453
vt 0.166138 -0.572266
vt 0.666992 -0.297852
vt 0.709961 -0.297852
vt 0.709961 -0.263428
vt 0.666992 -0.263428
vt 0.655273 -0.263184
vt 0.612305 -0.263184
vt 0.612305 -0.297852
vt 0.655273 -0.297852
vt 0.761719 -0.263184
vt 0.723145 -0.263184
vt 0.723145 -0.298828
vt 0.761719 -0.298828
vt 0.003611 -0.346680
vt 0.029343 -0.346680
vt 0.029343 -0.207153
vt 0.003611 -0.207153
vt 0.022842 -0.209106
vt 0.022842 -0.345703
vt 0.052155 -0.290527
vt 0.052155 -0.264160
vt 0.003611 -0.221436
vt 0.003611 -0.333252
vt 0.577637 -0.305664
vt 0.577637 -0.327393
vt 0.768066 -0.327393
vt 0.768066 -0.305664
vt 0.464111 -0.994141
vt 0.419189 -0.994141
vt 0.419189 -0.806641
vt 0.464111 -0.806641
vt 0.128418 -0.673828
vt 0.115479 -0.673828
vt 0.115479 -0.552734
vt 0.128418 -0.552734
vt 0.128418 -0.524902
vt 0.115479 -0.524902
vt 0.115479 -0.404053
vt 0.128418 -0.404053
vt 0.146729 -0.695313
vt 0.134277 -0.695313
vt 0.134277 -0.572266
vt 0.146729 -0.572266
vt 0.135620 -0.802734
vt 0.148193 -0.802734
vt 0.148193 -0.816895
vt 0.135620 -0.816895
vt 0.134277 -0.547363
vt 0.146729 -0.547363
vt 0.134277 -0.422363
vt 0.146729 -0.422363
vt 0.495361 -0.940918
vt 0.495361 -0.805664
vt 0.590332 -0.805664
vt 0.590332 -0.940918
vt 0.495361 -0.981445
vt 0.495361 -0.997559
vt 0.590332 -0.997559
vt 0.590332 -0.981445
vt 0.495361 -0.977051
vt 0.590332 -0.977051
vt 0.488525 -0.805176
vt 0.470215 -0.805176
vt 0.470215 -0.951172
vt 0.488525 -0.951172
vt 0.470215 -0.995605
vt 0.488525 -0.995605
vt 0.335449 -0.838379
vt 0.371094 -0.838379
vt 0.376465 -0.837402
vt 0.413086 -0.837402
vt 0.643555 -0.805176
vt 0.653809 -0.805176
vt 0.653809 -0.827637
vt 0.643555 -0.827637
vt 0.664063 -0.805176
vt 0.664063 -0.827637
vt 0.675293 -0.805176
vt 0.675293 -0.827637
vt 0.684570 -0.805176
vt 0.684570 -0.827637
vt 0.694336 -0.805176
vt 0.694336 -0.827637
vt 0.595703 -0.805176
vt 0.607910 -0.805176
vt 0.607910 -0.827637
vt 0.595703 -0.827637
vt 0.612305 -0.805176
vt 0.612305 -0.827637
vt 0.634277 -0.827637
vt 0.634277 -0.805176
vt 0.625000 -0.827637
vt 0.625000 -0.805176
vt 0.616699 -0.827637
vt 0.616699 -0.805176
vt 0.601563 -0.843262
vt 0.686523 -0.843262
vt 0.687988 -0.832031
vt 0.599609 -0.832031
vt 0.603027 -0.847168
vt 0.684570 -0.847168
vt 0.601074 -0.850586
vt 0.686523 -0.850586
vt 0.601563 -0.857910
vt 0.686523 -0.857910
vt 0.606934 -0.864746
vt 0.681152 -0.864746
vt 0.613770 -0.868164
vt 0.673828 -0.868164
vt 0.673340 -0.876465
vt 0.614746 -0.876465
vt 0.644043 -0.887695
vt 0.668457 -0.884766
vt 0.659668 -0.890137
vt 0.651367 -0.890625
vt 0.619629 -0.884766
vt 0.627930 -0.890137
vt 0.636230 -0.890625
vt 0.190674 -0.652832
vt 0.190674 -0.678711
vt 0.154419 -0.678711
vt 0.154419 -0.652832
vt 0.776367 -0.909668
vt 0.846680 -0.909668
vt 0.838379 -0.877930
vt 0.784180 -0.877930
vt 0.777832 -0.872559
vt 0.777832 -0.802246
vt 0.809082 -0.810059
vt 0.809082 -0.864746
vt 0.410156 -0.565430
vt 0.410156 -0.503418
vt 0.471924 -0.565430
vt 0.516602 -0.407471
vt 0.530273 -0.407471
vt 0.530273 -0.571289
vt 0.516602 -0.571289
vt 0.536133 -0.570801
vt 0.536133 -0.408447
vt 0.560547 -0.408447
vt 0.560547 -0.570801
vt 0.620605 -0.570801
vt 0.620605 -0.408691
vt 0.567383 -0.408691
vt 0.567383 -0.570801
vt 0.495850 -0.565430
vt 0.509277 -0.565430
vt 0.509277 -0.510742
vt 0.495850 -0.510742
vt 0.495850 -0.485840
vt 0.509277 -0.485840
vt 0.735840 -0.571289
vt 0.735840 -0.408936
vt 0.629395 -0.408936
vt 0.629395 -0.571289
vt 0.742676 -0.569336
vt 0.755859 -0.569336
vt 0.755859 -0.458984
vt 0.742676 -0.458984
vt 0.763184 -0.335693
vt 0.763184 -0.403564
vt 0.656738 -0.403564
vt 0.656738 -0.335693
vt 0.565918 -0.403076
vt 0.590332 -0.403076
vt 0.590332 -0.334961
vt 0.565918 -0.334961
vt 0.559570 -0.402588
vt 0.545898 -0.402588
vt 0.545898 -0.343506
vt 0.559570 -0.343506
vt 0.596191 -0.335693
vt 0.649414 -0.335693
vt 0.649414 -0.403564
vt 0.596191 -0.403564
vt 0.988770 -0.846680
vt 0.726563 -0.708496
vt 0.698242 -0.846680
vt 0.960449 -0.708496
vt 0.940918 -0.588867
vt 0.746094 -0.588867
vt 0.727051 -0.708984
vt 0.698730 -0.846680
vt 0.960938 -0.708496
vt 0.941406 -0.588867
vt 0.746582 -0.589355
vt 0.960449 -0.708984
vt 0.727051 -0.708496
s 1
g センター
g NarukamiShrine_mesh.087_Lamps_A
usemtl Lamps_A
f 3/1/1 2/2/1 1/3/1
f 1/3/1 4/4/1 3/1/1
s 2
f 8/4/2 5/3/2 7/2/2
f 7/2/2 6/1/2 8/4/2
s 3
f 5/5/3 3/6/3 4/7/3
f 4/7/3 7/8/3 5/5/3
s 4
f 2/8/4 8/7/4 6/6/4
f 6/6/4 1/5/4 2/8/4
s 5
f 9/9/5 84/10/5 85/11/5
f 85/11/5 83/12/5 9/9/5
s 6
f 13/12/6 11/9/6 10/10/6
f 10/10/6 12/11/6 13/12/6
s 7
f 9/13/7 83/14/8 13/15/7
f 83/16/8 85/17/9 10/18/9
f 10/18/9 11/19/8 83/16/8
s 8
f 85/15/10 12/14/10 10/13/10
s 7
f 84/18/11 9/19/7 13/16/7
f 13/16/7 12/17/11 84/18/11
s 9
f 16/20/5 19/21/5 18/22/5
f 18/22/5 14/23/5 16/20/5
s 10
f 15/20/6 325/21/6 327/22/6
f 327/22/6 323/23/6 15/20/6
s 11
f 14/24/12 17/25/12 333/26/12
f 333/26/12 16/27/12 14/24/12
s 12
f 18/28/13 335/29/13 17/30/13
f 17/30/13 14/31/13 18/28/13
s 13
f 19/27/10 336/26/10 335/25/10
f 335/25/10 18/24/10 19/27/10
s 14
f 16/31/14 333/30/14 336/29/14
f 336/29/14 19/28/14 16/31/14
s 15
f 22/32/15 21/33/15 20/34/15
f 20/34/15 23/35/15 22/32/15
s 16
f 26/34/16 24/32/16 25/35/16
f 24/32/16 26/34/16 27/33/16
s 17
f 30/36/6 29/37/6 28/38/6
f 28/38/6 31/39/6 30/36/6
f 29/37/6 30/36/6 32/40/6
f 32/40/6 33/41/6 29/37/6
s 18
f 36/37/6 34/39/6 35/36/6
f 34/39/6 36/37/6 37/38/6
f 35/36/6 38/41/6 36/37/6
f 38/41/6 35/36/6 39/40/6
s 19
f 41/42/14 40/43/14 44/44/14
f 44/44/14 42/45/14 41/42/14
s 20
f 40/46/10 47/47/10 43/48/10
f 43/48/10 44/49/10 40/46/10
s 21
f 47/44/13 46/45/13 45/42/13
f 45/42/13 43/43/13 47/44/13
s 22
f 50/50/5 49/51/5 48/52/5
f 48/52/5 59/53/5 50/50/5
f 60/54/5 59/53/5 48/52/5
f 48/52/5 51/55/5 60/54/5
f 60/54/5 51/55/5 63/56/5
f 63/56/5 62/57/5 60/54/5
s 23
f 54/56/6 53/57/6 52/54/6
f 52/54/6 55/55/6 54/56/6
f 56/52/6 55/55/6 52/54/6
f 52/54/6 57/53/6 56/52/6
f 56/52/6 57/53/6 61/50/6
f 61/50/6 58/51/6 56/52/6
s 24
f 53/58/17 50/59/17 59/60/18
f 59/60/18 52/61/18 53/58/17
f 54/62/19 49/63/19 50/64/17
f 50/64/17 53/65/17 54/62/19
f 59/60/18 60/66/20 57/67/20
f 57/67/20 52/61/18 59/60/18
f 57/67/20 60/66/20 62/68/21
f 62/68/21 61/69/21 57/67/20
f 58/63/22 61/64/21 62/65/21
f 62/65/21 63/62/22 58/63/22
s 25
f 65/70/23 64/71/24 74/72/24
f 74/72/24 75/73/23 65/70/23
f 77/72/25 69/71/25 72/70/26
f 72/70/26 66/73/26 77/72/25
f 64/74/24 68/75/27 67/76/27
f 67/76/27 74/77/24 64/74/24
f 70/74/28 69/75/25 77/76/25
f 77/76/25 71/77/28 70/74/28
f 72/78/26 65/70/23 75/73/23
f 75/73/23 66/79/26 72/78/26
s 26
f 74/80/5 67/81/5 73/82/5
f 73/82/5 75/83/5 74/80/5
f 75/83/5 73/82/5 76/84/5
f 76/84/5 66/85/5 75/83/5
f 66/83/5 76/82/5 71/81/5
f 71/81/5 77/80/5 66/83/5
s 27
f 80/80/6 79/83/6 78/82/6
f 78/82/6 81/81/6 80/80/6
f 82/84/6 78/82/6 79/83/6
f 79/83/6 197/85/6 82/84/6
f 197/83/6 198/80/6 199/81/6
f 199/81/6 82/82/6 197/83/6
s 7
f 83/15/8 11/13/8 13/14/7
s 8
f 85/14/10 84/13/10 12/15/10
s 28
f 86/2/29 91/1/30 89/86/31
f 89/86/31 87/87/32 86/2/29
f 87/87/32 89/86/31 92/4/33
f 92/4/33 88/3/34 87/87/32
s 29
f 90/8/35 93/88/36 89/89/37
f 89/89/37 91/7/38 90/8/35
f 89/89/37 93/88/36 345/5/39
f 345/5/39 92/6/40 89/89/37
f 95/1/41 94/86/42 93/87/36
f 93/87/36 90/2/35 95/1/41
f 345/3/39 93/87/36 94/86/42
f 94/86/42 348/4/43 345/3/39
s 28
f 86/8/29 87/88/32 94/89/44
f 94/89/44 95/7/45 86/8/29
f 348/6/46 94/89/44 87/88/32
f 87/88/32 88/5/34 348/6/46
s 30
f 97/2/47 96/87/48 100/86/31
f 100/86/31 98/1/30 97/2/47
f 104/4/33 100/86/31 96/87/48
f 96/87/48 99/3/49 104/4/33
s 31
f 101/8/50 98/7/51 100/89/52
f 100/89/52 102/88/53 101/8/50
f 103/5/54 102/88/53 100/89/52
f 100/89/52 104/6/55 103/5/54
f 105/1/41 101/2/50 102/87/53
f 102/87/53 106/86/42 105/1/41
f 106/86/42 102/87/53 103/3/54
f 103/3/54 352/4/43 106/86/42
s 30
f 97/8/47 105/7/56 106/89/57
f 106/89/57 96/88/48 97/8/47
f 96/88/48 106/89/57 352/6/58
f 352/6/58 99/5/49 96/88/48
s 32
f 108/2/59 112/1/60 107/86/61
f 107/86/61 109/87/62 108/2/59
f 109/87/62 107/86/61 354/4/63
f 354/4/63 110/3/64 109/87/62
s 33
f 114/8/65 111/88/66 107/89/52
f 107/89/52 112/7/51 114/8/65
f 107/89/52 111/88/66 113/5/67
f 113/5/67 354/6/55 107/89/52
f 116/1/68 115/86/69 111/87/66
f 111/87/66 114/2/65 116/1/68
f 113/3/67 111/87/66 115/86/69
f 115/86/69 357/4/70 113/3/67
s 32
f 108/8/59 109/88/62 115/89/57
f 115/89/57 116/7/56 108/8/59
f 357/6/58 115/89/57 109/88/62
f 109/88/62 110/5/64 357/6/58
s 34
f 119/2/71 118/87/72 117/86/61
f 117/86/61 120/1/60 119/2/71
f 123/4/63 117/86/61 118/87/72
f 118/87/72 362/3/73 123/4/63
s 35
f 121/8/74 120/7/38 117/89/37
f 117/89/37 122/88/75 121/8/74
f 364/5/76 122/88/75 117/89/37
f 117/89/37 123/6/40 364/5/76
f 124/1/68 121/2/74 122/87/75
f 122/87/75 125/86/69 124/1/68
f 125/86/69 122/87/75 364/3/76
f 364/3/76 126/4/70 125/86/69
s 34
f 119/8/71 124/7/45 125/89/44
f 125/89/44 118/88/72 119/8/71
f 118/88/72 125/89/44 126/6/46
f 126/6/46 362/5/73 118/88/72
s 36
f 129/3/77 128/4/78 127/1/79
f 127/1/79 130/2/80 129/3/77
f 131/6/81 129/5/77 130/8/80
f 130/8/80 132/7/82 131/6/81
s 37
f 136/5/83 134/6/83 133/7/84
f 133/7/84 135/8/85 136/5/83
s 38
f 137/4/86 136/3/87 135/2/88
f 135/2/88 138/1/89 137/4/86
s 39
f 142/3/90 139/1/91 140/4/92
f 139/1/91 142/3/90 141/2/93
f 143/6/94 141/8/93 142/5/90
f 141/8/93 143/6/94 144/7/95
s 40
f 148/5/96 146/6/96 145/7/96
f 145/7/96 147/8/96 148/5/96
s 41
f 149/4/97 148/3/98 147/2/99
f 147/2/99 150/1/100 149/4/97
s 42
f 154/3/101 152/4/102 151/1/103
f 151/1/103 153/2/104 154/3/101
f 155/6/105 154/5/101 153/8/104
f 153/8/104 156/7/106 155/6/105
s 43
f 159/5/107 158/6/107 157/7/107
f 157/7/107 160/8/107 159/5/107
s 44
f 161/4/108 159/3/109 160/2/110
f 160/2/110 162/1/111 161/4/108
s 45
f 166/3/112 163/1/113 164/4/114
f 163/1/113 166/3/112 165/2/115
f 167/6/116 165/8/115 166/5/112
f 165/8/115 167/6/116 168/7/117
s 46
f 172/5/118 170/6/118 169/7/118
f 169/7/118 171/8/118 172/5/118
s 47
f 173/4/119 172/3/120 171/2/121
f 171/2/121 174/1/122 173/4/119
s 48
f 176/20/5 179/21/5 175/22/5
f 175/22/5 178/23/5 176/20/5
s 49
f 330/20/6 177/21/6 331/22/6
f 331/22/6 328/23/6 330/20/6
s 50
f 178/24/12 338/25/12 180/26/12
f 180/26/12 176/27/12 178/24/12
s 51
f 175/28/13 340/29/13 338/30/13
f 338/30/13 178/31/13 175/28/13
s 52
f 179/27/10 341/26/10 340/25/10
f 340/25/10 175/24/10 179/27/10
s 53
f 176/31/14 180/30/14 341/29/14
f 341/29/14 179/28/14 176/31/14
s 54
f 192/50/5 182/51/5 181/52/5
f 181/52/5 191/53/5 192/50/5
f 183/54/5 191/53/5 181/52/5
f 181/52/5 184/55/5 183/54/5
f 183/54/5 184/55/5 196/56/5
f 196/56/5 185/57/5 183/54/5
s 55
f 193/56/6 187/57/6 186/54/6
f 186/54/6 188/55/6 193/56/6
f 189/52/6 188/55/6 186/54/6
f 186/54/6 194/53/6 189/52/6
f 189/52/6 194/53/6 190/50/6
f 190/50/6 195/51/6 189/52/6
s 56
f 187/58/17 192/59/17 191/60/18
f 191/60/18 186/61/18 187/58/17
f 193/62/19 182/63/19 192/64/17
f 192/64/17 187/65/17 193/62/19
f 191/60/18 183/66/20 194/67/20
f 194/67/20 186/61/18 191/60/18
f 194/67/20 183/66/20 185/68/21
f 185/68/21 190/69/21 194/67/20
f 195/63/22 190/64/21 185/65/21
f 185/65/21 196/62/22 195/63/22
s 25
f 79/73/23 80/72/24 64/71/24
f 64/71/24 65/70/23 79/73/23
f 198/72/25 197/73/26 72/70/26
f 72/70/26 69/71/25 198/72/25
f 80/77/24 81/76/27 68/75/27
f 68/75/27 64/74/24 80/77/24
f 199/77/28 198/76/25 69/75/25
f 69/75/25 70/74/28 199/77/28
f 197/79/26 79/73/23 65/70/23
f 65/70/23 72/78/26 197/79/26
s 57
f 430/90/123 233/91/124 227/92/124
f 227/92/124 200/93/123 430/90/123
f 227/92/124 233/91/124 201/94/125
f 201/94/125 202/95/125 227/92/124
f 202/95/125 201/94/125 203/96/126
f 203/96/126 229/97/126 202/95/125
f 229/97/126 203/96/126 204/98/127
f 204/98/127 230/99/128 229/97/126
f 230/99/128 204/98/127 232/100/10
f 232/100/10 205/101/10 230/99/128
f 237/102/129 206/103/130 226/104/130
f 226/104/130 207/105/129 237/102/129
f 226/104/130 206/103/130 235/106/131
f 235/106/131 208/107/131 226/104/130
f 430/90/123 200/93/123 209/108/132
f 209/108/132 210/109/133 430/90/123
f 210/109/133 209/108/132 211/110/134
f 211/110/134 212/111/135 210/109/133
f 212/111/135 211/110/134 213/112/136
f 213/112/136 214/113/137 212/111/135
f 214/113/137 213/112/136 208/107/131
f 208/107/131 235/106/131 214/113/137
f 234/90/138 216/93/138 215/92/139
f 215/92/139 217/91/139 234/90/138
f 218/94/140 217/91/139 215/92/139
f 215/92/139 219/95/140 218/94/140
f 231/96/141 218/94/140 219/95/140
f 219/95/140 220/97/141 231/96/141
f 221/98/142 231/96/141 220/97/141
f 220/97/141 228/99/142 221/98/142
f 232/100/10 221/98/142 228/99/142
f 228/99/142 205/101/10 232/100/10
f 238/102/143 222/105/143 225/104/144
f 225/104/144 223/103/144 238/102/143
f 236/106/145 223/103/144 225/104/144
f 225/104/144 224/107/145 236/106/145
s 58
f 226/114/5 225/115/5 222/116/5
f 222/116/5 207/117/5 226/114/5
f 225/115/5 226/114/5 208/118/5
f 208/118/5 224/119/5 225/115/5
f 224/119/5 208/118/5 213/120/5
f 213/120/5 243/121/5 224/119/5
f 243/121/5 213/120/5 211/122/5
f 211/122/5 241/123/5 243/121/5
f 241/123/5 211/122/5 209/124/5
f 209/124/5 239/125/5 241/123/5
f 239/125/5 209/124/5 200/126/5
f 200/126/5 216/127/5 239/125/5
f 215/128/5 216/127/5 200/126/5
f 200/126/5 227/129/5 215/128/5
f 227/129/5 205/130/5 215/128/5
f 205/130/5 219/131/5 215/128/5
f 220/132/5 219/131/5 205/130/5
f 205/130/5 228/133/5 220/132/5
f 227/129/5 202/134/5 205/130/5
f 205/130/5 202/134/5 229/135/5
f 229/135/5 230/136/5 205/130/5
s 59
f 232/130/6 218/131/6 231/132/6
f 231/132/6 221/133/6 232/130/6
f 232/130/6 217/128/6 218/131/6
f 232/130/6 233/129/6 217/128/6
f 234/127/6 217/128/6 233/129/6
f 233/129/6 430/126/6 234/127/6
f 232/130/6 201/134/6 233/129/6
f 203/135/6 201/134/6 232/130/6
f 232/130/6 204/136/6 203/135/6
f 234/127/6 430/126/6 210/124/6
f 210/124/6 240/125/6 234/127/6
f 240/125/6 210/124/6 212/122/6
f 212/122/6 242/123/6 240/125/6
f 242/123/6 212/122/6 214/120/6
f 214/120/6 244/121/6 242/123/6
f 244/121/6 214/120/6 235/118/6
f 235/118/6 236/119/6 244/121/6
f 223/115/6 236/119/6 235/118/6
f 235/118/6 206/114/6 223/115/6
f 223/115/6 206/114/6 237/117/6
f 237/117/6 238/116/6 223/115/6
s 57
f 234/90/138 240/109/146 239/108/147
f 239/108/147 216/93/138 234/90/138
f 241/110/148 239/108/147 240/109/146
f 240/109/146 242/111/149 241/110/148
f 243/112/150 241/110/148 242/111/149
f 242/111/149 244/113/151 243/112/150
f 224/107/145 243/112/150 244/113/151
f 244/113/151 236/106/145 224/107/145
s 60
f 274/90/123 269/93/123 245/92/124
f 245/92/124 273/91/124 274/90/123
f 275/94/125 273/91/124 245/92/124
f 245/92/124 246/95/125 275/94/125
f 276/96/126 275/94/125 246/95/125
f 246/95/125 270/97/126 276/96/126
f 277/98/127 276/96/126 270/97/126
f 270/97/126 247/99/128 277/98/127
f 271/100/10 277/98/127 247/99/128
f 247/99/128 248/101/10 271/100/10
f 286/102/129 262/105/129 263/104/130
f 263/104/130 285/103/130 286/102/129
f 282/106/131 285/103/130 263/104/130
f 263/104/130 264/107/131 282/106/131
f 274/90/123 249/109/133 268/108/132
f 268/108/132 269/93/123 274/90/123
f 266/110/134 268/108/132 249/109/133
f 249/109/133 279/111/135 266/110/134
f 265/112/136 266/110/134 279/111/135
f 279/111/135 281/113/137 265/112/136
f 264/107/131 265/112/136 281/113/137
f 281/113/137 282/106/131 264/107/131
f 251/90/138 272/91/139 250/92/139
f 250/92/139 252/93/138 251/90/138
f 250/92/139 272/91/139 253/94/140
f 253/94/140 254/95/140 250/92/139
f 254/95/140 253/94/140 255/96/141
f 255/96/141 256/97/141 254/95/140
f 256/97/141 255/96/141 257/98/142
f 257/98/142 258/99/142 256/97/141
f 258/99/142 257/98/142 271/100/10
f 271/100/10 248/101/10 258/99/142
f 287/102/143 284/103/144 259/104/144
f 259/104/144 261/105/143 287/102/143
f 259/104/144 284/103/144 283/106/145
f 283/106/145 260/107/145 259/104/144
s 61
f 263/114/6 262/117/6 261/116/6
f 261/116/6 259/115/6 263/114/6
f 264/118/6 263/114/6 259/115/6
f 259/115/6 260/119/6 264/118/6
f 265/120/6 264/118/6 260/119/6
f 260/119/6 289/121/6 265/120/6
f 266/122/6 265/120/6 289/121/6
f 289/121/6 267/123/6 266/122/6
f 268/124/6 266/122/6 267/123/6
f 267/123/6 288/125/6 268/124/6
f 269/126/6 268/124/6 288/125/6
f 288/125/6 252/127/6 269/126/6
f 269/126/6 252/127/6 250/128/6
f 250/128/6 245/129/6 269/126/6
f 245/129/6 250/128/6 248/130/6
f 248/130/6 250/128/6 254/131/6
f 248/130/6 254/131/6 256/132/6
f 256/132/6 258/133/6 248/130/6
f 245/129/6 248/130/6 246/134/6
f 270/135/6 246/134/6 248/130/6
f 248/130/6 247/136/6 270/135/6
s 62
f 271/130/5 257/133/5 255/132/5
f 255/132/5 253/131/5 271/130/5
f 271/130/5 253/131/5 272/128/5
f 271/130/5 272/128/5 273/129/5
f 273/129/5 272/128/5 251/127/5
f 251/127/5 274/126/5 273/129/5
f 271/130/5 273/129/5 275/134/5
f 271/130/5 275/134/5 276/135/5
f 276/135/5 277/136/5 271/130/5
f 249/124/5 274/126/5 251/127/5
f 251/127/5 278/125/5 249/124/5
f 279/122/5 249/124/5 278/125/5
f 278/125/5 280/123/5 279/122/5
f 281/120/5 279/122/5 280/123/5
f 280/123/5 290/121/5 281/120/5
f 282/118/5 281/120/5 290/121/5
f 290/121/5 283/119/5 282/118/5
f 282/118/5 283/119/5 284/115/5
f 284/115/5 285/114/5 282/118/5
f 286/117/5 285/114/5 284/115/5
f 284/115/5 287/116/5 286/117/5
s 60
f 251/90/138 252/93/138 288/108/147
f 288/108/147 278/109/146 251/90/138
f 278/109/146 288/108/147 267/110/148
f 267/110/148 280/111/149 278/109/146
f 280/111/149 267/110/148 289/112/150
f 289/112/150 290/113/151 280/111/149
f 290/113/151 289/112/150 260/107/145
f 260/107/145 283/106/145 290/113/151
s 63
f 297/7/5 296/8/5 294/5/5
f 294/5/5 291/6/5 297/7/5
s 64
f 292/7/6 293/8/6 295/5/6
f 295/5/6 298/6/6 292/7/6
s 65
f 291/137/13 294/138/13 293/139/13
f 293/139/13 292/140/13 291/137/13
s 66
f 298/137/14 295/138/14 296/139/14
f 296/139/14 297/140/14 298/137/14
s 67
f 294/4/10 296/1/10 295/2/10
f 295/2/10 293/3/10 294/4/10
s 68
f 292/3/12 298/2/12 297/1/12
f 297/1/12 291/4/12 292/3/12
s 69
f 300/7/14 302/8/14 299/5/14
f 299/5/14 306/6/14 300/7/14
s 70
f 305/7/13 301/8/13 304/5/13
f 304/5/13 303/6/13 305/7/13
s 71
f 306/137/5 299/138/5 301/139/5
f 301/139/5 305/140/5 306/137/5
s 72
f 303/137/6 304/138/6 302/139/6
f 302/139/6 300/140/6 303/137/6
s 73
f 299/4/10 302/1/10 304/2/10
f 304/2/10 301/3/10 299/4/10
s 74
f 305/3/12 303/2/12 300/1/12
f 300/1/12 306/4/12 305/3/12
s 75
f 313/7/14 311/8/14 307/5/14
f 307/5/14 310/6/14 313/7/14
s 76
f 309/7/13 314/8/13 308/5/13
f 308/5/13 312/6/13 309/7/13
s 77
f 310/137/5 307/138/5 314/139/5
f 314/139/5 309/140/5 310/137/5
s 78
f 312/137/6 308/138/6 311/139/6
f 311/139/6 313/140/6 312/137/6
s 79
f 307/4/10 311/1/10 308/2/10
f 308/2/10 314/3/10 307/4/10
s 80
f 309/3/12 312/2/12 313/1/12
f 313/1/12 310/4/12 309/3/12
s 81
f 322/9/152 317/12/153 318/11/154
f 318/11/154 319/10/154 322/9/152
f 316/9/155 321/12/156 315/11/157
f 315/11/157 320/10/157 316/9/155
f 321/17/156 322/18/152 319/19/158
f 319/19/158 315/16/158 321/17/156
f 317/17/153 316/18/155 320/19/159
f 320/19/159 318/16/159 317/17/153
s 82
f 318/13/10 320/14/10 319/15/10
f 320/15/10 315/13/10 319/14/10
s 81
f 322/15/152 316/14/155 317/13/153
f 322/14/152 321/13/156 316/15/155
s 11
f 15/24/12 323/27/12 337/26/12
f 337/26/12 324/25/12 15/24/12
s 12
f 325/28/13 15/31/13 324/30/13
f 324/30/13 334/29/13 325/28/13
s 13
f 327/27/10 325/24/10 334/25/10
f 334/25/10 326/26/10 327/27/10
s 14
f 323/31/14 327/28/14 326/29/14
f 326/29/14 337/30/14 323/31/14
s 50
f 330/24/12 328/27/12 332/26/12
f 332/26/12 329/25/12 330/24/12
s 51
f 177/28/13 330/31/13 329/30/13
f 329/30/13 339/29/13 177/28/13
s 52
f 331/27/10 177/24/10 339/25/10
f 339/25/10 342/26/10 331/27/10
s 53
f 328/31/14 331/28/14 342/29/14
f 342/29/14 332/30/14 328/31/14
s 11
f 324/7/12 337/8/12 333/5/12
f 333/5/12 17/6/12 324/7/12
s 12
f 334/2/13 324/1/13 17/4/13
f 17/4/13 335/3/13 334/2/13
s 13
f 326/5/10 334/6/10 335/7/10
f 335/7/10 336/8/10 326/5/10
s 14
f 337/4/14 326/3/14 336/2/14
f 336/2/14 333/1/14 337/4/14
s 50
f 329/7/12 332/8/12 180/5/12
f 180/5/12 338/6/12 329/7/12
s 51
f 339/2/13 329/1/13 338/4/13
f 338/4/13 340/3/13 339/2/13
s 52
f 342/5/10 339/6/10 340/7/10
f 340/7/10 341/8/10 342/5/10
s 53
f 332/4/14 342/3/14 341/2/14
f 341/2/14 180/1/14 332/4/14
s 28
f 344/31/160 343/28/161 88/29/34
f 88/29/34 92/30/33 344/31/160
s 29
f 346/27/162 344/24/163 92/25/40
f 92/25/40 345/26/39 346/27/162
f 348/30/43 347/31/164 346/28/162
f 346/28/162 345/29/39 348/30/43
s 28
f 88/26/34 343/27/161 347/24/165
f 347/24/165 348/25/46 88/26/34
s 30
f 99/29/49 349/28/166 351/31/160
f 351/31/160 104/30/33 99/29/49
s 31
f 104/25/55 351/24/167 350/27/168
f 350/27/168 103/26/54 104/25/55
f 350/28/168 353/31/164 352/30/43
f 352/30/43 103/29/54 350/28/168
s 30
f 353/24/169 349/27/166 99/26/49
f 99/26/49 352/25/58 353/24/169
s 32
f 355/31/170 359/28/171 110/29/64
f 110/29/64 354/30/63 355/31/170
s 33
f 356/27/172 355/24/167 354/25/55
f 354/25/55 113/26/67 356/27/172
f 357/30/70 358/31/173 356/28/172
f 356/28/172 113/29/67 357/30/70
s 32
f 110/26/64 359/27/171 358/24/169
f 358/24/169 357/25/58 110/26/64
s 34
f 362/29/73 361/28/174 360/31/170
f 360/31/170 123/30/63 362/29/73
s 35
f 123/25/40 360/24/163 363/27/175
f 363/27/175 364/26/76 123/25/40
f 363/28/175 365/31/173 126/30/70
f 126/30/70 364/29/76 363/28/175
s 34
f 365/24/165 361/27/174 362/26/73
f 362/26/73 126/25/46 365/24/165
s 83
f 372/7/5 366/8/5 371/5/5
f 371/5/5 367/6/5 372/7/5
s 84
f 373/7/6 368/8/6 370/5/6
f 370/5/6 369/6/6 373/7/6
s 85
f 367/137/13 371/138/13 368/139/13
f 368/139/13 373/140/13 367/137/13
s 86
f 369/137/14 370/138/14 366/139/14
f 366/139/14 372/140/14 369/137/14
s 87
f 371/4/10 366/1/10 370/2/10
f 370/2/10 368/3/10 371/4/10
s 88
f 373/3/12 369/2/12 372/1/12
f 372/1/12 367/4/12 373/3/12
s 89
f 375/141/176 379/142/177 374/143/178
f 374/143/178 380/144/179 375/141/176
f 376/141/180 377/142/181 378/143/182
f 378/143/182 381/144/183 376/141/180
f 377/145/181 375/146/176 380/147/179
f 380/147/179 378/148/182 377/145/181
f 379/145/177 376/146/180 381/147/183
f 381/147/183 374/148/178 379/145/177
f 374/149/178 381/150/183 380/151/179
f 381/151/183 378/149/182 380/150/179
s 90
f 383/152/184 421/153/185 382/154/186
f 382/154/186 390/155/187 383/152/184
f 382/156/186 421/157/188 387/158/189
f 387/158/189 388/159/190 382/156/186
f 385/160/191 420/161/192 384/162/193
f 384/162/193 389/163/194 385/160/191
f 386/164/195 385/165/196 389/166/197
f 389/166/197 388/167/190 386/164/195
f 382/168/186 388/167/190 389/166/197
f 389/166/197 390/169/187 382/168/186
f 387/162/189 419/161/198 386/160/195
f 386/160/195 388/163/190 387/162/189
f 390/156/187 389/159/194 384/158/193
f 384/158/193 383/157/184 390/156/187
f 393/152/199 392/155/200 391/154/201
f 391/154/201 418/153/202 393/152/199
f 391/156/201 396/159/203 394/158/204
f 394/158/204 418/157/205 391/156/201
f 415/160/206 398/163/207 417/162/208
f 417/162/208 395/161/209 415/160/206
f 416/164/210 396/167/203 398/166/211
f 398/166/211 415/165/212 416/164/210
f 398/166/211 396/167/203 391/168/201
f 391/168/201 392/169/200 398/166/211
f 394/162/204 396/163/203 416/160/210
f 416/160/210 397/161/213 394/162/204
f 392/156/200 393/157/199 417/158/208
f 417/158/208 398/159/207 392/156/200
f 406/152/214 404/155/215 399/154/216
f 399/154/216 424/153/217 406/152/214
f 399/156/216 402/159/218 429/158/219
f 429/158/219 424/157/220 399/156/216
f 403/160/191 401/163/221 400/162/222
f 400/162/222 427/161/192 403/160/191
f 405/164/195 402/167/218 401/166/223
f 401/166/223 403/165/196 405/164/195
f 401/166/223 402/167/218 399/168/216
f 399/168/216 404/169/215 401/166/223
f 429/162/219 402/163/218 405/160/195
f 405/160/195 425/161/198 429/162/219
f 404/156/215 406/157/214 400/158/222
f 400/158/222 401/159/221 404/156/215
f 423/152/224 428/153/225 412/154/226
f 412/154/226 407/155/227 423/152/224
f 412/156/226 428/157/228 408/158/229
f 408/158/229 409/159/230 412/156/226
f 410/160/206 426/161/209 422/162/231
f 422/162/231 411/163/232 410/160/206
f 413/164/210 410/165/212 411/166/233
f 411/166/233 409/167/230 413/164/210
f 412/168/226 409/167/230 411/166/233
f 411/166/233 407/169/227 412/168/226
f 408/162/229 414/161/213 413/160/210
f 413/160/210 409/163/230 408/162/229
f 407/156/227 411/159/232 422/158/231
f 422/158/231 423/157/224 407/156/227
f 403/170/191 427/171/192 420/172/192
f 420/172/192 385/173/191 403/170/191
f 405/174/195 403/175/196 385/176/196
f 385/176/196 386/177/195 405/174/195
f 425/171/198 405/170/195 386/173/195
f 386/173/195 419/172/198 425/171/198
f 410/170/206 415/173/206 395/172/209
f 395/172/209 426/171/209 410/170/206
f 413/174/210 416/177/210 415/176/212
f 415/176/212 410/175/212 413/174/210
f 414/171/213 397/172/213 416/173/210
f 416/173/210 413/170/210 414/171/213
f 414/178/213 425/179/198 419/180/198
f 419/180/198 397/181/213 414/178/213
f 427/179/192 426/178/209 395/181/209
f 395/181/209 420/180/192 427/179/192
f 383/182/184 384/183/193 417/184/208
f 417/184/208 393/185/199 383/182/184
f 421/186/185 383/187/184 393/188/199
f 393/188/199 418/189/202 421/186/185
f 394/190/204 397/191/213 419/192/198
f 419/192/198 387/193/189 394/190/204
f 384/193/193 420/192/192 395/191/209
f 395/191/209 417/190/208 384/193/193
f 394/184/204 387/183/189 421/182/188
f 421/182/188 418/185/205 394/184/204
f 406/182/214 423/185/224 422/184/231
f 422/184/231 400/183/222 406/182/214
f 424/186/217 428/189/225 423/188/224
f 423/188/224 406/187/214 424/186/217
f 408/190/229 429/193/219 425/192/198
f 425/192/198 414/191/213 408/190/229
f 400/193/222 422/190/231 426/191/209
f 426/191/209 427/192/192 400/193/222
f 408/184/229 428/185/228 424/182/220
f 424/182/220 429/183/219 408/184/229
s 91
g NarukamiShrine_mesh.087_Lamps_B
usemtl Lamps_B
f 433/194/234 431/195/235 432/196/234
f 431/195/235 433/194/234 434/197/236
f 435/198/237 431/195/235 434/197/236
f 431/195/235 435/198/237 436/199/238
s 92
f 439/194/239 437/200/240 438/201/239
f 437/200/240 439/194/239 440/202/241
f 441/203/242 437/200/240 440/202/241
f 437/200/240 441/203/242 442/204/243
s 93
f 445/201/244 443/205/245 444/194/244
f 443/205/245 445/201/244 446/206/245
f 447/199/246 443/205/245 446/206/245
f 443/205/245 447/199/246 448/198/246
s 94
f 451/201/247 449/205/248 450/194/247
f 449/205/248 451/201/247 452/206/248
f 453/199/249 449/205/248 452/206/248
f 449/205/248 453/199/249 454/198/249
