# Blender 5.0.1
# www.blender.org
mtllib Rieles_vias.mtl
g Cubo_1_Mesh
v 1.753134 0.338592 -15.669020
v 1.753134 0.443589 -15.669020
v 1.533523 0.443589 -15.669020
v 1.533523 0.338592 -15.669020
v 1.533523 0.338594 16.173410
v 1.533523 0.443592 16.173410
v 1.753134 0.443592 16.173410
v 1.753134 0.338594 16.173410
v 1.753134 0.338594 16.173410
v 1.753134 0.443592 16.173410
v 1.753134 0.443589 -15.669020
v 1.753134 0.338592 -15.669020
v 1.533523 0.338592 -15.669020
v 1.533523 0.443589 -15.669020
v 1.533523 0.443592 16.173410
v 1.533523 0.338594 16.173410
v 1.753134 0.443589 -15.669020
v 1.753134 0.443592 16.173410
v 1.533523 0.443592 16.173410
v 1.533523 0.443589 -15.669020
v 1.533523 0.338592 -15.669020
v 1.533523 0.338594 16.173410
v 1.753134 0.338594 16.173410
v 1.753134 0.338592 -15.669020
vn -0.0000 -0.0000 -1.0000
vn -0.0000 -0.0000 1.0000
vn 1.0000 -0.0000 -0.0000
vn -1.0000 -0.0000 -0.0000
vn -0.0000 1.0000 -0.0000
vn -0.0000 -1.0000 -0.0000
vt 1.000000 1.000000
vt 0.000000 1.000000
vt 0.000000 0.000000
vt 1.000000 0.000000
s 1
g off
g Cubo_1_Material_1
usemtl Material_1
f 3/1/1 2/2/1 1/3/1
f 3/1/1 1/3/1 4/4/1
s 2
f 7/1/2 6/2/2 5/3/2
f 7/1/2 5/3/2 8/4/2
s 3
f 11/1/3 10/2/3 9/3/3
f 11/1/3 9/3/3 12/4/3
s 4
f 15/1/4 14/2/4 13/3/4
f 15/1/4 13/3/4 16/4/4
s 5
f 19/1/5 18/2/5 17/3/5
f 19/1/5 17/3/5 20/4/5
s 6
f 23/1/6 22/2/6 21/3/6
f 23/1/6 21/3/6 24/4/6
g Cubo_2_Mesh
v 3.445624 0.584169 -15.669470
v 3.445624 0.674616 -15.669470
v 3.226013 0.674616 -15.669470
v 3.226013 0.584169 -15.669470
v 3.226013 0.584171 16.173861
v 3.226013 0.674618 16.173861
v 3.445624 0.674618 16.173861
v 3.445624 0.584171 16.173861
v 3.445624 0.584171 16.173861
v 3.445624 0.674618 16.173861
v 3.445624 0.674616 -15.669470
v 3.445624 0.584169 -15.669470
v 3.226013 0.584169 -15.669470
v 3.226013 0.674616 -15.669470
v 3.226013 0.674618 16.173861
v 3.226013 0.584171 16.173861
v 3.445624 0.674616 -15.669470
v 3.445624 0.674618 16.173861
v 3.226013 0.674618 16.173861
v 3.226013 0.674616 -15.669470
v 3.226013 0.584169 -15.669470
v 3.226013 0.584171 16.173861
v 3.445624 0.584171 16.173861
v 3.445624 0.584169 -15.669470
vn -0.0000 -0.0000 -1.0000
vn -0.0000 -0.0000 1.0000
vn 1.0000 -0.0000 -0.0000
vn -1.0000 -0.0000 -0.0000
vn -0.0000 1.0000 -0.0000
vn -0.0000 -1.0000 -0.0000
vt 1.000000 1.000000
vt 0.000000 1.000000
vt 0.000000 0.000000
vt 1.000000 0.000000
s 1
g off
g Cubo_2_Material_1
usemtl Material_1
f 27/5/7 26/6/7 25/7/7
f 27/5/7 25/7/7 28/8/7
s 2
f 31/5/8 30/6/8 29/7/8
f 31/5/8 29/7/8 32/8/8
s 3
f 35/5/9 34/6/9 33/7/9
f 35/5/9 33/7/9 36/8/9
s 4
f 39/5/10 38/6/10 37/7/10
f 39/5/10 37/7/10 40/8/10
s 5
f 43/5/11 42/6/11 41/7/11
f 43/5/11 41/7/11 44/8/11
s 6
f 47/5/12 46/6/12 45/7/12
f 47/5/12 45/7/12 48/8/12
