# Blender 5.0.1
# www.blender.org
mtllib Tronco_arbol.mtl
g Cylinder_0_Cylinder_0
v -0.735840 0.731456 -0.949787
v -0.735840 3.328200 -0.977771
v -0.679151 3.328200 -0.972188
v -0.684611 0.731456 -0.944743
v -0.684611 0.731456 -0.944743
v -0.679151 3.328200 -0.972188
v -0.624641 3.328200 -0.955652
v -0.635349 0.731456 -0.929798
v -0.635349 0.731456 -0.929798
v -0.624641 3.328200 -0.955652
v -0.574402 3.328200 -0.928799
v -0.589949 0.731456 -0.905532
v -0.589949 0.731456 -0.905532
v -0.574402 3.328200 -0.928799
v -0.530368 3.328200 -0.892663
v -0.550156 0.731456 -0.872874
v -0.550156 0.731456 -0.872874
v -0.530368 3.328200 -0.892663
v -0.494231 3.328200 -0.848628
v -0.517498 0.731456 -0.833082
v -0.517498 0.731456 -0.833082
v -0.494231 3.328200 -0.848628
v -0.467379 3.328200 -0.798390
v -0.493232 0.731456 -0.787681
v -0.493232 0.731456 -0.787681
v -0.467379 3.328200 -0.798390
v -0.450842 3.328200 -0.743880
v -0.478287 0.731456 -0.738419
v -0.478287 0.731456 -0.738419
v -0.450842 3.328200 -0.743880
v -0.445260 3.328200 -0.687191
v -0.473243 0.731456 -0.687190
v -0.473243 0.731456 -0.687190
v -0.445260 3.328200 -0.687191
v -0.450842 3.328200 -0.630501
v -0.478287 0.731456 -0.635961
v -0.478287 0.731456 -0.635961
v -0.450842 3.328200 -0.630501
v -0.467379 3.328200 -0.575991
v -0.493232 0.731456 -0.586699
v -0.493232 0.731456 -0.586699
v -0.467379 3.328200 -0.575991
v -0.494231 3.328200 -0.525753
v -0.517498 0.731456 -0.541299
v -0.517498 0.731456 -0.541299
v -0.494231 3.328200 -0.525753
v -0.530368 3.328200 -0.481718
v -0.550156 0.731456 -0.501507
v -0.550156 0.731456 -0.501507
v -0.530368 3.328200 -0.481718
v -0.574402 3.328200 -0.445582
v -0.589949 0.731456 -0.468848
v -0.589949 0.731456 -0.468848
v -0.574402 3.328200 -0.445582
v -0.624641 3.328200 -0.418729
v -0.635349 0.731456 -0.444582
v -0.635349 0.731456 -0.444582
v -0.624641 3.328200 -0.418729
v -0.679151 3.328200 -0.402193
v -0.684611 0.731456 -0.429637
v -0.684611 0.731456 -0.429637
v -0.679151 3.328200 -0.402193
v -0.735840 3.328200 -0.396610
v -0.735840 0.731456 -0.424593
v -0.735840 0.731456 -0.424593
v -0.735840 3.328200 -0.396610
v -0.792529 3.328200 -0.402193
v -0.787069 0.731456 -0.429637
v -0.787069 0.731456 -0.429637
v -0.792529 3.328200 -0.402193
v -0.847039 3.328200 -0.418729
v -0.836331 0.731456 -0.444582
v -0.836331 0.731456 -0.444582
v -0.847039 3.328200 -0.418729
v -0.897278 3.328200 -0.445582
v -0.881732 0.731456 -0.468848
v -0.881732 0.731456 -0.468848
v -0.897278 3.328200 -0.445582
v -0.941312 3.328200 -0.481718
v -0.921526 0.731456 -0.501507
v -0.921526 0.731456 -0.501507
v -0.941312 3.328200 -0.481718
v -0.977449 3.328200 -0.525753
v -0.954182 0.731456 -0.541299
v -0.954182 0.731456 -0.541299
v -0.977449 3.328200 -0.525753
v -1.004301 3.328200 -0.575991
v -0.978448 0.731456 -0.586699
v -0.978448 0.731456 -0.586699
v -1.004301 3.328200 -0.575991
v -1.020838 3.328200 -0.630501
v -0.993393 0.731456 -0.635961
v -0.993393 0.731456 -0.635961
v -1.020838 3.328200 -0.630501
v -1.026420 3.328200 -0.687191
v -0.998437 0.731456 -0.687190
v -0.998437 0.731456 -0.687190
v -1.026420 3.328200 -0.687191
v -1.020838 3.328200 -0.743880
v -0.993393 0.731456 -0.738419
v -0.993393 0.731456 -0.738419
v -1.020838 3.328200 -0.743880
v -1.004301 3.328200 -0.798390
v -0.978448 0.731456 -0.787681
v -0.978448 0.731456 -0.787681
v -1.004301 3.328200 -0.798390
v -0.977449 3.328200 -0.848628
v -0.954182 0.731456 -0.833082
v -0.954182 0.731456 -0.833082
v -0.977449 3.328200 -0.848628
v -0.941312 3.328200 -0.892663
v -0.921524 0.731456 -0.872877
v -0.921524 0.731456 -0.872877
v -0.941312 3.328200 -0.892663
v -0.897278 3.328200 -0.928799
v -0.881732 0.731456 -0.905532
v -0.881732 0.731456 -0.905532
v -0.897278 3.328200 -0.928799
v -0.847039 3.328200 -0.955652
v -0.836331 0.731456 -0.929798
v -0.624641 3.328200 -0.955652
v -0.679151 3.328200 -0.972188
v -0.735840 3.328200 -0.977771
v -0.792529 3.328200 -0.972188
v -0.847039 3.328200 -0.955652
v -0.897278 3.328200 -0.928799
v -0.941312 3.328200 -0.892663
v -0.977449 3.328200 -0.848628
v -1.004301 3.328200 -0.798390
v -1.020838 3.328200 -0.743880
v -1.026420 3.328200 -0.687191
v -1.020838 3.328200 -0.630501
v -1.004301 3.328200 -0.575991
v -0.977449 3.328200 -0.525753
v -0.941312 3.328200 -0.481718
v -0.897278 3.328200 -0.445582
v -0.847039 3.328200 -0.418729
v -0.792529 3.328200 -0.402193
v -0.735840 3.328200 -0.396610
v -0.679151 3.328200 -0.402193
v -0.624641 3.328200 -0.418729
v -0.574402 3.328200 -0.445582
v -0.530368 3.328200 -0.481718
v -0.494231 3.328200 -0.525753
v -0.467379 3.328200 -0.575991
v -0.450842 3.328200 -0.630501
v -0.445260 3.328200 -0.687191
v -0.450842 3.328200 -0.743880
v -0.467379 3.328200 -0.798390
v -0.494231 3.328200 -0.848628
v -0.530368 3.328200 -0.892663
v -0.574402 3.328200 -0.928799
v -0.787069 0.731456 -0.944743
v -0.792529 3.328200 -0.972188
v -0.735840 3.328200 -0.977771
v -0.735840 0.731456 -0.949787
v -0.836331 0.731456 -0.929798
v -0.847039 3.328200 -0.955652
v -0.792529 3.328200 -0.972188
v -0.787069 0.731456 -0.944743
v -0.792529 -2.465000 -0.972188
v -0.735840 -2.465000 -0.977770
v -0.679151 -2.465000 -0.972188
v -0.624641 -2.465000 -0.955651
v -0.574402 -2.465000 -0.928798
v -0.530368 -2.465000 -0.892662
v -0.494231 -2.465000 -0.848627
v -0.467379 -2.465000 -0.798389
v -0.450842 -2.465000 -0.743879
v -0.445260 -2.465000 -0.687190
v -0.450842 -2.465000 -0.630500
v -0.467379 -2.465000 -0.575991
v -0.494231 -2.465000 -0.525752
v -0.530368 -2.465000 -0.481718
v -0.574402 -2.465000 -0.445581
v -0.624641 -2.465000 -0.418729
v -0.679151 -2.465000 -0.402192
v -0.735840 -2.465000 -0.396610
v -0.792529 -2.465000 -0.402192
v -0.847039 -2.465000 -0.418729
v -0.897278 -2.465000 -0.445581
v -0.941312 -2.465000 -0.481718
v -0.977449 -2.465000 -0.525752
v -1.004301 -2.465000 -0.575991
v -1.020838 -2.465000 -0.630500
v -1.026420 -2.465000 -0.687190
v -1.020838 -2.465000 -0.743879
v -1.004301 -2.465000 -0.798389
v -0.977449 -2.465000 -0.848627
v -0.941312 -2.465000 -0.892662
v -0.897278 -2.465000 -0.928798
v -0.847039 -2.465000 -0.955651
v -0.735840 -2.465000 -1.118666
v -0.651662 -2.465000 -1.110376
v -0.570721 -2.465000 -1.085822
v -0.496123 -2.465000 -1.045949
v -0.430740 -2.465000 -0.992290
v -0.377078 -2.465000 -0.926907
v -0.337208 -2.465000 -0.852309
v -0.312654 -2.465000 -0.771368
v -0.304364 -2.465000 -0.687190
v -0.312654 -2.465000 -0.603012
v -0.337208 -2.465000 -0.522071
v -0.377078 -2.465000 -0.447473
v -0.430740 -2.465000 -0.382089
v -0.496123 -2.465000 -0.328428
v -0.570721 -2.465000 -0.288557
v -0.651662 -2.465000 -0.264004
v -0.735840 -2.465000 -0.255713
v -0.820018 -2.465000 -0.264004
v -0.900959 -2.465000 -0.288557
v -0.975557 -2.465000 -0.328431
v -1.040940 -2.465000 -0.382089
v -1.094602 -2.465000 -0.447473
v -1.134472 -2.465000 -0.522071
v -1.159026 -2.465000 -0.603012
v -1.167316 -2.465000 -0.687190
v -1.159026 -2.465000 -0.771368
v -1.134472 -2.465000 -0.852309
v -1.094599 -2.465000 -0.926907
v -1.040940 -2.465000 -0.992290
v -0.975557 -2.465000 -1.045951
v -0.900959 -2.465000 -1.085822
v -0.820015 -2.465000 -1.110376
v -0.735840 -2.465000 -1.118666
v -0.735840 0.731456 -0.949787
v -0.684611 0.731456 -0.944743
v -0.651662 -2.465000 -1.110376
v -0.651662 -2.465000 -1.110376
v -0.684611 0.731456 -0.944743
v -0.635349 0.731456 -0.929798
v -0.570721 -2.465000 -1.085822
v -0.570721 -2.465000 -1.085822
v -0.635349 0.731456 -0.929798
v -0.589949 0.731456 -0.905532
v -0.496123 -2.465000 -1.045949
v -0.496123 -2.465000 -1.045949
v -0.589949 0.731456 -0.905532
v -0.550156 0.731456 -0.872874
v -0.430740 -2.465000 -0.992290
v -0.430740 -2.465000 -0.992290
v -0.550156 0.731456 -0.872874
v -0.517498 0.731456 -0.833082
v -0.377078 -2.465000 -0.926907
v -0.377078 -2.465000 -0.926907
v -0.517498 0.731456 -0.833082
v -0.493232 0.731456 -0.787681
v -0.337208 -2.465000 -0.852309
v -0.337208 -2.465000 -0.852309
v -0.493232 0.731456 -0.787681
v -0.478287 0.731456 -0.738419
v -0.312654 -2.465000 -0.771368
v -0.312654 -2.465000 -0.771368
v -0.478287 0.731456 -0.738419
v -0.473243 0.731456 -0.687190
v -0.304364 -2.465000 -0.687190
v -0.304364 -2.465000 -0.687190
v -0.473243 0.731456 -0.687190
v -0.478287 0.731456 -0.635961
v -0.312654 -2.465000 -0.603012
v -0.312654 -2.465000 -0.603012
v -0.478287 0.731456 -0.635961
v -0.493232 0.731456 -0.586699
v -0.337208 -2.465000 -0.522071
v -0.337208 -2.465000 -0.522071
v -0.493232 0.731456 -0.586699
v -0.517498 0.731456 -0.541299
v -0.377078 -2.465000 -0.447473
v -0.377078 -2.465000 -0.447473
v -0.517498 0.731456 -0.541299
v -0.550156 0.731456 -0.501507
v -0.430740 -2.465000 -0.382089
v -0.430740 -2.465000 -0.382089
v -0.550156 0.731456 -0.501507
v -0.589949 0.731456 -0.468848
v -0.496123 -2.465000 -0.328428
v -0.496123 -2.465000 -0.328428
v -0.589949 0.731456 -0.468848
v -0.635349 0.731456 -0.444582
v -0.570721 -2.465000 -0.288557
v -0.570721 -2.465000 -0.288557
v -0.635349 0.731456 -0.444582
v -0.684611 0.731456 -0.429637
v -0.651662 -2.465000 -0.264004
v -0.651662 -2.465000 -0.264004
v -0.684611 0.731456 -0.429637
v -0.735840 0.731456 -0.424593
v -0.735840 -2.465000 -0.255713
v -0.735840 -2.465000 -0.255713
v -0.735840 0.731456 -0.424593
v -0.787069 0.731456 -0.429637
v -0.820018 -2.465000 -0.264004
v -0.820018 -2.465000 -0.264004
v -0.787069 0.731456 -0.429637
v -0.836331 0.731456 -0.444582
v -0.900959 -2.465000 -0.288557
v -0.900959 -2.465000 -0.288557
v -0.836331 0.731456 -0.444582
v -0.881732 0.731456 -0.468848
v -0.975557 -2.465000 -0.328431
v -0.975557 -2.465000 -0.328431
v -0.881732 0.731456 -0.468848
v -0.921526 0.731456 -0.501507
v -1.040940 -2.465000 -0.382089
v -1.040940 -2.465000 -0.382089
v -0.921526 0.731456 -0.501507
v -0.954182 0.731456 -0.541299
v -1.094602 -2.465000 -0.447473
v -1.094602 -2.465000 -0.447473
v -0.954182 0.731456 -0.541299
v -0.978448 0.731456 -0.586699
v -1.134472 -2.465000 -0.522071
v -1.134472 -2.465000 -0.522071
v -0.978448 0.731456 -0.586699
v -0.993393 0.731456 -0.635961
v -1.159026 -2.465000 -0.603012
v -1.159026 -2.465000 -0.603012
v -0.993393 0.731456 -0.635961
v -0.998437 0.731456 -0.687190
v -1.167316 -2.465000 -0.687190
v -1.167316 -2.465000 -0.687190
v -0.998437 0.731456 -0.687190
v -0.993393 0.731456 -0.738419
v -1.159026 -2.465000 -0.771368
v -1.159026 -2.465000 -0.771368
v -0.993393 0.731456 -0.738419
v -0.978448 0.731456 -0.787681
v -1.134472 -2.465000 -0.852309
v -1.134472 -2.465000 -0.852309
v -0.978448 0.731456 -0.787681
v -0.954182 0.731456 -0.833082
v -1.094599 -2.465000 -0.926907
v -1.094599 -2.465000 -0.926907
v -0.954182 0.731456 -0.833082
v -0.921524 0.731456 -0.872877
v -1.040940 -2.465000 -0.992290
v -1.040940 -2.465000 -0.992290
v -0.921524 0.731456 -0.872877
v -0.881732 0.731456 -0.905532
v -0.975557 -2.465000 -1.045951
v -0.975557 -2.465000 -1.045951
v -0.881732 0.731456 -0.905532
v -0.836331 0.731456 -0.929798
v -0.900959 -2.465000 -1.085822
v -0.820015 -2.465000 -1.110376
v -0.787069 0.731456 -0.944743
v -0.735840 0.731456 -0.949787
v -0.735840 -2.465000 -1.118666
v -0.900959 -2.465000 -1.085822
v -0.836331 0.731456 -0.929798
v -0.787069 0.731456 -0.944743
v -0.820015 -2.465000 -1.110376
vn -0.0000 1.0000 -0.0000
vn -0.0000 -1.0000 -0.0000
vn 0.0980 -0.0107 -0.9951
vn 0.2903 -0.0107 -0.9569
vn 0.4714 -0.0107 -0.8819
vn 0.6343 -0.0107 -0.7730
vn 0.6344 -0.0107 -0.7729
vn 0.7730 -0.0107 -0.6343
vn 0.7729 -0.0107 -0.6344
vn 0.8819 -0.0107 -0.4714
vn 0.9569 -0.0107 -0.2903
vn 0.9951 -0.0107 -0.0980
vn 0.9951 -0.0107 0.0980
vn 0.9569 -0.0107 0.2903
vn 0.8819 -0.0107 0.4714
vn 0.7730 -0.0107 0.6343
vn 0.7729 -0.0107 0.6344
vn 0.6343 -0.0107 0.7730
vn 0.6344 -0.0107 0.7729
vn 0.4714 -0.0107 0.8819
vn 0.2903 -0.0107 0.9569
vn 0.0980 -0.0107 0.9951
vn -0.0980 -0.0107 0.9951
vn -0.2903 -0.0107 0.9569
vn -0.4714 -0.0107 0.8819
vn -0.6343 -0.0107 0.7730
vn -0.7730 -0.0107 0.6343
vn -0.8819 -0.0107 0.4714
vn -0.9569 -0.0107 0.2903
vn -0.9951 -0.0107 0.0980
vn -0.9951 -0.0107 -0.0980
vn -0.9569 -0.0107 -0.2903
vn -0.8819 -0.0107 -0.4714
vn -0.7730 -0.0107 -0.6343
vn -0.7730 -0.0107 -0.6344
vn -0.6343 -0.0107 -0.7730
vn -0.4714 -0.0107 -0.8819
vn -0.0980 -0.0107 -0.9951
vn -0.2903 -0.0107 -0.9569
vn 0.0979 0.0525 -0.9938
vn 0.2899 0.0525 -0.9556
vn 0.4707 0.0525 -0.8807
vn 0.6335 0.0525 -0.7719
vn 0.7719 0.0525 -0.6335
vn 0.8807 0.0525 -0.4707
vn 0.9556 0.0525 -0.2899
vn 0.9938 0.0525 -0.0979
vn 0.9938 0.0525 0.0979
vn 0.9556 0.0525 0.2899
vn 0.8807 0.0525 0.4707
vn 0.7719 0.0525 0.6335
vn 0.6335 0.0525 0.7719
vn 0.4707 0.0525 0.8807
vn 0.2899 0.0525 0.9556
vn 0.0979 0.0525 0.9938
vn -0.0979 0.0525 0.9938
vn -0.2899 0.0525 0.9556
vn -0.4707 0.0525 0.8807
vn -0.6335 0.0525 0.7719
vn -0.7720 0.0525 0.6335
vn -0.7719 0.0525 0.6335
vn -0.8807 0.0525 0.4707
vn -0.9556 0.0525 0.2899
vn -0.9938 0.0525 0.0979
vn -0.9938 0.0525 -0.0979
vn -0.9556 0.0525 -0.2899
vn -0.8807 0.0525 -0.4707
vn -0.7719 0.0525 -0.6335
vn -0.6335 0.0525 -0.7720
vn -0.6335 0.0525 -0.7719
vn -0.4707 0.0525 -0.8807
vn -0.0979 0.0525 -0.9938
vn -0.2899 0.0525 -0.9556
s 0
g off
g Cylinder_0_Material.004
usemtl Material.004
f 121//1 122//1 123//1
f 123//1 124//1 125//1
f 125//1 126//1 127//1
f 127//1 128//1 129//1
f 129//1 130//1 131//1
f 131//1 132//1 133//1
f 133//1 134//1 135//1
f 135//1 136//1 137//1
f 137//1 138//1 139//1
f 139//1 140//1 141//1
f 141//1 142//1 143//1
f 143//1 144//1 145//1
f 145//1 146//1 147//1
f 147//1 148//1 149//1
f 149//1 150//1 151//1
f 151//1 152//1 121//1
f 121//1 123//1 125//1
f 125//1 127//1 129//1
f 129//1 131//1 133//1
f 133//1 135//1 137//1
f 137//1 139//1 141//1
f 141//1 143//1 145//1
f 145//1 147//1 149//1
f 149//1 151//1 121//1
f 121//1 125//1 129//1
f 129//1 133//1 137//1
f 137//1 141//1 145//1
f 145//1 149//1 121//1
f 121//1 129//1 137//1
f 137//1 145//1 121//1
f 161//2 162//2 163//2
f 163//2 164//2 165//2
f 165//2 166//2 167//2
f 167//2 168//2 169//2
f 169//2 170//2 171//2
f 171//2 172//2 173//2
f 173//2 174//2 175//2
f 175//2 176//2 177//2
f 177//2 178//2 179//2
f 179//2 180//2 181//2
f 181//2 182//2 183//2
f 183//2 184//2 185//2
f 185//2 186//2 187//2
f 187//2 188//2 189//2
f 189//2 190//2 191//2
f 191//2 192//2 161//2
f 161//2 163//2 165//2
f 165//2 167//2 169//2
f 169//2 171//2 173//2
f 173//2 175//2 177//2
f 177//2 179//2 181//2
f 181//2 183//2 185//2
f 185//2 187//2 189//2
f 189//2 191//2 161//2
f 161//2 165//2 169//2
f 169//2 173//2 177//2
f 177//2 181//2 185//2
f 185//2 189//2 161//2
f 161//2 169//2 177//2
f 177//2 185//2 161//2
f 1//3 2//3 3//3
f 1//3 3//3 4//3
f 5//4 6//4 7//4
f 5//4 7//4 8//4
f 9//5 10//5 11//5
f 9//5 11//5 12//5
f 13//6 14//6 15//6
f 13//7 15//7 16//7
f 17//8 18//8 19//8
f 17//9 19//9 20//9
f 21//10 22//10 23//10
f 21//10 23//10 24//10
f 25//11 26//11 27//11
f 25//11 27//11 28//11
f 29//12 30//12 31//12
f 29//12 31//12 32//12
f 33//13 34//13 35//13
f 33//13 35//13 36//13
f 37//14 38//14 39//14
f 37//14 39//14 40//14
f 41//15 42//15 43//15
f 41//15 43//15 44//15
f 45//16 46//16 47//16
f 45//17 47//17 48//17
f 49//18 50//18 51//18
f 49//19 51//19 52//19
f 53//20 54//20 55//20
f 53//20 55//20 56//20
f 57//21 58//21 59//21
f 57//21 59//21 60//21
f 61//22 62//22 63//22
f 61//22 63//22 64//22
f 65//23 66//23 67//23
f 65//23 67//23 68//23
f 69//24 70//24 71//24
f 69//24 71//24 72//24
f 73//25 74//25 75//25
f 73//25 75//25 76//25
f 77//26 78//26 79//26
f 77//26 79//26 80//26
f 81//27 82//27 83//27
f 81//27 83//27 84//27
f 85//28 86//28 87//28
f 85//28 87//28 88//28
f 89//29 90//29 91//29
f 89//29 91//29 92//29
f 93//30 94//30 95//30
f 93//30 95//30 96//30
f 97//31 98//31 99//31
f 97//31 99//31 100//31
f 101//32 102//32 103//32
f 101//32 103//32 104//32
f 105//33 106//33 107//33
f 105//33 107//33 108//33
f 109//34 110//34 111//34
f 109//35 111//35 112//35
f 113//36 114//36 115//36
f 113//36 115//36 116//36
f 117//37 118//37 119//37
f 117//37 119//37 120//37
f 153//38 154//38 155//38
f 153//38 155//38 156//38
f 157//39 158//39 159//39
f 157//39 159//39 160//39
f 162//2 193//2 194//2
f 162//2 194//2 163//2
f 163//2 194//2 195//2
f 163//2 195//2 164//2
f 164//2 195//2 196//2
f 164//2 196//2 165//2
f 165//2 196//2 197//2
f 165//2 197//2 166//2
f 166//2 197//2 198//2
f 166//2 198//2 167//2
f 167//2 198//2 199//2
f 167//2 199//2 168//2
f 168//2 199//2 200//2
f 168//2 200//2 169//2
f 169//2 200//2 201//2
f 169//2 201//2 170//2
f 170//2 201//2 202//2
f 170//2 202//2 171//2
f 171//2 202//2 203//2
f 171//2 203//2 172//2
f 172//2 203//2 204//2
f 172//2 204//2 173//2
f 173//2 204//2 205//2
f 173//2 205//2 174//2
f 174//2 205//2 206//2
f 174//2 206//2 175//2
f 175//2 206//2 207//2
f 175//2 207//2 176//2
f 176//2 207//2 208//2
f 176//2 208//2 177//2
f 177//2 208//2 209//2
f 177//2 209//2 178//2
f 178//2 209//2 210//2
f 178//2 210//2 179//2
f 179//2 210//2 211//2
f 179//2 211//2 180//2
f 180//2 211//2 212//2
f 180//2 212//2 181//2
f 181//2 212//2 213//2
f 181//2 213//2 182//2
f 182//2 213//2 214//2
f 182//2 214//2 183//2
f 183//2 214//2 215//2
f 183//2 215//2 184//2
f 184//2 215//2 216//2
f 184//2 216//2 185//2
f 185//2 216//2 217//2
f 185//2 217//2 186//2
f 186//2 217//2 218//2
f 186//2 218//2 187//2
f 187//2 218//2 219//2
f 187//2 219//2 188//2
f 188//2 219//2 220//2
f 188//2 220//2 189//2
f 189//2 220//2 221//2
f 189//2 221//2 190//2
f 190//2 221//2 222//2
f 190//2 222//2 191//2
f 191//2 222//2 223//2
f 191//2 223//2 192//2
f 193//2 162//2 161//2
f 193//2 161//2 224//2
f 192//2 223//2 224//2
f 192//2 224//2 161//2
f 225//40 226//40 227//40
f 225//40 227//40 228//40
f 229//41 230//41 231//41
f 229//41 231//41 232//41
f 233//42 234//42 235//42
f 233//42 235//42 236//42
f 237//43 238//43 239//43
f 237//43 239//43 240//43
f 241//44 242//44 243//44
f 241//44 243//44 244//44
f 245//45 246//45 247//45
f 245//45 247//45 248//45
f 249//46 250//46 251//46
f 249//46 251//46 252//46
f 253//47 254//47 255//47
f 253//47 255//47 256//47
f 257//48 258//48 259//48
f 257//48 259//48 260//48
f 261//49 262//49 263//49
f 261//49 263//49 264//49
f 265//50 266//50 267//50
f 265//50 267//50 268//50
f 269//51 270//51 271//51
f 269//51 271//51 272//51
f 273//52 274//52 275//52
f 273//52 275//52 276//52
f 277//53 278//53 279//53
f 277//53 279//53 280//53
f 281//54 282//54 283//54
f 281//54 283//54 284//54
f 285//55 286//55 287//55
f 285//55 287//55 288//55
f 289//56 290//56 291//56
f 289//56 291//56 292//56
f 293//57 294//57 295//57
f 293//57 295//57 296//57
f 297//58 298//58 299//58
f 297//58 299//58 300//58
f 301//59 302//59 303//59
f 301//59 303//59 304//59
f 305//60 306//60 307//60
f 305//61 307//61 308//61
f 309//62 310//62 311//62
f 309//62 311//62 312//62
f 313//63 314//63 315//63
f 313//63 315//63 316//63
f 317//64 318//64 319//64
f 317//64 319//64 320//64
f 321//65 322//65 323//65
f 321//65 323//65 324//65
f 325//66 326//66 327//66
f 325//66 327//66 328//66
f 329//67 330//67 331//67
f 329//67 331//67 332//67
f 333//68 334//68 335//68
f 333//68 335//68 336//68
f 337//69 338//69 339//69
f 337//70 339//70 340//70
f 341//71 342//71 343//71
f 341//71 343//71 344//71
f 345//72 346//72 347//72
f 345//72 347//72 348//72
f 349//73 350//73 351//73
f 349//73 351//73 352//73
g Cylinder.001_0_Cylinder.001_0
v 0.257853 1.817880 -0.902724
v 0.996118 2.558223 -0.972880
v 1.035257 2.514429 -0.967097
v 0.287872 1.784291 -0.898287
v 0.287872 1.784291 -0.898287
v 1.035257 2.514429 -0.967097
v 1.072891 2.472318 -0.949964
v 0.316737 1.751992 -0.885145
v 0.316737 1.751992 -0.885145
v 1.072891 2.472318 -0.949964
v 1.107576 2.433508 -0.922143
v 0.343339 1.722226 -0.863809
v 0.343339 1.722226 -0.863809
v 1.107576 2.433508 -0.922143
v 1.137978 2.399490 -0.884703
v 0.366655 1.696137 -0.835094
v 0.366655 1.696137 -0.835094
v 1.137978 2.399490 -0.884703
v 1.162927 2.371574 -0.839080
v 0.385790 1.674726 -0.800102
v 0.385790 1.674726 -0.800102
v 1.162927 2.371574 -0.839080
v 1.181466 2.350830 -0.787030
v 0.400010 1.658815 -0.760181
v 0.400010 1.658815 -0.760181
v 1.181466 2.350830 -0.787030
v 1.192883 2.338054 -0.730554
v 0.408765 1.649019 -0.716868
v 0.408765 1.649019 -0.716868
v 1.192883 2.338054 -0.730554
v 1.196737 2.333742 -0.671820
v 0.411722 1.645710 -0.671820
v 0.411722 1.645710 -0.671820
v 1.196737 2.333742 -0.671820
v 1.192883 2.338054 -0.613087
v 0.408765 1.649019 -0.626773
v 0.408765 1.649019 -0.626773
v 1.192883 2.338054 -0.613087
v 1.181466 2.350830 -0.556611
v 0.400010 1.658815 -0.583459
v 0.400010 1.658815 -0.583459
v 1.181466 2.350830 -0.556611
v 1.162927 2.371574 -0.504560
v 0.385790 1.674726 -0.543539
v 0.385790 1.674726 -0.543539
v 1.162927 2.371574 -0.504560
v 1.137978 2.399490 -0.458938
v 0.366655 1.696137 -0.508546
v 0.366655 1.696137 -0.508546
v 1.137978 2.399490 -0.458938
v 1.107576 2.433508 -0.421498
v 0.343339 1.722226 -0.479831
v 0.343339 1.722226 -0.479831
v 1.107576 2.433508 -0.421498
v 1.072891 2.472319 -0.393677
v 0.316737 1.751992 -0.458495
v 0.316737 1.751992 -0.458495
v 1.072891 2.472319 -0.393677
v 1.035257 2.514429 -0.376544
v 0.287872 1.784291 -0.445354
v 0.287872 1.784291 -0.445354
v 1.035257 2.514429 -0.376544
v 0.996118 2.558223 -0.370760
v 0.257853 1.817880 -0.440919
v 0.257853 1.817880 -0.440919
v 0.996118 2.558223 -0.370760
v 0.956979 2.602017 -0.376544
v 0.227837 1.851466 -0.445354
v 0.227837 1.851466 -0.445354
v 0.956979 2.602017 -0.376544
v 0.919345 2.644127 -0.393677
v 0.198972 1.883765 -0.458495
v 0.198972 1.883765 -0.458495
v 0.919345 2.644127 -0.393677
v 0.884660 2.682938 -0.421498
v 0.172369 1.913531 -0.479831
v 0.172369 1.913531 -0.479831
v 0.884660 2.682938 -0.421498
v 0.854258 2.716955 -0.458938
v 0.149053 1.939620 -0.508546
v 0.149053 1.939620 -0.508546
v 0.854258 2.716955 -0.458938
v 0.829309 2.744872 -0.504560
v 0.129918 1.961031 -0.543539
v 0.129918 1.961031 -0.543539
v 0.829309 2.744872 -0.504560
v 0.810770 2.765616 -0.556611
v 0.115699 1.976942 -0.583459
v 0.115699 1.976942 -0.583459
v 0.810770 2.765616 -0.556611
v 0.799352 2.778391 -0.613087
v 0.106943 1.986738 -0.626773
v 0.106943 1.986738 -0.626773
v 0.799352 2.778391 -0.613087
v 0.795498 2.782703 -0.671820
v 0.103986 1.990047 -0.671820
v 0.103986 1.990047 -0.671820
v 0.795498 2.782703 -0.671820
v 0.799352 2.778391 -0.730554
v 0.106943 1.986738 -0.716868
v 0.106943 1.986738 -0.716868
v 0.799352 2.778391 -0.730554
v 0.810770 2.765616 -0.787030
v 0.115699 1.976942 -0.760184
v 0.115699 1.976942 -0.760184
v 0.810770 2.765616 -0.787030
v 0.829309 2.744872 -0.839080
v 0.129918 1.961031 -0.800102
v 0.129918 1.961031 -0.800102
v 0.829309 2.744872 -0.839080
v 0.854258 2.716955 -0.884703
v 0.149053 1.939620 -0.835094
v 0.149053 1.939620 -0.835094
v 0.854258 2.716955 -0.884703
v 0.884660 2.682937 -0.922143
v 0.172369 1.913531 -0.863809
v 0.172369 1.913531 -0.863809
v 0.884660 2.682937 -0.922143
v 0.919345 2.644127 -0.949964
v 0.198972 1.883765 -0.885145
v 1.072891 2.472318 -0.949964
v 1.035257 2.514429 -0.967097
v 0.996118 2.558223 -0.972880
v 0.956979 2.602017 -0.967097
v 0.919345 2.644127 -0.949964
v 0.884660 2.682937 -0.922143
v 0.854258 2.716955 -0.884703
v 0.829309 2.744872 -0.839080
v 0.810770 2.765616 -0.787030
v 0.799352 2.778391 -0.730554
v 0.795498 2.782703 -0.671820
v 0.799352 2.778391 -0.613087
v 0.810770 2.765616 -0.556611
v 0.829309 2.744872 -0.504560
v 0.854258 2.716955 -0.458938
v 0.884660 2.682938 -0.421498
v 0.919345 2.644127 -0.393677
v 0.956979 2.602017 -0.376544
v 0.996118 2.558223 -0.370760
v 1.035257 2.514429 -0.376544
v 1.072891 2.472319 -0.393677
v 1.107576 2.433508 -0.421498
v 1.137978 2.399490 -0.458938
v 1.162927 2.371574 -0.504560
v 1.181466 2.350830 -0.556611
v 1.192883 2.338054 -0.613087
v 1.196737 2.333742 -0.671820
v 1.192883 2.338054 -0.730554
v 1.181466 2.350830 -0.787030
v 1.162927 2.371574 -0.839080
v 1.137978 2.399490 -0.884703
v 1.107576 2.433508 -0.922143
v 0.227837 1.851466 -0.898287
v 0.956979 2.602017 -0.967097
v 0.996118 2.558223 -0.972880
v 0.257853 1.817880 -0.902724
v 0.198972 1.883765 -0.885145
v 0.919345 2.644127 -0.949964
v 0.956979 2.602017 -0.967097
v 0.227837 1.851466 -0.898287
v -0.699817 1.121331 -0.967097
v -0.660678 1.077538 -0.972880
v -0.621539 1.033744 -0.967097
v -0.583905 0.991633 -0.949963
v -0.549220 0.952823 -0.922143
v -0.518818 0.918805 -0.884703
v -0.493869 0.890889 -0.839080
v -0.475330 0.870144 -0.787030
v -0.463912 0.857369 -0.730554
v -0.460058 0.853057 -0.671820
v -0.463912 0.857369 -0.613086
v -0.475330 0.870144 -0.556611
v -0.493869 0.890889 -0.504560
v -0.518818 0.918805 -0.458938
v -0.549220 0.952823 -0.421498
v -0.583905 0.991633 -0.393677
v -0.621539 1.033744 -0.376543
v -0.660678 1.077538 -0.370760
v -0.699817 1.121331 -0.376544
v -0.737451 1.163442 -0.393677
v -0.772136 1.202252 -0.421498
v -0.802538 1.236270 -0.458938
v -0.827487 1.264186 -0.504560
v -0.846026 1.284931 -0.556611
v -0.857443 1.297706 -0.613086
v -0.861297 1.302018 -0.671820
v -0.857443 1.297706 -0.730554
v -0.846026 1.284931 -0.787030
v -0.827487 1.264186 -0.839080
v -0.802538 1.236270 -0.884703
v -0.772136 1.202252 -0.922143
v -0.737451 1.163442 -0.949964
v -0.305944 1.301587 -0.951649
v 0.257853 1.817880 -0.902724
v 0.287872 1.784291 -0.898287
v -0.269566 1.260882 -0.946272
v -0.269566 1.260882 -0.946272
v 0.287872 1.784291 -0.898287
v 0.316737 1.751992 -0.885145
v -0.234586 1.221741 -0.930346
v -0.234586 1.221741 -0.930346
v 0.316737 1.751992 -0.885145
v 0.343339 1.722226 -0.863809
v -0.202347 1.185667 -0.904488
v -0.202347 1.185667 -0.904488
v 0.343339 1.722226 -0.863809
v 0.366655 1.696137 -0.835094
v -0.174089 1.154049 -0.869689
v -0.174089 1.154049 -0.869689
v 0.366655 1.696137 -0.835094
v 0.385790 1.674726 -0.800102
v -0.150900 1.128102 -0.827285
v -0.150900 1.128102 -0.827285
v 0.385790 1.674726 -0.800102
v 0.400010 1.658815 -0.760181
v -0.133669 1.108821 -0.778907
v -0.133669 1.108821 -0.778907
v 0.400010 1.658815 -0.760181
v 0.408765 1.649019 -0.716868
v -0.123058 1.096948 -0.726411
v -0.123058 1.096948 -0.726411
v 0.408765 1.649019 -0.716868
v 0.411722 1.645710 -0.671820
v -0.119475 1.092939 -0.671820
v -0.119475 1.092939 -0.671820
v 0.411722 1.645710 -0.671820
v 0.408765 1.649019 -0.626773
v -0.123058 1.096948 -0.617229
v -0.123058 1.096948 -0.617229
v 0.408765 1.649019 -0.626773
v 0.400010 1.658815 -0.583459
v -0.133669 1.108821 -0.564736
v -0.133669 1.108821 -0.564736
v 0.400010 1.658815 -0.583459
v 0.385790 1.674726 -0.543539
v -0.150900 1.128102 -0.516356
v -0.150900 1.128102 -0.516356
v 0.385790 1.674726 -0.543539
v 0.366655 1.696137 -0.508546
v -0.174089 1.154049 -0.473952
v -0.174089 1.154049 -0.473952
v 0.366655 1.696137 -0.508546
v 0.343339 1.722226 -0.479831
v -0.202347 1.185668 -0.439152
v -0.202347 1.185668 -0.439152
v 0.343339 1.722226 -0.479831
v 0.316737 1.751992 -0.458495
v -0.234586 1.221741 -0.413294
v -0.234586 1.221741 -0.413294
v 0.316737 1.751992 -0.458495
v 0.287872 1.784291 -0.445354
v -0.269566 1.260882 -0.397368
v -0.269566 1.260882 -0.397368
v 0.287872 1.784291 -0.445354
v 0.257853 1.817880 -0.440919
v -0.305944 1.301587 -0.391991
v -0.305944 1.301587 -0.391991
v 0.257853 1.817880 -0.440919
v 0.227837 1.851466 -0.445354
v -0.342325 1.342294 -0.397368
v -0.342325 1.342294 -0.397368
v 0.227837 1.851466 -0.445354
v 0.198972 1.883765 -0.458495
v -0.377305 1.381435 -0.413294
v -0.377305 1.381435 -0.413294
v 0.198972 1.883765 -0.458495
v 0.172369 1.913531 -0.479831
v -0.409542 1.417507 -0.439152
v -0.409542 1.417507 -0.439152
v 0.172369 1.913531 -0.479831
v 0.149053 1.939620 -0.508546
v -0.437799 1.449125 -0.473952
v -0.437799 1.449125 -0.473952
v 0.149053 1.939620 -0.508546
v 0.129918 1.961031 -0.543539
v -0.460991 1.475075 -0.516356
v -0.460991 1.475075 -0.516356
v 0.129918 1.961031 -0.543539
v 0.115699 1.976942 -0.583459
v -0.478222 1.494355 -0.564736
v -0.478222 1.494355 -0.564736
v 0.115699 1.976942 -0.583459
v 0.106943 1.986738 -0.626773
v -0.488833 1.506228 -0.617229
v -0.488833 1.506228 -0.617229
v 0.106943 1.986738 -0.626773
v 0.103986 1.990047 -0.671820
v -0.492416 1.510237 -0.671820
v -0.492416 1.510237 -0.671820
v 0.103986 1.990047 -0.671820
v 0.106943 1.986738 -0.716868
v -0.488833 1.506228 -0.726411
v -0.488833 1.506228 -0.726411
v 0.106943 1.986738 -0.716868
v 0.115699 1.976942 -0.760184
v -0.478222 1.494355 -0.778907
v -0.478222 1.494355 -0.778907
v 0.115699 1.976942 -0.760184
v 0.129918 1.961031 -0.800102
v -0.460989 1.475072 -0.827285
v -0.460989 1.475072 -0.827285
v 0.129918 1.961031 -0.800102
v 0.149053 1.939620 -0.835094
v -0.437799 1.449125 -0.869689
v -0.437799 1.449125 -0.869689
v 0.149053 1.939620 -0.835094
v 0.172369 1.913531 -0.863809
v -0.409542 1.417506 -0.904488
v -0.409542 1.417506 -0.904488
v 0.172369 1.913531 -0.863809
v 0.198972 1.883765 -0.885145
v -0.377305 1.381435 -0.930346
v -0.342323 1.342292 -0.946273
v 0.227837 1.851466 -0.898287
v 0.257853 1.817880 -0.902724
v -0.305944 1.301587 -0.951649
v -0.377305 1.381435 -0.930346
v 0.198972 1.883765 -0.885145
v 0.227837 1.851466 -0.898287
v -0.342323 1.342292 -0.946273
v -0.802538 1.236270 -0.884703
v -0.437799 1.449125 -0.869689
v -0.409542 1.417506 -0.904488
v -0.772136 1.202252 -0.922143
v -0.305944 1.301587 -0.951649
v -0.660678 1.077538 -0.972880
v -0.699817 1.121331 -0.967097
v -0.342323 1.342292 -0.946273
v -0.463912 0.857369 -0.613086
v -0.123058 1.096948 -0.617229
v -0.133669 1.108821 -0.564736
v -0.475330 0.870144 -0.556611
v -0.737451 1.163442 -0.393677
v -0.377305 1.381435 -0.413294
v -0.409542 1.417507 -0.439152
v -0.772136 1.202252 -0.421498
v -0.460058 0.853057 -0.671820
v -0.119475 1.092939 -0.671820
v -0.123058 1.096948 -0.617229
v -0.463912 0.857369 -0.613086
v -0.857443 1.297706 -0.613086
v -0.488833 1.506228 -0.617229
v -0.492416 1.510237 -0.671820
v -0.861297 1.302018 -0.671820
v -0.549220 0.952823 -0.421498
v -0.202347 1.185668 -0.439152
v -0.234586 1.221741 -0.413294
v -0.583905 0.991633 -0.393677
v -0.549220 0.952823 -0.922143
v -0.202347 1.185667 -0.904488
v -0.174089 1.154049 -0.869689
v -0.518818 0.918805 -0.884703
v -0.846026 1.284931 -0.556611
v -0.478222 1.494355 -0.564736
v -0.488833 1.506228 -0.617229
v -0.857443 1.297706 -0.613086
v -0.518818 0.918805 -0.458938
v -0.174089 1.154049 -0.473952
v -0.202347 1.185668 -0.439152
v -0.549220 0.952823 -0.421498
v -0.583905 0.991633 -0.949963
v -0.234586 1.221741 -0.930346
v -0.202347 1.185667 -0.904488
v -0.549220 0.952823 -0.922143
v -0.827487 1.264186 -0.839080
v -0.460989 1.475072 -0.827285
v -0.437799 1.449125 -0.869689
v -0.802538 1.236270 -0.884703
v -0.699817 1.121331 -0.376544
v -0.342325 1.342294 -0.397368
v -0.377305 1.381435 -0.413294
v -0.737451 1.163442 -0.393677
v -0.463912 0.857369 -0.730554
v -0.123058 1.096948 -0.726411
v -0.119475 1.092939 -0.671820
v -0.460058 0.853057 -0.671820
v -0.846026 1.284931 -0.787030
v -0.478222 1.494355 -0.778907
v -0.460989 1.475072 -0.827285
v -0.827487 1.264186 -0.839080
v -0.660678 1.077538 -0.370760
v -0.305944 1.301587 -0.391991
v -0.342325 1.342294 -0.397368
v -0.699817 1.121331 -0.376544
v -0.475330 0.870144 -0.787030
v -0.133669 1.108821 -0.778907
v -0.123058 1.096948 -0.726411
v -0.463912 0.857369 -0.730554
v -0.827487 1.264186 -0.504560
v -0.460991 1.475075 -0.516356
v -0.478222 1.494355 -0.564736
v -0.846026 1.284931 -0.556611
v -0.493869 0.890889 -0.504560
v -0.150900 1.128102 -0.516356
v -0.174089 1.154049 -0.473952
v -0.518818 0.918805 -0.458938
v -0.737451 1.163442 -0.949964
v -0.377305 1.381435 -0.930346
v -0.342323 1.342292 -0.946273
v -0.699817 1.121331 -0.967097
v -0.621539 1.033744 -0.967097
v -0.269566 1.260882 -0.946272
v -0.234586 1.221741 -0.930346
v -0.583905 0.991633 -0.949963
v -0.802538 1.236270 -0.458938
v -0.437799 1.449125 -0.473952
v -0.460991 1.475075 -0.516356
v -0.827487 1.264186 -0.504560
v -0.475330 0.870144 -0.556611
v -0.133669 1.108821 -0.564736
v -0.150900 1.128102 -0.516356
v -0.493869 0.890889 -0.504560
v -0.660678 1.077538 -0.972880
v -0.305944 1.301587 -0.951649
v -0.269566 1.260882 -0.946272
v -0.621539 1.033744 -0.967097
v -0.857443 1.297706 -0.730554
v -0.488833 1.506228 -0.726411
v -0.478222 1.494355 -0.778907
v -0.846026 1.284931 -0.787030
v -0.621539 1.033744 -0.376543
v -0.269566 1.260882 -0.397368
v -0.305944 1.301587 -0.391991
v -0.660678 1.077538 -0.370760
v -0.493869 0.890889 -0.839080
v -0.150900 1.128102 -0.827285
v -0.133669 1.108821 -0.778907
v -0.475330 0.870144 -0.787030
v -0.861297 1.302018 -0.671820
v -0.492416 1.510237 -0.671820
v -0.488833 1.506228 -0.726411
v -0.857443 1.297706 -0.730554
v -0.583905 0.991633 -0.393677
v -0.234586 1.221741 -0.413294
v -0.269566 1.260882 -0.397368
v -0.621539 1.033744 -0.376543
v -0.518818 0.918805 -0.884703
v -0.174089 1.154049 -0.869689
v -0.150900 1.128102 -0.827285
v -0.493869 0.890889 -0.839080
v -0.772136 1.202252 -0.421498
v -0.409542 1.417507 -0.439152
v -0.437799 1.449125 -0.473952
v -0.802538 1.236270 -0.458938
v -0.772136 1.202252 -0.922143
v -0.409542 1.417506 -0.904488
v -0.377305 1.381435 -0.930346
v -0.737451 1.163442 -0.949964
vn 0.7456 0.6664 -0.0000
vn -0.7456 -0.6664 -0.0000
vn 0.0196 -0.1137 -0.9933
vn 0.1558 -0.2496 -0.9557
vn 0.2842 -0.3777 -0.8812
vn 0.3999 -0.4930 -0.7727
vn 0.4983 -0.5912 -0.6342
vn 0.5756 -0.6683 -0.4713
vn 0.5756 -0.6682 -0.4714
vn 0.6288 -0.7213 -0.2903
vn 0.6288 -0.7214 -0.2903
vn 0.6560 -0.7484 -0.0980
vn 0.6560 -0.7484 0.0980
vn 0.6559 -0.7484 0.0980
vn 0.6288 -0.7213 0.2903
vn 0.5756 -0.6683 0.4713
vn 0.5756 -0.6682 0.4714
vn 0.4983 -0.5912 0.6342
vn 0.3999 -0.4930 0.7727
vn 0.2842 -0.3777 0.8812
vn 0.1558 -0.2496 0.9557
vn 0.0196 -0.1137 0.9933
vn -0.1191 0.0247 0.9926
vn -0.2549 0.1602 0.9536
vn -0.3825 0.2876 0.8781
vn -0.3825 0.2875 0.8781
vn -0.4972 0.4020 0.7689
vn -0.5945 0.4991 0.6305
vn -0.6708 0.5752 0.4682
vn -0.7232 0.6276 0.2882
vn -0.7233 0.6276 0.2881
vn -0.7500 0.6543 0.0972
vn -0.7500 0.6543 0.0973
vn -0.7500 0.6543 -0.0972
vn -0.7500 0.6543 -0.0973
vn -0.7232 0.6276 -0.2882
vn -0.7233 0.6276 -0.2881
vn -0.6708 0.5752 -0.4682
vn -0.5945 0.4991 -0.6305
vn -0.4972 0.4020 -0.7689
vn -0.3825 0.2876 -0.8781
vn -0.3825 0.2875 -0.8781
vn -0.1191 0.0247 -0.9926
vn -0.2549 0.1602 -0.9536
vn 0.1135 -0.0298 -0.9931
vn 0.2430 -0.1713 -0.9548
vn 0.3650 -0.3045 -0.8798
vn 0.4748 -0.4244 -0.7711
vn 0.4747 -0.4244 -0.7711
vn 0.5681 -0.5263 -0.6327
vn 0.6414 -0.6063 -0.4701
vn 0.6919 -0.6615 -0.2895
vn 0.6919 -0.6615 -0.2894
vn 0.7176 -0.6896 -0.0978
vn 0.7176 -0.6896 -0.0977
vn 0.7176 -0.6896 0.0978
vn 0.7176 -0.6896 0.0977
vn 0.6919 -0.6615 0.2895
vn 0.6414 -0.6063 0.4701
vn 0.5681 -0.5263 0.6327
vn 0.4748 -0.4244 0.7711
vn 0.4747 -0.4244 0.7711
vn 0.3650 -0.3045 0.8798
vn 0.2430 -0.1713 0.9548
vn 0.1134 -0.0297 0.9931
vn 0.1135 -0.0298 0.9931
vn -0.0186 0.1145 0.9933
vn -0.0187 0.1145 0.9932
vn -0.1483 0.2561 0.9552
vn -0.2704 0.3894 0.8805
vn -0.2704 0.3895 0.8804
vn -0.3804 0.5095 0.7718
vn -0.4739 0.6117 0.6334
vn -0.4739 0.6117 0.6335
vn -0.5474 0.6919 0.4708
vn -0.5474 0.6919 0.4707
vn -0.5980 0.7472 0.2899
vn -0.6238 0.7754 0.0979
vn -0.6238 0.7754 -0.0979
vn -0.5980 0.7472 -0.2899
vn -0.5474 0.6919 -0.4708
vn -0.4739 0.6117 -0.6334
vn -0.4739 0.6117 -0.6335
vn -0.3804 0.5095 -0.7718
vn -0.2704 0.3894 -0.8805
vn -0.2704 0.3895 -0.8804
vn -0.0187 0.1145 -0.9932
vn -0.1483 0.2561 -0.9552
vn -0.3017 0.5708 -0.7636
vn -0.0150 0.1178 -0.9929
vn 0.5529 -0.7817 0.2886
vn -0.2153 0.4345 0.8746
vn 0.5731 -0.8137 0.0974
vn 0.5731 -0.8137 0.0973
vn -0.4893 0.8668 0.0958
vn -0.4893 0.8668 0.0957
vn 0.2932 -0.3699 0.8816
vn 0.3810 -0.5090 -0.7718
vn 0.3810 -0.5090 -0.7719
vn -0.4697 0.8359 0.2840
vn 0.3810 -0.5090 0.7718
vn 0.3810 -0.5090 0.7719
vn 0.2932 -0.3699 -0.8816
vn -0.3744 0.6856 -0.6243
vn -0.1185 0.2815 0.9522
vn 0.5731 -0.8137 -0.0974
vn 0.5731 -0.8137 -0.0973
vn -0.4310 0.7749 -0.4624
vn -0.4310 0.7749 -0.4623
vn -0.0150 0.1178 0.9929
vn -0.0149 0.1178 0.9929
vn 0.5529 -0.7817 -0.2885
vn 0.5529 -0.7817 -0.2886
vn -0.4310 0.7749 0.4623
vn 0.4552 -0.6267 0.6324
vn -0.1185 0.2815 -0.9522
vn 0.1953 -0.2149 -0.9569
vn 0.1953 -0.2148 -0.9569
vn -0.3744 0.6856 0.6243
vn 0.5132 -0.7187 0.4692
vn 0.0911 -0.0500 -0.9946
vn 0.0911 -0.0499 -0.9946
vn -0.4697 0.8359 -0.2840
vn 0.0911 -0.0500 0.9946
vn 0.5132 -0.7187 -0.4692
vn -0.4893 0.8668 -0.0958
vn 0.1953 -0.2149 0.9569
vn 0.1953 -0.2148 0.9569
vn 0.4552 -0.6267 -0.6324
vn -0.3017 0.5708 0.7636
vn -0.2153 0.4345 -0.8746
s 0
g off
g Cylinder.001_0_Material.001
usemtl Material.001
f 473//74 474//74 475//74
f 475//74 476//74 477//74
f 477//74 478//74 479//74
f 479//74 480//74 481//74
f 481//74 482//74 483//74
f 483//74 484//74 485//74
f 485//74 486//74 487//74
f 487//74 488//74 489//74
f 489//74 490//74 491//74
f 491//74 492//74 493//74
f 493//74 494//74 495//74
f 495//74 496//74 497//74
f 497//74 498//74 499//74
f 499//74 500//74 501//74
f 501//74 502//74 503//74
f 503//74 504//74 473//74
f 473//74 475//74 477//74
f 477//74 479//74 481//74
f 481//74 483//74 485//74
f 485//74 487//74 489//74
f 489//74 491//74 493//74
f 493//74 495//74 497//74
f 497//74 499//74 501//74
f 501//74 503//74 473//74
f 473//74 477//74 481//74
f 481//74 485//74 489//74
f 489//74 493//74 497//74
f 497//74 501//74 473//74
f 473//74 481//74 489//74
f 489//74 497//74 473//74
f 513//75 514//75 515//75
f 515//75 516//75 517//75
f 517//75 518//75 519//75
f 519//75 520//75 521//75
f 521//75 522//75 523//75
f 523//75 524//75 525//75
f 525//75 526//75 527//75
f 527//75 528//75 529//75
f 529//75 530//75 531//75
f 531//75 532//75 533//75
f 533//75 534//75 535//75
f 535//75 536//75 537//75
f 537//75 538//75 539//75
f 539//75 540//75 541//75
f 541//75 542//75 543//75
f 543//75 544//75 513//75
f 513//75 515//75 517//75
f 517//75 519//75 521//75
f 521//75 523//75 525//75
f 525//75 527//75 529//75
f 529//75 531//75 533//75
f 533//75 535//75 537//75
f 537//75 539//75 541//75
f 541//75 543//75 513//75
f 513//75 517//75 521//75
f 521//75 525//75 529//75
f 529//75 533//75 537//75
f 537//75 541//75 513//75
f 513//75 521//75 529//75
f 529//75 537//75 513//75
f 353//76 354//76 355//76
f 353//76 355//76 356//76
f 357//77 358//77 359//77
f 357//77 359//77 360//77
f 361//78 362//78 363//78
f 361//78 363//78 364//78
f 365//79 366//79 367//79
f 365//79 367//79 368//79
f 369//80 370//80 371//80
f 369//80 371//80 372//80
f 373//81 374//81 375//81
f 373//82 375//82 376//82
f 377//83 378//83 379//83
f 377//84 379//84 380//84
f 381//85 382//85 383//85
f 381//85 383//85 384//85
f 385//86 386//86 387//86
f 385//87 387//87 388//87
f 389//88 390//88 391//88
f 389//88 391//88 392//88
f 393//89 394//89 395//89
f 393//90 395//90 396//90
f 397//91 398//91 399//91
f 397//91 399//91 400//91
f 401//92 402//92 403//92
f 401//92 403//92 404//92
f 405//93 406//93 407//93
f 405//93 407//93 408//93
f 409//94 410//94 411//94
f 409//94 411//94 412//94
f 413//95 414//95 415//95
f 413//95 415//95 416//95
f 417//96 418//96 419//96
f 417//96 419//96 420//96
f 421//97 422//97 423//97
f 421//97 423//97 424//97
f 425//98 426//98 427//98
f 425//99 427//99 428//99
f 429//100 430//100 431//100
f 429//100 431//100 432//100
f 433//101 434//101 435//101
f 433//101 435//101 436//101
s 1
f 437//102 438//102 439//102
s 0
f 437//102 439//102 440//102
f 441//103 442//103 443//103
f 441//104 443//104 444//104
f 445//105 446//105 447//105
f 445//106 447//106 448//106
f 449//107 450//107 451//107
f 449//108 451//108 452//108
f 453//109 454//109 455//109
f 453//110 455//110 456//110
f 457//111 458//111 459//111
f 457//111 459//111 460//111
f 461//112 462//112 463//112
f 461//112 463//112 464//112
f 465//113 466//113 467//113
f 465//113 467//113 468//113
f 469//114 470//114 471//114
f 469//115 471//115 472//115
f 505//116 506//116 507//116
f 505//116 507//116 508//116
f 509//117 510//117 511//117
f 509//117 511//117 512//117
f 545//118 546//118 547//118
f 545//118 547//118 548//118
f 549//119 550//119 551//119
f 549//119 551//119 552//119
f 553//120 554//120 555//120
f 553//120 555//120 556//120
f 557//121 558//121 559//121
f 557//122 559//122 560//122
f 561//123 562//123 563//123
f 561//123 563//123 564//123
f 565//124 566//124 567//124
f 565//124 567//124 568//124
f 569//125 570//125 571//125
f 569//126 571//126 572//126
f 573//127 574//127 575//127
f 573//128 575//128 576//128
f 577//129 578//129 579//129
f 577//130 579//130 580//130
f 581//131 582//131 583//131
f 581//131 583//131 584//131
f 585//132 586//132 587//132
f 585//132 587//132 588//132
f 589//133 590//133 591//133
f 589//133 591//133 592//133
f 593//134 594//134 595//134
f 593//135 595//135 596//135
f 597//136 598//136 599//136
f 597//136 599//136 600//136
f 601//137 602//137 603//137
f 601//137 603//137 604//137
f 605//138 606//138 607//138
f 605//139 607//139 608//139
f 609//140 610//140 611//140
f 609//141 611//141 612//141
f 613//142 614//142 615//142
f 613//142 615//142 616//142
f 617//143 618//143 619//143
f 617//144 619//144 620//144
f 621//145 622//145 623//145
f 621//145 623//145 624//145
f 625//146 626//146 627//146
f 625//147 627//147 628//147
f 629//148 630//148 631//148
f 629//149 631//149 632//149
f 633//150 634//150 635//150
f 633//150 635//150 636//150
f 637//151 638//151 639//151
f 637//151 639//151 640//151
f 641//152 642//152 643//152
f 641//152 643//152 644//152
f 645//153 646//153 647//153
f 645//153 647//153 648//153
f 649//154 650//154 651//154
f 649//154 651//154 652//154
s 1
f 653//155 654//155 655//155
s 0
f 653//156 655//156 656//156
f 657//157 658//157 659//157
f 657//157 659//157 660//157
f 661//158 662//158 663//158
s 1
f 661//159 663//159 664//159
s 0
f 665//160 666//160 667//160
f 665//160 667//160 668//160
f 669//161 670//161 671//161
f 669//161 671//161 672//161
f 673//162 674//162 675//162
f 673//162 675//162 676//162
f 677//163 678//163 679//163
f 677//163 679//163 680//163
f 681//164 682//164 683//164
f 681//164 683//164 684//164
f 685//165 686//165 687//165
f 685//165 687//165 688//165
f 689//166 690//166 691//166
f 689//167 691//167 692//167
f 693//168 694//168 695//168
f 693//169 695//169 696//169
f 697//170 698//170 699//170
f 697//170 699//170 700//170
f 701//171 702//171 703//171
f 701//172 703//172 704//172
f 705//173 706//173 707//173
f 705//173 707//173 708//173
f 709//174 710//174 711//174
f 709//175 711//175 712//175
f 713//176 714//176 715//176
f 713//176 715//176 716//176
f 717//177 718//177 719//177
f 717//177 719//177 720//177
f 721//178 722//178 723//178
f 721//178 723//178 724//178
f 725//179 726//179 727//179
s 1
f 725//180 727//180 728//180
s 0
f 729//181 730//181 731//181
f 729//182 731//182 732//182
f 733//183 734//183 735//183
f 733//184 735//184 736//184
f 737//185 738//185 739//185
f 737//186 739//186 740//186
f 741//187 742//187 743//187
f 741//187 743//187 744//187
f 745//188 746//188 747//188
s 1
f 745//188 747//188 748//188
s 0
f 749//189 750//189 751//189
f 749//189 751//189 752//189
f 753//190 754//190 755//190
s 1
f 753//191 755//191 756//191
s 0
f 757//192 758//192 759//192
f 757//192 759//192 760//192
f 761//193 762//193 763//193
f 761//193 763//193 764//193
f 765//194 766//194 767//194
f 765//195 767//195 768//195
f 769//196 770//196 771//196
f 769//196 771//196 772//196
f 773//197 774//197 775//197
f 773//197 775//197 776//197
f 777//198 778//198 779//198
f 777//198 779//198 780//198
f 781//199 782//199 783//199
f 781//199 783//199 784//199
f 785//200 786//200 787//200
f 785//201 787//201 788//201
f 789//202 790//202 791//202
f 789//202 791//202 792//202
f 793//203 794//203 795//203
f 793//203 795//203 796//203
f 797//204 798//204 799//204
f 797//204 799//204 800//204
