# Blender 5.0.1
# www.blender.org
mtllib Uniones_vias.mtl
g Pirámide_17_Mesh
v -1.353858 0.278867 15.957191
v -0.854358 0.580691 15.741382
v -0.853358 0.580691 15.741382
v -0.353858 0.278867 15.957191
vn -0.0000 0.4469 0.8946
vt 1.000000 0.000000
vt 0.000000 0.000000
vt 0.000000 -1.000000
vt 1.000000 -1.000000
s 1
g off
g Pirámide_17_Material.006
usemtl Material.006
f 3/1/1 2/2/1 1/3/1
f 3/1/1 1/3/1 4/4/1
g Pirámide_17.001_Mesh
v -0.353858 0.278867 15.525142
v -0.854358 0.580691 15.740952
v -0.853358 0.580691 15.740952
v -1.353858 0.278867 15.525142
vn -0.0000 0.4470 -0.8946
vn -0.0000 0.4469 -0.8946
vt 1.000000 0.000000
vt 0.000000 -1.000000
vt 1.000000 -1.000000
vt 0.000000 0.000000
s 1
g off
g Pirámide_17.001_Material.006
usemtl Material.006
f 6/5/2 5/6/3 8/7/3
f 6/5/2 7/8/2 5/6/3
g Pirámide_17.002_Mesh
v -0.353858 0.278867 15.957191
v -0.853358 0.580691 15.740952
v -0.853358 0.580691 15.741382
v -0.353858 0.278867 15.525142
vn 0.8946 0.4469 -0.0000
vn 0.8946 0.4468 -0.0000
vn 0.8946 0.4469 0.0001
vt 1.000000 0.000000
vt 0.000000 -1.000000
vt 1.000000 -1.000000
vt 0.000000 0.000000
s 1
g off
g Pirámide_17.002_Material.006
usemtl Material.006
f 10/9/4 9/10/5 12/11/5
f 10/9/4 11/12/6 9/10/5
g Pirámide_17.003_Mesh
v -1.353858 0.278867 15.525142
v -0.854358 0.580691 15.741382
v -0.854358 0.580691 15.740952
v -1.353858 0.278867 15.957191
vn -0.8946 0.4469 -0.0000
vn -0.8946 0.4468 -0.0000
vn -0.8946 0.4468 -0.0001
vt 1.000000 0.000000
vt 0.000000 -1.000000
vt 1.000000 -1.000000
vt 0.000000 0.000000
s 1
g off
g Pirámide_17.003_Material.006
usemtl Material.006
f 14/13/7 13/14/8 16/15/7
f 14/13/7 15/16/9 13/14/8
