# Blender 5.0.1
# www.blender.org
mtllib Vias.mtl
o Cubo
v -0.810121 0.433741 -15.361188
v -0.810121 0.639251 -15.361188
v -0.934163 0.639251 -15.361188
v -0.934163 0.433741 -15.361188
v -0.934163 0.433746 16.278881
v -0.934163 0.639256 16.278881
v -0.810121 0.639256 16.278881
v -0.810121 0.433746 16.278881
v -0.810121 0.433746 16.278881
v -0.810121 0.639256 16.278881
v -0.810121 0.639251 -15.361188
v -0.810121 0.433741 -15.361188
v -0.934163 0.433741 -15.361188
v -0.934163 0.639251 -15.361188
v -0.934163 0.639256 16.278881
v -0.934163 0.433746 16.278881
v -0.810121 0.639251 -15.361188
v -0.810121 0.639256 16.278881
v -0.934163 0.639256 16.278881
v -0.934163 0.639251 -15.361188
v -0.934163 0.433741 -15.361188
v -0.934163 0.433746 16.278881
v -0.810121 0.433746 16.278881
v -0.810121 0.433741 -15.361188
vn -0.0000 -0.0000 -1.0000
vn -0.0000 -0.0000 1.0000
vn 1.0000 -0.0000 -0.0000
vn -1.0000 -0.0000 -0.0000
vn -0.0000 1.0000 -0.0000
vn -0.0000 -1.0000 -0.0000
vt 1.000000 1.000000
vt 0.000000 1.000000
vt 0.000000 0.000000
vt 1.000000 0.000000
s 1
usemtl Material.002
f 3/1/1 2/2/1 1/3/1
f 3/1/1 1/3/1 4/4/1
f 7/1/2 6/2/2 5/3/2
f 7/1/2 5/3/2 8/4/2
f 11/1/3 10/2/3 9/3/3
f 11/1/3 9/3/3 12/4/3
f 15/1/4 14/2/4 13/3/4
f 15/1/4 13/3/4 16/4/4
f 19/1/5 18/2/5 17/3/5
f 19/1/5 17/3/5 20/4/5
f 23/1/6 22/2/6 21/3/6
f 23/1/6 21/3/6 24/4/6
o Cubo_1
v -0.745048 0.338585 -15.462368
v -0.745048 0.443583 -15.462368
v -0.964659 0.443583 -15.462368
v -0.964659 0.338585 -15.462368
v -0.964659 0.338589 16.380062
v -0.964659 0.443587 16.380062
v -0.745048 0.443587 16.380062
v -0.745048 0.338589 16.380062
v -0.745048 0.338589 16.380062
v -0.745048 0.443587 16.380062
v -0.745048 0.443583 -15.462368
v -0.745048 0.338585 -15.462368
v -0.964659 0.338585 -15.462368
v -0.964659 0.443583 -15.462368
v -0.964659 0.443587 16.380062
v -0.964659 0.338589 16.380062
v -0.745048 0.443583 -15.462368
v -0.745048 0.443587 16.380062
v -0.964659 0.443587 16.380062
v -0.964659 0.443583 -15.462368
v -0.964659 0.338585 -15.462368
v -0.964659 0.338589 16.380062
v -0.745048 0.338589 16.380062
v -0.745048 0.338585 -15.462368
vn -0.0000 -0.0000 -1.0000
vn -0.0000 -0.0000 1.0000
vn 1.0000 -0.0000 -0.0000
vn -1.0000 -0.0000 -0.0000
vn -0.0000 1.0000 -0.0000
vn -0.0000 -1.0000 -0.0000
vt 1.000000 1.000000
vt 0.000000 1.000000
vt 0.000000 0.000000
vt 1.000000 0.000000
s 1
usemtl Material_1
f 27/5/7 26/6/7 25/7/7
f 27/5/7 25/7/7 28/8/7
f 31/5/8 30/6/8 29/7/8
f 31/5/8 29/7/8 32/8/8
f 35/5/9 34/6/9 33/7/9
f 35/5/9 33/7/9 36/8/9
f 39/5/10 38/6/10 37/7/10
f 39/5/10 37/7/10 40/8/10
f 43/5/11 42/6/11 41/7/11
f 43/5/11 41/7/11 44/8/11
f 47/5/12 46/6/12 45/7/12
f 47/5/12 45/7/12 48/8/12
o Cubo_1_1
v -0.745048 0.584162 -15.462818
v -0.745048 0.674609 -15.462818
v -0.964659 0.674609 -15.462818
v -0.964659 0.584162 -15.462818
v -0.964659 0.584166 16.380512
v -0.964659 0.674613 16.380512
v -0.745048 0.674613 16.380512
v -0.745048 0.584166 16.380512
v -0.745048 0.584166 16.380512
v -0.745048 0.674613 16.380512
v -0.745048 0.674609 -15.462818
v -0.745048 0.584162 -15.462818
v -0.964659 0.584162 -15.462818
v -0.964659 0.674609 -15.462818
v -0.964659 0.674613 16.380512
v -0.964659 0.584166 16.380512
v -0.745048 0.674609 -15.462818
v -0.745048 0.674613 16.380512
v -0.964659 0.674613 16.380512
v -0.964659 0.674609 -15.462818
v -0.964659 0.584162 -15.462818
v -0.964659 0.584166 16.380512
v -0.745048 0.584166 16.380512
v -0.745048 0.584162 -15.462818
vn -0.0000 -0.0000 -1.0000
vn -0.0000 -0.0000 1.0000
vn 1.0000 -0.0000 -0.0000
vn -1.0000 -0.0000 -0.0000
vn -0.0000 1.0000 -0.0000
vn -0.0000 -1.0000 -0.0000
vt 1.000000 1.000000
vt 0.000000 1.000000
vt 0.000000 0.000000
vt 1.000000 0.000000
s 1
usemtl base2
f 51/9/13 50/10/13 49/11/13
f 51/9/13 49/11/13 52/12/13
f 55/9/14 54/10/14 53/11/14
f 55/9/14 53/11/14 56/12/14
f 59/9/15 58/10/15 57/11/15
f 59/9/15 57/11/15 60/12/15
f 63/9/16 62/10/16 61/11/16
f 63/9/16 61/11/16 64/12/16
f 67/9/17 66/10/17 65/11/17
f 67/9/17 65/11/17 68/12/17
f 71/9/18 70/10/18 69/11/18
f 71/9/18 69/11/18 72/12/18
o Cubo_2
v 0.947442 0.584162 -15.462818
v 0.947442 0.674609 -15.462818
v 0.727831 0.674609 -15.462818
v 0.727831 0.584162 -15.462818
v 0.727831 0.584167 16.380512
v 0.727831 0.674613 16.380512
v 0.947442 0.674613 16.380512
v 0.947442 0.584167 16.380512
v 0.947442 0.584167 16.380512
v 0.947442 0.674613 16.380512
v 0.947442 0.674609 -15.462818
v 0.947442 0.584162 -15.462818
v 0.727831 0.584162 -15.462818
v 0.727831 0.674609 -15.462818
v 0.727831 0.674613 16.380512
v 0.727831 0.584167 16.380512
v 0.947442 0.674609 -15.462818
v 0.947442 0.674613 16.380512
v 0.727831 0.674613 16.380512
v 0.727831 0.674609 -15.462818
v 0.727831 0.584162 -15.462818
v 0.727831 0.584167 16.380512
v 0.947442 0.584167 16.380512
v 0.947442 0.584162 -15.462818
vn -0.0000 -0.0000 -1.0000
vn -0.0000 -0.0000 1.0000
vn 1.0000 -0.0000 -0.0000
vn -1.0000 -0.0000 -0.0000
vn -0.0000 1.0000 -0.0000
vn -0.0000 -1.0000 -0.0000
vt 1.000000 1.000000
vt 0.000000 1.000000
vt 0.000000 0.000000
vt 1.000000 0.000000
s 1
usemtl base2
f 75/13/19 74/14/19 73/15/19
f 75/13/19 73/15/19 76/16/19
f 79/13/20 78/14/20 77/15/20
f 79/13/20 77/15/20 80/16/20
f 83/13/21 82/14/21 81/15/21
f 83/13/21 81/15/21 84/16/21
f 87/13/22 86/14/22 85/15/22
f 87/13/22 85/15/22 88/16/22
f 91/13/23 90/14/23 89/15/23
f 91/13/23 89/15/23 92/16/23
f 95/13/24 94/14/24 93/15/24
f 95/13/24 93/15/24 96/16/24
o Cubo_3
v 0.947442 0.338585 -15.462368
v 0.947442 0.443583 -15.462368
v 0.727831 0.443583 -15.462368
v 0.727831 0.338585 -15.462368
v 0.727831 0.338590 16.380062
v 0.727831 0.443587 16.380062
v 0.947442 0.443587 16.380062
v 0.947442 0.338590 16.380062
v 0.947442 0.338590 16.380062
v 0.947442 0.443587 16.380062
v 0.947442 0.443583 -15.462368
v 0.947442 0.338585 -15.462368
v 0.727831 0.338585 -15.462368
v 0.727831 0.443583 -15.462368
v 0.727831 0.443587 16.380062
v 0.727831 0.338590 16.380062
v 0.947442 0.443583 -15.462368
v 0.947442 0.443587 16.380062
v 0.727831 0.443587 16.380062
v 0.727831 0.443583 -15.462368
v 0.727831 0.338585 -15.462368
v 0.727831 0.338590 16.380062
v 0.947442 0.338590 16.380062
v 0.947442 0.338585 -15.462368
vn -0.0000 -0.0000 -1.0000
vn -0.0000 -0.0000 1.0000
vn 1.0000 -0.0000 -0.0000
vn -1.0000 -0.0000 -0.0000
vn -0.0000 1.0000 -0.0000
vn -0.0000 -1.0000 -0.0000
vt 1.000000 1.000000
vt 0.000000 1.000000
vt 0.000000 0.000000
vt 1.000000 0.000000
s 1
usemtl Material_1
f 99/17/25 98/18/25 97/19/25
f 99/17/25 97/19/25 100/20/25
f 103/17/26 102/18/26 101/19/26
f 103/17/26 101/19/26 104/20/26
f 107/17/27 106/18/27 105/19/27
f 107/17/27 105/19/27 108/20/27
f 111/17/28 110/18/28 109/19/28
f 111/17/28 109/19/28 112/20/28
f 115/17/29 114/18/29 113/19/29
f 115/17/29 113/19/29 116/20/29
f 119/17/30 118/18/30 117/19/30
f 119/17/30 117/19/30 120/20/30
o Cubo_4
v 0.882369 0.433741 -15.361188
v 0.882369 0.639251 -15.361188
v 0.758327 0.639251 -15.361188
v 0.758327 0.433741 -15.361188
v 0.758327 0.433746 16.278881
v 0.758327 0.639256 16.278881
v 0.882369 0.639256 16.278881
v 0.882369 0.433746 16.278881
v 0.882369 0.433746 16.278881
v 0.882369 0.639256 16.278881
v 0.882369 0.639251 -15.361188
v 0.882369 0.433741 -15.361188
v 0.758327 0.433741 -15.361188
v 0.758327 0.639251 -15.361188
v 0.758327 0.639256 16.278881
v 0.758327 0.433746 16.278881
v 0.882369 0.639251 -15.361188
v 0.882369 0.639256 16.278881
v 0.758327 0.639256 16.278881
v 0.758327 0.639251 -15.361188
v 0.758327 0.433741 -15.361188
v 0.758327 0.433746 16.278881
v 0.882369 0.433746 16.278881
v 0.882369 0.433741 -15.361188
vn -0.0000 -0.0000 -1.0000
vn -0.0000 -0.0000 1.0000
vn 1.0000 -0.0000 -0.0000
vn -1.0000 -0.0000 -0.0000
vn -0.0000 1.0000 -0.0000
vn -0.0000 -1.0000 -0.0000
vt 1.000000 1.000000
vt 0.000000 1.000000
vt 0.000000 0.000000
vt 1.000000 0.000000
s 1
usemtl Material.002
f 123/21/31 122/22/31 121/23/31
f 123/21/31 121/23/31 124/24/31
f 127/21/32 126/22/32 125/23/32
f 127/21/32 125/23/32 128/24/32
f 131/21/33 130/22/33 129/23/33
f 131/21/33 129/23/33 132/24/33
f 135/21/34 134/22/34 133/23/34
f 135/21/34 133/23/34 136/24/34
f 139/21/35 138/22/35 137/23/35
f 139/21/35 137/23/35 140/24/35
f 143/21/36 142/22/36 141/23/36
f 143/21/36 141/23/36 144/24/36
o default
v 1.468924 -0.029801 -0.585747
v 1.468924 0.320078 -0.585747
v -1.498287 0.320078 -0.585747
v -1.498287 -0.029801 -0.585747
v 1.468924 -0.029801 -0.585747
v -1.498287 0.320078 -0.585747
v -1.498287 -0.029801 0.096314
v -1.498287 0.320078 0.096314
v 1.468924 0.320078 0.096314
v 1.468924 -0.029801 0.096314
v -1.498287 -0.029801 0.096314
v 1.468924 0.320078 0.096314
v 1.468924 -0.029801 0.096314
v 1.468924 0.320078 0.096314
v 1.468924 0.320078 -0.585747
v 1.468924 -0.029801 -0.585747
v 1.468924 -0.029801 0.096314
v 1.468924 0.320078 -0.585747
v -1.498287 -0.029801 -0.585747
v -1.498287 0.320078 -0.585747
v -1.498287 0.320078 0.096314
v -1.498287 -0.029801 0.096314
v -1.498287 -0.029801 -0.585747
v -1.498287 0.320078 0.096314
v 1.468924 0.320078 -0.585747
v 1.468924 0.320078 0.096314
v -1.498287 0.320078 0.096314
v -1.498287 0.320078 -0.585747
v 1.468924 0.320078 -0.585747
v -1.498287 0.320078 0.096314
v -1.498287 -0.029801 -0.585747
v -1.498287 -0.029801 0.096314
v 1.468924 -0.029801 0.096314
v 1.468924 -0.029801 -0.585747
v -1.498287 -0.029801 -0.585747
v 1.468924 -0.029801 0.096314
v 1.468924 -0.029801 3.335453
v 1.468924 0.320078 3.335453
v -1.498287 0.320078 3.335453
v -1.498287 -0.029801 3.335453
v 1.468924 -0.029801 3.335453
v -1.498287 0.320078 3.335453
v -1.498287 -0.029801 4.017513
v -1.498287 0.320078 4.017513
v 1.468924 0.320078 4.017513
v 1.468924 -0.029801 4.017513
v -1.498287 -0.029801 4.017513
v 1.468924 0.320078 4.017513
v 1.468924 -0.029801 4.017513
v 1.468924 0.320078 4.017513
v 1.468924 0.320078 3.335453
v 1.468924 -0.029801 3.335453
v 1.468924 -0.029801 4.017513
v 1.468924 0.320078 3.335453
v -1.498287 -0.029801 3.335453
v -1.498287 0.320078 3.335453
v -1.498287 0.320078 4.017513
v -1.498287 -0.029801 4.017513
v -1.498287 -0.029801 3.335453
v -1.498287 0.320078 4.017513
v 1.468924 0.320078 3.335453
v 1.468924 0.320078 4.017513
v -1.498287 0.320078 4.017513
v -1.498287 0.320078 3.335453
v 1.468924 0.320078 3.335453
v -1.498287 0.320078 4.017513
v -1.498287 -0.029801 3.335453
v -1.498287 -0.029801 4.017513
v 1.468924 -0.029801 4.017513
v 1.468924 -0.029801 3.335453
v -1.498287 -0.029801 3.335453
v 1.468924 -0.029801 4.017513
v 1.468924 -0.029801 1.363065
v 1.468924 0.320078 1.363065
v -1.498287 0.320078 1.363064
v -1.498287 -0.029801 1.363064
v 1.468924 -0.029801 1.363065
v -1.498287 0.320078 1.363064
v -1.498287 -0.029801 2.045126
v -1.498287 0.320078 2.045126
v 1.468924 0.320078 2.045126
v 1.468924 -0.029801 2.045126
v -1.498287 -0.029801 2.045126
v 1.468924 0.320078 2.045126
v 1.468924 -0.029801 2.045126
v 1.468924 0.320078 2.045126
v 1.468924 0.320078 1.363065
v 1.468924 -0.029801 1.363065
v 1.468924 -0.029801 2.045126
v 1.468924 0.320078 1.363065
v -1.498287 -0.029801 1.363064
v -1.498287 0.320078 1.363064
v -1.498287 0.320078 2.045126
v -1.498287 -0.029801 2.045126
v -1.498287 -0.029801 1.363064
v -1.498287 0.320078 2.045126
v 1.468924 0.320078 1.363065
v 1.468924 0.320078 2.045126
v -1.498287 0.320078 2.045126
v -1.498287 0.320078 1.363064
v 1.468924 0.320078 1.363065
v -1.498287 0.320078 2.045126
v -1.498287 -0.029801 1.363064
v -1.498287 -0.029801 2.045126
v 1.468924 -0.029801 2.045126
v 1.468924 -0.029801 1.363065
v -1.498287 -0.029801 1.363064
v 1.468924 -0.029801 2.045126
v 1.468924 -0.029801 5.345822
v 1.468924 0.320078 5.345822
v -1.498287 0.320078 5.345822
v -1.498287 -0.029801 5.345822
v 1.468924 -0.029801 5.345822
v -1.498287 0.320078 5.345822
v -1.498287 -0.029801 6.027881
v -1.498287 0.320078 6.027881
v 1.468924 0.320078 6.027882
v 1.468924 -0.029801 6.027882
v -1.498287 -0.029801 6.027881
v 1.468924 0.320078 6.027882
v 1.468924 -0.029801 6.027882
v 1.468924 0.320078 6.027882
v 1.468924 0.320078 5.345822
v 1.468924 -0.029801 5.345822
v 1.468924 -0.029801 6.027882
v 1.468924 0.320078 5.345822
v -1.498287 -0.029801 5.345822
v -1.498287 0.320078 5.345822
v -1.498287 0.320078 6.027881
v -1.498287 -0.029801 6.027881
v -1.498287 -0.029801 5.345822
v -1.498287 0.320078 6.027881
v 1.468924 0.320078 5.345822
v 1.468924 0.320078 6.027882
v -1.498287 0.320078 6.027881
v -1.498287 0.320078 5.345822
v 1.468924 0.320078 5.345822
v -1.498287 0.320078 6.027881
v -1.498287 -0.029801 5.345822
v -1.498287 -0.029801 6.027881
v 1.468924 -0.029801 6.027882
v 1.468924 -0.029801 5.345822
v -1.498287 -0.029801 5.345822
v 1.468924 -0.029801 6.027882
v 1.468923 -0.029800 7.348851
v 1.468923 0.320079 7.348851
v -1.498287 0.320079 7.348851
v -1.498287 -0.029800 7.348851
v 1.468923 -0.029800 7.348851
v -1.498287 0.320079 7.348851
v -1.498287 -0.029800 8.030910
v -1.498287 0.320079 8.030910
v 1.468923 0.320079 8.030910
v 1.468923 -0.029800 8.030910
v -1.498287 -0.029800 8.030910
v 1.468923 0.320079 8.030910
v 1.468923 -0.029800 8.030910
v 1.468923 0.320079 8.030910
v 1.468923 0.320079 7.348851
v 1.468923 -0.029800 7.348851
v 1.468923 -0.029800 8.030910
v 1.468923 0.320079 7.348851
v -1.498287 -0.029800 7.348851
v -1.498287 0.320079 7.348851
v -1.498287 0.320079 8.030910
v -1.498287 -0.029800 8.030910
v -1.498287 -0.029800 7.348851
v -1.498287 0.320079 8.030910
v 1.468923 0.320079 7.348851
v 1.468923 0.320079 8.030910
v -1.498287 0.320079 8.030910
v -1.498287 0.320079 7.348851
v 1.468923 0.320079 7.348851
v -1.498287 0.320079 8.030910
v -1.498287 -0.029800 7.348851
v -1.498287 -0.029800 8.030910
v 1.468923 -0.029800 8.030910
v 1.468923 -0.029800 7.348851
v -1.498287 -0.029800 7.348851
v 1.468923 -0.029800 8.030910
v 1.468923 -0.029800 9.368556
v 1.468923 0.320079 9.368556
v -1.498288 0.320079 9.368556
v -1.498288 -0.029800 9.368556
v 1.468923 -0.029800 9.368556
v -1.498288 0.320079 9.368556
v -1.498288 -0.029800 10.050616
v -1.498288 0.320079 10.050616
v 1.468923 0.320079 10.050616
v 1.468923 -0.029800 10.050616
v -1.498288 -0.029800 10.050616
v 1.468923 0.320079 10.050616
v 1.468923 -0.029800 10.050616
v 1.468923 0.320079 10.050616
v 1.468923 0.320079 9.368556
v 1.468923 -0.029800 9.368556
v 1.468923 -0.029800 10.050616
v 1.468923 0.320079 9.368556
v -1.498288 -0.029800 9.368556
v -1.498288 0.320079 9.368556
v -1.498288 0.320079 10.050616
v -1.498288 -0.029800 10.050616
v -1.498288 -0.029800 9.368556
v -1.498288 0.320079 10.050616
v 1.468923 0.320079 9.368556
v 1.468923 0.320079 10.050616
v -1.498288 0.320079 10.050616
v -1.498288 0.320079 9.368556
v 1.468923 0.320079 9.368556
v -1.498288 0.320079 10.050616
v -1.498288 -0.029800 9.368556
v -1.498288 -0.029800 10.050616
v 1.468923 -0.029800 10.050616
v 1.468923 -0.029800 9.368556
v -1.498288 -0.029800 9.368556
v 1.468923 -0.029800 10.050616
v 1.468923 -0.029800 11.373042
v 1.468923 0.320079 11.373042
v -1.498288 0.320079 11.373042
v -1.498288 -0.029800 11.373042
v 1.468923 -0.029800 11.373042
v -1.498288 0.320079 11.373042
v -1.498288 -0.029800 12.055101
v -1.498288 0.320079 12.055101
v 1.468923 0.320079 12.055101
v 1.468923 -0.029800 12.055101
v -1.498288 -0.029800 12.055101
v 1.468923 0.320079 12.055101
v 1.468923 -0.029800 12.055101
v 1.468923 0.320079 12.055101
v 1.468923 0.320079 11.373042
v 1.468923 -0.029800 11.373042
v 1.468923 -0.029800 12.055101
v 1.468923 0.320079 11.373042
v -1.498288 -0.029800 11.373042
v -1.498288 0.320079 11.373042
v -1.498288 0.320079 12.055101
v -1.498288 -0.029800 12.055101
v -1.498288 -0.029800 11.373042
v -1.498288 0.320079 12.055101
v 1.468923 0.320079 11.373042
v 1.468923 0.320079 12.055101
v -1.498288 0.320079 12.055101
v -1.498288 0.320079 11.373042
v 1.468923 0.320079 11.373042
v -1.498288 0.320079 12.055101
v -1.498288 -0.029800 11.373042
v -1.498288 -0.029800 12.055101
v 1.468923 -0.029800 12.055101
v 1.468923 -0.029800 11.373042
v -1.498288 -0.029800 11.373042
v 1.468923 -0.029800 12.055101
v 1.468923 -0.029800 13.370212
v 1.468923 0.320079 13.370212
v -1.498288 0.320079 13.370212
v -1.498288 -0.029800 13.370212
v 1.468923 -0.029800 13.370212
v -1.498288 0.320079 13.370212
v -1.498289 -0.029800 14.052272
v -1.498289 0.320079 14.052272
v 1.468923 0.320079 14.052272
v 1.468923 -0.029800 14.052272
v -1.498289 -0.029800 14.052272
v 1.468923 0.320079 14.052272
v 1.468923 -0.029800 14.052272
v 1.468923 0.320079 14.052272
v 1.468923 0.320079 13.370212
v 1.468923 -0.029800 13.370212
v 1.468923 -0.029800 14.052272
v 1.468923 0.320079 13.370212
v -1.498288 -0.029800 13.370212
v -1.498288 0.320079 13.370212
v -1.498289 0.320079 14.052272
v -1.498289 -0.029800 14.052272
v -1.498288 -0.029800 13.370212
v -1.498289 0.320079 14.052272
v 1.468923 0.320079 13.370212
v 1.468923 0.320079 14.052272
v -1.498289 0.320079 14.052272
v -1.498288 0.320079 13.370212
v 1.468923 0.320079 13.370212
v -1.498289 0.320079 14.052272
v -1.498288 -0.029800 13.370212
v -1.498289 -0.029800 14.052272
v 1.468923 -0.029800 14.052272
v 1.468923 -0.029800 13.370212
v -1.498288 -0.029800 13.370212
v 1.468923 -0.029800 14.052272
v 1.468922 -0.029800 15.388452
v 1.468922 0.320079 15.388452
v -1.498289 0.320079 15.388452
v -1.498289 -0.029800 15.388452
v 1.468922 -0.029800 15.388452
v -1.498289 0.320079 15.388452
v -1.498289 -0.029800 16.070513
v -1.498289 0.320079 16.070513
v 1.468922 0.320079 16.070513
v 1.468922 -0.029800 16.070513
v -1.498289 -0.029800 16.070513
v 1.468922 0.320079 16.070513
v 1.468922 -0.029800 16.070513
v 1.468922 0.320079 16.070513
v 1.468922 0.320079 15.388452
v 1.468922 -0.029800 15.388452
v 1.468922 -0.029800 16.070513
v 1.468922 0.320079 15.388452
v -1.498289 -0.029800 15.388452
v -1.498289 0.320079 15.388452
v -1.498289 0.320079 16.070513
v -1.498289 -0.029800 16.070513
v -1.498289 -0.029800 15.388452
v -1.498289 0.320079 16.070513
v 1.468922 0.320079 15.388452
v 1.468922 0.320079 16.070513
v -1.498289 0.320079 16.070513
v -1.498289 0.320079 15.388452
v 1.468922 0.320079 15.388452
v -1.498289 0.320079 16.070513
v -1.498289 -0.029800 15.388452
v -1.498289 -0.029800 16.070513
v 1.468922 -0.029800 16.070513
v 1.468922 -0.029800 15.388452
v -1.498289 -0.029800 15.388452
v 1.468922 -0.029800 16.070513
v 1.468924 -0.029801 -2.615925
v 1.468924 0.320078 -2.615925
v -1.498287 0.320078 -2.615925
v -1.498287 -0.029801 -2.615925
v 1.468924 -0.029801 -2.615925
v -1.498287 0.320078 -2.615925
v -1.498287 -0.029801 -1.933865
v -1.498287 0.320078 -1.933865
v 1.468924 0.320078 -1.933865
v 1.468924 -0.029801 -1.933865
v -1.498287 -0.029801 -1.933865
v 1.468924 0.320078 -1.933865
v 1.468924 -0.029801 -1.933865
v 1.468924 0.320078 -1.933865
v 1.468924 0.320078 -2.615925
v 1.468924 -0.029801 -2.615925
v 1.468924 -0.029801 -1.933865
v 1.468924 0.320078 -2.615925
v -1.498287 -0.029801 -2.615925
v -1.498287 0.320078 -2.615925
v -1.498287 0.320078 -1.933865
v -1.498287 -0.029801 -1.933865
v -1.498287 -0.029801 -2.615925
v -1.498287 0.320078 -1.933865
v 1.468924 0.320078 -2.615925
v 1.468924 0.320078 -1.933865
v -1.498287 0.320078 -1.933865
v -1.498287 0.320078 -2.615925
v 1.468924 0.320078 -2.615925
v -1.498287 0.320078 -1.933865
v -1.498287 -0.029801 -2.615925
v -1.498287 -0.029801 -1.933865
v 1.468924 -0.029801 -1.933865
v 1.468924 -0.029801 -2.615925
v -1.498287 -0.029801 -2.615925
v 1.468924 -0.029801 -1.933865
v 1.468924 -0.029801 -4.638836
v 1.468924 0.320078 -4.638836
v -1.498287 0.320078 -4.638837
v -1.498287 -0.029801 -4.638837
v 1.468924 -0.029801 -4.638836
v -1.498287 0.320078 -4.638837
v -1.498287 -0.029801 -3.956775
v -1.498287 0.320078 -3.956775
v 1.468924 0.320078 -3.956775
v 1.468924 -0.029801 -3.956775
v -1.498287 -0.029801 -3.956775
v 1.468924 0.320078 -3.956775
v 1.468924 -0.029801 -3.956775
v 1.468924 0.320078 -3.956775
v 1.468924 0.320078 -4.638836
v 1.468924 -0.029801 -4.638836
v 1.468924 -0.029801 -3.956775
v 1.468924 0.320078 -4.638836
v -1.498287 -0.029801 -4.638837
v -1.498287 0.320078 -4.638837
v -1.498287 0.320078 -3.956775
v -1.498287 -0.029801 -3.956775
v -1.498287 -0.029801 -4.638837
v -1.498287 0.320078 -3.956775
v 1.468924 0.320078 -4.638836
v 1.468924 0.320078 -3.956775
v -1.498287 0.320078 -3.956775
v -1.498287 0.320078 -4.638837
v 1.468924 0.320078 -4.638836
v -1.498287 0.320078 -3.956775
v -1.498287 -0.029801 -4.638837
v -1.498287 -0.029801 -3.956775
v 1.468924 -0.029801 -3.956775
v 1.468924 -0.029801 -4.638836
v -1.498287 -0.029801 -4.638837
v 1.468924 -0.029801 -3.956775
v 1.468924 -0.029801 -6.610356
v 1.468924 0.320078 -6.610356
v -1.498287 0.320078 -6.610356
v -1.498287 -0.029801 -6.610356
v 1.468924 -0.029801 -6.610356
v -1.498287 0.320078 -6.610356
v -1.498287 -0.029800 -5.928296
v -1.498287 0.320079 -5.928296
v 1.468924 0.320079 -5.928296
v 1.468924 -0.029800 -5.928296
v -1.498287 -0.029800 -5.928296
v 1.468924 0.320079 -5.928296
v 1.468924 -0.029800 -5.928296
v 1.468924 0.320079 -5.928296
v 1.468924 0.320078 -6.610356
v 1.468924 -0.029801 -6.610356
v 1.468924 -0.029800 -5.928296
v 1.468924 0.320078 -6.610356
v -1.498287 -0.029801 -6.610356
v -1.498287 0.320078 -6.610356
v -1.498287 0.320079 -5.928296
v -1.498287 -0.029800 -5.928296
v -1.498287 -0.029801 -6.610356
v -1.498287 0.320079 -5.928296
v 1.468924 0.320078 -6.610356
v 1.468924 0.320079 -5.928296
v -1.498287 0.320079 -5.928296
v -1.498287 0.320078 -6.610356
v 1.468924 0.320078 -6.610356
v -1.498287 0.320079 -5.928296
v -1.498287 -0.029801 -6.610356
v -1.498287 -0.029800 -5.928296
v 1.468924 -0.029800 -5.928296
v 1.468924 -0.029801 -6.610356
v -1.498287 -0.029801 -6.610356
v 1.468924 -0.029800 -5.928296
v 1.468925 -0.029801 -8.605247
v 1.468925 0.320078 -8.605247
v -1.498286 0.320078 -8.605247
v -1.498286 -0.029801 -8.605247
v 1.468925 -0.029801 -8.605247
v -1.498286 0.320078 -8.605247
v -1.498287 -0.029801 -7.923187
v -1.498287 0.320078 -7.923187
v 1.468925 0.320078 -7.923187
v 1.468925 -0.029801 -7.923187
v -1.498287 -0.029801 -7.923187
v 1.468925 0.320078 -7.923187
v 1.468925 -0.029801 -7.923187
v 1.468925 0.320078 -7.923187
v 1.468925 0.320078 -8.605247
v 1.468925 -0.029801 -8.605247
v 1.468925 -0.029801 -7.923187
v 1.468925 0.320078 -8.605247
v -1.498286 -0.029801 -8.605247
v -1.498286 0.320078 -8.605247
v -1.498287 0.320078 -7.923187
v -1.498287 -0.029801 -7.923187
v -1.498286 -0.029801 -8.605247
v -1.498287 0.320078 -7.923187
v 1.468925 0.320078 -8.605247
v 1.468925 0.320078 -7.923187
v -1.498287 0.320078 -7.923187
v -1.498286 0.320078 -8.605247
v 1.468925 0.320078 -8.605247
v -1.498287 0.320078 -7.923187
v -1.498286 -0.029801 -8.605247
v -1.498287 -0.029801 -7.923187
v 1.468925 -0.029801 -7.923187
v 1.468925 -0.029801 -8.605247
v -1.498286 -0.029801 -8.605247
v 1.468925 -0.029801 -7.923187
v 1.468925 -0.029801 -10.628188
v 1.468925 0.320078 -10.628188
v -1.498286 0.320078 -10.628188
v -1.498286 -0.029801 -10.628188
v 1.468925 -0.029801 -10.628188
v -1.498286 0.320078 -10.628188
v -1.498286 -0.029801 -9.946128
v -1.498286 0.320078 -9.946128
v 1.468925 0.320078 -9.946128
v 1.468925 -0.029801 -9.946128
v -1.498286 -0.029801 -9.946128
v 1.468925 0.320078 -9.946128
v 1.468925 -0.029801 -9.946128
v 1.468925 0.320078 -9.946128
v 1.468925 0.320078 -10.628188
v 1.468925 -0.029801 -10.628188
v 1.468925 -0.029801 -9.946128
v 1.468925 0.320078 -10.628188
v -1.498286 -0.029801 -10.628188
v -1.498286 0.320078 -10.628188
v -1.498286 0.320078 -9.946128
v -1.498286 -0.029801 -9.946128
v -1.498286 -0.029801 -10.628188
v -1.498286 0.320078 -9.946128
v 1.468925 0.320078 -10.628188
v 1.468925 0.320078 -9.946128
v -1.498286 0.320078 -9.946128
v -1.498286 0.320078 -10.628188
v 1.468925 0.320078 -10.628188
v -1.498286 0.320078 -9.946128
v -1.498286 -0.029801 -10.628188
v -1.498286 -0.029801 -9.946128
v 1.468925 -0.029801 -9.946128
v 1.468925 -0.029801 -10.628188
v -1.498286 -0.029801 -10.628188
v 1.468925 -0.029801 -9.946128
v 1.468925 -0.029801 -12.626608
v 1.468925 0.320078 -12.626608
v -1.498286 0.320078 -12.626608
v -1.498286 -0.029801 -12.626608
v 1.468925 -0.029801 -12.626608
v -1.498286 0.320078 -12.626608
v -1.498286 -0.029801 -11.944549
v -1.498286 0.320078 -11.944549
v 1.468925 0.320078 -11.944549
v 1.468925 -0.029801 -11.944549
v -1.498286 -0.029801 -11.944549
v 1.468925 0.320078 -11.944549
v 1.468925 -0.029801 -11.944549
v 1.468925 0.320078 -11.944549
v 1.468925 0.320078 -12.626608
v 1.468925 -0.029801 -12.626608
v 1.468925 -0.029801 -11.944549
v 1.468925 0.320078 -12.626608
v -1.498286 -0.029801 -12.626608
v -1.498286 0.320078 -12.626608
v -1.498286 0.320078 -11.944549
v -1.498286 -0.029801 -11.944549
v -1.498286 -0.029801 -12.626608
v -1.498286 0.320078 -11.944549
v 1.468925 0.320078 -12.626608
v 1.468925 0.320078 -11.944549
v -1.498286 0.320078 -11.944549
v -1.498286 0.320078 -12.626608
v 1.468925 0.320078 -12.626608
v -1.498286 0.320078 -11.944549
v -1.498286 -0.029801 -12.626608
v -1.498286 -0.029801 -11.944549
v 1.468925 -0.029801 -11.944549
v 1.468925 -0.029801 -12.626608
v -1.498286 -0.029801 -12.626608
v 1.468925 -0.029801 -11.944549
v 1.468925 -0.029801 -14.644958
v 1.468925 0.320078 -14.644958
v -1.498285 0.320078 -14.644958
v -1.498285 -0.029801 -14.644958
v 1.468925 -0.029801 -14.644958
v -1.498285 0.320078 -14.644958
v -1.498285 -0.029801 -13.962898
v -1.498285 0.320078 -13.962898
v 1.468925 0.320078 -13.962898
v 1.468925 -0.029801 -13.962898
v -1.498285 -0.029801 -13.962898
v 1.468925 0.320078 -13.962898
v 1.468925 -0.029801 -13.962898
v 1.468925 0.320078 -13.962898
v 1.468925 0.320078 -14.644958
v 1.468925 -0.029801 -14.644958
v 1.468925 -0.029801 -13.962898
v 1.468925 0.320078 -14.644958
v -1.498285 -0.029801 -14.644958
v -1.498285 0.320078 -14.644958
v -1.498285 0.320078 -13.962898
v -1.498285 -0.029801 -13.962898
v -1.498285 -0.029801 -14.644958
v -1.498285 0.320078 -13.962898
v 1.468925 0.320078 -14.644958
v 1.468925 0.320078 -13.962898
v -1.498285 0.320078 -13.962898
v -1.498285 0.320078 -14.644958
v 1.468925 0.320078 -14.644958
v -1.498285 0.320078 -13.962898
v -1.498285 -0.029801 -14.644958
v -1.498285 -0.029801 -13.962898
v 1.468925 -0.029801 -13.962898
v 1.468925 -0.029801 -14.644958
v -1.498285 -0.029801 -14.644958
v 1.468925 -0.029801 -13.962898
v 1.468924 -0.029801 5.345822
v 1.468924 0.320078 5.345822
v -1.498287 0.320078 5.345822
v -1.498287 -0.029801 5.345822
v 1.468924 -0.029801 5.345822
v -1.498287 0.320078 5.345822
v -1.498287 -0.029801 6.027881
v -1.498287 0.320078 6.027881
v 1.468924 0.320078 6.027882
v 1.468924 -0.029801 6.027882
v -1.498287 -0.029801 6.027881
v 1.468924 0.320078 6.027882
v 1.468924 -0.029801 6.027882
v 1.468924 0.320078 6.027882
v 1.468924 0.320078 5.345822
v 1.468924 -0.029801 5.345822
v 1.468924 -0.029801 6.027882
v 1.468924 0.320078 5.345822
v -1.498287 -0.029801 5.345822
v -1.498287 0.320078 5.345822
v -1.498287 0.320078 6.027881
v -1.498287 -0.029801 6.027881
v -1.498287 -0.029801 5.345822
v -1.498287 0.320078 6.027881
v 1.468924 0.320078 5.345822
v 1.468924 0.320078 6.027882
v -1.498287 0.320078 6.027881
v -1.498287 0.320078 5.345822
v 1.468924 0.320078 5.345822
v -1.498287 0.320078 6.027881
v -1.498287 -0.029801 5.345822
v -1.498287 -0.029801 6.027881
v 1.468924 -0.029801 6.027882
v 1.468924 -0.029801 5.345822
v -1.498287 -0.029801 5.345822
v 1.468924 -0.029801 6.027882
vn -0.0000 -0.0000 -1.0000
vn -0.0000 -0.0000 1.0000
vn 1.0000 -0.0000 -0.0000
vn -1.0000 -0.0000 -0.0000
vn -0.0000 1.0000 -0.0000
vn -0.0000 -1.0000 -0.0000
vt 0.997411 1.005360
vt -0.002562 0.994612
vt 0.002589 -0.005360
vt 1.002562 0.005388
vt 1.000000 1.000000
vt 0.000000 1.000000
vt 0.000000 0.000000
vt 1.000000 0.000000
s 1
usemtl Material.005
f 147/25/37 146/26/37 145/27/37
f 150/25/37 149/27/37 148/28/37
f 153/25/38 152/26/38 151/27/38
f 156/25/38 155/27/38 154/28/38
f 159/25/39 158/26/39 157/27/39
f 162/25/39 161/27/39 160/28/39
f 165/25/40 164/26/40 163/27/40
f 168/25/40 167/27/40 166/28/40
f 171/25/41 170/26/41 169/27/41
f 174/25/41 173/27/41 172/28/41
f 177/25/42 176/26/42 175/27/42
f 180/25/42 179/27/42 178/28/42
f 183/25/37 182/26/37 181/27/37
f 186/25/37 185/27/37 184/28/37
f 189/25/38 188/26/38 187/27/38
f 192/25/38 191/27/38 190/28/38
f 195/25/39 194/26/39 193/27/39
f 198/25/39 197/27/39 196/28/39
f 201/25/40 200/26/40 199/27/40
f 204/25/40 203/27/40 202/28/40
f 207/25/41 206/26/41 205/27/41
f 210/25/41 209/27/41 208/28/41
f 213/25/42 212/26/42 211/27/42
f 216/25/42 215/27/42 214/28/42
f 219/25/37 218/26/37 217/27/37
f 222/25/37 221/27/37 220/28/37
f 225/25/38 224/26/38 223/27/38
f 228/25/38 227/27/38 226/28/38
f 231/25/39 230/26/39 229/27/39
f 234/25/39 233/27/39 232/28/39
f 237/25/40 236/26/40 235/27/40
f 240/25/40 239/27/40 238/28/40
f 243/25/41 242/26/41 241/27/41
f 246/25/41 245/27/41 244/28/41
f 249/25/42 248/26/42 247/27/42
f 252/25/42 251/27/42 250/28/42
f 255/29/37 254/30/37 253/31/37
f 258/29/37 257/31/37 256/32/37
f 261/29/38 260/30/38 259/31/38
f 264/29/38 263/31/38 262/32/38
f 267/29/39 266/30/39 265/31/39
f 270/29/39 269/31/39 268/32/39
f 273/29/40 272/30/40 271/31/40
f 276/29/40 275/31/40 274/32/40
f 279/29/41 278/30/41 277/31/41
f 282/29/41 281/31/41 280/32/41
f 285/29/42 284/30/42 283/31/42
f 288/29/42 287/31/42 286/32/42
f 291/25/37 290/26/37 289/27/37
f 294/25/37 293/27/37 292/28/37
f 297/25/38 296/26/38 295/27/38
f 300/25/38 299/27/38 298/28/38
f 303/25/39 302/26/39 301/27/39
f 306/25/39 305/27/39 304/28/39
f 309/25/40 308/26/40 307/27/40
f 312/25/40 311/27/40 310/28/40
f 315/25/41 314/26/41 313/27/41
f 318/25/41 317/27/41 316/28/41
f 321/25/42 320/26/42 319/27/42
f 324/25/42 323/27/42 322/28/42
f 327/25/37 326/26/37 325/27/37
f 330/25/37 329/27/37 328/28/37
f 333/25/38 332/26/38 331/27/38
f 336/25/38 335/27/38 334/28/38
f 339/25/39 338/26/39 337/27/39
f 342/25/39 341/27/39 340/28/39
f 345/25/40 344/26/40 343/27/40
f 348/25/40 347/27/40 346/28/40
f 351/25/41 350/26/41 349/27/41
f 354/25/41 353/27/41 352/28/41
f 357/25/42 356/26/42 355/27/42
f 360/25/42 359/27/42 358/28/42
f 363/25/37 362/26/37 361/27/37
f 366/25/37 365/27/37 364/28/37
f 369/29/38 368/30/38 367/31/38
f 372/29/38 371/31/38 370/32/38
f 375/25/39 374/26/39 373/27/39
f 378/25/39 377/27/39 376/28/39
f 381/25/40 380/26/40 379/27/40
f 384/25/40 383/27/40 382/28/40
f 387/25/41 386/26/41 385/27/41
f 390/25/41 389/27/41 388/28/41
f 393/25/42 392/26/42 391/27/42
f 396/25/42 395/27/42 394/28/42
f 399/25/37 398/26/37 397/27/37
f 402/25/37 401/27/37 400/28/37
f 405/29/38 404/30/38 403/31/38
f 408/29/38 407/31/38 406/32/38
f 411/25/39 410/26/39 409/27/39
f 414/25/39 413/27/39 412/28/39
f 417/25/40 416/26/40 415/27/40
f 420/25/40 419/27/40 418/28/40
f 423/25/41 422/26/41 421/27/41
f 426/25/41 425/27/41 424/28/41
f 429/25/42 428/26/42 427/27/42
f 432/25/42 431/27/42 430/28/42
f 435/25/37 434/26/37 433/27/37
f 438/25/37 437/27/37 436/28/37
f 441/25/38 440/26/38 439/27/38
f 444/25/38 443/27/38 442/28/38
f 447/25/39 446/26/39 445/27/39
f 450/25/39 449/27/39 448/28/39
f 453/25/40 452/26/40 451/27/40
f 456/25/40 455/27/40 454/28/40
f 459/25/41 458/26/41 457/27/41
f 462/25/41 461/27/41 460/28/41
f 465/25/42 464/26/42 463/27/42
f 468/25/42 467/27/42 466/28/42
f 471/25/37 470/26/37 469/27/37
f 474/25/37 473/27/37 472/28/37
f 477/25/38 476/26/38 475/27/38
f 480/25/38 479/27/38 478/28/38
f 483/25/39 482/26/39 481/27/39
f 486/25/39 485/27/39 484/28/39
f 489/25/40 488/26/40 487/27/40
f 492/25/40 491/27/40 490/28/40
f 495/25/41 494/26/41 493/27/41
f 498/25/41 497/27/41 496/28/41
f 501/25/42 500/26/42 499/27/42
f 504/25/42 503/27/42 502/28/42
f 507/25/37 506/26/37 505/27/37
f 510/25/37 509/27/37 508/28/37
f 513/25/38 512/26/38 511/27/38
f 516/25/38 515/27/38 514/28/38
f 519/25/39 518/26/39 517/27/39
f 522/25/39 521/27/39 520/28/39
f 525/25/40 524/26/40 523/27/40
f 528/25/40 527/27/40 526/28/40
f 531/25/41 530/26/41 529/27/41
f 534/25/41 533/27/41 532/28/41
f 537/25/42 536/26/42 535/27/42
f 540/25/42 539/27/42 538/28/42
f 543/25/37 542/26/37 541/27/37
f 546/25/37 545/27/37 544/28/37
f 549/25/38 548/26/38 547/27/38
f 552/25/38 551/27/38 550/28/38
f 555/25/39 554/26/39 553/27/39
f 558/25/39 557/27/39 556/28/39
f 561/25/40 560/26/40 559/27/40
f 564/25/40 563/27/40 562/28/40
f 567/25/41 566/26/41 565/27/41
f 570/25/41 569/27/41 568/28/41
f 573/25/42 572/26/42 571/27/42
f 576/25/42 575/27/42 574/28/42
f 579/25/37 578/26/37 577/27/37
f 582/25/37 581/27/37 580/28/37
f 585/25/38 584/26/38 583/27/38
f 588/25/38 587/27/38 586/28/38
f 591/25/39 590/26/39 589/27/39
f 594/25/39 593/27/39 592/28/39
f 597/25/40 596/26/40 595/27/40
f 600/25/40 599/27/40 598/28/40
f 603/25/41 602/26/41 601/27/41
f 606/25/41 605/27/41 604/28/41
f 609/25/42 608/26/42 607/27/42
f 612/25/42 611/27/42 610/28/42
f 615/25/37 614/26/37 613/27/37
f 618/25/37 617/27/37 616/28/37
f 621/25/38 620/26/38 619/27/38
f 624/25/38 623/27/38 622/28/38
f 627/25/39 626/26/39 625/27/39
f 630/25/39 629/27/39 628/28/39
f 633/25/40 632/26/40 631/27/40
f 636/25/40 635/27/40 634/28/40
f 639/25/41 638/26/41 637/27/41
f 642/25/41 641/27/41 640/28/41
f 645/25/42 644/26/42 643/27/42
f 648/25/42 647/27/42 646/28/42
f 651/25/37 650/26/37 649/27/37
f 654/25/37 653/27/37 652/28/37
f 657/25/38 656/26/38 655/27/38
f 660/25/38 659/27/38 658/28/38
f 663/25/39 662/26/39 661/27/39
f 666/25/39 665/27/39 664/28/39
f 669/25/40 668/26/40 667/27/40
f 672/25/40 671/27/40 670/28/40
f 675/25/41 674/26/41 673/27/41
f 678/25/41 677/27/41 676/28/41
f 681/25/42 680/26/42 679/27/42
f 684/25/42 683/27/42 682/28/42
f 687/25/37 686/26/37 685/27/37
f 690/25/37 689/27/37 688/28/37
f 693/25/38 692/26/38 691/27/38
f 696/25/38 695/27/38 694/28/38
f 699/25/39 698/26/39 697/27/39
f 702/25/39 701/27/39 700/28/39
f 705/25/40 704/26/40 703/27/40
f 708/25/40 707/27/40 706/28/40
f 711/25/41 710/26/41 709/27/41
f 714/25/41 713/27/41 712/28/41
f 717/25/42 716/26/42 715/27/42
f 720/25/42 719/27/42 718/28/42
f 723/25/37 722/26/37 721/27/37
f 726/25/37 725/27/37 724/28/37
f 729/25/38 728/26/38 727/27/38
f 732/25/38 731/27/38 730/28/38
f 735/25/39 734/26/39 733/27/39
f 738/25/39 737/27/39 736/28/39
f 741/25/40 740/26/40 739/27/40
f 744/25/40 743/27/40 742/28/40
f 747/25/41 746/26/41 745/27/41
f 750/25/41 749/27/41 748/28/41
f 753/25/42 752/26/42 751/27/42
f 756/25/42 755/27/42 754/28/42
o Pirámide
v -1.353858 0.278866 -0.018292
v -0.854358 0.580690 -0.234099
v -0.853358 0.580690 -0.234099
v -0.353858 0.278866 -0.018292
v -0.353858 0.278866 -0.450339
v -0.853358 0.580690 -0.234531
v -0.854358 0.580690 -0.234531
v -1.353858 0.278866 -0.450339
v -0.353858 0.278866 -0.018292
v -0.853358 0.580690 -0.234099
v -0.853358 0.580690 -0.234531
v -0.353858 0.278866 -0.450339
v -1.353858 0.278866 -0.450339
v -0.854358 0.580690 -0.234531
v -0.854358 0.580690 -0.234099
v -1.353858 0.278866 -0.018292
v -0.853358 0.580690 -0.234531
v -0.853358 0.580690 -0.234099
v -0.854358 0.580690 -0.234099
v -0.854358 0.580690 -0.234531
v -1.353858 0.278866 -0.450339
v -1.353858 0.278866 -0.018292
v -0.353858 0.278866 -0.018292
v -0.353858 0.278866 -0.450339
vn -0.0000 0.4469 0.8946
vn -0.0000 0.4469 -0.8946
vn 0.8946 0.4468 -0.0000
vn -0.8946 0.4468 -0.0000
vn -0.0000 1.0000 -0.0000
vn -0.0000 -1.0000 -0.0000
vt 1.000000 0.000000
vt 0.000000 0.000000
vt 0.000000 -1.000000
vt 1.000000 -1.000000
vt 1.000000 1.000000
vt 0.000000 1.000000
s 1
usemtl Material.003
f 759/33/43 758/34/43 757/35/43
f 759/33/43 757/35/43 760/36/43
f 763/33/44 762/34/44 761/35/44
f 763/33/44 761/35/44 764/36/44
f 767/33/45 766/34/45 765/35/45
f 767/33/45 765/35/45 768/36/45
f 771/33/46 770/34/46 769/35/46
f 771/33/46 769/35/46 772/36/46
f 775/37/47 774/38/47 773/34/47
f 775/37/47 773/34/47 776/33/47
f 779/37/48 778/38/48 777/34/48
f 779/37/48 777/34/48 780/33/48
o Pirámide_1
v 0.346032 0.278866 -0.018292
v 0.845532 0.580690 -0.234099
v 0.846532 0.580690 -0.234099
v 1.346032 0.278866 -0.018292
v 1.346032 0.278866 -0.450339
v 0.846532 0.580690 -0.234531
v 0.845532 0.580690 -0.234531
v 0.346032 0.278866 -0.450339
v 1.346032 0.278866 -0.018292
v 0.846532 0.580690 -0.234099
v 0.846532 0.580690 -0.234531
v 1.346032 0.278866 -0.450339
v 0.346032 0.278866 -0.450339
v 0.845532 0.580690 -0.234531
v 0.845532 0.580690 -0.234099
v 0.346032 0.278866 -0.018292
v 0.846532 0.580690 -0.234531
v 0.846532 0.580690 -0.234099
v 0.845532 0.580690 -0.234099
v 0.845532 0.580690 -0.234531
v 0.346032 0.278866 -0.450339
v 0.346032 0.278866 -0.018292
v 1.346032 0.278866 -0.018292
v 1.346032 0.278866 -0.450339
vn -0.0000 0.4469 0.8946
vn -0.0000 0.4469 -0.8946
vn 0.8946 0.4469 -0.0000
vn 0.8946 0.4468 -0.0000
vn -0.8946 0.4468 -0.0000
vn -0.0000 1.0000 -0.0000
vn -0.0000 -1.0000 -0.0000
vt 1.000000 0.000000
vt 0.000000 0.000000
vt 0.000000 -1.000000
vt 1.000000 -1.000000
vt 1.000000 1.000000
vt 0.000000 1.000000
s 1
usemtl Material.003
f 783/39/49 782/40/49 781/41/49
f 783/39/49 781/41/49 784/42/49
f 787/39/50 786/40/50 785/41/50
f 787/39/50 785/41/50 788/42/50
f 791/39/51 790/40/51 789/41/52
f 791/39/51 789/41/52 792/42/52
f 795/39/53 794/40/53 793/41/53
f 795/39/53 793/41/53 796/42/53
f 799/43/54 798/44/54 797/40/54
f 799/43/54 797/40/54 800/39/54
f 803/43/55 802/44/55 801/40/55
f 803/43/55 801/40/55 804/39/55
o Pirámide_10
v 0.346032 0.278867 9.910963
v 0.845532 0.580691 9.695156
v 0.846532 0.580691 9.695156
v 1.346032 0.278867 9.910963
v 1.346032 0.278867 9.478915
v 0.846532 0.580691 9.694723
v 0.845532 0.580691 9.694723
v 0.346032 0.278867 9.478915
v 1.346032 0.278867 9.910963
v 0.846532 0.580691 9.695156
v 0.846532 0.580691 9.694723
v 1.346032 0.278867 9.478915
v 0.346032 0.278867 9.478915
v 0.845532 0.580691 9.694723
v 0.845532 0.580691 9.695156
v 0.346032 0.278867 9.910963
v 0.846532 0.580691 9.694723
v 0.846532 0.580691 9.695156
v 0.845532 0.580691 9.695156
v 0.845532 0.580691 9.694723
v 0.346032 0.278867 9.478915
v 0.346032 0.278867 9.910963
v 1.346032 0.278867 9.910963
v 1.346032 0.278867 9.478915
vn -0.0000 0.4469 0.8946
vn -0.0000 0.4469 -0.8946
vn 0.8946 0.4468 -0.0000
vn 0.8946 0.4469 -0.0000
vn -0.8946 0.4468 -0.0000
vn -0.0000 1.0000 -0.0000
vn -0.0000 -1.0000 -0.0000
vt 1.000000 0.000000
vt 0.000000 0.000000
vt 0.000000 -1.000000
vt 1.000000 -1.000000
vt 1.000000 1.000000
vt 0.000000 1.000000
s 1
usemtl Material.003
f 807/45/56 806/46/56 805/47/56
f 807/45/56 805/47/56 808/48/56
f 811/45/57 810/46/57 809/47/57
f 811/45/57 809/47/57 812/48/57
f 815/45/58 814/46/59 813/47/58
f 815/45/58 813/47/58 816/48/58
f 819/45/60 818/46/60 817/47/60
f 819/45/60 817/47/60 820/48/60
f 823/49/61 822/50/61 821/46/61
f 823/49/61 821/46/61 824/45/61
f 827/49/62 826/50/62 825/46/62
f 827/49/62 825/46/62 828/45/62
o Pirámide_11
v -1.353858 0.278867 9.897699
v -0.854358 0.580691 9.681892
v -0.853358 0.580691 9.681892
v -0.353858 0.278867 9.897699
v -0.353858 0.278867 9.465652
v -0.853358 0.580691 9.681459
v -0.854358 0.580691 9.681459
v -1.353858 0.278867 9.465652
v -0.353858 0.278867 9.897699
v -0.853358 0.580691 9.681892
v -0.853358 0.580691 9.681459
v -0.353858 0.278867 9.465652
v -1.353858 0.278867 9.465652
v -0.854358 0.580691 9.681459
v -0.854358 0.580691 9.681892
v -1.353858 0.278867 9.897699
v -0.853358 0.580691 9.681459
v -0.853358 0.580691 9.681892
v -0.854358 0.580691 9.681892
v -0.854358 0.580691 9.681459
v -1.353858 0.278867 9.465652
v -1.353858 0.278867 9.897699
v -0.353858 0.278867 9.897699
v -0.353858 0.278867 9.465652
vn -0.0000 0.4469 0.8946
vn -0.0000 0.4469 -0.8946
vn 0.8946 0.4469 -0.0000
vn 0.8946 0.4468 -0.0000
vn -0.8946 0.4468 -0.0000
vn -0.8946 0.4469 -0.0000
vn -0.0000 1.0000 -0.0000
vn -0.0000 -1.0000 -0.0000
vt 1.000000 0.000000
vt 0.000000 0.000000
vt 0.000000 -1.000000
vt 1.000000 -1.000000
vt 1.000000 1.000000
vt 0.000000 1.000000
s 1
usemtl Material.003
f 831/51/63 830/52/63 829/53/63
f 831/51/63 829/53/63 832/54/63
f 835/51/64 834/52/64 833/53/64
f 835/51/64 833/53/64 836/54/64
f 839/51/65 838/52/65 837/53/66
f 839/51/65 837/53/66 840/54/66
f 843/51/67 842/52/68 841/53/67
f 843/51/67 841/53/67 844/54/67
f 847/55/69 846/56/69 845/52/69
f 847/55/69 845/52/69 848/51/69
f 851/55/70 850/56/70 849/52/70
f 851/55/70 849/52/70 852/51/70
o Pirámide_12
v 0.346032 0.278867 11.917562
v 0.845532 0.580691 11.701752
v 0.846532 0.580691 11.701752
v 1.346032 0.278867 11.917562
v 1.346032 0.278867 11.485512
v 0.846532 0.580691 11.701322
v 0.845532 0.580691 11.701322
v 0.346032 0.278867 11.485512
v 1.346032 0.278867 11.917562
v 0.846532 0.580691 11.701752
v 0.846532 0.580691 11.701322
v 1.346032 0.278867 11.485512
v 0.346032 0.278867 11.485512
v 0.845532 0.580691 11.701322
v 0.845532 0.580691 11.701752
v 0.346032 0.278867 11.917562
v 0.846532 0.580691 11.701322
v 0.846532 0.580691 11.701752
v 0.845532 0.580691 11.701752
v 0.845532 0.580691 11.701322
v 0.346032 0.278867 11.485512
v 0.346032 0.278867 11.917562
v 1.346032 0.278867 11.917562
v 1.346032 0.278867 11.485512
vn -0.0000 0.4469 0.8946
vn -0.0000 0.4469 -0.8946
vn 0.8946 0.4469 -0.0000
vn 0.8946 0.4468 -0.0000
vn -0.8946 0.4469 -0.0000
vn -0.8946 0.4468 -0.0000
vn -0.0000 1.0000 -0.0000
vn -0.0000 -1.0000 -0.0000
vt 1.000000 0.000000
vt 0.000000 0.000000
vt 0.000000 -1.000000
vt 1.000000 -1.000000
vt 1.000000 1.000000
vt 0.000000 1.000000
s 1
usemtl Material.003
f 855/57/71 854/58/71 853/59/71
f 855/57/71 853/59/71 856/60/71
f 859/57/72 858/58/72 857/59/72
f 859/57/72 857/59/72 860/60/72
f 863/57/73 862/58/74 861/59/74
f 863/57/73 861/59/74 864/60/74
f 867/57/75 866/58/76 865/59/76
f 867/57/75 865/59/76 868/60/76
f 871/61/77 870/62/77 869/58/77
f 871/61/77 869/58/77 872/57/77
f 875/61/78 874/62/78 873/58/78
f 875/61/78 873/58/78 876/57/78
o Pirámide_13
v -1.353858 0.278867 11.923012
v -0.854358 0.580691 11.707202
v -0.853358 0.580691 11.707202
v -0.353858 0.278867 11.923012
v -0.353858 0.278867 11.490962
v -0.853358 0.580691 11.706772
v -0.854358 0.580691 11.706772
v -1.353858 0.278867 11.490962
v -0.353858 0.278867 11.923012
v -0.853358 0.580691 11.707202
v -0.853358 0.580691 11.706772
v -0.353858 0.278867 11.490962
v -1.353858 0.278867 11.490962
v -0.854358 0.580691 11.706772
v -0.854358 0.580691 11.707202
v -1.353858 0.278867 11.923012
v -0.853358 0.580691 11.706772
v -0.853358 0.580691 11.707202
v -0.854358 0.580691 11.707202
v -0.854358 0.580691 11.706772
v -1.353858 0.278867 11.490962
v -1.353858 0.278867 11.923012
v -0.353858 0.278867 11.923012
v -0.353858 0.278867 11.490962
vn -0.0000 0.4469 0.8946
vn -0.0000 0.4469 -0.8946
vn 0.8946 0.4468 -0.0000
vn -0.8946 0.4468 -0.0000
vn -0.8946 0.4469 -0.0000
vn -0.0000 1.0000 -0.0000
vn -0.0000 -1.0000 -0.0000
vt 1.000000 0.000000
vt 0.000000 0.000000
vt 0.000000 -1.000000
vt 1.000000 -1.000000
vt 1.000000 1.000000
vt 0.000000 1.000000
s 1
usemtl Material.003
f 879/63/79 878/64/79 877/65/79
f 879/63/79 877/65/79 880/66/79
f 883/63/80 882/64/80 881/65/80
f 883/63/80 881/65/80 884/66/80
f 887/63/81 886/64/81 885/65/81
f 887/63/81 885/65/81 888/66/81
f 891/63/82 890/64/82 889/65/82
f 891/63/82 889/65/82 892/66/83
f 895/67/84 894/68/84 893/64/84
f 895/67/84 893/64/84 896/63/84
f 899/67/85 898/68/85 897/64/85
f 899/67/85 897/64/85 900/63/85
o Pirámide_14
v 0.346032 0.278867 13.922892
v 0.845532 0.580691 13.707082
v 0.846532 0.580691 13.707082
v 1.346032 0.278867 13.922892
v 1.346032 0.278867 13.490842
v 0.846532 0.580691 13.706652
v 0.845532 0.580691 13.706652
v 0.346032 0.278867 13.490842
v 1.346032 0.278867 13.922892
v 0.846532 0.580691 13.707082
v 0.846532 0.580691 13.706652
v 1.346032 0.278867 13.490842
v 0.346032 0.278867 13.490842
v 0.845532 0.580691 13.706652
v 0.845532 0.580691 13.707082
v 0.346032 0.278867 13.922892
v 0.846532 0.580691 13.706652
v 0.846532 0.580691 13.707082
v 0.845532 0.580691 13.707082
v 0.845532 0.580691 13.706652
v 0.346032 0.278867 13.490842
v 0.346032 0.278867 13.922892
v 1.346032 0.278867 13.922892
v 1.346032 0.278867 13.490842
vn -0.0000 0.4469 0.8946
vn -0.0000 0.4469 -0.8946
vn 0.8946 0.4468 -0.0000
vn -0.8946 0.4469 -0.0000
vn -0.8946 0.4468 -0.0000
vn -0.0000 1.0000 -0.0000
vn -0.0000 -1.0000 -0.0000
vt 1.000000 0.000000
vt 0.000000 0.000000
vt 0.000000 -1.000000
vt 1.000000 -1.000000
vt 1.000000 1.000000
vt 0.000000 1.000000
s 1
usemtl Material.003
f 903/69/86 902/70/86 901/71/86
f 903/69/86 901/71/86 904/72/86
f 907/69/87 906/70/87 905/71/87
f 907/69/87 905/71/87 908/72/87
f 911/69/88 910/70/88 909/71/88
f 911/69/88 909/71/88 912/72/88
f 915/69/89 914/70/89 913/71/90
f 915/69/89 913/71/90 916/72/90
f 919/73/91 918/74/91 917/70/91
f 919/73/91 917/70/91 920/69/91
f 923/73/92 922/74/92 921/70/92
f 923/73/92 921/70/92 924/69/92
o Pirámide_15
v -1.353858 0.278867 13.925732
v -0.854358 0.580691 13.709922
v -0.853358 0.580691 13.709922
v -0.353858 0.278867 13.925732
v -0.353858 0.278867 13.493682
v -0.853358 0.580691 13.709492
v -0.854358 0.580691 13.709492
v -1.353858 0.278867 13.493682
v -0.353858 0.278867 13.925732
v -0.853358 0.580691 13.709922
v -0.853358 0.580691 13.709492
v -0.353858 0.278867 13.493682
v -1.353858 0.278867 13.493682
v -0.854358 0.580691 13.709492
v -0.854358 0.580691 13.709922
v -1.353858 0.278867 13.925732
v -0.853358 0.580691 13.709492
v -0.853358 0.580691 13.709922
v -0.854358 0.580691 13.709922
v -0.854358 0.580691 13.709492
v -1.353858 0.278867 13.493682
v -1.353858 0.278867 13.925732
v -0.353858 0.278867 13.925732
v -0.353858 0.278867 13.493682
vn -0.0000 0.4469 0.8946
vn -0.0000 0.4469 -0.8946
vn 0.8946 0.4469 -0.0000
vn 0.8946 0.4468 -0.0000
vn -0.8946 0.4469 -0.0000
vn -0.8946 0.4468 -0.0000
vn -0.0000 1.0000 -0.0000
vn -0.0000 -1.0000 -0.0000
vt 1.000000 0.000000
vt 0.000000 0.000000
vt 0.000000 -1.000000
vt 1.000000 -1.000000
vt 1.000000 1.000000
vt 0.000000 1.000000
s 1
usemtl Material.003
f 927/75/93 926/76/93 925/77/93
f 927/75/93 925/77/93 928/78/93
f 931/75/94 930/76/94 929/77/94
f 931/75/94 929/77/94 932/78/94
f 935/75/95 934/76/96 933/77/96
f 935/75/95 933/77/96 936/78/96
f 939/75/97 938/76/98 937/77/98
f 939/75/97 937/77/98 940/78/98
f 943/79/99 942/80/99 941/76/99
f 943/79/99 941/76/99 944/75/99
f 947/79/100 946/80/100 945/76/100
f 947/79/100 945/76/100 948/75/100
o Pirámide_16
v 0.346032 0.278867 15.957842
v 0.845532 0.580691 15.742032
v 0.846532 0.580691 15.742032
v 1.346032 0.278867 15.957842
v 1.346032 0.278867 15.525792
v 0.846532 0.580691 15.741602
v 0.845532 0.580691 15.741602
v 0.346032 0.278867 15.525792
v 1.346032 0.278867 15.957842
v 0.846532 0.580691 15.742032
v 0.846532 0.580691 15.741602
v 1.346032 0.278867 15.525792
v 0.346032 0.278867 15.525792
v 0.845532 0.580691 15.741602
v 0.845532 0.580691 15.742032
v 0.346032 0.278867 15.957842
v 0.846532 0.580691 15.741602
v 0.846532 0.580691 15.742032
v 0.845532 0.580691 15.742032
v 0.845532 0.580691 15.741602
v 0.346032 0.278867 15.525792
v 0.346032 0.278867 15.957842
v 1.346032 0.278867 15.957842
v 1.346032 0.278867 15.525792
vn -0.0000 0.4469 0.8946
vn -0.0000 0.4469 -0.8946
vn 0.8946 0.4468 -0.0000
vn -0.8946 0.4469 -0.0000
vn -0.8946 0.4468 -0.0000
vn -0.0000 1.0000 -0.0000
vn -0.0000 -1.0000 -0.0000
vt 0.999967 -0.007047
vt 0.000033 0.007047
vt -0.009367 -0.992887
vt 0.990567 -1.006981
vt 1.000000 0.000000
vt 0.000000 0.000000
vt 0.000000 -1.000000
vt 1.000000 -1.000000
vt 1.009367 0.992887
vt 0.009433 1.006981
vt 1.000000 1.000000
vt 0.000000 1.000000
s 1
usemtl Material.003
f 951/81/101 950/82/101 949/83/101
f 951/81/101 949/83/101 952/84/101
f 955/85/102 954/86/102 953/87/102
f 955/85/102 953/87/102 956/88/102
f 959/85/103 958/86/103 957/87/103
f 959/85/103 957/87/103 960/88/103
f 963/85/104 962/86/105 961/87/105
f 963/85/104 961/87/105 964/88/105
f 967/89/106 966/90/106 965/82/106
f 967/89/106 965/82/106 968/81/106
f 971/91/107 970/92/107 969/86/107
f 971/91/107 969/86/107 972/85/107
o Pirámide_17
v -1.353858 0.278867 15.957191
v -0.854358 0.580691 15.741382
v -0.853358 0.580691 15.741382
v -0.353858 0.278867 15.957191
v -0.353858 0.278867 15.525142
v -0.853358 0.580691 15.740952
v -0.854358 0.580691 15.740952
v -1.353858 0.278867 15.525142
v -0.353858 0.278867 15.957191
v -0.853358 0.580691 15.741382
v -0.853358 0.580691 15.740952
v -0.353858 0.278867 15.525142
v -1.353858 0.278867 15.525142
v -0.854358 0.580691 15.740952
v -0.854358 0.580691 15.741382
v -1.353858 0.278867 15.957191
v -0.853358 0.580691 15.740952
v -0.853358 0.580691 15.741382
v -0.854358 0.580691 15.741382
v -0.854358 0.580691 15.740952
v -1.353858 0.278867 15.525142
v -1.353858 0.278867 15.957191
v -0.353858 0.278867 15.957191
v -0.353858 0.278867 15.525142
vn -0.0000 0.4469 0.8946
vn -0.0000 0.4469 -0.8946
vn 0.8946 0.4469 -0.0000
vn 0.8946 0.4468 -0.0000
vn -0.8946 0.4469 -0.0000
vn -0.8946 0.4468 -0.0000
vn -0.0000 1.0000 -0.0000
vn -0.0000 -1.0000 -0.0000
vt 1.000000 0.000000
vt 0.000000 0.000000
vt 0.000000 -1.000000
vt 1.000000 -1.000000
vt 1.000000 1.000000
vt 0.000000 1.000000
s 1
usemtl Material.003
f 975/93/108 974/94/108 973/95/108
f 975/93/108 973/95/108 976/96/108
f 979/93/109 978/94/109 977/95/109
f 979/93/109 977/95/109 980/96/109
f 983/93/110 982/94/110 981/95/111
f 983/93/110 981/95/111 984/96/111
f 987/93/112 986/94/113 985/95/113
f 987/93/112 985/95/113 988/96/112
f 991/97/114 990/98/114 989/94/114
f 991/97/114 989/94/114 992/93/114
f 995/97/115 994/98/115 993/94/115
f 995/97/115 993/94/115 996/93/115
o Pirámide_18
v -1.353858 0.278866 -2.057371
v -0.854358 0.580690 -2.273178
v -0.853358 0.580690 -2.273178
v -0.353858 0.278866 -2.057371
v -0.353858 0.278866 -2.489417
v -0.853358 0.580690 -2.273610
v -0.854358 0.580690 -2.273610
v -1.353858 0.278866 -2.489417
v -0.353858 0.278866 -2.057371
v -0.853358 0.580690 -2.273178
v -0.853358 0.580690 -2.273610
v -0.353858 0.278866 -2.489417
v -1.353858 0.278866 -2.489417
v -0.854358 0.580690 -2.273610
v -0.854358 0.580690 -2.273178
v -1.353858 0.278866 -2.057371
v -0.853358 0.580690 -2.273610
v -0.853358 0.580690 -2.273178
v -0.854358 0.580690 -2.273178
v -0.854358 0.580690 -2.273610
v -1.353858 0.278866 -2.489417
v -1.353858 0.278866 -2.057371
v -0.353858 0.278866 -2.057371
v -0.353858 0.278866 -2.489417
vn -0.0000 0.4469 0.8946
vn -0.0000 0.4469 -0.8946
vn 0.8946 0.4468 -0.0000
vn -0.8946 0.4468 -0.0000
vn -0.0000 1.0000 -0.0000
vn -0.0000 -1.0000 -0.0000
vt 1.000000 0.000000
vt 0.000000 0.000000
vt 0.000000 -1.000000
vt 1.000000 -1.000000
vt 1.000000 1.000000
vt 0.000000 1.000000
s 1
usemtl Material.003
f 999/99/116 998/100/116 997/101/116
f 999/99/116 997/101/116 1000/102/116
f 1003/99/117 1002/100/117 1001/101/117
f 1003/99/117 1001/101/117 1004/102/117
f 1007/99/118 1006/100/118 1005/101/118
f 1007/99/118 1005/101/118 1008/102/118
f 1011/99/119 1010/100/119 1009/101/119
f 1011/99/119 1009/101/119 1012/102/119
f 1015/103/120 1014/104/120 1013/100/120
f 1015/103/120 1013/100/120 1016/99/120
f 1019/103/121 1018/104/121 1017/100/121
f 1019/103/121 1017/100/121 1020/99/121
o Pirámide_19
v 0.346032 0.278866 -2.036324
v 0.845532 0.580690 -2.252131
v 0.846532 0.580690 -2.252131
v 1.346032 0.278866 -2.036324
v 1.346032 0.278866 -2.468371
v 0.846532 0.580690 -2.252563
v 0.845532 0.580690 -2.252563
v 0.346032 0.278866 -2.468371
v 1.346032 0.278866 -2.036324
v 0.846532 0.580690 -2.252131
v 0.846532 0.580690 -2.252563
v 1.346032 0.278866 -2.468371
v 0.346032 0.278866 -2.468371
v 0.845532 0.580690 -2.252563
v 0.845532 0.580690 -2.252131
v 0.346032 0.278866 -2.036324
v 0.846532 0.580690 -2.252563
v 0.846532 0.580690 -2.252131
v 0.845532 0.580690 -2.252131
v 0.845532 0.580690 -2.252563
v 0.346032 0.278866 -2.468371
v 0.346032 0.278866 -2.036324
v 1.346032 0.278866 -2.036324
v 1.346032 0.278866 -2.468371
vn -0.0000 0.4469 0.8946
vn -0.0000 0.4469 -0.8946
vn 0.8946 0.4469 -0.0000
vn 0.8946 0.4468 -0.0000
vn -0.8946 0.4469 -0.0000
vn -0.8946 0.4468 -0.0000
vn -0.0000 1.0000 -0.0000
vn -0.0000 -1.0000 -0.0000
vt 1.000000 0.000000
vt 0.000000 0.000000
vt 0.000000 -1.000000
vt 1.000000 -1.000000
vt 1.000000 1.000000
vt 0.000000 1.000000
s 1
usemtl Material.003
f 1023/105/122 1022/106/122 1021/107/122
f 1023/105/122 1021/107/122 1024/108/122
f 1027/105/123 1026/106/123 1025/107/123
f 1027/105/123 1025/107/123 1028/108/123
f 1031/105/124 1030/106/124 1029/107/125
f 1031/105/124 1029/107/125 1032/108/125
f 1035/105/126 1034/106/126 1033/107/127
f 1035/105/126 1033/107/127 1036/108/127
f 1039/109/128 1038/110/128 1037/106/128
f 1039/109/128 1037/106/128 1040/105/128
f 1043/109/129 1042/110/129 1041/106/129
f 1043/109/129 1041/106/129 1044/105/129
o Pirámide_2
v 0.346032 0.278866 1.907437
v 0.845532 0.580690 1.691630
v 0.846532 0.580690 1.691630
v 1.346032 0.278866 1.907437
v 1.346032 0.278866 1.475391
v 0.846532 0.580690 1.691198
v 0.845532 0.580690 1.691198
v 0.346032 0.278866 1.475391
v 1.346032 0.278866 1.907437
v 0.846532 0.580690 1.691630
v 0.846532 0.580690 1.691198
v 1.346032 0.278866 1.475391
v 0.346032 0.278866 1.475391
v 0.845532 0.580690 1.691198
v 0.845532 0.580690 1.691630
v 0.346032 0.278866 1.907437
v 0.846532 0.580690 1.691198
v 0.846532 0.580690 1.691630
v 0.845532 0.580690 1.691630
v 0.845532 0.580690 1.691198
v 0.346032 0.278866 1.475391
v 0.346032 0.278866 1.907437
v 1.346032 0.278866 1.907437
v 1.346032 0.278866 1.475391
vn -0.0000 0.4469 0.8946
vn -0.0000 0.4469 -0.8946
vn 0.8946 0.4469 -0.0000
vn 0.8946 0.4468 -0.0000
vn -0.8946 0.4469 -0.0000
vn -0.8946 0.4468 -0.0000
vn -0.0000 1.0000 -0.0000
vn -0.0000 -1.0000 -0.0000
vt 1.000000 0.000000
vt 0.000000 0.000000
vt 0.000000 -1.000000
vt 1.000000 -1.000000
vt 1.000000 1.000000
vt 0.000000 1.000000
s 1
usemtl Material.003
f 1047/111/130 1046/112/130 1045/113/130
f 1047/111/130 1045/113/130 1048/114/130
f 1051/111/131 1050/112/131 1049/113/131
f 1051/111/131 1049/113/131 1052/114/131
f 1055/111/132 1054/112/132 1053/113/133
f 1055/111/132 1053/113/133 1056/114/133
f 1059/111/134 1058/112/135 1057/113/135
f 1059/111/134 1057/113/135 1060/114/135
f 1063/115/136 1062/116/136 1061/112/136
f 1063/115/136 1061/112/136 1064/111/136
f 1067/115/137 1066/116/137 1065/112/137
f 1067/115/137 1065/112/137 1068/111/137
o Pirámide_20
v -1.353858 0.278866 -4.057759
v -0.854358 0.580690 -4.273566
v -0.853358 0.580690 -4.273566
v -0.353858 0.278866 -4.057759
v -0.353858 0.278866 -4.489806
v -0.853358 0.580690 -4.273998
v -0.854358 0.580690 -4.273998
v -1.353858 0.278866 -4.489806
v -0.353858 0.278866 -4.057759
v -0.853358 0.580690 -4.273566
v -0.853358 0.580690 -4.273998
v -0.353858 0.278866 -4.489806
v -1.353858 0.278866 -4.489806
v -0.854358 0.580690 -4.273998
v -0.854358 0.580690 -4.273566
v -1.353858 0.278866 -4.057759
v -0.853358 0.580690 -4.273998
v -0.853358 0.580690 -4.273566
v -0.854358 0.580690 -4.273566
v -0.854358 0.580690 -4.273998
v -1.353858 0.278866 -4.489806
v -1.353858 0.278866 -4.057759
v -0.353858 0.278866 -4.057759
v -0.353858 0.278866 -4.489806
vn -0.0000 0.4469 0.8946
vn -0.0000 0.4469 -0.8946
vn 0.8946 0.4468 -0.0000
vn -0.8946 0.4468 -0.0000
vn -0.0000 1.0000 -0.0000
vn -0.0000 -1.0000 -0.0000
vt 1.000000 0.000000
vt 0.000000 0.000000
vt 0.000000 -1.000000
vt 1.000000 -1.000000
vt 1.000000 1.000000
vt 0.000000 1.000000
s 1
usemtl Material.003
f 1071/117/138 1070/118/138 1069/119/138
f 1071/117/138 1069/119/138 1072/120/138
f 1075/117/139 1074/118/139 1073/119/139
f 1075/117/139 1073/119/139 1076/120/139
f 1079/117/140 1078/118/140 1077/119/140
f 1079/117/140 1077/119/140 1080/120/140
f 1083/117/141 1082/118/141 1081/119/141
f 1083/117/141 1081/119/141 1084/120/141
f 1087/121/142 1086/122/142 1085/118/142
f 1087/121/142 1085/118/142 1088/117/142
f 1091/121/143 1090/122/143 1089/118/143
f 1091/121/143 1089/118/143 1092/117/143
o Pirámide_21
v 0.346032 0.278866 -4.084401
v 0.845532 0.580690 -4.300208
v 0.846532 0.580690 -4.300208
v 1.346032 0.278866 -4.084401
v 1.346032 0.278866 -4.516448
v 0.846532 0.580690 -4.300640
v 0.845532 0.580690 -4.300640
v 0.346032 0.278866 -4.516448
v 1.346032 0.278866 -4.084401
v 0.846532 0.580690 -4.300208
v 0.846532 0.580690 -4.300640
v 1.346032 0.278866 -4.516448
v 0.346032 0.278866 -4.516448
v 0.845532 0.580690 -4.300640
v 0.845532 0.580690 -4.300208
v 0.346032 0.278866 -4.084401
v 0.846532 0.580690 -4.300640
v 0.846532 0.580690 -4.300208
v 0.845532 0.580690 -4.300208
v 0.845532 0.580690 -4.300640
v 0.346032 0.278866 -4.516448
v 0.346032 0.278866 -4.084401
v 1.346032 0.278866 -4.084401
v 1.346032 0.278866 -4.516448
vn -0.0000 0.4469 0.8946
vn -0.0000 0.4469 -0.8946
vn 0.8946 0.4469 -0.0000
vn 0.8946 0.4468 -0.0000
vn -0.8946 0.4468 -0.0000
vn -0.8946 0.4469 -0.0000
vn -0.0000 1.0000 -0.0000
vn -0.0000 -1.0000 -0.0000
vt 1.000000 0.000000
vt 0.000000 0.000000
vt 0.000000 -1.000000
vt 1.000000 -1.000000
vt 1.000000 1.000000
vt 0.000000 1.000000
s 1
usemtl Material.003
f 1095/123/144 1094/124/144 1093/125/144
f 1095/123/144 1093/125/144 1096/126/144
f 1099/123/145 1098/124/145 1097/125/145
f 1099/123/145 1097/125/145 1100/126/145
f 1103/123/146 1102/124/146 1101/125/147
f 1103/123/146 1101/125/147 1104/126/147
f 1107/123/148 1106/124/149 1105/125/148
f 1107/123/148 1105/125/148 1108/126/148
f 1111/127/150 1110/128/150 1109/124/150
f 1111/127/150 1109/124/150 1112/123/150
f 1115/127/151 1114/128/151 1113/124/151
f 1115/127/151 1113/124/151 1116/123/151
o Pirámide_22
v -1.353858 0.278866 -6.060220
v -0.854358 0.580690 -6.276028
v -0.853358 0.580690 -6.276028
v -0.353858 0.278866 -6.060220
v -0.353858 0.278866 -6.492267
v -0.853358 0.580690 -6.276460
v -0.854358 0.580690 -6.276460
v -1.353858 0.278866 -6.492267
v -0.353858 0.278866 -6.060220
v -0.853358 0.580690 -6.276028
v -0.853358 0.580690 -6.276460
v -0.353858 0.278866 -6.492267
v -1.353858 0.278866 -6.492267
v -0.854358 0.580690 -6.276460
v -0.854358 0.580690 -6.276028
v -1.353858 0.278866 -6.060220
v -0.853358 0.580690 -6.276460
v -0.853358 0.580690 -6.276028
v -0.854358 0.580690 -6.276028
v -0.854358 0.580690 -6.276460
v -1.353858 0.278866 -6.492267
v -1.353858 0.278866 -6.060220
v -0.353858 0.278866 -6.060220
v -0.353858 0.278866 -6.492267
vn -0.0000 0.4469 0.8946
vn -0.0000 0.4469 -0.8946
vn 0.8946 0.4468 -0.0000
vn -0.8946 0.4468 -0.0000
vn -0.0000 1.0000 -0.0000
vn -0.0000 -1.0000 -0.0000
vt 1.000000 0.000000
vt 0.000000 0.000000
vt 0.000000 -1.000000
vt 1.000000 -1.000000
vt 1.000000 1.000000
vt 0.000000 1.000000
s 1
usemtl Material.003
f 1119/129/152 1118/130/152 1117/131/152
f 1119/129/152 1117/131/152 1120/132/152
f 1123/129/153 1122/130/153 1121/131/153
f 1123/129/153 1121/131/153 1124/132/153
f 1127/129/154 1126/130/154 1125/131/154
f 1127/129/154 1125/131/154 1128/132/154
f 1131/129/155 1130/130/155 1129/131/155
f 1131/129/155 1129/131/155 1132/132/155
f 1135/133/156 1134/134/156 1133/130/156
f 1135/133/156 1133/130/156 1136/129/156
f 1139/133/157 1138/134/157 1137/130/157
f 1139/133/157 1137/130/157 1140/129/157
o Pirámide_23
v 0.346032 0.278866 -6.050695
v 0.845532 0.580690 -6.266503
v 0.846532 0.580690 -6.266503
v 1.346032 0.278866 -6.050695
v 1.346032 0.278866 -6.482742
v 0.846532 0.580690 -6.266935
v 0.845532 0.580690 -6.266935
v 0.346032 0.278866 -6.482742
v 1.346032 0.278866 -6.050695
v 0.846532 0.580690 -6.266503
v 0.846532 0.580690 -6.266935
v 1.346032 0.278866 -6.482742
v 0.346032 0.278866 -6.482742
v 0.845532 0.580690 -6.266935
v 0.845532 0.580690 -6.266503
v 0.346032 0.278866 -6.050695
v 0.846532 0.580690 -6.266935
v 0.846532 0.580690 -6.266503
v 0.845532 0.580690 -6.266503
v 0.845532 0.580690 -6.266935
v 0.346032 0.278866 -6.482742
v 0.346032 0.278866 -6.050695
v 1.346032 0.278866 -6.050695
v 1.346032 0.278866 -6.482742
vn -0.0000 0.4469 0.8946
vn -0.0000 0.4469 -0.8946
vn 0.8946 0.4468 -0.0000
vn -0.8946 0.4469 -0.0000
vn -0.8946 0.4468 -0.0000
vn -0.0000 1.0000 -0.0000
vn -0.0000 -1.0000 -0.0000
vt 1.000000 0.000000
vt 0.000000 0.000000
vt 0.000000 -1.000000
vt 1.000000 -1.000000
vt 1.000000 1.000000
vt 0.000000 1.000000
s 1
usemtl Material.003
f 1143/135/158 1142/136/158 1141/137/158
f 1143/135/158 1141/137/158 1144/138/158
f 1147/135/159 1146/136/159 1145/137/159
f 1147/135/159 1145/137/159 1148/138/159
f 1151/135/160 1150/136/160 1149/137/160
f 1151/135/160 1149/137/160 1152/138/160
f 1155/135/161 1154/136/161 1153/137/162
f 1155/135/161 1153/137/162 1156/138/162
f 1159/139/163 1158/140/163 1157/136/163
f 1159/139/163 1157/136/163 1160/135/163
f 1163/139/164 1162/140/164 1161/136/164
f 1163/139/164 1161/136/164 1164/135/164
o Pirámide_24
v -1.353858 0.278865 -8.036786
v -0.854358 0.580689 -8.252593
v -0.853358 0.580689 -8.252593
v -0.353858 0.278865 -8.036786
v -0.353858 0.278865 -8.468833
v -0.853358 0.580689 -8.253026
v -0.854358 0.580689 -8.253026
v -1.353858 0.278865 -8.468833
v -0.353858 0.278865 -8.036786
v -0.853358 0.580689 -8.252593
v -0.853358 0.580689 -8.253026
v -0.353858 0.278865 -8.468833
v -1.353858 0.278865 -8.468833
v -0.854358 0.580689 -8.253026
v -0.854358 0.580689 -8.252593
v -1.353858 0.278865 -8.036786
v -0.853358 0.580689 -8.253026
v -0.853358 0.580689 -8.252593
v -0.854358 0.580689 -8.252593
v -0.854358 0.580689 -8.253026
v -1.353858 0.278865 -8.468833
v -1.353858 0.278865 -8.036786
v -0.353858 0.278865 -8.036786
v -0.353858 0.278865 -8.468833
vn -0.0000 0.4469 0.8946
vn -0.0000 0.4469 -0.8946
vn 0.8946 0.4469 -0.0000
vn 0.8946 0.4468 -0.0000
vn -0.8946 0.4468 -0.0000
vn -0.8946 0.4469 -0.0000
vn -0.0000 1.0000 -0.0000
vn -0.0000 -1.0000 -0.0000
vt 1.000000 0.000000
vt 0.000000 0.000000
vt 0.000000 -1.000000
vt 1.000000 -1.000000
vt 1.000000 1.000000
vt 0.000000 1.000000
s 1
usemtl Material.003
f 1167/141/165 1166/142/165 1165/143/165
f 1167/141/165 1165/143/165 1168/144/165
f 1171/141/166 1170/142/166 1169/143/166
f 1171/141/166 1169/143/166 1172/144/166
f 1175/141/167 1174/142/167 1173/143/168
f 1175/141/167 1173/143/168 1176/144/168
f 1179/141/169 1178/142/170 1177/143/169
f 1179/141/169 1177/143/169 1180/144/169
f 1183/145/171 1182/146/171 1181/142/171
f 1183/145/171 1181/142/171 1184/141/171
f 1187/145/172 1186/146/172 1185/142/172
f 1187/145/172 1185/142/172 1188/141/172
o Pirámide_25
v 0.346032 0.278865 -8.038714
v 0.845532 0.580689 -8.254521
v 0.846532 0.580689 -8.254521
v 1.346032 0.278865 -8.038714
v 1.346032 0.278865 -8.470761
v 0.846532 0.580689 -8.254954
v 0.845532 0.580689 -8.254954
v 0.346032 0.278865 -8.470761
v 1.346032 0.278865 -8.038714
v 0.846532 0.580689 -8.254521
v 0.846532 0.580689 -8.254954
v 1.346032 0.278865 -8.470761
v 0.346032 0.278865 -8.470761
v 0.845532 0.580689 -8.254954
v 0.845532 0.580689 -8.254521
v 0.346032 0.278865 -8.038714
v 0.846532 0.580689 -8.254954
v 0.846532 0.580689 -8.254521
v 0.845532 0.580689 -8.254521
v 0.845532 0.580689 -8.254954
v 0.346032 0.278865 -8.470761
v 0.346032 0.278865 -8.038714
v 1.346032 0.278865 -8.038714
v 1.346032 0.278865 -8.470761
vn -0.0000 0.4469 0.8946
vn -0.0000 0.4469 -0.8946
vn 0.8946 0.4468 -0.0000
vn 0.8946 0.4469 -0.0000
vn -0.8946 0.4468 -0.0000
vn -0.8946 0.4469 -0.0000
vn -0.0000 1.0000 -0.0000
vn -0.0000 -1.0000 -0.0000
vt 1.000000 0.000000
vt 0.000000 0.000000
vt 0.000000 -1.000000
vt 1.000000 -1.000000
vt 1.000000 1.000000
vt 0.000000 1.000000
s 1
usemtl Material.003
f 1191/147/173 1190/148/173 1189/149/173
f 1191/147/173 1189/149/173 1192/150/173
f 1195/147/174 1194/148/174 1193/149/174
f 1195/147/174 1193/149/174 1196/150/174
f 1199/147/175 1198/148/176 1197/149/175
f 1199/147/175 1197/149/175 1200/150/175
f 1203/147/177 1202/148/178 1201/149/177
f 1203/147/177 1201/149/177 1204/150/177
f 1207/151/179 1206/152/179 1205/148/179
f 1207/151/179 1205/148/179 1208/147/179
f 1211/151/180 1210/152/180 1209/148/180
f 1211/151/180 1209/148/180 1212/147/180
o Pirámide_26
v 0.346032 0.278866 -10.059158
v 0.845532 0.580689 -10.274968
v 0.846532 0.580689 -10.274968
v 1.346032 0.278866 -10.059158
v 1.346032 0.278866 -10.491199
v 0.846532 0.580689 -10.275398
v 0.845532 0.580689 -10.275398
v 0.346032 0.278866 -10.491199
v 1.346032 0.278866 -10.059158
v 0.846532 0.580689 -10.274968
v 0.846532 0.580689 -10.275398
v 1.346032 0.278866 -10.491199
v 0.346032 0.278866 -10.491199
v 0.845532 0.580689 -10.275398
v 0.845532 0.580689 -10.274968
v 0.346032 0.278866 -10.059158
v 0.846532 0.580689 -10.275398
v 0.846532 0.580689 -10.274968
v 0.845532 0.580689 -10.274968
v 0.845532 0.580689 -10.275398
v 0.346032 0.278866 -10.491199
v 0.346032 0.278866 -10.059158
v 1.346032 0.278866 -10.059158
v 1.346032 0.278866 -10.491199
vn -0.0000 0.4469 0.8946
vn -0.0000 0.4469 -0.8946
vn 0.8946 0.4468 -0.0000
vn -0.8946 0.4468 -0.0000
vn -0.8946 0.4469 -0.0000
vn -0.0000 1.0000 -0.0000
vn -0.0000 -1.0000 -0.0000
vt 1.000000 0.000000
vt 0.000000 0.000000
vt 0.000000 -1.000000
vt 1.000000 -1.000000
vt 1.000000 1.000000
vt 0.000000 1.000000
s 1
usemtl Material.003
f 1215/153/181 1214/154/181 1213/155/181
f 1215/153/181 1213/155/181 1216/156/181
f 1219/153/182 1218/154/182 1217/155/182
f 1219/153/182 1217/155/182 1220/156/182
f 1223/153/183 1222/154/183 1221/155/183
f 1223/153/183 1221/155/183 1224/156/183
f 1227/153/184 1226/154/185 1225/155/184
f 1227/153/184 1225/155/184 1228/156/184
f 1231/157/186 1230/158/186 1229/154/186
f 1231/157/186 1229/154/186 1232/153/186
f 1235/157/187 1234/158/187 1233/154/187
f 1235/157/187 1233/154/187 1236/153/187
o Pirámide_27
v -1.353858 0.278865 -10.069208
v -0.854358 0.580689 -10.285018
v -0.853358 0.580689 -10.285018
v -0.353858 0.278865 -10.069208
v -0.353858 0.278865 -10.501258
v -0.853358 0.580689 -10.285448
v -0.854358 0.580689 -10.285448
v -1.353858 0.278865 -10.501258
v -0.353858 0.278865 -10.069208
v -0.853358 0.580689 -10.285018
v -0.853358 0.580689 -10.285448
v -0.353858 0.278865 -10.501258
v -1.353858 0.278865 -10.501258
v -0.854358 0.580689 -10.285448
v -0.854358 0.580689 -10.285018
v -1.353858 0.278865 -10.069208
v -0.853358 0.580689 -10.285448
v -0.853358 0.580689 -10.285018
v -0.854358 0.580689 -10.285018
v -0.854358 0.580689 -10.285448
v -1.353858 0.278865 -10.501258
v -1.353858 0.278865 -10.069208
v -0.353858 0.278865 -10.069208
v -0.353858 0.278865 -10.501258
vn -0.0000 0.4469 0.8946
vn -0.0000 0.4469 -0.8946
vn 0.8946 0.4468 -0.0000
vn -0.8946 0.4469 -0.0000
vn -0.8946 0.4468 -0.0000
vn -0.0000 1.0000 -0.0000
vn -0.0000 -1.0000 -0.0000
vt 1.000000 0.000000
vt 0.000000 0.000000
vt 0.000000 -1.000000
vt 1.000000 -1.000000
vt 1.000000 1.000000
vt 0.000000 1.000000
s 1
usemtl Material.003
f 1239/159/188 1238/160/188 1237/161/188
f 1239/159/188 1237/161/188 1240/162/188
f 1243/159/189 1242/160/189 1241/161/189
f 1243/159/189 1241/161/189 1244/162/189
f 1247/159/190 1246/160/190 1245/161/190
f 1247/159/190 1245/161/190 1248/162/190
f 1251/159/191 1250/160/192 1249/161/192
f 1251/159/191 1249/161/192 1252/162/192
f 1255/163/193 1254/164/193 1253/160/193
f 1255/163/193 1253/160/193 1256/159/193
f 1259/163/194 1258/164/194 1257/160/194
f 1259/163/194 1257/160/194 1260/159/194
o Pirámide_28
v 0.346032 0.278866 -12.077138
v 0.845532 0.580689 -12.292949
v 0.846532 0.580689 -12.292949
v 1.346032 0.278866 -12.077138
v 1.346032 0.278866 -12.509189
v 0.846532 0.580689 -12.293378
v 0.845532 0.580689 -12.293378
v 0.346032 0.278866 -12.509189
v 1.346032 0.278866 -12.077138
v 0.846532 0.580689 -12.292949
v 0.846532 0.580689 -12.293378
v 1.346032 0.278866 -12.509189
v 0.346032 0.278866 -12.509189
v 0.845532 0.580689 -12.293378
v 0.845532 0.580689 -12.292949
v 0.346032 0.278866 -12.077138
v 0.846532 0.580689 -12.293378
v 0.846532 0.580689 -12.292949
v 0.845532 0.580689 -12.292949
v 0.845532 0.580689 -12.293378
v 0.346032 0.278866 -12.509189
v 0.346032 0.278866 -12.077138
v 1.346032 0.278866 -12.077138
v 1.346032 0.278866 -12.509189
vn -0.0000 0.4469 0.8946
vn -0.0000 0.4469 -0.8946
vn 0.8946 0.4468 -0.0000
vn -0.8946 0.4468 -0.0000
vn -0.0000 1.0000 -0.0000
vn -0.0000 -1.0000 -0.0000
vt 1.000000 0.000000
vt 0.000000 0.000000
vt 0.000000 -1.000000
vt 1.000000 -1.000000
vt 1.000000 1.000000
vt 0.000000 1.000000
s 1
usemtl Material.003
f 1263/165/195 1262/166/195 1261/167/195
f 1263/165/195 1261/167/195 1264/168/195
f 1267/165/196 1266/166/196 1265/167/196
f 1267/165/196 1265/167/196 1268/168/196
f 1271/165/197 1270/166/197 1269/167/197
f 1271/165/197 1269/167/197 1272/168/197
f 1275/165/198 1274/166/198 1273/167/198
f 1275/165/198 1273/167/198 1276/168/198
f 1279/169/199 1278/170/199 1277/166/199
f 1279/169/199 1277/166/199 1280/165/199
f 1283/169/200 1282/170/200 1281/166/200
f 1283/169/200 1281/166/200 1284/165/200
o Pirámide_29
v 0.346032 0.278866 -14.074529
v 0.845532 0.580689 -14.290339
v 0.846532 0.580689 -14.290339
v 1.346032 0.278866 -14.074529
v 1.346032 0.278866 -14.506578
v 0.846532 0.580689 -14.290769
v 0.845532 0.580689 -14.290769
v 0.346032 0.278866 -14.506578
v 1.346032 0.278866 -14.074529
v 0.846532 0.580689 -14.290339
v 0.846532 0.580689 -14.290769
v 1.346032 0.278866 -14.506578
v 0.346032 0.278866 -14.506578
v 0.845532 0.580689 -14.290769
v 0.845532 0.580689 -14.290339
v 0.346032 0.278866 -14.074529
v 0.846532 0.580689 -14.290769
v 0.846532 0.580689 -14.290339
v 0.845532 0.580689 -14.290339
v 0.845532 0.580689 -14.290769
v 0.346032 0.278866 -14.506578
v 0.346032 0.278866 -14.074529
v 1.346032 0.278866 -14.074529
v 1.346032 0.278866 -14.506578
vn -0.0000 0.4469 0.8946
vn -0.0000 0.4469 -0.8946
vn 0.8946 0.4468 -0.0000
vn 0.8946 0.4469 -0.0000
vn -0.8946 0.4468 -0.0000
vn -0.8946 0.4469 -0.0000
vn -0.0000 1.0000 -0.0000
vn -0.0000 -1.0000 -0.0000
vt 1.000000 0.000000
vt 0.000000 0.000000
vt 0.000000 -1.000000
vt 1.000000 -1.000000
vt 1.000000 1.000000
vt 0.000000 1.000000
s 1
usemtl Material.003
f 1287/171/201 1286/172/201 1285/173/201
f 1287/171/201 1285/173/201 1288/174/201
f 1291/171/202 1290/172/202 1289/173/202
f 1291/171/202 1289/173/202 1292/174/202
f 1295/171/203 1294/172/203 1293/173/203
f 1295/171/203 1293/173/203 1296/174/204
f 1299/171/205 1298/172/206 1297/173/205
f 1299/171/205 1297/173/205 1300/174/205
f 1303/175/207 1302/176/207 1301/172/207
f 1303/175/207 1301/172/207 1304/171/207
f 1307/175/208 1306/176/208 1305/172/208
f 1307/175/208 1305/172/208 1308/171/208
o Pirámide_3
v -1.353858 0.278866 1.937852
v -0.854358 0.580690 1.722044
v -0.853358 0.580690 1.722044
v -0.353858 0.278866 1.937852
v -0.353858 0.278866 1.505805
v -0.853358 0.580690 1.721612
v -0.854358 0.580690 1.721612
v -1.353858 0.278866 1.505805
v -0.353858 0.278866 1.937852
v -0.853358 0.580690 1.722044
v -0.853358 0.580690 1.721612
v -0.353858 0.278866 1.505805
v -1.353858 0.278866 1.505805
v -0.854358 0.580690 1.721612
v -0.854358 0.580690 1.722044
v -1.353858 0.278866 1.937852
v -0.853358 0.580690 1.721612
v -0.853358 0.580690 1.722044
v -0.854358 0.580690 1.722044
v -0.854358 0.580690 1.721612
v -1.353858 0.278866 1.505805
v -1.353858 0.278866 1.937852
v -0.353858 0.278866 1.937852
v -0.353858 0.278866 1.505805
vn -0.0000 0.4469 0.8946
vn -0.0000 0.4469 -0.8946
vn 0.8946 0.4469 -0.0000
vn 0.8946 0.4468 -0.0000
vn -0.8946 0.4468 -0.0000
vn -0.0000 1.0000 -0.0000
vn -0.0000 -1.0000 -0.0000
vt 1.000000 0.000000
vt 0.000000 0.000000
vt 0.000000 -1.000000
vt 1.000000 -1.000000
vt 1.000000 1.000000
vt 0.000000 1.000000
s 1
usemtl Material.003
f 1311/177/209 1310/178/209 1309/179/209
f 1311/177/209 1309/179/209 1312/180/209
f 1315/177/210 1314/178/210 1313/179/210
f 1315/177/210 1313/179/210 1316/180/210
f 1319/177/211 1318/178/212 1317/179/212
f 1319/177/211 1317/179/212 1320/180/212
f 1323/177/213 1322/178/213 1321/179/213
f 1323/177/213 1321/179/213 1324/180/213
f 1327/181/214 1326/182/214 1325/178/214
f 1327/181/214 1325/178/214 1328/177/214
f 1331/181/215 1330/182/215 1329/178/215
f 1331/181/215 1329/178/215 1332/177/215
o Pirámide_30
v -1.353858 0.278865 -12.070568
v -0.854358 0.580689 -12.286378
v -0.853358 0.580689 -12.286378
v -0.353858 0.278865 -12.070568
v -0.353858 0.278865 -12.502618
v -0.853358 0.580689 -12.286808
v -0.854358 0.580689 -12.286808
v -1.353858 0.278865 -12.502618
v -0.353858 0.278865 -12.070568
v -0.853358 0.580689 -12.286378
v -0.853358 0.580689 -12.286808
v -0.353858 0.278865 -12.502618
v -1.353858 0.278865 -12.502618
v -0.854358 0.580689 -12.286808
v -0.854358 0.580689 -12.286378
v -1.353858 0.278865 -12.070568
v -0.853358 0.580689 -12.286808
v -0.853358 0.580689 -12.286378
v -0.854358 0.580689 -12.286378
v -0.854358 0.580689 -12.286808
v -1.353858 0.278865 -12.502618
v -1.353858 0.278865 -12.070568
v -0.353858 0.278865 -12.070568
v -0.353858 0.278865 -12.502618
vn -0.0000 0.4469 0.8946
vn -0.0000 0.4469 -0.8946
vn 0.8946 0.4468 -0.0000
vn -0.8946 0.4469 -0.0000
vn -0.8946 0.4468 -0.0000
vn -0.0000 1.0000 -0.0000
vn -0.0000 -1.0000 -0.0000
vt 1.000000 0.000000
vt 0.000000 0.000000
vt 0.000000 -1.000000
vt 1.000000 -1.000000
vt 1.000000 1.000000
vt 0.000000 1.000000
s 1
usemtl Material.003
f 1335/183/216 1334/184/216 1333/185/216
f 1335/183/216 1333/185/216 1336/186/216
f 1339/183/217 1338/184/217 1337/185/217
f 1339/183/217 1337/185/217 1340/186/217
f 1343/183/218 1342/184/218 1341/185/218
f 1343/183/218 1341/185/218 1344/186/218
f 1347/183/219 1346/184/220 1345/185/220
f 1347/183/219 1345/185/220 1348/186/220
f 1351/187/221 1350/188/221 1349/184/221
f 1351/187/221 1349/184/221 1352/183/221
f 1355/187/222 1354/188/222 1353/184/222
f 1355/187/222 1353/184/222 1356/183/222
o Pirámide_31
v -1.353858 0.278865 -14.092858
v -0.854358 0.580689 -14.308659
v -0.853358 0.580689 -14.308659
v -0.353858 0.278865 -14.092858
v -0.353858 0.278865 -14.524899
v -0.853358 0.580689 -14.309098
v -0.854358 0.580689 -14.309098
v -1.353858 0.278865 -14.524899
v -0.353858 0.278865 -14.092858
v -0.853358 0.580689 -14.308659
v -0.853358 0.580689 -14.309098
v -0.353858 0.278865 -14.524899
v -1.353858 0.278865 -14.524899
v -0.854358 0.580689 -14.309098
v -0.854358 0.580689 -14.308659
v -1.353858 0.278865 -14.092858
v -0.853358 0.580689 -14.309098
v -0.853358 0.580689 -14.308659
v -0.854358 0.580689 -14.308659
v -0.854358 0.580689 -14.309098
v -1.353858 0.278865 -14.524899
v -1.353858 0.278865 -14.092858
v -0.353858 0.278865 -14.092858
v -0.353858 0.278865 -14.524899
vn -0.0000 0.4469 0.8946
vn -0.0000 0.4469 -0.8946
vn 0.8946 0.4468 -0.0000
vn -0.8946 0.4468 -0.0000
vn -0.0000 1.0000 -0.0000
vn -0.0000 -1.0000 -0.0000
vt 1.000000 0.000000
vt 0.000000 0.000000
vt 0.000000 -1.000000
vt 1.000000 -1.000000
vt 1.000000 1.000000
vt 0.000000 1.000000
s 1
usemtl Material.003
f 1359/189/223 1358/190/223 1357/191/223
f 1359/189/223 1357/191/223 1360/192/223
f 1363/189/224 1362/190/224 1361/191/224
f 1363/189/224 1361/191/224 1364/192/224
f 1367/189/225 1366/190/225 1365/191/225
f 1367/189/225 1365/191/225 1368/192/225
f 1371/189/226 1370/190/226 1369/191/226
f 1371/189/226 1369/191/226 1372/192/226
f 1375/193/227 1374/194/227 1373/190/227
f 1375/193/227 1373/190/227 1376/189/227
f 1379/193/228 1378/194/228 1377/190/228
f 1379/193/228 1377/190/228 1380/189/228
o Pirámide_4
v 0.346032 0.278866 3.873483
v 0.845532 0.580690 3.657676
v 0.846532 0.580690 3.657676
v 1.346032 0.278866 3.873483
v 1.346032 0.278866 3.441437
v 0.846532 0.580690 3.657244
v 0.845532 0.580690 3.657244
v 0.346032 0.278866 3.441437
v 1.346032 0.278866 3.873483
v 0.846532 0.580690 3.657676
v 0.846532 0.580690 3.657244
v 1.346032 0.278866 3.441437
v 0.346032 0.278866 3.441437
v 0.845532 0.580690 3.657244
v 0.845532 0.580690 3.657676
v 0.346032 0.278866 3.873483
v 0.846532 0.580690 3.657244
v 0.846532 0.580690 3.657676
v 0.845532 0.580690 3.657676
v 0.845532 0.580690 3.657244
v 0.346032 0.278866 3.441437
v 0.346032 0.278866 3.873483
v 1.346032 0.278866 3.873483
v 1.346032 0.278866 3.441437
vn -0.0000 0.4469 0.8946
vn -0.0000 0.4469 -0.8946
vn 0.8946 0.4469 -0.0000
vn 0.8946 0.4468 -0.0000
vn -0.8946 0.4469 -0.0000
vn -0.8946 0.4468 -0.0000
vn -0.0000 1.0000 -0.0000
vn -0.0000 -1.0000 -0.0000
vt 1.000000 0.000000
vt 0.000000 0.000000
vt 0.000000 -1.000000
vt 1.000000 -1.000000
vt 1.000000 1.000000
vt 0.000000 1.000000
s 1
usemtl Material.003
f 1383/195/229 1382/196/229 1381/197/229
f 1383/195/229 1381/197/229 1384/198/229
f 1387/195/230 1386/196/230 1385/197/230
f 1387/195/230 1385/197/230 1388/198/230
f 1391/195/231 1390/196/231 1389/197/232
f 1391/195/231 1389/197/232 1392/198/232
f 1395/195/233 1394/196/233 1393/197/234
f 1395/195/233 1393/197/234 1396/198/234
f 1399/199/235 1398/200/235 1397/196/235
f 1399/199/235 1397/196/235 1400/195/235
f 1403/199/236 1402/200/236 1401/196/236
f 1403/199/236 1401/196/236 1404/195/236
o Pirámide_5
v -1.353858 0.278866 3.913763
v -0.854358 0.580690 3.697955
v -0.853358 0.580690 3.697955
v -0.353858 0.278866 3.913763
v -0.353858 0.278866 3.481716
v -0.853358 0.580690 3.697523
v -0.854358 0.580690 3.697523
v -1.353858 0.278866 3.481716
v -0.353858 0.278866 3.913763
v -0.853358 0.580690 3.697955
v -0.853358 0.580690 3.697523
v -0.353858 0.278866 3.481716
v -1.353858 0.278866 3.481716
v -0.854358 0.580690 3.697523
v -0.854358 0.580690 3.697955
v -1.353858 0.278866 3.913763
v -0.853358 0.580690 3.697523
v -0.853358 0.580690 3.697955
v -0.854358 0.580690 3.697955
v -0.854358 0.580690 3.697523
v -1.353858 0.278866 3.481716
v -1.353858 0.278866 3.913763
v -0.353858 0.278866 3.913763
v -0.353858 0.278866 3.481716
vn -0.0000 0.4469 0.8946
vn -0.0000 0.4469 -0.8946
vn 0.8946 0.4468 -0.0000
vn -0.8946 0.4468 -0.0000
vn -0.0000 1.0000 -0.0000
vn -0.0000 -1.0000 -0.0000
vt 1.000000 0.000000
vt 0.000000 0.000000
vt 0.000000 -1.000000
vt 1.000000 -1.000000
vt 1.000000 1.000000
vt 0.000000 1.000000
s 1
usemtl Material.003
f 1407/201/237 1406/202/237 1405/203/237
f 1407/201/237 1405/203/237 1408/204/237
f 1411/201/238 1410/202/238 1409/203/238
f 1411/201/238 1409/203/238 1412/204/238
f 1415/201/239 1414/202/239 1413/203/239
f 1415/201/239 1413/203/239 1416/204/239
f 1419/201/240 1418/202/240 1417/203/240
f 1419/201/240 1417/203/240 1420/204/240
f 1423/205/241 1422/206/241 1421/202/241
f 1423/205/241 1421/202/241 1424/201/241
f 1427/205/242 1426/206/242 1425/202/242
f 1427/205/242 1425/202/242 1428/201/242
o Pirámide_6
v 0.346032 0.278866 5.920617
v 0.845532 0.580690 5.704810
v 0.846532 0.580690 5.704810
v 1.346032 0.278866 5.920617
v 1.346032 0.278866 5.488570
v 0.846532 0.580690 5.704377
v 0.845532 0.580690 5.704377
v 0.346032 0.278866 5.488570
v 1.346032 0.278866 5.920617
v 0.846532 0.580690 5.704810
v 0.846532 0.580690 5.704377
v 1.346032 0.278866 5.488570
v 0.346032 0.278866 5.488570
v 0.845532 0.580690 5.704377
v 0.845532 0.580690 5.704810
v 0.346032 0.278866 5.920617
v 0.846532 0.580690 5.704377
v 0.846532 0.580690 5.704810
v 0.845532 0.580690 5.704810
v 0.845532 0.580690 5.704377
v 0.346032 0.278866 5.488570
v 0.346032 0.278866 5.920617
v 1.346032 0.278866 5.920617
v 1.346032 0.278866 5.488570
vn -0.0000 0.4469 0.8946
vn -0.0000 0.4469 -0.8946
vn 0.8946 0.4468 -0.0000
vn 0.8946 0.4469 -0.0000
vn -0.8946 0.4468 -0.0000
vn -0.8946 0.4469 -0.0000
vn -0.0000 1.0000 -0.0000
vn -0.0000 -1.0000 -0.0000
vt 1.000000 0.000000
vt 0.000000 0.000000
vt 0.000000 -1.000000
vt 1.000000 -1.000000
vt 1.000000 1.000000
vt 0.000000 1.000000
s 1
usemtl Material.003
f 1431/207/243 1430/208/243 1429/209/243
f 1431/207/243 1429/209/243 1432/210/243
f 1435/207/244 1434/208/244 1433/209/244
f 1435/207/244 1433/209/244 1436/210/244
f 1439/207/245 1438/208/246 1437/209/245
f 1439/207/245 1437/209/245 1440/210/245
f 1443/207/247 1442/208/248 1441/209/247
f 1443/207/247 1441/209/247 1444/210/247
f 1447/211/249 1446/212/249 1445/208/249
f 1447/211/249 1445/208/249 1448/207/249
f 1451/211/250 1450/212/250 1449/208/250
f 1451/211/250 1449/208/250 1452/207/250
o Pirámide_7
v -1.353858 0.278866 5.905628
v -0.854358 0.580690 5.689820
v -0.853358 0.580690 5.689820
v -0.353858 0.278866 5.905628
v -0.353858 0.278866 5.473581
v -0.853358 0.580690 5.689388
v -0.854358 0.580690 5.689388
v -1.353858 0.278866 5.473581
v -0.353858 0.278866 5.905628
v -0.853358 0.580690 5.689820
v -0.853358 0.580690 5.689388
v -0.353858 0.278866 5.473581
v -1.353858 0.278866 5.473581
v -0.854358 0.580690 5.689388
v -0.854358 0.580690 5.689820
v -1.353858 0.278866 5.905628
v -0.853358 0.580690 5.689388
v -0.853358 0.580690 5.689820
v -0.854358 0.580690 5.689820
v -0.854358 0.580690 5.689388
v -1.353858 0.278866 5.473581
v -1.353858 0.278866 5.905628
v -0.353858 0.278866 5.905628
v -0.353858 0.278866 5.473581
vn -0.0000 0.4469 0.8946
vn -0.0000 0.4469 -0.8946
vn 0.8946 0.4468 -0.0000
vn -0.8946 0.4468 -0.0000
vn -0.0000 1.0000 -0.0000
vn -0.0000 -1.0000 -0.0000
vt 1.000000 0.000000
vt 0.000000 0.000000
vt 0.000000 -1.000000
vt 1.000000 -1.000000
vt 1.000000 1.000000
vt 0.000000 1.000000
s 1
usemtl Material.003
f 1455/213/251 1454/214/251 1453/215/251
f 1455/213/251 1453/215/251 1456/216/251
f 1459/213/252 1458/214/252 1457/215/252
f 1459/213/252 1457/215/252 1460/216/252
f 1463/213/253 1462/214/253 1461/215/253
f 1463/213/253 1461/215/253 1464/216/253
f 1467/213/254 1466/214/254 1465/215/254
f 1467/213/254 1465/215/254 1468/216/254
f 1471/217/255 1470/218/255 1469/214/255
f 1471/217/255 1469/214/255 1472/213/255
f 1475/217/256 1474/218/256 1473/214/256
f 1475/217/256 1473/214/256 1476/213/256
o Pirámide_8
v -1.353858 0.278867 7.919899
v -0.854358 0.580691 7.704092
v -0.853358 0.580691 7.704092
v -0.353858 0.278867 7.919899
v -0.353858 0.278867 7.487852
v -0.853358 0.580691 7.703660
v -0.854358 0.580691 7.703660
v -1.353858 0.278867 7.487852
v -0.353858 0.278867 7.919899
v -0.853358 0.580691 7.704092
v -0.853358 0.580691 7.703660
v -0.353858 0.278867 7.487852
v -1.353858 0.278867 7.487852
v -0.854358 0.580691 7.703660
v -0.854358 0.580691 7.704092
v -1.353858 0.278867 7.919899
v -0.853358 0.580691 7.703660
v -0.853358 0.580691 7.704092
v -0.854358 0.580691 7.704092
v -0.854358 0.580691 7.703660
v -1.353858 0.278867 7.487852
v -1.353858 0.278867 7.919899
v -0.353858 0.278867 7.919899
v -0.353858 0.278867 7.487852
vn -0.0000 0.4469 0.8946
vn -0.0000 0.4469 -0.8946
vn 0.8946 0.4468 -0.0000
vn -0.8946 0.4468 -0.0000
vn -0.0000 1.0000 -0.0000
vn -0.0000 -1.0000 -0.0000
vt 1.000000 0.000000
vt 0.000000 0.000000
vt 0.000000 -1.000000
vt 1.000000 -1.000000
vt 1.000000 1.000000
vt 0.000000 1.000000
s 1
usemtl Material.003
f 1479/219/257 1478/220/257 1477/221/257
f 1479/219/257 1477/221/257 1480/222/257
f 1483/219/258 1482/220/258 1481/221/258
f 1483/219/258 1481/221/258 1484/222/258
f 1487/219/259 1486/220/259 1485/221/259
f 1487/219/259 1485/221/259 1488/222/259
f 1491/219/260 1490/220/260 1489/221/260
f 1491/219/260 1489/221/260 1492/222/260
f 1495/223/261 1494/224/261 1493/220/261
f 1495/223/261 1493/220/261 1496/219/261
f 1499/223/262 1498/224/262 1497/220/262
f 1499/223/262 1497/220/262 1500/219/262
o Pirámide_9
v 0.346032 0.278867 7.922314
v 0.845532 0.580691 7.706507
v 0.846532 0.580691 7.706507
v 1.346032 0.278867 7.922314
v 1.346032 0.278867 7.490268
v 0.846532 0.580691 7.706075
v 0.845532 0.580691 7.706075
v 0.346032 0.278867 7.490268
v 1.346032 0.278867 7.922314
v 0.846532 0.580691 7.706507
v 0.846532 0.580691 7.706075
v 1.346032 0.278867 7.490268
v 0.346032 0.278867 7.490268
v 0.845532 0.580691 7.706075
v 0.845532 0.580691 7.706507
v 0.346032 0.278867 7.922314
v 0.846532 0.580691 7.706075
v 0.846532 0.580691 7.706507
v 0.845532 0.580691 7.706507
v 0.845532 0.580691 7.706075
v 0.346032 0.278867 7.490268
v 0.346032 0.278867 7.922314
v 1.346032 0.278867 7.922314
v 1.346032 0.278867 7.490268
vn -0.0000 0.4469 0.8946
vn -0.0000 0.4469 -0.8946
vn 0.8946 0.4468 -0.0000
vn 0.8946 0.4469 -0.0000
vn -0.8946 0.4468 -0.0000
vn -0.8946 0.4469 -0.0000
vn -0.0000 1.0000 -0.0000
vn -0.0000 -1.0000 -0.0000
vt 1.000000 0.000000
vt 0.000000 0.000000
vt 0.000000 -1.000000
vt 1.000000 -1.000000
vt 1.000000 1.000000
vt 0.000000 1.000000
s 1
usemtl Material.003
f 1503/225/263 1502/226/263 1501/227/263
f 1503/225/263 1501/227/263 1504/228/263
f 1507/225/264 1506/226/264 1505/227/264
f 1507/225/264 1505/227/264 1508/228/264
f 1511/225/265 1510/226/266 1509/227/265
f 1511/225/265 1509/227/265 1512/228/265
f 1515/225/267 1514/226/268 1513/227/267
f 1515/225/267 1513/227/267 1516/228/267
f 1519/229/269 1518/230/269 1517/226/269
f 1519/229/269 1517/226/269 1520/225/269
f 1523/229/270 1522/230/270 1521/226/270
f 1523/229/270 1521/226/270 1524/225/270
