# Blender 5.0.1
# www.blender.org
mtllib agua_narukami.mtl
g Narukami_agua_Malla
v -16.689808 4.175096 12.165869
v -16.689808 4.175096 8.133865
v -20.721802 4.175095 8.133863
v -20.721802 4.175095 12.165867
v -16.689808 4.175096 4.101866
v -20.721802 4.175095 4.101866
v -16.689808 4.175096 0.069863
v -20.721802 4.175095 0.069863
v -16.689806 4.175096 -3.962138
v -20.721800 4.175095 -3.962139
v -16.689806 4.175096 -7.994139
v -20.721800 4.175095 -7.994140
v -16.689806 4.175096 -12.026141
v -20.721800 4.175095 -12.026142
v -16.689806 4.175096 -16.058142
v -20.721800 4.175095 -16.058142
v -12.657799 4.175096 12.165869
v -12.657799 4.175096 8.133865
v -12.657799 4.175096 4.101867
v -12.657799 4.175096 0.069864
v -12.657797 4.175096 -3.962138
v -12.657797 4.175096 -7.994139
v -12.657797 4.175096 -12.026140
v -12.657797 4.175096 -16.058140
v -12.657795 4.175096 -20.090143
v -16.689804 4.175096 -20.090145
v -8.625801 4.175096 12.165869
v -8.625801 4.175096 8.133865
v -8.625801 4.175096 4.101867
v -8.625799 4.175096 0.069864
v -8.625799 4.175096 -3.962137
v -8.625799 4.175096 -7.994138
v -8.625799 4.175096 -12.026140
v -8.625797 4.175096 -16.058140
v -8.625797 4.175096 -20.090143
v -8.625797 4.175096 -24.122143
v -12.657795 4.175096 -24.122143
v -4.593802 4.175097 12.165869
v -4.593801 4.175097 8.133865
v -4.593801 4.175097 4.101868
v -4.593800 4.175097 0.069865
v -4.593800 4.175097 -3.962137
v -4.593799 4.175097 -7.994138
v -4.593799 4.175097 -12.026140
v -4.593798 4.175097 -16.058140
v -4.593798 4.175097 -20.090143
v -4.593797 4.175097 -24.122143
v -0.561800 4.175097 12.165871
v -0.561800 4.175097 8.133867
v -0.561800 4.175097 4.101868
v -0.561799 4.175097 0.069865
v -0.561799 4.175097 -3.962136
v -0.561798 4.175097 -7.994137
v -0.561798 4.175097 -12.026139
v -0.561797 4.175097 -16.058140
v -0.561797 4.175097 -20.090143
v -0.561796 4.175097 -24.122141
v -0.561796 4.175097 -28.154144
v -4.593797 4.175097 -28.154146
v 3.470206 4.175097 12.165871
v 3.470206 4.175097 8.133867
v 3.470207 4.175097 4.101869
v 3.470207 4.175097 0.069866
v 3.470208 4.175097 -3.962136
v 3.470208 4.175097 -7.994137
v 3.470209 4.175097 -12.026138
v 3.470209 4.175097 -16.058138
v 3.470210 4.175097 -20.090141
v 3.470210 4.175097 -24.122141
v 3.470211 4.175097 -28.154144
v 7.502205 4.175097 12.165871
v 7.502205 4.175097 8.133867
v 7.502206 4.175097 4.101869
v 7.502206 4.175097 0.069866
v 7.502207 4.175097 -3.962135
v 7.502207 4.175097 -7.994136
v 7.502208 4.175097 -12.026138
v 7.502208 4.175097 -16.058138
v 7.502209 4.175097 -20.090141
v 7.502209 4.175097 -24.122141
v 7.502210 4.175097 -28.154144
v 11.534210 4.175097 12.165871
v 11.534210 4.175097 8.133867
v 11.534210 4.175097 4.101870
v 11.534211 4.175097 0.069867
v 11.534212 4.175097 -3.962135
v 11.534212 4.175097 -7.994136
v 11.534212 4.175097 -12.026138
v 11.534213 4.175097 -16.058138
v 11.534214 4.175097 -20.090141
v 11.534214 4.175097 -24.122141
v 11.534214 4.175097 -28.154144
v 15.566208 4.175098 12.165873
v 15.566208 4.175098 8.133869
v 15.566208 4.175098 4.101870
v 15.566210 4.175098 0.069867
v 15.566210 4.175098 -3.962134
v 15.566210 4.175098 -7.994135
v 15.566210 4.175098 -12.026137
v 15.566212 4.175098 -16.058138
v 15.566212 4.175098 -20.090141
v 15.566212 4.175098 -24.122139
v 15.566212 4.175098 -28.154142
vn -0.0000 -1.0000 -0.0000
vt 5.015981 4.982290
vt 5.015981 3.986535
vt 6.020212 3.986535
vt 6.020212 4.982290
vt 4.011749 4.982290
vt 4.011749 3.986535
vt 3.007518 4.982290
vt 3.007518 3.986535
vt 2.003287 4.982290
vt 2.003287 3.986535
vt 0.999056 4.982290
vt 0.999056 3.986535
vt -0.005176 4.982290
vt -0.005176 3.986535
vt -1.009407 4.982290
vt -1.009407 3.986535
vt 5.015981 2.990777
vt 6.020212 2.990777
vt 4.011749 2.990777
vt 3.007518 2.990777
vt 2.003287 2.990777
vt 0.999056 2.990777
vt -0.005176 2.990777
vt -1.009407 2.990777
vt -2.013638 3.986535
vt -2.013638 2.990777
vt 5.015981 1.995020
vt 6.020212 1.995020
vt 4.011749 1.995020
vt 3.007518 1.995020
vt 2.003287 1.995020
vt 0.999056 1.995020
vt -0.005176 1.995020
vt -1.009407 1.995020
vt -2.013638 1.995020
vt -3.017869 2.990777
vt -3.017869 1.995020
vt 5.015981 0.999263
vt 6.020212 0.999263
vt 4.011749 0.999263
vt 3.007518 0.999263
vt 2.003287 0.999263
vt 0.999056 0.999263
vt -0.005176 0.999263
vt -1.009407 0.999263
vt -2.013638 0.999263
vt -3.017869 0.999263
vt 5.015981 0.003506
vt 6.020212 0.003506
vt 4.011749 0.003506
vt 3.007518 0.003506
vt 2.003287 0.003506
vt 0.999056 0.003506
vt -0.005176 0.003506
vt -1.009407 0.003506
vt -2.013638 0.003506
vt -3.017869 0.003506
vt -4.022101 0.999263
vt -4.022101 0.003506
vt 5.015981 -0.992251
vt 6.020212 -0.992251
vt 4.011749 -0.992251
vt 3.007518 -0.992251
vt 2.003287 -0.992251
vt 0.999056 -0.992251
vt -0.005176 -0.992251
vt -1.009407 -0.992251
vt -2.013638 -0.992251
vt -3.017869 -0.992251
vt -4.022101 -0.992251
vt 5.015981 -1.988008
vt 6.020212 -1.988008
vt 4.011749 -1.988008
vt 3.007518 -1.988008
vt 2.003287 -1.988008
vt 0.999056 -1.988008
vt -0.005176 -1.988008
vt -1.009407 -1.988008
vt -2.013638 -1.988008
vt -3.017869 -1.988008
vt -4.022101 -1.988008
vt 5.015981 -2.983766
vt 6.020212 -2.983766
vt 4.011749 -2.983766
vt 3.007518 -2.983766
vt 2.003287 -2.983766
vt 0.999056 -2.983766
vt -0.005176 -2.983766
vt -1.009407 -2.983766
vt -2.013638 -2.983766
vt -3.017869 -2.983766
vt -4.022101 -2.983766
vt 5.015981 -3.979523
vt 6.020212 -3.979523
vt 4.011749 -3.979523
vt 3.007518 -3.979523
vt 2.003287 -3.979523
vt 0.999056 -3.979523
vt -0.005176 -3.979523
vt -1.009407 -3.979523
vt -2.013638 -3.979523
vt -3.017869 -3.979523
vt -4.022101 -3.979523
s 1
g off
g Narukami_agua_Material.014
usemtl Material.014
f 3/1/1 2/2/1 1/3/1
f 4/4/1 3/1/1 1/3/1
f 6/5/1 5/6/1 2/2/1
f 3/1/1 6/5/1 2/2/1
f 8/7/1 7/8/1 5/6/1
f 6/5/1 8/7/1 5/6/1
f 10/9/1 9/10/1 7/8/1
f 8/7/1 10/9/1 7/8/1
f 12/11/1 11/12/1 9/10/1
f 10/9/1 12/11/1 9/10/1
f 14/13/1 13/14/1 11/12/1
f 12/11/1 14/13/1 11/12/1
f 16/15/1 15/16/1 13/14/1
f 14/13/1 16/15/1 13/14/1
f 2/2/1 18/17/1 17/18/1
f 1/3/1 2/2/1 17/18/1
f 5/6/1 19/19/1 18/17/1
f 2/2/1 5/6/1 18/17/1
f 7/8/1 20/20/1 19/19/1
f 5/6/1 7/8/1 19/19/1
f 9/10/1 21/21/1 20/20/1
f 7/8/1 9/10/1 20/20/1
f 11/12/1 22/22/1 21/21/1
f 9/10/1 11/12/1 21/21/1
f 13/14/1 23/23/1 22/22/1
f 11/12/1 13/14/1 22/22/1
f 15/16/1 24/24/1 23/23/1
f 13/14/1 15/16/1 23/23/1
f 26/25/1 25/26/1 24/24/1
f 15/16/1 26/25/1 24/24/1
f 18/17/1 28/27/1 27/28/1
f 17/18/1 18/17/1 27/28/1
f 19/19/1 29/29/1 28/27/1
f 18/17/1 19/19/1 28/27/1
f 20/20/1 30/30/1 29/29/1
f 19/19/1 20/20/1 29/29/1
f 21/21/1 31/31/1 30/30/1
f 20/20/1 21/21/1 30/30/1
f 22/22/1 32/32/1 31/31/1
f 21/21/1 22/22/1 31/31/1
f 23/23/1 33/33/1 32/32/1
f 22/22/1 23/23/1 32/32/1
f 24/24/1 34/34/1 33/33/1
f 23/23/1 24/24/1 33/33/1
f 25/26/1 35/35/1 34/34/1
f 24/24/1 25/26/1 34/34/1
f 37/36/1 36/37/1 35/35/1
f 25/26/1 37/36/1 35/35/1
f 28/27/1 39/38/1 38/39/1
f 27/28/1 28/27/1 38/39/1
f 29/29/1 40/40/1 39/38/1
f 28/27/1 29/29/1 39/38/1
f 30/30/1 41/41/1 40/40/1
f 29/29/1 30/30/1 40/40/1
f 31/31/1 42/42/1 41/41/1
f 30/30/1 31/31/1 41/41/1
f 32/32/1 43/43/1 42/42/1
f 31/31/1 32/32/1 42/42/1
f 33/33/1 44/44/1 43/43/1
f 32/32/1 33/33/1 43/43/1
f 34/34/1 45/45/1 44/44/1
f 33/33/1 34/34/1 44/44/1
f 35/35/1 46/46/1 45/45/1
f 34/34/1 35/35/1 45/45/1
f 36/37/1 47/47/1 46/46/1
f 35/35/1 36/37/1 46/46/1
f 39/38/1 49/48/1 48/49/1
f 38/39/1 39/38/1 48/49/1
f 40/40/1 50/50/1 49/48/1
f 39/38/1 40/40/1 49/48/1
f 41/41/1 51/51/1 50/50/1
f 40/40/1 41/41/1 50/50/1
f 42/42/1 52/52/1 51/51/1
f 41/41/1 42/42/1 51/51/1
f 43/43/1 53/53/1 52/52/1
f 42/42/1 43/43/1 52/52/1
f 44/44/1 54/54/1 53/53/1
f 43/43/1 44/44/1 53/53/1
f 45/45/1 55/55/1 54/54/1
f 44/44/1 45/45/1 54/54/1
f 46/46/1 56/56/1 55/55/1
f 45/45/1 46/46/1 55/55/1
f 47/47/1 57/57/1 56/56/1
f 46/46/1 47/47/1 56/56/1
f 59/58/1 58/59/1 57/57/1
f 47/47/1 59/58/1 57/57/1
f 49/48/1 61/60/1 60/61/1
f 48/49/1 49/48/1 60/61/1
f 50/50/1 62/62/1 61/60/1
f 49/48/1 50/50/1 61/60/1
f 51/51/1 63/63/1 62/62/1
f 50/50/1 51/51/1 62/62/1
f 52/52/1 64/64/1 63/63/1
f 51/51/1 52/52/1 63/63/1
f 53/53/1 65/65/1 64/64/1
f 52/52/1 53/53/1 64/64/1
f 54/54/1 66/66/1 65/65/1
f 53/53/1 54/54/1 65/65/1
f 55/55/1 67/67/1 66/66/1
f 54/54/1 55/55/1 66/66/1
f 56/56/1 68/68/1 67/67/1
f 55/55/1 56/56/1 67/67/1
f 57/57/1 69/69/1 68/68/1
f 56/56/1 57/57/1 68/68/1
f 58/59/1 70/70/1 69/69/1
f 57/57/1 58/59/1 69/69/1
f 61/60/1 72/71/1 71/72/1
f 60/61/1 61/60/1 71/72/1
f 62/62/1 73/73/1 72/71/1
f 61/60/1 62/62/1 72/71/1
f 63/63/1 74/74/1 73/73/1
f 62/62/1 63/63/1 73/73/1
f 64/64/1 75/75/1 74/74/1
f 63/63/1 64/64/1 74/74/1
f 65/65/1 76/76/1 75/75/1
f 64/64/1 65/65/1 75/75/1
f 66/66/1 77/77/1 76/76/1
f 65/65/1 66/66/1 76/76/1
f 67/67/1 78/78/1 77/77/1
f 66/66/1 67/67/1 77/77/1
f 68/68/1 79/79/1 78/78/1
f 67/67/1 68/68/1 78/78/1
f 69/69/1 80/80/1 79/79/1
f 68/68/1 69/69/1 79/79/1
f 70/70/1 81/81/1 80/80/1
f 69/69/1 70/70/1 80/80/1
f 72/71/1 83/82/1 82/83/1
f 71/72/1 72/71/1 82/83/1
f 73/73/1 84/84/1 83/82/1
f 72/71/1 73/73/1 83/82/1
f 74/74/1 85/85/1 84/84/1
f 73/73/1 74/74/1 84/84/1
f 75/75/1 86/86/1 85/85/1
f 74/74/1 75/75/1 85/85/1
f 76/76/1 87/87/1 86/86/1
f 75/75/1 76/76/1 86/86/1
f 77/77/1 88/88/1 87/87/1
f 76/76/1 77/77/1 87/87/1
f 78/78/1 89/89/1 88/88/1
f 77/77/1 78/78/1 88/88/1
f 79/79/1 90/90/1 89/89/1
f 78/78/1 79/79/1 89/89/1
f 80/80/1 91/91/1 90/90/1
f 79/79/1 80/80/1 90/90/1
f 81/81/1 92/92/1 91/91/1
f 80/80/1 81/81/1 91/91/1
f 83/82/1 94/93/1 93/94/1
f 82/83/1 83/82/1 93/94/1
f 84/84/1 95/95/1 94/93/1
f 83/82/1 84/84/1 94/93/1
f 85/85/1 96/96/1 95/95/1
f 84/84/1 85/85/1 95/95/1
f 86/86/1 97/97/1 96/96/1
f 85/85/1 86/86/1 96/96/1
f 87/87/1 98/98/1 97/97/1
f 86/86/1 87/87/1 97/97/1
f 88/88/1 99/99/1 98/98/1
f 87/87/1 88/88/1 98/98/1
f 89/89/1 100/100/1 99/99/1
f 88/88/1 89/89/1 99/99/1
f 90/90/1 101/101/1 100/100/1
f 89/89/1 90/90/1 100/100/1
f 91/91/1 102/102/1 101/101/1
f 90/90/1 91/91/1 101/101/1
f 92/92/1 103/103/1 102/102/1
f 91/91/1 92/92/1 102/102/1
