# Blender 5.0.1
# www.blender.org
mtllib base_zorro_narukami.mtl
g NarukamiShrine_mesh.087_Malla
v 0.184464 5.095178 -0.607994
v 0.187150 5.095178 0.014533
v 0.569230 5.095178 0.014533
v 0.569230 5.095178 -0.607994
v 0.185563 5.556176 -0.611900
v 0.570695 5.556176 -0.611900
v 0.570695 5.556176 0.018015
v 0.185563 5.556176 0.018044
v 0.570695 5.556176 0.018015
v 0.569230 5.095178 0.014533
v 0.187150 5.095178 0.014533
v 0.185563 5.556176 0.018044
v 0.185563 5.556176 -0.611900
v 0.184464 5.095178 -0.607994
v 0.569230 5.095178 -0.607994
v 0.570695 5.556176 -0.611900
v 0.570695 5.556176 0.018015
v 0.570695 5.556176 -0.611900
v 0.569230 5.095178 -0.607994
v 0.569230 5.095178 0.014533
v 0.557511 5.547876 0.010719
v 0.533585 5.547876 0.662026
v 0.193131 5.547876 0.648843
v 0.216813 5.547876 0.009987
v 0.558975 5.102746 0.009987
v 0.215348 5.102746 0.005959
v 0.191422 5.102746 0.652261
v 0.535050 5.102746 0.665933
v 0.535050 5.102746 0.665933
v 0.533585 5.547876 0.662026
v 0.557511 5.547876 0.010719
v 0.558975 5.102746 0.009987
v 0.191422 5.102746 0.652261
v 0.193131 5.547876 0.648843
v 0.533585 5.547876 0.662026
v 0.535050 5.102746 0.665933
v 0.191422 5.102746 0.652261
v 0.215348 5.102746 0.005959
v 0.216813 5.547876 0.009987
v 0.193131 5.547876 0.648843
v 0.190446 5.091516 0.000710
v 0.186661 5.091516 -0.627037
v -0.157577 5.091516 -0.624596
v -0.153793 5.091516 0.003029
v 0.192033 5.569299 0.004433
v -0.155380 5.569299 0.006935
v -0.159164 5.569299 -0.628014
v 0.188248 5.569299 -0.630455
v 0.188248 5.569299 -0.630455
v 0.186661 5.091516 -0.627037
v 0.190446 5.091516 0.000710
v 0.192033 5.569299 0.004433
v -0.159164 5.569299 -0.628014
v -0.157577 5.091516 -0.624596
v 0.186661 5.091516 -0.627037
v 0.188248 5.569299 -0.630455
v -0.159164 5.569299 -0.628014
v -0.155380 5.569299 0.006935
v -0.153793 5.091516 0.003029
v -0.157577 5.091516 -0.624596
v 0.249650 5.115441 -0.006493
v -0.202865 5.116906 -0.003014
v -0.202865 5.118859 0.631753
v 0.249650 5.117395 0.635659
v 0.249650 5.117395 0.635659
v -0.202865 5.118859 0.631753
v -0.202865 5.534692 0.631265
v 0.249650 5.536279 0.635171
v 0.249650 5.534814 -0.014427
v 0.249650 5.536279 0.635171
v -0.202865 5.534692 0.631265
v -0.202865 5.533288 -0.010948
v -0.507430 5.096887 -0.602623
v -0.507430 5.530848 -0.608971
v -0.507430 5.540612 0.026039
v -0.507430 5.106652 0.032021
v -0.507430 5.106652 0.032021
v -0.095016 5.108117 0.028513
v -0.095016 5.098596 -0.598717
v -0.507430 5.096887 -0.602623
v -0.507430 5.096887 -0.602623
v -0.095016 5.098596 -0.598717
v -0.095016 5.529321 -0.605064
v -0.507430 5.530848 -0.608971
v -0.507430 5.540612 0.026039
v -0.507430 5.530848 -0.608971
v -0.095016 5.529321 -0.605064
v -0.095016 5.538964 0.022560
v -0.132064 5.098840 0.645425
v -0.150741 5.098840 0.010719
v -0.525985 5.098840 0.022194
v -0.507430 5.098840 0.656655
v -0.130477 5.551416 0.649331
v -0.508895 5.551416 0.660562
v -0.527938 5.551416 0.018776
v -0.149276 5.551416 0.007179
v -0.149276 5.551416 0.007179
v -0.150741 5.098840 0.010719
v -0.132064 5.098840 0.645425
v -0.130477 5.551416 0.649331
v -0.527938 5.551416 0.018776
v -0.525985 5.098840 0.022194
v -0.150741 5.098840 0.010719
v -0.149276 5.551416 0.007179
v -0.130477 5.551416 0.649331
v -0.132064 5.098840 0.645425
v -0.507430 5.098840 0.656655
v -0.508895 5.551416 0.660562
v -0.527938 5.551416 0.018776
v -0.508895 5.551416 0.660562
v -0.507430 5.098840 0.656655
v -0.525985 5.098840 0.022194
v 0.541886 4.697961 0.245888
v 0.037736 4.697961 0.224770
v 0.026340 4.697961 0.621499
v 0.530167 4.697961 0.642983
v 0.546281 4.945031 0.244179
v 0.534562 4.945031 0.644937
v 0.022332 4.945031 0.623452
v 0.033829 4.945031 0.222694
v 0.033829 4.945031 0.222694
v 0.037736 4.697961 0.224770
v 0.541886 4.697961 0.245888
v 0.546281 4.945031 0.244179
v 0.022332 4.945031 0.623452
v 0.026340 4.697961 0.621499
v 0.037736 4.697961 0.224770
v 0.033829 4.945031 0.222694
v 0.546281 4.945031 0.244179
v 0.541886 4.697961 0.245888
v 0.530167 4.697961 0.642983
v 0.534562 4.945031 0.644937
v 0.022332 4.945031 0.623452
v 0.534562 4.945031 0.644937
v 0.530167 4.697961 0.642983
v 0.026340 4.697961 0.621499
v 0.042634 4.932824 0.600015
v -0.489852 4.932824 0.622964
v -0.502059 4.932824 0.228065
v 0.030240 4.932824 0.205116
v 0.046998 4.710168 0.601968
v 0.034623 4.710168 0.202919
v -0.505965 4.710168 0.226234
v -0.493758 4.710168 0.624917
v -0.493758 4.710168 0.624917
v -0.489852 4.932824 0.622964
v 0.042634 4.932824 0.600015
v 0.046998 4.710168 0.601968
v -0.505965 4.710168 0.226234
v -0.502059 4.932824 0.228065
v -0.489852 4.932824 0.622964
v -0.493758 4.710168 0.624917
v 0.530167 4.725305 -0.155235
v 0.017380 4.725305 -0.176353
v 0.005982 4.725305 0.270058
v 0.518692 4.725305 0.291176
v 0.534562 4.926965 -0.157066
v 0.522843 4.926965 0.293373
v 0.001969 4.926965 0.271889
v 0.013474 4.926965 -0.178307
v 0.534562 4.926965 -0.157066
v 0.530167 4.725305 -0.155235
v 0.518692 4.725305 0.291176
v 0.522843 4.926965 0.293373
v 0.087265 4.698449 -0.173058
v -0.504012 4.698449 -0.196129
v -0.516708 4.698449 0.250282
v 0.074876 4.698449 0.273232
v 0.091630 4.943566 -0.174889
v 0.079240 4.943566 0.275429
v -0.520614 4.943566 0.252113
v -0.507919 4.943566 -0.198082
v -0.507919 4.943566 -0.198082
v -0.504012 4.698449 -0.196129
v 0.087265 4.698449 -0.173058
v 0.091630 4.943566 -0.174889
v -0.520614 4.943566 0.252113
v -0.516708 4.698449 0.250282
v -0.504012 4.698449 -0.196129
v -0.507919 4.943566 -0.198082
v -0.520614 4.943566 0.252113
v 0.079240 4.943566 0.275429
v 0.074876 4.698449 0.273232
v -0.516708 4.698449 0.250282
v 0.036225 4.710168 -0.608482
v 0.036225 4.934289 -0.609459
v 0.036225 4.934777 -0.104454
v 0.036225 4.720422 -0.107628
v 0.550187 4.705773 -0.610435
v 0.550187 4.716516 -0.105431
v 0.550187 4.938684 -0.102623
v 0.550187 4.937707 -0.611900
v 0.550187 4.937707 -0.611900
v 0.036225 4.934289 -0.609459
v 0.036225 4.710168 -0.608482
v 0.550187 4.705773 -0.610435
v 0.550187 4.938684 -0.102623
v 0.036225 4.934777 -0.104454
v 0.036225 4.934289 -0.609459
v 0.550187 4.937707 -0.611900
v 0.550187 4.705773 -0.610435
v 0.036225 4.710168 -0.608482
v 0.036225 4.720422 -0.107628
v 0.550187 4.716516 -0.105431
v 0.550187 4.938684 -0.102623
v 0.550187 4.716516 -0.105431
v 0.036225 4.720422 -0.107628
v 0.036225 4.934777 -0.104454
v -0.490829 4.718469 -0.113243
v 0.038789 4.718469 -0.116295
v 0.037156 4.718469 -0.585045
v -0.492782 4.718469 -0.581627
v -0.495223 4.927454 -0.111290
v -0.497176 4.927454 -0.584068
v 0.041108 4.927454 -0.586998
v 0.042756 4.927454 -0.114342
v -0.495223 4.927454 -0.111290
v -0.490829 4.718469 -0.113243
v -0.492782 4.718469 -0.581627
v -0.497176 4.927454 -0.584068
v 0.041108 4.927454 -0.586998
v -0.497176 4.927454 -0.584068
v -0.492782 4.718469 -0.581627
v 0.037156 4.718469 -0.585045
v 0.598038 0.572962 -0.729576
v 0.017518 0.537806 -0.740318
v 0.017091 -0.048132 -0.754478
v 0.639542 -0.048132 -0.773033
v -0.594344 0.467493 -0.785728
v -0.605575 -0.048132 -0.773033
v -0.677840 0.467493 -0.777428
v -0.674911 -0.048132 -0.773521
v 0.017915 1.072962 -0.708580
v -0.590438 0.526087 -0.744713
v -0.561141 1.072962 -0.725182
v -0.559676 1.092493 -0.756432
v 0.589738 1.194056 -0.718346
v 0.662492 0.572962 -0.726158
v 0.651261 1.194056 -0.715904
v 0.018334 1.625695 -0.671471
v 0.580460 1.580774 -0.732018
v -0.713485 -0.048132 -0.724205
v -0.724715 0.467493 -0.707115
v -0.671493 -0.048132 0.028053
v -0.675887 0.526087 0.027903
v -0.713485 -0.048132 0.780190
v -0.663680 0.514368 0.758706
v -0.681258 0.533900 0.746987
v -0.626571 1.072962 -0.727135
v -0.649520 0.526087 -0.742760
v -0.661239 1.072962 -0.679283
v -0.688583 0.526087 -0.701256
v -0.626571 1.072962 0.027781
v 0.701554 0.572962 -0.682701
v 0.705949 -0.048132 -0.769127
v 0.747453 -0.048132 -0.724205
v 0.705949 -0.048132 0.028053
v 0.678605 0.572962 0.027931
v 0.718643 0.572962 0.755288
v 0.688370 1.194056 0.728921
v 0.650285 1.194056 0.027839
v 0.747453 -0.048132 0.780190
v 0.688370 1.194056 -0.672935
v 0.695695 1.580774 -0.662193
v 0.620988 1.639367 0.027687
v 0.651261 1.194056 0.774331
v 0.678605 0.572962 0.801675
v 0.615128 0.572962 0.802651
v 0.589738 1.194056 0.774331
v 0.017998 1.194056 0.788980
v 0.555557 1.613978 0.752847
v 0.018357 1.653040 0.723062
v 0.017503 0.510462 0.787026
v 0.639542 -0.048132 0.829019
v 0.705460 -0.048132 0.827554
v 0.017091 -0.048132 0.810464
v -0.585555 0.514368 0.794351
v -0.605575 -0.048132 0.829019
v -0.527450 1.627649 0.749429
v -0.553329 1.194056 0.793374
v -0.620223 1.194056 0.796792
v -0.591415 1.627649 0.753823
v -0.658309 0.580775 0.820230
v -0.570419 0.572962 0.817300
v -0.506942 2.125696 0.735269
v 0.018731 2.174524 0.703530
v -0.642196 0.514368 0.805581
v -0.676376 -0.048132 0.830972
v -0.505477 2.180384 0.709390
v -0.505965 2.160852 0.723550
v -0.580672 2.211634 0.738687
v -0.607528 2.207727 0.676187
v -0.504501 2.203821 0.731362
v -0.616317 2.244836 0.674233
v -0.587997 2.246789 0.747964
v -0.502547 2.238977 0.743081
v -0.578719 2.703822 0.726968
v -0.612411 2.707727 0.648355
v -0.473739 2.696008 0.744058
v -0.594344 2.735071 0.646401
v -0.563583 2.733118 0.715737
v -0.539169 2.750697 0.702065
v -0.470077 2.746789 0.696206
v -0.471542 2.729211 0.728433
v -0.499618 3.285852 0.665444
v -0.524032 3.285852 0.619546
v -0.565536 2.748743 0.645425
v -0.498153 3.841516 0.599038
v -0.476180 3.843469 0.643960
v -0.420028 3.840539 0.636147
v -0.441024 3.285852 0.658120
v 0.019143 2.744836 0.677163
v 0.019536 3.285852 0.650308
v 0.019963 3.869836 0.627358
v 0.533097 2.744836 0.695230
v 0.541886 2.174524 0.730386
v 0.510636 3.289758 0.654702
v 0.587785 2.744836 0.697671
v 0.602921 2.174524 0.731851
v 0.621475 1.694055 0.765054
v 0.551651 1.686242 0.764077
v 0.636124 2.174524 0.679605
v 0.656143 1.696009 0.696694
v 0.600480 2.174524 0.027658
v 0.619035 2.746789 0.654702
v 0.578018 2.740931 -0.065514
v 0.624893 2.178431 -0.615318
v 0.663956 1.639367 -0.660240
v 0.629288 1.639367 -0.692955
v 0.683488 1.615930 -0.661217
v 0.651261 1.612024 -0.718834
v 0.579972 1.613978 -0.718346
v 0.579484 1.639367 -0.694420
v 0.536026 2.178431 -0.656822
v 0.592667 2.178431 -0.656334
v 0.018914 2.190149 -0.661217
v -0.527450 1.623742 -0.701256
v -0.497665 2.194056 -0.657310
v -0.598251 1.623742 -0.697350
v -0.557723 1.123743 -0.770103
v -0.651962 1.127650 -0.745201
v -0.689559 1.123743 -0.675865
v -0.630965 1.623742 -0.644615
v -0.587508 2.194056 -0.615318
v -0.558212 2.194056 -0.661217
v -0.586044 1.627649 0.027595
v -0.622176 1.627649 0.705483
v -0.652450 1.194056 0.747476
v -0.607528 2.133509 0.678628
v -0.560653 2.197961 0.027472
v -0.644637 1.096400 -0.744225
v -0.677840 1.088587 -0.678307
v -0.596297 2.170618 0.677651
v -0.588973 2.180384 0.677651
v -0.607528 2.207727 0.676187
v -0.616317 2.244836 0.674233
v -0.612411 2.707727 0.648355
v -0.550887 2.752649 0.027350
v -0.594344 2.735071 0.646401
v -0.524032 3.285852 0.619546
v -0.526962 3.307336 0.027228
v -0.489852 3.853235 0.027106
v -0.498153 3.841516 0.599038
v -0.553329 3.055383 -0.584068
v -0.505477 3.831750 -0.530357
v -0.526473 3.055383 -0.628990
v -0.542098 2.752648 -0.644615
v -0.570419 2.746789 -0.599693
v -0.480575 3.831750 -0.578209
v -0.487899 4.354211 -0.514244
v -0.461288 4.354211 -0.574303
v -0.467880 4.398156 -0.512291
v -0.446639 4.398156 -0.554771
v -0.483016 2.750696 -0.640221
v -0.468856 3.055383 -0.623619
v -0.396102 4.354211 -0.580162
v -0.422714 3.831750 -0.574791
v 0.019940 3.839562 -0.568443
v 0.020367 4.420618 -0.516197
v 0.019597 3.295618 -0.592857
v 0.019185 2.744836 -0.630455
v -0.394393 4.398156 -0.547447
v 0.520158 2.785851 -0.650963
v 0.499650 3.238976 -0.622154
v 0.449357 4.297571 -0.551842
v 0.479141 3.676476 -0.587975
v 0.530656 3.677454 -0.589439
v 0.497697 4.298547 -0.554283
v 0.423478 4.918176 -0.524986
v 0.469132 4.919641 -0.528893
v 0.443497 5.207482 -0.523033
v 0.489396 5.208947 -0.526451
v 0.496964 3.295618 -0.593834
v 0.020730 4.918664 -0.512779
v 0.423478 5.496667 -0.521080
v 0.021237 5.207482 -0.514732
v -0.359725 5.206994 -0.517662
v -0.375106 4.917688 -0.525963
v -0.379989 5.496148 -0.522057
v 0.469376 5.498254 -0.524498
v -0.410018 5.206994 -0.525963
v -0.425155 4.917688 -0.534264
v -0.429305 5.206994 -0.484459
v -0.444198 4.917688 -0.492760
v -0.450546 4.918176 0.026833
v -0.438583 5.207238 0.026772
v -0.500106 4.453820 -0.510338
v -0.457870 4.413781 0.026955
v -0.478622 4.297571 0.582437
v -0.444686 4.918664 0.533607
v -0.430282 5.496148 -0.530357
v -0.449813 5.496148 -0.488365
v -0.450057 5.496423 0.026682
v -0.450301 5.496728 0.541908
v -0.447860 5.207482 0.537758
v -0.471786 4.452844 -0.582115
v -0.391952 4.463586 -0.591881
v -0.463729 4.419641 -0.573326
v -0.393172 4.430383 -0.580650
v -0.488876 4.419641 -0.511803
v -0.525497 3.891321 0.597573
v -0.515243 3.856164 0.598550
v 0.471817 5.209436 0.537758
v 0.450578 5.207971 0.577065
v 0.469376 5.497094 0.581460
v 0.490861 5.498681 0.541908
v 0.490617 5.499261 0.027077
v 0.491105 5.210046 0.024025
v 0.464494 4.919641 0.027199
v 0.490372 4.920129 0.533607
v 0.493790 4.298547 0.027292
v 0.521867 4.299524 0.570230
v 0.517716 3.852258 0.027382
v 0.527725 3.859094 0.584390
v 0.489884 4.921106 -0.492271
v 0.521378 4.300500 -0.516685
v 0.490128 5.499841 -0.487877
v 0.510148 5.210534 -0.489830
v 0.423966 5.495477 0.575601
v 0.405167 5.206506 0.570962
v 0.021241 5.207238 0.572915
v 0.020730 4.918664 0.553871
v 0.423966 4.917199 0.566567
v 0.449600 4.296594 0.605386
v 0.469132 4.918664 0.572915
v 0.497697 4.297571 0.610757
v 0.470841 3.858118 0.618569
v 0.501603 3.857141 0.612222
v 0.020276 4.297571 0.624917
v -0.404159 4.297571 0.617593
v -0.417831 3.898157 0.667397
v -0.489852 3.910852 0.660073
v -0.458358 4.297571 0.626382
v -0.375594 4.918664 0.566567
v -0.427108 4.918664 0.576577
v -0.378524 5.207482 0.570962
v -0.430282 5.207482 0.580483
v -0.380477 5.496728 0.575601
v -0.432479 5.496728 0.584878
v -0.447860 5.207482 0.537758
v -0.444686 4.918664 0.533607
v -0.478622 4.297571 0.582437
v -0.525497 3.891321 0.597573
v -0.450301 5.496728 0.541908
v -0.486922 3.872766 0.656655
v -0.515243 3.856164 0.598550
v -0.419296 3.863000 0.657632
v 0.471817 3.840539 0.634683
v 0.518692 3.840539 0.636636
v 0.543839 3.841516 0.592202
v 0.528214 3.808313 0.649331
v 0.473771 3.803430 0.651284
v 0.556046 3.295618 0.651772
v 0.584367 3.295618 0.620034
v 0.554581 3.805383 0.598550
v 0.552140 3.301477 0.030954
v 0.557023 3.679406 -0.550377
v 0.563859 3.297570 -0.564049
v 0.584367 3.268273 -0.570396
v 0.536026 3.295618 -0.587486
v 0.557511 3.264368 -0.613853
v 0.498429 3.266320 -0.613365
v 0.565324 3.238976 -0.623131
v 0.593643 3.240931 -0.573814
v 0.592667 2.789758 -0.650963
v 0.622941 2.787806 -0.597252
v 0.585343 2.764368 -0.646080
v 0.614640 2.762414 -0.598717
v 0.594620 2.735071 -0.599693
v 0.564347 2.735071 -0.630455
v 0.604386 2.723351 -0.600670
v 0.575578 2.719446 -0.639244
v 0.522599 2.735071 -0.630455
v 0.523820 2.709681 -0.640221
v 0.521378 2.758508 -0.644615
v 0.583878 2.692101 -0.645592
v 0.614640 2.697961 -0.601646
v 0.525040 2.680383 -0.646568
v -0.484969 2.699914 -0.669029
v -0.566024 2.703821 -0.673424
v -0.594833 2.696008 -0.601646
v -0.483993 2.735071 -0.655846
v -0.556258 2.735071 -0.661705
v -0.583114 2.731164 -0.600670
v 0.599503 1.653040 0.730386
v 0.620011 1.627649 0.752847
v 0.554093 1.629603 0.744546
v 0.552628 1.653040 0.718667
v 0.634171 1.653040 0.698159
v 0.655167 1.629603 0.704507
v 0.552140 1.670617 0.755776
v 0.617570 1.678430 0.759194
v 0.650773 1.676478 0.697183
v 0.625870 1.612024 0.759194
v 0.662003 1.612024 0.706948
v 0.661026 1.580774 -0.730064
v -0.593856 0.502650 -0.773033
v -0.670516 0.502650 -0.767662
v -0.713485 0.502650 -0.705650
v -0.693465 0.569056 0.749429
v -0.650497 0.549525 0.809487
v -0.571395 0.537806 0.805093
v -0.561141 1.072962 -0.725182
v 0.017915 1.072962 -0.708580
v -0.578719 2.129602 0.740151
v -0.570419 2.164759 0.728921
v -0.560653 2.180384 0.714272
v -0.588973 2.180384 0.677651
v -0.505477 2.180384 0.709390
v -0.587997 2.246789 0.747964
v -0.578719 2.703822 0.726968
v -0.539169 2.750697 0.702065
v -0.499618 3.285852 0.665444
v -0.476180 3.843469 0.643960
v 0.587785 2.744836 0.697671
v 0.621475 1.694055 0.765054
v -0.558212 2.194056 -0.661217
v -0.626571 1.072962 -0.727135
v -0.661239 1.072962 -0.679283
v -0.588973 2.180384 0.677651
v -0.565536 2.748743 0.645425
v -0.526473 3.055383 -0.628990
v -0.542098 2.752648 -0.644615
v -0.480575 3.831750 -0.578209
v -0.461288 4.354211 -0.574303
v -0.446639 4.398156 -0.554771
v -0.425155 4.917688 -0.534264
v -0.410018 5.206994 -0.525963
v -0.430282 5.496148 -0.530357
v -0.471786 4.452844 -0.582115
v -0.394393 4.398156 -0.547447
v -0.446639 4.398156 -0.554771
v -0.467880 4.398156 -0.512291
v -0.463729 4.419641 -0.573326
v 0.469376 5.497094 0.581460
v 0.450578 5.207971 0.577065
v 0.497697 4.297571 0.610757
v 0.469132 4.918664 0.572915
v -0.430282 5.207482 0.580483
v -0.427108 4.918664 0.576577
v -0.458358 4.297571 0.626382
v -0.489852 3.910852 0.660073
v -0.432479 5.496728 0.584878
v 0.501603 3.857141 0.612222
v 0.528214 3.808313 0.649331
v 0.497697 4.298547 -0.554283
v 0.469132 4.919641 -0.528893
v 0.489396 5.208947 -0.526451
v 0.469376 5.498254 -0.524498
v 0.565324 3.238976 -0.623131
v 0.592667 2.789758 -0.650963
v 0.594620 2.735071 -0.599693
v 0.564347 2.735071 -0.630455
v 0.522599 2.735071 -0.630455
v -0.566024 2.703821 -0.673424
v -0.556258 2.735071 -0.661705
v 0.599503 1.653040 0.730386
v 0.552628 1.653040 0.718667
v 0.018357 1.653040 0.723062
v 0.634171 1.653040 0.698159
v 0.625870 1.612024 0.759194
v 0.661026 1.580774 -0.730064
v -0.649520 0.526087 -0.742760
v -0.650497 0.549525 0.809487
vn -0.0000 -1.0000 -0.0000
vn -0.0000 0.0076 -1.0000
vn -0.0001 0.0076 -1.0000
vn -0.0000 -0.0085 -1.0000
vn -1.0000 0.0032 -0.0000
vn -0.9993 -0.0034 -0.0365
vn -0.9993 -0.0035 -0.0366
vn -0.9993 -0.0036 -0.0367
vn -0.9993 -0.0032 -0.0365
vn 0.0391 -0.0082 -0.9992
vn 0.0393 -0.0083 -0.9992
vn 0.0387 -0.0078 -0.9992
vn 0.0398 -0.0086 -0.9992
vn -0.9993 0.0036 -0.0370
vn -1.0000 0.0033 0.0060
vn -1.0000 0.0034 0.0060
vn -0.0071 -0.0072 -0.9999
vn -0.0071 -0.0071 -0.9999
vn -0.0070 -0.0071 -0.9999
vn -1.0000 -0.0033 0.0060
vn -1.0000 -0.0034 0.0060
vn -0.0032 -1.0000 0.0031
vn -0.0033 -1.0000 0.0030
vn 0.0086 -0.0012 -1.0000
vn 0.0034 -1.0000 0.0022
vn 0.0035 -1.0000 0.0023
vn -1.0000 -0.0000 -0.0000
vn 0.0039 -0.9999 0.0153
vn 0.0037 -0.9999 0.0152
vn 0.0038 -0.9999 0.0153
vn 0.0040 -0.9999 0.0154
vn 0.0095 -0.0147 -0.9998
vn 0.0094 -0.0146 -0.9998
vn -0.0039 -0.9999 0.0154
vn -0.0038 -0.9999 0.0154
vn -0.9996 0.0033 0.0293
vn -0.9996 0.0034 0.0294
vn -0.9996 0.0035 0.0294
vn -0.0306 -0.0077 -0.9995
vn -0.0298 0.0086 -0.9995
vn -0.0299 0.0087 -0.9995
vn -0.0297 0.0085 -0.9995
vn -0.9996 -0.0037 0.0295
vn -0.9996 -0.0035 0.0297
vn -0.9996 -0.0039 0.0294
vn -0.9996 -0.0041 0.0292
vn 0.0419 -0.0077 -0.9991
vn -0.9995 -0.0160 -0.0287
vn -0.9994 0.0179 -0.0293
vn -0.9994 0.0177 -0.0294
vn -0.9994 0.0176 -0.0295
vn -0.9994 0.0180 -0.0292
vn 0.0421 0.0076 -0.9991
vn 0.0424 0.0082 -0.9991
vn 0.0419 0.0072 -0.9991
vn 0.0426 0.0086 -0.9991
vn -0.0426 -0.0092 -0.9991
vn -0.0429 -0.0084 -0.9990
vn -0.0431 -0.0080 -0.9990
vn -0.0424 -0.0096 -0.9991
vn -0.9994 0.0176 0.0307
vn -0.9994 0.0173 0.0309
vn -0.9994 0.0174 0.0308
vn -0.9994 0.0178 0.0306
vn -0.9994 0.0210 -0.0259
vn -0.9994 0.0214 -0.0258
vn -0.9994 0.0215 -0.0257
vn -0.9994 0.0209 -0.0260
vn 0.0387 -0.0080 -0.9992
vn 0.0390 -0.0073 -0.9992
vn 0.0389 -0.0075 -0.9992
vn 0.0387 -0.0082 -0.9992
vn -0.9995 -0.0160 -0.0283
vn -0.9995 -0.0157 -0.0284
vn -0.9995 -0.0159 -0.0283
vn -0.9995 -0.0162 -0.0282
vn 0.0388 0.0082 -0.9992
vn 0.0388 0.0081 -0.9992
vn 0.0388 0.0083 -0.9992
vn -0.0045 -0.0049 -1.0000
vn -0.0047 -0.0044 -1.0000
vn -0.0041 -0.0058 -1.0000
vn -0.0039 -0.0063 -1.0000
vn 0.0071 -1.0000 0.0014
vn 0.0076 -1.0000 0.0010
vn 0.0067 -1.0000 0.0019
vn -0.0081 -0.9997 0.0209
vn -0.0085 -0.9998 0.0205
vn -0.0077 -0.9997 0.0213
vn 0.0037 0.0142 -0.9999
vn 0.0041 0.0132 -0.9999
vn 0.0044 0.0126 -0.9999
vn 0.0034 0.0148 -0.9999
vn -0.9998 -0.0210 0.0041
vn -0.9998 -0.0211 0.0042
vn -0.9998 -0.0210 0.0042
vn -0.0057 -0.0112 -0.9999
vn -0.0054 -0.0118 -0.9999
vn -0.0062 -0.0098 -0.9999
vn -0.0064 -0.0092 -0.9999
vn 0.0227 0.0245 -0.9994
vn 0.0262 0.0517 -0.9983
vn 0.0232 0.0437 -0.9988
vn 0.0161 0.0706 -0.9974
vn -0.0276 0.1590 -0.9869
vn 0.0128 -0.0170 -0.9998
vn -0.5050 0.1567 -0.8488
vn -0.4345 -0.0093 -0.9006
vn 0.0170 0.0565 -0.9983
vn -0.0118 0.4475 -0.8942
vn 0.0293 -0.0242 -0.9993
vn -0.0490 -0.6415 -0.7656
vn 0.0152 -0.8482 -0.5294
vn -0.0437 -0.8463 -0.5310
vn -0.0051 0.0024 -1.0000
vn 0.4275 0.0583 -0.9021
vn 0.4320 -0.0102 -0.9018
vn 0.0013 0.0427 -0.9991
vn -0.0380 0.1666 -0.9853
vn -0.9526 -0.0168 -0.3037
vn -0.9557 0.1431 -0.2574
vn -0.9999 -0.0108 0.0034
vn -0.9986 0.0515 0.0072
vn -0.9495 0.0747 0.3048
vn -0.9314 -0.2640 0.2504
vn -0.8643 -0.4639 0.1946
vn -0.2569 -0.2410 -0.9359
vn -0.2854 0.3818 -0.8791
vn -0.8943 -0.2639 -0.3614
vn -0.8209 0.4851 -0.3014
vn -0.9975 0.0703 0.0054
vn 0.9404 0.0546 -0.3356
vn 0.4330 0.0930 -0.8966
vn 0.9339 0.0921 -0.3456
vn 0.9987 0.0500 -0.0062
vn 0.9991 0.0420 -0.0083
vn 0.9451 0.0576 0.3217
vn 0.9484 0.0675 0.3097
vn 0.9988 0.0482 0.0076
vn 0.9412 0.0563 0.3330
vn 0.9468 -0.0002 -0.3217
vn 0.9690 0.1583 -0.1895
vn 0.9980 0.0618 0.0095
vn 0.4311 0.0630 0.9001
vn 0.4222 0.0577 0.9046
vn -0.0006 0.0369 0.9993
vn 0.0103 0.0454 0.9989
vn 0.0103 0.0675 0.9977
vn -0.0443 0.2714 0.9615
vn -0.0065 0.0938 0.9956
vn 0.0011 0.0141 0.9999
vn -0.0034 0.0419 0.9991
vn 0.4246 0.0560 0.9037
vn -0.0047 0.0462 0.9989
vn 0.1137 -0.2135 0.9703
vn 0.0341 0.0521 0.9981
vn 0.0506 0.0671 0.9965
vn 0.0292 0.0680 0.9973
vn 0.0517 0.0648 0.9966
vn 0.0684 0.0608 0.9958
vn 0.0232 -0.1236 0.9921
vn 0.0214 -0.1525 0.9881
vn 0.0614 0.1644 0.9845
vn 0.0055 0.0434 0.9990
vn 0.1223 -0.0715 0.9899
vn 0.0275 0.0434 0.9987
vn 0.0752 0.1498 0.9859
vn 0.0891 0.3446 0.9345
vn 0.0620 0.4523 0.8897
vn 0.0543 0.5929 0.8035
vn -0.7819 -0.5888 0.2051
vn -0.2560 -0.7045 0.6619
vn -0.4563 -0.4595 0.7620
vn -0.9088 -0.3830 0.1654
vn 0.0323 -0.6843 0.7285
vn 0.0299 -0.5040 0.8632
vn -0.9831 -0.1035 0.1508
vn -0.9264 -0.1138 0.3589
vn 0.0392 -0.1158 0.9925
vn 0.0564 -0.1554 0.9862
vn -0.8807 0.2711 0.3884
vn -0.9460 0.2838 0.1569
vn -0.0043 0.2096 0.9778
vn -0.1413 0.2149 0.9664
vn -0.6703 0.7304 0.1314
vn -0.4570 0.6694 0.5857
vn -0.4225 0.6098 0.6705
vn -0.0071 0.6704 0.7420
vn 0.0408 0.5252 0.8500
vn 0.1229 0.0494 0.9912
vn 0.0878 0.0615 0.9942
vn -0.8807 0.0778 0.4673
vn -0.9690 0.0701 0.2368
vn -0.8611 0.4606 0.2154
vn -0.8899 -0.4015 0.2164
vn -0.8372 -0.2725 0.4741
vn 0.0755 -0.3381 0.9381
vn 0.0412 -0.2753 0.9605
vn 0.0729 0.0488 0.9961
vn 0.0157 0.0590 0.9981
vn 0.0007 0.0476 0.9989
vn 0.0294 0.0202 0.9994
vn -0.0375 0.0639 0.9973
vn -0.0378 0.0639 0.9972
vn 0.0206 0.0475 0.9987
vn 0.4245 0.0788 0.9020
vn 0.4688 0.0722 0.8803
vn 0.0363 -0.1107 0.9932
vn -0.0290 -0.2109 0.9771
vn 0.9664 0.0498 0.2521
vn 0.8427 0.0545 0.5356
vn 0.8758 -0.1499 0.4588
vn 0.9737 -0.0972 0.2059
vn 0.9664 0.0498 0.2520
vn 0.9993 0.0351 -0.0082
vn 0.9570 0.0596 0.2840
vn 0.9992 0.0381 0.0153
vn 0.9519 0.0524 -0.3018
vn 0.8385 0.3965 -0.3738
vn 0.3449 0.4795 -0.8069
vn 0.8388 0.5026 -0.2094
vn 0.3987 0.5790 -0.7112
vn -0.0237 0.5411 -0.8406
vn -0.0030 0.3962 -0.9182
vn 0.0094 0.0453 -0.9989
vn 0.4370 0.0587 -0.8975
vn 0.0076 0.0366 -0.9993
vn 0.0014 0.0912 -0.9958
vn 0.0256 0.0229 -0.9994
vn -0.5088 0.1245 -0.8518
vn -0.0577 -0.1173 -0.9914
vn -0.6363 -0.0140 -0.7713
vn -0.9763 -0.0811 -0.2005
vn -0.9659 0.0995 -0.2389
vn -0.9657 0.0445 -0.2560
vn -0.8467 0.0465 -0.5300
vn 0.0644 0.0186 -0.9978
vn -0.9984 0.0567 0.0045
vn -0.9665 0.0630 0.2488
vn -0.9600 0.0825 0.2675
vn -0.9688 0.1619 0.1878
vn -0.9994 0.0298 -0.0152
vn -0.5057 -0.4441 -0.7397
vn -0.5057 -0.4441 -0.7396
vn -0.5579 -0.7248 -0.4042
vn -0.8943 -0.2638 -0.3614
vn -0.8393 -0.5045 -0.2024
vn -0.6839 -0.7288 0.0335
vn -0.8647 0.4534 0.2163
vn -0.7655 0.5741 0.2905
vn -0.7818 -0.5888 0.2051
vn -0.9831 -0.1036 0.1508
vn -0.9991 0.0422 -0.0055
vn -0.8611 0.4606 0.2153
vn -0.9983 0.0558 0.0148
vn -0.9985 0.0537 0.0043
vn -0.9644 0.0692 -0.2551
vn -0.9729 0.0579 -0.2237
vn -0.8563 0.0791 -0.5104
vn -0.8010 0.4317 -0.4148
vn -0.8893 0.3936 -0.2329
vn -0.8713 0.0621 -0.4869
vn -0.9573 0.2202 -0.1873
vn -0.8883 0.2181 -0.4041
vn -0.8836 0.4245 -0.1976
vn -0.5849 0.4842 -0.6507
vn 0.0521 0.4042 -0.9132
vn 0.0724 0.4363 -0.8969
vn 0.0916 0.0544 -0.9943
vn 0.0590 0.0565 -0.9967
vn 0.0598 0.0256 -0.9979
vn 0.8664 -0.1116 0.4868
vn 0.2280 -0.1879 0.9554
vn 0.0877 -0.2026 0.9753
vn 0.4498 0.0012 0.8931
vn 0.0176 0.2857 -0.9582
vn 0.0363 0.0244 -0.9990
vn 0.0067 0.0520 -0.9986
vn 0.0277 0.0537 -0.9982
vn 0.0027 0.0588 -0.9983
vn 0.0069 0.0651 -0.9979
vn 0.0671 0.5941 -0.8016
vn 0.1120 0.5906 -0.7992
vn -0.0158 -0.0806 -0.9966
vn -0.0238 0.1824 -0.9829
vn -0.0497 0.0511 -0.9975
vn -0.0234 0.0382 -0.9990
vn 0.4546 0.0507 -0.8892
vn -0.0522 0.0474 -0.9975
vn -0.0567 0.0252 -0.9981
vn -0.0855 0.0244 -0.9960
vn -0.0501 0.0059 -0.9987
vn -0.0745 0.0075 -0.9972
vn 0.0730 0.2979 -0.9518
vn -0.0055 0.0104 -0.9999
vn -0.0420 -0.0021 -0.9991
vn -0.0038 -0.0114 -0.9999
vn 0.0864 0.0035 -0.9963
vn 0.1168 0.0610 -0.9913
vn 0.0877 -0.0107 -0.9961
vn -0.0743 0.0016 -0.9972
vn 0.1629 0.0080 -0.9866
vn 0.1473 0.0802 -0.9858
vn -0.9749 -0.0085 -0.2226
vn -0.9069 -0.0048 -0.4214
vn -0.9060 0.0925 -0.4130
vn -0.9715 0.0912 -0.2189
vn -0.9991 0.0420 0.0009
vn -0.9999 0.0008 -0.0122
vn -0.9824 -0.0948 -0.1611
vn -0.9994 0.0295 0.0161
vn -0.9757 0.0830 0.2026
vn -0.9805 0.0268 0.1945
vn -0.9045 -0.0698 -0.4207
vn 0.1628 -0.0036 -0.9866
vn -0.9730 -0.0667 -0.2211
vn -0.9992 -0.0396 -0.0005
vn -0.9815 -0.0160 0.1907
vn -0.9818 -0.0078 0.1898
vn -0.9255 -0.0817 -0.3697
vn 0.0383 -0.0787 -0.9962
vn -0.1088 -0.0910 -0.9899
vn -0.2248 -0.5903 -0.7752
vn 0.0527 -0.5165 -0.8546
vn 0.0733 -0.7042 -0.7062
vn -0.2382 -0.7364 -0.6333
vn -0.6973 -0.7019 -0.1455
vn -0.8548 -0.4987 -0.1434
vn -0.8804 -0.3089 -0.3599
vn -0.9734 -0.0736 0.2171
vn -0.8364 -0.5077 0.2064
vn 0.8781 -0.0646 0.4742
vn 0.8799 -0.0067 0.4752
vn 0.9694 -0.0123 0.2452
vn 0.9682 -0.0672 0.2411
vn 0.9999 -0.0095 0.0122
vn 0.9988 -0.0392 0.0308
vn 0.9999 -0.0074 0.0117
vn 0.9748 0.0605 0.2145
vn 0.9987 0.0506 -0.0006
vn 0.9679 0.0464 0.2471
vn 0.9982 0.0597 0.0015
vn 0.9285 0.2909 0.2309
vn 0.9728 -0.0057 -0.2314
vn 0.9655 0.0633 -0.2527
vn 0.9685 0.0572 -0.2423
vn 0.9726 0.0003 -0.2323
vn -0.1327 -0.0152 0.9910
vn -0.1277 -0.0068 0.9918
vn -0.0662 -0.0100 0.9978
vn -0.0669 -0.0213 0.9975
vn -0.0000 -0.0389 0.9992
vn 0.0028 0.0207 0.9998
vn -0.0858 0.0196 0.9961
vn -0.0436 0.0480 0.9979
vn -0.1390 0.0171 0.9901
vn -0.0828 0.0389 0.9958
vn 0.8767 0.0612 0.4772
vn 0.8568 0.0491 0.5133
vn 0.1107 0.3776 0.9193
vn 0.3666 0.3965 0.8417
vn 0.9285 0.2908 0.2309
vn 0.0286 0.0737 0.9969
vn 0.0692 0.0951 0.9931
vn -0.0301 -0.0925 0.9953
vn -0.5271 0.0125 0.8497
vn 0.1604 0.0730 0.9843
vn 0.1096 0.0306 0.9935
vn 0.1901 0.0287 0.9813
vn 0.0942 -0.0194 0.9954
vn 0.1806 -0.0129 0.9835
vn 0.0875 -0.0136 0.9961
vn 0.1756 -0.0136 0.9844
vn -0.9251 0.0313 0.3785
vn -0.9246 -0.0143 0.3806
vn -0.9818 -0.0078 0.1897
vn -0.9043 0.0963 0.4159
vn -0.9026 0.1098 0.4162
vn -0.9734 -0.0736 0.2170
vn -0.9236 -0.0128 0.3831
vn -0.4894 -0.2794 0.8261
vn 0.0130 -0.4667 0.8843
vn 0.0278 0.5667 0.8235
vn 0.3760 0.6316 0.6780
vn 0.4441 0.8543 0.2701
vn 0.8163 0.5318 0.2254
vn 0.0286 0.1863 0.9821
vn -0.0040 0.1953 0.9807
vn 0.4360 0.0613 0.8979
vn 0.9441 0.0698 0.3222
vn 0.9574 0.1913 0.2163
vn 0.8671 0.2403 0.4363
vn 0.9982 0.0593 -0.0042
vn 0.9601 0.0535 -0.2745
vn 0.8483 0.3375 -0.4080
vn 0.8333 0.4904 -0.2552
vn 0.8430 0.0695 -0.5334
vn 0.3745 0.3783 -0.8466
vn 0.8699 0.0040 -0.4931
vn 0.8700 0.0016 -0.4931
vn 0.8671 0.0633 -0.4941
vn 0.3797 0.5526 -0.7419
vn 0.0138 0.4476 -0.8941
vn 0.2707 0.2811 -0.9207
vn 0.9519 0.2013 -0.2308
vn 0.8626 -0.1212 -0.4912
vn 0.8627 0.0834 -0.4987
vn -0.0026 -0.0533 -0.9986
vn 0.9686 -0.1129 -0.2215
vn 0.4264 -0.4164 -0.8030
vn 0.8746 -0.4240 -0.2352
vn 0.7480 -0.6036 -0.2760
vn 0.2414 -0.5928 -0.7683
vn 0.2484 0.5924 -0.7664
vn 0.7118 0.6206 -0.3289
vn 0.8169 0.5032 -0.2821
vn 0.3649 0.4575 -0.8109
vn -0.0153 0.3722 -0.9280
vn -0.0167 0.2795 -0.9600
vn -0.0048 -0.5173 -0.8558
vn -0.0033 -0.3736 -0.9276
vn 0.4557 0.1707 -0.8736
vn 0.9407 0.1987 -0.2750
vn -0.0052 0.1122 -0.9937
vn 0.0494 0.1684 -0.9845
vn 0.0640 0.1457 -0.9873
vn -0.9768 0.1432 -0.1591
vn -0.9187 0.1860 -0.3485
vn 0.0527 0.5357 -0.8428
vn 0.0720 0.4551 -0.8875
vn -0.7925 0.5352 -0.2924
vn -0.8643 0.4752 -0.1645
vn -0.0569 0.5963 0.8007
vn 0.3074 0.5679 0.7635
vn 0.1218 0.7376 0.6642
vn -0.0734 0.7371 0.6717
vn 0.6645 0.7084 0.2378
vn 0.8132 0.5251 0.2512
vn -0.0179 -0.7077 0.7062
vn -0.0478 -0.9030 0.4271
vn 0.2706 -0.8071 0.5248
vn 0.0035 -0.9037 0.4281
vn 0.4232 -0.5832 0.6934
vn 0.7551 -0.5181 0.4017
vn 0.8710 -0.4317 0.2346
vn 0.2147 0.3176 0.9236
vn 0.9354 0.2251 0.2726
vn 0.8204 0.0704 0.5674
vn 0.6751 0.2574 -0.6914
vn 0.0258 -0.0350 -0.9991
vn -0.0245 0.5618 -0.8269
vn -0.4105 0.5443 -0.7315
vn -0.4272 0.8099 -0.4021
vn -0.8245 0.5105 -0.2442
vn -0.9638 -0.1386 0.2276
vn 0.0311 -0.3637 0.9310
vn 0.0403 -0.1009 0.9941
vn -0.5830 -0.3555 0.7305
vt 0.003374 -0.335449
vt 0.003374 -0.245117
vt 0.164917 -0.245117
vt 0.164917 -0.335449
vt 0.003262 -0.443848
vt 0.164917 -0.534180
vt 0.164917 -0.443848
vt 0.003262 -0.534180
vt 0.264160 -0.433838
vt 0.173828 -0.342773
vt 0.173828 -0.433838
vt 0.264160 -0.342773
vt 0.173462 -0.443359
vt 0.263672 -0.443359
vt 0.263672 -0.534668
vt 0.173462 -0.534668
vt 0.164917 -0.342773
vt 0.003284 -0.433838
vt 0.164917 -0.433838
vt 0.003319 -0.342773
vt 0.164917 -0.237549
vt 0.003374 -0.146484
vt 0.003374 -0.237549
vt 0.164917 -0.146484
vt 0.623047 0.000346
vt 0.623047 -0.116882
vt 0.521973 -0.124023
vt 0.521973 0.000346
vt 0.714355 -0.101563
vt 0.712891 0.000346
vt 0.722168 -0.102844
vt 0.722168 0.000346
vt 0.623047 -0.223999
vt 0.712891 -0.114929
vt 0.713379 -0.223999
vt 0.713379 -0.228271
vt 0.521973 -0.248413
vt 0.512695 -0.124023
vt 0.512695 -0.248413
vt 0.623047 -0.334961
vt 0.521973 -0.325928
vt 0.731445 0.000346
vt 0.730957 -0.102661
vt 0.865723 0.000346
vt 0.865723 -0.114746
vt 1.000000 0.000346
vt 1.000977 -0.112366
vt 1.000977 -0.116150
vt 0.722168 -0.223999
vt 0.722168 -0.115112
vt 0.730957 -0.223999
vt 0.731445 -0.114929
vt 0.865723 -0.223999
vt 0.503906 -0.124023
vt 0.512695 0.000346
vt 0.503906 0.000346
vt 0.364990 0.000346
vt 0.364990 -0.124023
vt 0.226807 -0.124023
vt 0.226807 -0.248413
vt 0.364990 -0.248413
vt 0.226807 0.000346
vt 0.503906 -0.248413
vt 0.503906 -0.325928
vt 0.364990 -0.337402
vt 0.217529 -0.248413
vt 0.217529 -0.124023
vt 0.208374 -0.124023
vt 0.208374 -0.248413
vt 0.106201 -0.248413
vt 0.209961 -0.332031
vt 0.106201 -0.340576
vt 0.106384 -0.111572
vt 0.208374 0.000346
vt 0.217529 0.000346
vt 0.106201 0.000346
vt 0.018509 -0.112305
vt 0.018829 0.000346
vt 0.016678 -0.335693
vt 0.018829 -0.248413
vt 0.009521 -0.248413
vt 0.010010 -0.335205
vt 0.009483 -0.125854
vt 0.018539 -0.123840
vt 0.018738 -0.435059
vt 0.106201 -0.444824
vt 0.009476 -0.112305
vt 0.009521 0.000346
vt 0.009232 -0.436279
vt 0.009193 -0.442871
vt 0.018723 -0.442383
vt 0.018723 -0.446289
vt 0.000342 -0.446289
vt 0.009178 -0.446289
vt 0.009193 -0.451172
vt 0.000339 -0.450439
vt 0.018723 -0.449463
vt 0.000334 -0.457031
vt 0.009201 -0.457275
vt 0.018723 -0.455566
vt 0.009712 -0.547363
vt 0.000140 -0.548340
vt 0.019470 -0.545898
vt 0.000126 -0.554688
vt 0.009750 -0.553711
vt 0.009781 -0.559082
vt 0.019547 -0.553223
vt 0.019577 -0.558594
vt 0.009285 -0.667480
vt -0.000014 -0.667480
vt 0.000117 -0.559082
vt 0.000215 -0.778809
vt 0.009521 -0.779297
vt 0.018829 -0.778320
vt 0.019241 -0.667480
vt 0.106262 -0.559082
vt 0.106201 -0.666992
vt 0.106201 -0.784180
vt 0.207764 -0.559082
vt 0.209229 -0.445068
vt 0.208374 -0.668457
vt 0.215454 -0.559570
vt 0.218140 -0.444824
vt 0.218506 -0.349854
vt 0.210205 -0.347900
vt 0.226929 -0.445313
vt 0.226929 -0.349121
vt 0.364990 -0.444824
vt 0.224243 -0.558594
vt 0.384521 -0.558105
vt 0.504883 -0.445801
vt 0.503906 -0.337646
vt 0.512695 -0.337646
vt 0.503906 -0.333008
vt 0.512695 -0.332275
vt 0.521973 -0.332764
vt 0.521973 -0.337646
vt 0.523438 -0.446045
vt 0.513672 -0.445801
vt 0.622070 -0.448975
vt 0.714844 -0.335205
vt 0.712402 -0.449219
vt 0.723633 -0.334473
vt 0.713379 -0.234497
vt 0.722168 -0.234985
vt 0.730957 -0.234253
vt 0.730957 -0.334473
vt 0.731934 -0.448730
vt 0.721680 -0.449219
vt 0.865723 -0.335205
vt 1.002930 -0.335205
vt 1.000000 -0.248413
vt 0.999512 -0.436768
vt 0.865723 -0.449707
vt 0.722168 -0.229004
vt 0.730957 -0.227417
vt 0.999512 -0.444092
vt 0.999512 -0.446289
vt 0.999512 -0.450439
vt 0.999512 -0.457031
vt 0.999512 -0.548340
vt 0.866211 -0.560547
vt 0.999512 -0.554688
vt 0.999512 -0.559082
vt 0.999023 -0.667480
vt 0.866211 -0.671875
vt 0.865723 -0.780762
vt 1.000000 -0.778809
vt 0.731445 -0.621094
vt 0.731445 -0.777344
vt 0.722168 -0.621094
vt 0.722168 -0.560547
vt 0.731445 -0.559570
vt 0.721191 -0.776855
vt 0.731934 -0.881348
vt 0.722168 -0.881348
vt 0.730957 -0.890137
vt 0.722168 -0.890137
vt 0.712891 -0.560059
vt 0.712891 -0.621094
vt 0.712402 -0.881348
vt 0.712402 -0.776855
vt 0.623535 -0.778809
vt 0.623047 -0.894531
vt 0.620605 -0.666504
vt 0.623047 -0.559082
vt 0.713379 -0.890137
vt 0.521973 -0.567383
vt 0.521973 -0.657715
vt 0.521973 -0.870117
vt 0.521973 -0.745605
vt 0.512695 -0.745605
vt 0.512695 -0.870117
vt 0.521973 -0.994629
vt 0.512695 -0.994629
vt 0.521973 -1.069336
vt 0.512695 -1.069336
vt 0.521973 -0.668945
vt 0.623047 -0.994629
vt 0.521973 -1.126953
vt 0.623047 -1.069336
vt 0.712891 -1.069336
vt 0.712891 -0.994629
vt 0.712891 -1.126953
vt 0.512695 -1.126953
vt 0.722168 -1.069336
vt 0.722168 -0.994629
vt 0.731445 -1.069336
vt 0.731445 -0.994629
vt 0.865723 -0.994629
vt 0.865723 -1.069336
vt 0.731445 -0.901367
vt 0.865723 -0.893555
vt 1.000000 -0.870117
vt 1.000000 -0.994629
vt 0.722168 -1.126953
vt 0.731445 -1.126953
vt 0.865723 -1.126953
vt 1.000000 -1.126953
vt 1.000000 -1.069336
vt 0.722168 -0.901367
vt 0.713379 -0.903320
vt 0.722168 -0.894531
vt 0.713379 -0.896484
vt 0.731445 -0.894531
vt 1.000000 -0.788574
vt 1.000000 -0.781738
vt 0.217529 -1.126953
vt 0.217529 -1.069336
vt 0.226807 -1.069336
vt 0.226807 -1.126953
vt 0.364990 -1.126953
vt 0.364990 -1.069336
vt 0.364990 -0.994629
vt 0.226807 -0.994629
vt 0.364990 -0.870117
vt 0.226807 -0.870117
vt 0.364990 -0.780273
vt 0.227783 -0.782715
vt 0.503906 -0.994629
vt 0.503906 -0.870117
vt 0.503906 -1.126953
vt 0.503906 -1.069336
vt 0.208374 -1.126953
vt 0.208374 -1.069336
vt 0.106201 -1.069336
vt 0.106201 -0.994629
vt 0.208374 -0.994629
vt 0.208374 -0.870117
vt 0.217529 -0.994629
vt 0.217529 -0.870117
vt 0.208252 -0.782715
vt 0.215820 -0.783203
vt 0.106201 -0.870117
vt 0.018829 -0.870117
vt 0.018829 -0.790039
vt 0.009521 -0.792480
vt 0.009521 -0.870117
vt 0.018829 -0.994629
vt 0.009521 -0.994629
vt 0.018829 -1.069336
vt 0.009521 -1.069336
vt 0.018829 -1.126953
vt 0.009521 -1.126953
vt 0.000215 -1.069336
vt 0.000215 -0.994629
vt 0.000215 -0.870117
vt 0.000215 -0.788574
vt 0.000215 -1.126953
vt 0.000215 -0.781738
vt 0.009521 -0.784668
vt 0.018829 -0.782715
vt 0.208374 -0.777344
vt 0.216797 -0.777344
vt 0.227295 -0.777344
vt 0.217407 -0.770508
vt 0.208374 -0.770020
vt 0.217529 -0.669434
vt 0.226807 -0.668945
vt 0.226929 -0.770020
vt 0.367188 -0.667480
vt 0.503906 -0.745605
vt 0.503906 -0.669434
vt 0.503906 -0.663086
vt 0.512695 -0.668945
vt 0.512695 -0.663086
vt 0.521973 -0.663574
vt 0.512695 -0.657715
vt 0.503906 -0.657715
vt 0.512695 -0.567871
vt 0.493652 -0.567383
vt 0.512695 -0.562500
vt 0.493164 -0.562012
vt 0.492432 -0.557129
vt 0.512695 -0.557129
vt 0.492920 -0.554688
vt 0.512695 -0.553711
vt 0.521973 -0.557129
vt 0.521973 -0.551758
vt 0.521973 -0.562012
vt 0.512695 -0.548340
vt 0.493896 -0.549316
vt 0.521973 -0.545898
vt 0.712891 -0.550293
vt 0.722168 -0.550781
vt 0.731445 -0.549316
vt 0.712891 -0.557129
vt 0.722168 -0.557129
vt 0.731445 -0.556641
vt 0.209961 -0.335449
vt 0.218750 -0.334961
vt 0.217896 -0.340576
vt 0.210083 -0.340576
vt 0.225952 -0.340576
vt 0.226074 -0.334961
vt 0.210205 -0.344971
vt 0.218384 -0.346436
vt 0.226685 -0.345459
vt 0.218994 -0.331543
vt 0.226074 -0.331299
vt 0.512695 -0.325928
vt 0.713867 -0.109131
vt 0.722168 -0.110168
vt 0.730957 -0.110107
vt 1.000977 -0.123047
vt 0.018509 -0.116882
vt 0.009483 -0.119080
s 1
g センター
g NarukamiShrine_mesh.087_Rocks
usemtl Rocks
f 3/1/1 2/2/1 1/3/1
f 1/3/1 4/4/1 3/1/1
s 2
f 7/5/1 5/6/1 6/7/1
f 5/6/1 7/5/1 8/8/1
s 3
f 11/9/2 9/10/2 10/11/2
f 9/10/2 11/9/2 12/12/3
s 4
f 15/13/4 14/14/4 13/15/4
f 13/15/4 16/16/4 15/13/4
s 5
f 19/17/5 17/18/5 18/19/5
f 17/18/5 19/17/5 20/20/5
s 6
f 23/1/1 21/3/1 22/2/1
f 21/3/1 23/1/1 24/4/1
s 7
f 27/5/1 26/7/1 25/6/1
f 25/6/1 28/8/1 27/5/1
s 8
f 31/21/6 29/22/7 30/23/8
f 29/22/7 31/21/6 32/24/9
s 9
f 35/9/10 33/10/11 34/11/12
f 33/10/11 35/9/10 36/12/13
s 10
f 39/17/14 38/19/14 37/18/14
f 37/18/14 40/20/14 39/17/14
s 11
f 43/1/1 42/2/1 41/3/1
f 41/3/1 44/4/1 43/1/1
s 12
f 47/5/1 45/6/1 46/7/1
f 45/6/1 47/5/1 48/8/1
s 13
f 51/21/15 49/22/15 50/23/16
f 49/22/15 51/21/15 52/24/15
s 14
f 55/9/17 54/11/17 53/10/18
f 53/10/18 56/12/19 55/9/17
s 15
f 59/17/20 58/19/21 57/18/20
f 57/18/20 60/20/20 59/17/20
s 16
f 63/21/22 62/23/22 61/22/22
f 61/22/22 64/24/23 63/21/22
s 17
f 67/13/24 65/15/24 66/14/24
f 65/15/24 67/13/24 68/16/24
s 18
f 71/17/25 69/18/25 70/19/26
f 69/18/25 71/17/25 72/20/25
s 19
f 75/5/27 74/7/27 73/6/27
f 73/6/27 76/8/27 75/5/27
s 20
f 79/21/28 78/23/29 77/22/30
f 77/22/30 80/24/31 79/21/28
s 21
f 83/13/32 82/14/32 81/15/32
f 81/15/32 84/16/33 83/13/32
s 22
f 87/17/34 85/18/34 86/19/35
f 85/18/34 87/17/34 88/20/34
s 23
f 91/1/1 90/2/1 89/3/1
f 89/3/1 92/4/1 91/1/1
s 24
f 95/5/1 93/6/1 94/7/1
f 93/6/1 95/5/1 96/8/1
s 25
f 99/21/36 97/22/37 98/23/38
f 97/22/37 99/21/36 100/24/36
s 26
f 103/9/39 102/11/39 101/10/39
f 101/10/39 104/12/39 103/9/39
s 27
f 107/13/40 105/15/40 106/14/41
f 105/15/40 107/13/40 108/16/42
s 28
f 111/17/43 110/19/44 109/18/45
f 109/18/45 112/20/46 111/17/43
s 29
f 115/1/1 114/2/1 113/3/1
f 113/3/1 116/4/1 115/1/1
s 30
f 119/5/1 117/6/1 118/7/1
f 117/6/1 119/5/1 120/8/1
s 31
f 123/21/47 122/23/47 121/22/47
f 121/22/47 124/24/47 123/21/47
s 32
f 127/9/48 126/11/48 125/10/48
f 125/10/48 128/12/48 127/9/48
s 33
f 131/13/49 129/15/50 130/14/51
f 129/15/50 131/13/49 132/16/52
s 34
f 135/17/53 133/18/54 134/19/55
f 133/18/54 135/17/53 136/20/56
s 35
f 139/1/1 137/3/1 138/2/1
f 137/3/1 139/1/1 140/4/1
s 36
f 143/5/1 142/7/1 141/6/1
f 141/6/1 144/8/1 143/5/1
s 37
f 147/21/57 145/22/58 146/23/59
f 145/22/58 147/21/57 148/24/60
s 38
f 151/9/61 150/11/62 149/10/63
f 149/10/63 152/12/64 151/9/61
s 39
f 155/1/1 154/2/1 153/3/1
f 153/3/1 156/4/1 155/1/1
s 40
f 159/5/1 157/6/1 158/7/1
f 157/6/1 159/5/1 160/8/1
s 41
f 163/13/65 161/15/66 162/14/67
f 161/15/66 163/13/65 164/16/68
s 42
f 167/1/1 166/2/1 165/3/1
f 165/3/1 168/4/1 167/1/1
s 43
f 171/5/1 169/6/1 170/7/1
f 169/6/1 171/5/1 172/8/1
s 44
f 175/21/69 174/23/70 173/22/71
f 173/22/71 176/24/72 175/21/69
s 45
f 179/9/73 178/11/74 177/10/75
f 177/10/75 180/12/76 179/9/73
s 46
f 183/17/77 181/18/78 182/19/79
f 181/18/78 183/17/77 184/20/78
s 47
f 187/1/27 186/2/27 185/3/27
f 185/3/27 188/4/27 187/1/27
s 48
f 191/5/27 189/6/27 190/7/27
f 189/6/27 191/5/27 192/8/27
s 49
f 195/21/80 194/23/81 193/22/82
f 193/22/82 196/24/83 195/21/80
s 50
f 199/9/84 197/10/84 198/11/85
f 197/10/84 199/9/84 200/12/86
s 51
f 203/13/87 202/14/88 201/15/87
f 201/15/87 204/16/89 203/13/87
s 52
f 207/17/90 205/18/91 206/19/92
f 205/18/91 207/17/90 208/20/93
s 53
f 211/1/1 210/2/1 209/3/1
f 209/3/1 212/4/1 211/1/1
s 54
f 215/5/1 213/6/1 214/7/1
f 213/6/1 215/5/1 216/8/1
s 55
f 219/13/94 218/14/95 217/15/96
f 217/15/96 220/16/94 219/13/94
s 56
f 223/17/97 222/19/98 221/18/99
f 221/18/99 224/20/100 223/17/97
s 57
g NarukamiShrine_mesh.087_Statue_Base
usemtl Statue_Base
f 227/25/101 226/26/102 225/27/103
f 225/27/103 228/28/104 227/25/101
f 229/29/105 226/26/102 227/25/101
f 227/25/101 230/30/106 229/29/105
f 231/31/107 229/29/105 230/30/106
f 230/30/106 232/32/108 231/31/107
f 225/27/103 226/26/102 233/33/109
f 233/33/109 226/26/102 234/34/110
f 234/34/110 235/35/111 233/33/109
f 236/36/112 524/33/113 523/35/114
f 233/33/109 237/37/115 225/27/103
f 238/38/116 225/27/103 237/37/115
f 228/28/104 225/27/103 238/38/116
f 237/37/115 239/39/117 238/38/116
f 237/37/115 233/33/109 240/40/118
f 240/40/118 241/41/119 237/37/115
f 231/31/107 232/32/108 242/42/120
f 242/42/120 243/43/121 231/31/107
f 243/43/121 242/42/120 244/44/122
f 244/44/122 245/45/123 243/43/121
f 245/45/123 244/44/122 246/46/124
f 246/46/124 247/47/125 245/45/123
f 247/47/125 248/48/126 245/45/123
f 249/49/127 235/35/111 234/34/110
f 234/34/110 250/50/128 249/49/127
f 251/51/129 249/49/127 250/50/128
f 250/50/128 252/52/130 251/51/129
f 253/53/131 251/51/129 252/52/130
f 252/52/130 245/45/123 253/53/131
f 254/54/132 238/38/116 239/39/117
f 255/55/133 238/38/116 254/54/132
f 254/54/132 256/56/134 255/55/133
f 257/57/135 256/56/134 254/54/132
f 254/54/132 258/58/136 257/57/135
f 257/57/135 258/58/136 259/59/137
f 260/60/138 259/59/137 258/58/136
f 258/58/136 261/61/139 260/60/138
f 259/59/137 262/62/140 257/57/135
f 258/58/136 254/54/132 263/63/141
f 263/63/141 261/61/139 258/58/136
f 261/61/139 263/63/141 264/64/142
f 264/64/142 265/65/143 261/61/139
f 259/59/137 260/60/138 266/66/144
f 266/66/144 267/67/145 259/59/137
f 262/62/140 259/59/137 267/67/145
f 268/68/146 267/67/145 266/66/144
f 266/66/144 269/69/147 268/68/146
f 268/68/146 269/69/147 270/70/148
f 270/70/148 269/69/147 271/71/149
f 271/71/149 272/72/150 270/70/148
f 270/70/148 273/73/151 268/68/146
f 267/67/145 268/68/146 274/74/152
f 274/74/152 275/75/153 267/67/145
f 267/67/145 275/75/153 262/62/140
f 276/76/154 274/74/152 268/68/146
f 268/68/146 273/73/151 276/76/154
f 276/76/154 273/73/151 277/77/155
f 277/77/155 278/78/156 276/76/154
f 270/70/148 272/72/150 279/79/157
f 279/79/157 280/80/158 270/70/148
f 281/81/159 280/80/158 279/79/157
f 279/79/157 282/82/160 281/81/159
f 280/80/158 281/81/159 283/83/161
f 283/83/161 284/84/162 280/80/158
f 270/70/148 280/80/158 284/84/162
f 284/84/162 273/73/151 270/70/148
f 285/85/163 279/79/157 272/72/150
f 282/82/160 279/79/157 285/85/163
f 272/72/150 286/86/164 285/85/163
f 278/78/156 277/77/155 287/87/165
f 287/87/165 288/88/166 278/78/156
f 285/85/163 525/89/167 282/82/160
f 526/90/168 525/89/167 285/85/163
f 526/90/168 290/91/169 289/92/170
f 285/85/163 290/91/169 526/90/168
f 286/86/164 290/91/169 285/85/163
f 286/86/164 289/92/170 290/91/169
f 528/93/171 527/94/172 291/95/173
f 291/95/173 292/96/174 528/93/171
f 527/94/172 529/92/175 293/97/176
f 293/97/176 291/95/173 527/94/172
f 294/98/177 292/96/174 291/95/173
f 291/95/173 295/99/178 294/98/177
f 530/99/179 291/95/173 293/97/176
f 293/97/176 296/100/180 530/99/179
f 293/97/176 529/92/175 286/86/164
f 296/100/180 293/97/176 286/86/164
f 294/98/177 295/99/178 297/101/181
f 297/101/181 298/102/182 294/98/177
f 530/99/179 296/100/180 299/103/183
f 299/103/183 531/101/184 530/99/179
f 300/104/185 298/102/182 297/101/181
f 297/101/181 301/105/186 300/104/185
f 301/105/186 531/101/184 299/103/183
f 300/104/185 301/105/186 302/106/187
f 301/105/186 304/107/188 303/108/189
f 299/103/183 304/107/188 301/105/186
f 305/109/190 532/106/191 303/108/189
f 302/106/187 533/109/192 306/110/193
f 306/110/193 307/111/194 302/106/187
f 302/106/187 307/111/194 300/104/185
f 308/112/195 306/110/193 533/109/192
f 533/109/192 309/113/196 308/112/195
f 310/114/197 534/113/198 305/109/190
f 305/109/190 311/115/199 310/114/197
f 303/108/189 311/115/199 305/109/190
f 311/115/199 303/108/189 312/116/200
f 303/108/189 304/107/188 312/116/200
f 304/107/188 299/103/183 312/116/200
f 312/116/200 313/117/201 311/115/199
f 314/118/202 310/114/197 311/115/199
f 311/115/199 313/117/201 314/118/202
f 312/116/200 299/103/183 296/100/180
f 296/100/180 286/86/164 312/116/200
f 315/119/203 312/116/200 286/86/164
f 315/119/203 313/117/201 312/116/200
f 286/86/164 316/120/204 315/119/203
f 315/119/203 317/121/205 313/117/201
f 314/118/202 313/117/201 317/121/205
f 318/122/206 315/119/203 316/120/204
f 316/120/204 319/123/207 318/122/206
f 320/124/208 319/123/207 316/120/204
f 316/120/204 321/125/209 320/124/208
f 321/125/209 316/120/204 286/86/164
f 322/126/210 319/123/207 320/124/208
f 535/122/211 319/123/207 322/126/210
f 536/124/212 323/127/213 322/126/214
f 324/128/215 322/126/214 323/127/213
f 323/127/213 265/65/143 324/128/215
f 325/129/216 322/126/214 324/128/215
f 322/126/214 325/129/216 318/122/206
f 324/128/215 326/130/217 325/129/216
f 327/131/218 324/128/215 265/65/143
f 265/65/143 328/132/219 327/131/218
f 327/131/218 328/132/219 329/133/220
f 329/133/220 328/132/219 330/134/221
f 330/134/221 328/132/219 265/65/143
f 330/134/221 331/135/222 329/133/220
f 329/133/220 331/135/222 332/136/223
f 332/136/223 333/137/224 329/133/220
f 329/133/220 333/137/224 334/138/225
f 334/138/225 335/139/226 329/133/220
f 329/133/220 335/139/226 327/131/218
f 336/140/227 334/138/225 333/137/224
f 333/137/224 240/40/118 336/140/227
f 240/40/118 333/137/224 332/136/223
f 336/140/227 240/40/118 337/141/228
f 337/141/228 338/142/229 336/140/227
f 338/142/229 337/141/228 339/143/230
f 339/143/230 337/141/228 340/144/231
f 340/144/231 341/145/232 339/143/230
f 339/143/230 341/145/232 342/146/233
f 342/146/233 343/147/234 339/143/230
f 339/143/230 343/147/234 344/148/235
f 344/148/235 345/149/236 339/143/230
f 339/143/230 537/149/237 338/142/229
f 343/147/234 342/146/233 253/53/131
f 253/53/131 346/150/238 343/147/234
f 347/151/239 346/150/238 253/53/131
f 253/53/131 348/152/240 347/151/239
f 346/150/238 347/151/239 349/153/241
f 349/153/241 350/154/242 346/150/238
f 350/154/242 344/148/235 343/147/234
f 343/147/234 346/150/238 350/154/242
f 351/155/243 341/145/232 340/144/231
f 340/144/231 236/36/112 351/155/243
f 351/155/243 236/36/112 523/35/114
f 235/35/111 249/49/127 351/155/244
f 351/155/243 538/49/245 251/51/246
f 251/51/246 352/156/247 351/155/243
f 352/156/247 539/51/248 253/53/131
f 342/146/233 352/156/247 253/53/131
f 341/145/232 351/155/243 352/156/247
f 352/156/247 342/146/233 341/145/232
f 349/153/241 353/157/249 350/154/242
f 353/157/249 354/158/250 350/154/242
f 540/158/251 355/159/174 350/154/242
f 355/159/174 356/160/252 350/154/242
f 350/154/242 356/160/252 357/161/182
f 357/161/182 358/162/253 350/154/242
f 357/161/182 359/163/185 358/162/253
f 358/162/253 541/164/254 360/165/193
f 360/165/193 361/166/255 358/162/253
f 362/167/256 361/166/255 360/165/193
f 360/165/193 363/168/195 362/167/256
f 361/166/255 364/169/257 358/162/253
f 362/167/256 365/170/258 361/166/255
f 365/170/258 364/169/257 361/166/255
f 366/171/259 364/169/257 365/170/258
f 364/169/257 366/171/259 367/172/260
f 367/172/260 368/173/261 364/169/257
f 364/169/257 368/173/261 358/162/253
f 365/170/258 369/174/262 366/171/259
f 369/174/262 365/170/258 370/175/263
f 370/175/263 365/170/258 362/167/256
f 370/175/263 371/176/264 369/174/262
f 371/176/264 370/175/263 372/177/265
f 372/177/265 373/178/266 371/176/264
f 374/179/267 543/172/268 542/171/269
f 542/171/269 375/180/270 374/179/267
f 375/180/270 542/171/269 544/174/271
s 58
f 369/174/272 376/181/273 545/176/274
f 376/181/273 373/178/275 545/176/274
s 57
f 376/181/276 377/182/277 544/174/271
f 544/174/271 377/182/277 375/180/270
f 378/183/278 377/182/277 376/181/276
f 375/180/270 377/182/277 378/183/278
f 376/181/276 379/184/279 378/183/278
f 378/183/278 380/185/280 375/180/270
f 375/180/270 380/185/280 381/186/281
f 381/186/281 374/179/267 375/180/270
f 376/181/276 382/187/282 379/184/279
f 546/178/283 382/187/282 376/181/276
f 383/188/284 381/186/281 380/185/280
f 380/185/280 384/189/285 383/188/284
f 378/183/278 379/184/279 385/190/286
f 385/190/286 386/191/287 378/183/278
f 380/185/280 378/183/278 386/191/287
f 387/192/288 386/191/287 385/190/286
f 385/190/286 388/193/289 387/192/288
f 388/193/289 385/190/286 389/194/290
f 389/194/290 390/195/291 388/193/289
f 390/195/291 389/194/290 391/196/292
f 391/196/292 392/197/293 390/195/291
f 386/191/287 393/198/294 380/185/280
f 393/198/294 386/191/287 387/192/288
f 394/199/295 389/194/290 385/190/286
f 385/190/286 379/184/279 394/199/295
f 391/196/292 389/194/290 394/199/295
f 392/197/293 391/196/292 395/200/296
f 395/200/296 391/196/292 396/201/297
f 394/199/295 396/201/297 391/196/292
f 397/202/298 396/201/297 394/199/295
f 394/199/295 398/203/299 397/202/298
f 399/204/300 395/200/296 396/201/297
f 397/202/298 399/204/300 396/201/297
f 395/200/296 400/205/301 392/197/293
f 401/206/302 397/202/298 398/203/299
f 399/204/300 397/202/298 401/206/302
f 398/203/299 402/207/303 401/206/302
f 403/208/304 548/206/305 547/207/306
f 547/207/306 404/209/307 403/208/304
f 403/208/304 404/209/307 405/210/308
f 405/210/308 406/211/309 403/208/304
f 405/210/308 404/209/307 407/212/310
f 407/212/310 404/209/307 547/207/306
f 407/212/310 408/213/311 405/210/308
f 405/210/308 408/213/311 409/214/312
f 409/214/312 410/215/313 405/210/308
f 411/216/314 548/206/305 403/208/304
f 401/206/302 549/216/315 399/204/300
f 403/208/304 412/217/316 411/216/314
f 412/217/316 403/208/304 406/211/309
f 406/211/309 413/218/317 412/217/316
f 414/219/318 413/218/317 406/211/309
f 406/211/309 415/220/319 414/219/318
f 405/210/308 410/215/313 415/220/319
f 415/220/319 406/211/309 405/210/308
f 547/207/306 416/221/320 407/212/310
f 417/222/321 550/221/322 402/207/303
f 402/207/303 398/203/299 417/222/321
f 418/223/323 550/221/322 417/222/321
f 417/222/321 419/224/324 418/223/323
f 418/223/323 419/224/324 551/187/325
f 551/187/325 419/224/324 379/184/279
f 379/184/279 419/224/324 417/222/321
f 379/184/279 417/222/321 398/203/299
f 551/187/325 552/178/326 418/223/323
f 418/223/323 552/178/326 553/177/327
f 553/177/327 420/225/328 418/223/323
f 416/221/320 554/223/329 420/225/328
f 420/225/328 407/212/310 416/221/320
f 398/203/299 394/199/295 379/184/279
f 408/213/311 407/212/310 420/225/328
f 420/225/328 553/177/327 408/213/311
f 372/177/265 370/175/263 408/213/311
f 362/167/256 408/213/311 370/175/263
f 409/214/312 408/213/311 362/167/256
f 362/167/256 421/226/330 409/214/312
f 422/227/331 421/226/330 362/167/256
f 363/168/195 422/227/331 362/167/256
f 425/228/332 424/229/333 423/230/334
f 423/230/334 426/231/335 425/228/332
f 427/232/336 426/231/335 423/230/334
f 423/230/334 428/233/337 427/232/336
f 429/234/338 428/233/337 423/230/334
f 423/230/334 430/235/339 429/234/338
f 430/235/339 423/230/334 424/229/333
f 431/236/340 429/234/338 430/235/339
f 430/235/339 432/237/341 431/236/340
f 433/238/342 431/236/340 432/237/341
f 432/237/341 434/239/343 433/238/342
f 435/240/344 429/234/338 431/236/340
f 431/236/340 436/241/345 435/240/344
f 436/241/345 431/236/340 433/238/342
f 437/242/346 427/232/336 428/233/337
f 428/233/337 438/243/347 437/242/346
f 429/234/338 435/240/344 438/243/347
f 438/243/347 428/233/337 429/234/338
f 556/229/348 555/228/349 439/244/350
f 439/244/350 440/245/351 556/229/348
f 440/245/351 439/244/350 441/246/352
f 440/245/351 441/246/352 442/247/353
f 442/247/353 443/248/354 440/245/351
f 444/249/355 443/248/354 442/247/353
f 445/250/356 443/248/354 444/249/355
f 444/249/355 446/251/357 445/250/356
f 558/250/358 557/251/359 432/237/341
f 434/239/343 432/237/341 557/251/359
f 446/251/357 444/249/355 447/252/360
f 447/252/360 448/253/361 446/251/357
f 446/251/357 448/253/361 434/239/362
f 442/247/353 449/254/363 444/249/355
f 450/255/364 449/254/363 442/247/353
f 449/254/363 450/255/364 451/256/365
f 452/257/366 451/256/365 450/255/364
f 450/255/364 453/258/367 452/257/366
f 453/258/367 450/255/364 454/259/368
f 442/247/353 454/259/368 450/255/364
f 454/259/368 455/260/369 453/258/367
f 455/260/369 454/259/368 456/261/370
f 442/247/353 441/246/352 456/261/370
f 456/261/370 454/259/368 442/247/353
f 456/261/370 457/262/371 455/260/369
f 451/256/365 314/118/202 449/254/363
f 444/249/355 449/254/363 314/118/202
f 314/118/202 447/252/360 444/249/355
f 443/248/354 445/250/356 556/229/348
f 457/262/371 456/261/370 458/263/372
f 458/263/372 456/261/370 441/246/352
f 439/244/350 458/263/372 441/246/352
f 458/263/372 459/264/373 457/262/371
s 59
f 560/260/374 559/262/375 460/265/376
f 460/265/376 461/266/313 560/260/374
f 561/258/377 560/260/374 461/266/313
f 562/257/378 561/258/377 462/267/312
f 461/266/313 462/267/312 561/258/377
s 57
f 462/267/312 463/268/379 452/257/366
s 59
f 464/269/318 460/265/376 559/262/375
f 559/262/375 563/264/380 464/269/318
s 57
f 556/229/348 440/245/351 443/248/354
f 424/229/333 558/250/358 430/235/339
f 432/237/341 430/235/339 558/250/358
f 463/268/379 466/270/331 465/271/381
f 309/113/196 465/271/381 466/270/331
f 466/270/331 308/112/195 309/113/196
f 467/272/382 465/271/381 534/113/198
f 534/113/198 310/114/197 467/272/382
f 465/271/381 452/257/366 463/268/379
f 452/257/366 465/271/381 467/272/382
f 467/272/382 451/256/365 452/257/366
f 467/272/382 310/114/197 314/118/202
f 451/256/365 467/272/382 314/118/202
f 468/273/383 447/252/360 314/118/202
f 448/253/361 447/252/360 468/273/383
f 468/273/383 469/274/384 448/253/361
f 564/253/385 469/274/384 470/275/386
f 434/239/343 470/275/386 433/238/342
f 471/276/387 469/274/384 468/273/383
f 468/273/383 472/277/388 471/276/387
f 472/277/388 468/273/383 314/118/202
f 473/278/389 471/276/387 472/277/388
f 472/277/388 317/121/205 473/278/389
f 317/121/205 472/277/388 314/118/202
f 471/276/387 473/278/389 474/279/390
f 474/279/390 475/280/391 565/276/392
f 469/274/384 565/276/392 475/280/391
f 475/280/391 470/275/386 469/274/384
f 470/275/386 475/280/391 433/238/342
f 475/280/391 474/279/390 476/281/393
f 476/281/393 433/238/342 475/280/391
f 477/282/394 433/238/342 476/281/393
f 476/281/393 478/283/395 477/282/394
f 476/281/393 479/284/396 478/283/395
f 387/192/288 477/282/394 478/283/395
f 436/241/345 477/282/394 387/192/288
f 433/238/342 477/282/394 436/241/345
f 387/192/288 566/193/397 436/241/345
f 478/283/395 480/285/398 387/192/288
f 480/285/398 478/283/395 479/284/396
f 435/240/344 436/241/345 566/193/397
f 566/193/397 567/195/399 435/240/344
f 435/240/344 567/195/399 568/197/400
f 568/197/400 438/243/347 435/240/344
f 437/242/346 438/243/347 568/197/400
f 568/197/400 569/205/401 437/242/346
f 387/192/288 480/285/398 393/198/294
f 479/284/396 481/286/402 480/285/398
f 482/287/403 393/198/294 480/285/398
f 480/285/398 481/286/402 482/287/403
f 384/189/285 482/287/403 481/286/402
f 481/286/402 483/288/404 384/189/285
f 483/288/404 481/286/402 479/284/396
f 479/284/396 484/289/405 483/288/404
f 485/290/406 570/288/407 484/289/405
f 384/189/285 483/288/404 571/290/408
f 484/289/405 486/291/409 485/290/406
f 380/185/280 482/287/403 384/189/285
f 380/185/280 393/198/294 482/287/403
f 571/290/408 383/188/284 384/189/285
f 487/292/410 485/290/406 486/291/409
f 486/291/409 488/293/411 487/292/410
f 487/292/410 488/293/411 489/294/412
f 489/294/412 490/295/413 487/292/410
f 573/295/414 572/294/415 491/296/416
f 491/296/416 492/297/417 573/295/414
f 493/298/418 573/295/414 492/297/417
f 492/297/417 494/299/419 493/298/418
f 490/295/413 574/298/420 495/300/421
f 495/300/421 487/292/410 490/295/413
f 571/290/408 487/292/410 495/300/421
f 495/300/421 383/188/284 571/290/408
f 493/298/418 494/299/419 381/186/281
f 495/300/421 574/298/420 381/186/281
f 383/188/284 495/300/421 381/186/281
f 496/301/422 492/297/417 491/296/416
f 491/296/416 497/302/423 496/301/422
f 496/301/422 497/302/423 327/131/218
f 324/128/215 327/131/218 497/302/423
f 497/302/423 326/130/217 324/128/215
f 489/294/412 488/293/411 326/130/217
f 497/302/423 491/296/416 326/130/217
f 491/296/416 572/294/415 326/130/217
f 327/131/218 335/139/226 496/301/422
f 498/303/424 496/301/422 335/139/226
f 492/297/417 496/301/422 498/303/424
f 498/303/424 494/299/419 492/297/417
f 494/299/419 498/303/424 381/186/281
f 335/139/226 334/138/225 498/303/424
f 498/303/424 334/138/225 336/140/227
f 336/140/227 381/186/281 498/303/424
f 499/304/425 381/186/281 336/140/227
f 336/140/227 338/142/229 499/304/425
f 500/305/426 499/304/425 338/142/229
f 338/142/229 537/149/237 500/305/426
f 501/306/427 575/305/428 345/149/236
f 345/149/236 344/148/235 501/306/427
f 502/307/429 499/304/425 500/305/426
f 500/305/426 503/308/430 502/307/429
f 576/308/431 575/305/428 501/306/427
f 502/307/429 503/308/430 543/172/268
f 543/172/268 374/179/267 502/307/429
f 381/186/281 502/307/429 374/179/267
f 381/186/281 499/304/425 502/307/429
f 367/172/260 576/308/431 504/309/432
f 501/306/427 504/309/432 576/308/431
f 504/309/432 368/173/261 367/172/260
f 368/173/261 504/309/432 358/162/253
f 501/306/427 344/148/235 358/162/253
f 504/309/432 501/306/427 358/162/253
f 344/148/235 350/154/242 358/162/253
f 507/310/433 506/311/434 505/312/435
f 505/312/435 508/313/436 507/310/433
f 509/314/437 505/312/435 506/311/434
f 506/311/434 510/315/438 509/314/437
f 509/314/437 510/315/438 265/65/143
f 511/316/439 578/313/440 577/312/441
f 511/316/439 579/72/442 578/313/440
f 507/310/433 508/313/436 272/72/150
f 577/312/441 512/317/443 511/316/439
f 577/312/441 580/314/444 513/318/445
f 513/318/445 512/317/443 577/312/441
f 513/318/445 580/314/444 265/65/143
f 514/319/446 506/311/434 507/310/433
f 507/310/433 271/71/149 514/319/446
f 271/71/149 507/310/433 272/72/150
f 514/319/446 271/71/149 269/69/147
f 269/69/147 266/66/144 514/319/446
f 515/320/447 581/319/448 266/66/144
f 506/311/434 514/319/446 515/320/447
f 515/320/447 510/315/438 506/311/434
f 510/315/438 515/320/447 265/65/143
f 266/66/144 260/60/138 515/320/447
f 321/125/209 511/316/439 512/317/443
f 511/316/439 321/125/209 272/72/150
f 512/317/443 320/124/208 321/125/209
f 536/124/212 512/317/443 513/318/445
f 513/318/445 323/127/213 536/124/212
f 323/127/213 513/318/445 265/65/143
f 515/320/447 260/60/138 261/61/139
f 261/61/139 265/65/143 515/320/447
f 286/86/164 272/72/150 321/125/209
f 264/64/142 330/134/221 265/65/143
f 330/134/221 264/64/142 516/321/449
f 516/321/449 264/64/142 263/63/141
f 263/63/141 239/39/117 516/321/449
f 239/39/117 263/63/141 254/54/132
f 582/321/450 239/39/117 237/37/115
f 237/37/115 241/41/119 582/321/450
f 516/321/449 331/135/222 330/134/221
f 331/135/222 516/321/449 241/41/119
f 241/41/119 332/136/223 331/135/222
f 240/40/118 332/136/223 241/41/119
f 337/141/228 240/40/118 233/33/109
f 233/33/109 340/144/231 337/141/228
f 236/36/112 340/144/231 233/33/109
f 238/38/116 255/55/133 228/28/104
f 476/281/393 484/289/405 479/284/396
f 486/291/409 484/289/405 476/281/393
f 476/281/393 326/130/217 486/291/409
f 326/130/217 476/281/393 325/129/216
f 488/293/411 486/291/409 326/130/217
f 474/279/390 325/129/216 476/281/393
f 318/122/206 325/129/216 474/279/390
f 474/279/390 473/278/389 318/122/206
f 315/119/203 318/122/206 473/278/389
f 473/278/389 317/121/205 315/119/203
f 250/50/128 234/34/110 517/322/451
f 517/322/451 518/323/452 250/50/128
f 252/52/130 583/50/453 518/323/452
f 518/323/452 519/324/454 252/52/130
f 231/31/107 518/323/452 517/322/451
f 517/322/451 229/29/105 231/31/107
f 243/43/121 519/324/454 518/323/452
f 518/323/452 231/31/107 243/43/121
f 245/45/123 519/324/454 243/43/121
f 245/45/123 252/52/130 519/324/454
f 226/26/102 229/29/105 517/322/451
f 517/322/451 234/34/110 226/26/102
f 248/48/126 520/325/455 245/45/123
f 253/53/131 245/45/123 520/325/455
f 520/325/455 348/152/240 253/53/131
f 522/326/456 584/327/457 287/87/165
f 287/87/165 277/77/155 522/326/456
f 283/83/161 521/327/458 522/326/456
f 522/326/456 284/84/162 283/83/161
f 284/84/162 522/326/456 273/73/151
f 522/326/456 277/77/155 273/73/151
