# Blender 5.0.1
# www.blender.org
mtllib lampara.mtl
g lampara_Mesh
v -0.525864 0.420430 0.525864
v 0.525864 0.420430 0.525864
v -0.160906 17.684996 0.160905
v 0.160906 17.684996 0.160905
v -0.160906 17.684996 -0.160907
v 0.160906 17.684996 -0.160907
v -0.525864 0.420428 -0.525864
v 0.525864 0.420428 -0.525864
v -0.599194 0.764980 0.599194
v 0.599194 0.764980 0.599194
v 0.599194 0.764970 -0.599194
v -0.599194 0.764970 -0.599194
v -0.525864 1.422136 -0.525864
v 0.525864 1.422136 -0.525864
v 0.525864 1.422142 0.525864
v -0.525864 1.422142 0.525864
v -0.525864 4.744018 -0.525864
v 0.525864 4.744018 -0.525864
v 0.525864 4.744026 0.525864
v -0.525864 4.744026 0.525864
v -0.596346 5.391144 -0.596346
v 0.596346 5.391144 -0.596346
v 0.596346 5.391152 0.596346
v -0.596346 5.391152 0.596346
v -0.258912 6.297122 -0.258912
v 0.258912 6.297122 -0.258912
v 0.258912 6.297122 0.258912
v -0.258912 6.297122 0.258912
v -0.235890 12.034938 -0.235891
v 0.235890 12.034938 -0.235891
v 0.235890 12.034938 0.235889
v -0.235890 12.034938 0.235889
v 0.000000 0.420432 0.742054
v 0.000000 0.420430 -0.742054
v 0.000000 0.764970 -0.845528
v 0.000000 1.422134 -0.742054
v 0.000000 4.744018 -0.742054
v 0.000000 5.391144 -0.841508
v 0.000000 6.297122 -0.365354
v 0.000000 12.034938 -0.332869
v 0.000000 17.684994 -0.227059
v 0.000000 17.684994 0.227057
v 0.000000 12.034938 0.332867
v 0.000000 6.297122 0.365354
v 0.000000 5.391152 0.841508
v 0.000000 4.744026 0.742054
v 0.000000 1.422140 0.742054
v 0.000000 0.764980 0.845528
v -0.212754 17.684994 -0.000501
v 0.212754 17.684994 -0.000501
v 0.311900 12.034938 -0.000733
v 0.342340 6.297122 -0.000804
v 0.788500 5.391148 -0.001850
v 0.695310 4.744020 -0.001632
v 0.695310 1.422136 -0.001632
v 0.792266 0.764974 -0.001858
v 0.695310 0.420432 -0.001632
v 0.000000 0.420428 -0.001632
v -0.695310 0.420432 -0.001632
v -0.792266 0.764974 -0.001858
v -0.695310 1.422136 -0.001632
v -0.695310 4.744020 -0.001632
v -0.788500 5.391148 -0.001850
v -0.342340 6.297122 -0.000804
v -0.311900 12.034938 -0.000733
v 0.000000 0.507916 1.105146
v 0.000000 -0.005228 1.180160
v 0.836334 -0.005228 0.836334
v 0.783176 0.507916 0.783176
v 1.035532 0.507906 -0.002430
v 1.105820 -0.005228 -0.002594
v 0.836334 -0.005230 -0.836334
v 0.783176 0.507900 -0.783176
v 0.000000 -0.005230 -1.180160
v 0.000000 0.507900 -1.105146
v -0.836334 -0.005230 -0.836334
v -1.105820 -0.005228 -0.002594
v -1.035532 0.507906 -0.002430
v -0.783176 0.507900 -0.783176
v -0.836334 -0.005228 0.836334
v -0.783176 0.507916 0.783176
v -0.609372 1.063862 0.609372
v 0.000000 1.063862 0.859890
v 0.609372 1.063862 0.609372
v 0.805724 1.063852 -0.001890
v 0.609372 1.063852 -0.609372
v 0.000000 1.063852 -0.859890
v -0.609372 1.063852 -0.609372
v -0.805724 1.063852 -0.001890
v 0.360772 6.023642 0.360772
v 0.477020 6.023640 -0.001120
v 0.360772 6.023640 -0.360772
v 0.000000 6.023640 -0.509088
v -0.360772 6.023640 -0.360772
v -0.477020 6.023640 -0.001120
v -0.360772 6.023642 0.360772
v 0.000000 6.023642 0.509088
v 0.404508 6.086318 -0.404508
v 0.000000 6.086318 -0.570806
v 0.000000 6.273624 -0.409646
v 0.290300 6.273624 -0.290300
v 0.383842 6.273628 -0.000900
v 0.534850 6.086318 -0.001254
v 0.000000 6.273628 0.409646
v 0.000000 6.086318 0.570807
v 0.404508 6.086318 0.404508
v 0.290300 6.273628 0.290300
v -0.404508 6.086318 -0.404508
v -0.534850 6.086318 -0.001254
v -0.383842 6.273628 -0.000900
v -0.290300 6.273624 -0.290300
v -0.404508 6.086318 0.404508
v -0.290300 6.273628 0.290300
v -0.350776 12.626390 -0.350777
v 0.000000 12.626388 -0.494985
v 0.350776 12.626390 -0.350777
v 0.463804 12.626388 -0.001089
v 0.350776 12.626390 0.350775
v 0.000000 12.626388 0.494983
v -0.350776 12.626390 0.350775
v -0.463804 12.626388 -0.001089
v -0.320630 13.750744 -0.320631
v 0.000000 13.750742 -0.452445
v 0.320630 13.750744 -0.320631
v 0.423944 13.750742 -0.000995
v 0.320630 13.750744 0.320629
v 0.000000 13.750742 0.452443
v -0.320630 13.750744 0.320629
v -0.423944 13.750742 -0.000995
v -0.749734 15.995902 -0.749735
v 0.000000 15.995900 -1.057957
v 0.749734 15.995902 -0.749735
v 0.991314 15.995900 -0.002327
v 0.749734 15.995902 0.749733
v 0.000000 15.995900 1.057955
v -0.749734 15.995902 0.749733
v -0.991314 15.995900 -0.002327
v -0.434750 17.532846 -0.434751
v 0.000000 17.532837 -0.613481
v 0.434750 17.532846 -0.434751
v 0.574836 17.532837 -0.001349
v 0.434750 17.532846 0.434749
v 0.000000 17.532837 0.613479
v -0.434750 17.532846 0.434749
v -0.574836 17.532837 -0.001349
v 0.000000 16.751310 -1.473293
v -1.044066 16.751318 -1.044067
v -1.380486 16.751310 -0.003239
v -1.044066 16.751316 1.044065
v 0.000000 16.751310 1.473291
v 1.044066 16.751316 1.044065
v 1.380486 16.751310 -0.003239
v 1.044066 16.751318 -1.044067
v 0.000000 13.930872 -0.829173
v -0.587602 13.930872 -0.587603
v -0.776942 13.930872 -0.001823
v -0.587602 13.930872 0.587601
v 0.000000 13.930872 0.829171
v 0.587602 13.930872 0.587601
v 0.776942 13.930872 -0.001823
v 0.587602 13.930872 -0.587603
v 0.000000 16.548162 -1.439917
v -1.020412 16.548170 -1.020413
v -1.349212 16.548162 -0.003167
v -1.020412 16.548170 1.020411
v 0.000000 16.548162 1.439915
v 1.020412 16.548170 1.020411
v 1.349212 16.548162 -0.003167
v 1.020412 16.548170 -1.020413
v 0.000000 17.946600 -0.227059
v 0.212754 17.946600 -0.000501
v 0.160906 17.946600 -0.160907
v -0.212754 17.946600 -0.000501
v -0.160906 17.946600 -0.160907
v -0.160906 17.946600 0.160905
v 0.000000 17.946600 0.227057
v 0.160906 17.946600 0.160905
v 0.000000 18.617373 -0.050847
v 0.000000 18.617373 -0.000113
v 0.047644 18.617373 -0.000113
v 0.036032 18.617373 -0.036033
v -0.047644 18.617373 -0.000113
v -0.036032 18.617373 -0.036033
v -0.036032 18.617373 0.036031
v 0.000000 18.617373 0.050845
v 0.036032 18.617373 0.036031
v 0.000000 18.236286 -0.361431
v -0.256132 18.236292 -0.256133
v -0.338662 18.236286 -0.000795
v -0.256132 18.236292 0.256131
v 0.000000 18.236286 0.361429
v 0.256132 18.236292 0.256131
v 0.338662 18.236286 -0.000795
v 0.256132 18.236292 -0.256133
v -0.613674 14.262930 -0.613675
v 0.000000 14.262928 -0.865963
v 0.613674 14.262930 -0.613675
v 0.811412 14.262928 -0.001905
v 0.613674 14.262928 0.613673
v 0.000000 14.262928 0.865959
v -0.613674 14.262928 0.613673
v -0.811412 14.262928 -0.001905
v -0.727764 15.716080 -0.727765
v 0.000000 15.716078 -1.026957
v 0.727764 15.716080 -0.727765
v 0.962266 15.716076 -0.002259
v 0.727764 15.716080 0.727763
v 0.000000 15.716076 1.026955
v -0.727764 15.716080 0.727763
v -0.962266 15.716078 -0.002259
v -0.165266 17.684996 0.147333
v -0.165266 17.946600 0.147333
v -0.263072 18.236292 0.234525
v -0.037010 18.617373 0.032993
v 0.000000 18.617373 0.046561
v 0.037010 18.617373 0.032993
v 0.263072 18.236292 0.234525
v 0.165266 17.946600 0.147333
v 0.165266 17.684996 0.147333
v 0.446530 17.532843 0.398079
v 1.072354 16.751314 0.955997
v 1.048062 16.548170 0.934339
v 0.770048 15.995902 0.686493
v 0.747482 15.716080 0.666377
v 0.630302 14.262928 0.561909
v 0.603524 13.930872 0.538037
v 0.329318 13.750744 0.293583
v 0.360280 12.626390 0.321187
v 0.242282 12.034938 0.215993
v 0.265928 6.297122 0.237074
v 0.298166 6.273628 0.265814
v 0.415468 6.086318 0.370388
v 0.370546 6.023642 0.330340
v 0.612504 5.391152 0.546044
v 0.540114 4.744026 0.481508
v 0.540114 1.422140 0.481508
v 0.625882 1.063862 0.557970
v 0.615428 0.764980 0.548650
v 0.804396 0.507914 0.717114
v 0.858994 -0.005228 0.765790
v 0.540114 0.420430 0.481508
v 0.000000 0.420432 0.679518
v -0.540114 0.420430 0.481508
v -0.858994 -0.005228 0.765790
v -0.804396 0.507914 0.717114
v -0.615428 0.764980 0.548652
v -0.625882 1.063862 0.557970
v -0.540114 1.422140 0.481508
v -0.540114 4.744024 0.481508
v -0.612504 5.391152 0.546044
v -0.370546 6.023642 0.330340
v -0.415468 6.086318 0.370388
v -0.298166 6.273628 0.265814
v -0.265928 6.297122 0.237074
v -0.242282 12.034938 0.215991
v -0.360280 12.626390 0.321187
v -0.329318 13.750744 0.293583
v -0.603524 13.930872 0.538037
v -0.630302 14.262928 0.561909
v -0.747482 15.716080 0.666375
v -0.770048 15.995902 0.686493
v -1.048062 16.548168 0.934341
v -1.072354 16.751316 0.955997
v -0.446530 17.532846 0.398079
v 0.053152 0.764970 -0.823676
v 0.069472 0.507900 -1.076586
v 0.074188 -0.005230 -1.149660
v 0.046648 0.420430 -0.722876
v 0.061678 0.420428 -0.001632
v 0.047912 0.420432 0.661954
v 0.046648 0.420432 0.722876
v 0.074188 -0.005228 1.149660
v 0.069472 0.507916 1.076586
v 0.053152 0.764980 0.823676
v 0.054054 1.063862 0.837668
v 0.046648 1.422140 0.722876
v 0.046648 4.744026 0.722876
v 0.052900 5.391152 0.819762
v 0.032002 6.023642 0.495932
v 0.035882 6.086318 0.556054
v 0.025752 6.273628 0.399060
v 0.022968 6.297122 0.355912
v 0.020924 12.034938 0.324263
v 0.031116 12.626388 0.482191
v 0.028442 13.750742 0.440751
v 0.052124 13.930872 0.807743
v 0.054436 14.262928 0.843581
v 0.064558 15.716076 1.000415
v 0.066506 15.995900 1.030615
v 0.090516 16.548162 1.402703
v 0.092614 16.751310 1.435217
v 0.038564 17.532837 0.597625
v 0.014274 17.684994 0.221189
v 0.014274 17.946600 0.221189
v 0.022720 18.236288 0.352089
v 0.003196 18.617373 0.049531
v 0.003282 18.617373 0.045357
v 0.004226 18.617373 -0.000113
v 0.003196 18.617373 -0.049533
v 0.022720 18.236288 -0.352091
v 0.014274 17.946600 -0.221191
v 0.014274 17.684994 -0.221191
v 0.038566 17.532837 -0.597627
v 0.092614 16.751310 -1.435219
v 0.090516 16.548162 -1.402705
v 0.066506 15.995900 -1.030617
v 0.064558 15.716078 -1.000417
v 0.054436 14.262928 -0.843583
v 0.052124 13.930872 -0.807745
v 0.028442 13.750742 -0.440753
v 0.031116 12.626388 -0.482193
v 0.020924 12.034938 -0.324265
v 0.022968 6.297122 -0.355912
v 0.025752 6.273624 -0.399060
v 0.035882 6.086318 -0.556054
v 0.032002 6.023640 -0.495932
v 0.052900 5.391144 -0.819762
v 0.046648 4.744018 -0.722876
v 0.046648 1.422134 -0.722876
v 0.054054 1.063852 -0.837668
v -0.683814 0.420432 -0.037196
v 0.000000 0.420428 -0.051862
v 0.060658 0.420428 -0.050562
v 0.683814 0.420432 -0.037196
v 1.087538 -0.005230 -0.059156
v 1.018412 0.507906 -0.055396
v 0.779168 0.764974 -0.042382
v 0.792404 1.063852 -0.043102
v 0.683814 1.422136 -0.037196
v 0.683814 4.744020 -0.037196
v 0.775464 5.391148 -0.042182
v 0.469134 6.023640 -0.025518
v 0.526006 6.086318 -0.028612
v 0.377496 6.273628 -0.020534
v 0.336680 6.297122 -0.018314
v 0.306742 12.034938 -0.016687
v 0.456136 12.626388 -0.024813
v 0.416934 13.750742 -0.022679
v 0.764096 13.930872 -0.041563
v 0.797998 14.262928 -0.043407
v 0.946356 15.716078 -0.051477
v 0.974924 15.995900 -0.053031
v 1.326906 16.548162 -0.072177
v 1.357664 16.751310 -0.073851
v 0.565332 17.532837 -0.030751
v 0.209238 17.684994 -0.011383
v 0.209238 17.946600 -0.011383
v 0.333064 18.236286 -0.018117
v 0.046856 18.617373 -0.002549
v 0.004156 18.617373 -0.003465
v 0.000000 18.617373 -0.003555
v -0.046856 18.617373 -0.002549
v -0.333064 18.236286 -0.018117
v -0.209238 17.946600 -0.011383
v -0.209238 17.684994 -0.011383
v -0.565332 17.532837 -0.030751
v -1.357664 16.751310 -0.073851
v -1.326906 16.548162 -0.072177
v -0.974924 15.995900 -0.053031
v -0.946356 15.716078 -0.051477
v -0.797998 14.262928 -0.043407
v -0.764096 13.930872 -0.041563
v -0.416934 13.750742 -0.022679
v -0.456136 12.626388 -0.024813
v -0.306742 12.034938 -0.016687
v -0.336680 6.297122 -0.018314
v -0.377496 6.273628 -0.020534
v -0.526006 6.086318 -0.028612
v -0.469134 6.023640 -0.025518
v -0.775464 5.391148 -0.042180
v -0.683814 4.744020 -0.037196
v -0.683814 1.422136 -0.037196
v -0.792404 1.063852 -0.043102
v -0.779168 0.764974 -0.042382
v -1.018412 0.507906 -0.055396
v -1.087538 -0.005230 -0.059156
v 0.554644 0.764970 -0.617508
v 0.724948 0.507900 -0.807114
v 0.774154 -0.005230 -0.861896
v 0.486768 0.420428 -0.541938
v 0.632974 0.420432 -0.038286
v 0.643614 0.420432 -0.001632
v 0.499956 0.420430 0.496230
v 0.486768 0.420430 0.541938
v 0.774154 -0.005228 0.861896
v 0.724948 0.507916 0.807114
v 0.554644 0.764980 0.617508
v 0.564066 1.063862 0.627996
v 0.486768 1.422142 0.541938
v 0.486768 4.744026 0.541938
v 0.552008 5.391152 0.614572
v 0.333950 6.023642 0.371798
v 0.374434 6.086318 0.416872
v 0.268718 6.273628 0.299174
v 0.239662 6.297122 0.266826
v 0.218352 12.034938 0.243099
v 0.324696 12.626390 0.361497
v 0.296792 13.750744 0.330429
v 0.543916 13.930872 0.605563
v 0.568048 14.262928 0.632429
v 0.673656 15.716080 0.750007
v 0.693992 15.995902 0.772649
v 0.944548 16.548168 1.051601
v 0.966442 16.751316 1.075977
v 0.402428 17.532843 0.448037
v 0.148944 17.684996 0.165823
v 0.148944 17.946600 0.165823
v 0.237088 18.236292 0.263959
v 0.033354 18.617373 0.037133
v 0.034258 18.617373 0.034001
v 0.044102 18.617373 -0.000113
v 0.043372 18.617373 -0.002625
v 0.033354 18.617373 -0.037135
v 0.237088 18.236292 -0.263961
v 0.148944 17.946600 -0.165825
v 0.148944 17.684996 -0.165825
v 0.402428 17.532843 -0.448039
v 0.966442 16.751318 -1.075979
v 0.944546 16.548170 -1.051603
v 0.693992 15.995902 -0.772651
v 0.673656 15.716080 -0.750009
v 0.568048 14.262930 -0.632431
v 0.543916 13.930872 -0.605563
v 0.296792 13.750742 -0.330431
v 0.324696 12.626390 -0.361497
v 0.218352 12.034938 -0.243101
v 0.239664 6.297122 -0.266826
v 0.268718 6.273624 -0.299174
v 0.374434 6.086318 -0.416872
v 0.333950 6.023640 -0.371798
v 0.552008 5.391144 -0.614572
v 0.486768 4.744018 -0.541938
v 0.486768 1.422136 -0.541938
v 0.564066 1.063852 -0.627996
v -0.539382 0.420428 -0.484048
v 0.000000 0.420430 -0.682992
v 0.047846 0.420430 -0.665344
v 0.499280 0.420428 -0.498838
v 0.539382 0.420428 -0.484048
v 0.857830 -0.005230 -0.769828
v 0.803306 0.507900 -0.720896
v 0.614594 0.764970 -0.551544
v 0.625034 1.063852 -0.560914
v 0.539382 1.422136 -0.484048
v 0.539382 4.744018 -0.484048
v 0.611674 5.391144 -0.548924
v 0.370044 6.023640 -0.332082
v 0.414904 6.086318 -0.372340
v 0.297762 6.273624 -0.267216
v 0.265568 6.297122 -0.238324
v 0.241954 12.034938 -0.217133
v 0.359792 12.626390 -0.322883
v 0.328870 13.750744 -0.295133
v 0.602706 13.930872 -0.540877
v 0.629446 14.262930 -0.564873
v 0.746470 15.716080 -0.669893
v 0.769004 15.995902 -0.690115
v 1.046640 16.548170 -0.939269
v 1.070902 16.751318 -0.961041
v 0.445924 17.532843 -0.400179
v 0.165042 17.684996 -0.148113
v 0.165042 17.946600 -0.148113
v 0.262714 18.236292 -0.235765
v 0.036960 18.617373 -0.033169
v 0.034212 18.617373 -0.034183
v 0.003278 18.617373 -0.045591
v 0.000000 18.617373 -0.046801
v -0.036960 18.617373 -0.033169
v -0.262714 18.236292 -0.235765
v -0.165042 17.946600 -0.148113
v -0.165042 17.684996 -0.148113
v -0.445924 17.532843 -0.400179
v -1.070902 16.751318 -0.961041
v -1.046640 16.548170 -0.939269
v -0.769004 15.995902 -0.690115
v -0.746470 15.716080 -0.669893
v -0.629446 14.262930 -0.564875
v -0.602706 13.930872 -0.540877
v -0.328870 13.750744 -0.295133
v -0.359792 12.626390 -0.322883
v -0.241954 12.034938 -0.217133
v -0.265568 6.297122 -0.238324
v -0.297762 6.273624 -0.267216
v -0.414904 6.086318 -0.372340
v -0.370044 6.023640 -0.332082
v -0.611674 5.391144 -0.548924
v -0.539382 4.744018 -0.484048
v -0.539382 1.422136 -0.484048
v -0.625034 1.063852 -0.560914
v -0.614594 0.764970 -0.551544
v -0.803306 0.507900 -0.720896
v -0.857830 -0.005230 -0.769828
v -0.613552 15.602058 -0.613553
v 0.000000 15.602052 -0.865791
v 0.000000 14.376956 -0.730063
v -0.517366 14.376956 -0.517367
v 0.630176 15.602056 0.561797
v 0.531384 14.376956 0.473725
v 0.684072 14.376952 -0.001605
v 0.811252 15.602050 -0.001905
v 0.000000 14.376952 0.730059
v -0.517366 14.376956 0.517365
v 0.000000 15.602050 0.865789
v -0.613552 15.602056 0.613551
v -0.531384 14.376956 0.473725
v -0.630176 15.602056 0.561797
v -0.811252 15.602052 -0.001905
v -0.684074 14.376956 -0.001605
v 0.478902 14.376956 0.533179
v 0.567936 15.602056 0.632305
v 0.054426 15.602050 0.843413
v 0.045894 14.376952 0.711193
v 0.567936 15.602058 -0.632307
v 0.478900 14.376956 -0.533181
v 0.045894 14.376956 -0.711195
v 0.054426 15.602052 -0.843415
v 0.530664 14.376956 -0.476225
v 0.629322 15.602058 -0.564763
v 0.797840 15.602052 -0.043399
v 0.672764 14.376952 -0.036595
v -0.629322 15.602058 -0.564763
v -0.530664 14.376956 -0.476225
v -0.672764 14.376956 -0.036595
v -0.797840 15.602052 -0.043399
vn -0.2908 0.0023 0.9568
vn 0.3769 0.1328 0.9167
vn 0.3800 0.0363 0.9243
vn -0.0000 1.0000 0.0001
vn -0.0000 1.0000 0.0002
vn 0.3844 0.1254 -0.9146
vn -0.3174 0.0425 -0.9474
vn 0.3800 0.0374 -0.9242
vn -0.0000 -1.0000 -0.0000
vn 0.9701 0.0138 0.2422
vn 0.9436 0.1291 -0.3050
vn 0.9509 0.0353 -0.3074
vn -0.9420 0.1212 -0.3131
vn -0.9646 0.0390 0.2608
vn -0.9509 0.0360 -0.3074
vn -0.3138 0.1373 0.9395
vn 0.3768 0.1340 0.9166
vn 0.9571 0.1310 0.2585
vn 0.9435 0.1293 -0.3050
vn -0.3138 0.1373 -0.9395
vn 0.3768 0.1340 -0.9166
vn -0.3249 0.1368 -0.9358
vn -0.9435 0.1293 -0.3050
vn -0.9571 0.1310 0.2585
vn 0.0275 0.2367 -0.9712
vn 0.9512 -0.0263 -0.3075
vn 0.9655 -0.0289 0.2587
vn 0.3801 -0.0279 0.9245
vn -0.3140 -0.0314 0.9489
vn -0.9663 -0.0294 0.2556
vn -0.9512 -0.0261 -0.3075
vn 0.3765 0.1395 -0.9159
vn 0.4186 -0.0705 -0.9054
vn 0.9429 0.1348 -0.3047
vn 0.9535 0.1357 0.2691
vn 0.3765 0.1395 0.9159
vn -0.3280 0.1415 0.9340
vn -0.9431 0.1349 -0.3038
vn -0.9535 0.1357 0.2691
vn 0.2975 0.6227 -0.7237
vn -0.2472 0.6320 -0.7345
vn 0.7619 0.6138 0.2069
vn 0.7548 0.6089 -0.2440
vn -0.2472 0.6320 0.7345
vn 0.2975 0.6227 0.7237
vn -0.7548 0.6089 -0.2440
vn -0.7619 0.6138 0.2069
vn 0.0758 0.1842 -0.9800
vn 0.3802 0.0052 -0.9249
vn -0.3148 0.0061 -0.9491
vn 0.9662 -0.0316 0.2560
vn 0.9515 0.0051 -0.3076
vn 0.9512 -0.0251 -0.3075
vn -0.3101 -0.0355 0.9501
vn 0.3802 0.0052 0.9249
vn 0.3801 -0.0266 0.9246
vn -0.9515 0.0051 -0.3076
vn -0.9662 -0.0309 0.2558
vn -0.9512 -0.0251 -0.3075
vn 0.3798 -0.0493 -0.9238
vn 0.4635 -0.1205 -0.8779
vn 0.9617 -0.1047 -0.2535
vn 0.3244 -0.1089 0.9396
vn -0.9500 -0.0484 -0.3086
vn -0.9626 -0.0479 0.2667
vn -0.3768 0.1340 -0.9166
vn -0.3799 0.0390 -0.9242
vn -0.0277 -0.2044 -0.9785
vn -0.3771 0.1290 -0.9172
vn -0.3801 -0.0290 -0.9245
vn 0.2303 0.3761 -0.8975
vn -0.3766 0.1387 -0.9159
vn -0.2975 0.6227 -0.7237
vn -0.2526 0.6311 -0.7334
vn -0.3801 -0.0292 -0.9245
vn -0.3802 0.0052 -0.9249
vn 0.1556 0.1845 -0.9704
vn -0.3798 -0.0473 -0.9239
vn -0.0000 1.0000 -0.0001
vn -0.3801 -0.0292 0.9245
vn 0.0415 0.2207 0.9745
vn -0.3798 -0.0473 0.9239
vn -0.3148 0.0054 0.9491
vn -0.3802 0.0052 0.9249
vn -0.2527 0.6310 0.7334
vn -0.2975 0.6227 0.7237
vn -0.3801 -0.0290 0.9245
vn -0.3766 0.1387 0.9159
vn -0.3799 0.0390 0.9242
vn 0.2454 -0.0971 0.9645
vn -0.3771 0.1290 0.9172
vn -0.3249 0.1368 0.9358
vn -0.3768 0.1340 0.9166
vn -0.0000 1.0000 -0.0000
vn 0.9401 0.0558 0.3362
vn 0.9850 0.1667 -0.0451
vn 0.8691 -0.2521 0.4255
vn 0.9657 0.0051 0.2596
vn 0.8006 0.5799 0.1510
vn 0.7612 0.6133 0.2109
vn 0.9653 0.0772 0.2493
vn 0.8532 0.0158 0.5214
vn 0.9526 0.2584 0.1604
vn 0.9885 -0.1500 0.0196
vn 0.9822 0.1168 0.1471
vn 0.9550 0.1307 0.2661
vn -0.9550 0.1307 0.2661
vn -0.9441 0.1292 0.3033
vn -0.9806 -0.0851 0.1765
vn -0.9514 0.0373 0.3056
vn -0.9517 -0.0276 0.3057
vn -0.9435 0.1337 0.3031
vn -0.7612 0.6133 0.2109
vn -0.7555 0.6086 0.2427
vn -0.9657 0.0056 0.2596
vn -0.9517 -0.0278 0.3057
vn -0.2754 -0.6895 -0.6699
vn 0.2779 0.6826 0.6759
vn -0.7008 -0.6764 0.2265
vn 0.7069 0.6694 -0.2285
vn 0.2779 0.6826 -0.6759
vn -0.2754 -0.6895 0.6699
vn 0.7008 -0.6764 0.2265
vn -0.7069 0.6694 -0.2285
vn -0.2779 0.6826 -0.6759
vn 0.2754 -0.6895 0.6699
vn 0.2754 -0.6895 -0.6699
vn -0.2779 0.6826 0.6759
vn -0.7462 -0.6497 -0.1450
vn -0.7015 -0.6761 -0.2254
vn -0.6955 -0.6558 -0.2935
vn 0.7523 0.6425 0.1459
vn 0.7076 0.6691 0.2273
vn 0.7015 -0.6761 -0.2254
vn -0.7076 0.6691 0.2273
vn -0.3799 -0.0444 0.9240
vn -0.3170 -0.0455 0.9473
vn 0.3799 -0.0444 0.9240
vn 0.9882 -0.0386 0.1483
vn 0.7922 0.1334 0.5955
vn 0.9645 -0.0434 0.2607
vn 0.9507 -0.0428 -0.3073
vn -0.3170 -0.0455 -0.9473
vn 0.3799 -0.0444 -0.9240
vn -0.3799 -0.0444 -0.9240
vn -0.9645 -0.0434 0.2607
vn -0.9512 -0.0428 0.3055
vn 0.9054 0.3949 0.1560
vn 0.8720 0.4292 0.2354
vn -0.2833 0.4462 -0.8489
vn -0.3420 0.4372 -0.8318
vn -0.8720 0.4291 0.2354
vn -0.8615 0.4246 -0.2785
vn -0.8622 0.4243 0.2769
vn -0.3420 0.4372 0.8318
vn -0.2833 0.4462 0.8489
vn 0.2811 -0.6733 -0.6838
vn 0.1892 0.8674 -0.4602
vn 0.7148 -0.6600 -0.2311
vn 0.4862 0.8596 -0.1572
vn 0.2811 -0.6733 0.6838
vn 0.1892 0.8675 0.4601
vn 0.1891 0.8675 0.4601
vn -0.7148 -0.6600 -0.2311
vn -0.4862 0.8596 -0.1572
vn -0.1892 0.8674 -0.4602
vn -0.2811 -0.6733 -0.6838
vn -0.2811 -0.6733 0.6838
vn -0.1892 0.8675 0.4601
vn 0.7604 -0.6327 0.1468
vn 0.7155 -0.6597 0.2299
vn 0.7408 -0.6174 0.2646
vn 0.5229 0.8453 0.1100
vn 0.4868 0.8594 0.1564
vn -0.7155 -0.6597 0.2298
vn -0.7155 -0.6597 0.2299
vn -0.4868 0.8594 0.1564
vn -0.3585 -0.3336 -0.8719
vn -0.2878 -0.7223 -0.6289
vn 0.3603 -0.3194 -0.8764
vn 0.9113 -0.3412 0.2303
vn 0.9300 -0.2802 0.2380
vn -0.2779 -0.3614 0.8900
vn -0.3585 -0.3336 0.8719
vn -0.8946 -0.4365 0.0960
vn -0.9281 -0.1018 0.3581
vn -0.6800 -0.6842 0.2634
vn -0.9055 -0.3073 -0.2927
vn -0.0564 -0.1099 -0.9923
vn -0.3438 -0.4272 -0.8362
vn -0.3783 -0.1019 -0.9201
vn 0.3783 -0.1019 -0.9201
vn 0.1444 -0.2706 -0.9518
vn 0.9469 -0.0984 -0.3061
vn 0.8646 -0.4388 0.2447
vn 0.8450 -0.4597 -0.2732
vn 0.8651 -0.4144 0.2824
vn 0.9911 -0.1029 0.0843
vn 0.9202 -0.1695 0.3529
vn 0.3782 -0.1019 0.9201
vn -0.2985 -0.4329 0.8506
vn 0.3376 -0.4603 0.8211
vn -0.3438 -0.4272 0.8362
vn -0.0564 -0.1099 0.9923
vn -0.3783 -0.1019 0.9201
vn -0.8573 -0.4977 0.1318
vn -0.9911 -0.1029 0.0843
vn -0.8646 -0.4388 0.2447
vn -0.9469 -0.0984 -0.3061
vn -0.2587 0.7329 -0.6292
vn -0.2678 0.5861 -0.7647
vn -0.3113 0.5742 -0.7572
vn 0.6194 0.2394 -0.7477
vn 0.1783 0.7082 -0.6831
vn 0.2579 0.7347 -0.6275
vn 0.7851 0.5691 -0.2446
vn 0.6625 0.7261 0.1843
vn 0.7922 0.5682 0.2229
vn 0.6024 0.7978 0.0245
vn 0.2982 0.5826 0.7561
vn -0.2192 0.7402 0.6357
vn -0.2678 0.5861 0.7647
vn -0.2587 0.7329 0.6292
vn -0.3113 0.5742 0.7572
vn -0.5595 0.7630 0.3236
vn -0.7921 0.5682 0.2228
vn -0.7827 0.5693 0.2514
vn -0.7946 0.2502 -0.5532
vn -0.6818 0.7123 -0.1668
vn -0.6568 0.7236 -0.2123
vn -0.1489 0.9201 -0.3623
vn -0.1236 0.9233 -0.3636
vn 0.1489 0.9201 -0.3623
vn 0.3854 0.9167 0.1057
vn 0.5521 0.8336 -0.0191
vn 0.3842 0.9149 -0.1240
vn 0.4143 0.9058 0.0889
vn -0.1236 0.9233 0.3636
vn 0.0570 0.8471 0.5284
vn 0.1489 0.9201 0.3623
vn -0.1489 0.9201 0.3623
vn -0.3847 0.9147 0.1235
vn -0.3855 0.9166 0.1057
vn -0.3842 0.9149 -0.1240
vn -0.3485 -0.3999 -0.8477
vn -0.8812 -0.4029 0.2471
vn -0.8737 -0.3485 0.3395
vn -0.3485 -0.3999 0.8477
vn -0.0302 -0.0513 0.9982
vn 0.3456 -0.4170 0.8406
vn 0.8835 -0.4141 0.2188
vn 0.7900 0.0583 0.6103
vn 0.9946 -0.0918 0.0477
vn 0.8682 -0.4093 -0.2806
vn -0.0302 -0.0513 -0.9982
vn -0.8086 -0.5696 -0.1473
vn 0.5112 -0.4359 0.7407
vn 0.7707 -0.4402 -0.4607
vn 0.1988 -0.5829 -0.7878
vn -0.3362 -0.4673 -0.8177
vn -0.8709 -0.3374 -0.3575
vn -0.8609 -0.4505 0.2365
vn -0.8379 -0.3694 0.4018
vn -0.3362 -0.4673 0.8177
vn -0.0862 -0.0727 0.9936
vn 0.3386 -0.4550 0.8236
vn 0.9076 -0.3762 0.1863
vn 0.9903 -0.1016 0.0950
vn 0.8552 -0.4385 -0.2764
vn 0.4203 -0.3465 -0.8386
vn -0.0862 -0.0726 -0.9936
vn 0.9515 -0.0000 -0.3075
vn 0.9516 -0.0000 -0.3075
vn 0.9516 -0.0000 -0.3074
vn 0.3802 -0.0000 -0.9249
vn -0.3802 -0.0000 -0.9249
vn -0.9515 -0.0000 -0.3075
vn -0.9516 -0.0000 -0.3075
vn -0.3802 -0.0000 0.9249
vn -0.9521 -0.0000 0.3058
vn 0.3802 -0.0000 0.9249
vn 0.9872 -0.0000 0.1595
vn 0.9521 -0.0000 0.3058
vn 0.9872 0.0001 0.1595
vn 0.9431 0.1328 -0.3047
vn 0.7693 0.5880 -0.2499
vn 0.9432 0.1318 -0.3048
vn 0.3936 0.1161 -0.9119
vn 0.3037 0.6019 -0.7386
vn 0.3036 0.6019 -0.7386
vn -0.3766 0.1372 -0.9162
vn -0.3036 0.6019 -0.7386
vn -0.3037 0.6019 -0.7386
vn -0.9405 0.1153 -0.3195
vn -0.7693 0.5880 -0.2499
vn -0.7695 0.5881 -0.2492
vn -0.3766 0.1372 0.9161
vn -0.3036 0.6019 0.7386
vn -0.3767 0.1364 0.9163
vn -0.9437 0.1323 0.3031
vn -0.7702 0.5878 0.2475
vn -0.7703 0.5878 0.2474
vn 0.3765 0.1377 0.9161
vn 0.3036 0.6019 0.7386
vn 0.3767 0.1364 0.9162
vn 0.8154 0.5585 0.1524
vn 0.9437 0.1323 0.3031
vn 0.7703 0.5878 0.2474
vn -0.3494 -0.3943 -0.8500
vn -0.8793 -0.3824 -0.2840
vn -0.9433 0.1318 -0.3048
vn -0.8798 -0.3821 0.2826
vn -0.3494 -0.3943 0.8500
vn 0.3494 -0.3943 0.8500
vn 0.9222 -0.3539 0.1556
vn 0.7714 0.1105 0.6267
vn 0.8793 -0.3824 -0.2840
vn 0.3494 -0.3943 -0.8500
vn 0.3767 0.1364 -0.9162
vn 0.3782 -0.1019 -0.9201
vn -0.1850 -0.1082 -0.9768
vn 0.9475 -0.0983 0.3044
vn 0.3783 -0.1019 0.9201
vn -0.9475 -0.0983 0.3044
vn -0.9821 -0.1019 0.1585
vn -0.3782 -0.1019 -0.9201
vn 0.4751 -0.3539 -0.8056
vn 0.9821 -0.1019 0.1585
vn 0.9214 -0.1820 0.3434
vn -0.1850 -0.1082 0.9768
vn -0.3782 -0.1019 0.9201
vn -0.9475 -0.0983 0.3043
vn -0.8490 -0.3368 -0.4071
vn -0.9521 -0.0000 0.3059
vn -0.9487 0.1048 0.2984
vn -0.9439 0.1314 0.3031
vn -0.7701 0.5879 0.2477
vn 0.4638 0.8720 0.1564
vn 0.3677 0.8690 0.3311
vn 0.1831 0.8834 0.4314
vn 0.6428 0.7275 0.2397
vn 0.5243 0.7071 0.4744
vn 0.2802 0.7457 0.6045
vn 0.7015 -0.6761 -0.2253
vn -0.9456 0.1161 0.3039
vn -0.9450 0.1218 0.3035
vn -0.9513 0.0399 0.3056
vn -0.9517 -0.0289 0.3057
vn -0.9437 0.1328 0.3031
vn -0.9521 0.0050 0.3059
vn -0.9517 -0.0293 0.3057
vn -0.9512 -0.0435 0.3055
vn -0.8966 -0.3363 0.2880
vn -0.8766 -0.3901 0.2816
vn -0.8465 -0.4577 0.2719
vn -0.8809 -0.3793 0.2830
vn -0.7893 0.5592 0.2535
vn -0.6626 0.7181 0.2129
vn -0.3847 0.9148 0.1235
vn 0.1917 0.6580 -0.7282
vn 0.2798 0.7435 -0.6073
vn 0.2156 0.1225 -0.9688
vn 0.4286 0.1098 -0.8968
vn -0.1904 -0.6651 0.7220
vn -0.3438 -0.6648 0.6632
vn -0.1883 -0.6645 -0.7232
vn -0.3474 -0.6638 -0.6623
vn 0.2112 0.1221 0.9698
vn 0.1897 0.6574 0.7293
vn 0.2132 -0.0404 0.9762
vn 0.2356 0.0238 0.9715
vn 0.2253 -0.0205 0.9741
vn 0.6880 0.1876 0.7011
vn 0.2124 0.4092 0.8874
vn 0.1913 -0.6477 0.7375
vn 0.3180 -0.6323 0.7064
vn 0.1986 0.5953 0.7786
vn 0.1383 0.8542 0.5013
vn 0.2312 -0.0157 0.9728
vn 0.0837 -0.5325 0.8423
vn 0.6906 -0.1787 0.7008
vn 0.3334 -0.4362 0.8358
vn 0.4247 -0.1957 0.8839
vn 0.2553 -0.3806 0.8888
vn 0.2747 -0.4328 0.8586
vn 0.3904 0.7431 0.5435
vn 0.6986 0.0500 0.7137
vn 0.1109 0.9117 0.3956
vn 0.2243 -0.0000 0.9745
vn 0.2136 -0.3672 0.9053
vn 0.7100 0.1085 0.6958
vn 0.2010 0.5741 0.7937
vn -0.0000 1.0000 -0.0003
vn -0.0000 1.0000 -0.0002
vn 0.2035 0.5748 -0.7926
vn 0.2170 -0.3681 -0.9041
vn 0.7028 0.1082 -0.7031
vn 0.2278 -0.0000 -0.9737
vn 0.1117 0.9119 -0.3949
vn 0.3896 0.7437 -0.5432
vn 0.2760 -0.4316 -0.8588
vn 0.6913 0.0492 -0.7209
vn 0.2550 -0.3814 -0.8885
vn 0.4206 -0.1925 -0.8866
vn 0.3348 -0.4367 -0.8350
vn 0.4290 -0.1800 -0.8852
vn 0.4045 -0.2807 -0.8704
vn 0.2346 -0.0161 -0.9720
vn 0.4323 0.1511 -0.8890
vn 0.1394 0.8545 -0.5004
vn 0.1830 0.8827 -0.4329
vn 0.2009 0.5961 -0.7774
vn 0.1933 -0.6484 -0.7364
vn 0.3158 -0.6334 -0.7064
vn 0.2157 0.4100 -0.8862
vn 0.6809 0.1871 -0.7080
vn 0.2294 -0.0209 -0.9731
vn 0.2380 0.0235 -0.9710
vn 0.2174 -0.0405 -0.9752
vn -0.7463 -0.6497 0.1449
vn -0.6924 -0.6568 0.2987
vn 0.9825 0.1166 -0.1455
vn 0.7523 0.6425 -0.1458
vn 0.6375 0.7312 -0.2427
vn 0.9884 -0.0386 -0.1469
vn 0.9852 0.0219 -0.1697
vn 0.9868 -0.0199 -0.1604
vn 0.7701 0.1865 -0.6101
vn 0.9056 0.3947 -0.1553
vn 0.7604 -0.6326 -0.1467
vn 0.7370 -0.6197 -0.2699
vn 0.8007 0.5798 -0.1507
vn 0.5228 0.8453 -0.1101
vn 0.4589 0.8742 -0.1586
vn 0.9860 -0.0147 -0.1659
vn 0.8523 -0.5225 -0.0245
vn 0.7702 -0.1766 -0.6129
vn 0.8631 -0.4139 -0.2893
vn 0.9179 -0.1853 -0.3509
vn 0.9096 -0.3694 -0.1901
vn 0.8828 -0.4147 -0.2206
vn 0.5719 0.7349 -0.3644
vn 0.7832 0.0571 -0.6192
vn 0.4142 0.9058 -0.0891
vn 0.9873 -0.0000 -0.1591
vn 0.9873 -0.0000 -0.1590
vn 0.9225 -0.3537 -0.1548
vn 0.7654 0.1103 -0.6340
vn 0.8155 0.5585 -0.1517
vn 0.7695 0.5881 -0.2493
vn -0.0000 1.0000 0.0003
vn -0.7695 0.5882 -0.2485
vn -0.8792 -0.3824 -0.2842
vn -0.9489 0.1206 -0.2916
vn -0.9515 -0.0000 -0.3076
vn -0.3842 0.9149 -0.1241
vn -0.5515 0.7675 -0.3267
vn -0.8784 -0.3936 -0.2712
vn -0.9485 0.3167 -0.0059
vn -0.8877 -0.4175 -0.1941
vn -0.8295 -0.4398 -0.3443
vn -0.8396 -0.3643 -0.4029
vn -0.9195 -0.0828 -0.3842
vn -0.9630 -0.0967 -0.2516
vn -0.4863 0.8595 -0.1572
vn -0.7548 0.6090 -0.2440
vn -0.7148 -0.6600 -0.2310
vn -0.8615 0.4246 -0.2784
vn -0.9402 -0.0437 -0.3378
vn -0.9355 0.1495 -0.3201
vn -0.9288 0.0580 -0.3661
vn -0.9507 -0.0428 -0.3073
vn -0.9460 0.1211 -0.3007
vn 0.5236 0.7073 -0.4749
vn 0.7277 0.1404 -0.6713
vn 0.9256 0.1060 -0.3634
vn -0.5177 -0.7161 -0.4682
vn 0.7284 0.1401 0.6707
vn 0.4320 0.1090 0.8953
vn 0.9285 0.1049 0.3562
vn 0.6830 0.1368 0.7175
vn 0.7343 -0.0403 0.6776
vn 0.7914 0.1568 0.5909
vn 0.7042 -0.0755 0.7060
vn 0.6540 0.4647 0.5969
vn 0.5419 -0.6821 0.4910
vn 0.5630 0.6500 0.5104
vn 0.3436 0.6098 0.7142
vn 0.7484 0.5968 0.2892
vn 0.6684 -0.1291 0.7325
vn 0.4350 0.1559 0.8868
vn 0.9239 0.1402 0.3561
vn 0.5113 -0.5566 0.6548
vn 0.4335 -0.1828 0.8824
vn 0.5579 -0.6672 0.4935
vn 0.5497 -0.6643 0.5065
vn 0.5533 -0.6588 0.5098
vn 0.3519 -0.8090 0.4708
vn 0.5233 -0.6074 0.5977
vn 0.3865 0.9062 0.1715
vn 0.2733 0.9304 0.2444
vn 0.7346 -0.0000 0.6785
vn 0.6698 -0.4203 0.6121
vn 0.5739 0.6319 0.5209
vn -0.0000 1.0000 -0.0006
vn -0.0000 1.0000 -0.0005
vn -0.0000 1.0000 -0.0004
vn 0.2729 0.9304 -0.2446
vn 0.3708 0.9137 -0.1663
vn 0.4571 -0.6860 -0.5661
vn 0.3293 -0.8261 -0.4573
vn 0.5525 -0.6592 -0.5101
vn 0.5491 -0.6645 -0.5069
vn 0.5611 -0.6631 -0.4955
vn 0.9162 -0.1731 -0.3613
vn 0.6792 -0.5973 -0.4265
vn 0.6834 -0.1783 -0.7080
vn 0.7840 -0.1357 -0.6057
vn 0.9212 0.1443 -0.3614
vn 0.3659 0.8700 -0.3306
vn 0.3411 0.6101 -0.7152
vn 0.5623 0.6502 -0.5110
vn 0.7452 0.5984 -0.2941
vn 0.6534 0.4648 -0.5975
vn 0.7600 -0.0756 -0.6455
vn 0.6540 0.1550 -0.7404
vn 0.6760 0.1364 -0.7242
vn 0.7862 0.1337 -0.6033
vn 0.7337 -0.0408 -0.6783
vn -0.5171 -0.7162 0.4687
vn 0.5403 -0.6833 -0.4910
vn 0.7339 -0.0000 -0.6792
vn 0.6692 -0.4204 -0.6128
vn 0.5735 0.6321 -0.5211
vn -0.0000 1.0000 0.0007
vn -0.7695 0.5884 -0.2483
vn -0.9433 0.1314 -0.3048
vn -0.3842 0.9149 -0.1239
vn -0.6618 0.7185 -0.2139
vn -0.7886 0.5596 -0.2549
vn -0.8802 -0.3798 -0.2845
vn -0.8459 -0.4580 -0.2734
vn -0.9469 -0.0984 -0.3060
vn -0.8758 -0.3909 -0.2831
vn -0.8961 -0.3364 -0.2896
vn -0.9506 -0.0436 -0.3073
vn -0.9511 -0.0293 -0.3074
vn -0.7548 0.6089 -0.2439
vn -0.9431 0.1330 -0.3048
vn -0.9511 -0.0290 -0.3074
vn -0.9508 0.0392 -0.3073
vn -0.9444 0.1219 -0.3053
vn -0.9507 -0.0428 -0.3072
vn 0.7008 -0.6764 0.2266
vn -0.2310 -0.7943 -0.5619
vn -1.0000 -0.0000 -0.0000
vn -0.2555 0.7406 -0.6214
vn 0.7071 -0.0000 -0.7071
vn 0.6654 -0.0000 -0.7464
vn 0.6655 -0.0000 -0.7464
vn 0.6525 0.7282 0.2096
vn 0.0024 -0.0000 1.0000
vn 0.0023 -0.0000 1.0000
vn 0.5919 -0.7833 0.1901
vn -0.2555 0.7407 0.6214
vn -0.2555 0.7406 0.6214
vn -0.2310 -0.7943 0.5619
vn 0.7071 -0.0000 0.7071
vn -0.6654 -0.0000 -0.7464
vn -0.6655 -0.0000 -0.7464
vn -0.5919 -0.7833 0.1901
vn -0.0024 -0.0000 1.0000
vn -0.0023 -0.0000 1.0000
vn -0.6526 0.7282 0.2096
vn -0.6525 0.7282 0.2096
vn -0.7440 -0.0000 0.6682
vn 0.2310 -0.7943 0.5619
vn 0.9979 -0.0000 -0.0644
vn 0.2555 0.7406 0.6214
vn 0.2555 0.7407 0.6214
vn -0.7440 -0.0000 -0.6682
vn 0.2555 0.7406 -0.6214
vn 0.9979 -0.0000 0.0644
vn 0.2310 -0.7943 -0.5619
vn 0.2310 -0.7943 -0.5620
vn 0.6679 -0.0000 0.7443
vn 0.5912 -0.7836 -0.1911
vn -0.0543 -0.0000 -0.9985
vn 0.6518 0.7285 -0.2107
vn -0.6679 -0.0000 0.7442
vn -0.6679 -0.0000 0.7443
vn -0.6518 0.7285 -0.2107
vn 0.0543 -0.0000 -0.9985
vn -0.5912 -0.7836 -0.1911
vn 0.8615 0.4246 -0.2785
vn 0.3420 0.4372 -0.8318
vn 0.3420 0.4372 0.8318
vn -0.9516 -0.0000 -0.3074
vn -0.3767 0.1364 -0.9163
vn -0.3037 0.6019 0.7386
vn -0.8792 -0.3824 -0.2841
vn 0.8798 -0.3821 0.2826
vn 0.8792 -0.3824 -0.2841
vn -0.0977 0.9917 -0.0834
vn 0.0827 0.9901 0.1132
vn -0.0385 -0.9939 0.1038
vn 0.1073 -0.9930 -0.0494
vn -0.0386 -0.9920 0.1203
vn -0.0028 -0.9999 -0.0119
vn 0.0925 -0.9902 -0.1048
vn -0.0481 -0.9924 0.1133
vn -0.0091 -1.0000 -0.0019
vn 0.0898 -0.9908 -0.1017
vn -0.1100 -0.9936 0.0254
vn 0.0247 -0.9927 -0.1181
vn -0.0612 -0.9895 0.1307
vn -0.0117 -0.9991 -0.0411
vn 0.1425 -0.9878 -0.0635
vn -0.0980 -0.9651 0.2427
vn -0.0492 -0.9686 -0.2439
vn 0.2445 -0.9617 -0.1239
vn -0.0372 -0.9926 0.1158
vn -0.0043 -0.9998 -0.0180
vn 0.1234 -0.9910 -0.0515
vn -0.1616 0.9649 -0.2071
vn -0.2473 0.9685 0.0304
vn 0.1986 0.9620 0.1872
vn -0.0945 0.9894 -0.1104
vn -0.0420 0.9991 0.0084
vn 0.1065 0.9882 0.1105
vn -0.1144 0.9930 -0.0304
vn 0.0315 0.9923 0.1201
vn -0.0380 0.9923 -0.1177
vn -0.0026 1.0000 0.0089
vn 0.1227 0.9911 0.0521
vn -0.0391 0.9919 -0.1210
vn -0.0121 0.9999 0.0019
vn 0.0922 0.9906 0.1015
vn 0.1213 -0.9914 0.0498
vn -0.0184 -0.9998 0.0029
vn -0.0382 -0.9925 -0.1163
vt 0.375000 0.014322
vt 0.386088 0.009199
vt 0.386088 0.014322
vt 0.386088 0.383842
vt 0.375000 0.375388
vt 0.386088 0.375388
vt 0.386088 0.740801
vt 0.375000 0.735678
vt 0.386088 0.735678
vt 0.386088 0.866158
vt 0.375000 0.874612
vt 0.375000 0.866159
vt 0.625388 0.014322
vt 0.633842 0.009199
vt 0.633842 0.014322
vt 0.116158 0.009199
vt 0.124612 0.014322
vt 0.116158 0.014322
vt 0.375000 0.004926
vt 0.386088 0.000000
vt 0.386088 0.004926
vt 0.625388 0.004926
vt 0.633842 0.000000
vt 0.633842 0.004926
vt 0.375000 0.745074
vt 0.386088 0.750000
vt 0.375000 0.750000
vt 0.116158 0.000000
vt 0.124612 0.004926
vt 0.116158 0.004926
vt 0.375000 0.688185
vt 0.633842 0.061815
vt 0.625388 0.061815
vt 0.386088 0.061815
vt 0.375000 0.061815
vt 0.124612 0.061815
vt 0.116158 0.061815
vt 0.386088 0.678933
vt 0.386088 0.688185
vt 0.633842 0.071067
vt 0.625388 0.071067
vt 0.386088 0.071068
vt 0.375000 0.071068
vt 0.116158 0.071067
vt 0.124612 0.071067
vt 0.386088 0.669890
vt 0.375000 0.665980
vt 0.386088 0.665980
vt 0.625388 0.084020
vt 0.633842 0.080110
vt 0.633842 0.084020
vt 0.375000 0.084020
vt 0.386088 0.080110
vt 0.386088 0.084020
vt 0.116158 0.080110
vt 0.124612 0.084020
vt 0.116158 0.084020
vt 0.375000 0.583945
vt 0.625388 0.166055
vt 0.633842 0.166055
vt 0.375000 0.166055
vt 0.386088 0.166055
vt 0.124612 0.166055
vt 0.116158 0.166055
vt 0.386088 0.575489
vt 0.386088 0.583945
vt 0.633842 0.174511
vt 0.386088 0.174511
vt 0.116158 0.174511
vt 0.124612 0.174511
vt 0.250000 0.866158
vt 0.250000 0.874612
vt 0.250000 0.745074
vt 0.250000 0.750000
vt 0.250000 0.735678
vt 0.375000 0.740801
vt 0.250000 0.740801
vt 0.250000 0.688185
vt 0.375000 0.678933
vt 0.250000 0.678933
vt 0.250000 0.665980
vt 0.375000 0.669890
vt 0.250000 0.669890
vt 0.250000 0.583945
vt 0.375000 0.575489
vt 0.250000 0.575489
vt 0.250000 0.383842
vt 0.250000 0.375388
vt 0.250000 0.166055
vt 0.375000 0.174511
vt 0.250000 0.174511
vt 0.250000 0.084020
vt 0.375000 0.080110
vt 0.250000 0.080110
vt 0.250000 0.061815
vt 0.250000 0.071068
vt 0.250000 0.014322
vt 0.375000 0.009199
vt 0.250000 0.009199
vt 0.375000 0.000000
vt 0.250000 0.004926
vt 0.250000 0.000000
vt 0.250000 0.260544
vt 0.386088 0.260544
vt 0.375000 0.260544
vt 0.510544 0.166055
vt 0.625388 0.174511
vt 0.510544 0.174511
vt 0.510544 0.084020
vt 0.625388 0.080110
vt 0.510544 0.061815
vt 0.510544 0.071068
vt 0.510544 0.014322
vt 0.625388 0.009199
vt 0.510544 0.004926
vt 0.625388 0.000000
vt 0.386088 0.989456
vt 0.386088 0.874612
vt 0.250000 0.989456
vt 0.124612 0.000000
vt 0.239456 0.004926
vt 0.124612 0.009199
vt 0.239456 0.014322
vt 0.239456 0.061815
vt 0.239456 0.071068
vt 0.124612 0.080110
vt 0.239456 0.084020
vt 0.239456 0.166055
vt 0.386088 0.745074
vt 0.510544 0.000000
vt 0.239456 0.000000
vt 0.510544 0.009199
vt 0.510544 0.080110
vt 0.239456 0.080110
vt 0.250000 0.559414
vt 0.375000 0.559414
vt 0.386088 0.559414
vt 0.625388 0.190586
vt 0.510544 0.190586
vt 0.375000 0.190586
vt 0.250000 0.190586
vt 0.239456 0.190586
vt 0.239456 0.174511
vt 0.124612 0.190586
vt 0.116158 0.190586
vt 0.375000 0.552091
vt 0.250000 0.556838
vt 0.250000 0.552091
vt 0.386088 0.552091
vt 0.375000 0.556838
vt 0.633842 0.197909
vt 0.625388 0.193162
vt 0.633842 0.193162
vt 0.510544 0.193162
vt 0.625388 0.197909
vt 0.510544 0.197909
vt 0.386088 0.197909
vt 0.375000 0.193162
vt 0.386088 0.193162
vt 0.250000 0.193162
vt 0.375000 0.197909
vt 0.250000 0.197909
vt 0.239456 0.193162
vt 0.124612 0.197909
vt 0.124612 0.193162
vt 0.116158 0.197909
vt 0.250000 0.504285
vt 0.375000 0.516514
vt 0.250000 0.516514
vt 0.386088 0.516514
vt 0.375000 0.504285
vt 0.386088 0.504285
vt 0.633842 0.233486
vt 0.625388 0.245715
vt 0.625388 0.233486
vt 0.510544 0.245715
vt 0.386088 0.233486
vt 0.375000 0.245715
vt 0.375000 0.233486
vt 0.250000 0.245715
vt 0.250000 0.233486
vt 0.239456 0.245715
vt 0.124612 0.233486
vt 0.239456 0.233486
vt 0.116158 0.233486
vt 0.124612 0.245715
vt 0.116158 0.245715
vt 0.250000 0.500000
vt 0.375000 0.500000
vt 0.386088 0.500000
vt 0.625388 0.250000
vt 0.633842 0.245715
vt 0.633842 0.250000
vt 0.510544 0.250000
vt 0.375000 0.250000
vt 0.386088 0.245715
vt 0.386088 0.250000
vt 0.250000 0.250000
vt 0.239456 0.250000
vt 0.124612 0.250000
vt 0.116158 0.250000
vt 0.250000 0.519418
vt 0.124612 0.230582
vt 0.239456 0.230582
vt 0.250000 0.230582
vt 0.375000 0.230582
vt 0.386088 0.230582
vt 0.510544 0.230582
vt 0.510544 0.233486
vt 0.625388 0.230582
vt 0.633842 0.230582
vt 0.375000 0.519418
vt 0.116158 0.193162
vt 0.386088 0.190586
vt 0.633842 0.190586
vt 0.386088 0.556838
vt 0.250000 0.527314
vt 0.116158 0.230582
vt 0.124612 0.222686
vt 0.239456 0.222686
vt 0.250000 0.222686
vt 0.375000 0.222686
vt 0.386088 0.222686
vt 0.510544 0.222686
vt 0.625388 0.222686
vt 0.633842 0.222686
vt 0.386088 0.519418
vt 0.375000 0.527314
vt 0.500000 0.383842
vt 0.500000 0.375388
vt 0.500000 0.260544
vt 0.375000 0.531315
vt 0.250000 0.531315
vt 0.386088 0.531315
vt 0.633842 0.218685
vt 0.625388 0.218685
vt 0.510544 0.218685
vt 0.386088 0.218685
vt 0.375000 0.218685
vt 0.250000 0.218685
vt 0.239456 0.197909
vt 0.124612 0.218685
vt 0.116158 0.218685
vt 0.386088 0.527314
vt 0.239456 0.218685
vt 0.116158 0.222686
vt 0.500000 0.084020
vt 0.490706 0.084020
vt 0.500000 0.004926
vt 0.490707 0.004926
vt 0.375000 0.989456
vt 0.386088 1.000000
vt 0.375000 1.000000
vt 0.250000 1.000000
vt 0.239456 0.009199
vt 0.490706 0.745074
vt 0.490707 0.750000
vt 0.490707 0.866158
vt 0.490706 0.989456
vt 0.490706 0.874612
vt 0.490707 1.000000
vt 0.490707 0.000000
vt 0.490706 0.014322
vt 0.490706 0.061815
vt 0.490706 0.071068
vt 0.490707 0.080110
vt 0.490706 0.166055
vt 0.490706 0.190586
vt 0.490707 0.174511
vt 0.490707 0.193162
vt 0.490706 0.197909
vt 0.490706 0.218685
vt 0.490706 0.222686
vt 0.490707 0.230582
vt 0.490706 0.245715
vt 0.490707 0.233486
vt 0.490707 0.250000
vt 0.490707 0.260544
vt 0.490706 0.383842
vt 0.490707 0.375388
vt 0.490707 0.500000
vt 0.490706 0.500000
vt 0.490707 0.504285
vt 0.490706 0.519418
vt 0.490706 0.516514
vt 0.490707 0.527314
vt 0.490707 0.531315
vt 0.490707 0.552091
vt 0.490706 0.556838
vt 0.490707 0.559414
vt 0.490707 0.583945
vt 0.490707 0.665980
vt 0.490706 0.669890
vt 0.490707 0.678933
vt 0.490707 0.688185
vt 0.490707 0.735678
vt 0.250000 0.759940
vt 0.386088 0.759940
vt 0.375000 0.759940
vt 0.490707 0.759940
vt 0.740060 0.000000
vt 0.740060 0.004926
vt 0.740060 0.014322
vt 0.740060 0.061815
vt 0.740060 0.071067
vt 0.740060 0.080110
vt 0.740060 0.084020
vt 0.740060 0.166055
vt 0.740060 0.190586
vt 0.740060 0.174511
vt 0.740060 0.193162
vt 0.740060 0.197909
vt 0.740060 0.218685
vt 0.740060 0.222686
vt 0.740060 0.230582
vt 0.740060 0.245715
vt 0.740060 0.233486
vt 0.740060 0.250000
vt 0.500000 0.490060
vt 0.490706 0.490060
vt 0.386088 0.490060
vt 0.375000 0.383842
vt 0.250000 0.490060
vt 0.009940 0.250000
vt 0.009940 0.245715
vt 0.009940 0.230582
vt 0.009940 0.233486
vt 0.009940 0.222686
vt 0.009940 0.218685
vt 0.009940 0.197909
vt 0.009940 0.193162
vt 0.009940 0.190586
vt 0.009940 0.166055
vt 0.009940 0.174511
vt 0.009940 0.084020
vt 0.009940 0.080110
vt 0.009940 0.061815
vt 0.009940 0.071067
vt 0.009940 0.014322
vt 0.009940 0.004926
vt 0.009940 0.009199
vt 0.009940 0.000000
vt 0.750000 0.004926
vt 0.500000 0.759940
vt 0.500000 0.866158
vt 0.500000 0.874612
vt 0.500000 0.989456
vt 0.500000 1.000000
vt 0.500000 0.000000
vt 0.490707 0.009199
vt 0.500000 0.014322
vt 0.500000 0.061815
vt 0.500000 0.080110
vt 0.500000 0.166055
vt 0.500000 0.190586
vt 0.500000 0.193162
vt 0.500000 0.197909
vt 0.500000 0.218685
vt 0.500000 0.222686
vt 0.500000 0.230582
vt 0.500000 0.245715
vt 0.500000 0.250000
vt 0.750000 0.250000
vt 0.750000 0.245715
vt 0.500000 0.519418
vt 0.500000 0.527314
vt 0.500000 0.531315
vt 0.500000 0.552091
vt 0.500000 0.556838
vt 0.500000 0.559414
vt 0.490707 0.575489
vt 0.750000 0.190586
vt 0.500000 0.583945
vt 0.750000 0.166055
vt 0.750000 0.084020
vt 0.750000 0.080110
vt 0.500000 0.688185
vt 0.500000 0.735678
vt 0.750000 0.061815
vt 0.490706 0.740801
vt 0.750000 0.014322
vt 0.740060 0.009199
vt 0.500000 0.745074
vt 0.500000 0.750000
vt 0.500000 0.669890
vt 0.500000 0.500000
vt 0.375000 0.490060
vt 0.000000 0.250000
vt 0.000000 0.245715
vt 0.000000 0.233486
vt 0.000000 0.230582
vt 0.000000 0.222686
vt 0.000000 0.218685
vt 0.000000 0.197909
vt 0.000000 0.193162
vt 0.000000 0.190586
vt 0.000000 0.174511
vt 0.000000 0.166055
vt 0.000000 0.084020
vt 0.000000 0.080110
vt 0.000000 0.071067
vt 0.000000 0.061815
vt 0.000000 0.014322
vt 0.000000 0.009199
vt 0.000000 0.004926
vt 0.000000 0.000000
vt 0.500000 0.009199
vt 0.500000 0.071068
vt 0.500000 0.174511
vt 0.500000 0.233486
vt 0.500000 0.504285
vt 0.500000 0.516514
vt 0.750000 0.230582
vt 0.750000 0.222686
vt 0.750000 0.218685
vt 0.750000 0.197909
vt 0.750000 0.193162
vt 0.500000 0.575489
vt 0.500000 0.665980
vt 0.500000 0.678933
vt 0.500000 0.740801
s 1
g off
g lampara_Material.001
usemtl Material.001
f 47/1/1 275/2/2 276/3/3
s 2
f 350/4/4 179/5/4 298/6/5
s 1
f 320/7/6 36/8/7 319/9/8
s 3
f 323/10/9 58/11/9 322/12/9
s 1
f 55/13/10 328/14/11 329/15/12
s 4
f 373/16/13 61/17/14 372/18/15
s 5
f 66/19/16 272/20/17 273/21/17
f 70/22/18 325/23/19 326/24/19
f 75/25/20 267/26/21 74/27/22
s 6
f 376/28/23 78/29/24 375/30/23
s 1
f 37/31/25 319/9/8 36/8/7
f 55/13/10 330/32/26 54/33/27
f 47/1/1 277/34/28 46/35/29
s 4
f 372/18/15 62/36/30 371/37/31
s 1
f 37/31/25 317/38/32 318/39/33
f 54/33/27 331/40/34 53/41/35
f 46/35/29 278/42/36 45/43/37
s 4
f 370/44/38 62/36/30 63/45/39
s 7
f 315/46/40 100/47/41 314/48/40
f 102/49/42 333/50/43 334/51/43
f 104/52/44 280/53/45 281/54/45
s 8
f 368/55/46 110/56/47 367/57/46
s 9
f 40/58/48 313/48/49 39/47/50
f 51/59/51 335/51/52 336/60/53
f 43/61/54 282/54/55 283/62/56
s 10
f 366/57/57 65/63/58 365/64/59
s 9
f 40/58/48 311/65/60 312/66/61
f 337/67/62 51/59/51 336/60/53
f 284/68/63 43/61/54 283/62/56
s 10
f 364/69/64 65/63/58 121/70/65
s 3
f 321/71/9 58/11/9 59/72/9
s 5
f 79/73/66 74/27/22 76/74/66
s 1
f 13/75/67 87/76/68 88/77/69
f 37/31/25 13/75/67 17/78/70
f 38/79/71 17/78/70 21/80/72
s 7
f 111/81/73 99/82/74 108/83/73
s 9
f 29/84/75 39/47/50 25/81/76
f 115/85/77 29/84/75 114/86/78
s 2
f 179/5/4 352/87/79 182/88/79
s 9
f 32/89/80 119/90/81 120/91/82
f 44/52/83 32/89/80 28/92/84
s 7
f 105/93/85 113/92/86 112/94/86
s 1
f 20/95/87 45/43/37 24/96/88
f 16/97/89 46/35/29 20/95/87
f 83/98/90 16/97/89 82/99/91
s 5
f 67/100/92 81/101/93 80/102/93
s 2
f 214/103/94 179/5/4 182/88/79
f 297/104/4 179/5/4 215/105/4
s 9
f 229/106/95 117/107/96 228/108/97
f 229/106/95 52/49/98 51/59/51
s 7
f 231/109/99 103/110/100 102/49/42
s 1
f 235/111/101 53/41/35 234/112/102
f 236/113/103 54/33/27 235/111/101
f 236/113/103 85/114/104 55/13/10
s 5
f 239/115/105 71/116/106 70/22/18
s 3
f 270/117/9 58/11/9 269/118/9
f 58/11/9 243/119/9 59/72/9
s 6
f 77/120/107 245/121/108 78/29/24
s 4
f 89/122/109 248/123/110 61/17/14
f 62/36/30 248/123/110 249/124/111
f 63/45/39 249/124/111 250/125/112
s 8
f 109/126/113 253/127/114 110/56/47
s 10
f 64/56/115 255/128/116 65/63/58
f 255/128/116 121/70/65 65/63/58
s 11
f 33/100/117 272/20/117 67/100/117
s 12
f 273/21/118 48/19/118 66/19/118
s 13
f 57/116/119 325/23/119 71/116/119
s 14
f 326/24/120 56/22/120 70/22/120
f 35/25/121 266/129/121 75/25/121
s 13
f 267/26/122 34/27/122 74/27/122
s 15
f 376/28/123 59/120/123 77/120/123
s 16
f 60/29/124 375/30/124 78/29/124
s 17
f 12/73/125 75/25/125 79/73/125
s 18
f 7/74/126 74/27/126 34/27/126
s 19
f 1/102/127 67/100/127 80/102/127
s 20
f 9/101/128 66/19/128 48/19/128
s 11
f 241/130/129 71/116/130 240/130/131
s 12
f 238/115/132 70/22/133 56/22/133
s 21
f 243/131/134 77/120/134 59/120/134
s 22
f 246/121/135 78/29/135 245/121/135
s 1
f 9/101/136 83/98/90 82/99/91
f 275/2/2 48/19/137 274/21/138
f 238/115/139 85/114/104 237/132/140
f 328/14/11 56/22/141 327/24/142
f 35/25/143 320/7/6 265/129/144
f 87/76/68 12/73/145 88/77/69
s 4
f 373/16/13 60/29/146 89/122/109
f 246/121/147 89/122/109 60/29/146
s 1
f 233/133/148 53/41/35 91/110/149
f 331/40/34 91/110/149 53/41/35
f 93/82/150 317/38/32 38/79/71
f 94/83/151 38/79/71 21/80/72
s 4
f 370/44/38 95/126/152 369/55/153
f 251/134/154 63/45/39 250/125/112
s 1
f 45/43/37 96/94/155 24/96/88
f 278/42/36 97/93/156 45/43/37
s 23
f 315/46/157 93/82/157 99/82/157
s 24
f 39/47/158 314/48/158 100/47/158
s 23
f 91/110/159 333/50/159 103/110/159
s 24
f 334/51/160 52/49/160 102/49/160
s 25
f 97/93/161 280/53/161 105/93/161
s 26
f 281/54/162 44/52/162 104/52/163
s 27
f 368/55/164 95/126/164 109/126/164
s 28
f 64/56/165 367/57/165 110/56/165
s 29
f 25/81/166 100/47/166 111/81/166
s 30
f 94/83/167 99/82/167 93/82/167
s 31
f 96/94/168 105/93/168 112/94/168
s 32
f 28/92/169 104/52/169 44/52/169
s 25
f 233/133/170 103/110/171 232/133/172
s 26
f 230/109/173 102/49/174 52/49/174
s 33
f 251/134/175 109/126/176 95/126/176
s 34
f 254/127/177 110/56/177 253/127/177
s 9
f 122/135/178 115/85/77 114/86/78
f 311/65/60 123/136/179 310/137/180
f 337/67/62 125/138/181 117/107/96
f 227/139/182 117/107/96 125/138/181
f 284/68/63 127/140/183 119/90/81
f 119/90/81 128/141/184 120/91/82
s 10
f 257/142/185 121/70/65 256/143/186
f 364/69/64 129/144/187 363/145/188
s 9
f 196/146/189 155/147/190 195/148/191
f 308/149/192 154/150/193 196/146/189
f 340/151/194 160/152/195 339/153/196
f 226/154/197 198/155/198 225/156/199
f 287/157/200 158/158/201 286/159/202
f 157/160/203 200/161/204 201/162/205
s 10
f 258/163/206 202/164/207 156/165/208
f 361/166/209 156/165/208 202/164/207
s 9
f 138/167/210 146/168/211 147/169/212
f 304/170/213 139/171/214 303/172/215
f 344/173/216 141/174/217 152/175/218
f 220/176/219 152/175/218 141/174/217
f 291/177/220 143/178/221 150/179/222
f 150/179/222 144/180/223 149/181/224
s 10
f 264/182/225 148/183/226 263/184/227
f 357/185/228 145/186/229 356/187/230
s 9
f 5/188/231 139/171/214 138/167/210
f 303/172/215 41/189/232 302/190/233
f 50/191/234 345/192/235 346/193/236
f 219/194/237 141/174/217 50/191/234
f 42/195/238 292/196/239 293/197/240
f 143/178/221 3/198/241 144/180/223
s 10
f 145/186/229 211/199/242 49/200/243
f 356/187/230 49/200/243 355/201/244
s 9
f 146/168/211 163/202/245 147/169/212
s 10
f 357/185/228 164/203/246 148/183/226
f 262/204/247 148/183/226 164/203/246
s 9
f 165/205/248 150/179/222 149/181/224
f 291/177/220 166/206/249 290/207/250
f 222/208/251 152/175/218 221/209/252
f 344/173/216 168/210/253 343/211/254
f 304/170/213 162/212/255 146/168/211
f 154/150/193 122/135/178 155/147/190
s 10
f 362/213/256 129/144/187 156/165/208
f 257/142/185 156/165/208 129/144/187
s 9
f 128/141/184 158/158/201 157/160/203
f 286/159/202 127/140/183 285/214/257
f 227/139/182 160/152/195 226/154/197
f 339/153/196 125/138/181 338/215/258
f 309/216/259 123/136/179 154/150/193
f 162/212/255 130/217/260 163/202/245
s 10
f 358/218/261 137/219/262 164/203/246
f 261/220/263 164/203/246 137/219/262
s 9
f 136/221/264 166/206/249 165/205/248
f 290/207/250 135/222/265 289/223/266
f 223/224/267 168/210/253 222/208/251
f 343/211/254 133/225/268 342/226/269
f 305/227/270 131/228/271 162/212/255
s 35
f 346/229/272 171/230/273 50/230/274
f 302/190/275 170/189/275 301/190/275
s 36
f 5/188/276 170/189/276 41/189/276
s 37
f 355/87/277 173/88/278 354/87/277
s 38
f 3/198/279 176/195/279 175/198/279
s 39
f 211/103/280 173/88/280 49/88/280
s 40
f 293/197/281 176/195/281 42/195/281
f 219/231/282 171/230/283 218/231/284
s 41
f 348/229/285 180/230/286 193/230/287
f 300/190/288 178/189/289 299/190/290
s 42
f 187/189/291 183/188/292 178/189/293
s 43
f 353/87/294 182/88/295 352/87/296
s 44
f 191/195/297 184/198/298 190/198/299
s 45
f 189/88/300 214/103/301 182/88/302
s 46
f 295/197/303 185/195/304 191/195/305
f 216/231/306 193/230/307 180/230/308
s 42
f 174/188/309 187/189/291 170/189/309
s 43
f 353/87/294 173/88/310 189/88/311
s 45
f 212/103/312 189/88/300 173/88/312
s 44
f 175/198/313 191/195/297 190/198/299
s 46
f 176/195/314 295/197/303 191/195/305
f 218/231/315 193/230/307 217/231/316
s 41
f 171/230/317 348/229/285 193/230/287
f 300/190/288 170/189/318 187/189/319
s 47
f 494/232/191 496/148/191 493/233/191
s 9
f 307/234/320 196/146/189 204/232/321
f 341/235/194 198/155/198 340/151/194
s 48
f 498/156/322 500/236/322 497/237/322
s 9
f 288/238/323 200/161/204 287/157/200
s 49
f 502/162/205 503/239/205 504/240/205
s 50
f 505/241/324 507/242/324 508/164/324
s 10
f 360/243/209 202/164/207 210/242/325
s 9
f 131/228/271 203/233/326 130/217/260
f 306/244/327 204/232/321 131/228/271
f 342/226/269 206/236/328 341/235/194
f 224/237/329 133/225/268 223/224/267
f 289/223/266 208/239/330 288/238/323
f 209/240/331 135/222/265 136/221/264
s 10
f 260/245/332 137/219/262 210/242/325
f 359/246/333 210/242/325 137/219/262
s 39
f 211/103/280 175/198/334 212/103/280
s 45
f 213/103/335 175/198/312 190/198/336
f 213/103/335 184/198/337 214/103/301
s 2
f 184/198/94 215/105/4 214/103/94
f 296/197/4 215/105/4 185/195/94
s 26
f 231/109/338 27/247/339 394/248/340
s 12
f 239/115/341 10/249/342 386/250/343
s 3
f 242/251/9 271/252/9 33/253/9
f 242/251/9 1/254/9 243/119/9
s 21
f 244/131/134 1/102/134 80/102/344
s 6
f 244/131/108 81/101/108 245/121/108
s 22
f 9/101/135 245/121/135 81/101/135
s 4
f 247/255/345 9/101/147 82/99/346
f 247/255/345 16/97/347 248/123/110
f 249/124/111 16/97/347 20/95/348
f 250/125/112 20/95/348 24/96/349
f 96/94/154 250/125/112 24/96/349
s 33
f 252/134/175 96/94/175 112/94/175
s 8
f 252/134/114 113/92/114 253/127/114
s 34
f 28/92/177 253/127/177 113/92/177
s 10
f 254/127/350 32/89/351 255/128/116
f 256/143/186 32/89/351 120/91/352
f 128/141/353 256/143/186 120/91/352
f 258/163/206 128/141/353 157/160/354
f 259/241/324 157/160/354 201/162/324
f 260/245/332 201/162/324 209/240/332
f 261/220/263 209/240/332 136/221/355
f 262/204/247 136/221/355 165/205/356
f 263/184/227 165/205/356 149/181/357
f 144/180/358 263/184/227 149/181/357
f 264/182/225 3/198/359 211/199/242
s 14
f 266/129/121 377/256/360 378/256/361
s 5
f 267/26/21 378/256/362 379/257/363
s 13
f 380/257/364 267/26/122 379/257/365
s 3
f 381/258/9 269/118/9 323/10/9
f 383/259/9 269/118/9 382/260/9
f 270/117/9 384/261/9 271/252/9
s 11
f 272/20/117 384/262/366 385/262/367
s 5
f 272/20/17 386/250/368 273/21/17
s 12
f 387/250/369 273/21/118 386/250/343
s 1
f 387/250/370 275/2/2 274/21/138
f 275/2/2 389/263/371 276/3/3
f 277/34/28 389/263/371 390/264/372
f 278/42/36 390/264/372 391/265/373
f 392/266/374 278/42/36 391/265/373
s 25
f 280/53/161 392/266/375 393/266/376
s 7
f 280/53/45 394/248/377 281/54/45
s 26
f 395/248/378 281/54/162 394/248/340
s 9
f 282/54/55 396/267/379 283/62/56
f 396/267/379 284/68/63 283/62/56
f 398/268/380 284/68/63 397/269/381
f 398/268/380 286/159/202 285/214/257
f 399/270/382 287/157/200 286/159/202
s 51
f 509/271/323 511/238/323 512/157/323
s 9
f 401/272/383 289/223/266 288/238/323
f 402/273/384 290/207/250 289/223/266
f 403/274/385 291/177/220 290/207/250
f 405/275/386 291/177/220 404/276/387
f 292/196/239 406/277/388 293/197/240
s 40
f 294/197/281 406/277/389 407/277/389
s 46
f 295/197/303 407/277/390 408/277/391
f 295/197/303 409/277/392 296/197/304
s 2
f 409/277/393 297/104/4 296/197/4
f 410/278/394 298/6/5 297/104/4
f 412/279/79 298/6/5 411/280/79
s 41
f 413/281/395 300/190/288 299/190/290
f 415/281/396 300/190/288 414/282/397
s 35
f 416/281/398 301/190/275 415/281/398
s 9
f 416/281/399 303/172/215 302/190/233
f 417/283/400 304/170/213 303/172/215
f 419/284/401 304/170/213 418/285/402
f 420/286/403 305/227/270 419/284/401
f 421/287/404 306/244/327 420/286/403
s 52
f 514/288/192 516/234/192 513/287/192
s 9
f 423/289/405 308/149/192 422/288/406
f 424/290/407 309/216/259 423/289/405
f 424/290/407 311/65/60 310/137/180
f 311/65/60 426/291/408 312/66/61
f 313/48/49 426/291/408 427/292/409
s 24
f 314/48/158 427/292/410 428/292/411
s 7
f 428/292/412 315/46/40 314/48/40
s 23
f 430/293/413 315/46/157 429/293/414
s 1
f 317/38/32 430/293/415 431/294/416
f 317/38/32 432/295/417 318/39/33
f 318/39/33 433/296/418 319/9/8
f 433/296/418 320/7/6 319/9/8
f 320/7/6 377/256/419 265/129/144
s 3
f 435/297/9 322/12/9 321/71/9
f 437/298/9 322/12/9 436/299/9
f 438/300/9 323/10/9 437/298/9
s 13
f 325/23/119 439/301/420 440/301/421
s 5
f 325/23/19 441/302/422 326/24/19
s 14
f 442/302/423 326/24/120 441/302/424
s 1
f 442/302/425 328/14/11 327/24/142
f 328/14/11 444/303/426 329/15/12
f 329/15/12 445/304/427 330/32/26
f 331/40/34 445/304/427 446/305/428
f 447/306/429 331/40/34 446/305/428
s 23
f 333/50/159 447/306/430 448/306/431
s 7
f 333/50/43 449/307/432 334/51/43
s 24
f 450/307/433 334/51/160 449/307/434
s 9
f 335/51/52 451/308/435 336/60/53
f 451/308/435 337/67/62 336/60/53
f 453/309/436 337/67/62 452/310/437
f 453/309/436 339/153/196 338/215/258
f 454/311/438 340/151/194 339/153/196
s 53
f 517/312/194 519/235/194 520/151/194
s 9
f 456/313/439 342/226/269 341/235/194
f 457/314/440 343/211/254 342/226/269
f 458/315/441 344/173/216 343/211/254
f 460/316/442 344/173/216 459/317/443
f 345/192/235 461/318/444 346/193/236
s 35
f 347/229/272 461/319/445 462/319/446
s 41
f 348/229/285 462/319/447 463/319/448
f 348/229/285 464/319/449 349/229/450
s 2
f 465/320/451 350/4/4 412/279/79
f 466/321/393 351/322/94 350/4/4
f 351/322/94 468/323/394 352/87/79
s 43
f 468/323/452 353/87/294 352/87/296
f 470/323/453 353/87/294 469/323/454
s 37
f 471/323/455 354/87/277 470/323/455
s 10
f 471/324/456 356/187/230 355/201/244
f 472/325/457 357/185/228 356/187/230
f 474/326/458 357/185/228 473/327/459
f 475/328/460 358/218/261 474/326/458
f 476/329/209 359/246/333 475/328/460
s 54
f 522/330/209 524/243/209 521/329/209
s 10
f 478/331/461 361/166/209 477/330/209
f 479/332/462 362/213/256 478/331/461
f 479/332/462 364/69/64 363/145/188
f 481/333/463 364/69/64 480/334/464
f 481/333/463 366/57/57 365/64/59
s 28
f 367/57/165 482/335/465 483/335/465
s 8
f 483/335/466 368/55/46 367/57/46
s 27
f 485/336/467 368/55/164 484/336/467
s 4
f 485/336/468 370/44/38 369/55/153
f 487/337/469 370/44/38 486/338/470
f 487/337/469 372/18/15 371/37/31
f 488/339/471 373/16/13 372/18/15
f 490/340/472 373/16/13 489/341/473
s 16
f 375/30/124 490/340/124 491/340/124
s 6
f 491/340/23 376/28/23 375/30/23
s 15
f 435/342/123 376/28/123 492/342/123
s 14
f 378/256/361 11/343/474 441/302/424
s 5
f 379/257/363 73/343/475 440/301/476
s 3
f 381/258/9 439/344/9 324/345/9
f 382/260/9 324/345/9 57/346/9
f 241/347/9 382/260/9 57/346/9
f 383/259/9 2/348/9 384/261/9
s 11
f 385/262/367 2/349/477 240/130/131
s 5
f 69/249/478 385/262/479 240/130/480
s 1
f 388/350/481 10/249/482 237/132/140
f 15/351/483 388/350/481 237/132/140
f 19/352/484 15/351/483 235/111/101
f 391/265/373 19/352/484 234/112/102
f 90/353/485 391/265/373 234/112/102
s 25
f 393/266/376 90/353/486 232/133/172
s 7
f 107/247/487 393/266/488 232/133/489
s 9
f 31/354/490 395/248/491 230/109/492
f 397/269/381 31/354/490 228/108/97
f 126/355/493 397/269/381 228/108/97
f 399/270/382 126/355/493 226/154/197
f 400/271/494 159/356/495 225/156/199
f 401/272/383 199/357/496 224/237/329
f 402/273/384 207/358/497 223/224/267
f 403/274/385 134/359/498 222/208/251
f 404/276/387 167/360/499 221/209/252
f 142/361/500 404/276/387 221/209/252
f 4/362/501 405/275/386 220/176/219
s 40
f 177/362/502 4/362/502 218/231/284
s 46
f 408/277/391 177/362/503 217/231/316
f 186/362/504 408/277/391 217/231/316
s 2
f 410/278/394 186/362/505 216/231/79
f 411/280/79 216/231/79 180/230/506
f 349/229/507 411/280/79 180/230/506
f 464/319/5 412/279/79 349/229/507
s 9
f 417/283/400 6/363/508 460/316/442
f 418/285/402 140/364/509 459/317/443
f 169/365/510 418/285/402 459/317/443
f 132/366/511 419/284/401 458/315/441
f 205/367/512 420/286/403 457/314/440
f 197/368/513 421/287/404 456/313/439
f 161/369/514 422/288/406 455/312/515
f 124/370/516 423/289/405 454/311/438
f 425/371/517 124/372/516 452/310/437
f 30/373/518 425/371/517 452/310/437
f 427/292/409 30/374/518 450/307/519
s 24
f 428/292/411 26/375/520 449/307/434
s 7
f 429/293/521 101/375/522 448/306/523
s 1
f 431/294/416 92/376/524 446/305/428
f 18/377/525 431/294/416 446/305/428
f 14/378/526 18/379/525 444/303/426
f 434/380/527 14/381/526 443/382/528
f 11/383/529 434/380/527 443/382/528
s 3
f 7/74/9 436/299/9 435/297/9
f 268/26/9 436/299/9 34/27/9
f 380/257/9 437/298/9 268/26/9
f 438/300/9 8/384/9 439/344/9
s 13
f 440/301/421 8/384/530 379/257/365
s 23
f 448/306/431 92/385/531 429/293/414
s 35
f 172/386/532 6/386/532 415/281/398
s 41
f 463/319/448 172/386/533 414/282/397
f 181/386/534 463/319/448 414/282/397
s 2
f 465/320/451 181/386/451 413/281/535
f 466/321/393 413/281/535 299/190/507
f 467/387/94 299/190/507 178/189/94
f 467/387/94 183/188/505 468/323/394
s 43
f 469/323/454 183/188/536 188/188/537
f 174/188/453 469/323/454 188/188/537
s 37
f 471/323/455 174/188/455 5/188/455
s 10
f 472/325/457 5/388/538 138/389/539
f 473/327/459 138/389/539 147/390/540
f 163/391/541 473/327/459 147/390/540
f 130/392/542 474/326/458 163/391/541
f 203/393/209 475/328/460 130/392/542
f 195/394/543 476/329/209 203/393/209
f 155/395/544 477/330/209 195/394/543
f 122/396/545 478/331/461 155/395/544
f 480/334/464 122/396/545 114/397/546
f 29/398/547 480/334/464 114/397/546
f 482/335/57 29/398/547 25/399/57
s 28
f 483/335/465 25/399/465 111/399/465
s 8
f 484/336/548 111/399/466 108/400/548
s 27
f 94/400/467 484/336/467 108/400/467
s 4
f 486/338/470 94/400/468 21/401/549
f 17/402/550 486/338/470 21/401/549
f 488/339/471 17/402/550 13/403/551
f 489/341/473 13/403/551 88/404/552
f 12/405/553 489/341/473 88/404/552
s 16
f 491/340/124 12/405/124 79/405/124
s 6
f 492/342/23 79/405/23 76/406/23
s 15
f 7/406/554 492/342/123 76/406/123
s 55
f 204/232/555 493/233/555 203/233/555
s 56
f 196/146/556 494/232/556 204/232/556
s 57
f 196/146/557 496/148/557 495/146/557
s 58
f 195/148/558 493/233/558 496/148/558
s 59
f 225/156/559 497/237/560 224/237/560
s 60
f 198/155/561 498/156/561 225/156/561
s 61
f 198/155/562 500/236/563 499/155/562
s 62
f 206/236/564 497/237/564 500/236/564
s 63
f 200/161/565 502/162/566 201/162/566
s 64
f 200/161/556 503/239/556 501/161/556
s 65
f 208/239/567 504/240/567 503/239/567
s 66
f 201/162/568 504/240/568 209/240/568
s 67
f 259/241/569 506/245/570 505/241/569
s 68
f 210/242/571 506/245/571 260/245/571
s 69
f 202/164/572 507/242/573 210/242/573
s 70
f 202/164/574 505/241/575 508/164/574
s 71
f 400/271/576 510/272/576 509/271/576
s 72
f 288/238/577 510/272/577 401/272/577
s 73
f 287/157/578 511/238/578 288/238/578
s 74
f 287/157/579 509/271/579 512/157/580
s 75
f 422/288/581 513/287/581 421/287/581
s 76
f 308/149/582 514/288/582 422/288/582
s 77
f 308/149/583 516/234/583 515/149/583
s 78
f 307/234/584 513/287/584 516/234/585
s 79
f 455/312/586 518/313/586 517/312/586
s 80
f 341/235/587 518/313/587 456/313/587
s 81
f 340/151/588 519/235/588 341/235/588
s 82
f 340/151/589 517/312/589 520/151/589
s 83
f 477/330/590 521/329/591 476/329/591
s 84
f 361/166/592 522/330/592 477/330/592
s 85
f 361/166/593 524/243/593 523/166/593
s 86
f 360/243/594 521/329/594 524/243/594
s 1
f 47/1/1 83/98/90 275/2/2
s 2
f 350/4/4 351/322/94 179/5/4
s 1
f 320/7/6 87/76/68 36/8/7
s 3
f 323/10/9 269/118/9 58/11/9
s 1
f 55/13/10 85/114/104 328/14/11
s 4
f 373/16/13 89/122/109 61/17/14
s 5
f 66/19/16 67/100/92 272/20/17
f 70/22/18 71/116/106 325/23/19
f 75/25/20 266/129/21 267/26/21
s 6
f 376/28/23 77/120/107 78/29/24
s 1
f 37/31/25 318/39/33 319/9/8
f 55/13/10 329/15/12 330/32/26
f 47/1/1 276/3/3 277/34/28
s 4
f 372/18/15 61/17/14 62/36/30
s 1
f 37/31/25 38/79/71 317/38/32
f 54/33/27 330/32/26 331/40/34
f 46/35/29 277/34/28 278/42/36
s 4
f 370/44/38 371/37/31 62/36/30
s 7
f 315/46/40 99/82/74 100/47/41
f 102/49/42 103/110/100 333/50/43
f 104/52/44 105/93/85 280/53/45
s 8
f 368/55/46 109/126/113 110/56/47
s 9
f 40/58/48 312/66/61 313/48/49
f 51/59/51 52/49/98 335/51/52
f 43/61/54 44/52/83 282/54/55
s 10
f 366/57/57 64/56/115 65/63/58
s 9
f 40/58/48 115/85/77 311/65/60
f 337/67/62 117/107/96 51/59/51
f 284/68/63 119/90/81 43/61/54
s 10
f 364/69/64 365/64/59 65/63/58
s 3
f 321/71/9 322/12/9 58/11/9
s 5
f 79/73/66 75/25/20 74/27/22
s 1
f 13/75/67 36/8/7 87/76/68
f 37/31/25 36/8/7 13/75/67
f 38/79/71 37/31/25 17/78/70
s 7
f 111/81/73 100/47/41 99/82/74
s 9
f 29/84/75 40/58/48 39/47/50
f 115/85/77 40/58/48 29/84/75
s 2
f 179/5/4 351/322/94 352/87/79
s 9
f 32/89/80 43/61/54 119/90/81
f 44/52/83 43/61/54 32/89/80
s 7
f 105/93/85 104/52/44 113/92/86
s 1
f 20/95/87 46/35/29 45/43/37
f 16/97/89 47/1/1 46/35/29
f 83/98/90 47/1/1 16/97/89
s 5
f 67/100/92 66/19/16 81/101/93
s 2
f 214/103/94 215/105/4 179/5/4
f 297/104/4 298/6/5 179/5/4
s 9
f 229/106/95 51/59/51 117/107/96
f 229/106/95 230/109/492 52/49/98
s 7
f 231/109/99 232/133/489 103/110/100
s 1
f 235/111/101 54/33/27 53/41/35
f 236/113/103 55/13/10 54/33/27
f 236/113/103 237/132/140 85/114/104
s 5
f 239/115/105 240/130/480 71/116/106
s 3
f 270/117/9 242/251/9 58/11/9
f 58/11/9 242/251/9 243/119/9
s 6
f 77/120/107 244/131/108 245/121/108
s 4
f 89/122/109 247/255/345 248/123/110
f 62/36/30 61/17/14 248/123/110
f 63/45/39 62/36/30 249/124/111
s 8
f 109/126/113 252/134/114 253/127/114
s 10
f 64/56/115 254/127/350 255/128/116
f 255/128/116 256/143/186 121/70/65
s 11
f 33/100/117 271/20/117 272/20/117
s 12
f 273/21/118 274/21/118 48/19/118
s 13
f 57/116/119 324/23/119 325/23/119
s 14
f 326/24/120 327/24/120 56/22/120
f 35/25/121 265/129/121 266/129/121
s 13
f 267/26/122 268/26/122 34/27/122
s 15
f 376/28/123 321/28/123 59/120/123
s 16
f 60/29/124 374/30/124 375/30/124
s 17
f 12/73/125 35/25/125 75/25/125
s 18
f 7/74/126 76/74/126 74/27/126
s 19
f 1/102/127 33/100/127 67/100/127
s 20
f 9/101/128 81/101/128 66/19/128
s 11
f 241/130/129 57/116/130 71/116/130
s 12
f 238/115/132 239/115/341 70/22/133
s 21
f 243/131/134 244/131/134 77/120/134
s 22
f 246/121/135 60/29/135 78/29/135
s 1
f 9/101/136 48/19/137 83/98/90
f 275/2/2 83/98/90 48/19/137
f 238/115/139 56/22/141 85/114/104
f 328/14/11 85/114/104 56/22/141
f 35/25/143 87/76/68 320/7/6
f 87/76/68 35/25/143 12/73/145
s 4
f 373/16/13 374/30/472 60/29/146
f 246/121/147 247/255/345 89/122/109
s 1
f 233/133/148 234/112/102 53/41/35
f 331/40/34 332/50/595 91/110/149
f 93/82/150 316/46/596 317/38/32
f 94/83/151 93/82/150 38/79/71
s 4
f 370/44/38 63/45/39 95/126/152
f 251/134/154 95/126/152 63/45/39
s 1
f 45/43/37 97/93/156 96/94/155
f 278/42/36 279/53/597 97/93/156
s 23
f 315/46/157 316/46/157 93/82/157
s 24
f 39/47/158 313/48/158 314/48/158
s 23
f 91/110/159 332/50/159 333/50/159
s 24
f 334/51/160 335/51/160 52/49/160
s 25
f 97/93/161 279/53/161 280/53/161
s 26
f 281/54/162 282/54/162 44/52/162
s 27
f 368/55/164 369/55/164 95/126/164
s 28
f 64/56/165 366/57/165 367/57/165
s 29
f 25/81/166 39/47/166 100/47/166
s 30
f 94/83/167 108/83/167 99/82/167
s 31
f 96/94/168 97/93/168 105/93/168
s 32
f 28/92/169 113/92/169 104/52/169
s 25
f 233/133/170 91/110/171 103/110/171
s 26
f 230/109/173 231/109/338 102/49/174
s 33
f 251/134/175 252/134/175 109/126/176
s 34
f 254/127/177 64/56/177 110/56/177
s 9
f 122/135/178 123/136/179 115/85/77
f 311/65/60 115/85/77 123/136/179
f 337/67/62 338/215/258 125/138/181
f 227/139/182 228/108/97 117/107/96
f 284/68/63 285/214/257 127/140/183
f 119/90/81 127/140/183 128/141/184
s 10
f 257/142/185 129/144/187 121/70/65
f 364/69/64 121/70/65 129/144/187
s 9
f 196/146/189 154/150/193 155/147/190
f 308/149/192 309/216/259 154/150/193
f 340/151/194 198/155/198 160/152/195
f 226/154/197 160/152/195 198/155/198
f 287/157/200 200/161/204 158/158/201
f 157/160/203 158/158/201 200/161/204
s 10
f 258/163/206 259/241/324 202/164/207
f 361/166/209 362/213/256 156/165/208
s 9
f 138/167/210 139/171/214 146/168/211
f 304/170/213 146/168/211 139/171/214
f 344/173/216 345/192/235 141/174/217
f 220/176/219 221/209/252 152/175/218
f 291/177/220 292/196/239 143/178/221
f 150/179/222 143/178/221 144/180/223
s 10
f 264/182/225 145/186/229 148/183/226
f 357/185/228 148/183/226 145/186/229
s 9
f 5/188/231 41/189/232 139/171/214
f 303/172/215 139/171/214 41/189/232
f 50/191/234 141/174/217 345/192/235
f 219/194/237 220/176/219 141/174/217
f 42/195/238 143/178/221 292/196/239
f 143/178/221 42/195/238 3/198/241
s 10
f 145/186/229 264/182/225 211/199/242
f 356/187/230 145/186/229 49/200/243
s 9
f 146/168/211 162/212/255 163/202/245
s 10
f 357/185/228 358/218/261 164/203/246
f 262/204/247 263/184/227 148/183/226
s 9
f 165/205/248 166/206/249 150/179/222
f 291/177/220 150/179/222 166/206/249
f 222/208/251 168/210/253 152/175/218
f 344/173/216 152/175/218 168/210/253
f 304/170/213 305/227/270 162/212/255
f 154/150/193 123/136/179 122/135/178
s 10
f 362/213/256 363/145/188 129/144/187
f 257/142/185 258/163/206 156/165/208
s 9
f 128/141/184 127/140/183 158/158/201
f 286/159/202 158/158/201 127/140/183
f 227/139/182 125/138/181 160/152/195
f 339/153/196 160/152/195 125/138/181
f 309/216/259 310/137/180 123/136/179
f 162/212/255 131/228/271 130/217/260
s 10
f 358/218/261 359/246/333 137/219/262
f 261/220/263 262/204/247 164/203/246
s 9
f 136/221/264 135/222/265 166/206/249
f 290/207/250 166/206/249 135/222/265
f 223/224/267 133/225/268 168/210/253
f 343/211/254 168/210/253 133/225/268
f 305/227/270 306/244/327 131/228/271
s 35
f 346/229/272 347/229/272 171/230/273
f 302/190/275 41/189/275 170/189/275
s 36
f 5/188/276 174/188/276 170/189/276
s 37
f 355/87/277 49/88/598 173/88/278
s 38
f 3/198/279 42/195/279 176/195/279
s 39
f 211/103/280 212/103/280 173/88/280
s 40
f 293/197/281 294/197/281 176/195/281
f 219/231/282 50/230/283 171/230/283
s 41
f 348/229/285 349/229/450 180/230/286
f 300/190/288 187/189/319 178/189/289
s 42
f 187/189/291 188/188/599 183/188/292
s 43
f 353/87/294 189/88/311 182/88/295
s 44
f 191/195/297 185/195/600 184/198/298
s 45
f 189/88/300 213/103/335 214/103/301
s 46
f 295/197/303 296/197/304 185/195/304
f 216/231/306 217/231/316 193/230/307
s 42
f 174/188/309 188/188/599 187/189/291
s 43
f 353/87/294 354/87/601 173/88/310
s 45
f 212/103/312 213/103/335 189/88/300
s 44
f 175/198/313 176/195/313 191/195/297
s 46
f 176/195/314 294/197/314 295/197/303
f 218/231/315 171/230/602 193/230/307
s 41
f 171/230/317 347/229/603 348/229/285
f 300/190/288 301/190/318 170/189/318
s 47
f 494/232/191 495/146/191 496/148/191
s 9
f 307/234/320 308/149/192 196/146/189
f 341/235/194 206/236/328 198/155/198
s 48
f 498/156/322 499/155/322 500/236/322
s 9
f 288/238/323 208/239/330 200/161/204
s 49
f 502/162/205 501/161/205 503/239/205
s 50
f 505/241/324 506/245/324 507/242/324
s 10
f 360/243/209 361/166/209 202/164/207
s 9
f 131/228/271 204/232/321 203/233/326
f 306/244/327 307/234/320 204/232/321
f 342/226/269 133/225/268 206/236/328
f 224/237/329 206/236/328 133/225/268
f 289/223/266 135/222/265 208/239/330
f 209/240/331 208/239/330 135/222/265
s 10
f 260/245/332 261/220/263 137/219/262
f 359/246/333 360/243/209 210/242/325
s 39
f 211/103/280 3/198/334 175/198/334
s 45
f 213/103/335 212/103/312 175/198/312
f 213/103/335 190/198/336 184/198/337
s 2
f 184/198/94 185/195/94 215/105/4
f 296/197/4 297/104/4 215/105/4
s 26
f 394/248/340 107/247/94 231/109/338
f 231/109/338 230/109/173 27/247/339
f 27/247/339 395/248/378 394/248/340
s 12
f 386/250/343 69/249/94 239/115/341
f 239/115/341 238/115/132 10/249/342
f 10/249/342 387/250/369 386/250/343
s 3
f 242/251/9 270/117/9 271/252/9
f 242/251/9 33/253/9 1/254/9
s 21
f 244/131/134 243/131/134 1/102/134
s 6
f 244/131/108 80/102/108 81/101/108
s 22
f 9/101/135 246/121/135 245/121/135
s 4
f 247/255/345 246/121/147 9/101/147
f 247/255/345 82/99/346 16/97/347
f 249/124/111 248/123/110 16/97/347
f 250/125/112 249/124/111 20/95/348
f 96/94/154 251/134/154 250/125/112
s 33
f 252/134/175 251/134/175 96/94/175
s 8
f 252/134/114 112/94/114 113/92/114
s 34
f 28/92/177 254/127/177 253/127/177
s 10
f 254/127/350 28/92/350 32/89/351
f 256/143/186 255/128/116 32/89/351
f 128/141/353 257/142/185 256/143/186
f 258/163/206 257/142/185 128/141/353
f 259/241/324 258/163/206 157/160/354
f 260/245/332 259/241/324 201/162/324
f 261/220/263 260/245/332 209/240/332
f 262/204/247 261/220/263 136/221/355
f 263/184/227 262/204/247 165/205/356
f 144/180/358 264/182/225 263/184/227
f 264/182/225 144/180/358 3/198/359
s 14
f 266/129/121 265/129/121 377/256/360
s 5
f 267/26/21 266/129/21 378/256/362
s 13
f 380/257/364 268/26/122 267/26/122
s 3
f 381/258/9 382/260/9 269/118/9
f 383/259/9 270/117/9 269/118/9
f 270/117/9 383/259/9 384/261/9
s 11
f 272/20/117 271/20/117 384/262/366
s 5
f 272/20/17 385/262/479 386/250/368
s 12
f 387/250/369 274/21/118 273/21/118
s 1
f 387/250/370 388/350/481 275/2/2
f 275/2/2 388/350/481 389/263/371
f 277/34/28 276/3/3 389/263/371
f 278/42/36 277/34/28 390/264/372
f 392/266/374 279/53/597 278/42/36
s 25
f 280/53/161 279/53/161 392/266/375
s 7
f 280/53/45 393/266/488 394/248/377
s 26
f 395/248/378 282/54/162 281/54/162
s 9
f 282/54/55 395/248/491 396/267/379
f 396/267/379 397/269/381 284/68/63
f 398/268/380 285/214/257 284/68/63
f 398/268/380 399/270/382 286/159/202
f 399/270/382 400/271/494 287/157/200
s 51
f 509/271/323 510/272/323 511/238/323
s 9
f 401/272/383 402/273/384 289/223/266
f 402/273/384 403/274/385 290/207/250
f 403/274/385 404/276/387 291/177/220
f 405/275/386 292/196/239 291/177/220
f 292/196/239 405/275/386 406/277/388
s 40
f 294/197/281 293/197/281 406/277/389
s 46
f 295/197/303 294/197/314 407/277/390
f 295/197/303 408/277/391 409/277/392
s 2
f 409/277/393 410/278/394 297/104/4
f 410/278/394 411/280/79 298/6/5
f 412/279/79 350/4/4 298/6/5
s 41
f 413/281/395 414/282/397 300/190/288
f 415/281/396 301/190/318 300/190/288
s 35
f 416/281/398 302/190/275 301/190/275
s 9
f 416/281/399 417/283/400 303/172/215
f 417/283/400 418/285/402 304/170/213
f 419/284/401 305/227/270 304/170/213
f 420/286/403 306/244/327 305/227/270
f 421/287/404 307/234/320 306/244/327
s 52
f 514/288/192 515/149/192 516/234/192
s 9
f 423/289/405 309/216/259 308/149/192
f 424/290/407 310/137/180 309/216/259
f 424/290/407 425/371/517 311/65/60
f 311/65/60 425/371/517 426/291/408
f 313/48/49 312/66/61 426/291/408
s 24
f 314/48/158 313/48/158 427/292/410
s 7
f 428/292/412 429/293/521 315/46/40
s 23
f 430/293/413 316/46/157 315/46/157
s 1
f 317/38/32 316/46/596 430/293/415
f 317/38/32 431/294/416 432/295/417
f 318/39/33 432/295/417 433/296/418
f 433/296/418 434/380/527 320/7/6
f 320/7/6 434/380/527 377/256/419
s 3
f 435/297/9 436/299/9 322/12/9
f 437/298/9 323/10/9 322/12/9
f 438/300/9 381/258/9 323/10/9
s 13
f 325/23/119 324/23/119 439/301/420
s 5
f 325/23/19 440/301/476 441/302/422
s 14
f 442/302/423 327/24/120 326/24/120
s 1
f 442/302/425 443/382/528 328/14/11
f 328/14/11 443/382/528 444/303/426
f 329/15/12 444/303/426 445/304/427
f 331/40/34 330/32/26 445/304/427
f 447/306/429 332/50/595 331/40/34
s 23
f 333/50/159 332/50/159 447/306/430
s 7
f 333/50/43 448/306/523 449/307/432
s 24
f 450/307/433 335/51/160 334/51/160
s 9
f 335/51/52 450/307/519 451/308/435
f 451/308/435 452/310/437 337/67/62
f 453/309/436 338/215/258 337/67/62
f 453/309/436 454/311/438 339/153/196
f 454/311/438 455/312/515 340/151/194
s 53
f 517/312/194 518/313/194 519/235/194
s 9
f 456/313/439 457/314/440 342/226/269
f 457/314/440 458/315/441 343/211/254
f 458/315/441 459/317/443 344/173/216
f 460/316/442 345/192/235 344/173/216
f 345/192/235 460/316/442 461/318/444
s 35
f 347/229/272 346/229/272 461/319/445
s 41
f 348/229/285 347/229/603 462/319/447
f 348/229/285 463/319/448 464/319/449
s 2
f 465/320/451 466/321/393 350/4/4
f 466/321/393 467/387/94 351/322/94
f 351/322/94 467/387/94 468/323/394
s 43
f 468/323/452 469/323/454 353/87/294
f 470/323/453 354/87/601 353/87/294
s 37
f 471/323/455 355/87/277 354/87/277
s 10
f 471/324/456 472/325/457 356/187/230
f 472/325/457 473/327/459 357/185/228
f 474/326/458 358/218/261 357/185/228
f 475/328/460 359/246/333 358/218/261
f 476/329/209 360/243/209 359/246/333
s 54
f 522/330/209 523/166/209 524/243/209
s 10
f 478/331/461 362/213/256 361/166/209
f 479/332/462 363/145/188 362/213/256
f 479/332/462 480/334/464 364/69/64
f 481/333/463 365/64/59 364/69/64
f 481/333/463 482/335/57 366/57/57
s 28
f 367/57/165 366/57/165 482/335/465
s 8
f 483/335/466 484/336/548 368/55/46
s 27
f 485/336/467 369/55/164 368/55/164
s 4
f 485/336/468 486/338/470 370/44/38
f 487/337/469 371/37/31 370/44/38
f 487/337/469 488/339/471 372/18/15
f 488/339/471 489/341/473 373/16/13
f 490/340/472 374/30/472 373/16/13
s 16
f 375/30/124 374/30/124 490/340/124
s 6
f 491/340/23 492/342/23 376/28/23
s 15
f 435/342/123 321/28/123 376/28/123
s 14
f 441/302/424 73/383/94 378/256/361
f 378/256/361 377/256/360 11/343/474
f 11/343/474 442/302/423 441/302/424
s 87
f 440/301/604 72/384/94 379/257/605
s 5
f 379/257/363 378/256/362 73/343/475
f 73/343/475 441/302/422 440/301/476
s 3
f 381/258/9 438/300/9 439/344/9
f 382/260/9 381/258/9 324/345/9
f 241/347/9 383/259/9 382/260/9
f 383/259/9 241/347/9 2/348/9
s 88
f 240/130/606 68/349/9 385/262/607
s 11
f 385/262/367 384/262/366 2/349/477
f 2/349/477 241/130/129 240/130/131
s 5
f 69/249/478 386/250/368 385/262/479
f 240/130/480 239/115/105 69/249/478
s 89
f 237/132/608 84/407/609 388/350/610
s 1
f 388/350/481 387/250/370 10/249/482
f 10/249/482 238/115/139 237/132/140
f 15/351/483 389/263/371 388/350/481
f 237/132/140 236/113/103 15/351/483
f 19/352/484 390/264/372 389/263/371
f 15/351/483 236/113/103 235/111/101
f 19/352/484 389/263/371 15/351/483
s 90
f 234/112/611 23/408/612 391/265/613
s 1
f 391/265/373 390/264/372 19/352/484
f 19/352/484 235/111/101 234/112/102
f 90/353/485 392/266/374 391/265/373
f 234/112/102 233/133/148 90/353/485
s 91
f 232/133/614 106/353/9 393/266/615
s 25
f 393/266/376 392/266/375 90/353/486
f 90/353/486 233/133/170 232/133/172
s 7
f 107/247/487 394/248/377 393/266/488
f 232/133/489 231/109/99 107/247/487
s 9
f 31/354/490 396/267/379 395/248/491
f 395/248/491 27/247/94 230/109/492
f 230/109/492 229/106/95 31/354/490
s 92
f 228/108/616 118/409/617 397/269/618
s 9
f 397/269/381 396/267/379 31/354/490
f 31/354/490 229/106/95 228/108/97
f 126/355/493 398/268/380 397/269/381
f 228/108/97 227/139/182 126/355/493
f 226/154/197 159/356/495 399/270/382
f 399/270/382 398/268/380 126/355/493
f 126/355/493 227/139/182 226/154/197
f 225/156/199 199/357/496 400/271/494
f 400/271/494 399/270/382 159/356/495
f 159/356/495 226/154/197 225/156/199
f 224/237/329 207/358/497 401/272/383
f 401/272/383 400/271/494 199/357/496
f 199/357/496 225/156/199 224/237/329
f 223/224/267 134/359/498 402/273/384
f 402/273/384 401/272/383 207/358/497
f 207/358/497 224/237/329 223/224/267
f 222/208/251 167/360/499 403/274/385
f 403/274/385 402/273/384 134/359/498
f 134/359/498 223/224/267 222/208/251
s 93
f 221/209/619 151/410/620 404/276/621
s 9
f 404/276/387 403/274/385 167/360/499
f 167/360/499 222/208/251 221/209/252
f 142/361/500 405/275/386 404/276/387
f 221/209/252 220/176/219 142/361/500
f 4/362/501 406/277/388 405/275/386
f 405/275/386 142/361/500 220/176/219
f 220/176/219 219/194/237 4/362/501
s 40
f 177/362/502 407/277/389 406/277/389
f 4/362/502 219/231/282 218/231/284
f 177/362/502 406/277/389 4/362/502
s 94
f 217/231/622 192/362/623 408/277/624
s 46
f 408/277/391 407/277/390 177/362/503
f 177/362/503 218/231/315 217/231/316
f 186/362/504 409/277/392 408/277/391
f 217/231/316 216/231/306 186/362/504
s 2
f 410/278/394 409/277/393 186/362/505
f 411/280/79 410/278/394 216/231/79
f 349/229/507 412/279/79 411/280/79
f 464/319/5 465/320/451 412/279/79
s 9
f 460/316/442 140/411/509 417/283/400
f 417/283/400 416/281/399 6/363/508
f 6/363/508 461/318/444 460/316/442
s 95
f 459/317/625 153/412/626 418/285/627
s 9
f 418/285/402 417/283/400 140/364/509
f 140/364/509 460/316/442 459/317/443
f 169/365/510 419/284/401 418/285/402
f 459/317/443 458/315/441 169/365/510
f 132/366/511 420/286/403 419/284/401
f 419/284/401 169/413/510 458/315/441
f 458/315/441 457/314/440 132/366/511
f 205/367/512 421/287/404 420/286/403
f 420/286/403 132/414/511 457/314/440
f 457/314/440 456/313/439 205/367/512
f 197/368/513 422/288/406 421/287/404
f 421/287/404 205/415/512 456/313/439
f 456/313/439 455/312/515 197/368/513
f 161/369/514 423/289/405 422/288/406
f 422/288/406 197/416/513 455/312/515
f 455/312/515 454/311/438 161/369/514
f 124/370/516 424/290/407 423/289/405
f 423/289/405 161/417/514 454/311/438
f 454/311/438 453/309/436 124/370/516
s 96
f 452/310/628 116/418/629 425/371/630
s 9
f 425/371/517 424/290/407 124/372/516
f 124/372/516 453/309/436 452/310/437
f 30/373/518 426/291/408 425/371/517
f 452/310/437 451/308/435 30/373/518
f 450/307/519 26/419/94 427/292/409
f 427/292/409 426/291/408 30/374/518
f 30/374/518 451/308/435 450/307/519
s 24
f 449/307/434 101/419/94 428/292/411
f 428/292/411 427/292/410 26/375/520
f 26/375/520 450/307/433 449/307/434
s 97
f 448/306/631 98/385/94 429/293/632
s 7
f 429/293/521 428/292/412 101/375/522
f 101/375/522 449/307/432 448/306/523
s 98
f 446/305/633 22/420/634 431/294/635
s 1
f 431/294/416 430/293/415 92/376/524
f 92/376/524 447/306/429 446/305/428
f 18/377/525 432/295/417 431/294/416
f 446/305/428 445/304/427 18/377/525
f 14/378/526 433/296/418 432/295/417
f 18/379/525 445/304/427 444/303/426
f 14/378/526 432/295/417 18/379/525
s 99
f 443/382/636 86/421/637 434/380/638
s 1
f 434/380/527 433/296/418 14/381/526
f 14/381/526 444/303/426 443/382/528
f 11/383/529 377/256/419 434/380/527
f 443/382/528 442/302/425 11/383/529
s 3
f 7/74/9 34/27/9 436/299/9
f 268/26/9 437/298/9 436/299/9
f 380/257/9 438/300/9 437/298/9
f 438/300/9 380/257/9 8/384/9
s 13
f 440/301/421 439/301/420 8/384/530
f 8/384/530 380/257/364 379/257/365
s 23
f 448/306/431 447/306/430 92/385/531
f 92/385/531 430/293/413 429/293/414
s 35
f 172/386/532 462/319/446 461/319/445
f 6/386/532 416/281/398 415/281/398
f 172/386/532 461/319/445 6/386/532
s 100
f 414/282/639 194/386/640 463/319/641
s 41
f 463/319/448 462/319/447 172/386/533
f 172/386/533 415/281/396 414/282/397
f 181/386/534 464/319/449 463/319/448
f 414/282/397 413/281/395 181/386/534
s 2
f 465/320/451 464/319/5 181/386/451
f 466/321/393 465/320/451 413/281/535
f 467/387/94 466/321/393 299/190/507
f 467/387/94 178/189/94 183/188/505
s 43
f 469/323/454 468/323/452 183/188/536
f 174/188/453 470/323/453 469/323/454
s 37
f 471/323/455 470/323/455 174/188/455
s 10
f 472/325/457 471/324/456 5/388/538
f 473/327/459 472/325/457 138/389/539
f 163/391/541 474/326/458 473/327/459
f 130/392/542 475/328/460 474/326/458
f 203/393/209 476/329/209 475/328/460
f 195/394/543 477/330/209 476/329/209
f 155/395/544 478/331/461 477/330/209
f 122/396/545 479/332/462 478/331/461
f 480/334/464 479/332/462 122/396/545
f 29/398/547 481/333/463 480/334/464
f 482/335/57 481/333/463 29/398/547
s 28
f 483/335/465 482/335/465 25/399/465
s 8
f 484/336/548 483/335/466 111/399/466
s 27
f 94/400/467 485/336/467 484/336/467
s 4
f 486/338/470 485/336/468 94/400/468
f 17/402/550 487/337/469 486/338/470
f 488/339/471 487/337/469 17/402/550
f 489/341/473 488/339/471 13/403/551
f 12/405/553 490/340/472 489/341/473
s 16
f 491/340/124 490/340/124 12/405/124
s 6
f 492/342/23 491/340/23 79/405/23
s 15
f 7/406/554 435/342/123 492/342/123
s 55
f 204/232/555 494/232/555 493/233/555
s 56
f 196/146/556 495/146/556 494/232/556
s 57
f 196/146/557 195/148/557 496/148/557
s 58
f 195/148/558 203/233/558 493/233/558
s 59
f 225/156/559 498/156/559 497/237/560
s 60
f 198/155/561 499/155/561 498/156/561
s 61
f 198/155/562 206/236/563 500/236/563
s 62
f 206/236/564 224/237/564 497/237/564
s 63
f 200/161/565 501/161/565 502/162/566
s 64
f 200/161/556 208/239/556 503/239/556
s 65
f 208/239/567 209/240/567 504/240/567
s 66
f 201/162/568 502/162/568 504/240/568
s 67
f 259/241/569 260/245/570 506/245/570
s 68
f 210/242/571 507/242/571 506/245/571
s 69
f 202/164/572 508/164/572 507/242/573
s 70
f 202/164/574 259/241/575 505/241/575
s 71
f 400/271/576 401/272/576 510/272/576
s 72
f 288/238/577 511/238/577 510/272/577
s 73
f 287/157/578 512/157/578 511/238/578
s 74
f 287/157/579 400/271/579 509/271/579
s 75
f 422/288/581 514/288/581 513/287/581
s 76
f 308/149/582 515/149/582 514/288/582
s 77
f 308/149/583 307/234/583 516/234/583
s 78
f 307/234/584 421/287/584 513/287/584
s 79
f 455/312/586 456/313/586 518/313/586
s 80
f 341/235/587 519/235/587 518/313/587
s 81
f 340/151/588 520/151/588 519/235/588
s 82
f 340/151/589 455/312/589 517/312/589
s 83
f 477/330/590 522/330/590 521/329/591
s 84
f 361/166/592 523/166/592 522/330/592
s 85
f 361/166/593 360/243/593 524/243/593
s 86
f 360/243/594 476/329/594 521/329/594
