# Blender 5.0.1
# www.blender.org
mtllib base_lampara.mtl
g NarukamiShrine_mesh.087_Malla
v -0.506586 0.563840 0.505215
v -0.506586 0.793821 0.505215
v -0.506586 0.793821 -0.541660
v -0.506586 0.563840 -0.541660
v 0.535895 0.793821 -0.541660
v 0.535895 0.793821 0.505215
v -0.383539 0.563840 0.381435
v 0.535895 0.563841 0.505215
v 0.412604 0.563840 0.381435
v 0.412604 0.563840 -0.417881
v 0.535895 0.563840 -0.541660
v -0.383539 0.563840 -0.417881
v 0.412604 0.793821 0.381435
v -0.383539 0.793821 0.381435
v 0.412604 0.793821 -0.417881
v -0.383539 0.793821 -0.417881
v -0.620355 0.194700 -0.655918
v -0.620355 0.014524 -0.655918
v 0.649664 0.194700 -0.655918
v -0.620355 0.014524 0.619473
v 0.649664 0.014524 -0.655918
v 0.649664 0.014524 0.619473
v 0.649664 0.194700 0.619473
v 0.573981 0.194700 0.543301
v -0.620355 0.194700 0.619473
v -0.544672 0.194700 0.543301
v 0.573981 0.194700 -0.579746
v -0.544672 0.194700 -0.579746
v 0.444342 0.786497 0.413418
v -0.415277 0.786497 0.413418
v 0.444342 0.786497 -0.449863
v -0.388422 0.846555 0.386318
v -0.415277 0.786497 -0.449863
v 0.417242 0.846555 -0.422764
v 0.417242 0.846555 0.386318
v -0.263910 0.851438 -0.297764
v -0.388422 0.846555 -0.422764
v 0.292731 0.851438 -0.297764
v -0.263910 0.851438 0.261318
v 0.292731 0.851438 0.261318
v -0.224725 0.965696 0.222012
v 0.186407 1.058469 0.154507
v -0.157465 1.058469 0.154507
v 0.180182 1.236204 0.148159
v -0.151239 1.236204 0.148159
v -0.157465 1.058469 -0.190952
v 0.163336 1.165891 -0.167637
v -0.151239 1.236204 -0.184605
v 0.180182 1.236204 -0.184605
v 0.211310 1.287961 -0.215977
v 0.211310 1.363157 -0.215977
v -0.224725 0.965696 -0.258457
v -0.134271 1.165891 0.131191
v -0.134271 1.165891 -0.167637
v -0.182367 1.287961 0.179531
v -0.182367 1.287961 -0.215977
v -0.182367 1.363157 0.179531
v 0.253668 0.965696 -0.258457
v 0.253668 0.965696 0.222012
v 0.186407 1.058469 -0.190952
v 0.163336 1.165891 0.131191
v 0.211310 1.287961 0.179531
v 0.211310 1.363157 0.179531
v -0.182367 1.363157 -0.215977
v 0.463141 0.565793 0.450039
v 0.575934 0.191038 0.563320
v -0.542230 0.191038 0.563320
v -0.429681 0.565793 0.450039
v -0.564691 0.191038 0.539394
v -0.451654 0.565793 0.426113
v -0.564691 0.191038 -0.579258
v -0.451654 0.565793 -0.466221
v -0.547601 0.191038 -0.599766
v -0.435053 0.565793 -0.486484
v 0.575934 0.191038 -0.599766
v 0.463141 0.565793 -0.486484
v 0.593512 0.191038 -0.573399
v 0.480719 0.565793 -0.460361
v 0.593512 0.191038 0.537930
v 0.480719 0.565793 0.424648
v 0.575934 0.191038 0.563320
v 0.463141 0.565793 0.450039
vn -0.0000 -0.0000 1.0000
vn -0.0000 -0.0000 -1.0000
vn -1.0000 -0.0000 -0.0000
vn 1.0000 -0.0000 -0.0000
vn -0.0000 -1.0000 -0.0000
vn -0.0000 1.0000 -0.0000
vn -0.5964 0.5362 0.5973
vn 0.5961 0.5379 0.5961
vn 0.4443 0.7779 0.4443
vn -0.4457 0.7772 0.4442
vn 0.5961 0.5379 -0.5961
vn -0.5964 0.5362 -0.5973
vn -0.4457 0.7772 -0.4442
vn 0.4443 0.7779 -0.4443
vn 0.2203 0.9502 0.2205
vn -0.2203 0.9502 0.2203
vn 0.2203 0.9502 -0.2205
vn -0.2203 0.9502 -0.2203
vn 0.5908 0.5501 0.5902
vn -0.5904 0.5504 0.5903
vn 0.5767 0.5790 0.5763
vn -0.5767 0.5792 0.5761
vn 0.7075 -0.0184 0.7065
vn -0.7071 -0.0187 0.7068
vn 0.5976 -0.5359 0.5964
vn -0.5975 -0.5363 0.5961
vn 0.6735 -0.3038 0.6739
vn -0.6735 -0.3038 0.6739
vn -0.5905 0.5504 -0.5902
vn 0.5907 0.5501 -0.5902
vn -0.5767 0.5792 -0.5761
vn 0.5767 0.5790 -0.5763
vn -0.7071 -0.0187 -0.7068
vn 0.7075 -0.0184 -0.7064
vn -0.5975 -0.5363 -0.5961
vn 0.5976 -0.5359 -0.5964
vn -0.6735 -0.3038 -0.6739
vn 0.6735 -0.3038 -0.6739
vn -0.3956 0.3726 0.8394
vn -0.0001 0.7067 0.7075
vn -0.0000 -0.1313 0.9913
vn -0.3381 0.3643 0.8677
vn -0.8528 0.3686 0.3700
vn -0.8835 0.3578 0.3022
vn -0.8647 0.3649 -0.3452
vn -0.8930 0.3532 -0.2789
vn -0.4192 0.3760 -0.8264
vn -0.3624 0.3677 -0.8564
vn 0.4599 0.3809 -0.8022
vn 0.4022 0.3736 -0.8359
vn 0.8852 0.3567 -0.2987
vn 0.9074 0.3453 -0.2395
vn 0.8819 0.3581 0.3066
vn 0.9055 0.3466 0.2449
vn 0.5639 0.7278 0.3903
vn 0.8191 -0.0866 0.5670
vt 0.997070 -0.647949
vt 0.762695 -0.647949
vt 0.762695 -0.699707
vt 0.997070 -0.699707
vt 0.762695 -0.705566
vt 0.996094 -0.705566
vt 0.996094 -0.756836
vt 0.762695 -0.756836
vt 0.738281 -0.996582
vt 0.738281 -0.764648
vt 0.766113 -0.791992
vt 0.766113 -0.969238
vt 0.970703 -0.996582
vt 0.943359 -0.969238
vt 0.755371 -0.979980
vt 0.953613 -0.979980
vt 0.755371 -0.781250
vt 0.804199 -0.764648
vt 0.995117 -0.764648
vt 0.989258 -0.779297
vt 0.810547 -0.779297
vt 0.799805 -0.786621
vt 0.991211 -0.786621
vt 0.985352 -0.801270
vt 0.805664 -0.801270
vt 0.816895 -0.809082
vt 0.996094 -0.809082
vt 0.968262 -0.836914
vt 0.844727 -0.836914
vt 0.968262 -0.961426
vt 0.996094 -0.989258
vt 0.505371 -0.376221
vt 0.381592 -0.376221
vt 0.390137 -0.403076
vt 0.496582 -0.403076
vt 0.405273 -0.428467
vt 0.481689 -0.428467
vt 0.410400 -0.453125
vt 0.476318 -0.453125
vt 0.406494 -0.468994
vt 0.480225 -0.468994
vt 0.399658 -0.482422
vt 0.487061 -0.482422
vt 0.399658 -0.499268
vt 0.487061 -0.499268
vt 0.835938 -0.841797
vt 0.959961 -0.841797
vt 0.951172 -0.868652
vt 0.844727 -0.868652
vt 0.936035 -0.894043
vt 0.859375 -0.894043
vt 0.931152 -0.918457
vt 0.864746 -0.918457
vt 0.935059 -0.934570
vt 0.860840 -0.934570
vt 0.941895 -0.947754
vt 0.854004 -0.947754
vt 0.941895 -0.964355
vt 0.854004 -0.964355
vt 0.483643 -0.504395
vt 0.483643 -0.568359
vt 0.420166 -0.504395
vt 0.524902 -0.502441
vt 0.278320 -0.502441
vt 0.278320 -0.367676
vt 0.524902 -0.367676
vt 0.527832 -0.502441
vt 0.527832 -0.367676
vt 0.775879 -0.502441
vt 0.775879 -0.367676
vt 0.778320 -0.502441
vt 0.778320 -0.367676
vt 1.025391 -0.502441
vt 1.025391 -0.367676
vt 1.027344 -0.502441
vt 1.027344 -0.367676
vt 1.275391 -0.502441
vt 1.275391 -0.367676
vt 1.278320 -0.502441
vt 1.278320 -0.367676
s 1
g センター
g NarukamiShrine_mesh.087_Lamps_A
usemtl Lamps_A
f 1/1/1 8/2/1 6/3/1
f 6/3/1 2/4/1 1/1/1
s 2
f 11/1/2 4/2/2 3/3/2
f 3/3/2 5/4/2 11/1/2
s 3
f 4/5/3 1/6/3 2/7/3
f 2/7/3 3/8/3 4/5/3
s 4
f 8/5/4 11/6/4 5/7/4
f 5/7/4 6/8/4 8/5/4
s 5
f 8/9/5 1/10/5 7/11/5
f 7/11/5 9/12/5 8/9/5
f 11/13/5 8/9/5 9/12/5
f 9/12/5 10/14/5 11/13/5
f 4/9/5 11/10/5 10/11/5
f 10/11/5 12/12/5 4/9/5
f 1/13/5 4/9/5 12/12/5
f 12/12/5 7/14/5 1/13/5
s 6
f 2/13/6 6/9/6 13/12/6
f 13/12/6 14/14/6 2/13/6
f 15/11/6 13/12/6 6/9/6
f 6/9/6 5/10/6 15/11/6
f 5/13/6 3/9/6 16/12/6
f 16/12/6 15/14/6 5/13/6
f 14/11/6 16/12/6 3/9/6
f 3/9/6 2/10/6 14/11/6
s 7
f 22/5/1 23/8/1 25/7/1
f 25/7/1 20/6/1 22/5/1
s 8
f 21/6/2 18/5/2 17/8/2
f 17/8/2 19/7/2 21/6/2
s 9
f 20/1/3 25/4/3 17/3/3
f 17/3/3 18/2/3 20/1/3
s 10
f 23/3/4 22/2/4 21/1/4
f 21/1/4 19/4/4 23/3/4
s 11
f 25/13/6 23/9/6 24/15/6
f 24/15/6 26/16/6 25/13/6
f 27/17/6 24/15/6 23/9/6
f 23/9/6 19/10/6 27/17/6
f 19/13/6 17/9/6 28/15/6
f 28/15/6 27/16/6 19/13/6
f 26/17/6 28/15/6 17/9/6
f 17/9/6 25/10/6 26/17/6
s 12
f 30/18/7 29/19/8 35/20/9
f 35/20/9 32/21/10 30/18/7
f 31/18/11 33/19/12 37/20/13
f 37/20/13 34/21/14 31/18/11
f 33/22/12 30/23/7 32/24/10
f 32/24/10 37/25/13 33/22/12
f 29/22/8 31/23/11 34/24/14
f 34/24/14 35/25/9 29/22/8
f 32/26/10 35/27/9 40/28/15
f 40/28/15 39/29/16 32/26/10
f 38/30/17 40/28/15 35/27/9
f 35/27/9 34/31/14 38/30/17
f 34/26/14 37/27/13 36/28/18
f 36/28/18 38/29/17 34/26/14
f 39/30/16 36/28/18 37/27/13
f 37/27/13 32/31/10 39/30/16
f 39/32/16 40/33/15 59/34/19
f 59/34/19 41/35/20 39/32/16
f 41/35/20 59/34/19 42/36/21
f 42/36/21 43/37/22 41/35/20
f 43/37/22 42/36/21 61/38/23
f 61/38/23 53/39/24 43/37/22
f 53/39/24 61/38/23 44/40/25
f 44/40/25 45/41/26 53/39/24
f 45/41/26 44/40/25 62/42/27
f 62/42/27 55/43/28 45/41/26
f 55/43/28 62/42/27 63/44/1
f 63/44/1 57/45/1 55/43/28
f 38/32/17 36/33/18 52/34/29
f 52/34/29 58/35/30 38/32/17
f 58/35/30 52/34/29 46/36/31
f 46/36/31 60/37/32 58/35/30
f 60/37/32 46/36/31 54/38/33
f 54/38/33 47/39/34 60/37/32
f 47/39/34 54/38/33 48/40/35
f 48/40/35 49/41/36 47/39/34
f 49/41/36 48/40/35 56/42/37
f 56/42/37 50/43/38 49/41/36
f 50/43/38 56/42/37 64/44/2
f 64/44/2 51/45/2 50/43/38
f 36/46/18 39/47/16 41/48/20
f 41/48/20 52/49/29 36/46/18
f 52/49/29 41/48/20 43/50/22
f 43/50/22 46/51/31 52/49/29
f 46/51/31 43/50/22 53/52/24
f 53/52/24 54/53/33 46/51/31
f 54/53/33 53/52/24 45/54/26
f 45/54/26 48/55/35 54/53/33
f 48/55/35 45/54/26 55/56/28
f 55/56/28 56/57/37 48/55/35
f 56/57/37 55/56/28 57/58/3
f 57/58/3 64/59/3 56/57/37
f 40/46/15 38/47/17 58/48/30
f 58/48/30 59/49/19 40/46/15
f 59/49/19 58/48/30 60/50/32
f 60/50/32 42/51/21 59/49/19
f 42/51/21 60/50/32 47/52/34
f 47/52/34 61/53/23 42/51/21
f 61/53/23 47/52/34 49/54/36
f 49/54/36 44/55/25 61/53/23
f 44/55/25 49/54/36 50/56/38
f 50/56/38 62/57/27 44/55/25
f 62/57/27 50/56/38 51/58/4
f 51/58/4 63/59/4 62/57/27
s 13
f 63/60/6 51/61/6 57/62/6
f 51/62/6 64/60/6 57/61/6
s 14
g NarukamiShrine_mesh.087_Concrete_Floor
usemtl Concrete_Floor
f 67/63/39 66/64/40 65/65/41
f 65/65/41 68/66/42 67/63/39
f 69/67/43 67/63/39 68/66/42
f 68/66/42 70/68/44 69/67/43
f 71/69/45 69/67/43 70/68/44
f 70/68/44 72/70/46 71/69/45
f 73/71/47 71/69/45 72/70/46
f 72/70/46 74/72/48 73/71/47
f 75/73/49 73/71/47 74/72/48
f 74/72/48 76/74/50 75/73/49
f 77/75/51 75/73/49 76/74/50
f 76/74/50 78/76/52 77/75/51
f 79/77/53 77/75/51 78/76/52
f 78/76/52 80/78/54 79/77/53
f 81/79/55 79/77/53 80/78/54
f 80/78/54 82/80/56 81/79/55
