# Blender 5.0.1
# www.blender.org
mtllib lampara_supp.mtl
g NarukamiShrine_mesh.088_Malla
v -0.299185 0.094299 0.189982
v -0.299185 0.138245 0.048808
v 0.309214 0.094299 0.048808
v -0.299185 0.094299 0.048808
v 0.309214 0.094299 0.189982
v 0.309214 0.138245 0.048808
v 0.309214 0.138245 0.189982
v -0.299185 0.138245 0.189982
v 0.242319 0.027893 0.062814
v 0.290415 0.096252 0.176066
v -0.232046 0.027893 0.062814
v -0.280142 0.096252 0.062785
v -0.280142 0.096252 0.176066
v -0.232046 0.027893 0.176066
v 0.242319 0.027893 0.176066
v 0.290415 0.096252 0.062785
v 0.309214 0.094299 -0.036275
v -0.299185 0.094299 -0.036275
v -0.299185 0.094299 -0.177449
v 0.309214 0.094299 -0.177449
v 0.309214 0.138245 -0.036275
v 0.309214 0.138245 -0.177449
v -0.299185 0.138245 -0.036275
v -0.299185 0.138245 -0.177449
v 0.242319 0.027893 -0.163411
v 0.290415 0.096252 -0.163533
v -0.280142 0.096252 -0.163533
v 0.242319 0.027893 -0.050252
v -0.232046 0.027893 -0.050252
v -0.280142 0.096252 -0.050252
v 0.290415 0.096252 -0.050252
v -0.232046 0.027893 -0.163411
v -0.178579 0.144104 -0.297933
v -0.178579 0.144104 0.310466
v -0.178579 0.094300 0.310466
v -0.178579 0.094299 -0.297933
v -0.037436 0.094300 0.310466
v -0.037436 0.094299 -0.297933
v -0.037436 0.144104 0.310466
v -0.037436 0.144104 -0.297933
v -0.051443 0.027893 -0.230916
v -0.051443 0.027893 0.243449
v -0.051382 0.096252 -0.278890
v -0.164663 0.027893 -0.230916
v -0.164663 0.096252 -0.278890
v -0.164663 0.027893 0.243449
v -0.164663 0.096252 0.291423
v -0.051382 0.096252 0.291423
v 0.188853 0.144104 0.310466
v 0.188853 0.094299 -0.297933
v 0.188853 0.094300 0.310466
v 0.047678 0.144104 0.310466
v 0.047678 0.144104 -0.297933
v 0.188853 0.144104 -0.297933
v 0.174814 0.027893 -0.230916
v 0.174814 0.027893 0.243449
v 0.174936 0.096252 0.291423
v 0.061655 0.027893 0.243449
v 0.061655 0.027893 -0.230916
v 0.061625 0.096252 0.291423
v 0.174936 0.096252 -0.278890
v 0.061625 0.096252 -0.278890
v 0.047678 0.094300 0.310466
v 0.047678 0.094299 -0.297933
v 0.185190 0.521057 0.195842
v 0.125314 0.204651 0.133464
v 0.206308 0.315979 0.153117
v 0.252695 0.521057 0.195842
v 0.206308 0.315979 0.213176
v 0.252695 0.521057 0.259196
v 0.141489 0.315979 0.213176
v 0.141489 0.315979 0.153117
v 0.185190 0.521057 0.259196
v -0.195303 0.315979 0.153117
v -0.241689 0.521057 0.195842
v -0.195303 0.315979 0.213176
v -0.241689 0.521057 0.259196
v -0.174185 0.521057 0.259196
v -0.130484 0.315979 0.213176
v -0.174185 0.521057 0.195842
v -0.130484 0.315979 0.153117
v -0.114370 0.204651 0.133464
v -0.195303 0.315979 -0.140828
v -0.241689 0.521057 -0.246907
v -0.241689 0.521057 -0.183553
v -0.178091 0.204651 -0.180257
v -0.195303 0.315979 -0.200887
v -0.130484 0.315979 -0.200887
v -0.174185 0.521057 -0.246907
v -0.130484 0.315979 -0.140828
v -0.174185 0.521057 -0.183553
v -0.114370 0.204651 -0.180257
v 0.206308 0.315979 -0.140828
v 0.141489 0.315979 -0.140828
v 0.185190 0.521057 -0.183553
v 0.252695 0.521057 -0.183553
v 0.189096 0.204651 -0.121175
v 0.206308 0.315979 -0.200887
v 0.252695 0.521057 -0.246907
v 0.185190 0.521057 -0.246907
v 0.141489 0.315979 -0.200887
v -0.128653 0.135315 -0.152425
v 0.138071 0.135315 -0.152303
v 0.138071 0.168518 -0.159993
v -0.128653 0.168518 -0.160115
v 0.138071 0.175354 -0.128377
v -0.128653 0.175354 -0.128377
v -0.186758 0.493713 -0.176595
v 0.196176 0.493713 -0.176595
v -0.186758 0.482971 -0.222127
v 0.196176 0.482971 -0.222005
v 0.196176 0.530823 -0.233113
v -0.186758 0.530823 -0.233113
v 0.163218 0.135315 -0.127034
v 0.163218 0.135315 0.139812
v 0.170907 0.168518 0.139812
v 0.170907 0.168518 -0.127034
v 0.139170 0.175354 0.139812
v 0.139292 0.175354 -0.127034
v 0.187510 0.493713 -0.185140
v 0.187387 0.493713 0.197917
v 0.232920 0.482971 0.197917
v 0.233041 0.482971 -0.185140
v 0.243906 0.530823 0.197917
v 0.244028 0.530823 -0.185140
v -0.154043 0.135315 0.139567
v -0.154043 0.135315 -0.127278
v -0.161734 0.168518 -0.127278
v -0.161734 0.168518 0.139567
v -0.129995 0.175354 -0.127278
v -0.129995 0.175354 0.139567
v -0.178335 0.493713 0.197673
v -0.178213 0.493713 -0.185384
v -0.223745 0.482971 0.197673
v -0.223745 0.482971 -0.185384
v -0.234732 0.530823 -0.185384
v -0.234854 0.530823 0.197673
v 0.137949 0.135315 0.164958
v -0.128897 0.135315 0.164836
v -0.128897 0.168518 0.172526
v 0.137949 0.168518 0.172648
v -0.128897 0.175354 0.140910
v 0.137949 0.175354 0.140910
v 0.195932 0.493713 0.189128
v -0.187002 0.493713 0.189128
v 0.195932 0.482971 0.234660
v -0.187002 0.482971 0.234538
v -0.187002 0.530823 0.245646
v 0.195932 0.530823 0.245646
v 0.115610 0.137268 0.121623
v 0.178720 0.137268 0.121623
v 0.189096 0.204651 0.133464
v 0.178720 0.137268 0.180217
v 0.115610 0.137268 0.180217
v 0.189096 0.204651 0.192546
v 0.125314 0.204651 0.192546
v -0.167837 0.137268 0.121623
v -0.178091 0.204651 0.133464
v -0.114370 0.204651 0.192546
v -0.104666 0.137268 0.180217
v -0.167837 0.137268 0.180217
v -0.178091 0.204651 0.192546
v -0.104666 0.137268 0.121623
v -0.167837 0.137268 -0.109334
v -0.178091 0.204651 -0.121175
v -0.167837 0.137268 -0.167806
v -0.104666 0.137268 -0.167806
v -0.104666 0.137268 -0.109334
v -0.114370 0.204651 -0.121175
v 0.178720 0.137268 -0.109334
v 0.189096 0.204651 -0.180257
v 0.178720 0.137268 -0.167806
v 0.125314 0.204651 -0.121175
v 0.115610 0.137268 -0.109334
v 0.115610 0.137268 -0.167806
v 0.125314 0.204651 -0.180257
v -0.051107 0.754456 -0.334554
v -0.288931 0.629456 -0.334554
v 0.299448 0.629456 -0.334554
v 0.061716 0.754456 -0.334554
v 0.245981 0.545471 -0.334554
v -0.235342 0.545471 -0.334554
v 0.072886 0.807190 -0.312825
v 0.573862 0.544495 -0.312825
v 0.061533 0.746643 -0.312825
v -0.063711 0.807190 -0.312825
v 0.544565 0.488831 -0.369222
v 0.573862 0.544495 -0.369222
v 0.072886 0.807190 -0.369222
v -0.063711 0.807190 -0.369222
v -0.535025 0.488831 -0.369222
v 0.544565 0.488831 -0.312825
v 0.061533 0.746643 -0.369222
v -0.052328 0.746643 -0.369222
v -0.052328 0.746643 -0.312825
v -0.535025 0.488831 -0.312825
v -0.565298 0.544495 -0.369222
v -0.565298 0.544495 -0.312825
v 0.095224 0.857971 0.421062
v 0.640268 0.536682 0.501384
v 0.660288 0.565002 0.421062
v 0.660288 0.565002 0.213664
v 0.668100 0.574768 0.511149
v 0.138803 0.920471 0.421062
v 0.691050 0.607971 0.421062
v 0.132090 0.877503 0.511149
v -0.125967 0.877503 0.511149
v -0.654165 0.565002 0.421062
v -0.634146 0.536682 0.501384
v -0.095694 0.828674 0.501384
v -0.684927 0.607971 0.421062
v -0.684927 0.607971 0.213664
v -0.132681 0.920471 0.421062
v -0.661978 0.574768 0.511149
v 0.660288 0.565002 -0.408528
v 0.691050 0.607971 -0.408528
v 0.691050 0.607971 -0.201131
v 0.640268 0.536682 -0.488851
v 0.095224 0.857971 -0.201131
v 0.132090 0.877503 -0.498616
v 0.668100 0.574768 -0.498616
v -0.634146 0.536682 -0.488851
v -0.089102 0.857971 -0.408528
v -0.132681 0.920471 -0.408528
v -0.661978 0.574768 -0.498616
v -0.654165 0.565002 -0.408528
v -0.684927 0.607971 -0.408528
v -0.125967 0.877503 -0.498616
v 0.691050 0.607971 0.213664
v 0.660288 0.565002 -0.201131
v -0.132681 0.920471 -0.201131
v -0.684927 0.607971 -0.201131
v -0.654165 0.565002 0.213664
v -0.089102 0.857971 -0.201131
v -0.654165 0.565002 -0.201131
v 0.095224 0.857971 0.213664
v -0.132681 0.920471 0.213664
v 0.138803 0.920471 -0.201131
v 0.138803 0.920471 0.213664
v 0.101816 0.828674 0.501384
v -0.089102 0.857971 0.213664
v -0.089102 0.857971 0.421062
v 0.095224 0.857971 -0.408528
v 0.138803 0.920471 -0.408528
v 0.101816 0.828674 -0.488851
v -0.095694 0.828674 -0.488851
v 0.121653 1.049378 -0.405110
v 0.124887 1.016174 -0.323812
v 0.102488 1.082581 -0.323812
v 0.068186 1.104065 -0.323812
v 0.034464 1.104065 -0.323812
v 0.034464 1.104065 -0.405110
v 0.004606 1.094299 -0.323812
v 0.004606 1.094299 -0.405110
v 0.153208 1.004456 -0.405110
v 0.174692 0.975159 -0.323812
v 0.175180 0.945862 -0.323812
v 0.167856 0.930237 -0.405110
v 0.167856 0.930237 -0.323812
v -0.112478 1.049378 -0.323812
v -0.093252 1.082581 -0.323812
v -0.058981 1.104065 -0.323812
v -0.058981 1.104065 -0.405110
v -0.143911 1.004456 -0.405110
v -0.165518 0.975159 -0.323812
v -0.166006 0.945862 -0.323812
v -0.158682 0.930237 -0.405110
v -0.158682 0.930237 -0.323812
v -0.165030 0.916565 -0.405110
v -0.172110 0.871643 -0.405110
v 0.181283 0.871643 -0.405110
v 0.174204 0.916565 -0.405110
v 0.175180 0.945862 -0.405110
v -0.166006 0.945862 -0.405110
v 0.174692 0.975159 -0.405110
v -0.165518 0.975159 -0.405110
v -0.112478 1.049378 -0.405110
v -0.093252 1.082581 -0.405110
v -0.025259 1.104065 -0.405110
v 0.102488 1.082581 -0.405110
v 0.068186 1.104065 -0.405110
v -0.025259 1.104065 -0.323812
v 0.121653 1.049378 -0.323812
v -0.115652 1.016174 -0.323812
v 0.153208 1.004456 -0.323812
v -0.143911 1.004456 -0.323812
v -0.165030 0.916565 -0.323812
v 0.174204 0.916565 -0.323812
v 0.181283 0.871643 -0.323812
v -0.172110 0.871643 -0.323812
v 0.237680 1.252503 -0.389241
v 0.072947 1.039612 -0.389241
v 0.324106 1.305237 -0.389241
v 0.299692 1.369690 -0.389241
v 0.119761 0.975159 -0.339681
v 0.299692 1.369690 -0.339681
v 0.294321 1.147034 -0.339681
v 0.294321 1.147034 -0.389241
v 0.119761 0.975159 -0.389241
v 0.331675 1.229065 -0.389241
v 0.331675 1.229065 -0.339681
v 0.324106 1.305237 -0.339681
v 0.237680 1.252503 -0.339681
v 0.072947 1.039612 -0.339681
v -0.110525 0.975159 -0.389241
v -0.063711 1.039612 -0.389241
v -0.290640 1.369690 -0.389241
v -0.063711 1.039612 -0.339681
v -0.285269 1.147034 -0.339681
v -0.322378 1.229065 -0.339681
v -0.110525 0.975159 -0.339681
v -0.285269 1.147034 -0.389241
v -0.322378 1.229065 -0.389241
v -0.314810 1.305237 -0.389241
v -0.314810 1.305237 -0.339681
v -0.290640 1.369690 -0.339681
v -0.228384 1.252503 -0.389241
v -0.228384 1.252503 -0.339681
v 0.120066 1.049378 0.417644
v 0.125132 1.016174 0.417644
v 0.102488 1.082581 0.336345
v 0.102488 1.082581 0.417644
v 0.068186 1.104065 0.336345
v 0.034464 1.106018 0.336345
v 0.004606 1.094299 0.336345
v 0.153208 1.002503 0.417644
v 0.174692 0.975159 0.417644
v 0.175180 0.945862 0.336345
v 0.167856 0.930237 0.417644
v 0.174204 0.916565 0.417644
v 0.174204 0.916565 0.336345
v 0.180551 0.871643 0.336345
v -0.110891 1.049378 0.417644
v -0.115896 1.016174 0.417644
v -0.115896 1.016174 0.336345
v -0.110891 1.049378 0.336345
v -0.093252 1.082581 0.417644
v -0.058981 1.104065 0.336345
v -0.025259 1.106018 0.336345
v -0.165518 0.975159 0.417644
v -0.166006 0.945862 0.417644
v -0.166006 0.945862 0.336345
v -0.158682 0.930237 0.417644
v -0.158682 0.930237 0.336345
v -0.171377 0.871643 0.417644
v -0.165030 0.916565 0.417644
v 0.180551 0.871643 0.417644
v 0.175180 0.945862 0.417644
v -0.143911 1.002503 0.417644
v 0.004606 1.094299 0.417644
v -0.058981 1.104065 0.417644
v -0.025259 1.106018 0.417644
v 0.068186 1.104065 0.417644
v 0.034464 1.106018 0.417644
v -0.093252 1.082581 0.336345
v 0.120066 1.049378 0.336345
v 0.125132 1.016174 0.336345
v 0.153208 1.002503 0.336345
v -0.143911 1.002503 0.336345
v 0.174692 0.975159 0.336345
v -0.165518 0.975159 0.336345
v 0.167856 0.930237 0.336345
v -0.165030 0.916565 0.336345
v -0.171377 0.871643 0.336345
v 0.119761 0.975159 0.401774
v 0.324106 1.305237 0.401774
v 0.299692 1.369690 0.401774
v 0.072947 1.039612 0.352214
v 0.119761 0.975159 0.352214
v 0.237680 1.252503 0.352214
v 0.299692 1.369690 0.352214
v 0.331675 1.229065 0.352214
v 0.294321 1.147034 0.352214
v 0.294321 1.147034 0.401774
v 0.331675 1.229065 0.401774
v 0.324106 1.305237 0.352214
v 0.237680 1.252503 0.401774
v 0.072947 1.039612 0.401774
v -0.063711 1.039612 0.401774
v -0.110525 0.975159 0.401774
v -0.290640 1.369690 0.401774
v -0.063711 1.039612 0.352214
v -0.228384 1.252503 0.352214
v -0.110525 0.975159 0.352214
v -0.285269 1.147034 0.352214
v -0.285269 1.147034 0.401774
v -0.322378 1.229065 0.401774
v -0.322378 1.229065 0.352214
v -0.314810 1.305237 0.401774
v -0.314810 1.305237 0.352214
v -0.290640 1.369690 0.352214
v -0.228384 1.252503 0.401774
v -0.288198 0.553284 0.367351
v -0.288198 0.628479 0.438640
v -0.288198 0.553284 0.438640
v -0.288198 0.628479 0.367351
v -0.227774 0.628479 0.367351
v -0.227774 0.553284 0.438640
v -0.227774 0.628479 0.438640
v 0.238413 0.628479 0.438640
v 0.298959 0.628479 0.438640
v 0.238413 0.553284 0.438640
v 0.298959 0.553284 -0.426351
v 0.298959 0.628479 0.367351
v 0.298959 0.553284 0.438640
v -0.227774 0.553284 -0.351888
v -0.288198 0.553284 -0.351888
v -0.288198 0.553284 -0.426351
v -0.288198 0.628479 -0.426351
v -0.227774 0.628479 -0.426351
v -0.227774 0.553284 -0.426351
v 0.238413 0.553284 -0.426351
v 0.238413 0.628479 -0.426351
v 0.298959 0.628479 -0.426351
v -0.288198 0.628479 -0.351888
v -0.227774 0.628479 -0.351888
v -0.227774 0.553284 0.367351
v 0.298959 0.553284 -0.351888
v 0.238413 0.553284 -0.351888
v 0.238413 0.553284 0.367351
v 0.238413 0.628479 -0.351888
v 0.238413 0.628479 0.367351
v 0.298959 0.628479 -0.351888
v 0.298959 0.553284 0.367351
v -0.267691 0.554260 0.376872
v 0.278208 0.518127 0.376628
v -0.267691 0.554260 -0.364339
v -0.267202 0.518127 -0.364339
v -0.267202 0.518127 0.376628
v 0.278208 0.518127 -0.364339
v 0.278696 0.554260 0.376872
v 0.278696 0.554260 -0.364339
v -0.280874 0.736878 -0.320882
v -0.280874 0.736878 0.333659
v -0.275991 0.618713 0.333659
v -0.275991 0.618713 -0.320882
v 0.291391 0.740784 0.337321
v 0.291391 0.740784 0.007275
v 0.287729 0.614807 0.007275
v 0.287729 0.614807 0.337321
v 0.287729 0.614807 -0.322835
v 0.291391 0.740784 -0.322835
v 0.061716 0.754456 0.353679
v 0.299448 0.629456 0.353679
v -0.288931 0.629456 0.353679
v -0.051107 0.754456 0.353679
v -0.235342 0.547424 0.353679
v 0.245981 0.547424 0.353679
v 0.072886 0.807190 0.385173
v 0.529917 0.499573 0.385173
v -0.063711 0.807190 0.385173
v 0.061533 0.750549 0.328776
v 0.072886 0.807190 0.328776
v -0.063711 0.807190 0.328776
v -0.052328 0.750549 0.328776
v 0.061533 0.750549 0.385173
v 0.529917 0.499573 0.328776
v 0.572397 0.544495 0.385173
v 0.572397 0.544495 0.328776
v -0.052328 0.750549 0.385173
v -0.518423 0.500549 0.328776
v -0.518423 0.500549 0.385173
v -0.560903 0.545471 0.328776
v -0.560903 0.545471 0.385173
v 0.601694 0.520081 0.417888
v 0.601694 0.520081 0.006269
v 0.085397 0.797424 0.006267
v 0.085397 0.797424 0.417888
v -0.076162 0.797424 0.006267
v -0.593618 0.521057 0.417888
v -0.076162 0.797424 0.417888
v 0.638315 0.581604 0.006269
v -0.593618 0.521057 0.006269
v -0.629751 0.582581 0.006269
v 0.106637 0.869690 0.417888
v 0.638315 0.581604 0.417888
v -0.097403 0.869690 0.417888
v -0.629751 0.582581 0.417888
v 0.106637 0.869690 -0.405355
v 0.085397 0.797424 -0.405355
v -0.097403 0.869690 -0.405355
v -0.629751 0.582581 -0.405355
v -0.593618 0.521057 -0.405355
v 0.601694 0.520081 -0.405355
v -0.076162 0.797424 -0.405355
v 0.638315 0.581604 -0.405355
v 0.090585 0.912659 -0.344075
v 0.090585 0.912659 0.355388
v 0.090585 0.996643 -0.344075
v 0.090585 0.996643 0.355388
v -0.078176 0.912659 0.355388
v -0.078176 0.912659 -0.344075
v -0.078176 0.996643 -0.344075
v -0.078176 0.996643 0.355388
v 0.185434 0.028870 0.187785
v -0.176138 -0.016052 0.187785
v -0.176138 0.028870 0.187785
v -0.176138 0.028870 -0.175252
v -0.176138 -0.016052 -0.175252
v 0.185312 -0.016052 -0.175252
v 0.185312 -0.016052 0.187785
v 0.185434 0.028870 -0.175252
v 0.124887 1.016174 -0.405110
v -0.115652 1.016174 -0.405110
v 0.158823 0.315979 -0.171224
v 0.196176 0.493713 -0.209188
v -0.186880 0.493713 -0.209188
v -0.149527 0.315979 -0.171224
v -0.123770 0.160706 -0.141072
v 0.133066 0.161682 -0.141072
v 0.177622 0.315979 0.160808
v 0.215464 0.493713 0.198039
v 0.215464 0.493713 -0.184896
v 0.177622 0.315979 -0.147664
v 0.147348 0.160706 -0.121785
v 0.147348 0.161682 0.134929
v -0.150991 0.315979 0.183513
v -0.188345 0.493713 0.221477
v 0.194712 0.493713 0.221477
v 0.157358 0.315979 0.183513
v 0.131601 0.160706 0.153361
v -0.125235 0.161682 0.153361
v -0.169791 0.315979 -0.148396
v -0.207632 0.493713 -0.185750
v -0.207632 0.493713 0.197185
v -0.169791 0.315979 0.159953
v -0.139517 0.160706 0.134196
v -0.139517 0.161682 -0.122640
v -16.245388 0.233093 -9.074054
v -16.519924 0.233093 -8.803424
v -16.519924 0.233093 -9.074054
vn -0.0000 -0.0000 1.0000
vn -0.0000 -0.0000 -1.0000
vn -1.0000 -0.0000 -0.0000
vn 1.0000 -0.0000 -0.0000
vn -0.0000 1.0000 -0.0000
vn -0.0000 -0.0004 -1.0000
vn -0.8179 -0.5754 -0.0000
vn -0.4608 -0.8875 -0.0000
vn -0.4607 -0.8875 -0.0000
vn 0.8179 -0.5754 -0.0000
vn 0.4608 -0.8875 -0.0000
vn -0.0000 -1.0000 -0.0000
vn -0.0000 -0.0018 -1.0000
vn 0.3627 -0.6993 -0.6160
vn -0.3627 -0.6993 -0.6160
vn 1.0000 -0.0009 -0.0000
vn -0.0000 -0.5744 -0.8185
vn -0.0000 -0.8872 -0.4614
vn -0.0000 -0.8873 -0.4613
vn -0.0000 -0.5744 0.8185
vn -0.0000 -0.8873 0.4613
vn -0.0000 -0.8872 0.4614
vn 1.0000 -0.0018 -0.0000
vn 0.6159 -0.6992 0.3631
vn 0.6159 -0.6992 -0.3631
vn -1.0000 -0.0004 -0.0000
vn -0.0000 -0.8872 -0.4613
vn -0.0000 -0.8872 0.4613
vn -0.6764 0.2856 -0.6789
vn -0.0000 0.2040 -0.9790
vn -0.0000 0.1907 -0.9817
vn -0.6893 0.2502 -0.6799
vn -0.0000 0.1735 -0.9848
vn -0.6914 0.2211 -0.6879
vn 0.6740 -0.3036 0.6734
vn 0.6775 -0.2732 0.6829
vn 0.9832 -0.1827 -0.0000
vn 0.9754 -0.2206 -0.0000
vn 0.6896 -0.2328 0.6858
vn 0.9883 -0.1525 -0.0000
vn -0.0000 -0.2190 0.9757
vn -0.0000 -0.1985 0.9801
vn -0.0000 -0.1810 0.9835
vn -0.9836 0.1802 -0.0000
vn -0.9780 0.2084 -0.0000
vn -0.9897 0.1432 -0.0000
vn 0.6764 0.2856 -0.6789
vn 0.6895 0.2500 -0.6798
vn 0.6913 0.2209 -0.6879
vn -0.6740 -0.3036 0.6735
vn -0.9754 -0.2206 -0.0000
vn -0.9832 -0.1827 -0.0000
vn -0.6775 -0.2732 0.6829
vn -0.6895 -0.2323 0.6860
vn -0.9885 -0.1515 -0.0000
vn 0.9780 0.2084 -0.0000
vn 0.9837 0.1800 -0.0000
vn 0.9897 0.1429 -0.0000
vn 0.6764 0.2856 0.6789
vn -0.0000 0.2040 0.9790
vn -0.0000 0.1907 0.9817
vn 0.6895 0.2500 0.6798
vn -0.0000 0.1735 0.9848
vn 0.6913 0.2209 0.6879
vn -0.6740 -0.3036 -0.6735
vn -0.6775 -0.2732 -0.6829
vn -0.6893 -0.2328 -0.6861
vn -0.0000 -0.2190 -0.9757
vn -0.0000 -0.1985 -0.9801
vn -0.0000 -0.1819 -0.9833
vn -0.6764 0.2856 0.6789
vn -0.6893 0.2502 0.6799
vn -0.6914 0.2211 0.6879
vn 0.6740 -0.3036 -0.6734
vn 0.6775 -0.2732 -0.6829
vn 0.6893 -0.2333 -0.6859
vn 0.0004 -0.2256 -0.9742
vn 0.0001 0.9774 -0.2113
vn -0.0000 0.9776 -0.2106
vn -0.0000 -0.9732 0.2302
vn -0.0000 -0.9731 0.2302
vn -0.0001 -0.9733 0.2297
vn -0.0001 -0.9733 0.2296
vn 0.0003 -0.2259 -0.9741
vn 0.0003 -0.2261 -0.9741
vn -0.0000 -0.2240 -0.9746
vn -0.0000 -0.2238 -0.9746
vn 0.9742 -0.2256 -0.0000
vn 0.2106 0.9776 -0.0000
vn 0.2113 0.9774 0.0001
vn -0.2296 -0.9733 -0.0001
vn 0.9746 -0.2238 0.0003
vn -0.9742 -0.2256 -0.0000
vn -0.2106 0.9776 -0.0000
vn 0.2297 -0.9733 0.0001
vn 0.2296 -0.9733 0.0001
vn 0.2302 -0.9732 -0.0000
vn 0.2302 -0.9731 -0.0000
vn -0.9746 -0.2240 -0.0000
vn -0.9746 -0.2238 -0.0000
vn -0.9741 -0.2259 -0.0003
vn -0.9741 -0.2261 -0.0003
vn -0.0004 -0.2256 0.9742
vn -0.0001 0.9774 0.2113
vn -0.0000 0.9776 0.2106
vn -0.0000 -0.9732 -0.2302
vn -0.0000 -0.9731 -0.2302
vn 0.0001 -0.9733 -0.2297
vn 0.0001 -0.9733 -0.2296
vn -0.0003 -0.2259 0.9741
vn -0.0003 -0.2261 0.9741
vn -0.0000 -0.2240 0.9746
vn -0.0000 -0.2238 0.9746
vn -0.0000 0.1731 -0.9849
vn -0.6837 0.2207 -0.6956
vn 0.6951 -0.2316 0.6806
vn 0.9884 -0.1522 -0.0000
vn -0.0000 -0.1800 0.9837
vn -0.9898 0.1426 -0.0000
vn 0.6837 0.2207 -0.6956
vn -0.9886 -0.1504 -0.0000
vn -0.6958 -0.2304 0.6803
vn 0.9898 0.1425 -0.0000
vn -0.0000 0.1731 0.9849
vn 0.6837 0.2207 0.6956
vn -0.6961 -0.2315 -0.6796
vn -0.0000 -0.1817 -0.9834
vn -0.6837 0.2207 0.6956
vn 0.6954 -0.2327 -0.6799
vn -0.4709 -0.8822 -0.0000
vn -0.2427 -0.9701 -0.0000
vn 0.8849 -0.4657 -0.0000
vn 0.2428 -0.9701 -0.0000
vn -0.2870 -0.9579 -0.0000
vn -0.8785 -0.4778 -0.0000
vn 0.1361 0.5098 0.8494
vn -0.0334 -0.1761 0.9838
vn 0.0940 -0.9157 0.3906
vn 0.7001 -0.0113 0.7139
vn -0.2583 -0.9142 -0.3123
vn -0.2271 -0.9605 -0.1609
vn 0.3057 -0.9444 -0.1209
vn 0.4925 0.8703 -0.0000
vn 0.2546 0.9670 -0.0000
vn 0.2457 0.9453 0.2146
vn 0.4819 0.8517 0.2059
vn 0.2334 -0.9724 -0.0000
vn 0.8131 -0.5821 -0.0000
vn 0.8125 -0.5830 -0.0023
vn -0.2369 -0.9715 -0.0000
vn -0.1361 0.5098 0.8494
vn -0.7001 -0.0113 0.7139
vn -0.0940 -0.9157 0.3906
vn 0.0334 -0.1761 0.9838
vn -0.3057 -0.9444 -0.1209
vn 0.2271 -0.9605 -0.1609
vn 0.2582 -0.9142 -0.3123
vn -0.4925 0.8703 -0.0000
vn -0.4819 0.8517 0.2059
vn -0.2457 0.9453 0.2146
vn -0.2546 0.9670 -0.0000
vn -0.2334 -0.9724 -0.0000
vn -0.8125 -0.5830 -0.0023
vn -0.8131 -0.5821 -0.0000
vn 0.2369 -0.9715 -0.0000
vn 0.1361 0.5098 -0.8494
vn 0.7001 -0.0113 -0.7139
vn 0.0940 -0.9157 -0.3906
vn -0.0334 -0.1761 -0.9838
vn 0.3057 -0.9444 0.1209
vn -0.2271 -0.9605 0.1609
vn -0.2583 -0.9142 0.3123
vn 0.4819 0.8517 -0.2059
vn 0.2457 0.9453 -0.2146
vn 0.8125 -0.5830 0.0023
vn -0.1361 0.5098 -0.8494
vn 0.0334 -0.1761 -0.9838
vn -0.0940 -0.9157 -0.3906
vn -0.7001 -0.0113 -0.7139
vn 0.2582 -0.9142 0.3123
vn 0.2271 -0.9605 0.1609
vn -0.3057 -0.9444 0.1209
vn -0.2457 0.9453 -0.2146
vn -0.4819 0.8517 -0.2059
vn -0.8125 -0.5830 0.0023
vn 0.8034 0.5954 -0.0000
vn 0.9522 0.3053 -0.0000
vn 0.7197 0.6942 -0.0000
vn 0.2761 0.9611 -0.0000
vn -0.1574 0.9875 -0.0000
vn 0.6172 0.7868 -0.0000
vn 0.9477 0.3190 -0.0000
vn 0.9779 -0.2093 -0.0000
vn 0.9567 0.2912 -0.0000
vn 0.9878 0.1557 -0.0000
vn -0.8042 0.5944 -0.0000
vn -0.9523 0.3051 -0.0000
vn -0.7194 0.6946 -0.0000
vn -0.2763 0.9611 -0.0000
vn 0.1574 0.9875 -0.0000
vn -0.6164 0.7874 -0.0000
vn -0.9473 0.3203 -0.0000
vn -0.9779 -0.2093 -0.0000
vn -1.0000 -0.0018 -0.0000
vn -0.9567 0.2912 -0.0000
vn -0.9878 0.1557 -0.0000
vn 0.7016 -0.7126 -0.0000
vn 0.8195 -0.5731 -0.0000
vn 0.9866 -0.1634 -0.0000
vn 0.9735 0.2285 -0.0000
vn 0.9352 0.3542 -0.0000
vn -0.8405 0.5418 -0.0000
vn -0.8839 0.4677 -0.0000
vn -0.7909 0.6120 -0.0000
vn -0.7012 -0.7129 -0.0000
vn -0.8201 -0.5723 -0.0000
vn -0.9868 -0.1622 -0.0000
vn -0.9739 0.2269 -0.0000
vn -0.9363 0.3511 -0.0000
vn 0.8401 0.5425 -0.0000
vn 0.8831 0.4692 -0.0000
vn 0.7910 0.6118 -0.0000
vn 0.8053 0.5928 -0.0000
vn 0.9495 0.3138 -0.0000
vn 0.7323 0.6810 -0.0000
vn 0.3038 0.9527 -0.0000
vn 0.6280 0.7782 -0.0000
vn 0.9423 0.3347 -0.0000
vn 0.9589 0.2836 -0.0000
vn 0.9902 0.1399 -0.0000
vn -0.8061 0.5917 -0.0000
vn -0.9496 0.3136 -0.0000
vn -0.7320 0.6813 -0.0000
vn -0.3040 0.9527 -0.0000
vn -0.6273 0.7788 -0.0000
vn -0.9419 0.3360 -0.0000
vn -0.9590 0.2836 -0.0000
vn -0.9902 0.1399 -0.0000
vn 0.5734 -0.5827 0.5759
vn -0.0000 -0.0068 1.0000
vn -0.5734 -0.5827 0.5759
vn 0.7023 -0.7119 -0.0000
vn -0.9999 -0.0135 -0.0000
vn -0.7023 -0.7119 -0.0000
vn 0.9999 -0.0135 -0.0000
vn -0.9991 -0.0413 -0.0000
vn 0.9996 -0.0291 -0.0000
vn 0.1600 -0.9871 -0.0000
vn -0.2435 -0.9699 -0.0000
vn 0.7266 -0.6871 -0.0000
vn 0.2437 -0.9699 -0.0000
vn -0.1598 -0.9871 -0.0000
vn -0.7266 -0.6871 -0.0000
vn -0.2440 -0.9698 -0.0000
vn 0.2672 -0.9636 -0.0000
vn -0.2712 -0.9625 -0.0000
vn 0.8593 -0.5115 -0.0000
vn -0.8623 -0.5064 -0.0000
vn -1.0000 0.0027 -0.0000
vn -0.0000 0.2089 0.9779
vn -0.0002 0.2012 0.9796
vn -0.0000 0.2008 0.9796
vn -0.0002 0.1910 0.9816
vn -0.0007 0.1919 0.9814
vn -0.9781 0.2082 -0.0000
vn -0.9796 0.2011 -0.0002
vn -0.9796 0.2008 -0.0000
vn -0.9814 0.1917 -0.0002
vn -0.9813 0.1926 -0.0007
vn -0.0000 0.2089 -0.9779
vn 0.0002 0.2012 -0.9796
vn -0.0000 0.2008 -0.9796
vn 0.0002 0.1910 -0.9816
vn 0.0007 0.1919 -0.9814
vn 0.9781 0.2082 -0.0000
vn 0.9796 0.2011 0.0002
vn 0.9796 0.2008 -0.0000
vn 0.9814 0.1917 0.0002
vn 0.9813 0.1926 0.0007
vt 0.413086 -0.996094
vt 0.376465 -0.996094
vt 0.376465 -0.730957
vt 0.413086 -0.730957
vt 0.190674 -0.652832
vt 0.190674 -0.678711
vt 0.154419 -0.678711
vt 0.154419 -0.652832
vt 0.335449 -0.730957
vt 0.335449 -0.996094
vt 0.371094 -0.996094
vt 0.371094 -0.730957
vt 0.371094 -0.758789
vt 0.335449 -0.758789
vt 0.335449 -0.910645
vt 0.371094 -0.910645
vt 0.335449 -0.838379
vt 0.371094 -0.838379
vt 0.376465 -0.837402
vt 0.413086 -0.837402
vt 0.413086 -0.890137
vt 0.376465 -0.890137
vt 0.761719 -0.298828
vt 0.761719 -0.263184
vt 0.723145 -0.263184
vt 0.723145 -0.298828
vt 0.655273 -0.297852
vt 0.655273 -0.263184
vt 0.612305 -0.263184
vt 0.612305 -0.297852
vt 0.022842 -0.209106
vt 0.022842 -0.345703
vt 0.052155 -0.290527
vt 0.052155 -0.264160
vt 0.003611 -0.221436
vt 0.003611 -0.333252
vt 0.128418 -0.673828
vt 0.115479 -0.673828
vt 0.115479 -0.552734
vt 0.128418 -0.552734
vt 0.128418 -0.524902
vt 0.115479 -0.524902
vt 0.115479 -0.404053
vt 0.128418 -0.404053
vt 0.146729 -0.695313
vt 0.134277 -0.695313
vt 0.134277 -0.572266
vt 0.146729 -0.572266
vt 0.135620 -0.802734
vt 0.148193 -0.802734
vt 0.148193 -0.816895
vt 0.135620 -0.816895
vt 0.134277 -0.547363
vt 0.146729 -0.547363
vt 0.134277 -0.422363
vt 0.146729 -0.422363
vt 0.516602 -0.407471
vt 0.530273 -0.407471
vt 0.530273 -0.571289
vt 0.516602 -0.571289
vt 0.536133 -0.570801
vt 0.536133 -0.408447
vt 0.560547 -0.408447
vt 0.560547 -0.570801
vt 0.620605 -0.570801
vt 0.620605 -0.408691
vt 0.567383 -0.408691
vt 0.567383 -0.570801
vt 0.495850 -0.565430
vt 0.509277 -0.565430
vt 0.509277 -0.510742
vt 0.495850 -0.510742
vt 0.495850 -0.485840
vt 0.509277 -0.485840
vt 0.735840 -0.571289
vt 0.735840 -0.408936
vt 0.629395 -0.408936
vt 0.629395 -0.571289
vt 0.742676 -0.569336
vt 0.755859 -0.569336
vt 0.755859 -0.458984
vt 0.742676 -0.458984
vt 0.763184 -0.335693
vt 0.763184 -0.403564
vt 0.656738 -0.403564
vt 0.656738 -0.335693
vt 0.565918 -0.403076
vt 0.590332 -0.403076
vt 0.590332 -0.334961
vt 0.565918 -0.334961
vt 0.559570 -0.402588
vt 0.545898 -0.402588
vt 0.545898 -0.343506
vt 0.559570 -0.343506
vt 0.596191 -0.335693
vt 0.649414 -0.335693
vt 0.649414 -0.403564
vt 0.596191 -0.403564
vt 0.643555 -0.805176
vt 0.643555 -0.827637
vt 0.653809 -0.827637
vt 0.653809 -0.805176
vt 0.664063 -0.805176
vt 0.664063 -0.827637
vt 0.675293 -0.805176
vt 0.675293 -0.827637
vt 0.684570 -0.805176
vt 0.684570 -0.827637
vt 0.694336 -0.805176
vt 0.694336 -0.827637
vt 0.634277 -0.827637
vt 0.634277 -0.805176
vt 0.625000 -0.827637
vt 0.625000 -0.805176
vt 0.616699 -0.827637
vt 0.616699 -0.805176
vt 0.612305 -0.827637
vt 0.612305 -0.805176
vt 0.607910 -0.827637
vt 0.607910 -0.805176
vt 0.595703 -0.805176
vt 0.595703 -0.827637
vt 0.601563 -0.843262
vt 0.599609 -0.832031
vt 0.687988 -0.832031
vt 0.686523 -0.843262
vt 0.603027 -0.847168
vt 0.684570 -0.847168
vt 0.601074 -0.850586
vt 0.686523 -0.850586
vt 0.601563 -0.857910
vt 0.686523 -0.857910
vt 0.606934 -0.864746
vt 0.681152 -0.864746
vt 0.613770 -0.868164
vt 0.673828 -0.868164
vt 0.673340 -0.876465
vt 0.614746 -0.876465
vt 0.644043 -0.887695
vt 0.668457 -0.884766
vt 0.659668 -0.890137
vt 0.651367 -0.890625
vt 0.619629 -0.884766
vt 0.627930 -0.890137
vt 0.636230 -0.890625
vt 0.644043 -0.885742
vt 0.672852 -0.876465
vt 0.615234 -0.876465
vt 0.672852 -0.867188
vt 0.615234 -0.867188
vt 0.602051 -0.832031
vt 0.685547 -0.832031
vt 0.260010 -0.646973
vt 0.285889 -0.650879
vt 0.297363 -0.737793
vt 0.260010 -0.726563
vt 0.290039 -0.769531
vt 0.310547 -0.778809
vt 0.270508 -0.753906
vt 0.320557 -0.609375
vt 0.320557 -0.680664
vt 0.306152 -0.680664
vt 0.306152 -0.609375
vt 0.320557 -0.707031
vt 0.306152 -0.707031
vt 0.320557 -0.729492
vt 0.306152 -0.729492
vt 0.320557 -0.749512
vt 0.306152 -0.749512
vt 0.327637 -0.685547
vt 0.342041 -0.685547
vt 0.342041 -0.724609
vt 0.327637 -0.724609
vt 0.342041 -0.607422
vt 0.327637 -0.607422
vt 0.666992 -0.297852
vt 0.709961 -0.297852
vt 0.709961 -0.263428
vt 0.666992 -0.263428
vt 0.152710 -0.556641
vt 0.160645 -0.556641
vt 0.160645 -0.435791
vt 0.152710 -0.435791
vt 0.166748 -0.557129
vt 0.166748 -0.439453
vt 0.336670 -0.557129
vt 0.331055 -0.572266
vt 0.331055 -0.564453
vt 0.166138 -0.564453
vt 0.166138 -0.572266
vt 0.003611 -0.346680
vt 0.029343 -0.346680
vt 0.029343 -0.207153
vt 0.003611 -0.207153
vt 0.029343 -0.277100
vt 0.003611 -0.277100
vt 0.495361 -0.940918
vt 0.495361 -0.805664
vt 0.590332 -0.805664
vt 0.590332 -0.940918
vt 0.495361 -0.981445
vt 0.495361 -0.997559
vt 0.590332 -0.997559
vt 0.590332 -0.981445
vt 0.495361 -0.977051
vt 0.590332 -0.977051
vt 0.488525 -0.805176
vt 0.470215 -0.805176
vt 0.470215 -0.951172
vt 0.488525 -0.951172
vt 0.470215 -0.995605
vt 0.488525 -0.995605
vt 0.577637 -0.327393
vt 0.577637 -0.305664
vt 0.768066 -0.305664
vt 0.768066 -0.327393
vt 0.464111 -0.994141
vt 0.419189 -0.994141
vt 0.419189 -0.806641
vt 0.464111 -0.806641
vt 0.988770 -0.846680
vt 0.726563 -0.708496
vt 0.698242 -0.846680
vt 0.960449 -0.708496
vt 0.940918 -0.588867
vt 0.746094 -0.588867
vt 0.727051 -0.708984
vt 0.698730 -0.846680
vt 0.960938 -0.708496
vt 0.941406 -0.588867
vt 0.746582 -0.589355
vt 0.960449 -0.708984
vt 0.727051 -0.708496
vt 0.266113 -0.020828
vt 0.266113 -0.242188
vt 0.044739 -0.242188
s 1
g センター
g NarukamiShrine_mesh.088_Lamps_A
usemtl Lamps_A
f 5/1/1 7/2/1 8/3/1
f 8/3/1 1/4/1 5/1/1
s 2
f 4/1/2 2/2/2 6/3/2
f 6/3/2 3/4/2 4/1/2
s 3
f 1/5/3 8/6/3 2/7/3
f 2/7/3 4/8/3 1/5/3
s 4
f 3/5/4 6/6/4 7/7/4
f 7/7/4 5/8/4 3/5/4
s 5
f 8/9/5 7/10/5 6/11/5
f 6/11/5 2/12/5 8/9/5
s 6
f 16/2/6 9/1/6 11/4/6
f 11/4/6 12/3/6 16/2/6
s 7
f 13/2/1 14/1/1 15/4/1
f 15/4/1 10/3/1 13/2/1
s 8
f 13/9/7 12/12/7 11/13/8
f 11/13/8 14/14/9 13/9/7
f 10/10/10 15/15/11 9/16/11
f 9/16/11 16/11/10 10/10/10
f 15/15/11 14/14/9 11/13/8
f 11/13/8 9/16/11 15/15/11
s 9
f 4/12/12 3/11/12 5/10/12
f 5/10/12 1/9/12 4/12/12
s 10
f 17/1/1 21/2/1 23/3/1
f 23/3/1 18/4/1 17/1/1
s 11
f 19/1/2 24/2/2 22/3/2
f 22/3/2 20/4/2 19/1/2
s 12
f 18/5/3 23/6/3 24/7/3
f 24/7/3 19/8/3 18/5/3
s 13
f 20/5/4 22/6/4 21/7/4
f 21/7/4 17/8/4 20/5/4
s 14
f 23/9/5 21/10/5 22/11/5
f 22/11/5 24/12/5 23/9/5
s 15
f 26/2/13 25/1/14 32/4/15
f 32/4/15 27/3/13 26/2/13
s 16
f 30/2/1 29/1/1 28/4/1
f 28/4/1 31/3/1 30/2/1
s 15
f 30/9/7 27/12/7 32/13/15
f 32/13/15 29/14/9 30/9/7
f 31/10/10 28/15/11 25/16/14
f 25/16/14 26/11/10 31/10/10
f 28/15/11 29/14/9 32/13/15
f 32/13/15 25/16/14 28/15/11
s 17
f 19/12/12 20/11/12 17/10/12
f 17/10/12 18/9/12 19/12/12
s 18
f 35/1/3 34/2/3 33/3/3
f 33/3/3 36/4/3 35/1/3
s 19
f 38/1/4 40/2/4 39/3/4
f 39/3/4 37/4/4 38/1/4
s 20
f 36/5/2 33/6/2 40/7/2
f 40/7/2 38/8/2 36/5/2
s 21
f 37/5/1 39/6/1 34/7/1
f 34/7/1 35/8/1 37/5/1
s 22
f 33/9/5 34/10/5 39/11/5
f 39/11/5 40/12/5 33/9/5
s 23
f 48/2/16 42/1/16 41/4/16
f 41/4/16 43/3/16 48/2/16
s 24
f 45/2/3 44/1/3 46/4/3
f 46/4/3 47/3/3 45/2/3
s 25
f 45/9/17 43/12/17 41/13/18
f 41/13/18 44/14/19 45/9/17
f 47/10/20 46/15/21 42/16/22
f 42/16/22 48/11/20 47/10/20
f 46/15/21 44/14/19 41/13/18
f 41/13/18 42/16/22 46/15/21
s 26
f 38/12/12 37/11/12 35/10/12
f 35/10/12 36/9/12 38/12/12
s 27
f 63/1/3 52/2/3 53/3/3
f 53/3/3 64/4/3 63/1/3
s 28
f 50/1/4 54/2/4 49/3/4
f 49/3/4 51/4/4 50/1/4
s 29
f 64/5/2 53/6/2 54/7/2
f 54/7/2 50/8/2 64/5/2
s 30
f 51/5/1 49/6/1 52/7/1
f 52/7/1 63/8/1 51/5/1
s 31
f 53/9/5 52/10/5 49/11/5
f 49/11/5 54/12/5 53/9/5
s 32
f 57/2/23 56/1/24 55/4/25
f 55/4/25 61/3/23 57/2/23
s 33
f 62/2/26 59/1/26 58/4/26
f 58/4/26 60/3/26 62/2/26
s 32
f 62/9/17 61/12/17 55/13/25
f 55/13/25 59/14/27 62/9/17
f 60/10/20 58/15/28 56/16/24
f 56/16/24 57/11/20 60/10/20
f 58/15/28 59/14/27 55/13/25
f 55/13/25 56/16/24 58/15/28
s 34
f 50/12/12 51/11/12 63/10/12
f 63/10/12 64/9/12 50/12/12
s 35
f 65/11/29 68/10/30 67/17/31
f 67/17/31 72/18/32 65/11/29
f 72/18/32 67/17/31 152/9/33
f 152/9/33 66/12/34 72/18/32
s 36
f 70/2/35 69/19/36 67/20/37
f 67/20/37 68/1/38 70/2/35
f 67/20/37 69/19/36 155/3/39
f 155/3/39 152/4/40 67/20/37
f 73/10/41 71/17/42 69/18/36
f 69/18/36 70/11/35 73/10/41
f 155/12/39 69/18/36 71/17/42
f 71/17/42 156/9/43 155/12/39
s 35
f 65/2/29 72/19/32 71/20/44
f 71/20/44 73/1/45 65/2/29
f 156/4/46 71/20/44 72/19/32
f 72/19/32 66/3/34 156/4/46
s 37
f 80/11/47 81/18/48 74/17/31
f 74/17/31 75/10/30 80/11/47
f 158/9/33 74/17/31 81/18/48
f 81/18/48 82/12/49 158/9/33
s 38
f 77/2/50 75/1/51 74/20/52
f 74/20/52 76/19/53 77/2/50
f 162/3/54 76/19/53 74/20/52
f 74/20/52 158/4/55 162/3/54
f 78/10/41 77/11/50 76/18/53
f 76/18/53 79/17/42 78/10/41
f 79/17/42 76/18/53 162/12/54
f 162/12/54 159/9/43 79/17/42
s 37
f 80/2/47 78/1/56 79/20/57
f 79/20/57 81/19/48 80/2/47
f 81/19/48 79/20/57 159/4/58
f 159/4/58 82/3/49 81/19/48
s 39
f 91/11/59 85/10/60 83/17/61
f 83/17/61 90/18/62 91/11/59
f 90/18/62 83/17/61 165/9/63
f 165/9/63 169/12/64 90/18/62
s 40
f 84/2/65 87/19/66 83/20/52
f 83/20/52 85/1/51 84/2/65
f 83/20/52 87/19/66 86/3/67
f 86/3/67 165/4/55 83/20/52
f 89/10/68 88/17/69 87/18/66
f 87/18/66 84/11/65 89/10/68
f 86/12/67 87/18/66 88/17/69
f 88/17/69 92/9/70 86/12/67
s 39
f 91/4/59 90/21/62 88/22/57
f 88/22/57 89/3/56 91/4/59
f 92/2/58 88/22/57 90/21/62
f 90/21/62 169/1/64 92/2/58
s 41
f 95/11/71 94/18/72 93/17/61
f 93/17/61 96/10/60 95/11/71
f 97/9/63 93/17/61 94/18/72
f 94/18/72 173/12/73 97/9/63
s 42
f 99/2/74 96/1/38 93/20/37
f 93/20/37 98/19/75 99/2/74
f 171/3/76 98/19/75 93/20/37
f 93/20/37 97/4/40 171/3/76
f 100/10/68 99/11/74 98/18/75
f 98/18/75 101/17/69 100/10/68
f 101/17/69 98/18/75 171/12/76
f 171/12/76 176/9/70 101/17/69
s 41
f 95/2/71 100/1/45 101/20/44
f 101/20/44 94/19/72 95/2/71
f 94/19/72 101/20/44 176/4/46
f 176/4/46 173/3/73 94/19/72
s 43
f 104/12/77 103/9/77 102/10/77
f 102/10/77 105/11/77 104/12/77
s 44
f 106/4/78 104/3/78 105/2/79
f 105/2/79 107/1/79 106/4/78
s 45
f 111/3/80 109/4/81 108/1/82
f 108/1/82 110/2/83 111/3/80
s 46
f 112/9/84 111/12/85 110/11/86
f 110/11/86 113/10/87 112/9/84
s 47
f 116/12/88 115/9/88 114/10/88
f 114/10/88 117/11/88 116/12/88
s 48
f 118/4/89 116/3/89 117/2/90
f 117/2/90 119/1/90 118/4/89
s 49
f 122/3/91 121/4/91 120/1/91
f 120/1/91 123/2/91 122/3/91
s 50
f 124/9/92 122/12/92 123/11/92
f 123/11/92 125/10/92 124/9/92
s 51
f 128/12/93 127/9/93 126/10/93
f 126/10/93 129/11/93 128/12/93
s 52
f 130/4/94 128/3/94 129/2/94
f 129/2/94 131/1/94 130/4/94
s 53
f 135/3/95 133/4/96 132/1/97
f 132/1/97 134/2/98 135/3/95
s 54
f 136/9/99 135/12/100 134/11/101
f 134/11/101 137/10/102 136/9/99
s 55
f 140/12/103 139/9/103 138/10/103
f 138/10/103 141/11/103 140/12/103
s 56
f 142/4/104 140/3/104 141/2/105
f 141/2/105 143/1/105 142/4/104
s 57
f 147/3/106 145/4/107 144/1/108
f 144/1/108 146/2/109 147/3/106
s 58
f 148/9/110 147/12/111 146/11/112
f 146/11/112 149/10/113 148/9/110
s 35
f 151/23/114 150/24/115 66/25/34
f 66/25/34 152/26/33 151/23/114
s 36
f 153/27/116 151/28/117 152/29/40
f 152/29/40 155/30/39 153/27/116
f 156/26/43 154/23/118 153/24/116
f 153/24/116 155/25/39 156/26/43
s 35
f 66/30/34 150/27/115 154/28/119
f 154/28/119 156/29/46 66/30/34
s 37
f 82/25/49 163/24/120 157/23/114
f 157/23/114 158/26/33 82/25/49
s 38
f 158/29/55 157/28/121 161/27/122
f 161/27/122 162/30/54 158/29/55
f 161/24/122 160/23/118 159/26/43
f 159/26/43 162/25/54 161/24/122
s 37
f 160/28/123 163/27/120 82/30/49
f 82/30/49 159/29/58 160/28/123
s 39
f 164/23/124 168/24/125 169/25/64
f 169/25/64 165/26/63 164/23/124
s 40
f 166/27/126 164/28/121 165/29/55
f 165/29/55 86/30/67 166/27/126
f 92/26/70 167/23/127 166/24/126
f 166/24/126 86/25/67 92/26/70
s 39
f 169/30/64 168/27/125 167/28/123
f 167/28/123 92/29/58 169/30/64
s 41
f 173/25/73 174/24/128 170/23/124
f 170/23/124 97/26/63 173/25/73
s 42
f 97/29/40 170/28/117 172/27/129
f 172/27/129 171/30/76 97/29/40
f 172/24/129 175/23/127 176/26/70
f 176/26/70 171/25/76 172/24/129
s 41
f 175/28/119 174/27/128 173/30/73
f 173/30/73 176/29/46 175/28/119
s 59
f 179/31/2 178/32/2 177/33/2
f 177/33/2 180/34/2 179/31/2
f 178/32/2 179/31/2 181/35/2
f 181/35/2 182/36/2 178/32/2
s 60
f 192/37/1 184/38/1 183/39/1
f 183/39/1 185/40/1 192/37/1
f 195/41/1 185/40/1 183/39/1
f 183/39/1 186/42/1 195/41/1
f 195/41/1 186/42/1 198/43/1
f 198/43/1 196/44/1 195/41/1
s 61
f 188/43/2 187/44/2 193/41/2
f 193/41/2 189/42/2 188/43/2
f 190/39/2 189/42/2 193/41/2
f 193/41/2 194/40/2 190/39/2
f 190/39/2 194/40/2 191/37/2
f 191/37/2 197/38/2 190/39/2
s 62
f 187/45/130 192/46/130 185/47/131
f 185/47/131 193/48/131 187/45/130
s 63
f 188/49/132 184/50/132 192/51/132
f 192/51/132 187/52/132 188/49/132
s 62
f 185/47/131 195/53/133 194/54/133
f 194/54/133 193/48/131 185/47/131
f 194/54/133 195/53/133 196/55/134
f 196/55/134 191/56/134 194/54/133
f 197/50/135 191/51/134 196/52/134
f 196/52/134 198/49/135 197/50/135
s 64
f 206/57/136 240/58/137 200/59/138
f 200/59/138 203/60/139 206/57/136
f 200/61/138 240/62/140 199/63/141
f 199/63/141 201/64/142 200/61/138
f 229/65/143 239/66/144 204/67/145
f 204/67/145 205/68/146 229/65/143
f 202/69/147 229/70/148 205/71/149
f 205/71/149 201/72/142 202/69/147
f 200/73/138 201/72/142 205/71/149
f 205/71/149 203/74/139 200/73/138
f 199/67/141 236/66/150 202/65/147
f 202/65/147 201/68/142 199/67/141
f 203/61/139 205/64/146 204/63/145
f 204/63/145 206/62/136 203/61/139
f 207/57/151 214/60/152 209/59/153
f 209/59/153 210/58/154 207/57/151
f 209/61/153 208/64/155 242/63/156
f 242/63/156 210/62/157 209/61/153
f 212/65/158 211/68/159 213/67/160
f 213/67/160 237/66/161 212/65/158
f 233/69/162 208/72/155 211/71/163
f 211/71/163 212/70/164 233/69/162
f 211/71/163 208/72/155 209/73/153
f 209/73/153 214/74/152 211/71/163
f 242/67/156 208/68/155 233/65/162
f 233/65/162 241/66/165 242/67/156
f 214/61/152 207/62/151 213/63/160
f 213/63/160 211/64/159 214/61/152
f 220/57/166 221/60/167 218/59/168
f 218/59/168 245/58/169 220/57/166
f 218/61/168 215/64/170 243/63/171
f 243/63/171 245/62/172 218/61/168
f 217/65/143 216/68/173 244/67/174
f 244/67/174 238/66/144 217/65/143
f 230/69/147 215/72/170 216/71/175
f 216/71/175 217/70/148 230/69/147
f 216/71/175 215/72/170 218/73/168
f 218/73/168 221/74/167 216/71/175
f 243/67/171 215/68/170 230/65/147
f 230/65/147 219/66/150 243/67/171
f 221/61/167 220/62/166 244/63/174
f 244/63/174 216/64/173 221/61/167
f 228/57/176 246/58/177 222/59/178
f 222/59/178 225/60/179 228/57/176
f 222/61/178 246/62/180 223/63/181
f 223/63/181 226/64/182 222/61/178
f 232/65/158 231/66/161 224/67/183
f 224/67/183 227/68/184 232/65/158
f 235/69/162 232/70/164 227/71/185
f 227/71/185 226/72/182 235/69/162
f 222/73/178 226/72/182 227/71/185
f 227/71/185 225/74/179 222/73/178
f 223/67/181 234/66/165 235/65/162
f 235/65/162 226/68/182 223/67/181
f 225/61/179 227/64/184 224/63/183
f 224/63/183 228/62/176 225/61/179
f 217/75/143 238/76/144 239/77/144
f 239/77/144 229/78/143 217/75/143
f 230/79/147 217/80/148 229/81/148
f 229/81/148 202/82/147 230/79/147
f 219/76/150 230/75/147 202/78/147
f 202/78/147 236/77/150 219/76/150
f 232/75/158 212/78/158 237/77/161
f 237/77/161 231/76/161 232/75/158
f 235/79/162 233/82/162 212/81/164
f 212/81/164 232/80/164 235/79/162
f 234/76/165 241/77/165 233/78/162
f 233/78/162 235/75/162 234/76/165
f 234/83/165 219/84/150 236/85/150
f 236/85/150 241/86/165 234/83/165
f 238/84/144 231/83/161 237/86/161
f 237/86/161 239/85/144 238/84/144
f 206/87/136 204/88/145 213/89/160
f 213/89/160 207/90/151 206/87/136
f 240/91/137 206/92/136 207/93/151
f 207/93/151 210/94/154 240/91/137
f 242/95/156 241/96/165 236/97/150
f 236/97/150 199/98/141 242/95/156
f 204/98/145 239/97/144 237/96/161
f 237/96/161 213/95/160 204/98/145
f 242/89/156 199/88/141 240/87/140
f 240/87/140 210/90/157 242/89/156
f 220/87/166 228/90/176 224/89/183
f 224/89/183 244/88/174 220/87/166
f 245/91/169 246/94/177 228/93/176
f 228/93/176 220/92/166 245/91/169
f 223/95/181 243/98/171 219/97/150
f 219/97/150 234/96/165 223/95/181
f 244/98/174 224/95/183 231/96/161
f 231/96/161 238/97/144 244/98/174
f 223/89/181 246/90/180 245/87/172
f 245/87/172 243/88/171 223/89/181
s 65
f 248/99/186 503/100/186 247/101/187
f 247/101/187 283/102/187 248/99/186
f 249/103/188 283/102/187 247/101/187
f 247/101/187 280/104/188 249/103/188
f 250/105/189 249/103/188 280/104/188
f 280/104/188 281/106/189 250/105/189
f 251/107/190 250/105/189 281/106/189
f 281/106/189 252/108/190 251/107/190
f 253/109/5 251/107/190 252/108/190
f 252/108/190 254/110/5 253/109/5
f 255/111/191 503/100/186 248/99/186
f 248/99/186 285/112/191 255/111/191
f 275/113/192 255/111/191 285/112/191
f 285/112/191 256/114/192 275/113/192
f 273/115/193 275/113/192 256/114/192
f 256/114/192 257/116/193 273/115/193
f 258/117/23 273/115/193 257/116/193
f 257/116/193 259/118/23 258/117/23
f 272/119/194 258/117/23 259/118/23
f 259/118/23 288/120/194 272/119/194
f 272/119/194 288/120/194 289/121/195
f 289/121/195 271/122/195 272/119/194
f 284/99/196 260/102/197 277/101/197
f 277/101/197 504/100/196 284/99/196
f 277/101/197 260/102/197 261/103/198
f 261/103/198 278/104/198 277/101/197
f 278/104/198 261/103/198 262/105/199
f 262/105/199 263/106/199 278/104/198
f 263/106/199 262/105/199 282/107/200
f 282/107/200 279/108/200 263/106/199
f 279/108/200 282/107/200 253/109/5
f 253/109/5 254/110/5 279/108/200
f 284/99/196 504/100/196 264/111/201
f 264/111/201 286/112/201 284/99/196
f 286/112/201 264/111/201 276/113/202
f 276/113/202 265/114/202 286/112/201
f 265/114/202 276/113/202 274/115/203
f 274/115/203 266/116/203 265/114/202
f 266/116/203 274/115/203 267/117/204
f 267/117/204 268/118/204 266/116/203
f 268/118/204 267/117/204 269/119/205
f 269/119/205 287/120/205 268/118/204
f 290/121/206 287/120/205 269/119/205
f 269/119/205 270/122/206 290/121/206
s 66
f 272/123/2 271/124/2 270/125/2
f 270/125/2 269/126/2 272/123/2
f 258/127/2 272/123/2 269/126/2
f 269/126/2 267/128/2 258/127/2
f 273/129/2 258/127/2 267/128/2
f 267/128/2 274/130/2 273/129/2
f 275/131/2 273/129/2 274/130/2
f 274/130/2 276/132/2 275/131/2
f 255/133/2 275/131/2 276/132/2
f 276/132/2 264/134/2 255/133/2
f 503/135/2 255/133/2 264/134/2
f 264/134/2 504/136/2 503/135/2
f 503/135/2 504/136/2 277/137/2
f 277/137/2 247/138/2 503/135/2
f 247/138/2 277/137/2 254/139/2
f 254/139/2 277/137/2 278/140/2
f 254/139/2 278/140/2 263/141/2
f 263/141/2 279/142/2 254/139/2
f 247/138/2 254/139/2 280/143/2
f 281/144/2 280/143/2 254/139/2
f 254/139/2 252/145/2 281/144/2
s 67
f 253/146/1 282/142/1 262/141/1
f 262/141/1 261/140/1 253/146/1
f 253/146/1 261/140/1 260/147/1
f 253/146/1 260/147/1 283/148/1
f 283/148/1 260/147/1 284/149/1
f 284/149/1 248/150/1 283/148/1
f 253/146/1 283/148/1 249/143/1
f 253/146/1 249/143/1 250/144/1
f 250/144/1 251/145/1 253/146/1
f 285/133/1 248/150/1 284/149/1
f 284/149/1 286/134/1 285/133/1
f 256/131/1 285/133/1 286/134/1
f 286/134/1 265/132/1 256/131/1
f 257/129/1 256/131/1 265/132/1
f 265/132/1 266/130/1 257/129/1
f 259/127/1 257/129/1 266/130/1
f 266/130/1 268/128/1 259/127/1
f 259/127/1 268/128/1 287/126/1
f 287/126/1 288/123/1 259/127/1
f 289/151/1 288/123/1 287/126/1
f 287/126/1 290/152/1 289/151/1
s 68
f 299/153/2 292/154/2 291/155/2
f 291/155/2 298/156/2 299/153/2
f 291/155/2 293/157/2 298/156/2
f 291/155/2 294/158/2 293/157/2
f 293/157/2 300/159/2 298/156/2
s 69
f 297/156/1 303/155/1 304/154/1
f 304/154/1 295/153/1 297/156/1
f 297/156/1 302/157/1 303/155/1
f 302/157/1 296/158/1 303/155/1
f 297/156/1 301/159/1 302/157/1
s 70
f 299/160/207 298/161/208 297/162/208
f 297/162/208 295/163/207 299/160/207
f 297/162/208 298/161/208 300/164/209
f 300/164/209 301/165/209 297/162/208
f 301/165/209 300/164/209 293/166/210
f 293/166/210 302/167/210 301/165/209
f 302/167/210 293/166/210 294/168/211
f 294/168/211 296/169/211 302/167/210
s 71
f 291/170/212 303/171/212 296/172/213
f 296/172/213 294/173/213 291/170/212
f 304/174/214 303/171/212 291/170/212
f 291/170/212 292/175/214 304/174/214
s 72
f 305/153/2 312/156/2 317/155/2
f 317/155/2 306/154/2 305/153/2
f 317/155/2 312/156/2 314/157/2
f 317/155/2 314/157/2 307/158/2
f 314/157/2 312/156/2 313/159/2
s 73
f 309/156/1 311/153/1 308/154/1
f 308/154/1 318/155/1 309/156/1
f 309/156/1 318/155/1 315/157/1
f 315/157/1 318/155/1 316/158/1
f 309/156/1 315/157/1 310/159/1
s 74
f 305/160/215 311/163/215 309/162/216
f 309/162/216 312/161/216 305/160/215
f 313/164/217 312/161/216 309/162/216
f 309/162/216 310/165/217 313/164/217
f 314/166/218 313/164/217 310/165/217
f 310/165/217 315/167/218 314/166/218
f 307/168/219 314/166/218 315/167/218
f 315/167/218 316/169/219 307/168/219
s 75
f 317/170/220 307/173/221 316/172/221
f 316/172/221 318/171/220 317/170/220
f 317/170/220 318/171/220 308/174/222
f 308/174/222 306/175/222 317/170/220
s 76
f 357/99/223 356/102/224 319/101/224
f 319/101/224 320/100/223 357/99/223
f 319/101/224 356/102/224 321/103/225
f 321/103/225 322/104/225 319/101/224
f 322/104/225 321/103/225 323/105/226
f 323/105/226 353/106/226 322/104/225
f 353/106/226 323/105/226 324/107/190
f 324/107/190 354/108/190 353/106/226
f 354/108/190 324/107/190 325/109/5
f 325/109/5 350/110/5 354/108/190
f 357/99/223 320/100/223 326/111/227
f 326/111/227 358/112/227 357/99/223
f 358/112/227 326/111/227 327/113/228
f 327/113/228 360/114/228 358/112/227
f 360/114/228 327/113/228 348/115/193
f 348/115/193 328/116/193 360/114/228
f 328/116/193 348/115/193 329/117/23
f 329/117/23 362/118/23 328/116/193
f 362/118/23 329/117/23 330/119/229
f 330/119/229 331/120/229 362/118/23
f 332/121/230 331/120/229 330/119/229
f 330/119/229 347/122/230 332/121/230
f 335/99/231 334/100/231 333/101/232
f 333/101/232 336/102/232 335/99/231
f 355/103/233 336/102/232 333/101/232
f 333/101/232 337/104/233 355/103/233
f 338/105/234 355/103/233 337/104/233
f 337/104/233 351/106/234 338/105/234
f 339/107/200 338/105/234 351/106/234
f 351/106/234 352/108/200 339/107/200
f 325/109/5 339/107/200 352/108/200
f 352/108/200 350/110/5 325/109/5
f 349/111/235 334/100/231 335/99/231
f 335/99/231 359/112/235 349/111/235
f 340/113/236 349/111/235 359/112/235
f 359/112/235 361/114/236 340/113/236
f 341/115/203 340/113/236 361/114/236
f 361/114/236 342/116/203 341/115/203
f 343/117/204 341/115/203 342/116/203
f 342/116/203 344/118/204 343/117/204
f 346/119/237 343/117/204 344/118/204
f 344/118/204 363/120/237 346/119/237
f 346/119/237 363/120/237 364/121/238
f 364/121/238 345/122/238 346/119/237
s 77
f 330/123/1 346/126/1 345/125/1
f 345/125/1 347/124/1 330/123/1
f 346/126/1 330/123/1 329/127/1
f 329/127/1 343/128/1 346/126/1
f 343/128/1 329/127/1 348/129/1
f 348/129/1 341/130/1 343/128/1
f 341/130/1 348/129/1 327/131/1
f 327/131/1 340/132/1 341/130/1
f 340/132/1 327/131/1 326/133/1
f 326/133/1 349/134/1 340/132/1
f 349/134/1 326/133/1 320/135/1
f 320/135/1 334/136/1 349/134/1
f 333/137/1 334/136/1 320/135/1
f 320/135/1 319/138/1 333/137/1
f 319/138/1 350/139/1 333/137/1
f 350/139/1 337/140/1 333/137/1
f 351/141/1 337/140/1 350/139/1
f 350/139/1 352/142/1 351/141/1
f 319/138/1 322/143/1 350/139/1
f 350/139/1 322/143/1 353/144/1
f 353/144/1 354/145/1 350/139/1
s 78
f 325/139/2 355/140/2 338/141/2
f 338/141/2 339/142/2 325/139/2
f 325/139/2 336/137/2 355/140/2
f 325/139/2 356/138/2 336/137/2
f 335/136/2 336/137/2 356/138/2
f 356/138/2 357/135/2 335/136/2
f 325/139/2 321/143/2 356/138/2
f 323/144/2 321/143/2 325/139/2
f 325/139/2 324/145/2 323/144/2
f 335/136/2 357/135/2 358/133/2
f 358/133/2 359/134/2 335/136/2
f 359/134/2 358/133/2 360/131/2
f 360/131/2 361/132/2 359/134/2
f 361/132/2 360/131/2 328/129/2
f 328/129/2 342/130/2 361/132/2
f 342/130/2 328/129/2 362/127/2
f 362/127/2 344/128/2 342/130/2
f 363/126/2 344/128/2 362/127/2
f 362/127/2 331/123/2 363/126/2
f 363/126/2 331/123/2 332/124/2
f 332/124/2 364/125/2 363/126/2
s 79
f 365/153/1 374/156/1 377/155/1
f 377/155/1 378/154/1 365/153/1
f 377/155/1 374/156/1 366/157/1
f 377/155/1 366/157/1 367/158/1
f 366/157/1 374/156/1 375/159/1
s 80
f 373/156/2 369/153/2 368/154/2
f 368/154/2 370/155/2 373/156/2
f 373/156/2 370/155/2 376/157/2
f 376/157/2 370/155/2 371/158/2
f 373/156/2 376/157/2 372/159/2
s 81
f 365/160/207 369/163/207 373/162/208
f 373/162/208 374/161/208 365/160/207
f 375/164/209 374/161/208 373/162/208
f 373/162/208 372/165/209 375/164/209
f 366/166/210 375/164/209 372/165/209
f 372/165/209 376/167/210 366/166/210
f 367/168/211 366/166/210 376/167/210
f 376/167/210 371/169/211 367/168/211
s 82
f 377/170/212 367/173/213 371/172/213
f 371/172/213 370/171/212 377/170/212
f 377/170/212 370/171/212 368/174/214
f 368/174/214 378/175/214 377/170/212
s 83
f 380/153/1 379/154/1 392/155/1
f 392/155/1 386/156/1 380/153/1
f 392/155/1 389/157/1 386/156/1
f 392/155/1 381/158/1 389/157/1
f 389/157/1 387/159/1 386/156/1
s 84
f 385/156/2 383/155/2 382/154/2
f 382/154/2 384/153/2 385/156/2
f 385/156/2 390/157/2 383/155/2
f 390/157/2 391/158/2 383/155/2
f 385/156/2 388/159/2 390/157/2
s 85
f 380/160/215 386/161/216 385/162/216
f 385/162/216 384/163/215 380/160/215
f 385/162/216 386/161/216 387/164/217
f 387/164/217 388/165/217 385/162/216
f 388/165/217 387/164/217 389/166/218
f 389/166/218 390/167/218 388/165/217
f 390/167/218 389/166/218 381/168/219
f 381/168/219 391/169/219 390/167/218
s 86
f 392/170/220 383/171/220 391/172/221
f 391/172/221 381/173/221 392/170/220
f 382/174/222 383/171/220 392/170/220
f 392/170/220 379/175/222 382/174/222
s 87
f 398/176/1 399/177/1 394/178/1
f 394/178/1 395/179/1 398/176/1
s 88
f 408/176/2 409/177/2 410/178/2
f 410/178/2 411/179/2 408/176/2
s 89
f 395/28/12 393/29/12 417/30/12
f 417/30/12 398/27/12 395/28/12
s 90
f 394/24/3 396/25/3 393/26/3
f 393/26/3 395/23/3 394/24/3
s 91
f 399/27/5 397/30/5 396/29/5
f 396/29/5 394/28/5 399/27/5
s 92
f 398/23/4 417/26/4 397/25/4
f 397/25/4 399/24/4 398/23/4
s 93
f 405/176/1 401/177/1 400/178/1
f 400/178/1 402/179/1 405/176/1
s 94
f 412/176/2 413/177/2 414/178/2
f 414/178/2 403/179/2 412/176/2
s 95
f 402/28/12 420/29/12 424/30/12
f 424/30/12 405/27/12 402/28/12
s 96
f 400/24/3 422/25/3 420/26/3
f 420/26/3 402/23/3 400/24/3
s 97
f 401/27/5 404/30/5 422/29/5
f 422/29/5 400/28/5 401/27/5
s 98
f 405/23/4 424/26/4 404/25/4
f 404/25/4 401/24/4 405/23/4
s 89
f 408/28/12 411/27/12 406/30/12
f 406/30/12 407/29/12 408/28/12
s 90
f 409/24/3 408/23/3 407/26/3
f 407/26/3 415/25/3 409/24/3
s 91
f 410/27/5 409/28/5 415/29/5
f 415/29/5 416/30/5 410/27/5
s 92
f 411/23/4 410/24/4 416/25/4
f 416/25/4 406/26/4 411/23/4
s 95
f 412/28/12 403/27/12 418/30/12
f 418/30/12 419/29/12 412/28/12
s 96
f 413/24/3 412/23/3 419/26/3
f 419/26/3 421/25/3 413/24/3
s 97
f 414/27/5 413/28/5 421/29/5
f 421/29/5 423/30/5 414/27/5
s 98
f 403/23/4 414/24/4 423/25/4
f 423/25/4 418/26/4 403/23/4
s 89
f 407/1/12 406/2/12 417/3/12
f 417/3/12 393/4/12 407/1/12
s 90
f 415/11/3 407/10/3 393/9/3
f 393/9/3 396/12/3 415/11/3
s 91
f 416/3/5 415/4/5 396/1/5
f 396/1/5 397/2/5 416/3/5
s 92
f 406/9/4 416/12/4 397/11/4
f 397/11/4 417/10/4 406/9/4
s 95
f 419/1/12 418/2/12 424/3/12
f 424/3/12 420/4/12 419/1/12
s 96
f 421/11/3 419/10/3 420/9/3
f 420/9/3 422/12/3 421/11/3
s 97
f 423/3/5 421/4/5 422/1/5
f 422/1/5 404/2/5 423/3/5
s 98
f 418/9/4 423/12/4 404/11/4
f 404/11/4 424/10/4 418/9/4
s 99
f 426/180/239 431/181/240 425/182/240
f 425/182/240 429/183/241 426/180/239
s 100
f 430/183/2 428/180/2 427/181/2
f 427/181/2 432/182/2 430/183/2
s 99
f 426/184/239 429/185/241 430/186/242
f 429/187/241 425/188/243 427/189/243
f 427/189/243 428/190/244 429/187/241
s 101
f 425/186/5 432/185/5 427/184/5
s 99
f 431/189/245 426/190/239 430/187/242
f 430/187/242 432/188/245 431/189/245
f 429/186/241 428/184/244 430/185/242
s 101
f 425/185/5 431/184/5 432/186/5
s 102
f 435/191/246 434/192/246 433/193/246
f 433/193/246 436/194/246 435/191/246
s 103
f 439/195/247 438/196/247 437/191/247
f 437/191/247 440/192/247 439/195/247
f 438/196/247 439/195/247 441/193/247
f 441/193/247 442/194/247 438/196/247
s 104
f 445/32/1 444/31/1 443/34/1
f 443/34/1 446/33/1 445/32/1
f 444/31/1 445/32/1 447/36/1
f 447/36/1 448/35/1 444/31/1
s 105
f 450/37/1 458/38/1 449/39/1
f 449/39/1 456/40/1 450/37/1
f 460/41/1 456/40/1 449/39/1
f 449/39/1 451/42/1 460/41/1
f 460/41/1 451/42/1 464/43/1
f 464/43/1 462/44/1 460/41/1
s 106
f 459/43/2 457/44/2 452/41/2
f 452/41/2 453/42/2 459/43/2
f 454/39/2 453/42/2 452/41/2
f 452/41/2 455/40/2 454/39/2
f 454/39/2 455/40/2 461/37/2
f 461/37/2 463/38/2 454/39/2
s 107
f 457/45/248 450/46/248 456/47/249
f 456/47/249 452/48/249 457/45/248
f 459/49/250 458/50/250 450/51/248
f 450/51/248 457/52/248 459/49/250
f 456/47/249 460/53/251 455/54/251
f 455/54/251 452/48/249 456/47/249
f 455/54/251 460/53/251 462/55/252
f 462/55/252 461/56/252 455/54/251
f 463/50/253 461/51/252 462/52/252
f 462/52/252 464/49/253 463/50/253
s 108
f 467/197/254 466/198/255 465/199/255
f 465/199/255 468/200/254 467/197/254
f 470/199/256 473/198/256 469/197/133
f 469/197/133 471/200/133 470/199/256
f 466/201/255 472/202/257 476/203/257
f 476/203/257 465/204/255 466/201/255
f 474/201/258 473/202/256 470/203/256
f 470/203/256 478/204/258 474/201/258
f 469/205/133 467/197/254 468/200/254
f 468/200/254 471/206/133 469/205/133
s 109
f 465/207/1 476/208/1 475/209/1
f 475/209/1 468/210/1 465/207/1
f 468/210/1 475/209/1 477/211/1
f 477/211/1 471/212/1 468/210/1
f 471/210/1 477/209/1 478/208/1
f 478/208/1 470/207/1 471/210/1
s 110
f 484/207/2 480/210/2 479/209/2
f 479/209/2 486/208/2 484/207/2
f 481/211/2 479/209/2 480/210/2
f 480/210/2 485/212/2 481/211/2
f 485/210/2 483/207/2 482/208/2
f 482/208/2 481/209/2 485/210/2
s 108
f 480/200/254 484/199/255 466/198/255
f 466/198/255 467/197/254 480/200/254
f 483/199/256 485/200/133 469/197/133
f 469/197/133 473/198/256 483/199/256
f 484/204/255 486/203/257 472/202/257
f 472/202/257 466/201/255 484/204/255
f 482/204/258 483/203/256 473/202/256
f 473/202/256 474/201/258 482/204/258
f 485/206/133 480/200/254 467/197/254
f 467/197/254 469/205/133 485/206/133
s 111
f 487/213/4 489/214/4 490/215/4
f 490/215/4 488/216/4 487/213/4
s 112
f 489/217/5 493/218/5 494/219/5
f 494/219/5 490/220/5 489/217/5
s 113
f 493/215/3 492/216/3 491/213/3
f 491/213/3 494/214/3 493/215/3
s 114
f 496/180/2 495/182/2 501/183/2
f 495/182/2 496/180/2 497/181/2
s 115
f 500/180/1 498/182/1 499/183/1
f 498/182/1 500/180/1 502/181/1
s 116
f 499/188/4 497/190/4 496/189/4
f 497/190/4 499/188/4 498/187/4
s 117
f 501/188/259 502/190/259 500/189/259
f 502/190/259 501/188/259 495/187/259
s 118
f 495/184/12 497/186/12 502/185/12
f 502/186/12 497/185/12 498/184/12
s 119
g NarukamiShrine_mesh.088_Lamps_B
usemtl Lamps_B
f 507/221/260 505/222/261 506/223/260
f 505/222/261 507/221/260 508/224/262
f 509/225/263 505/222/261 508/224/262
f 505/222/261 509/225/263 510/226/264
s 120
f 513/221/265 511/227/266 512/228/265
f 511/227/266 513/221/265 514/229/267
f 515/230/268 511/227/266 514/229/267
f 511/227/266 515/230/268 516/231/269
s 121
f 519/228/270 517/232/271 518/221/270
f 517/232/271 519/228/270 520/233/272
f 521/226/273 517/232/271 520/233/272
f 517/232/271 521/226/273 522/225/274
s 122
f 525/228/275 523/232/276 524/221/275
f 523/232/276 525/228/275 526/233/277
f 527/226/278 523/232/276 526/233/277
f 523/232/276 527/226/278 528/225/279
s 123
f 529/234/5 531/235/5 530/236/5
