# Blender 5.0.1
# www.blender.org
mtllib letrero.mtl
g Letrero_v2_Mesh
v 0.089098 0.002071 0.327029
v 0.262597 0.002070 0.200975
v 0.328868 0.002070 -0.002986
v 0.262597 0.002070 -0.206947
v 0.089098 0.002071 -0.333001
v -0.125359 0.002071 -0.333001
v -0.298858 0.002071 -0.206947
v -0.365129 0.002071 -0.002986
v -0.298858 0.002071 0.200974
v -0.125359 0.002071 0.327029
v 0.089099 7.913167 0.327029
v 0.262598 7.913167 0.200975
v 0.328869 7.913167 -0.002986
v 0.262598 7.913167 -0.206947
v 0.089099 7.913167 -0.333001
v -0.125358 7.913167 -0.333001
v -0.309461 7.908626 -0.194724
v -0.336773 7.909323 -0.158272
v -0.370954 7.910938 -0.016805
v -0.302009 7.911817 0.204608
v -0.103843 7.911692 0.334585
v -0.043539 7.909459 0.341705
v -0.292879 7.907399 -0.147833
v -0.065444 7.910159 0.298195
v -0.301640 7.798305 -0.173194
v -0.053083 7.778769 0.318137
v -0.781692 5.377240 2.272410
v -0.787427 7.106339 2.415179
v -0.440708 7.106339 2.429107
v -0.434973 5.377240 2.286338
v -0.616952 7.457312 -1.828668
v -0.576320 6.659767 -2.840200
v -0.616117 5.718127 -1.849482
v -0.269623 5.717665 -1.829962
v -0.229793 6.645734 -2.811903
v -0.269971 7.457854 -1.821280
v -0.785517 6.530476 2.367631
v -0.785825 6.623814 2.375338
v -0.439035 6.602040 2.387467
v -0.438705 6.502580 2.379256
v -0.427825 6.566848 2.108407
v -0.772098 6.592769 2.033585
v -0.785023 6.381693 2.355346
v -0.785199 6.434959 2.359745
v -0.778496 6.412551 2.192842
v -0.438422 6.416926 2.372183
v -0.438224 6.357376 2.367266
v -0.432779 6.397101 2.231745
v -0.604101 6.002421 -2.148593
v -0.606286 5.950733 -2.094211
v -0.612413 5.960876 -1.941687
v -0.260135 5.938739 -2.063870
v -0.257958 5.989460 -2.117534
v -0.266460 5.954907 -1.906179
v -0.422539 5.649910 0.034065
v -0.420541 5.666680 0.025470
v -0.418679 5.679961 0.012083
v -0.417135 5.688454 -0.004786
v -0.416060 5.691328 -0.023485
v -0.415560 5.688300 -0.042184
v -0.415683 5.679669 -0.059053
v -0.416418 5.666278 -0.072440
v -0.417693 5.649438 -0.081035
v -0.419381 5.630798 -0.083997
v -0.421320 5.612183 -0.081035
v -0.423318 5.595414 -0.072440
v -0.425180 5.582133 -0.059053
v -0.426724 5.573639 -0.042184
v -0.427798 5.570765 -0.023485
v -0.428299 5.573792 -0.004786
v -0.428175 5.582424 0.012083
v -0.427440 5.595815 0.025470
v -0.426166 5.612654 0.034065
v -0.424477 5.631294 0.037027
v -0.724331 5.679294 0.021238
v -0.722333 5.696064 0.012643
v -0.720471 5.709345 -0.000744
v -0.718927 5.717837 -0.017613
v -0.717852 5.720711 -0.036312
v -0.717352 5.717684 -0.055011
v -0.717476 5.709053 -0.071880
v -0.718211 5.695662 -0.085267
v -0.719485 5.678823 -0.093862
v -0.721174 5.660182 -0.096824
v -0.723112 5.641567 -0.093862
v -0.725110 5.624797 -0.085267
v -0.726972 5.611516 -0.071880
v -0.728516 5.603024 -0.055011
v -0.729591 5.600150 -0.036312
v -0.730091 5.603177 -0.017613
v -0.729967 5.611808 -0.000744
v -0.729233 5.625199 0.012643
v -0.727958 5.642039 0.021238
v -0.726269 5.660678 0.024200
v -0.422539 7.117964 0.034065
v -0.420541 7.134734 0.025470
v -0.418678 7.148015 0.012083
v -0.417135 7.156507 -0.004786
v -0.416060 7.159382 -0.023485
v -0.415560 7.156355 -0.042184
v -0.415683 7.147723 -0.059053
v -0.416418 7.134332 -0.072440
v -0.417692 7.117492 -0.081035
v -0.419381 7.098852 -0.083997
v -0.421320 7.080237 -0.081035
v -0.423318 7.063468 -0.072440
v -0.425180 7.050187 -0.059053
v -0.426724 7.041694 -0.042184
v -0.427798 7.038820 -0.023485
v -0.428298 7.041847 -0.004786
v -0.428175 7.050478 0.012083
v -0.427440 7.063869 0.025470
v -0.426166 7.080709 0.034065
v -0.424477 7.099349 0.037027
v -0.724331 7.147348 0.021238
v -0.722333 7.164117 0.012643
v -0.720471 7.177398 -0.000744
v -0.718927 7.185892 -0.017613
v -0.717852 7.188766 -0.036312
v -0.717352 7.185739 -0.055011
v -0.717476 7.177107 -0.071880
v -0.718211 7.163716 -0.085267
v -0.719485 7.146876 -0.093862
v -0.721174 7.128237 -0.096824
v -0.723112 7.109621 -0.093862
v -0.725110 7.092851 -0.085267
v -0.726972 7.079570 -0.071880
v -0.728516 7.071077 -0.055011
v -0.729591 7.068204 -0.036312
v -0.730091 7.071231 -0.017613
v -0.729967 7.079862 -0.000744
v -0.729233 7.093253 0.012643
v -0.727958 7.110093 0.021238
v -0.726269 7.128733 0.024200
vn 0.3260 -0.0003 0.9454
vn 0.8090 -0.0000 0.5878
vn 0.3272 -0.0003 0.9450
vn 1.0000 -0.0000 -0.0000
vn 0.8090 -0.0000 -0.5878
vn 0.3090 -0.0000 -0.9511
vn -0.3177 0.0001 -0.9482
vn -0.3185 0.0002 -0.9479
vn -0.6875 -0.0002 -0.7262
vn -0.9484 -0.0012 -0.3170
vn -0.6500 0.2212 -0.7270
vn -1.0000 -0.0010 0.0096
vn -0.8024 -0.0001 0.5968
vn -0.8022 -0.0001 0.5971
vn -0.3053 -0.0003 0.9522
vn -0.4068 -0.0000 0.9135
vn 0.0185 -0.0003 0.9998
vn -0.0043 1.0000 0.0004
vn -0.0043 1.0000 0.0005
vn -0.0044 1.0000 0.0005
vn -0.9482 -0.0014 -0.3176
vn 0.0469 0.1542 0.9869
vn 0.0177 -0.0007 0.9998
vn -0.9999 -0.0010 0.0105
vn -0.0033 0.9966 0.0823
vn 0.9992 -0.0004 0.0402
vn 0.9992 -0.0002 0.0402
vn 0.9992 -0.0000 0.0401
vn 0.0033 -0.9966 -0.0823
vn -0.0400 -0.0824 0.9958
vn 0.0618 0.2234 -0.9728
vn 0.0473 0.7794 -0.6247
vn 0.0602 0.1890 -0.9801
vn 0.0364 -0.7261 -0.6867
vn 0.0363 -0.7260 -0.6867
vn 0.0364 -0.7260 -0.6867
vn -0.9992 -0.0000 -0.0401
vn 0.0502 0.9772 0.2064
vn 0.0503 0.9772 0.2064
vn 0.0503 0.9772 0.2065
vn -0.0813 -0.9914 0.1025
vn -0.0814 -0.9914 0.1024
vn -0.0578 -0.9894 0.1336
vn -0.0577 -0.9893 0.1337
vn -0.0577 -0.9893 0.1336
vn 0.0388 0.9720 0.2317
vn 0.0388 0.9720 0.2318
vn 0.0305 -0.7261 -0.6869
vn 0.0338 0.9960 -0.0831
vn -0.0097 -0.9837 -0.1794
vn -0.0101 0.3115 0.9502
vn 0.0229 0.5883 0.8083
vn 0.0537 0.8076 0.5873
vn 0.0792 0.9478 0.3087
vn 0.0969 0.9953 -0.0000
vn 0.1052 0.9453 -0.3088
vn 0.1031 0.8028 -0.5873
vn 0.1052 0.9453 -0.3087
vn 0.0910 0.5817 -0.8083
vn 0.0700 0.3037 -0.9502
vn 0.0421 -0.0041 -0.9991
vn 0.0101 -0.3115 -0.9502
vn -0.0229 -0.5883 -0.8083
vn -0.0537 -0.8076 -0.5873
vn -0.0792 -0.9478 -0.3087
vn -0.0969 -0.9953 -0.0000
vn -0.1052 -0.9453 0.3087
vn -0.1031 -0.8028 0.5873
vn -0.0910 -0.5817 0.8083
vn -0.0700 -0.3037 0.9502
vn -0.0421 0.0041 0.9991
vn -0.9944 0.0968 -0.0423
vn 0.0792 0.9478 0.3088
vn -0.7990 -0.0007 -0.6013
vn -0.0044 1.0000 0.0004
vn 0.9992 -0.0001 0.0402
vn 0.9992 -0.0000 0.0400
vn 0.9992 -0.0000 0.0403
vn 0.9992 -0.0000 0.0405
vn 0.0306 -0.7261 -0.6869
vn 0.0337 0.9960 -0.0831
vn -0.9944 0.0968 -0.0422
vt 0.834939 0.400496
vt 0.811118 0.015055
vt 0.834939 0.015055
vt 0.811118 0.400497
vt 0.787296 0.015055
vt 0.787296 0.400497
vt 0.763474 0.015055
vt 0.763474 0.400496
vt 0.739653 0.015055
vt 0.675222 0.014705
vt 0.698461 0.400179
vt 0.674640 0.400143
vt 0.699043 0.014741
vt 0.724038 0.399997
vt 0.557305 0.400011
vt 0.559734 0.395137
vt 0.560798 0.401183
vt 0.592772 0.400442
vt 0.617561 0.015070
vt 0.618531 0.400439
vt 0.634107 0.401841
vt 0.659181 0.016597
vt 0.660428 0.401916
vt 0.533016 0.016663
vt 0.535995 0.394001
vt 0.518805 0.388091
vt 0.892984 0.184315
vt 0.897549 0.239739
vt 0.876100 0.206974
vt 0.563863 0.399825
vt 0.517420 0.394855
vt 0.513011 0.393851
vt 0.521461 0.394046
vt 0.575976 0.022591
vt 0.579720 0.399759
vt 0.829497 0.756062
vt 0.291738 0.685400
vt 0.836533 0.712862
vt 0.822241 0.491254
vt 0.839784 0.517935
vt 0.327519 0.614321
vt 0.331982 0.420203
vt 0.819485 0.446604
vt 0.279244 0.793462
vt 0.248440 0.722151
vt 0.286799 0.730144
vt 0.983303 0.625301
vt 0.952127 0.599225
vt 0.845255 0.500244
vt 0.828014 0.447865
vt 0.864696 0.458697
vt 0.287409 0.829255
vt 0.283138 0.828076
vt 0.296949 0.831425
vt 0.790402 0.932076
vt 0.319255 0.804344
vt 0.293992 0.881761
vt 0.336969 0.973728
vt 0.298756 0.988636
vt 0.292753 0.811505
vt 0.283277 0.809091
vt 0.300674 0.827484
vt 0.292476 0.859655
vt 0.281056 0.854699
vt 0.308291 0.843696
vt 0.293002 0.864071
vt 0.313649 0.835793
vt 0.899957 0.497510
vt 0.983732 0.567792
vt 0.875940 0.487658
vt 0.872880 0.472723
vt 0.875657 0.489171
vt 0.865105 0.525184
vt 0.212442 0.012579
vt 0.222213 0.306454
vt 0.212442 0.306454
vt 0.231984 0.012579
vt 0.222213 0.012579
vt 0.241756 0.012579
vt 0.231984 0.306454
vt 0.251527 0.012579
vt 0.241756 0.306454
vt 0.261298 0.012579
vt 0.251527 0.306454
vt 0.271070 0.306454
vt 0.261298 0.306454
vt 0.280841 0.012579
vt 0.271070 0.012579
vt 0.290613 0.306454
vt 0.280841 0.306454
vt 0.290613 0.012579
vt 0.300384 0.306454
vt 0.300384 0.012579
vt 0.310155 0.306454
vt 0.319926 0.012579
vt 0.310155 0.012579
vt 0.329698 0.012579
vt 0.319926 0.306454
vt 0.339469 0.306454
vt 0.329698 0.306454
vt 0.339469 0.012579
vt 0.349241 0.306454
vt 0.349241 0.012579
vt 0.359012 0.306454
vt 0.368783 0.012579
vt 0.359012 0.012579
vt 0.378555 0.306454
vt 0.368783 0.306454
vt 0.388326 0.012579
vt 0.378555 0.012579
vt 0.398097 0.306454
vt 0.388326 0.306454
vt 0.407869 0.012579
vt 0.398097 0.012579
vt 0.102974 0.311676
vt 0.148433 0.377063
vt 0.100294 0.440502
vt 0.208404 0.306580
vt 0.198708 0.012702
vt 0.208479 0.012704
vt 0.198633 0.306577
vt 0.188936 0.012699
vt 0.179090 0.306572
vt 0.188861 0.306574
vt 0.169319 0.306570
vt 0.179165 0.012697
vt 0.159547 0.306567
vt 0.169394 0.012694
vt 0.149851 0.012689
vt 0.159622 0.012692
vt 0.140005 0.306562
vt 0.149776 0.306565
vt 0.130233 0.306560
vt 0.140080 0.012687
vt 0.120537 0.012681
vt 0.130308 0.012684
vt 0.110691 0.306555
vt 0.120462 0.306557
vt 0.100919 0.306552
vt 0.110766 0.012679
vt 0.091148 0.306550
vt 0.100994 0.012676
vt 0.081376 0.306547
vt 0.091223 0.012674
vt 0.071680 0.012669
vt 0.081451 0.012672
vt 0.071605 0.306545
vt 0.061909 0.012667
vt 0.052062 0.306540
vt 0.061834 0.306542
vt 0.042291 0.306537
vt 0.052137 0.012664
vt 0.032595 0.012659
vt 0.042366 0.012662
vt 0.032520 0.306535
vt 0.022823 0.012657
vt 0.012977 0.306530
vt 0.024068 0.306533
vt 0.242674 0.444042
vt 0.175541 0.401205
vt 0.195537 0.324120
vt 0.739653 0.400496
vt 0.722864 0.014776
vt 0.593740 0.015113
vt 0.635363 0.016524
vt 0.509700 0.016890
vt 0.892511 0.178925
vt 0.905901 0.172563
vt 0.929655 0.174338
vt 0.947830 0.189737
vt 0.953483 0.212877
vt 0.944454 0.234921
vt 0.924194 0.247448
vt 0.898722 0.245138
vt 0.894011 0.243290
vt 0.882519 0.231920
vt 0.887230 0.183120
vt 0.552641 0.022670
vt 0.303459 0.587026
vt 0.325889 0.463591
vt 0.315491 0.591745
vt 0.291601 0.622680
vt 0.294307 0.593967
vt 0.299785 0.585866
vt 0.232820 0.779022
vt 0.878902 0.734863
vt 0.277550 0.837224
vt 0.771236 0.956684
vt 0.804331 0.943216
vt 0.920502 0.898476
vt 0.814374 0.929897
vt 0.253949 0.801132
vt 0.294053 0.876336
vt 0.894911 0.495729
vt 0.407869 0.306454
vt 0.079296 0.443382
vt 0.058436 0.439632
vt 0.039755 0.429619
vt 0.025083 0.414323
vt 0.015856 0.395243
vt 0.012977 0.374245
vt 0.016727 0.353384
vt 0.026740 0.334704
vt 0.042035 0.320032
vt 0.082114 0.307926
vt 0.061116 0.310805
vt 0.121654 0.321689
vt 0.136326 0.336984
vt 0.145554 0.356065
vt 0.144682 0.397923
vt 0.134670 0.416603
vt 0.119374 0.431275
vt 0.013052 0.012654
vt 0.275028 0.319316
vt 0.290891 0.333372
vt 0.301635 0.351641
vt 0.306207 0.372337
vt 0.304161 0.393433
vt 0.295695 0.412863
vt 0.281640 0.428726
vt 0.263370 0.439470
vt 0.221579 0.441996
vt 0.202148 0.433530
vt 0.186285 0.419475
vt 0.170969 0.380509
vt 0.173015 0.359414
vt 0.181481 0.339983
vt 0.213806 0.313376
vt 0.234502 0.308804
vt 0.255597 0.310850
s 1
g off
g Letrero_v2_Material.001
usemtl Material.001
f 1/1/1 12/2/2 11/3/3
f 2/4/2 13/5/4 12/2/2
f 3/6/4 14/7/5 13/5/4
f 4/8/5 15/9/6 14/7/5
f 5/10/6 16/11/7 15/12/6
f 6/13/8 17/14/9 16/11/7
f 17/15/9 25/16/10 23/17/11
f 19/18/12 9/19/13 20/20/14
f 20/21/14 10/22/15 21/23/16
f 1/24/1 11/25/3 26/26/17
s 2
f 24/27/18 23/28/19 20/29/20
s 1
f 18/30/21 23/17/11 25/16/10
f 26/26/17 24/31/22 21/32/16
f 22/33/23 24/31/22 26/26/17
f 8/34/24 19/35/12 25/16/10
s 3
f 31/36/25 29/37/25 36/38/25
s 4
f 34/39/26 54/40/27 41/41/28
s 5
f 34/39/29 27/42/29 33/43/29
s 6
f 38/44/30 29/45/30 28/46/30
s 7
f 32/47/31 36/38/32 35/48/33
s 8
f 52/49/34 33/50/35 50/51/36
s 9
f 44/52/30 40/53/30 37/54/30
s 10
f 31/36/37 51/55/37 42/56/37
s 11
f 47/57/30 27/58/30 30/59/30
s 12
f 37/54/38 41/60/39 42/56/40
s 13
f 41/61/41 38/44/42 42/56/41
s 14
f 44/62/43 48/63/44 46/64/45
s 15
f 43/65/46 48/66/47 45/67/47
s 7
f 35/48/33 49/68/48 32/69/31
s 16
f 51/70/49 52/49/49 50/71/49
s 17
f 51/72/50 53/73/50 54/40/50
s 18
f 55/74/51 76/75/52 75/76/51
f 57/77/53 76/75/52 56/78/52
f 58/79/54 77/80/53 57/77/53
f 59/81/55 78/82/54 58/79/54
f 60/83/56 79/84/55 59/81/55
f 60/83/56 81/85/57 80/86/58
f 62/87/59 81/85/57 61/88/57
f 62/87/59 83/89/60 82/90/59
f 63/91/60 84/92/61 83/89/60
f 64/93/61 85/94/62 84/92/61
f 66/95/63 85/94/62 65/96/62
f 67/97/64 86/98/63 66/95/63
f 67/97/64 88/99/65 87/100/64
f 68/101/65 89/102/66 88/99/65
f 69/103/66 90/104/67 89/102/66
f 71/105/68 90/104/67 70/106/67
f 71/105/68 92/107/69 91/108/68
f 73/109/70 92/107/69 72/110/69
f 73/109/70 94/111/71 93/112/70
f 55/113/51 94/111/71 74/114/71
s 19
f 85/115/72 89/116/72 93/117/72
s 20
f 95/118/51 116/119/52 115/120/51
f 96/121/52 117/122/53 116/119/52
f 98/123/73 117/122/53 97/124/53
f 99/125/55 118/126/54 98/123/73
f 100/127/58 119/128/55 99/125/55
f 100/127/58 121/129/57 120/130/58
f 102/131/59 121/129/57 101/132/57
f 103/133/60 122/134/59 102/131/59
f 103/133/60 124/135/61 123/136/60
f 105/137/62 124/135/61 104/138/61
f 106/139/63 125/140/62 105/137/62
f 107/141/64 126/142/63 106/139/63
f 108/143/65 127/144/64 107/141/64
f 108/143/65 129/145/66 128/146/65
f 109/147/66 130/148/67 129/145/66
f 111/149/68 130/148/67 110/150/67
f 112/151/69 131/152/68 111/149/68
f 112/151/69 133/153/70 132/154/69
f 113/155/70 134/156/71 133/153/70
f 95/157/51 134/156/71 114/158/71
s 21
f 121/159/72 125/160/72 129/161/72
s 1
f 1/1/1 2/4/2 12/2/2
f 2/4/2 3/6/4 13/5/4
f 3/6/4 4/8/5 14/7/5
f 4/8/5 5/162/6 15/9/6
f 5/10/6 6/13/8 16/11/7
f 6/13/8 7/163/74 17/14/9
f 19/18/12 8/164/24 9/19/13
f 20/21/14 9/165/13 10/22/15
f 11/25/3 22/33/23 26/26/17
f 26/26/17 21/32/16 10/166/15
f 10/166/15 1/24/1 26/26/17
s 2
f 24/27/18 22/167/75 11/168/75
f 11/168/75 12/169/75 24/27/18
f 12/169/75 13/170/20 24/27/18
f 13/170/20 14/171/20 24/27/18
f 14/171/20 15/172/20 23/28/19
f 24/27/18 14/171/20 23/28/19
f 15/172/20 16/173/75 23/28/19
f 16/173/75 17/174/19 23/28/19
f 23/28/19 18/175/19 19/176/75
f 20/29/20 21/177/18 24/27/18
f 23/28/19 19/176/75 20/29/20
s 1
f 19/35/12 18/30/21 25/16/10
f 25/16/10 17/15/9 7/178/74
f 7/178/74 8/34/24 25/16/10
s 3
f 31/36/25 28/46/25 29/37/25
s 4
f 47/179/28 30/180/28 48/181/28
f 30/180/28 34/39/26 41/41/28
f 48/181/28 30/180/28 41/41/28
f 34/39/26 52/49/76 54/40/27
f 54/40/27 53/73/77 36/38/78
f 53/73/77 35/48/79 36/38/78
f 36/38/78 29/37/28 41/41/28
f 29/37/28 39/182/28 41/41/28
f 41/41/28 40/183/28 48/181/28
f 40/183/28 46/184/28 48/181/28
f 36/38/78 41/41/28 54/40/27
s 5
f 34/39/29 30/180/29 27/42/29
s 6
f 38/44/30 39/185/30 29/45/30
s 7
f 32/47/31 31/186/32 36/38/32
s 8
f 52/49/34 34/39/36 33/50/35
s 9
f 44/52/30 46/187/30 40/53/30
s 10
f 33/188/37 27/58/37 42/56/37
f 27/58/37 43/65/37 45/67/37
f 45/67/37 44/62/37 37/54/37
f 27/58/37 45/67/37 42/56/37
f 51/55/37 50/189/37 33/188/37
f 32/190/37 49/191/37 31/36/37
f 49/191/37 51/55/37 31/36/37
f 28/46/37 31/36/37 42/56/37
f 42/56/37 38/44/37 28/46/37
f 45/67/37 37/54/37 42/56/37
f 51/55/37 33/188/37 42/56/37
s 11
f 47/57/30 43/65/30 27/58/30
s 12
f 37/54/38 40/53/40 41/60/39
s 13
f 41/61/41 39/192/41 38/44/42
s 14
f 44/62/43 45/67/45 48/63/44
s 15
f 43/65/46 47/193/47 48/66/47
s 7
f 35/48/33 53/73/80 49/68/48
s 16
f 51/70/49 54/40/81 52/49/49
s 17
f 51/72/50 49/194/50 53/73/50
s 18
f 55/74/51 56/78/52 76/75/52
f 57/77/53 77/80/53 76/75/52
f 58/79/54 78/82/54 77/80/53
f 59/81/55 79/84/55 78/82/54
f 60/83/56 80/86/58 79/84/55
f 60/83/56 61/88/57 81/85/57
f 62/87/59 82/90/59 81/85/57
f 62/87/59 63/91/60 83/89/60
f 63/91/60 64/93/61 84/92/61
f 64/93/61 65/96/62 85/94/62
f 66/95/63 86/98/63 85/94/62
f 67/97/64 87/100/64 86/98/63
f 67/97/64 68/101/65 88/99/65
f 68/101/65 69/103/66 89/102/66
f 69/103/66 70/106/67 90/104/67
f 71/105/68 91/108/68 90/104/67
f 71/105/68 72/110/69 92/107/69
f 73/109/70 93/112/70 92/107/69
f 73/109/70 74/114/71 94/111/71
f 55/113/51 75/195/51 94/111/71
s 19
f 93/117/72 94/196/72 75/197/72
f 75/197/72 76/198/72 93/117/72
f 76/198/72 77/199/72 78/200/72
f 93/117/72 76/198/72 78/200/72
f 78/200/72 79/201/72 93/117/72
f 79/201/72 80/202/72 81/203/72
f 81/203/72 82/204/82 84/205/72
f 82/204/82 83/206/82 84/205/72
f 84/205/72 85/115/72 81/203/72
f 85/115/72 86/207/72 87/208/72
f 87/208/72 88/209/72 89/116/72
f 89/116/72 90/210/72 91/211/72
f 91/211/72 92/212/72 89/116/72
f 92/212/72 93/117/72 89/116/72
f 79/201/72 81/203/72 85/115/72
f 93/117/72 79/201/72 85/115/72
f 85/115/72 87/208/72 89/116/72
s 20
f 95/118/51 96/121/52 116/119/52
f 96/121/52 97/124/53 117/122/53
f 98/123/73 118/126/54 117/122/53
f 99/125/55 119/128/55 118/126/54
f 100/127/58 120/130/58 119/128/55
f 100/127/58 101/132/57 121/129/57
f 102/131/59 122/134/59 121/129/57
f 103/133/60 123/136/60 122/134/59
f 103/133/60 104/138/61 124/135/61
f 105/137/62 125/140/62 124/135/61
f 106/139/63 126/142/63 125/140/62
f 107/141/64 127/144/64 126/142/63
f 108/143/65 128/146/65 127/144/64
f 108/143/65 109/147/66 129/145/66
f 109/147/66 110/150/67 130/148/67
f 111/149/68 131/152/68 130/148/67
f 112/151/69 132/154/69 131/152/68
f 112/151/69 113/155/70 133/153/70
f 113/155/70 114/158/71 134/156/71
f 95/157/51 115/213/51 134/156/71
s 21
f 133/214/72 134/215/72 115/216/72
f 115/216/72 116/217/72 133/214/72
f 116/217/72 117/218/72 133/214/72
f 117/218/72 118/219/82 119/220/72
f 119/220/72 120/221/72 117/218/72
f 120/221/72 121/159/72 117/218/72
f 121/159/72 122/222/82 123/223/82
f 123/223/82 124/224/72 121/159/72
f 124/224/72 125/160/72 121/159/72
f 125/160/72 126/225/72 127/226/72
f 127/226/72 128/227/72 125/160/72
f 128/227/72 129/161/72 125/160/72
f 129/161/72 130/228/72 131/229/72
f 131/229/72 132/230/72 133/214/72
f 129/161/72 131/229/72 133/214/72
f 133/214/72 117/218/72 129/161/72
f 117/218/72 121/159/72 129/161/72
