# Blender 5.0.1
# www.blender.org
mtllib Madera_vias.mtl
g default_Mesh
v 3.967106 -0.029795 -0.792398
v 3.967106 0.320084 -0.792398
v 0.999895 0.320084 -0.792398
v 0.999895 -0.029795 -0.792398
v 3.967106 -0.029795 -0.792398
v 0.999895 0.320084 -0.792398
v 0.999895 -0.029795 -0.110338
v 0.999895 0.320084 -0.110338
v 3.967106 0.320084 -0.110338
v 3.967106 -0.029795 -0.110338
v 0.999895 -0.029795 -0.110338
v 3.967106 0.320084 -0.110338
v 3.967106 -0.029795 -0.110338
v 3.967106 0.320084 -0.110338
v 3.967106 0.320084 -0.792398
v 3.967106 -0.029795 -0.792398
v 3.967106 -0.029795 -0.110338
v 3.967106 0.320084 -0.792398
v 0.999895 -0.029795 -0.792398
v 0.999895 0.320084 -0.792398
v 0.999895 0.320084 -0.110338
v 0.999895 -0.029795 -0.110338
v 0.999895 -0.029795 -0.792398
v 0.999895 0.320084 -0.110338
v 3.967106 0.320084 -0.792398
v 3.967106 0.320084 -0.110338
v 0.999895 0.320084 -0.110338
v 0.999895 0.320084 -0.792398
v 3.967106 0.320084 -0.792398
v 0.999895 0.320084 -0.110338
v 0.999895 -0.029795 -0.792398
v 0.999895 -0.029795 -0.110338
v 3.967106 -0.029795 -0.110338
v 3.967106 -0.029795 -0.792398
v 0.999895 -0.029795 -0.792398
v 3.967106 -0.029795 -0.110338
v 3.967106 -0.029795 3.128801
v 3.967106 0.320084 3.128801
v 0.999895 0.320084 3.128801
v 0.999895 -0.029795 3.128801
v 3.967106 -0.029795 3.128801
v 0.999895 0.320084 3.128801
v 0.999895 -0.029795 3.810861
v 0.999895 0.320084 3.810861
v 3.967106 0.320084 3.810861
v 3.967106 -0.029795 3.810861
v 0.999895 -0.029795 3.810861
v 3.967106 0.320084 3.810861
v 3.967106 -0.029795 3.810861
v 3.967106 0.320084 3.810861
v 3.967106 0.320084 3.128801
v 3.967106 -0.029795 3.128801
v 3.967106 -0.029795 3.810861
v 3.967106 0.320084 3.128801
v 0.999895 -0.029795 3.128801
v 0.999895 0.320084 3.128801
v 0.999895 0.320084 3.810861
v 0.999895 -0.029795 3.810861
v 0.999895 -0.029795 3.128801
v 0.999895 0.320084 3.810861
v 3.967106 0.320084 3.128801
v 3.967106 0.320084 3.810861
v 0.999895 0.320084 3.810861
v 0.999895 0.320084 3.128801
v 3.967106 0.320084 3.128801
v 0.999895 0.320084 3.810861
v 0.999895 -0.029795 3.128801
v 0.999895 -0.029795 3.810861
v 3.967106 -0.029795 3.810861
v 3.967106 -0.029795 3.128801
v 0.999895 -0.029795 3.128801
v 3.967106 -0.029795 3.810861
v 3.967106 -0.029795 1.156413
v 3.967106 0.320084 1.156413
v 0.999895 0.320084 1.156412
v 0.999895 -0.029795 1.156412
v 3.967106 -0.029795 1.156413
v 0.999895 0.320084 1.156412
v 0.999895 -0.029795 1.838474
v 0.999895 0.320084 1.838474
v 3.967106 0.320084 1.838474
v 3.967106 -0.029795 1.838474
v 0.999895 -0.029795 1.838474
v 3.967106 0.320084 1.838474
v 3.967106 -0.029795 1.838474
v 3.967106 0.320084 1.838474
v 3.967106 0.320084 1.156413
v 3.967106 -0.029795 1.156413
v 3.967106 -0.029795 1.838474
v 3.967106 0.320084 1.156413
v 0.999895 -0.029795 1.156412
v 0.999895 0.320084 1.156412
v 0.999895 0.320084 1.838474
v 0.999895 -0.029795 1.838474
v 0.999895 -0.029795 1.156412
v 0.999895 0.320084 1.838474
v 3.967106 0.320084 1.156413
v 3.967106 0.320084 1.838474
v 0.999895 0.320084 1.838474
v 0.999895 0.320084 1.156412
v 3.967106 0.320084 1.156413
v 0.999895 0.320084 1.838474
v 0.999895 -0.029795 1.156412
v 0.999895 -0.029795 1.838474
v 3.967106 -0.029795 1.838474
v 3.967106 -0.029795 1.156413
v 0.999895 -0.029795 1.156412
v 3.967106 -0.029795 1.838474
v 3.967106 -0.029795 5.139170
v 3.967106 0.320084 5.139170
v 0.999895 0.320084 5.139170
v 0.999895 -0.029795 5.139170
v 3.967106 -0.029795 5.139170
v 0.999895 0.320084 5.139170
v 0.999895 -0.029795 5.821229
v 0.999895 0.320084 5.821229
v 3.967106 0.320084 5.821230
v 3.967106 -0.029795 5.821230
v 0.999895 -0.029795 5.821229
v 3.967106 0.320084 5.821230
v 3.967106 -0.029795 5.821230
v 3.967106 0.320084 5.821230
v 3.967106 0.320084 5.139170
v 3.967106 -0.029795 5.139170
v 3.967106 -0.029795 5.821230
v 3.967106 0.320084 5.139170
v 0.999895 -0.029795 5.139170
v 0.999895 0.320084 5.139170
v 0.999895 0.320084 5.821229
v 0.999895 -0.029795 5.821229
v 0.999895 -0.029795 5.139170
v 0.999895 0.320084 5.821229
v 3.967106 0.320084 5.139170
v 3.967106 0.320084 5.821230
v 0.999895 0.320084 5.821229
v 0.999895 0.320084 5.139170
v 3.967106 0.320084 5.139170
v 0.999895 0.320084 5.821229
v 0.999895 -0.029795 5.139170
v 0.999895 -0.029795 5.821229
v 3.967106 -0.029795 5.821230
v 3.967106 -0.029795 5.139170
v 0.999895 -0.029795 5.139170
v 3.967106 -0.029795 5.821230
v 3.967105 -0.029795 7.142199
v 3.967105 0.320084 7.142199
v 0.999895 0.320084 7.142199
v 0.999895 -0.029795 7.142199
v 3.967105 -0.029795 7.142199
v 0.999895 0.320084 7.142199
v 0.999895 -0.029795 7.824258
v 0.999895 0.320084 7.824258
v 3.967105 0.320084 7.824259
v 3.967105 -0.029795 7.824259
v 0.999895 -0.029795 7.824258
v 3.967105 0.320084 7.824259
v 3.967105 -0.029795 7.824259
v 3.967105 0.320084 7.824259
v 3.967105 0.320084 7.142199
v 3.967105 -0.029795 7.142199
v 3.967105 -0.029795 7.824259
v 3.967105 0.320084 7.142199
v 0.999895 -0.029795 7.142199
v 0.999895 0.320084 7.142199
v 0.999895 0.320084 7.824258
v 0.999895 -0.029795 7.824258
v 0.999895 -0.029795 7.142199
v 0.999895 0.320084 7.824258
v 3.967105 0.320084 7.142199
v 3.967105 0.320084 7.824259
v 0.999895 0.320084 7.824258
v 0.999895 0.320084 7.142199
v 3.967105 0.320084 7.142199
v 0.999895 0.320084 7.824258
v 0.999895 -0.029795 7.142199
v 0.999895 -0.029795 7.824258
v 3.967105 -0.029795 7.824259
v 3.967105 -0.029795 7.142199
v 0.999895 -0.029795 7.142199
v 3.967105 -0.029795 7.824259
v 3.967105 -0.029795 9.161904
v 3.967105 0.320084 9.161904
v 0.999894 0.320084 9.161904
v 0.999894 -0.029795 9.161904
v 3.967105 -0.029795 9.161904
v 0.999894 0.320084 9.161904
v 0.999894 -0.029795 9.843965
v 0.999894 0.320084 9.843965
v 3.967105 0.320084 9.843965
v 3.967105 -0.029795 9.843965
v 0.999894 -0.029795 9.843965
v 3.967105 0.320084 9.843965
v 3.967105 -0.029795 9.843965
v 3.967105 0.320084 9.843965
v 3.967105 0.320084 9.161904
v 3.967105 -0.029795 9.161904
v 3.967105 -0.029795 9.843965
v 3.967105 0.320084 9.161904
v 0.999894 -0.029795 9.161904
v 0.999894 0.320084 9.161904
v 0.999894 0.320084 9.843965
v 0.999894 -0.029795 9.843965
v 0.999894 -0.029795 9.161904
v 0.999894 0.320084 9.843965
v 3.967105 0.320084 9.161904
v 3.967105 0.320084 9.843965
v 0.999894 0.320084 9.843965
v 0.999894 0.320084 9.161904
v 3.967105 0.320084 9.161904
v 0.999894 0.320084 9.843965
v 0.999894 -0.029795 9.161904
v 0.999894 -0.029795 9.843965
v 3.967105 -0.029795 9.843965
v 3.967105 -0.029795 9.161904
v 0.999894 -0.029795 9.161904
v 3.967105 -0.029795 9.843965
v 3.967105 -0.029795 11.166390
v 3.967105 0.320084 11.166390
v 0.999894 0.320084 11.166390
v 0.999894 -0.029795 11.166390
v 3.967105 -0.029795 11.166390
v 0.999894 0.320084 11.166390
v 0.999894 -0.029795 11.848450
v 0.999894 0.320084 11.848450
v 3.967105 0.320084 11.848450
v 3.967105 -0.029795 11.848450
v 0.999894 -0.029795 11.848450
v 3.967105 0.320084 11.848450
v 3.967105 -0.029795 11.848450
v 3.967105 0.320084 11.848450
v 3.967105 0.320084 11.166390
v 3.967105 -0.029795 11.166390
v 3.967105 -0.029795 11.848450
v 3.967105 0.320084 11.166390
v 0.999894 -0.029795 11.166390
v 0.999894 0.320084 11.166390
v 0.999894 0.320084 11.848450
v 0.999894 -0.029795 11.848450
v 0.999894 -0.029795 11.166390
v 0.999894 0.320084 11.848450
v 3.967105 0.320084 11.166390
v 3.967105 0.320084 11.848450
v 0.999894 0.320084 11.848450
v 0.999894 0.320084 11.166390
v 3.967105 0.320084 11.166390
v 0.999894 0.320084 11.848450
v 0.999894 -0.029795 11.166390
v 0.999894 -0.029795 11.848450
v 3.967105 -0.029795 11.848450
v 3.967105 -0.029795 11.166390
v 0.999894 -0.029795 11.166390
v 3.967105 -0.029795 11.848450
v 3.967105 -0.029796 13.163560
v 3.967105 0.320084 13.163560
v 0.999894 0.320084 13.163560
v 0.999894 -0.029796 13.163560
v 3.967105 -0.029796 13.163560
v 0.999894 0.320084 13.163560
v 0.999893 -0.029795 13.845620
v 0.999893 0.320084 13.845620
v 3.967105 0.320084 13.845620
v 3.967105 -0.029795 13.845620
v 0.999893 -0.029795 13.845620
v 3.967105 0.320084 13.845620
v 3.967105 -0.029795 13.845620
v 3.967105 0.320084 13.845620
v 3.967105 0.320084 13.163560
v 3.967105 -0.029796 13.163560
v 3.967105 -0.029795 13.845620
v 3.967105 0.320084 13.163560
v 0.999894 -0.029796 13.163560
v 0.999894 0.320084 13.163560
v 0.999893 0.320084 13.845620
v 0.999893 -0.029795 13.845620
v 0.999894 -0.029796 13.163560
v 0.999893 0.320084 13.845620
v 3.967105 0.320084 13.163560
v 3.967105 0.320084 13.845620
v 0.999893 0.320084 13.845620
v 0.999894 0.320084 13.163560
v 3.967105 0.320084 13.163560
v 0.999893 0.320084 13.845620
v 0.999894 -0.029796 13.163560
v 0.999893 -0.029795 13.845620
v 3.967105 -0.029795 13.845620
v 3.967105 -0.029796 13.163560
v 0.999894 -0.029796 13.163560
v 3.967105 -0.029795 13.845620
v 3.967104 -0.029796 15.181800
v 3.967104 0.320083 15.181800
v 0.999893 0.320083 15.181800
v 0.999893 -0.029796 15.181800
v 3.967104 -0.029796 15.181800
v 0.999893 0.320083 15.181800
v 0.999893 -0.029796 15.863860
v 0.999893 0.320083 15.863860
v 3.967104 0.320083 15.863860
v 3.967104 -0.029796 15.863860
v 0.999893 -0.029796 15.863860
v 3.967104 0.320083 15.863860
v 3.967104 -0.029796 15.863860
v 3.967104 0.320083 15.863860
v 3.967104 0.320083 15.181800
v 3.967104 -0.029796 15.181800
v 3.967104 -0.029796 15.863860
v 3.967104 0.320083 15.181800
v 0.999893 -0.029796 15.181800
v 0.999893 0.320083 15.181800
v 0.999893 0.320083 15.863860
v 0.999893 -0.029796 15.863860
v 0.999893 -0.029796 15.181800
v 0.999893 0.320083 15.863860
v 3.967104 0.320083 15.181800
v 3.967104 0.320083 15.863860
v 0.999893 0.320083 15.863860
v 0.999893 0.320083 15.181800
v 3.967104 0.320083 15.181800
v 0.999893 0.320083 15.863860
v 0.999893 -0.029796 15.181800
v 0.999893 -0.029796 15.863860
v 3.967104 -0.029796 15.863860
v 3.967104 -0.029796 15.181800
v 0.999893 -0.029796 15.181800
v 3.967104 -0.029796 15.863860
v 3.967106 -0.029795 -2.822577
v 3.967106 0.320084 -2.822577
v 0.999895 0.320084 -2.822577
v 0.999895 -0.029795 -2.822577
v 3.967106 -0.029795 -2.822577
v 0.999895 0.320084 -2.822577
v 0.999895 -0.029795 -2.140517
v 0.999895 0.320084 -2.140517
v 3.967106 0.320084 -2.140517
v 3.967106 -0.029795 -2.140517
v 0.999895 -0.029795 -2.140517
v 3.967106 0.320084 -2.140517
v 3.967106 -0.029795 -2.140517
v 3.967106 0.320084 -2.140517
v 3.967106 0.320084 -2.822577
v 3.967106 -0.029795 -2.822577
v 3.967106 -0.029795 -2.140517
v 3.967106 0.320084 -2.822577
v 0.999895 -0.029795 -2.822577
v 0.999895 0.320084 -2.822577
v 0.999895 0.320084 -2.140517
v 0.999895 -0.029795 -2.140517
v 0.999895 -0.029795 -2.822577
v 0.999895 0.320084 -2.140517
v 3.967106 0.320084 -2.822577
v 3.967106 0.320084 -2.140517
v 0.999895 0.320084 -2.140517
v 0.999895 0.320084 -2.822577
v 3.967106 0.320084 -2.822577
v 0.999895 0.320084 -2.140517
v 0.999895 -0.029795 -2.822577
v 0.999895 -0.029795 -2.140517
v 3.967106 -0.029795 -2.140517
v 3.967106 -0.029795 -2.822577
v 0.999895 -0.029795 -2.822577
v 3.967106 -0.029795 -2.140517
v 3.967106 -0.029795 -4.845488
v 3.967106 0.320084 -4.845488
v 0.999895 0.320084 -4.845489
v 0.999895 -0.029795 -4.845489
v 3.967106 -0.029795 -4.845488
v 0.999895 0.320084 -4.845489
v 0.999895 -0.029795 -4.163427
v 0.999895 0.320084 -4.163427
v 3.967106 0.320084 -4.163427
v 3.967106 -0.029795 -4.163427
v 0.999895 -0.029795 -4.163427
v 3.967106 0.320084 -4.163427
v 3.967106 -0.029795 -4.163427
v 3.967106 0.320084 -4.163427
v 3.967106 0.320084 -4.845488
v 3.967106 -0.029795 -4.845488
v 3.967106 -0.029795 -4.163427
v 3.967106 0.320084 -4.845488
v 0.999895 -0.029795 -4.845489
v 0.999895 0.320084 -4.845489
v 0.999895 0.320084 -4.163427
v 0.999895 -0.029795 -4.163427
v 0.999895 -0.029795 -4.845489
v 0.999895 0.320084 -4.163427
v 3.967106 0.320084 -4.845488
v 3.967106 0.320084 -4.163427
v 0.999895 0.320084 -4.163427
v 0.999895 0.320084 -4.845489
v 3.967106 0.320084 -4.845488
v 0.999895 0.320084 -4.163427
v 0.999895 -0.029795 -4.845489
v 0.999895 -0.029795 -4.163427
v 3.967106 -0.029795 -4.163427
v 3.967106 -0.029795 -4.845488
v 0.999895 -0.029795 -4.845489
v 3.967106 -0.029795 -4.163427
v 3.967106 -0.029795 -6.817008
v 3.967106 0.320084 -6.817008
v 0.999895 0.320084 -6.817008
v 0.999895 -0.029795 -6.817008
v 3.967106 -0.029795 -6.817008
v 0.999895 0.320084 -6.817008
v 0.999895 -0.029795 -6.134948
v 0.999895 0.320085 -6.134948
v 3.967106 0.320085 -6.134948
v 3.967106 -0.029795 -6.134948
v 0.999895 -0.029795 -6.134948
v 3.967106 0.320085 -6.134948
v 3.967106 -0.029795 -6.134948
v 3.967106 0.320085 -6.134948
v 3.967106 0.320084 -6.817008
v 3.967106 -0.029795 -6.817008
v 3.967106 -0.029795 -6.134948
v 3.967106 0.320084 -6.817008
v 0.999895 -0.029795 -6.817008
v 0.999895 0.320084 -6.817008
v 0.999895 0.320085 -6.134948
v 0.999895 -0.029795 -6.134948
v 0.999895 -0.029795 -6.817008
v 0.999895 0.320085 -6.134948
v 3.967106 0.320084 -6.817008
v 3.967106 0.320085 -6.134948
v 0.999895 0.320085 -6.134948
v 0.999895 0.320084 -6.817008
v 3.967106 0.320084 -6.817008
v 0.999895 0.320085 -6.134948
v 0.999895 -0.029795 -6.817008
v 0.999895 -0.029795 -6.134948
v 3.967106 -0.029795 -6.134948
v 3.967106 -0.029795 -6.817008
v 0.999895 -0.029795 -6.817008
v 3.967106 -0.029795 -6.134948
v 3.967107 -0.029795 -8.811899
v 3.967107 0.320085 -8.811899
v 0.999896 0.320085 -8.811899
v 0.999896 -0.029795 -8.811899
v 3.967107 -0.029795 -8.811899
v 0.999896 0.320085 -8.811899
v 0.999895 -0.029795 -8.129839
v 0.999895 0.320085 -8.129839
v 3.967107 0.320085 -8.129839
v 3.967107 -0.029795 -8.129839
v 0.999895 -0.029795 -8.129839
v 3.967107 0.320085 -8.129839
v 3.967107 -0.029795 -8.129839
v 3.967107 0.320085 -8.129839
v 3.967107 0.320085 -8.811899
v 3.967107 -0.029795 -8.811899
v 3.967107 -0.029795 -8.129839
v 3.967107 0.320085 -8.811899
v 0.999896 -0.029795 -8.811899
v 0.999896 0.320085 -8.811899
v 0.999895 0.320085 -8.129839
v 0.999895 -0.029795 -8.129839
v 0.999896 -0.029795 -8.811899
v 0.999895 0.320085 -8.129839
v 3.967107 0.320085 -8.811899
v 3.967107 0.320085 -8.129839
v 0.999895 0.320085 -8.129839
v 0.999896 0.320085 -8.811899
v 3.967107 0.320085 -8.811899
v 0.999895 0.320085 -8.129839
v 0.999896 -0.029795 -8.811899
v 0.999895 -0.029795 -8.129839
v 3.967107 -0.029795 -8.129839
v 3.967107 -0.029795 -8.811899
v 0.999896 -0.029795 -8.811899
v 3.967107 -0.029795 -8.129839
v 3.967107 -0.029794 -10.834840
v 3.967107 0.320085 -10.834840
v 0.999896 0.320085 -10.834840
v 0.999896 -0.029794 -10.834840
v 3.967107 -0.029794 -10.834840
v 0.999896 0.320085 -10.834840
v 0.999896 -0.029794 -10.152780
v 0.999896 0.320085 -10.152780
v 3.967107 0.320085 -10.152780
v 3.967107 -0.029794 -10.152780
v 0.999896 -0.029794 -10.152780
v 3.967107 0.320085 -10.152780
v 3.967107 -0.029794 -10.152780
v 3.967107 0.320085 -10.152780
v 3.967107 0.320085 -10.834840
v 3.967107 -0.029794 -10.834840
v 3.967107 -0.029794 -10.152780
v 3.967107 0.320085 -10.834840
v 0.999896 -0.029794 -10.834840
v 0.999896 0.320085 -10.834840
v 0.999896 0.320085 -10.152780
v 0.999896 -0.029794 -10.152780
v 0.999896 -0.029794 -10.834840
v 0.999896 0.320085 -10.152780
v 3.967107 0.320085 -10.834840
v 3.967107 0.320085 -10.152780
v 0.999896 0.320085 -10.152780
v 0.999896 0.320085 -10.834840
v 3.967107 0.320085 -10.834840
v 0.999896 0.320085 -10.152780
v 0.999896 -0.029794 -10.834840
v 0.999896 -0.029794 -10.152780
v 3.967107 -0.029794 -10.152780
v 3.967107 -0.029794 -10.834840
v 0.999896 -0.029794 -10.834840
v 3.967107 -0.029794 -10.152780
v 3.967107 -0.029794 -12.833260
v 3.967107 0.320085 -12.833260
v 0.999896 0.320085 -12.833260
v 0.999896 -0.029794 -12.833260
v 3.967107 -0.029794 -12.833260
v 0.999896 0.320085 -12.833260
v 0.999896 -0.029794 -12.151200
v 0.999896 0.320085 -12.151200
v 3.967107 0.320085 -12.151200
v 3.967107 -0.029794 -12.151200
v 0.999896 -0.029794 -12.151200
v 3.967107 0.320085 -12.151200
v 3.967107 -0.029794 -12.151200
v 3.967107 0.320085 -12.151200
v 3.967107 0.320085 -12.833260
v 3.967107 -0.029794 -12.833260
v 3.967107 -0.029794 -12.151200
v 3.967107 0.320085 -12.833260
v 0.999896 -0.029794 -12.833260
v 0.999896 0.320085 -12.833260
v 0.999896 0.320085 -12.151200
v 0.999896 -0.029794 -12.151200
v 0.999896 -0.029794 -12.833260
v 0.999896 0.320085 -12.151200
v 3.967107 0.320085 -12.833260
v 3.967107 0.320085 -12.151200
v 0.999896 0.320085 -12.151200
v 0.999896 0.320085 -12.833260
v 3.967107 0.320085 -12.833260
v 0.999896 0.320085 -12.151200
v 0.999896 -0.029794 -12.833260
v 0.999896 -0.029794 -12.151200
v 3.967107 -0.029794 -12.151200
v 3.967107 -0.029794 -12.833260
v 0.999896 -0.029794 -12.833260
v 3.967107 -0.029794 -12.151200
v 3.967107 -0.029794 -14.851610
v 3.967107 0.320085 -14.851610
v 0.999897 0.320085 -14.851610
v 0.999897 -0.029794 -14.851610
v 3.967107 -0.029794 -14.851610
v 0.999897 0.320085 -14.851610
v 0.999897 -0.029794 -14.169550
v 0.999897 0.320085 -14.169550
v 3.967107 0.320085 -14.169550
v 3.967107 -0.029794 -14.169550
v 0.999897 -0.029794 -14.169550
v 3.967107 0.320085 -14.169550
v 3.967107 -0.029794 -14.169550
v 3.967107 0.320085 -14.169550
v 3.967107 0.320085 -14.851610
v 3.967107 -0.029794 -14.851610
v 3.967107 -0.029794 -14.169550
v 3.967107 0.320085 -14.851610
v 0.999897 -0.029794 -14.851610
v 0.999897 0.320085 -14.851610
v 0.999897 0.320085 -14.169550
v 0.999897 -0.029794 -14.169550
v 0.999897 -0.029794 -14.851610
v 0.999897 0.320085 -14.169550
v 3.967107 0.320085 -14.851610
v 3.967107 0.320085 -14.169550
v 0.999897 0.320085 -14.169550
v 0.999897 0.320085 -14.851610
v 3.967107 0.320085 -14.851610
v 0.999897 0.320085 -14.169550
v 0.999897 -0.029794 -14.851610
v 0.999897 -0.029794 -14.169550
v 3.967107 -0.029794 -14.169550
v 3.967107 -0.029794 -14.851610
v 0.999897 -0.029794 -14.851610
v 3.967107 -0.029794 -14.169550
v 3.967106 -0.029795 5.139170
v 3.967106 0.320084 5.139170
v 0.999895 0.320084 5.139170
v 0.999895 -0.029795 5.139170
v 3.967106 -0.029795 5.139170
v 0.999895 0.320084 5.139170
v 0.999895 -0.029795 5.821229
v 0.999895 0.320084 5.821229
v 3.967106 0.320084 5.821230
v 3.967106 -0.029795 5.821230
v 0.999895 -0.029795 5.821229
v 3.967106 0.320084 5.821230
v 3.967106 -0.029795 5.821230
v 3.967106 0.320084 5.821230
v 3.967106 0.320084 5.139170
v 3.967106 -0.029795 5.139170
v 3.967106 -0.029795 5.821230
v 3.967106 0.320084 5.139170
v 0.999895 -0.029795 5.139170
v 0.999895 0.320084 5.139170
v 0.999895 0.320084 5.821229
v 0.999895 -0.029795 5.821229
v 0.999895 -0.029795 5.139170
v 0.999895 0.320084 5.821229
v 3.967106 0.320084 5.139170
v 3.967106 0.320084 5.821230
v 0.999895 0.320084 5.821229
v 0.999895 0.320084 5.139170
v 3.967106 0.320084 5.139170
v 0.999895 0.320084 5.821229
v 0.999895 -0.029795 5.139170
v 0.999895 -0.029795 5.821229
v 3.967106 -0.029795 5.821230
v 3.967106 -0.029795 5.139170
v 0.999895 -0.029795 5.139170
v 3.967106 -0.029795 5.821230
vn -0.0000 -0.0000 -1.0000
vn -0.0000 -0.0000 1.0000
vn 1.0000 -0.0000 -0.0000
vn -1.0000 -0.0000 -0.0000
vn -0.0000 1.0000 -0.0000
vn -0.0000 -1.0000 -0.0000
vt 1.000000 1.000000
vt 0.000000 1.000000
vt 0.000000 0.000000
vt 1.000000 0.000000
vt 0.998429 1.011435
vt -0.001566 1.006695
vt 0.000706 0.006700
vt 1.000700 0.011440
vt 1.003101 1.004686
vt 0.003106 0.999946
vt 0.005378 -0.000048
vt 1.005372 0.004692
vt 0.984413 0.964197
vt -0.015582 0.959457
vt -0.013310 -0.040538
vt 0.986685 -0.035798
vt 1.035804 1.746994
vt 0.035809 1.742254
vt 0.038081 0.742259
vt 1.038075 0.746999
s 1
g off
g default_Material_2
usemtl Material_2
f 3/1/1 2/2/1 1/3/1
s 2
f 6/1/1 5/3/1 4/4/1
s 3
f 9/1/2 8/2/2 7/3/2
s 4
f 12/1/2 11/3/2 10/4/2
s 5
f 15/1/3 14/2/3 13/3/3
s 6
f 18/1/3 17/3/3 16/4/3
s 7
f 21/1/4 20/2/4 19/3/4
s 8
f 24/1/4 23/3/4 22/4/4
s 9
f 27/1/5 26/2/5 25/3/5
s 10
f 30/1/5 29/3/5 28/4/5
s 11
f 33/1/6 32/2/6 31/3/6
s 12
f 36/1/6 35/3/6 34/4/6
s 13
f 39/1/1 38/2/1 37/3/1
s 14
f 42/1/1 41/3/1 40/4/1
s 15
f 45/1/2 44/2/2 43/3/2
s 16
f 48/1/2 47/3/2 46/4/2
s 17
f 51/1/3 50/2/3 49/3/3
s 18
f 54/1/3 53/3/3 52/4/3
s 19
f 57/1/4 56/2/4 55/3/4
s 20
f 60/1/4 59/3/4 58/4/4
s 21
f 63/1/5 62/2/5 61/3/5
s 22
f 66/1/5 65/3/5 64/4/5
s 23
f 69/1/6 68/2/6 67/3/6
s 24
f 72/1/6 71/3/6 70/4/6
s 25
f 75/1/1 74/2/1 73/3/1
s 26
f 78/1/1 77/3/1 76/4/1
s 27
f 81/1/2 80/2/2 79/3/2
s 28
f 84/1/2 83/3/2 82/4/2
s 29
f 87/1/3 86/2/3 85/3/3
s 30
f 90/1/3 89/3/3 88/4/3
s 31
f 93/1/4 92/2/4 91/3/4
s 32
f 96/1/4 95/3/4 94/4/4
s 33
f 99/1/5 98/2/5 97/3/5
s 34
f 102/1/5 101/3/5 100/4/5
s 35
f 105/1/6 104/2/6 103/3/6
s 36
f 108/1/6 107/3/6 106/4/6
s 37
f 111/1/1 110/2/1 109/3/1
s 38
f 114/1/1 113/3/1 112/4/1
s 39
f 117/1/2 116/2/2 115/3/2
s 40
f 120/1/2 119/3/2 118/4/2
s 41
f 123/1/3 122/2/3 121/3/3
s 42
f 126/1/3 125/3/3 124/4/3
s 43
f 129/1/4 128/2/4 127/3/4
s 44
f 132/1/4 131/3/4 130/4/4
s 45
f 135/1/5 134/2/5 133/3/5
s 46
f 138/1/5 137/3/5 136/4/5
s 47
f 141/1/6 140/2/6 139/3/6
s 48
f 144/1/6 143/3/6 142/4/6
s 49
f 147/1/1 146/2/1 145/3/1
s 50
f 150/1/1 149/3/1 148/4/1
s 51
f 153/1/2 152/2/2 151/3/2
s 52
f 156/1/2 155/3/2 154/4/2
s 53
f 159/1/3 158/2/3 157/3/3
s 54
f 162/1/3 161/3/3 160/4/3
s 55
f 165/1/4 164/2/4 163/3/4
s 56
f 168/1/4 167/3/4 166/4/4
s 57
f 171/1/5 170/2/5 169/3/5
s 58
f 174/1/5 173/3/5 172/4/5
s 59
f 177/1/6 176/2/6 175/3/6
s 60
f 180/1/6 179/3/6 178/4/6
s 61
f 183/1/1 182/2/1 181/3/1
s 62
f 186/1/1 185/3/1 184/4/1
s 63
f 189/1/2 188/2/2 187/3/2
s 64
f 192/1/2 191/3/2 190/4/2
s 65
f 195/1/3 194/2/3 193/3/3
s 66
f 198/1/3 197/3/3 196/4/3
s 67
f 201/1/4 200/2/4 199/3/4
s 68
f 204/1/4 203/3/4 202/4/4
s 69
f 207/1/5 206/2/5 205/3/5
s 70
f 210/1/5 209/3/5 208/4/5
s 71
f 213/1/6 212/2/6 211/3/6
s 72
f 216/1/6 215/3/6 214/4/6
s 73
f 219/1/1 218/2/1 217/3/1
s 74
f 222/1/1 221/3/1 220/4/1
s 75
f 225/1/2 224/2/2 223/3/2
s 76
f 228/1/2 227/3/2 226/4/2
s 77
f 231/1/3 230/2/3 229/3/3
s 78
f 234/1/3 233/3/3 232/4/3
s 79
f 237/1/4 236/2/4 235/3/4
s 80
f 240/1/4 239/3/4 238/4/4
s 81
f 243/1/5 242/2/5 241/3/5
s 82
f 246/1/5 245/3/5 244/4/5
s 83
f 249/1/6 248/2/6 247/3/6
s 84
f 252/1/6 251/3/6 250/4/6
s 85
f 255/1/1 254/2/1 253/3/1
s 86
f 258/1/1 257/3/1 256/4/1
s 87
f 261/1/2 260/2/2 259/3/2
s 88
f 264/1/2 263/3/2 262/4/2
s 89
f 267/1/3 266/2/3 265/3/3
s 90
f 270/1/3 269/3/3 268/4/3
s 91
f 273/1/4 272/2/4 271/3/4
s 92
f 276/1/4 275/3/4 274/4/4
s 93
f 279/1/5 278/2/5 277/3/5
s 94
f 282/1/5 281/3/5 280/4/5
s 95
f 285/1/6 284/2/6 283/3/6
s 96
f 288/1/6 287/3/6 286/4/6
s 97
f 291/5/1 290/6/1 289/7/1
s 98
f 294/5/1 293/7/1 292/8/1
s 99
f 297/9/2 296/10/2 295/11/2
s 100
f 300/9/2 299/11/2 298/12/2
s 101
f 303/13/3 302/14/3 301/15/3
s 102
f 306/13/3 305/15/3 304/16/3
s 103
f 309/17/4 308/18/4 307/19/4
s 104
f 312/17/4 311/19/4 310/20/4
s 105
f 315/17/5 314/18/5 313/19/5
s 106
f 318/17/5 317/19/5 316/20/5
s 107
f 321/17/6 320/18/6 319/19/6
s 108
f 324/17/6 323/19/6 322/20/6
s 109
f 327/1/1 326/2/1 325/3/1
s 110
f 330/1/1 329/3/1 328/4/1
s 111
f 333/1/2 332/2/2 331/3/2
s 112
f 336/1/2 335/3/2 334/4/2
s 113
f 339/1/3 338/2/3 337/3/3
s 114
f 342/1/3 341/3/3 340/4/3
s 115
f 345/1/4 344/2/4 343/3/4
s 116
f 348/1/4 347/3/4 346/4/4
s 117
f 351/1/5 350/2/5 349/3/5
s 118
f 354/1/5 353/3/5 352/4/5
s 119
f 357/1/6 356/2/6 355/3/6
s 120
f 360/1/6 359/3/6 358/4/6
s 121
f 363/1/1 362/2/1 361/3/1
s 122
f 366/1/1 365/3/1 364/4/1
s 123
f 369/1/2 368/2/2 367/3/2
s 124
f 372/1/2 371/3/2 370/4/2
s 125
f 375/1/3 374/2/3 373/3/3
s 126
f 378/1/3 377/3/3 376/4/3
s 127
f 381/1/4 380/2/4 379/3/4
s 128
f 384/1/4 383/3/4 382/4/4
s 129
f 387/1/5 386/2/5 385/3/5
s 130
f 390/1/5 389/3/5 388/4/5
s 131
f 393/1/6 392/2/6 391/3/6
s 132
f 396/1/6 395/3/6 394/4/6
s 133
f 399/1/1 398/2/1 397/3/1
s 134
f 402/1/1 401/3/1 400/4/1
s 135
f 405/1/2 404/2/2 403/3/2
s 136
f 408/1/2 407/3/2 406/4/2
s 137
f 411/1/3 410/2/3 409/3/3
s 138
f 414/1/3 413/3/3 412/4/3
s 139
f 417/1/4 416/2/4 415/3/4
s 140
f 420/1/4 419/3/4 418/4/4
s 141
f 423/1/5 422/2/5 421/3/5
s 142
f 426/1/5 425/3/5 424/4/5
s 143
f 429/1/6 428/2/6 427/3/6
s 144
f 432/1/6 431/3/6 430/4/6
s 145
f 435/1/1 434/2/1 433/3/1
s 146
f 438/1/1 437/3/1 436/4/1
s 147
f 441/1/2 440/2/2 439/3/2
s 148
f 444/1/2 443/3/2 442/4/2
s 149
f 447/1/3 446/2/3 445/3/3
s 150
f 450/1/3 449/3/3 448/4/3
s 151
f 453/1/4 452/2/4 451/3/4
s 152
f 456/1/4 455/3/4 454/4/4
s 153
f 459/1/5 458/2/5 457/3/5
s 154
f 462/1/5 461/3/5 460/4/5
s 155
f 465/1/6 464/2/6 463/3/6
s 156
f 468/1/6 467/3/6 466/4/6
s 157
f 471/1/1 470/2/1 469/3/1
s 158
f 474/1/1 473/3/1 472/4/1
s 159
f 477/1/2 476/2/2 475/3/2
s 160
f 480/1/2 479/3/2 478/4/2
s 161
f 483/1/3 482/2/3 481/3/3
s 162
f 486/1/3 485/3/3 484/4/3
s 163
f 489/1/4 488/2/4 487/3/4
s 164
f 492/1/4 491/3/4 490/4/4
s 165
f 495/1/5 494/2/5 493/3/5
s 166
f 498/1/5 497/3/5 496/4/5
s 167
f 501/1/6 500/2/6 499/3/6
s 168
f 504/1/6 503/3/6 502/4/6
s 169
f 507/1/1 506/2/1 505/3/1
s 170
f 510/1/1 509/3/1 508/4/1
s 171
f 513/1/2 512/2/2 511/3/2
s 172
f 516/1/2 515/3/2 514/4/2
s 173
f 519/1/3 518/2/3 517/3/3
s 174
f 522/1/3 521/3/3 520/4/3
s 175
f 525/1/4 524/2/4 523/3/4
s 176
f 528/1/4 527/3/4 526/4/4
s 177
f 531/1/5 530/2/5 529/3/5
s 178
f 534/1/5 533/3/5 532/4/5
s 179
f 537/1/6 536/2/6 535/3/6
s 180
f 540/1/6 539/3/6 538/4/6
s 181
f 543/1/1 542/2/1 541/3/1
s 182
f 546/1/1 545/3/1 544/4/1
s 183
f 549/1/2 548/2/2 547/3/2
s 184
f 552/1/2 551/3/2 550/4/2
s 185
f 555/1/3 554/2/3 553/3/3
s 186
f 558/1/3 557/3/3 556/4/3
s 187
f 561/1/4 560/2/4 559/3/4
s 188
f 564/1/4 563/3/4 562/4/4
s 189
f 567/1/5 566/2/5 565/3/5
s 190
f 570/1/5 569/3/5 568/4/5
s 191
f 573/1/6 572/2/6 571/3/6
s 192
f 576/1/6 575/3/6 574/4/6
s 193
f 579/1/1 578/2/1 577/3/1
s 194
f 582/1/1 581/3/1 580/4/1
s 195
f 585/1/2 584/2/2 583/3/2
s 196
f 588/1/2 587/3/2 586/4/2
s 197
f 591/1/3 590/2/3 589/3/3
s 198
f 594/1/3 593/3/3 592/4/3
s 199
f 597/1/4 596/2/4 595/3/4
s 200
f 600/1/4 599/3/4 598/4/4
s 201
f 603/1/5 602/2/5 601/3/5
s 202
f 606/1/5 605/3/5 604/4/5
s 203
f 609/1/6 608/2/6 607/3/6
s 204
f 612/1/6 611/3/6 610/4/6
