# Blender 5.0.1
# www.blender.org
mtllib muslo_izq_yae.mtl
g 肌.009_Malla
v 0.003074 -0.114904 0.023986
v 0.002238 -0.102304 0.022243
v 0.010450 -0.102052 0.022595
v 0.010450 -0.102052 0.022595
v 0.010527 -0.114874 0.024027
v 0.003074 -0.114904 0.023986
v 0.003074 -0.114904 0.023986
v -0.004069 -0.109273 0.017374
v 0.002238 -0.102304 0.022243
v 0.010325 -0.092969 0.022240
v 0.010450 -0.102052 0.022595
v 0.002238 -0.102304 0.022243
v 0.002238 -0.102304 0.022243
v 0.001566 -0.093472 0.021781
v 0.010325 -0.092969 0.022240
v 0.006346 -0.040149 -0.020604
v -0.003566 -0.040622 -0.020695
v 0.001831 -0.068153 -0.016927
v 0.001831 -0.068153 -0.016927
v 0.010855 -0.067414 -0.015397
v 0.006346 -0.040149 -0.020604
v -0.013590 -0.040536 -0.016156
v -0.018953 -0.040393 -0.007439
v -0.012813 -0.068419 -0.005089
v -0.012813 -0.068419 -0.005089
v -0.007723 -0.068356 -0.013529
v -0.013590 -0.040536 -0.016156
v 0.006914 -0.094722 -0.013115
v -0.001856 -0.094479 -0.010161
v -0.000041 -0.102444 -0.009299
v -0.000041 -0.102444 -0.009299
v 0.008198 -0.102978 -0.012200
v 0.006914 -0.094722 -0.013115
v 0.022388 -0.066161 0.006837
v 0.020783 -0.066321 -0.002729
v 0.021965 -0.091812 0.001308
v 0.021965 -0.091812 0.001308
v 0.021964 -0.091533 0.010611
v 0.022388 -0.066161 0.006837
v -0.013184 -0.068219 0.014508
v -0.006630 -0.068460 0.020507
v -0.006274 -0.093803 0.016032
v -0.013184 -0.068219 0.014508
v -0.018746 -0.040190 0.014824
v -0.010676 -0.040360 0.022410
v -0.010676 -0.040360 0.022410
v -0.006630 -0.068460 0.020507
v -0.013184 -0.068219 0.014508
v 0.022426 -0.103884 0.012442
v 0.017600 -0.108751 0.019825
v 0.017672 -0.092145 0.018208
v 0.010855 -0.067414 -0.015397
v 0.016016 -0.066786 -0.010431
v 0.014614 -0.039575 -0.015556
v 0.014614 -0.039575 -0.015556
v 0.006346 -0.040149 -0.020604
v 0.010855 -0.067414 -0.015397
v 0.009757 -0.040704 0.025157
v 0.018415 -0.040373 0.019078
v 0.017698 -0.067178 0.018371
v 0.017698 -0.067178 0.018371
v 0.009921 -0.067868 0.023339
v 0.009757 -0.040704 0.025157
v -0.000071 -0.068268 0.023958
v -0.001284 -0.040642 0.026593
v 0.009757 -0.040704 0.025157
v 0.009757 -0.040704 0.025157
v 0.009921 -0.067868 0.023339
v -0.000071 -0.068268 0.023958
v 0.020540 -0.039363 -0.007347
v 0.014614 -0.039575 -0.015556
v 0.016016 -0.066786 -0.010431
v 0.016016 -0.066786 -0.010431
v 0.020783 -0.066321 -0.002729
v 0.020540 -0.039363 -0.007347
v -0.012813 -0.068419 -0.005089
v -0.018953 -0.040393 -0.007439
v -0.020566 -0.040044 0.003596
v -0.020566 -0.040044 0.003596
v -0.014498 -0.068301 0.005125
v -0.012813 -0.068419 -0.005089
v -0.006750 -0.105403 0.006314
v -0.004720 -0.101085 -0.002578
v -0.009012 -0.093891 0.005501
v -0.007723 -0.068356 -0.013529
v 0.001831 -0.068153 -0.016927
v -0.003566 -0.040622 -0.020695
v -0.003566 -0.040622 -0.020695
v -0.013590 -0.040536 -0.016156
v -0.007723 -0.068356 -0.013529
v -0.006537 -0.093901 -0.003098
v -0.001856 -0.094479 -0.010161
v -0.007723 -0.068356 -0.013529
v -0.007723 -0.068356 -0.013529
v -0.012813 -0.068419 -0.005089
v -0.006537 -0.093901 -0.003098
v 0.022778 -0.040018 0.010409
v 0.023493 -0.039561 0.001834
v 0.022388 -0.066161 0.006837
v 0.022388 -0.066161 0.006837
v 0.021180 -0.066405 0.012255
v 0.022778 -0.040018 0.010409
v 0.010527 -0.114874 0.024027
v 0.010450 -0.102052 0.022595
v 0.017600 -0.108751 0.019825
v -0.009012 -0.093891 0.005501
v -0.014498 -0.068301 0.005125
v -0.013184 -0.068219 0.014508
v -0.013184 -0.068219 0.014508
v -0.006274 -0.093803 0.016032
v -0.009012 -0.093891 0.005501
v -0.018746 -0.040190 0.014824
v -0.013184 -0.068219 0.014508
v -0.014498 -0.068301 0.005125
v -0.014498 -0.068301 0.005125
v -0.020566 -0.040044 0.003596
v -0.018746 -0.040190 0.014824
v 0.016143 -0.093128 -0.008484
v 0.006914 -0.094722 -0.013115
v 0.008198 -0.102978 -0.012200
v 0.008198 -0.102978 -0.012200
v 0.017624 -0.101845 -0.007288
v 0.016143 -0.093128 -0.008484
v 0.017624 -0.101845 -0.007288
v 0.022791 -0.099452 0.002262
v 0.021965 -0.091812 0.001308
v 0.021965 -0.091812 0.001308
v 0.016143 -0.093128 -0.008484
v 0.017624 -0.101845 -0.007288
v 0.020783 -0.066321 -0.002729
v 0.022388 -0.066161 0.006837
v 0.023493 -0.039561 0.001834
v 0.023493 -0.039561 0.001834
v 0.020540 -0.039363 -0.007347
v 0.020783 -0.066321 -0.002729
v 0.022426 -0.103884 0.012442
v 0.022416 -0.116298 0.013921
v 0.017600 -0.108751 0.019825
v -0.001856 -0.094479 -0.010161
v 0.006914 -0.094722 -0.013115
v 0.001831 -0.068153 -0.016927
v 0.001831 -0.068153 -0.016927
v -0.007723 -0.068356 -0.013529
v -0.001856 -0.094479 -0.010161
v 0.021965 -0.091812 0.001308
v 0.022791 -0.099452 0.002262
v 0.021964 -0.091533 0.010611
v 0.021964 -0.091533 0.010611
v 0.017672 -0.092145 0.018208
v 0.021180 -0.066405 0.012255
v -0.009012 -0.093891 0.005501
v -0.006537 -0.093901 -0.003098
v -0.012813 -0.068419 -0.005089
v -0.012813 -0.068419 -0.005089
v -0.014498 -0.068301 0.005125
v -0.009012 -0.093891 0.005501
v 0.016016 -0.066786 -0.010431
v 0.010855 -0.067414 -0.015397
v 0.016143 -0.093128 -0.008484
v -0.004720 -0.101085 -0.002578
v -0.000041 -0.102444 -0.009299
v -0.001856 -0.094479 -0.010161
v -0.001856 -0.094479 -0.010161
v -0.006537 -0.093901 -0.003098
v -0.004720 -0.101085 -0.002578
v -0.006274 -0.093803 0.016032
v -0.004069 -0.109273 0.017374
v -0.006750 -0.105403 0.006314
v 0.010855 -0.067414 -0.015397
v 0.001831 -0.068153 -0.016927
v 0.006914 -0.094722 -0.013115
v 0.006914 -0.094722 -0.013115
v 0.016143 -0.093128 -0.008484
v 0.010855 -0.067414 -0.015397
v 0.016143 -0.093128 -0.008484
v 0.021965 -0.091812 0.001308
v 0.020783 -0.066321 -0.002729
v 0.020783 -0.066321 -0.002729
v 0.016016 -0.066786 -0.010431
v 0.016143 -0.093128 -0.008484
v -0.000071 -0.068268 0.023958
v 0.009921 -0.067868 0.023339
v 0.010325 -0.092969 0.022240
v 0.010325 -0.092969 0.022240
v 0.001566 -0.093472 0.021781
v -0.000071 -0.068268 0.023958
v 0.009921 -0.067868 0.023339
v 0.017698 -0.067178 0.018371
v 0.017672 -0.092145 0.018208
v 0.017672 -0.092145 0.018208
v 0.010325 -0.092969 0.022240
v 0.009921 -0.067868 0.023339
v 0.017600 -0.108751 0.019825
v 0.010450 -0.102052 0.022595
v 0.017672 -0.092145 0.018208
v 0.001283 -0.110075 -0.008199
v 0.009325 -0.110646 -0.010903
v 0.008198 -0.102978 -0.012200
v 0.008198 -0.102978 -0.012200
v -0.000041 -0.102444 -0.009299
v 0.001283 -0.110075 -0.008199
v 0.009325 -0.110646 -0.010903
v 0.018522 -0.109640 -0.006078
v 0.017624 -0.101845 -0.007288
v 0.017624 -0.101845 -0.007288
v 0.008198 -0.102978 -0.012200
v 0.009325 -0.110646 -0.010903
v -0.003392 -0.107904 -0.001471
v 0.001283 -0.110075 -0.008199
v -0.000041 -0.102444 -0.009299
v -0.000041 -0.102444 -0.009299
v -0.004720 -0.101085 -0.002578
v -0.003392 -0.107904 -0.001471
v 0.022791 -0.099452 0.002262
v 0.023055 -0.106935 0.003216
v 0.022426 -0.103884 0.012442
v 0.017624 -0.101845 -0.007288
v 0.018522 -0.109640 -0.006078
v 0.023055 -0.106935 0.003216
v 0.023055 -0.106935 0.003216
v 0.022791 -0.099452 0.002262
v 0.017624 -0.101845 -0.007288
v -0.004720 -0.101085 -0.002578
v -0.006750 -0.105403 0.006314
v -0.003392 -0.107904 -0.001471
v 0.021180 -0.066405 0.012255
v 0.017698 -0.067178 0.018371
v 0.018415 -0.040373 0.019078
v 0.018415 -0.040373 0.019078
v 0.022778 -0.040018 0.010409
v 0.021180 -0.066405 0.012255
v 0.021180 -0.066405 0.012255
v 0.017672 -0.092145 0.018208
v 0.017698 -0.067178 0.018371
v -0.004069 -0.109273 0.017374
v -0.006274 -0.093803 0.016032
v 0.002238 -0.102304 0.022243
v 0.001566 -0.093472 0.021781
v -0.006274 -0.093803 0.016032
v -0.006630 -0.068460 0.020507
v -0.006630 -0.068460 0.020507
v -0.010676 -0.040360 0.022410
v -0.001284 -0.040642 0.026593
v -0.001284 -0.040642 0.026593
v -0.000071 -0.068268 0.023958
v -0.006630 -0.068460 0.020507
v -0.018746 -0.040190 0.014824
v -0.019710 -0.013632 0.018343
v -0.010676 -0.040360 0.022410
v -0.019710 -0.013632 0.018343
v -0.018746 -0.040190 0.014824
v -0.023052 -0.013375 0.009959
v 0.024119 -0.014982 0.008705
v 0.024607 -0.014942 -0.002249
v 0.023493 -0.039561 0.001834
v 0.023493 -0.039561 0.001834
v 0.022778 -0.040018 0.010409
v 0.024119 -0.014982 0.008705
v 0.014614 -0.039575 -0.015556
v 0.020540 -0.039363 -0.007347
v 0.020998 -0.014383 -0.012004
v 0.020998 -0.014383 -0.012004
v 0.013067 -0.013870 -0.019530
v 0.014614 -0.039575 -0.015556
v -0.003566 -0.040622 -0.020695
v 0.006346 -0.040149 -0.020604
v 0.003243 -0.013495 -0.023482
v 0.003243 -0.013495 -0.023482
v -0.007633 -0.013068 -0.023065
v -0.003566 -0.040622 -0.020695
v 0.022778 -0.040018 0.010409
v 0.018415 -0.040373 0.019078
v 0.018518 -0.014604 0.019586
v 0.018518 -0.014604 0.019586
v 0.024119 -0.014982 0.008705
v 0.022778 -0.040018 0.010409
v -0.013590 -0.040536 -0.016156
v -0.003566 -0.040622 -0.020695
v -0.007633 -0.013068 -0.023065
v -0.007633 -0.013068 -0.023065
v -0.016973 -0.013036 -0.018238
v -0.013590 -0.040536 -0.016156
v 0.013067 -0.013870 -0.019530
v 0.003243 -0.013495 -0.023482
v 0.006346 -0.040149 -0.020604
v 0.006346 -0.040149 -0.020604
v 0.014614 -0.039575 -0.015556
v 0.013067 -0.013870 -0.019530
v -0.018953 -0.040393 -0.007439
v -0.022346 -0.013230 -0.009115
v -0.024308 -0.013461 0.000854
v -0.024308 -0.013461 0.000854
v -0.020566 -0.040044 0.003596
v -0.018953 -0.040393 -0.007439
v -0.016973 -0.013036 -0.018238
v -0.022346 -0.013230 -0.009115
v -0.018953 -0.040393 -0.007439
v -0.018953 -0.040393 -0.007439
v -0.013590 -0.040536 -0.016156
v -0.016973 -0.013036 -0.018238
v 0.009757 -0.040704 0.025157
v 0.009490 -0.014380 0.026070
v 0.018518 -0.014604 0.019586
v 0.018518 -0.014604 0.019586
v 0.018415 -0.040373 0.019078
v 0.009757 -0.040704 0.025157
v -0.024308 -0.013461 0.000854
v -0.023052 -0.013375 0.009959
v -0.020566 -0.040044 0.003596
v 0.020540 -0.039363 -0.007347
v 0.023493 -0.039561 0.001834
v 0.024607 -0.014942 -0.002249
v 0.024607 -0.014942 -0.002249
v 0.020998 -0.014383 -0.012004
v 0.020540 -0.039363 -0.007347
v -0.002657 -0.013672 0.028705
v -0.001284 -0.040642 0.026593
v -0.010676 -0.040360 0.022410
v -0.010676 -0.040360 0.022410
v -0.012800 -0.013709 0.025137
v -0.002657 -0.013672 0.028705
v -0.006750 -0.105403 0.006314
v -0.005302 -0.116041 0.008898
v -0.002456 -0.115102 0.000021
v -0.002456 -0.115102 0.000021
v -0.003392 -0.107904 -0.001471
v -0.006750 -0.105403 0.006314
v 0.001283 -0.110075 -0.008199
v -0.003392 -0.107904 -0.001471
v -0.002456 -0.115102 0.000021
v -0.002456 -0.115102 0.000021
v 0.001956 -0.115848 -0.006777
v 0.001283 -0.110075 -0.008199
v 0.009325 -0.110646 -0.010903
v 0.001283 -0.110075 -0.008199
v 0.001956 -0.115848 -0.006777
v 0.001956 -0.115848 -0.006777
v 0.009486 -0.116526 -0.009333
v 0.009325 -0.110646 -0.010903
v 0.018522 -0.109640 -0.006078
v 0.009325 -0.110646 -0.010903
v 0.009486 -0.116526 -0.009333
v 0.009486 -0.116526 -0.009333
v 0.018236 -0.115668 -0.004693
v 0.018522 -0.109640 -0.006078
v 0.018522 -0.109640 -0.006078
v 0.018236 -0.115668 -0.004693
v 0.023139 -0.113722 0.004747
v 0.023139 -0.113722 0.004747
v 0.023055 -0.106935 0.003216
v 0.018522 -0.109640 -0.006078
v 0.023139 -0.113722 0.004747
v 0.022416 -0.116298 0.013921
v 0.022426 -0.103884 0.012442
v 0.022426 -0.103884 0.012442
v 0.023055 -0.106935 0.003216
v 0.023139 -0.113722 0.004747
v 0.022791 -0.099452 0.002262
v 0.022426 -0.103884 0.012442
v 0.021964 -0.091533 0.010611
v -0.000071 -0.068268 0.023958
v 0.001566 -0.093472 0.021781
v -0.006630 -0.068460 0.020507
v 0.022388 -0.066161 0.006837
v 0.021964 -0.091533 0.010611
v 0.021180 -0.066405 0.012255
v -0.004720 -0.101085 -0.002578
v -0.006537 -0.093901 -0.003098
v -0.009012 -0.093891 0.005501
v 0.009490 -0.014380 0.026070
v 0.009757 -0.040704 0.025157
v -0.001284 -0.040642 0.026593
v -0.001284 -0.040642 0.026593
v -0.002657 -0.013672 0.028705
v 0.009490 -0.014380 0.026070
v -0.010676 -0.040360 0.022410
v -0.019710 -0.013632 0.018343
v -0.012800 -0.013709 0.025137
v -0.023052 -0.013375 0.009959
v -0.018746 -0.040190 0.014824
v -0.020566 -0.040044 0.003596
v 0.001566 -0.093472 0.021781
v 0.002238 -0.102304 0.022243
v -0.006274 -0.093803 0.016032
v -0.006750 -0.105403 0.006314
v -0.004069 -0.109273 0.017374
v -0.005302 -0.116041 0.008898
v 0.010325 -0.092969 0.022240
v 0.017672 -0.092145 0.018208
v 0.010450 -0.102052 0.022595
v -0.009012 -0.093891 0.005501
v -0.006274 -0.093803 0.016032
v -0.006750 -0.105403 0.006314
v 0.021964 -0.091533 0.010611
v 0.022426 -0.103884 0.012442
v 0.017672 -0.092145 0.018208
v -0.022982 0.002389 -0.010145
v -0.022348 0.012652 -0.010624
v -0.024705 0.011933 -0.000784
v -0.024705 0.011933 -0.000784
v -0.024954 0.001868 -0.000433
v -0.022982 0.002389 -0.010145
v -0.024068 0.010831 0.008822
v -0.023708 0.001438 0.009098
v -0.024954 0.001868 -0.000433
v -0.024954 0.001868 -0.000433
v -0.024705 0.011933 -0.000784
v -0.024068 0.010831 0.008822
v -0.008719 0.003622 -0.023706
v -0.017784 0.003341 -0.018890
v -0.016973 -0.013036 -0.018238
v -0.016973 -0.013036 -0.018238
v -0.007633 -0.013068 -0.023065
v -0.008719 0.003622 -0.023706
v -0.007633 -0.013068 -0.023065
v 0.003243 -0.013495 -0.023482
v 0.002148 0.003256 -0.024748
v 0.002148 0.003256 -0.024748
v -0.008719 0.003622 -0.023706
v -0.007633 -0.013068 -0.023065
v 0.012015 0.002103 -0.021244
v 0.002148 0.003256 -0.024748
v 0.003243 -0.013495 -0.023482
v 0.003243 -0.013495 -0.023482
v 0.013067 -0.013870 -0.019530
v 0.012015 0.002103 -0.021244
v 0.020457 0.000085 -0.013783
v 0.012015 0.002103 -0.021244
v 0.013067 -0.013870 -0.019530
v 0.013067 -0.013870 -0.019530
v 0.020998 -0.014383 -0.012004
v 0.020457 0.000085 -0.013783
v 0.020998 -0.014383 -0.012004
v 0.024607 -0.014942 -0.002249
v 0.024259 -0.002066 -0.004665
v 0.024259 -0.002066 -0.004665
v 0.020457 0.000085 -0.013783
v 0.020998 -0.014383 -0.012004
v 0.024607 -0.014942 -0.002249
v 0.024119 -0.014982 0.008705
v 0.023936 -0.003635 0.007937
v 0.023936 -0.003635 0.007937
v 0.024259 -0.002066 -0.004665
v 0.024607 -0.014942 -0.002249
v 0.024119 -0.014982 0.008705
v 0.018518 -0.014604 0.019586
v 0.017950 -0.004508 0.019520
v 0.017950 -0.004508 0.019520
v 0.023936 -0.003635 0.007937
v 0.024119 -0.014982 0.008705
v 0.017950 -0.004508 0.019520
v 0.018518 -0.014604 0.019586
v 0.009490 -0.014380 0.026070
v 0.009490 -0.014380 0.026070
v 0.008986 -0.004830 0.026519
v 0.017950 -0.004508 0.019520
v -0.022348 0.012652 -0.010624
v -0.022982 0.002389 -0.010145
v -0.017784 0.003341 -0.018890
v -0.019710 -0.013632 0.018343
v -0.020073 0.001393 0.018024
v -0.013988 0.001532 0.025878
v -0.013988 0.001532 0.025878
v -0.012800 -0.013709 0.025137
v -0.019710 -0.013632 0.018343
v -0.020073 0.001393 0.018024
v -0.019710 -0.013632 0.018343
v -0.023052 -0.013375 0.009959
v -0.023052 -0.013375 0.009959
v -0.023708 0.001438 0.009098
v -0.020073 0.001393 0.018024
v -0.024308 -0.013461 0.000854
v -0.024954 0.001868 -0.000433
v -0.023708 0.001438 0.009098
v -0.023708 0.001438 0.009098
v -0.023052 -0.013375 0.009959
v -0.024308 -0.013461 0.000854
v -0.024954 0.001868 -0.000433
v -0.024308 -0.013461 0.000854
v -0.022346 -0.013230 -0.009115
v -0.022346 -0.013230 -0.009115
v -0.022982 0.002389 -0.010145
v -0.024954 0.001868 -0.000433
v -0.016973 -0.013036 -0.018238
v -0.017784 0.003341 -0.018890
v -0.022982 0.002389 -0.010145
v -0.022982 0.002389 -0.010145
v -0.022346 -0.013230 -0.009115
v -0.016973 -0.013036 -0.018238
v -0.003697 -0.004028 0.028678
v -0.002657 -0.013672 0.028705
v -0.012800 -0.013709 0.025137
v 0.008986 -0.004830 0.026519
v 0.009490 -0.014380 0.026070
v -0.002657 -0.013672 0.028705
v -0.002657 -0.013672 0.028705
v -0.003697 -0.004028 0.028678
v 0.008986 -0.004830 0.026519
v -0.012800 -0.013709 0.025137
v -0.013988 0.001532 0.025878
v -0.003697 -0.004028 0.028678
v -0.022982 0.002389 -0.010145
v -0.022348 0.012652 -0.010624
v -0.024705 0.011933 -0.000784
v -0.024705 0.011933 -0.000784
v -0.024954 0.001868 -0.000433
v -0.022982 0.002389 -0.010145
v -0.024068 0.010831 0.008822
v -0.023708 0.001438 0.009098
v -0.024954 0.001868 -0.000433
v -0.024954 0.001868 -0.000433
v -0.024705 0.011933 -0.000784
v -0.024068 0.010831 0.008822
v -0.008719 0.003622 -0.023706
v -0.017784 0.003341 -0.018890
v -0.016973 -0.013036 -0.018238
v -0.016973 -0.013036 -0.018238
v -0.007633 -0.013068 -0.023065
v -0.008719 0.003622 -0.023706
v -0.007633 -0.013068 -0.023065
v 0.003243 -0.013495 -0.023482
v 0.002148 0.003256 -0.024748
v 0.002148 0.003256 -0.024748
v -0.008719 0.003622 -0.023706
v -0.007633 -0.013068 -0.023065
v 0.012015 0.002103 -0.021244
v 0.002148 0.003256 -0.024748
v 0.003243 -0.013495 -0.023482
v 0.003243 -0.013495 -0.023482
v 0.013067 -0.013870 -0.019530
v 0.012015 0.002103 -0.021244
v 0.020457 0.000085 -0.013783
v 0.012015 0.002103 -0.021244
v 0.013067 -0.013870 -0.019530
v 0.013067 -0.013870 -0.019530
v 0.020998 -0.014383 -0.012004
v 0.020457 0.000085 -0.013783
v 0.020998 -0.014383 -0.012004
v 0.024607 -0.014942 -0.002249
v 0.024259 -0.002066 -0.004665
v 0.024259 -0.002066 -0.004665
v 0.020457 0.000085 -0.013783
v 0.020998 -0.014383 -0.012004
v 0.024607 -0.014942 -0.002249
v 0.024119 -0.014982 0.008705
v 0.023936 -0.003635 0.007937
v 0.023936 -0.003635 0.007937
v 0.024259 -0.002066 -0.004665
v 0.024607 -0.014942 -0.002249
v 0.024119 -0.014982 0.008705
v 0.018518 -0.014604 0.019586
v 0.017950 -0.004508 0.019520
v 0.017950 -0.004508 0.019520
v 0.023936 -0.003635 0.007937
v 0.024119 -0.014982 0.008705
v 0.017950 -0.004508 0.019520
v 0.018518 -0.014604 0.019586
v 0.009490 -0.014380 0.026070
v 0.009490 -0.014380 0.026070
v 0.008986 -0.004830 0.026519
v 0.017950 -0.004508 0.019520
v -0.022348 0.012652 -0.010624
v -0.022982 0.002389 -0.010145
v -0.017784 0.003341 -0.018890
v -0.019710 -0.013632 0.018343
v -0.020073 0.001393 0.018024
v -0.013988 0.001532 0.025878
v -0.013988 0.001532 0.025878
v -0.012800 -0.013709 0.025137
v -0.019710 -0.013632 0.018343
v -0.020073 0.001393 0.018024
v -0.019710 -0.013632 0.018343
v -0.023052 -0.013375 0.009959
v -0.023052 -0.013375 0.009959
v -0.023708 0.001438 0.009098
v -0.020073 0.001393 0.018024
v -0.024308 -0.013461 0.000854
v -0.024954 0.001868 -0.000433
v -0.023708 0.001438 0.009098
v -0.023708 0.001438 0.009098
v -0.023052 -0.013375 0.009959
v -0.024308 -0.013461 0.000854
v -0.024954 0.001868 -0.000433
v -0.024308 -0.013461 0.000854
v -0.022346 -0.013230 -0.009115
v -0.022346 -0.013230 -0.009115
v -0.022982 0.002389 -0.010145
v -0.024954 0.001868 -0.000433
v -0.016973 -0.013036 -0.018238
v -0.017784 0.003341 -0.018890
v -0.022982 0.002389 -0.010145
v -0.022982 0.002389 -0.010145
v -0.022346 -0.013230 -0.009115
v -0.016973 -0.013036 -0.018238
v -0.003697 -0.004028 0.028678
v -0.002657 -0.013672 0.028705
v -0.012800 -0.013709 0.025137
v 0.008986 -0.004830 0.026519
v 0.009490 -0.014380 0.026070
v -0.002657 -0.013672 0.028705
v -0.002657 -0.013672 0.028705
v -0.003697 -0.004028 0.028678
v 0.008986 -0.004830 0.026519
v -0.012800 -0.013709 0.025137
v -0.013988 0.001532 0.025878
v -0.003697 -0.004028 0.028678
vn 0.2104 0.0838 0.9740
vn -0.3494 0.0515 0.9356
vn -0.3234 0.2118 0.9223
vn 0.2324 0.1875 0.9544
vn -0.3496 0.0515 0.9355
vn -0.8625 0.0085 0.5060
vn -0.3235 0.2118 0.9222
vn 0.2104 0.0837 0.9740
vn 0.2328 -0.0061 0.9725
vn -0.3319 -0.0489 0.9421
vn -0.0851 -0.1665 -0.9824
vn -0.2025 -0.1405 -0.9691
vn 0.2715 -0.1066 -0.9565
vn 0.4563 -0.1088 -0.8832
vn -0.9122 -0.2293 -0.3397
vn -0.9241 -0.1873 -0.3331
vn -0.6575 -0.1756 -0.7327
vn -0.6155 -0.2237 -0.7557
vn -0.6046 -0.2169 -0.7664
vn -0.6016 -0.2283 -0.7655
vn 0.0616 -0.1406 -0.9881
vn 0.0714 -0.1283 -0.9892
vn 0.9628 0.0270 -0.2690
vn 0.9331 -0.0431 -0.3569
vn 0.9993 -0.0214 0.0313
vn 0.9662 0.0393 0.2548
vn -0.8217 -0.1458 0.5510
vn -0.5694 -0.1272 0.8121
vn -0.8709 -0.1841 0.4558
vn -0.5508 -0.1231 0.8255
vn -0.8768 -0.1531 0.4558
vn -0.8708 -0.1841 0.4558
vn 0.6979 0.0306 0.7155
vn 0.6480 0.0919 0.7561
vn 0.9453 0.0520 0.3221
vn 0.6756 -0.0914 -0.7316
vn 0.7794 -0.0658 -0.6231
vn 0.4564 -0.1088 -0.8831
vn 0.2717 -0.1065 -0.9565
vn 0.6755 -0.0914 -0.7317
vn 0.7277 -0.0246 0.6855
vn 0.7562 -0.0238 0.6539
vn 0.3571 -0.0457 0.9329
vn 0.3086 -0.0445 0.9501
vn 0.7277 -0.0247 0.6855
vn 0.3569 -0.0457 0.9330
vn -0.1407 -0.0882 0.9861
vn -0.2096 -0.0871 0.9739
vn 0.3084 -0.0445 0.9502
vn 0.7795 -0.0658 -0.6230
vn 0.6756 -0.0914 -0.7315
vn 0.8898 -0.0835 -0.4487
vn 0.8898 -0.0835 -0.4486
vn 0.9331 -0.0432 -0.3571
vn 0.7795 -0.0658 -0.6229
vn -0.9844 -0.1759 0.0097
vn -0.9242 -0.1873 -0.3329
vn -0.9122 -0.2293 -0.3395
vn -0.9780 -0.2087 -0.0069
vn -0.9740 -0.2257 -0.0207
vn -0.8767 -0.2378 -0.4182
vn -0.9824 -0.1733 -0.0703
vn -0.2027 -0.1405 -0.9691
vn -0.0853 -0.1665 -0.9823
vn -0.6154 -0.2237 -0.7558
vn -0.6574 -0.1756 -0.7328
vn -0.6156 -0.2237 -0.7557
vn -0.6018 -0.2283 -0.7653
vn -0.8827 -0.2520 -0.3967
vn -0.9121 -0.2293 -0.3397
vn 0.9924 -0.0543 -0.1105
vn 0.9611 -0.0280 0.2747
vn 0.9611 -0.0280 0.2749
vn 0.9317 -0.0168 0.3629
vn 0.9993 -0.0214 0.0314
vn 0.6478 0.0919 0.7563
vn 0.2106 0.0838 0.9740
vn 0.2326 0.1875 0.9543
vn -0.8709 -0.1842 0.4556
vn -0.9780 -0.2086 -0.0067
vn -0.9740 -0.2257 -0.0204
vn -0.9740 -0.2258 -0.0205
vn -0.8218 -0.1459 0.5508
vn -0.9780 -0.2086 -0.0066
vn -0.8709 -0.1841 0.4556
vn -0.8769 -0.1531 0.4557
vn -0.9844 -0.1759 0.0099
vn 0.0716 -0.1282 -0.9892
vn 0.0618 -0.1406 -0.9881
vn 0.6848 -0.0365 -0.7278
vn 0.7041 -0.0148 -0.7100
vn 0.9627 0.0270 -0.2692
vn 0.9733 0.0349 -0.2267
vn 0.7042 -0.0147 -0.7098
vn 0.6849 -0.0365 -0.7277
vn 0.9924 -0.0543 -0.1106
vn 0.9331 -0.0432 -0.3569
vn 0.9331 -0.0431 -0.3570
vn 0.8899 -0.0834 -0.4485
vn 0.9924 -0.0543 -0.1107
vn 0.9463 0.0190 0.3226
vn 0.9734 0.0349 -0.2265
vn 0.9628 0.0271 -0.2690
vn 0.9316 -0.0168 0.3631
vn 0.9662 0.0393 0.2550
vn -0.9122 -0.2293 -0.3396
vn -0.8827 -0.2520 -0.3965
vn -0.9740 -0.2258 -0.0206
vn -0.9780 -0.2086 -0.0069
vn 0.6849 -0.0365 -0.7278
vn 0.4565 -0.1088 -0.8831
vn -0.6048 -0.2169 -0.7663
vn -0.8766 -0.2379 -0.4183
vn -0.6018 -0.2283 -0.7654
vn -0.9824 -0.1732 -0.0701
vn -0.8625 0.0084 0.5059
vn -0.8218 -0.1458 0.5508
vn 0.6848 -0.0366 -0.7278
vn 0.9331 -0.0431 -0.3571
vn -0.3319 -0.0490 0.9421
vn 0.6978 0.0306 0.7157
vn 0.3086 -0.0444 0.9502
vn 0.3086 -0.0444 0.9501
vn 0.2330 -0.0061 0.9725
vn 0.6977 0.0306 0.7157
vn 0.0925 -0.2041 -0.9746
vn -0.6046 -0.2354 -0.7610
vn -0.6045 -0.2354 -0.7610
vn 0.0713 -0.1282 -0.9892
vn 0.7041 -0.0148 -0.7099
vn 0.7239 -0.1031 -0.6821
vn 0.0927 -0.2041 -0.9746
vn 0.0715 -0.1282 -0.9892
vn -0.6047 -0.2354 -0.7609
vn -0.8784 -0.2173 -0.4258
vn -0.6047 -0.2169 -0.7663
vn 0.9453 0.0519 0.3219
vn 0.9787 -0.0054 -0.2054
vn 0.9786 -0.0054 -0.2056
vn 0.7240 -0.1031 -0.6820
vn 0.7042 -0.0148 -0.7098
vn 0.9786 -0.0054 -0.2055
vn -0.8784 -0.2173 -0.4256
vn -0.8767 -0.2379 -0.4181
vn 0.7563 -0.0238 0.6538
vn 0.7278 -0.0247 0.6854
vn 0.7278 -0.0246 0.6854
vn 0.6979 0.0306 0.7156
vn -0.8217 -0.1459 0.5510
vn -0.8625 0.0084 0.5061
vn -0.5694 -0.1272 0.8122
vn -0.3321 -0.0490 0.9420
vn -0.1409 -0.0881 0.9861
vn -0.5506 -0.1231 0.8256
vn -0.5693 -0.1272 0.8123
vn -0.5693 -0.1271 0.8122
vn -0.2098 -0.0871 0.9739
vn -0.1409 -0.0882 0.9861
vn -0.5508 -0.1230 0.8255
vn -0.8332 -0.0727 0.5481
vn -0.9656 -0.0661 0.2515
vn -0.8769 -0.1530 0.4557
vn -0.8333 -0.0727 0.5480
vn 0.9876 -0.0343 -0.1530
vn 0.9661 0.0025 0.2582
vn 0.9661 0.0025 0.2583
vn 0.8346 -0.0649 -0.5471
vn 0.6757 -0.0914 -0.7315
vn 0.5406 -0.0666 -0.8386
vn 0.8345 -0.0649 -0.5472
vn 0.1634 -0.0763 -0.9836
vn -0.2026 -0.1404 -0.9692
vn -0.2618 -0.0892 -0.9610
vn 0.1634 -0.0762 -0.9836
vn 0.7584 0.0141 0.6516
vn 0.9660 0.0025 0.2584
vn -0.2620 -0.0892 -0.9609
vn -0.2027 -0.1404 -0.9691
vn -0.6574 -0.1755 -0.7328
vn -0.6843 -0.1006 -0.7222
vn 0.1635 -0.0762 -0.9836
vn 0.5405 -0.0666 -0.8387
vn 0.5406 -0.0666 -0.8387
vn 0.6755 -0.0915 -0.7317
vn 0.2717 -0.1066 -0.9565
vn -0.9956 -0.0897 -0.0272
vn -0.9298 -0.0998 -0.3543
vn -0.9844 -0.1758 0.0097
vn -0.9297 -0.0998 -0.3545
vn -0.6844 -0.1006 -0.7221
vn 0.7583 0.0141 0.6518
vn 0.4080 -0.0252 0.9127
vn 0.7583 0.0141 0.6517
vn -0.9844 -0.1758 0.0099
vn -0.9656 -0.0661 0.2514
vn -0.9956 -0.0897 -0.0270
vn 0.9876 -0.0343 -0.1532
vn 0.8899 -0.0835 -0.4485
vn 0.8346 -0.0649 -0.5470
vn -0.5506 -0.1230 0.8256
vn -0.0696 -0.0549 0.9961
vn -0.5208 -0.0997 0.8479
vn -0.8879 -0.1849 -0.4211
vn -0.9941 -0.0630 -0.0878
vn -0.8879 -0.1849 -0.4212
vn -0.8879 -0.1849 -0.4213
vn -0.8784 -0.2173 -0.4257
vn -0.6010 -0.2426 -0.7615
vn -0.6009 -0.2427 -0.7616
vn 0.0926 -0.2042 -0.9745
vn 0.0926 -0.2041 -0.9746
vn 0.0835 -0.2846 -0.9550
vn 0.0837 -0.2846 -0.9550
vn 0.0927 -0.2041 -0.9745
vn 0.7239 -0.1032 -0.6822
vn 0.7055 -0.2052 -0.6783
vn 0.9827 -0.0453 -0.1795
vn 0.7057 -0.2052 -0.6782
vn 0.9453 0.0520 0.3219
vn 0.9464 0.0190 0.3225
vn 0.9828 -0.0452 -0.1793
vn 0.9828 -0.0453 -0.1793
vn 0.9453 0.0520 0.3220
vn -0.5693 -0.1271 0.8123
vn -0.3320 -0.0490 0.9420
vn 0.9662 0.0393 0.2549
vn -0.8828 -0.2520 -0.3965
vn -0.1407 -0.0881 0.9861
vn 0.4078 -0.0253 0.9127
vn -0.0694 -0.0549 0.9961
vn -0.5209 -0.0997 0.8478
vn -0.3321 -0.0489 0.9420
vn -0.9942 -0.0629 -0.0876
vn -0.8626 0.0084 0.5059
vn -0.9824 -0.1733 -0.0701
vn 0.2106 0.0837 0.9740
vn -0.9949 0.0543 -0.0847
vn -0.9213 0.0729 -0.3819
vn -0.9315 -0.0146 -0.3635
vn -0.9988 -0.0189 -0.0460
vn -0.9988 -0.0189 -0.0458
vn -0.9677 -0.0322 0.2499
vn -0.9770 0.0030 0.2132
vn -0.9770 0.0031 0.2131
vn -0.9949 0.0543 -0.0845
vn -0.6912 -0.0115 -0.7226
vn -0.2932 -0.0192 -0.9559
vn 0.1222 -0.0248 -0.9922
vn -0.2929 -0.0192 -0.9559
vn 0.1223 -0.0247 -0.9922
vn 0.1224 -0.0247 -0.9922
vn 0.5013 -0.0227 -0.8650
vn 0.1635 -0.0763 -0.9836
vn 0.5015 -0.0227 -0.8649
vn 0.8165 -0.0009 -0.5773
vn 0.5407 -0.0666 -0.8386
vn 0.9840 0.0516 -0.1706
vn 0.8166 -0.0009 -0.5772
vn 0.9840 0.0517 -0.1706
vn 0.9605 0.0986 0.2601
vn 0.9876 -0.0342 -0.1530
vn 0.9840 0.0516 -0.1704
vn 0.7535 0.1192 0.6465
vn 0.9660 0.0026 0.2584
vn 0.9605 0.0986 0.2602
vn 0.4080 -0.0252 0.9126
vn 0.7534 0.1192 0.6467
vn 0.4242 0.0424 0.9046
vn -0.6913 -0.0115 -0.7225
vn -0.9314 -0.0146 -0.3637
vn -0.9213 0.0729 -0.3820
vn -0.5869 -0.1319 0.7989
vn -0.8706 -0.0466 0.4898
vn -0.5869 -0.1319 0.7988
vn -0.9656 -0.0660 0.2515
vn -0.8707 -0.0466 0.4896
vn -0.9677 -0.0321 0.2501
vn -0.9956 -0.0896 -0.0271
vn -0.9956 -0.0896 -0.0270
vn -0.9656 -0.0660 0.2513
vn -0.9298 -0.0997 -0.3543
vn -0.9956 -0.0896 -0.0272
vn -0.9315 -0.0147 -0.3635
vn -0.9314 -0.0147 -0.3636
vn -0.9297 -0.0997 -0.3545
vn -0.9314 -0.0147 -0.3637
vn -0.0674 -0.0296 0.9973
vn 0.4078 -0.0252 0.9127
vn 0.4240 0.0424 0.9047
vn -0.0672 -0.0296 0.9973
vn -0.0674 -0.0297 0.9973
vn -0.5867 -0.1319 0.7990
vn -0.5207 -0.0997 0.8479
vt 0.403836 0.380876
vt 0.389828 0.382431
vt 0.388993 0.361135
vt 0.402155 0.359928
vt 0.373792 0.373338
vt 0.406194 0.395602
vt 0.391540 0.397357
vt 0.310284 0.443311
vt 0.308687 0.487700
vt 0.293425 0.486271
vt 0.295629 0.441689
vt 0.342414 0.444888
vt 0.341504 0.489636
vt 0.325600 0.489313
vt 0.326486 0.444985
vt 0.326976 0.389690
vt 0.327399 0.402599
vt 0.312161 0.400531
vt 0.312834 0.387571
vt 0.276354 0.396289
vt 0.270153 0.436629
vt 0.255305 0.432348
vt 0.261838 0.392524
vt 0.375156 0.399896
vt 0.388278 0.440323
vt 0.374349 0.443149
vt 0.393849 0.485721
vt 0.376685 0.488126
vt 0.420140 0.394674
vt 0.416198 0.369054
vt 0.430184 0.375605
vt 0.278543 0.484148
vt 0.284279 0.439806
vt 0.430467 0.433733
vt 0.442542 0.476145
vt 0.426376 0.479308
vt 0.415764 0.435897
vt 0.409528 0.482859
vt 0.399976 0.438545
vt 0.263118 0.480571
vt 0.358933 0.489443
vt 0.359101 0.444269
vt 0.356805 0.402140
vt 0.340754 0.391338
vt 0.355616 0.382896
vt 0.341628 0.403217
vt 0.450506 0.430632
vt 0.470852 0.470155
vt 0.457465 0.473029
vt 0.441747 0.432377
vt 0.294874 0.399261
vt 0.295718 0.385526
vt 0.278003 0.384320
vt 0.248569 0.475911
vt 0.428568 0.357358
vt 0.434367 0.393315
vt 0.313049 0.375480
vt 0.326709 0.377288
vt 0.296663 0.373367
vt 0.340604 0.379987
vt 0.264325 0.373013
vt 0.279837 0.372793
vt 0.384141 0.528605
vt 0.369947 0.529595
vt 0.487623 0.507284
vt 0.471116 0.512187
vt 0.258798 0.522816
vt 0.275131 0.526975
vt 0.290994 0.529644
vt 0.307407 0.531417
vt 0.452762 0.517686
vt 0.323463 0.531780
vt 0.355584 0.530144
vt 0.339823 0.531120
vt 0.435779 0.521965
vt 0.243117 0.517628
vt 0.416514 0.526062
vt 0.399447 0.527689
vt 0.340636 0.367902
vt 0.356453 0.364709
vt 0.326836 0.367716
vt 0.313737 0.366102
vt 0.297893 0.364004
vt 0.280762 0.362047
vt 0.268135 0.353682
vt 0.352103 0.567794
vt 0.336708 0.569780
vt 0.338009 0.554408
vt 0.353230 0.552872
vt 0.368162 0.551577
vt 0.366823 0.565499
vt 0.322430 0.556600
vt 0.306711 0.557592
vt 0.289891 0.557112
vt 0.273913 0.554282
vt 0.257265 0.547892
vt 0.242676 0.540163
vt 0.477228 0.530027
vt 0.496601 0.525749
vt 0.456785 0.534242
vt 0.438386 0.537974
vt 0.399569 0.551025
vt 0.383384 0.551027
vt 0.417075 0.541533
s 1
g 左足D
g 肌.009_Материал.020
usemtl Материал.020
f 3/1/1 2/2/2 1/3/3
s 2
g 左ひざD
f 6/3/3 5/4/4 4/1/1
s 3
g 左足D
f 9/2/5 8/5/6 7/3/7
s 4
f 12/2/2 11/1/8 10/6/9
s 5
f 15/6/9 14/7/10 13/2/2
s 6
f 18/8/11 17/9/12 16/10/13
s 7
f 21/10/13 20/11/14 19/8/11
s 8
f 24/12/15 23/13/16 22/14/17
s 9
f 27/14/17 26/15/18 25/12/15
s 10
f 30/16/19 29/17/20 28/18/21
s 11
f 33/18/21 32/19/22 31/16/19
s 12
f 36/20/23 35/21/24 34/22/25
s 13
f 39/22/25 38/23/26 37/20/23
s 14
f 42/24/27 41/25/28 40/26/29
s 15
f 45/27/30 44/28/31 43/26/29
s 16
f 48/26/32 47/25/28 46/27/30
s 17
f 51/29/33 50/30/34 49/31/35
s 18
f 54/32/36 53/33/37 52/11/38
s 19
f 57/11/38 56/10/39 55/32/40
s 20
f 60/34/41 59/35/42 58/36/43
s 21
f 63/36/43 62/37/44 61/34/45
s 22
f 66/36/46 65/38/47 64/39/48
s 23
f 69/39/48 68/37/49 67/36/46
s 24
f 72/33/50 71/32/51 70/40/52
s 25
f 75/40/53 74/21/54 73/33/55
s 26
f 78/41/56 77/13/57 76/12/58
s 27
f 81/12/58 80/42/59 79/41/56
s 28
f 84/43/60 83/44/61 82/45/62
s 29
f 87/9/63 86/8/64 85/15/65
s 30
f 90/15/65 89/14/66 88/9/63
s 31
f 93/15/67 92/17/68 91/46/69
s 32
f 96/46/69 95/12/70 94/15/18
s 33
f 99/47/25 98/48/71 97/49/72
s 34
f 102/49/73 101/50/74 100/47/75
s 35
f 105/30/76 104/1/77 103/4/78
s 36
f 108/26/79 107/42/80 106/43/81
s 37
f 111/43/82 110/24/83 109/26/79
s 38
f 114/42/84 113/26/85 112/28/86
s 39
f 117/28/86 116/41/87 115/42/80
s 40
f 120/19/88 119/18/89 118/51/90
s 41
f 123/51/90 122/52/91 121/19/88
s 42
f 126/20/92 125/53/93 124/52/94
s 43
f 129/52/94 128/51/95 127/20/92
s 44
f 132/54/96 131/22/25 130/21/97
s 45
f 135/21/98 134/40/99 133/54/100
s 46
f 138/30/34 137/55/101 136/31/35
s 47
f 141/8/64 140/18/21 139/17/20
s 48
f 144/17/20 143/15/65 142/8/64
s 49
f 147/23/26 146/53/102 145/20/103
s 50
f 150/50/104 149/29/33 148/56/105
s 51
f 153/12/106 152/46/107 151/43/108
s 52
f 156/43/60 155/42/109 154/12/58
s 53
f 159/51/110 158/11/111 157/33/37
s 54
f 162/17/68 161/16/112 160/44/113
s 55
f 165/44/113 164/46/69 163/17/114
s 56
f 168/45/115 167/5/116 166/24/117
s 57
f 171/18/89 170/8/11 169/11/14
s 58
f 174/11/38 173/51/118 172/18/89
s 59
f 177/21/119 176/20/92 175/51/95
s 60
f 180/51/95 179/33/55 178/21/119
s 61
f 183/6/9 182/37/49 181/39/48
s 62
f 186/39/48 185/7/120 184/6/9
s 63
f 189/29/121 188/34/41 187/37/122
s 64
f 192/37/123 191/6/124 190/29/125
s 65
f 195/29/121 194/1/77 193/30/76
s 66
f 198/19/22 197/57/126 196/58/127
s 67
f 201/58/128 200/16/19 199/19/129
s 68
f 204/52/130 203/59/131 202/57/132
s 69
f 207/57/132 206/19/133 205/52/130
s 70
f 210/16/112 209/58/134 208/60/135
s 71
f 213/60/135 212/44/113 211/16/136
s 72
f 216/61/137 215/62/138 214/53/102
s 73
f 219/62/139 218/59/140 217/52/94
s 74
f 222/52/141 221/53/93 220/62/142
s 75
f 225/60/143 224/45/62 223/44/144
s 76
f 228/35/145 227/34/146 226/50/104
s 77
f 231/50/104 230/49/73 229/35/145
s 78
f 234/34/147 233/29/148 232/50/104
s 79
f 237/2/5 236/24/149 235/5/150
s 80
f 240/25/151 239/24/149 238/7/152
s 81
f 243/38/153 242/27/154 241/25/155
s 82
f 246/25/156 245/39/157 244/38/158
s 83
f 249/27/159 248/63/160 247/28/31
s 84
f 252/64/161 251/28/162 250/63/163
s 85
f 255/48/71 254/65/164 253/66/165
s 86
f 258/66/166 257/49/72 256/48/71
s 87
f 261/67/167 260/40/52 259/32/168
s 88
f 264/32/36 263/68/169 262/67/170
s 89
f 267/69/171 266/10/13 265/9/12
s 90
f 270/9/172 269/70/173 268/69/174
s 91
f 273/71/175 272/35/145 271/49/73
s 92
f 276/49/73 275/66/176 274/71/175
s 93
f 279/70/177 278/9/178 277/14/66
s 94
f 282/14/179 281/72/180 280/70/177
s 95
f 285/10/39 284/69/181 283/68/182
s 96
f 288/68/183 287/32/184 286/10/185
s 97
f 291/73/186 290/74/187 289/13/57
s 98
f 294/13/57 293/41/188 292/73/186
s 99
f 297/13/16 296/74/189 295/72/190
s 100
f 300/72/190 299/14/17 298/13/16
s 101
f 303/71/191 302/75/192 301/36/43
s 102
f 306/36/43 305/35/42 304/71/193
s 103
f 309/41/194 308/64/195 307/73/196
s 104
f 312/76/197 311/54/100 310/40/198
s 105
f 315/40/198 314/67/199 313/76/197
s 106
f 318/27/200 317/38/158 316/77/201
s 107
f 321/77/201 320/78/202 319/27/154
s 108
f 324/79/203 323/80/204 322/45/62
s 109
f 327/45/62 326/60/143 325/79/205
s 110
f 330/79/206 329/60/207 328/58/134
s 111
f 333/58/134 332/81/208 331/79/206
s 112
f 336/81/209 335/58/128 334/57/210
s 113
f 339/57/211 338/82/212 337/81/209
s 114
f 342/82/213 341/57/214 340/59/131
s 115
f 345/59/215 344/83/216 343/82/213
s 116
f 348/84/217 347/83/218 346/59/140
s 117
f 351/59/140 350/62/142 349/84/217
s 118
f 354/61/219 353/85/220 352/84/221
s 119
f 357/84/222 356/62/138 355/61/223
s 120
f 360/23/26 359/61/219 358/53/102
s 121
f 363/25/224 362/7/225 361/39/157
s 122
f 366/50/74 365/56/226 364/47/75
s 123
f 369/43/60 368/46/227 367/44/144
s 124
f 372/38/228 371/36/46 370/75/229
s 125
f 375/75/229 374/77/230 373/38/228
s 126
f 378/78/231 377/63/160 376/27/159
s 127
f 381/41/194 380/28/86 379/64/195
s 128
f 384/24/149 383/2/5 382/7/232
s 129
f 387/80/233 386/5/234 385/45/235
s 130
f 390/1/236 389/29/125 388/6/124
s 131
f 393/45/235 392/24/83 391/43/81
s 132
f 396/29/148 395/31/35 394/56/105
s 168
f 504/86/237 503/87/238 502/88/239
s 169
f 507/88/239 506/89/240 505/86/237
s 170
f 510/89/241 509/90/242 508/91/243
s 171
f 513/91/244 512/86/245 511/89/241
s 172
f 516/72/180 515/92/246 514/93/247
s 173
f 519/93/247 518/70/177 517/72/180
s 174
f 522/94/248 521/69/174 520/70/173
s 175
f 525/70/173 524/93/249 523/94/250
s 176
f 528/69/181 527/94/251 526/95/252
s 177
f 531/95/252 530/68/182 529/69/253
s 178
f 534/68/169 533/95/254 532/96/255
s 179
f 537/96/255 536/67/170 535/68/256
s 180
f 540/97/257 539/76/197 538/67/199
s 181
f 543/67/199 542/96/258 541/97/259
s 182
f 546/98/260 545/66/165 544/65/261
s 183
f 549/65/261 548/99/262 547/98/260
s 184
f 552/100/263 551/71/175 550/66/264
s 185
f 555/66/176 554/98/265 553/100/263
s 186
f 558/75/266 557/71/191 556/100/267
s 187
f 561/100/267 560/101/268 559/75/266
s 188
f 564/92/269 563/88/270 562/87/271
s 189
f 567/102/272 566/103/273 565/63/160
s 190
f 570/63/160 569/78/231 568/102/274
s 191
f 573/64/275 572/63/163 571/103/276
s 192
f 576/103/276 575/90/277 574/64/275
s 193
f 579/90/242 578/89/241 577/73/278
s 194
f 582/73/279 581/64/280 580/90/242
s 195
f 585/74/281 584/73/282 583/89/240
s 196
f 588/89/240 587/88/283 586/74/281
s 197
f 591/88/284 590/92/269 589/72/190
s 198
f 594/72/190 593/74/285 592/88/286
s 199
f 597/78/202 596/77/201 595/104/287
s 200
f 600/77/230 599/75/288 598/101/289
s 201
f 603/101/289 602/104/290 601/77/230
s 202
f 606/104/291 605/102/292 604/78/293
s 133
g 肌.009_Material.002
usemtl Material.002
f 399/86/237 398/87/238 397/88/239
s 134
f 402/88/239 401/89/240 400/86/237
s 135
f 405/89/241 404/90/242 403/91/243
s 136
f 408/91/244 407/86/245 406/89/241
s 137
f 411/72/180 410/92/246 409/93/247
s 138
f 414/93/247 413/70/177 412/72/180
s 139
f 417/94/248 416/69/174 415/70/173
s 140
f 420/70/173 419/93/249 418/94/250
s 141
f 423/69/181 422/94/251 421/95/252
s 142
f 426/95/252 425/68/182 424/69/253
s 143
f 429/68/169 428/95/254 427/96/255
s 144
f 432/96/255 431/67/170 430/68/256
s 145
f 435/97/257 434/76/197 433/67/199
s 146
f 438/67/199 437/96/258 436/97/259
s 147
f 441/98/260 440/66/165 439/65/261
s 148
f 444/65/261 443/99/262 442/98/260
s 149
f 447/100/263 446/71/175 445/66/264
s 150
f 450/66/176 449/98/265 448/100/263
s 151
f 453/75/266 452/71/191 451/100/267
s 152
f 456/100/267 455/101/268 454/75/266
s 153
f 459/92/269 458/88/270 457/87/271
s 154
f 462/102/272 461/103/273 460/63/160
s 155
f 465/63/160 464/78/231 463/102/274
s 156
f 468/64/275 467/63/163 466/103/276
s 157
f 471/103/276 470/90/277 469/64/275
s 158
f 474/90/242 473/89/241 472/73/278
s 159
f 477/73/279 476/64/280 475/90/242
s 160
f 480/74/281 479/73/282 478/89/240
s 161
f 483/89/240 482/88/283 481/74/281
s 162
f 486/88/284 485/92/269 484/72/190
s 163
f 489/72/190 488/74/285 487/88/286
s 164
f 492/78/202 491/77/201 490/104/287
s 165
f 495/77/230 494/75/288 493/101/289
s 166
f 498/101/289 497/104/290 496/77/230
s 167
f 501/104/291 500/102/292 499/78/293
