# Blender 5.0.1
# www.blender.org
mtllib muslo_der_yae.mtl
g 肌.010_Malla
v 0.005174 -0.007122 0.027957
v 0.014277 -0.016803 0.024417
v 0.015465 -0.001562 0.025158
v -0.007509 -0.007924 0.025798
v -0.008013 -0.017475 0.025349
v 0.004133 -0.016766 0.027984
v 0.004133 -0.016766 0.027984
v 0.005174 -0.007122 0.027957
v -0.007509 -0.007924 0.025798
v 0.014277 -0.016803 0.024417
v 0.005174 -0.007122 0.027957
v 0.004133 -0.016766 0.027984
v 0.024459 -0.000705 -0.010866
v 0.023823 -0.016324 -0.009836
v 0.018450 -0.016131 -0.018959
v 0.018450 -0.016131 -0.018959
v 0.019260 0.000247 -0.019611
v 0.024459 -0.000705 -0.010866
v 0.023823 -0.016324 -0.009836
v 0.024459 -0.000705 -0.010866
v 0.026431 -0.001226 -0.001154
v 0.026431 -0.001226 -0.001154
v 0.025785 -0.016556 0.000133
v 0.023823 -0.016324 -0.009836
v 0.025785 -0.016556 0.000133
v 0.026431 -0.001226 -0.001154
v 0.025185 -0.001657 0.008377
v 0.025185 -0.001657 0.008377
v 0.024528 -0.016469 0.009238
v 0.025785 -0.016556 0.000133
v 0.021549 -0.001701 0.017303
v 0.021187 -0.016727 0.017622
v 0.024528 -0.016469 0.009238
v 0.024528 -0.016469 0.009238
v 0.025185 -0.001657 0.008377
v 0.021549 -0.001701 0.017303
v 0.015465 -0.001562 0.025158
v 0.014277 -0.016803 0.024417
v 0.021187 -0.016727 0.017622
v 0.021187 -0.016727 0.017622
v 0.021549 -0.001701 0.017303
v 0.015465 -0.001562 0.025158
v 0.019260 0.000247 -0.019611
v 0.023824 0.009558 -0.011345
v 0.024459 -0.000705 -0.010866
v -0.008013 -0.017475 0.025349
v -0.007509 -0.007924 0.025798
v -0.016473 -0.007603 0.018799
v -0.016473 -0.007603 0.018799
v -0.017042 -0.017699 0.018865
v -0.008013 -0.017475 0.025349
v -0.022642 -0.018077 0.007984
v -0.017042 -0.017699 0.018865
v -0.016473 -0.007603 0.018799
v -0.016473 -0.007603 0.018799
v -0.022459 -0.006729 0.007217
v -0.022642 -0.018077 0.007984
v -0.023130 -0.018037 -0.002970
v -0.022642 -0.018077 0.007984
v -0.022459 -0.006729 0.007217
v -0.022459 -0.006729 0.007217
v -0.022782 -0.005160 -0.005386
v -0.023130 -0.018037 -0.002970
v -0.019521 -0.017478 -0.012725
v -0.023130 -0.018037 -0.002970
v -0.022782 -0.005160 -0.005386
v -0.022782 -0.005160 -0.005386
v -0.018980 -0.003009 -0.014504
v -0.019521 -0.017478 -0.012725
v -0.018980 -0.003009 -0.014504
v -0.010539 -0.000992 -0.021965
v -0.011590 -0.016965 -0.020251
v -0.011590 -0.016965 -0.020251
v -0.019521 -0.017478 -0.012725
v -0.018980 -0.003009 -0.014504
v -0.010539 -0.000992 -0.021965
v -0.000672 0.000161 -0.025469
v -0.001766 -0.016589 -0.024203
v -0.001766 -0.016589 -0.024203
v -0.011590 -0.016965 -0.020251
v -0.010539 -0.000992 -0.021965
v 0.009110 -0.016162 -0.023786
v -0.001766 -0.016589 -0.024203
v -0.000672 0.000161 -0.025469
v -0.000672 0.000161 -0.025469
v 0.010196 0.000527 -0.024426
v 0.009110 -0.016162 -0.023786
v 0.018450 -0.016131 -0.018959
v 0.009110 -0.016162 -0.023786
v 0.010196 0.000527 -0.024426
v 0.010196 0.000527 -0.024426
v 0.019260 0.000247 -0.019611
v 0.018450 -0.016131 -0.018959
v 0.025544 0.007736 0.008102
v 0.025185 -0.001657 0.008377
v 0.026431 -0.001226 -0.001154
v 0.026431 -0.001226 -0.001154
v 0.026182 0.008838 -0.001505
v 0.025544 0.007736 0.008102
v 0.024459 -0.000705 -0.010866
v 0.023824 0.009558 -0.011345
v 0.026182 0.008838 -0.001505
v 0.026182 0.008838 -0.001505
v 0.026431 -0.001226 -0.001154
v 0.024459 -0.000705 -0.010866
v -0.008974 -0.105146 0.021874
v -0.000761 -0.105398 0.021522
v -0.001597 -0.117999 0.023265
v -0.001597 -0.117999 0.023265
v -0.009050 -0.117968 0.023306
v -0.008974 -0.105146 0.021874
v 0.005545 -0.112367 0.016653
v -0.001597 -0.117999 0.023265
v -0.000761 -0.105398 0.021522
v -0.000761 -0.105398 0.021522
v -0.008974 -0.105146 0.021874
v -0.008849 -0.096063 0.021519
v -0.008849 -0.096063 0.021519
v -0.000090 -0.096566 0.021060
v -0.000761 -0.105398 0.021522
v -0.004869 -0.043244 -0.021325
v -0.009378 -0.070508 -0.016118
v -0.000355 -0.071248 -0.017648
v -0.000355 -0.071248 -0.017648
v 0.005043 -0.043716 -0.021416
v -0.004869 -0.043244 -0.021325
v 0.014290 -0.071514 -0.005809
v 0.020430 -0.043488 -0.008160
v 0.015067 -0.043630 -0.016876
v 0.015067 -0.043630 -0.016876
v 0.009200 -0.071451 -0.014250
v 0.014290 -0.071514 -0.005809
v -0.005437 -0.097817 -0.013836
v -0.006721 -0.106072 -0.012921
v 0.001518 -0.105539 -0.010020
v 0.001518 -0.105539 -0.010020
v 0.003333 -0.097573 -0.010882
v -0.005437 -0.097817 -0.013836
v -0.020911 -0.069256 0.006116
v -0.020488 -0.094627 0.009890
v -0.020488 -0.094906 0.000587
v -0.020488 -0.094906 0.000587
v -0.019306 -0.069415 -0.003450
v -0.020911 -0.069256 0.006116
v 0.008107 -0.071554 0.019787
v 0.014660 -0.071313 0.013787
v 0.007751 -0.096897 0.015312
v 0.014660 -0.071313 0.013787
v 0.008107 -0.071554 0.019787
v 0.012152 -0.043455 0.021689
v 0.012152 -0.043455 0.021689
v 0.020223 -0.043284 0.014103
v 0.014660 -0.071313 0.013787
v -0.020949 -0.106979 0.011721
v -0.020488 -0.094627 0.009890
v -0.016195 -0.095239 0.017487
v -0.009378 -0.070508 -0.016118
v -0.004869 -0.043244 -0.021325
v -0.013137 -0.042670 -0.016276
v -0.013137 -0.042670 -0.016276
v -0.014539 -0.069880 -0.011152
v -0.009378 -0.070508 -0.016118
v -0.008280 -0.043799 0.024436
v -0.008445 -0.070963 0.022619
v -0.016221 -0.070272 0.017650
v -0.016221 -0.070272 0.017650
v -0.016939 -0.043468 0.018358
v -0.008280 -0.043799 0.024436
v -0.008280 -0.043799 0.024436
v 0.002761 -0.043737 0.025872
v 0.001548 -0.071363 0.023237
v 0.001548 -0.071363 0.023237
v -0.008445 -0.070963 0.022619
v -0.008280 -0.043799 0.024436
v -0.019064 -0.042458 -0.008068
v -0.019306 -0.069415 -0.003450
v -0.014539 -0.069880 -0.011152
v -0.014539 -0.069880 -0.011152
v -0.013137 -0.042670 -0.016276
v -0.019064 -0.042458 -0.008068
v 0.014290 -0.071514 -0.005809
v 0.015975 -0.071396 0.004404
v 0.022043 -0.043138 0.002875
v 0.022043 -0.043138 0.002875
v 0.020430 -0.043488 -0.008160
v 0.014290 -0.071514 -0.005809
v 0.006197 -0.104179 -0.003299
v 0.008227 -0.108498 0.005594
v 0.010488 -0.096986 0.004780
v 0.009200 -0.071451 -0.014250
v 0.015067 -0.043630 -0.016876
v 0.005043 -0.043716 -0.021416
v 0.005043 -0.043716 -0.021416
v -0.000355 -0.071248 -0.017648
v 0.009200 -0.071451 -0.014250
v 0.008014 -0.096995 -0.003819
v 0.014290 -0.071514 -0.005809
v 0.009200 -0.071451 -0.014250
v 0.009200 -0.071451 -0.014250
v 0.003333 -0.097573 -0.010882
v 0.008014 -0.096995 -0.003819
v -0.021301 -0.043113 0.009689
v -0.019703 -0.069499 0.011535
v -0.020911 -0.069256 0.006116
v -0.020911 -0.069256 0.006116
v -0.022016 -0.042656 0.001113
v -0.021301 -0.043113 0.009689
v -0.008974 -0.105146 0.021874
v -0.009050 -0.117968 0.023306
v -0.016123 -0.111846 0.019105
v 0.010488 -0.096986 0.004780
v 0.007751 -0.096897 0.015312
v 0.014660 -0.071313 0.013787
v 0.014660 -0.071313 0.013787
v 0.015975 -0.071396 0.004404
v 0.010488 -0.096986 0.004780
v 0.020223 -0.043284 0.014103
v 0.022043 -0.043138 0.002875
v 0.015975 -0.071396 0.004404
v 0.015975 -0.071396 0.004404
v 0.014660 -0.071313 0.013787
v 0.020223 -0.043284 0.014103
v -0.014666 -0.096223 -0.009204
v -0.016147 -0.104940 -0.008009
v -0.006721 -0.106072 -0.012921
v -0.006721 -0.106072 -0.012921
v -0.005437 -0.097817 -0.013836
v -0.014666 -0.096223 -0.009204
v -0.016147 -0.104940 -0.008009
v -0.014666 -0.096223 -0.009204
v -0.020488 -0.094906 0.000587
v -0.020488 -0.094906 0.000587
v -0.021315 -0.102547 0.001541
v -0.016147 -0.104940 -0.008009
v -0.019306 -0.069415 -0.003450
v -0.019064 -0.042458 -0.008068
v -0.022016 -0.042656 0.001113
v -0.022016 -0.042656 0.001113
v -0.020911 -0.069256 0.006116
v -0.019306 -0.069415 -0.003450
v -0.020940 -0.119392 0.013200
v -0.020949 -0.106979 0.011721
v -0.016123 -0.111846 0.019105
v 0.003333 -0.097573 -0.010882
v 0.009200 -0.071451 -0.014250
v -0.000355 -0.071248 -0.017648
v -0.000355 -0.071248 -0.017648
v -0.005437 -0.097817 -0.013836
v 0.003333 -0.097573 -0.010882
v -0.021315 -0.102547 0.001541
v -0.020488 -0.094906 0.000587
v -0.020488 -0.094627 0.009890
v -0.016195 -0.095239 0.017487
v -0.020488 -0.094627 0.009890
v -0.019703 -0.069499 0.011535
v 0.014290 -0.071514 -0.005809
v 0.008014 -0.096995 -0.003819
v 0.010488 -0.096986 0.004780
v 0.010488 -0.096986 0.004780
v 0.015975 -0.071396 0.004404
v 0.014290 -0.071514 -0.005809
v -0.009378 -0.070508 -0.016118
v -0.014539 -0.069880 -0.011152
v -0.014666 -0.096223 -0.009204
v 0.006197 -0.104179 -0.003299
v 0.008014 -0.096995 -0.003819
v 0.003333 -0.097573 -0.010882
v 0.003333 -0.097573 -0.010882
v 0.001518 -0.105539 -0.010020
v 0.006197 -0.104179 -0.003299
v 0.007751 -0.096897 0.015312
v 0.010488 -0.096986 0.004780
v 0.008227 -0.108498 0.005594
v -0.009378 -0.070508 -0.016118
v -0.014666 -0.096223 -0.009204
v -0.005437 -0.097817 -0.013836
v -0.005437 -0.097817 -0.013836
v -0.000355 -0.071248 -0.017648
v -0.009378 -0.070508 -0.016118
v -0.014666 -0.096223 -0.009204
v -0.014539 -0.069880 -0.011152
v -0.019306 -0.069415 -0.003450
v -0.019306 -0.069415 -0.003450
v -0.020488 -0.094906 0.000587
v -0.014666 -0.096223 -0.009204
v 0.001548 -0.071363 0.023237
v -0.000090 -0.096566 0.021060
v -0.008849 -0.096063 0.021519
v -0.008849 -0.096063 0.021519
v -0.008445 -0.070963 0.022619
v 0.001548 -0.071363 0.023237
v -0.008445 -0.070963 0.022619
v -0.008849 -0.096063 0.021519
v -0.016195 -0.095239 0.017487
v -0.016195 -0.095239 0.017487
v -0.016221 -0.070272 0.017650
v -0.008445 -0.070963 0.022619
v -0.016123 -0.111846 0.019105
v -0.016195 -0.095239 0.017487
v -0.008974 -0.105146 0.021874
v 0.000194 -0.113170 -0.008920
v 0.001518 -0.105539 -0.010020
v -0.006721 -0.106072 -0.012921
v -0.006721 -0.106072 -0.012921
v -0.007848 -0.113740 -0.011624
v 0.000194 -0.113170 -0.008920
v -0.007848 -0.113740 -0.011624
v -0.006721 -0.106072 -0.012921
v -0.016147 -0.104940 -0.008009
v -0.016147 -0.104940 -0.008009
v -0.017045 -0.112735 -0.006799
v -0.007848 -0.113740 -0.011624
v 0.004869 -0.110998 -0.002192
v 0.006197 -0.104179 -0.003299
v 0.001518 -0.105539 -0.010020
v 0.001518 -0.105539 -0.010020
v 0.000194 -0.113170 -0.008920
v 0.004869 -0.110998 -0.002192
v -0.021578 -0.110030 0.002496
v -0.021315 -0.102547 0.001541
v -0.020949 -0.106979 0.011721
v -0.021578 -0.110030 0.002496
v -0.017045 -0.112735 -0.006799
v -0.016147 -0.104940 -0.008009
v -0.016147 -0.104940 -0.008009
v -0.021315 -0.102547 0.001541
v -0.021578 -0.110030 0.002496
v 0.008227 -0.108498 0.005594
v 0.006197 -0.104179 -0.003299
v 0.004869 -0.110998 -0.002192
v -0.019703 -0.069499 0.011535
v -0.021301 -0.043113 0.009689
v -0.016939 -0.043468 0.018358
v -0.016939 -0.043468 0.018358
v -0.016221 -0.070272 0.017650
v -0.019703 -0.069499 0.011535
v -0.016195 -0.095239 0.017487
v -0.019703 -0.069499 0.011535
v -0.016221 -0.070272 0.017650
v 0.005545 -0.112367 0.016653
v -0.000761 -0.105398 0.021522
v 0.007751 -0.096897 0.015312
v 0.007751 -0.096897 0.015312
v -0.000090 -0.096566 0.021060
v 0.008107 -0.071554 0.019787
v 0.008107 -0.071554 0.019787
v 0.001548 -0.071363 0.023237
v 0.002761 -0.043737 0.025872
v 0.002761 -0.043737 0.025872
v 0.012152 -0.043455 0.021689
v 0.008107 -0.071554 0.019787
v 0.021187 -0.016727 0.017622
v 0.020223 -0.043284 0.014103
v 0.012152 -0.043455 0.021689
v 0.020223 -0.043284 0.014103
v 0.021187 -0.016727 0.017622
v 0.024528 -0.016469 0.009238
v -0.022642 -0.018077 0.007984
v -0.021301 -0.043113 0.009689
v -0.022016 -0.042656 0.001113
v -0.022016 -0.042656 0.001113
v -0.023130 -0.018037 -0.002970
v -0.022642 -0.018077 0.007984
v -0.013137 -0.042670 -0.016276
v -0.011590 -0.016965 -0.020251
v -0.019521 -0.017478 -0.012725
v -0.019521 -0.017478 -0.012725
v -0.019064 -0.042458 -0.008068
v -0.013137 -0.042670 -0.016276
v -0.001766 -0.016589 -0.024203
v -0.004869 -0.043244 -0.021325
v 0.005043 -0.043716 -0.021416
v 0.005043 -0.043716 -0.021416
v 0.009110 -0.016162 -0.023786
v -0.001766 -0.016589 -0.024203
v -0.021301 -0.043113 0.009689
v -0.022642 -0.018077 0.007984
v -0.017042 -0.017699 0.018865
v -0.017042 -0.017699 0.018865
v -0.016939 -0.043468 0.018358
v -0.021301 -0.043113 0.009689
v 0.015067 -0.043630 -0.016876
v 0.018450 -0.016131 -0.018959
v 0.009110 -0.016162 -0.023786
v 0.009110 -0.016162 -0.023786
v 0.005043 -0.043716 -0.021416
v 0.015067 -0.043630 -0.016876
v -0.004869 -0.043244 -0.021325
v -0.001766 -0.016589 -0.024203
v -0.011590 -0.016965 -0.020251
v -0.011590 -0.016965 -0.020251
v -0.013137 -0.042670 -0.016276
v -0.004869 -0.043244 -0.021325
v 0.020430 -0.043488 -0.008160
v 0.022043 -0.043138 0.002875
v 0.025785 -0.016556 0.000133
v 0.025785 -0.016556 0.000133
v 0.023823 -0.016324 -0.009836
v 0.020430 -0.043488 -0.008160
v 0.020430 -0.043488 -0.008160
v 0.023823 -0.016324 -0.009836
v 0.018450 -0.016131 -0.018959
v 0.018450 -0.016131 -0.018959
v 0.015067 -0.043630 -0.016876
v 0.020430 -0.043488 -0.008160
v -0.017042 -0.017699 0.018865
v -0.008013 -0.017475 0.025349
v -0.008280 -0.043799 0.024436
v -0.008280 -0.043799 0.024436
v -0.016939 -0.043468 0.018358
v -0.017042 -0.017699 0.018865
v 0.024528 -0.016469 0.009238
v 0.025785 -0.016556 0.000133
v 0.022043 -0.043138 0.002875
v -0.019064 -0.042458 -0.008068
v -0.019521 -0.017478 -0.012725
v -0.023130 -0.018037 -0.002970
v -0.023130 -0.018037 -0.002970
v -0.022016 -0.042656 0.001113
v -0.019064 -0.042458 -0.008068
v 0.012152 -0.043455 0.021689
v 0.002761 -0.043737 0.025872
v 0.004133 -0.016766 0.027984
v 0.004133 -0.016766 0.027984
v 0.014277 -0.016803 0.024417
v 0.012152 -0.043455 0.021689
v 0.008227 -0.108498 0.005594
v 0.004869 -0.110998 -0.002192
v 0.003932 -0.118196 -0.000700
v 0.003932 -0.118196 -0.000700
v 0.006779 -0.119135 0.008177
v 0.008227 -0.108498 0.005594
v 0.003932 -0.118196 -0.000700
v 0.004869 -0.110998 -0.002192
v 0.000194 -0.113170 -0.008920
v 0.000194 -0.113170 -0.008920
v -0.000479 -0.118942 -0.007498
v 0.003932 -0.118196 -0.000700
v -0.007848 -0.113740 -0.011624
v -0.008009 -0.119621 -0.010054
v -0.000479 -0.118942 -0.007498
v -0.000479 -0.118942 -0.007498
v 0.000194 -0.113170 -0.008920
v -0.007848 -0.113740 -0.011624
v -0.017045 -0.112735 -0.006799
v -0.016759 -0.118762 -0.005414
v -0.008009 -0.119621 -0.010054
v -0.008009 -0.119621 -0.010054
v -0.007848 -0.113740 -0.011624
v -0.017045 -0.112735 -0.006799
v -0.017045 -0.112735 -0.006799
v -0.021578 -0.110030 0.002496
v -0.021662 -0.116817 0.004027
v -0.021662 -0.116817 0.004027
v -0.016759 -0.118762 -0.005414
v -0.017045 -0.112735 -0.006799
v -0.020949 -0.106979 0.011721
v -0.020940 -0.119392 0.013200
v -0.021662 -0.116817 0.004027
v -0.021662 -0.116817 0.004027
v -0.021578 -0.110030 0.002496
v -0.020949 -0.106979 0.011721
v -0.020949 -0.106979 0.011721
v -0.021315 -0.102547 0.001541
v -0.020488 -0.094627 0.009890
v -0.000090 -0.096566 0.021060
v 0.001548 -0.071363 0.023237
v 0.008107 -0.071554 0.019787
v -0.020488 -0.094627 0.009890
v -0.020911 -0.069256 0.006116
v -0.019703 -0.069499 0.011535
v 0.008014 -0.096995 -0.003819
v 0.006197 -0.104179 -0.003299
v 0.010488 -0.096986 0.004780
v -0.008013 -0.017475 0.025349
v 0.004133 -0.016766 0.027984
v 0.002761 -0.043737 0.025872
v 0.002761 -0.043737 0.025872
v -0.008280 -0.043799 0.024436
v -0.008013 -0.017475 0.025349
v 0.021187 -0.016727 0.017622
v 0.012152 -0.043455 0.021689
v 0.014277 -0.016803 0.024417
v 0.020223 -0.043284 0.014103
v 0.024528 -0.016469 0.009238
v 0.022043 -0.043138 0.002875
v -0.000090 -0.096566 0.021060
v 0.007751 -0.096897 0.015312
v -0.000761 -0.105398 0.021522
v 0.005545 -0.112367 0.016653
v 0.008227 -0.108498 0.005594
v 0.006779 -0.119135 0.008177
v -0.008849 -0.096063 0.021519
v -0.008974 -0.105146 0.021874
v -0.016195 -0.095239 0.017487
v 0.005545 -0.112367 0.016653
v 0.007751 -0.096897 0.015312
v 0.008227 -0.108498 0.005594
v -0.016123 -0.111846 0.019105
v -0.020949 -0.106979 0.011721
v -0.016195 -0.095239 0.017487
v 0.024459 -0.000705 -0.010866
v 0.026431 -0.001226 -0.001154
v 0.026182 0.008838 -0.001505
v 0.026182 0.008838 -0.001505
v 0.023824 0.009558 -0.011345
v 0.024459 -0.000705 -0.010866
v 0.025544 0.007736 0.008102
v 0.026182 0.008838 -0.001505
v 0.026431 -0.001226 -0.001154
v 0.026431 -0.001226 -0.001154
v 0.025185 -0.001657 0.008377
v 0.025544 0.007736 0.008102
v 0.018450 -0.016131 -0.018959
v 0.019260 0.000247 -0.019611
v 0.010196 0.000527 -0.024426
v 0.010196 0.000527 -0.024426
v 0.009110 -0.016162 -0.023786
v 0.018450 -0.016131 -0.018959
v 0.009110 -0.016162 -0.023786
v 0.010196 0.000527 -0.024426
v -0.000672 0.000161 -0.025469
v -0.000672 0.000161 -0.025469
v -0.001766 -0.016589 -0.024203
v 0.009110 -0.016162 -0.023786
v -0.010539 -0.000992 -0.021965
v -0.011590 -0.016965 -0.020251
v -0.001766 -0.016589 -0.024203
v -0.001766 -0.016589 -0.024203
v -0.000672 0.000161 -0.025469
v -0.010539 -0.000992 -0.021965
v -0.018980 -0.003009 -0.014504
v -0.019521 -0.017478 -0.012725
v -0.011590 -0.016965 -0.020251
v -0.011590 -0.016965 -0.020251
v -0.010539 -0.000992 -0.021965
v -0.018980 -0.003009 -0.014504
v -0.019521 -0.017478 -0.012725
v -0.018980 -0.003009 -0.014504
v -0.022782 -0.005160 -0.005386
v -0.022782 -0.005160 -0.005386
v -0.023130 -0.018037 -0.002970
v -0.019521 -0.017478 -0.012725
v -0.023130 -0.018037 -0.002970
v -0.022782 -0.005160 -0.005386
v -0.022459 -0.006729 0.007217
v -0.022459 -0.006729 0.007217
v -0.022642 -0.018077 0.007984
v -0.023130 -0.018037 -0.002970
v -0.022642 -0.018077 0.007984
v -0.022459 -0.006729 0.007217
v -0.016473 -0.007603 0.018799
v -0.016473 -0.007603 0.018799
v -0.017042 -0.017699 0.018865
v -0.022642 -0.018077 0.007984
v -0.008013 -0.017475 0.025349
v -0.017042 -0.017699 0.018865
v -0.016473 -0.007603 0.018799
v -0.016473 -0.007603 0.018799
v -0.007509 -0.007924 0.025798
v -0.008013 -0.017475 0.025349
v 0.024459 -0.000705 -0.010866
v 0.023824 0.009558 -0.011345
v 0.019260 0.000247 -0.019611
v 0.015465 -0.001562 0.025158
v 0.021549 -0.001701 0.017303
v 0.021187 -0.016727 0.017622
v 0.021187 -0.016727 0.017622
v 0.014277 -0.016803 0.024417
v 0.015465 -0.001562 0.025158
v 0.021549 -0.001701 0.017303
v 0.025185 -0.001657 0.008377
v 0.024528 -0.016469 0.009238
v 0.024528 -0.016469 0.009238
v 0.021187 -0.016727 0.017622
v 0.021549 -0.001701 0.017303
v 0.025785 -0.016556 0.000133
v 0.024528 -0.016469 0.009238
v 0.025185 -0.001657 0.008377
v 0.025185 -0.001657 0.008377
v 0.026431 -0.001226 -0.001154
v 0.025785 -0.016556 0.000133
v 0.023823 -0.016324 -0.009836
v 0.025785 -0.016556 0.000133
v 0.026431 -0.001226 -0.001154
v 0.026431 -0.001226 -0.001154
v 0.024459 -0.000705 -0.010866
v 0.023823 -0.016324 -0.009836
v 0.024459 -0.000705 -0.010866
v 0.019260 0.000247 -0.019611
v 0.018450 -0.016131 -0.018959
v 0.018450 -0.016131 -0.018959
v 0.023823 -0.016324 -0.009836
v 0.024459 -0.000705 -0.010866
v 0.004133 -0.016766 0.027984
v 0.005174 -0.007122 0.027957
v 0.014277 -0.016803 0.024417
v -0.007509 -0.007924 0.025798
v 0.005174 -0.007122 0.027957
v 0.004133 -0.016766 0.027984
v 0.004133 -0.016766 0.027984
v -0.008013 -0.017475 0.025349
v -0.007509 -0.007924 0.025798
v 0.015465 -0.001562 0.025158
v 0.014277 -0.016803 0.024417
v 0.005174 -0.007122 0.027957
vn 0.0674 -0.0297 0.9973
vn 0.5208 -0.0997 0.8479
vn 0.5867 -0.1319 0.7990
vn -0.4240 0.0424 0.9047
vn -0.4078 -0.0252 0.9127
vn 0.0694 -0.0549 0.9961
vn 0.0672 -0.0296 0.9973
vn 0.0674 -0.0296 0.9973
vn 0.0696 -0.0549 0.9961
vn 0.9314 -0.0147 -0.3637
vn 0.9297 -0.0998 -0.3545
vn 0.6844 -0.1006 -0.7221
vn 0.6913 -0.0115 -0.7225
vn 0.9314 -0.0147 -0.3636
vn 0.9298 -0.0997 -0.3543
vn 0.9315 -0.0147 -0.3635
vn 0.9988 -0.0189 -0.0460
vn 0.9956 -0.0896 -0.0272
vn 0.9956 -0.0896 -0.0271
vn 0.9988 -0.0189 -0.0458
vn 0.9677 -0.0322 0.2499
vn 0.9656 -0.0660 0.2513
vn 0.9956 -0.0896 -0.0270
vn 0.8707 -0.0466 0.4896
vn 0.8333 -0.0727 0.5480
vn 0.9656 -0.0660 0.2515
vn 0.9677 -0.0321 0.2501
vn 0.5869 -0.1319 0.7988
vn 0.5209 -0.0997 0.8478
vn 0.8332 -0.0727 0.5481
vn 0.8332 -0.0726 0.5481
vn 0.8706 -0.0466 0.4898
vn 0.5869 -0.1319 0.7989
vn 0.9213 0.0729 -0.3820
vn 0.9314 -0.0146 -0.3637
vn -0.4080 -0.0252 0.9126
vn -0.4242 0.0424 0.9046
vn -0.7534 0.1192 0.6467
vn -0.7583 0.0141 0.6518
vn -0.9660 0.0025 0.2584
vn -0.7584 0.0141 0.6516
vn -0.7535 0.1192 0.6465
vn -0.9605 0.0986 0.2602
vn -0.9876 -0.0343 -0.1530
vn -0.9661 0.0025 0.2582
vn -0.9605 0.0986 0.2601
vn -0.9840 0.0517 -0.1704
vn -0.9876 -0.0342 -0.1530
vn -0.8346 -0.0649 -0.5470
vn -0.9876 -0.0343 -0.1532
vn -0.9840 0.0516 -0.1706
vn -0.8166 -0.0009 -0.5772
vn -0.8165 -0.0009 -0.5773
vn -0.5015 -0.0227 -0.8649
vn -0.5406 -0.0666 -0.8386
vn -0.5407 -0.0666 -0.8386
vn -0.8345 -0.0649 -0.5472
vn -0.5013 -0.0227 -0.8650
vn -0.1224 -0.0247 -0.9922
vn -0.1635 -0.0762 -0.9836
vn -0.5405 -0.0666 -0.8387
vn 0.2618 -0.0892 -0.9610
vn -0.1634 -0.0762 -0.9836
vn -0.1222 -0.0247 -0.9922
vn -0.1223 -0.0247 -0.9922
vn 0.2929 -0.0192 -0.9559
vn 0.6843 -0.1006 -0.7222
vn 0.2620 -0.0892 -0.9609
vn 0.2932 -0.0192 -0.9559
vn 0.2931 -0.0192 -0.9559
vn 0.6912 -0.0115 -0.7226
vn 0.9770 0.0031 0.2132
vn 0.9949 0.0543 -0.0845
vn 0.9770 0.0031 0.2131
vn 0.9315 -0.0146 -0.3635
vn 0.9213 0.0729 -0.3819
vn 0.9949 0.0543 -0.0847
vn 0.3234 0.2118 0.9222
vn 0.3495 0.0515 0.9355
vn -0.2105 0.0838 0.9740
vn -0.2324 0.1875 0.9544
vn 0.3235 0.2118 0.9222
vn 0.8625 0.0084 0.5060
vn -0.2328 -0.0061 0.9725
vn -0.2104 0.0837 0.9740
vn 0.3494 0.0515 0.9355
vn 0.3319 -0.0489 0.9420
vn 0.0852 -0.1665 -0.9824
vn -0.4563 -0.1088 -0.8831
vn -0.2716 -0.1066 -0.9565
vn 0.2026 -0.1405 -0.9691
vn 0.6575 -0.1756 -0.7327
vn 0.9241 -0.1873 -0.3330
vn 0.9122 -0.2293 -0.3397
vn 0.9122 -0.2293 -0.3396
vn 0.6155 -0.2237 -0.7557
vn 0.6047 -0.2169 -0.7664
vn -0.0714 -0.1282 -0.9892
vn -0.0616 -0.1406 -0.9881
vn -0.0617 -0.1406 -0.9881
vn 0.6016 -0.2283 -0.7655
vn 0.6046 -0.2169 -0.7664
vn -0.9627 0.0270 -0.2691
vn -0.9662 0.0393 0.2548
vn -0.9993 -0.0214 0.0313
vn -0.9331 -0.0431 -0.3569
vn 0.8217 -0.1459 0.5509
vn 0.8709 -0.1841 0.4557
vn 0.5694 -0.1272 0.8122
vn 0.5507 -0.1230 0.8256
vn 0.8768 -0.1531 0.4558
vn 0.5508 -0.1231 0.8255
vn -0.6978 0.0306 0.7156
vn -0.9662 0.0393 0.2549
vn -0.9453 0.0520 0.3221
vn -0.6756 -0.0914 -0.7316
vn -0.2717 -0.1065 -0.9565
vn -0.4564 -0.1088 -0.8831
vn -0.7794 -0.0658 -0.6230
vn -0.7277 -0.0247 0.6855
vn -0.3086 -0.0445 0.9502
vn -0.3571 -0.0457 0.9330
vn -0.7562 -0.0238 0.6539
vn -0.7277 -0.0246 0.6855
vn 0.2096 -0.0871 0.9739
vn 0.1407 -0.0882 0.9861
vn -0.3570 -0.0457 0.9330
vn -0.3085 -0.0445 0.9502
vn -0.7795 -0.0658 -0.6230
vn -0.9331 -0.0432 -0.3570
vn -0.8898 -0.0835 -0.4486
vn 0.9844 -0.1759 0.0098
vn 0.9780 -0.2087 -0.0068
vn 0.9122 -0.2293 -0.3395
vn 0.9740 -0.2257 -0.0206
vn 0.9824 -0.1733 -0.0702
vn 0.8767 -0.2379 -0.4182
vn 0.2027 -0.1405 -0.9691
vn 0.6574 -0.1756 -0.7328
vn 0.6155 -0.2237 -0.7558
vn 0.6154 -0.2237 -0.7558
vn 0.0853 -0.1665 -0.9823
vn 0.8827 -0.2520 -0.3967
vn 0.6017 -0.2283 -0.7654
vn -0.9993 -0.0214 0.0314
vn -0.9317 -0.0168 0.3630
vn -0.9611 -0.0280 0.2749
vn -0.9611 -0.0280 0.2748
vn -0.9924 -0.0543 -0.1106
vn -0.6478 0.0919 0.7562
vn -0.2325 0.1875 0.9543
vn 0.8709 -0.1842 0.4556
vn 0.9740 -0.2258 -0.0205
vn 0.9740 -0.2257 -0.0205
vn 0.9780 -0.2086 -0.0067
vn 0.8709 -0.1841 0.4556
vn 0.9780 -0.2087 -0.0067
vn 0.9844 -0.1759 0.0099
vn 0.8769 -0.1531 0.4557
vn -0.0715 -0.1283 -0.9892
vn -0.7041 -0.0148 -0.7099
vn -0.6848 -0.0365 -0.7278
vn -0.9627 0.0271 -0.2692
vn -0.6849 -0.0365 -0.7277
vn -0.7042 -0.0148 -0.7098
vn -0.9734 0.0348 -0.2267
vn -0.9627 0.0270 -0.2692
vn -0.9924 -0.0543 -0.1107
vn -0.9331 -0.0431 -0.3570
vn -0.9331 -0.0432 -0.3569
vn -0.6479 0.0919 0.7561
vn -0.9463 0.0190 0.3226
vn 0.6016 -0.2282 -0.7655
vn -0.9627 0.0270 -0.2690
vn -0.9734 0.0349 -0.2266
vn -0.9316 -0.0168 0.3631
vn -0.6979 0.0306 0.7156
vn 0.9740 -0.2258 -0.0206
vn 0.8827 -0.2520 -0.3966
vn 0.9780 -0.2086 -0.0068
vn -0.6849 -0.0365 -0.7278
vn -0.7794 -0.0658 -0.6231
vn 0.6017 -0.2282 -0.7654
vn 0.8766 -0.2379 -0.4183
vn 0.6047 -0.2169 -0.7663
vn 0.9824 -0.1733 -0.0701
vn 0.8218 -0.1459 0.5509
vn 0.3319 -0.0490 0.9420
vn 0.2097 -0.0871 0.9739
vn -0.6978 0.0306 0.7157
vn -0.2329 -0.0061 0.9725
vn -0.3085 -0.0444 0.9502
vn -0.2106 0.0838 0.9740
vn 0.6046 -0.2354 -0.7610
vn -0.0926 -0.2041 -0.9746
vn -0.0714 -0.1283 -0.9892
vn -0.0715 -0.1282 -0.9892
vn -0.0927 -0.2041 -0.9746
vn -0.7240 -0.1031 -0.6821
vn 0.8784 -0.2173 -0.4257
vn 0.6046 -0.2354 -0.7609
vn -0.9453 0.0520 0.3220
vn -0.9787 -0.0054 -0.2054
vn -0.7042 -0.0147 -0.7099
vn -0.7240 -0.1031 -0.6820
vn -0.9786 -0.0054 -0.2055
vn -0.9733 0.0349 -0.2267
vn 0.8784 -0.2173 -0.4256
vn -0.7563 -0.0238 0.6538
vn -0.9316 -0.0168 0.3630
vn -0.7277 -0.0246 0.6854
vn -0.7278 -0.0246 0.6854
vn 0.3496 0.0515 0.9355
vn 0.3320 -0.0490 0.9420
vn 0.1408 -0.0882 0.9861
vn 0.5693 -0.1272 0.8122
vn 0.5507 -0.1231 0.8256
vn 0.1408 -0.0881 0.9861
vn 0.8333 -0.0727 0.5481
vn 0.9656 -0.0661 0.2515
vn -0.9661 0.0025 0.2583
vn -0.9876 -0.0343 -0.1531
vn -0.8345 -0.0649 -0.5471
vn -0.8346 -0.0649 -0.5471
vn -0.1634 -0.0763 -0.9836
vn 0.2026 -0.1404 -0.9691
vn 0.2619 -0.0892 -0.9610
vn 0.6574 -0.1755 -0.7328
vn -0.2716 -0.1065 -0.9565
vn -0.6755 -0.0915 -0.7316
vn -0.5406 -0.0666 -0.8387
vn 0.9956 -0.0897 -0.0272
vn 0.9844 -0.1758 0.0098
vn 0.9242 -0.1873 -0.3329
vn 0.9298 -0.0998 -0.3543
vn 0.6844 -0.1006 -0.7222
vn 0.9298 -0.0998 -0.3544
vn 0.9241 -0.1873 -0.3331
vn -0.4079 -0.0252 0.9127
vn -0.7583 0.0141 0.6517
vn 0.9844 -0.1758 0.0099
vn 0.9656 -0.0661 0.2514
vn 0.0695 -0.0549 0.9961
vn 0.1409 -0.0882 0.9861
vn 0.5208 -0.0997 0.8478
vn 0.8879 -0.1849 -0.4212
vn 0.9942 -0.0630 -0.0878
vn 0.6047 -0.2354 -0.7609
vn 0.8879 -0.1849 -0.4213
vn 0.6010 -0.2426 -0.7615
vn 0.6009 -0.2427 -0.7616
vn -0.0836 -0.2846 -0.9550
vn -0.0926 -0.2042 -0.9745
vn 0.6009 -0.2426 -0.7616
vn -0.0837 -0.2846 -0.9550
vn -0.7056 -0.2052 -0.6783
vn -0.7239 -0.1032 -0.6821
vn -0.7239 -0.1031 -0.6821
vn -0.0927 -0.2041 -0.9745
vn -0.9827 -0.0453 -0.1794
vn -0.7056 -0.2052 -0.6782
vn -0.9827 -0.0453 -0.1795
vn -0.9827 -0.0452 -0.1794
vn -0.9464 0.0190 0.3225
vn 0.1407 -0.0881 0.9861
vn 0.8217 -0.1459 0.5510
vn 0.3320 -0.0489 0.9420
vn 0.9942 -0.0629 -0.0877
vn 0.8625 0.0084 0.5059
vn -0.2106 0.0837 0.9740
vn -0.6479 0.0919 0.7562
vn 0.9949 0.0543 -0.0846
vn 0.9315 -0.0147 -0.3636
vn 0.9988 -0.0189 -0.0459
vn 0.9677 -0.0322 0.2500
vn 0.2930 -0.0192 -0.9559
vn -0.5013 -0.0227 -0.8649
vn -0.8166 -0.0009 -0.5773
vn -0.5014 -0.0227 -0.8649
vn -0.9840 0.0517 -0.1705
vn -0.7535 0.1193 0.6466
vn -0.7535 0.1192 0.6466
vn -0.7534 0.1193 0.6466
vn -0.7534 0.1192 0.6466
vn 0.8706 -0.0466 0.4897
vn 0.8707 -0.0466 0.4897
vn 0.9656 -0.0660 0.2514
vn 0.9297 -0.0998 -0.3544
vn 0.0673 -0.0296 0.9973
vn -0.4241 0.0424 0.9046
vn 0.5868 -0.1319 0.7989
vt 0.417075 0.541533
vt 0.399447 0.527689
vt 0.399569 0.551025
vt 0.438386 0.537974
vt 0.435779 0.521965
vt 0.416514 0.526062
vt 0.338009 0.554408
vt 0.339823 0.531120
vt 0.323463 0.531780
vt 0.322430 0.556600
vt 0.353230 0.552872
vt 0.355584 0.530144
vt 0.368162 0.551577
vt 0.369947 0.529595
vt 0.383384 0.551027
vt 0.384141 0.528605
vt 0.336708 0.569780
vt 0.456785 0.534242
vt 0.452762 0.517686
vt 0.471116 0.512187
vt 0.477228 0.530027
vt 0.487623 0.507284
vt 0.496601 0.525749
vt 0.258798 0.522816
vt 0.243117 0.517628
vt 0.242676 0.540163
vt 0.257265 0.547892
vt 0.273913 0.554282
vt 0.275131 0.526975
vt 0.289891 0.557112
vt 0.290994 0.529644
vt 0.307407 0.531417
vt 0.306711 0.557592
vt 0.366823 0.565499
vt 0.352103 0.567794
vt 0.388993 0.361135
vt 0.389828 0.382431
vt 0.403836 0.380876
vt 0.402155 0.359928
vt 0.373792 0.373338
vt 0.406194 0.395602
vt 0.391540 0.397357
vt 0.310284 0.443311
vt 0.295629 0.441689
vt 0.293425 0.486271
vt 0.308687 0.487700
vt 0.325600 0.489313
vt 0.341504 0.489636
vt 0.342414 0.444888
vt 0.326486 0.444985
vt 0.326976 0.389690
vt 0.312834 0.387571
vt 0.312161 0.400531
vt 0.327399 0.402599
vt 0.276354 0.396289
vt 0.261838 0.392524
vt 0.255305 0.432348
vt 0.270153 0.436629
vt 0.375156 0.399896
vt 0.374349 0.443149
vt 0.388278 0.440323
vt 0.393849 0.485721
vt 0.376685 0.488126
vt 0.420140 0.394674
vt 0.434367 0.393315
vt 0.430184 0.375605
vt 0.278543 0.484148
vt 0.284279 0.439806
vt 0.430467 0.433733
vt 0.415764 0.435897
vt 0.426376 0.479308
vt 0.442542 0.476145
vt 0.399976 0.438545
vt 0.409528 0.482859
vt 0.263118 0.480571
vt 0.358933 0.489443
vt 0.359101 0.444269
vt 0.356805 0.402140
vt 0.355616 0.382896
vt 0.340754 0.391338
vt 0.341628 0.403217
vt 0.450506 0.430632
vt 0.441747 0.432377
vt 0.457465 0.473029
vt 0.470852 0.470155
vt 0.416198 0.369054
vt 0.295718 0.385526
vt 0.294874 0.399261
vt 0.278003 0.384320
vt 0.248569 0.475911
vt 0.428568 0.357358
vt 0.326709 0.377288
vt 0.313049 0.375480
vt 0.296663 0.373367
vt 0.340604 0.379987
vt 0.264325 0.373013
vt 0.279837 0.372793
vt 0.340636 0.367902
vt 0.356453 0.364709
vt 0.326836 0.367716
vt 0.313737 0.366102
vt 0.297893 0.364004
vt 0.280762 0.362047
vt 0.268135 0.353682
s 1
g 右足D
g 肌.010_Материал.020
usemtl Материал.020
f 1/1/1 2/2/2 3/3/3
s 2
f 4/4/4 5/5/5 6/6/6
s 3
f 7/6/6 8/1/7 9/4/4
s 4
f 10/2/2 11/1/8 12/6/9
s 5
f 13/7/10 14/8/11 15/9/12
s 6
f 16/9/12 17/10/13 18/7/14
s 7
f 19/8/15 20/7/16 21/11/17
s 8
f 22/11/17 23/12/18 24/8/15
s 9
f 25/12/19 26/11/20 27/13/21
s 10
f 28/13/21 29/14/22 30/12/23
s 11
f 31/15/24 32/16/25 33/14/26
s 12
f 34/14/26 35/13/27 36/15/24
s 13
f 37/3/28 38/2/29 39/16/30
s 14
f 40/16/31 41/15/32 42/3/33
s 15
f 43/10/13 44/17/34 45/7/35
s 16
f 46/5/36 47/4/37 48/18/38
s 17
f 49/18/38 50/19/39 51/5/36
s 18
f 52/20/40 53/19/41 54/18/42
s 19
f 55/18/42 56/21/43 57/20/40
s 20
f 58/22/44 59/20/45 60/21/46
s 21
f 61/21/46 62/23/47 63/22/48
s 22
f 64/24/49 65/25/50 66/26/51
s 23
f 67/26/51 68/27/52 69/24/49
s 24
f 70/27/53 71/28/54 72/29/55
s 25
f 73/29/56 74/24/57 75/27/53
s 26
f 76/28/58 77/30/59 78/31/60
s 27
f 79/31/60 80/29/61 81/28/58
s 28
f 82/32/62 83/31/63 84/30/64
s 29
f 85/30/65 86/33/66 87/32/62
s 30
f 88/9/67 89/32/68 90/33/69
s 31
f 91/33/70 92/10/71 93/9/67
s 32
f 94/34/72 95/13/21 96/11/20
s 33
f 97/11/20 98/35/73 99/34/74
s 34
f 100/7/75 101/17/76 102/35/77
s 35
f 103/35/77 104/11/17 105/7/75
s 36
f 108/36/78 107/37/79 106/38/80
s 37
g 右ひざD
f 111/38/80 110/39/81 109/36/82
s 38
g 右足D
f 114/37/79 113/36/82 112/40/83
s 39
f 117/41/84 116/38/85 115/37/79
s 40
f 120/37/86 119/42/87 118/41/84
s 41
f 123/43/88 122/44/89 121/45/90
s 42
f 126/45/90 125/46/91 124/43/88
s 43
f 129/47/92 128/48/93 127/49/94
s 44
f 132/49/95 131/50/96 130/47/92
s 45
f 135/51/97 134/52/98 133/53/99
s 46
f 138/53/100 137/54/101 136/51/102
s 47
f 141/55/103 140/56/104 139/57/105
s 48
f 144/57/105 143/58/106 142/55/103
s 49
f 147/59/107 146/60/108 145/61/109
s 50
f 150/62/110 149/61/109 148/60/108
s 51
f 153/60/108 152/63/111 151/62/112
s 52
f 156/64/113 155/65/114 154/66/115
s 53
f 159/67/116 158/45/117 157/44/118
s 54
f 162/44/118 161/68/119 160/67/116
s 55
f 165/69/120 164/70/121 163/71/122
s 56
f 168/71/122 167/72/123 166/69/124
s 57
f 171/73/125 170/74/126 169/71/127
s 58
f 174/71/127 173/70/128 172/73/125
s 59
f 177/68/129 176/58/130 175/75/131
s 60
f 180/75/131 179/67/116 178/68/129
s 61
f 183/76/132 182/77/133 181/49/95
s 62
f 186/49/134 185/48/93 184/76/132
s 63
f 189/78/135 188/79/136 187/80/137
s 64
f 192/46/138 191/47/139 190/50/140
s 65
f 195/50/141 194/43/142 193/46/138
s 66
f 198/50/96 197/49/94 196/81/143
s 67
f 201/81/143 200/54/144 199/50/96
s 68
f 204/82/145 203/83/146 202/84/147
s 69
f 207/84/148 206/85/149 205/82/105
s 70
f 210/86/150 209/39/151 208/38/80
s 71
f 213/60/152 212/59/107 211/78/153
s 72
f 216/78/154 215/77/155 214/60/156
s 73
f 219/77/157 218/76/158 217/63/159
s 74
f 222/63/159 221/60/156 220/77/155
s 75
f 225/52/160 224/87/161 223/88/162
s 76
f 228/88/162 227/53/100 226/52/160
s 77
f 231/55/163 230/88/164 229/87/165
s 78
f 234/87/165 233/89/166 232/55/167
s 79
f 237/90/168 236/75/131 235/58/169
s 80
f 240/58/170 239/57/105 238/90/149
s 81
f 243/86/171 242/66/115 241/91/172
s 82
f 246/43/142 245/50/140 244/54/173
s 83
f 249/54/144 248/53/100 247/43/142
s 84
f 252/56/104 251/55/174 250/89/175
s 85
f 255/83/176 254/65/114 253/64/177
s 86
f 258/78/178 257/81/179 256/49/95
s 87
f 261/49/134 260/77/180 259/78/135
s 88
f 264/88/181 263/68/182 262/44/118
s 89
f 267/54/183 266/81/179 265/80/184
s 90
f 270/80/184 269/51/185 268/54/144
s 91
f 273/79/186 272/78/154 271/59/187
s 92
f 276/53/100 275/88/162 274/44/118
s 93
f 279/44/89 278/43/88 277/53/100
s 94
f 282/58/169 281/68/129 280/88/164
s 95
f 285/88/164 284/55/103 283/58/169
s 96
f 288/41/84 287/42/188 286/73/189
s 97
f 291/73/125 290/70/128 289/41/84
s 98
f 294/64/190 293/41/191 292/70/121
s 99
f 297/70/192 296/69/124 295/64/190
s 100
f 300/38/193 299/64/190 298/86/150
s 101
f 303/52/98 302/51/97 301/92/194
s 102
f 306/92/194 305/93/195 304/52/196
s 103
f 309/87/161 308/52/197 307/93/198
s 104
f 312/93/198 311/94/199 310/87/161
s 105
f 315/51/185 314/80/184 313/95/200
s 106
f 318/95/200 317/92/201 316/51/185
s 107
f 321/96/202 320/89/175 319/97/203
s 108
f 324/87/204 323/94/205 322/97/206
s 109
f 327/97/206 326/89/207 325/87/165
s 110
f 330/95/208 329/80/137 328/79/136
s 111
f 333/72/209 332/84/147 331/83/210
s 112
f 336/83/176 335/69/211 334/72/209
s 113
f 339/69/212 338/83/176 337/64/177
s 114
f 342/59/107 341/37/213 340/40/83
s 115
f 345/61/109 344/42/214 343/59/107
s 116
f 348/74/215 347/73/189 346/61/216
s 117
f 351/61/216 350/62/217 349/74/218
s 118
f 354/62/110 353/63/111 352/16/219
s 119
f 357/14/220 356/16/25 355/63/159
s 120
f 360/85/149 359/84/148 358/20/221
s 121
f 363/20/221 362/22/222 361/85/149
s 122
f 366/24/223 365/29/55 364/67/116
s 123
f 369/67/116 368/75/131 367/24/224
s 124
f 372/46/91 371/45/90 370/31/225
s 125
f 375/31/63 374/32/62 373/46/226
s 126
f 378/19/41 377/20/40 376/84/147
s 127
f 381/84/147 380/72/209 379/19/41
s 128
f 384/32/227 383/9/67 382/47/228
s 129
f 387/47/139 386/46/138 385/32/227
s 130
f 390/29/61 389/31/60 388/45/229
s 131
f 393/45/229 392/67/230 391/29/231
s 132
f 396/12/232 395/76/233 394/48/93
s 133
f 399/48/234 398/8/235 397/12/18
s 134
f 402/9/236 401/8/237 400/48/238
s 135
f 405/48/238 404/47/92 403/9/12
s 136
f 408/71/122 407/5/239 406/19/240
s 137
f 411/19/240 410/72/123 409/71/122
s 138
f 414/76/241 413/12/19 412/14/242
s 139
f 417/25/222 416/24/49 415/75/131
s 140
f 420/75/131 419/90/168 418/25/222
s 141
f 423/6/243 422/74/244 421/62/110
s 142
f 426/62/217 425/2/245 424/6/243
s 143
f 429/98/246 428/95/208 427/79/136
s 144
f 432/79/136 431/99/247 430/98/246
s 145
f 435/92/248 434/95/200 433/98/249
s 146
f 438/98/249 437/100/250 436/92/248
s 147
f 441/100/251 440/101/252 439/93/195
s 148
f 444/93/253 443/92/194 442/100/254
s 149
f 447/101/255 446/102/256 445/94/257
s 150
f 450/94/258 449/93/259 448/101/255
s 151
f 453/103/260 452/97/206 451/94/205
s 152
f 456/94/199 455/102/261 454/103/262
s 153
f 459/103/263 458/104/264 457/96/202
s 154
f 462/96/202 461/97/203 460/103/260
s 155
f 465/56/104 464/89/175 463/96/202
s 156
f 468/61/216 467/73/189 466/42/214
s 157
f 471/83/210 470/82/145 469/65/114
s 158
f 474/78/135 473/80/137 472/81/179
s 159
f 477/74/265 476/6/6 475/5/5
s 160
f 480/5/5 479/71/127 478/74/218
s 161
f 483/2/29 482/62/110 481/16/219
s 162
f 486/76/241 485/14/242 484/63/159
s 163
f 489/37/79 488/59/266 487/42/267
s 164
f 492/99/268 491/79/186 490/40/269
s 165
f 495/64/190 494/38/270 493/41/191
s 166
f 498/79/186 497/59/107 496/40/269
s 167
f 501/64/177 500/66/115 499/86/271
s 168
g 肌.010_Material.002
usemtl Material.002
f 504/35/272 503/11/17 502/7/273
s 169
f 507/7/75 506/17/76 505/35/272
s 170
f 510/11/274 509/35/73 508/34/74
s 171
f 513/34/72 512/13/275 511/11/274
s 172
f 516/33/70 515/10/71 514/9/67
s 173
f 519/9/67 518/32/227 517/33/70
s 174
f 522/30/65 521/33/276 520/32/62
s 175
f 525/32/62 524/31/63 523/30/65
s 176
f 528/31/60 527/29/61 526/28/277
s 177
f 531/28/277 530/30/59 529/31/60
s 178
f 534/29/55 533/24/223 532/27/52
s 179
f 537/27/278 536/28/279 535/29/55
s 180
f 540/26/280 539/27/52 538/24/49
s 181
f 543/24/224 542/25/50 541/26/51
s 182
f 546/21/46 545/23/280 544/22/44
s 183
f 549/22/222 548/20/221 547/21/46
s 184
f 552/18/281 551/21/43 550/20/40
s 185
f 555/20/40 554/19/41 553/18/282
s 186
f 558/18/283 557/19/240 556/5/239
s 187
f 561/5/239 560/4/37 559/18/284
s 188
f 564/10/13 563/17/34 562/7/14
s 189
f 567/16/219 566/15/285 565/3/33
s 190
f 570/3/33 569/2/29 568/16/219
s 191
f 573/14/26 572/13/27 571/15/286
s 192
f 576/15/286 575/16/25 574/14/26
s 193
f 579/13/21 578/14/287 577/12/19
s 194
f 582/12/19 581/11/274 580/13/21
s 195
f 585/11/17 584/12/18 583/8/15
s 196
f 588/8/15 587/7/16 586/11/17
s 197
f 591/9/236 590/10/13 589/7/14
s 198
f 594/7/14 593/8/288 592/9/236
s 199
f 597/2/245 596/1/8 595/6/243
s 200
f 600/6/243 599/1/289 598/4/290
s 201
f 603/4/290 602/5/5 601/6/6
s 202
f 606/1/1 605/2/245 604/3/291
