# Blender 5.0.1
# www.blender.org
mtllib Narukami_Lamp_1.mtl
g NarukamiShrine_mesh.087_Malla
v -0.165559 0.732271 0.129822
v -0.076648 0.732271 0.197666
v -0.082682 0.684419 0.212422
v -0.178218 0.684419 0.139591
v 0.036402 0.684419 0.227757
v 0.034302 0.732271 0.211950
v 0.147272 0.684419 0.181503
v 0.137501 0.732271 0.168842
v 0.220102 0.684419 0.085966
v 0.205343 0.732271 0.079931
v 0.235434 0.684419 -0.033117
v 0.219629 0.732271 -0.031017
v 0.189180 0.684419 -0.143988
v 0.176521 0.732271 -0.134216
v -0.143140 0.770357 0.112517
v -0.065875 0.770357 0.171465
v 0.030519 0.770357 0.183876
v 0.120196 0.770357 0.146425
v 0.179142 0.770357 0.069161
v 0.191554 0.770357 -0.027237
v 0.154102 0.770357 -0.116911
v -0.087286 0.804048 0.069407
v -0.039019 0.804048 0.106169
v 0.021080 0.804048 0.113907
v 0.077084 0.804048 0.090571
v 0.113823 0.804048 0.042322
v 0.121584 0.804048 -0.017795
v 0.098248 0.804048 -0.073799
v 0.189180 0.124605 -0.143988
v 0.235434 0.124605 -0.033117
v 0.219629 0.076875 -0.031017
v 0.205343 0.076875 0.079931
v 0.220100 0.124605 0.085966
v 0.137501 0.076875 0.168842
v 0.147272 0.124605 0.181503
v 0.034302 0.076875 0.211950
v 0.036402 0.124605 0.227757
v -0.076648 0.076875 0.197666
v -0.082682 0.124605 0.212422
v -0.165559 0.076875 0.129822
v -0.178218 0.124605 0.139591
v 0.176521 0.076875 -0.134216
v -0.143141 0.038972 0.112517
v -0.065875 0.038972 0.171465
v 0.030519 0.038972 0.183876
v 0.120195 0.038972 0.146425
v 0.179142 0.038972 0.069161
v 0.191554 0.038972 -0.027237
v 0.154102 0.038972 -0.116911
v -0.087286 0.005144 0.069407
v -0.039019 0.005144 0.106169
v 0.021079 0.005144 0.113907
v 0.077084 0.005144 0.090571
v 0.113847 0.005144 0.042301
v 0.121584 0.005144 -0.017795
v 0.098248 0.005144 -0.073801
v 0.087610 0.732271 -0.202059
v 0.093644 0.684419 -0.216816
v -0.025440 0.684419 -0.232151
v -0.023340 0.732271 -0.216345
v -0.136309 0.684419 -0.185896
v -0.126538 0.732271 -0.173237
v -0.209138 0.684419 -0.090359
v -0.194381 0.732271 -0.084326
v -0.224471 0.684419 0.028723
v -0.208667 0.732271 0.026627
v 0.076838 0.770357 -0.175857
v -0.019558 0.770357 -0.188269
v -0.109233 0.770357 -0.150818
v -0.168179 0.770357 -0.073555
v -0.180591 0.770357 0.022843
v 0.049982 0.804048 -0.110563
v -0.010141 0.804048 -0.118282
v -0.066122 0.804048 -0.094963
v -0.102885 0.804048 -0.046697
v -0.110623 0.804048 0.013401
v -0.224471 0.124605 0.028723
v -0.208667 0.076875 0.026623
v -0.194381 0.076875 -0.084326
v -0.209138 0.124605 -0.090359
v -0.126538 0.076875 -0.173237
v -0.136309 0.124605 -0.185896
v -0.023340 0.076875 -0.216345
v -0.025440 0.124605 -0.232151
v 0.087610 0.076875 -0.202059
v 0.093644 0.124605 -0.216816
v 0.154102 0.038972 -0.116911
v 0.076838 0.038972 -0.175857
v -0.019558 0.038972 -0.188269
v -0.109233 0.038972 -0.150818
v -0.168179 0.038972 -0.073555
v -0.180591 0.038972 0.022843
v -0.143141 0.038972 0.112517
v 0.049982 0.005144 -0.110563
v -0.010116 0.005144 -0.118301
v -0.066122 0.005144 -0.094967
v -0.102885 0.005144 -0.046697
v -0.110623 0.005144 0.013401
v -0.093567 0.815767 0.074255
v -0.118554 0.815767 0.014511
v -0.101440 0.828950 0.012211
v -0.079894 0.828950 0.063702
v -0.094303 0.828950 -0.043220
v -0.110276 0.815767 -0.049780
v -0.060416 0.828950 -0.087570
v -0.070972 0.815767 -0.101246
v -0.008929 0.828950 -0.109119
v -0.011227 0.815767 -0.126232
v 0.046505 0.828950 -0.101980
v 0.053065 0.815767 -0.117954
v 0.090857 0.828950 -0.068094
v 0.104530 0.815767 -0.078649
v -0.122137 0.791841 0.014963
v -0.096465 0.791841 0.076492
v -0.113629 0.791841 -0.051128
v -0.073208 0.791841 -0.104145
v -0.011679 0.791841 -0.129818
v 0.054411 0.791841 -0.121305
v 0.107429 0.791841 -0.080887
v 0.104530 0.815767 -0.078649
v 0.129517 0.815767 -0.018906
v 0.112403 0.828950 -0.016607
v 0.090857 0.828950 -0.068094
v 0.105264 0.828950 0.038828
v 0.121238 0.815767 0.045387
v 0.071378 0.828950 0.083180
v 0.081932 0.815767 0.096853
v 0.019890 0.828950 0.104725
v 0.022190 0.815767 0.121838
v -0.035543 0.828950 0.097588
v -0.042104 0.815767 0.113562
v -0.079894 0.828950 0.063702
v -0.093567 0.815767 0.074255
v 0.133101 0.791841 -0.019358
v 0.107429 0.791841 -0.080887
v 0.124591 0.791841 0.046734
v 0.084169 0.791841 0.099751
v 0.022643 0.791841 0.125422
v -0.043449 0.791841 0.116911
v -0.096465 0.791841 0.076492
v -0.101440 0.828950 0.012211
v 0.046505 0.828950 -0.101980
v 0.090857 0.828950 -0.068094
v -0.079894 0.828950 0.063702
v -0.008929 0.828950 -0.109119
v -0.094303 0.828950 -0.043220
v -0.060416 0.828950 -0.087570
v 0.090857 0.828950 -0.068094
v 0.112403 0.828950 -0.016607
v -0.035543 0.828950 0.097588
v -0.079894 0.828950 0.063702
v 0.019890 0.828950 0.104725
v 0.105264 0.828950 0.038828
v 0.071378 0.828950 0.083180
v -0.093568 -0.006270 0.074253
v -0.079894 -0.019682 0.063702
v -0.101440 -0.019682 0.012211
v -0.118554 -0.006270 0.014511
v -0.094303 -0.019682 -0.043220
v -0.110276 -0.006270 -0.049780
v -0.060417 -0.019682 -0.087570
v -0.070972 -0.006270 -0.101246
v -0.008929 -0.019682 -0.109119
v -0.011227 -0.006270 -0.126232
v 0.046505 -0.019682 -0.101980
v 0.053065 -0.006270 -0.117954
v 0.090857 -0.019682 -0.068096
v 0.104530 -0.006270 -0.078649
v -0.122137 0.017396 0.014963
v -0.096465 0.017396 0.076492
v -0.113629 0.017396 -0.051128
v -0.073208 0.017396 -0.104145
v -0.011679 0.017396 -0.129818
v 0.054411 0.017396 -0.121305
v 0.107429 0.017396 -0.080887
v 0.104530 -0.006270 -0.078649
v 0.090857 -0.019682 -0.068096
v 0.112403 -0.019682 -0.016607
v 0.129517 -0.006270 -0.018906
v 0.105264 -0.019682 0.038828
v 0.121238 -0.006270 0.045387
v 0.071378 -0.019682 0.083180
v 0.081932 -0.006270 0.096853
v 0.019890 -0.019682 0.104725
v 0.022190 -0.006270 0.121838
v -0.035543 -0.019682 0.097588
v -0.042104 -0.006270 0.113562
v -0.079894 -0.019682 0.063702
v -0.093568 -0.006270 0.074253
v 0.133101 0.017396 -0.019358
v 0.107429 0.017396 -0.080887
v 0.124591 0.017396 0.046734
v 0.084169 0.017396 0.099751
v 0.022643 0.017396 0.125422
v -0.043449 0.017396 0.116911
v -0.096465 0.017396 0.076492
v -0.101440 -0.019682 0.012211
v -0.079894 -0.019682 0.063702
v 0.090857 -0.019682 -0.068096
v 0.046505 -0.019682 -0.101980
v -0.008929 -0.019682 -0.109119
v -0.094303 -0.019682 -0.043220
v -0.060417 -0.019682 -0.087570
v 0.090857 -0.019682 -0.068096
v -0.079894 -0.019682 0.063702
v -0.035543 -0.019682 0.097588
v 0.112403 -0.019682 -0.016607
v 0.019890 -0.019682 0.104725
v 0.105264 -0.019682 0.038828
v 0.071378 -0.019682 0.083180
vn 0.3753 -0.1561 -0.9137
vn 0.7060 -0.4522 -0.5450
vn 0.3391 -0.4519 -0.8251
vn 0.7818 -0.1564 -0.6036
vn -0.1315 -0.1561 -0.9789
vn -0.1190 -0.4520 -0.8841
vn -0.6035 -0.1565 -0.7818
vn -0.5450 -0.4522 -0.7060
vn -0.9137 -0.1562 -0.3753
vn -0.8251 -0.4519 -0.3391
vn -0.9789 -0.1561 0.1315
vn -0.8841 -0.4520 0.1190
vn -0.7818 -0.1565 0.6036
vn -0.7060 -0.4522 0.5450
vn 0.5209 -0.7531 -0.4020
vn 0.2500 -0.7531 -0.6085
vn -0.0878 -0.7531 -0.6520
vn -0.4020 -0.7531 -0.5209
vn -0.6085 -0.7532 -0.2500
vn -0.6520 -0.7532 0.0877
vn -0.5209 -0.7531 0.4020
vn 0.3411 -0.9024 -0.2631
vn 0.1635 -0.9025 -0.3984
vn -0.0574 -0.9025 -0.4269
vn -0.2631 -0.9025 -0.3411
vn -0.3984 -0.9025 -0.1635
vn -0.4269 -0.9025 0.0573
vn -0.3411 -0.9024 0.2631
vn -0.7818 0.1568 0.6035
vn -0.9789 0.1565 0.1315
vn -0.8834 0.4532 0.1189
vn -0.8245 0.4532 -0.3389
vn -0.9136 0.1565 -0.3753
vn -0.5446 0.4535 -0.7055
vn -0.6035 0.1568 -0.7818
vn -0.1189 0.4533 -0.8834
vn -0.1315 0.1565 -0.9789
vn 0.3389 0.4532 -0.8245
vn 0.3753 0.1565 -0.9136
vn 0.7055 0.4535 -0.5446
vn 0.7818 0.1568 -0.6035
vn -0.7055 0.4535 0.5446
vn 0.5205 0.7534 -0.4018
vn 0.2498 0.7535 -0.6081
vn -0.0877 0.7535 -0.6515
vn -0.4017 0.7534 -0.5205
vn -0.6081 0.7535 -0.2499
vn -0.6515 0.7535 0.0877
vn -0.5205 0.7535 0.4017
vn 0.3422 0.9018 -0.2640
vn 0.1640 0.9018 -0.3998
vn -0.0575 0.9018 -0.4283
vn -0.2640 0.9018 -0.3422
vn -0.3998 0.9018 -0.1640
vn -0.4283 0.9018 0.0575
vn -0.3423 0.9018 0.2640
vn -0.3753 -0.1562 0.9137
vn -0.3391 -0.4519 0.8251
vn 0.1315 -0.1561 0.9789
vn 0.1190 -0.4520 0.8841
vn 0.6036 -0.1565 0.7818
vn 0.5450 -0.4522 0.7060
vn 0.9137 -0.1562 0.3753
vn 0.8251 -0.4519 0.3391
vn 0.9789 -0.1561 -0.1315
vn 0.8841 -0.4520 -0.1190
vn -0.2500 -0.7531 0.6085
vn 0.0878 -0.7532 0.6519
vn 0.4020 -0.7531 0.5209
vn 0.6085 -0.7531 0.2500
vn 0.6520 -0.7532 -0.0878
vn -0.1634 -0.9025 0.3984
vn 0.0575 -0.9025 0.4268
vn 0.2631 -0.9024 0.3411
vn 0.3984 -0.9025 0.1635
vn 0.4269 -0.9025 -0.0573
vn 0.9789 0.1565 -0.1315
vn 0.8834 0.4532 -0.1189
vn 0.8245 0.4532 0.3389
vn 0.9136 0.1565 0.3753
vn 0.5446 0.4535 0.7055
vn 0.6035 0.1568 0.7818
vn 0.1189 0.4533 0.8834
vn 0.1315 0.1565 0.9789
vn -0.3389 0.4532 0.8245
vn -0.3753 0.1565 0.9136
vn -0.5205 0.7535 0.4018
vn -0.2499 0.7535 0.6081
vn 0.0877 0.7535 0.6515
vn 0.4017 0.7535 0.5205
vn 0.6081 0.7535 0.2499
vn 0.6515 0.7535 -0.0877
vn 0.5205 0.7535 -0.4017
vn -0.1640 0.9018 0.3998
vn 0.0575 0.9018 0.4283
vn 0.2640 0.9018 0.3423
vn 0.3998 0.9018 0.1640
vn 0.4283 0.9018 -0.0575
vn 0.3423 0.9018 -0.2640
vn -0.3633 0.9304 0.0490
vn -0.8673 0.4838 0.1171
vn -0.6925 0.4847 0.5343
vn -0.2900 0.9305 0.2238
vn -0.3390 0.9304 -0.1395
vn -0.8094 0.4840 -0.3327
vn -0.2238 0.9305 -0.2899
vn -0.5343 0.4847 -0.6925
vn -0.0490 0.9304 -0.3632
vn -0.1170 0.4838 -0.8673
vn 0.1395 0.9304 -0.3390
vn 0.3327 0.4839 -0.8094
vn 0.2899 0.9305 -0.2238
vn 0.6925 0.4848 -0.5343
vn -0.9799 0.1495 0.1318
vn -0.7827 0.1511 0.6038
vn -0.9147 0.1493 -0.3755
vn -0.6038 0.1510 -0.7827
vn -0.1318 0.1496 -0.9799
vn 0.3755 0.1493 -0.9147
vn 0.7827 0.1511 -0.6038
vn 0.3632 0.9304 -0.0490
vn 0.8673 0.4838 -0.1171
vn 0.2900 0.9305 -0.2238
vn 0.3389 0.9304 0.1394
vn 0.8094 0.4840 0.3328
vn 0.2238 0.9305 0.2899
vn 0.5343 0.4847 0.6925
vn 0.0490 0.9304 0.3632
vn 0.1171 0.4838 0.8673
vn -0.1394 0.9304 0.3389
vn -0.3327 0.4839 0.8094
vn -0.2899 0.9305 0.2238
vn 0.9799 0.1495 -0.1318
vn 0.7827 0.1511 -0.6037
vn 0.9147 0.1493 0.3755
vn 0.6038 0.1510 0.7827
vn 0.1318 0.1495 0.9799
vn -0.3755 0.1492 0.9147
vn -0.7828 0.1509 0.6037
vn 0.1394 0.9304 -0.3390
vn -0.3632 0.9304 0.0490
vn -0.3390 0.9304 -0.1394
vn -0.2239 0.9305 -0.2899
vn -0.1394 0.9304 0.3390
vn 0.3390 0.9304 0.1394
vn 0.2238 0.9305 0.2900
vn -0.3675 -0.9287 0.0496
vn -0.2934 -0.9288 0.2265
vn -0.6936 -0.4823 0.5351
vn -0.8687 -0.4813 0.1173
vn -0.3430 -0.9287 -0.1411
vn -0.8106 -0.4815 -0.3333
vn -0.2265 -0.9288 -0.2934
vn -0.5351 -0.4823 -0.6936
vn -0.0496 -0.9287 -0.3675
vn -0.1172 -0.4813 -0.8687
vn 0.1411 -0.9287 -0.3430
vn 0.3333 -0.4814 -0.8106
vn 0.2933 -0.9288 -0.2265
vn 0.6936 -0.4823 -0.5351
vn -0.9797 -0.1511 0.1318
vn -0.7825 -0.1527 0.6036
vn -0.9145 -0.1509 -0.3754
vn -0.6036 -0.1526 -0.7825
vn -0.1318 -0.1512 -0.9797
vn 0.3754 -0.1509 -0.9145
vn 0.7825 -0.1527 -0.6036
vn -0.7768 0.6209 0.1048
vn -0.8804 0.4400 0.1767
vn -0.7666 0.6418 0.0206
vn -0.8687 0.4813 0.1172
vn -0.7250 0.6209 -0.2982
vn -0.8106 0.4815 -0.3333
vn -0.4791 0.6207 -0.6206
vn -0.5351 0.4822 -0.6936
vn -0.1048 0.6209 -0.7769
vn -0.1172 0.4813 -0.8687
vn 0.2982 0.6209 -0.7249
vn 0.3333 0.4814 -0.8107
vn 0.2140 0.6416 -0.7366
vn 0.4035 0.4424 -0.8009
vn -0.9797 0.1512 0.1318
vn -0.8475 0.3960 0.3534
vn -0.9145 0.1509 -0.3754
vn -0.6036 0.1526 -0.7825
vn -0.1318 0.1511 -0.9797
vn 0.3754 0.1508 -0.9145
vn 0.5575 0.3954 -0.7300
vn 0.2945 0.9288 0.2250
vn -0.3675 0.9287 0.0496
vn 0.1430 0.9288 0.3419
vn 0.1410 0.9287 -0.3430
vn -0.0496 0.9287 -0.3675
vn -0.3430 0.9287 -0.1411
vn -0.2264 0.9288 -0.2934
vn -0.1411 0.9287 0.3430
vn -0.1431 0.9288 -0.3419
vn -0.2945 0.9288 -0.2250
vn 0.3675 0.9287 -0.0496
vn 0.0496 0.9287 0.3675
vn 0.3430 0.9287 0.1411
vn 0.2264 0.9288 0.2934
vt 0.677734 -0.473145
vt 0.616211 -0.502930
vt 0.677734 -0.502930
vt 0.616211 -0.473145
vt 0.741699 -0.473145
vt 0.741699 -0.502930
vt 0.806152 -0.473145
vt 0.806152 -0.502930
vt 0.870117 -0.473145
vt 0.870117 -0.502930
vt 0.934082 -0.473145
vt 0.934082 -0.502930
vt 0.995605 -0.473145
vt 0.995605 -0.502930
vt 0.616211 -0.531250
vt 0.677734 -0.531250
vt 0.741699 -0.531250
vt 0.806152 -0.531250
vt 0.870117 -0.531250
vt 0.934082 -0.531250
vt 0.995605 -0.531250
vt 0.616211 -0.578613
vt 0.677734 -0.578613
vt 0.741699 -0.578613
vt 0.806152 -0.578613
vt 0.870117 -0.578613
vt 0.934082 -0.578613
vt 0.995605 -0.578613
vt 0.995605 -0.110718
vt 0.934082 -0.110718
vt 0.934082 -0.080627
vt 0.870117 -0.080627
vt 0.870117 -0.110718
vt 0.806152 -0.080627
vt 0.806152 -0.110718
vt 0.741699 -0.080627
vt 0.741699 -0.110718
vt 0.677734 -0.080627
vt 0.677734 -0.110718
vt 0.616211 -0.080627
vt 0.616211 -0.110718
vt 0.995605 -0.080627
vt 0.616211 -0.052124
vt 0.677734 -0.052124
vt 0.741699 -0.052124
vt 0.806152 -0.052124
vt 0.870117 -0.052124
vt 0.934082 -0.052124
vt 0.995605 -0.052124
vt 0.616211 -0.005405
vt 0.677734 -0.005405
vt 0.741699 -0.005405
vt 0.806152 -0.005405
vt 0.870117 -0.005405
vt 0.934082 -0.005405
vt 0.995605 -0.005405
vt 0.805664 -0.473145
vt 0.805664 -0.502930
vt 0.805664 -0.531250
vt 0.805664 -0.578613
vt 0.805664 -0.080627
vt 0.805664 -0.110718
vt 0.995605 -0.052551
vt 0.934082 -0.052551
vt 0.870117 -0.052551
vt 0.805664 -0.052551
vt 0.741699 -0.052551
vt 0.677734 -0.052551
vt 0.616211 -0.052551
vt 0.805664 -0.005405
vt 0.658691 -0.690918
vt 0.674805 -0.689941
vt 0.674805 -0.663574
vt 0.658691 -0.666992
vt 0.658691 -0.716309
vt 0.674805 -0.716309
vt 0.658691 -0.742676
vt 0.674805 -0.742676
vt 0.658691 -0.768555
vt 0.674805 -0.768555
vt 0.658691 -0.794434
vt 0.674805 -0.794922
vt 0.658691 -0.818359
vt 0.674805 -0.821777
vt 0.692383 -0.689941
vt 0.692383 -0.663574
vt 0.692383 -0.716309
vt 0.692383 -0.742676
vt 0.692383 -0.768555
vt 0.692383 -0.794922
vt 0.692383 -0.821777
vt 0.674316 -0.690430
vt 0.674316 -0.663574
vt 0.658691 -0.666504
vt 0.674316 -0.716309
vt 0.692383 -0.690430
vt 0.615723 -0.589355
vt 0.623535 -0.619141
vt 0.727539 -0.619141
vt 0.735352 -0.589355
vt 0.645508 -0.641113
vt 0.705566 -0.641113
vt 0.675293 -0.648926
s 1
g センター
g NarukamiShrine_mesh.087_Lamps_B
usemtl Lamps_B
f 3/1/1 1/2/2 2/3/3
f 1/2/2 3/1/1 4/4/4
f 2/3/3 5/5/5 3/1/1
f 5/5/5 2/3/3 6/6/6
f 6/6/6 7/7/7 5/5/5
f 7/7/7 6/6/6 8/8/8
f 8/8/8 9/9/9 7/7/7
f 9/9/9 8/8/8 10/10/10
f 10/10/10 11/11/11 9/9/9
f 11/11/11 10/10/10 12/12/12
f 12/12/12 13/13/13 11/11/11
f 13/13/13 12/12/12 14/14/14
f 15/15/15 2/3/3 1/2/2
f 2/3/3 15/15/15 16/16/16
f 16/16/16 6/6/6 2/3/3
f 6/6/6 16/16/16 17/17/17
f 17/17/17 8/8/8 6/6/6
f 8/8/8 17/17/17 18/18/18
f 18/18/18 10/10/10 8/8/8
f 10/10/10 18/18/18 19/19/19
f 19/19/19 12/12/12 10/10/10
f 12/12/12 19/19/19 20/20/20
f 20/20/20 14/14/14 12/12/12
f 14/14/14 20/20/20 21/21/21
f 22/22/22 16/16/16 15/15/15
f 16/16/16 22/22/22 23/23/23
f 23/23/23 17/17/17 16/16/16
f 17/17/17 23/23/23 24/24/24
f 24/24/24 18/18/18 17/17/17
f 18/18/18 24/24/24 25/25/25
f 25/25/25 19/19/19 18/18/18
f 19/19/19 25/25/25 26/26/26
f 26/26/26 20/20/20 19/19/19
f 20/20/20 26/26/26 27/27/27
f 27/27/27 21/21/21 20/20/20
f 21/21/21 27/27/27 28/28/28
f 29/29/29 11/11/11 13/13/13
f 11/11/11 29/29/29 30/30/30
f 29/29/29 31/31/31 30/30/30
f 32/32/32 30/30/30 31/31/31
f 30/30/30 32/32/32 33/33/33
f 34/34/34 33/33/33 32/32/32
f 33/33/33 34/34/34 35/35/35
f 36/36/36 35/35/35 34/34/34
f 35/35/35 36/36/36 37/37/37
f 38/38/38 37/37/37 36/36/36
f 37/37/37 38/38/38 39/39/39
f 40/40/40 39/39/39 38/38/38
f 39/39/39 40/40/40 41/41/41
f 31/31/31 29/29/29 42/42/42
f 38/38/38 43/43/43 40/40/40
f 43/43/43 38/38/38 44/44/44
f 36/36/36 44/44/44 38/38/38
f 44/44/44 36/36/36 45/45/45
f 34/34/34 45/45/45 36/36/36
f 45/45/45 34/34/34 46/46/46
f 32/32/32 46/46/46 34/34/34
f 46/46/46 32/32/32 47/47/47
f 31/31/31 47/47/47 32/32/32
f 47/47/47 31/31/31 48/48/48
f 42/42/42 48/48/48 31/31/31
f 48/48/48 42/42/42 49/49/49
f 44/44/44 50/50/50 43/43/43
f 50/50/50 44/44/44 51/51/51
f 45/45/45 51/51/51 44/44/44
f 51/51/51 45/45/45 52/52/52
f 46/46/46 52/52/52 45/45/45
f 52/52/52 46/46/46 53/53/53
f 47/47/47 53/53/53 46/46/46
f 53/53/53 47/47/47 54/54/54
f 48/48/48 54/54/54 47/47/47
f 54/54/54 48/48/48 55/55/55
f 49/49/49 55/55/55 48/48/48
f 55/55/55 49/49/49 56/56/56
f 58/11/57 14/14/14 57/12/58
f 14/14/14 58/11/57 13/13/13
f 57/12/58 59/9/59 58/11/57
f 59/9/59 57/12/58 60/10/60
f 60/10/60 61/57/61 59/9/59
f 61/57/61 60/10/60 62/58/62
f 62/58/62 63/5/63 61/57/61
f 63/5/63 62/58/62 64/6/64
f 64/6/64 65/1/65 63/5/63
f 65/1/65 64/6/64 66/3/66
f 66/3/66 4/4/4 65/1/65
f 4/4/4 66/3/66 1/2/2
f 21/21/21 57/12/58 14/14/14
f 57/12/58 21/21/21 67/20/67
f 67/20/67 60/10/60 57/12/58
f 60/10/60 67/20/67 68/19/68
f 68/19/68 62/58/62 60/10/60
f 62/58/62 68/19/68 69/59/69
f 69/59/69 64/6/64 62/58/62
f 64/6/64 69/59/69 70/17/70
f 70/17/70 66/3/66 64/6/64
f 66/3/66 70/17/70 71/16/71
f 71/16/71 1/2/2 66/3/66
f 1/2/2 71/16/71 15/15/15
f 28/28/28 67/20/67 21/21/21
f 67/20/67 28/28/28 72/27/72
f 72/27/72 68/19/68 67/20/67
f 68/19/68 72/27/72 73/26/73
f 73/26/73 69/59/69 68/19/68
f 69/59/69 73/26/73 74/60/74
f 74/60/74 70/17/70 69/59/69
f 70/17/70 74/60/74 75/24/75
f 75/24/75 71/16/71 70/17/70
f 71/16/71 75/24/75 76/23/76
f 76/23/76 15/15/15 71/16/71
f 15/15/15 76/23/76 22/22/22
f 41/41/41 65/1/65 4/4/4
f 65/1/65 41/41/41 77/39/77
f 41/41/41 78/38/78 77/39/77
f 79/36/79 77/39/77 78/38/78
f 77/39/77 79/36/79 80/37/80
f 81/61/81 80/37/80 79/36/79
f 80/37/80 81/61/81 82/62/82
f 83/32/83 82/62/82 81/61/81
f 82/62/82 83/32/83 84/33/84
f 85/31/85 84/33/84 83/32/83
f 84/33/84 85/31/85 86/30/86
f 42/42/42 86/30/86 85/31/85
f 86/30/86 42/42/42 29/29/29
f 78/38/78 41/41/41 40/40/40
f 85/31/85 87/63/87 42/42/42
f 87/63/87 85/31/85 88/64/88
f 83/32/83 88/64/88 85/31/85
f 88/64/88 83/32/83 89/65/89
f 81/61/81 89/65/89 83/32/83
f 89/65/89 81/61/81 90/66/90
f 79/36/79 90/66/90 81/61/81
f 90/66/90 79/36/79 91/67/91
f 78/38/78 91/67/91 79/36/79
f 91/67/91 78/38/78 92/68/92
f 40/40/40 92/68/92 78/38/78
f 92/68/92 40/40/40 93/69/93
f 88/64/88 56/56/56 87/63/87
f 56/56/56 88/64/88 94/55/94
f 89/65/89 94/55/94 88/64/88
f 94/55/94 89/65/89 95/54/95
f 90/66/90 95/54/95 89/65/89
f 95/54/95 90/66/90 96/70/96
f 91/67/91 96/70/96 90/66/90
f 96/70/96 91/67/91 97/52/97
f 92/68/92 97/52/97 91/67/91
f 97/52/97 92/68/92 98/51/98
f 93/69/93 98/51/98 92/68/92
f 98/51/98 93/69/93 50/50/99
f 4/4/4 39/39/39 41/41/41
f 39/39/39 4/4/4 3/1/1
f 3/1/1 37/37/37 39/39/39
f 37/37/37 3/1/1 5/5/5
f 5/5/5 35/35/35 37/37/37
f 35/35/35 5/5/5 7/7/7
f 7/7/7 33/33/33 35/35/35
f 33/33/33 7/7/7 9/9/9
f 9/9/9 30/30/30 33/33/33
f 30/30/30 9/9/9 11/11/11
f 13/13/13 86/30/86 29/29/29
f 86/30/86 13/13/13 58/11/57
f 58/11/57 84/33/84 86/30/86
f 84/33/84 58/11/57 59/9/59
f 59/9/59 82/62/82 84/33/84
f 82/62/82 59/9/59 61/57/61
f 61/57/61 80/37/80 82/62/82
f 80/37/80 61/57/61 63/5/63
f 63/5/63 77/39/77 80/37/80
f 77/39/77 63/5/63 65/1/65
s 2
f 101/71/100 100/72/101 99/73/102
f 99/73/102 102/74/103 101/71/100
f 100/72/101 101/71/100 103/75/104
f 103/75/104 104/76/105 100/72/101
f 104/76/105 103/75/104 105/77/106
f 105/77/106 106/78/107 104/76/105
f 106/78/107 105/77/106 107/79/108
f 107/79/108 108/80/109 106/78/107
f 108/80/109 107/79/108 109/81/110
f 109/81/110 110/82/111 108/80/109
f 110/82/111 109/81/110 111/83/112
f 111/83/112 112/84/113 110/82/111
f 99/73/102 100/72/101 113/85/114
f 113/85/114 114/86/115 99/73/102
f 115/87/116 113/85/114 100/72/101
f 100/72/101 104/76/105 115/87/116
f 116/88/117 115/87/116 104/76/105
f 104/76/105 106/78/107 116/88/117
f 117/89/118 116/88/117 106/78/107
f 106/78/107 108/80/109 117/89/118
f 118/90/119 117/89/118 108/80/109
f 108/80/109 110/82/111 118/90/119
f 119/91/120 118/90/119 110/82/111
f 110/82/111 112/84/113 119/91/120
s 3
f 122/71/121 121/92/122 120/93/113
f 120/93/113 123/94/123 122/71/121
f 121/92/122 122/71/121 124/75/124
f 124/75/124 125/95/125 121/92/122
f 125/95/125 124/75/124 126/77/126
f 126/77/126 127/78/127 125/95/125
f 127/78/127 126/77/126 128/79/128
f 128/79/128 129/80/129 127/78/127
f 129/80/129 128/79/128 130/81/130
f 130/81/130 131/82/131 129/80/129
f 131/82/131 130/81/130 132/83/132
f 132/83/132 133/84/102 131/82/131
f 120/93/113 121/92/122 134/96/133
f 134/96/133 135/86/134 120/93/113
f 136/87/135 134/96/133 121/92/122
f 121/92/122 125/95/125 136/87/135
f 137/88/136 136/87/135 125/95/125
f 125/95/125 127/78/127 137/88/136
f 138/89/137 137/88/136 127/78/127
f 127/78/127 129/80/129 138/89/137
f 139/90/138 138/89/137 129/80/129
f 129/80/129 131/82/131 139/90/138
f 140/91/139 139/90/138 131/82/131
f 131/82/131 133/84/102 140/91/139
s 4
f 143/97/112 142/98/140 141/99/141
f 141/99/141 144/100/103 143/97/112
f 141/99/141 142/98/140 145/101/108
f 145/101/108 146/102/142 141/99/141
f 145/101/108 147/103/143 146/102/142
s 5
f 150/98/144 149/99/121 148/100/123
f 148/100/123 151/97/132 150/98/144
f 149/99/121 150/98/144 152/101/128
f 152/101/128 153/102/145 149/99/121
f 152/101/128 154/103/146 153/102/145
s 6
f 157/71/147 156/74/148 155/73/149
f 155/73/149 158/72/150 157/71/147
f 159/75/151 157/71/147 158/72/150
f 158/72/150 160/76/152 159/75/151
f 161/77/153 159/75/151 160/76/152
f 160/76/152 162/78/154 161/77/153
f 163/79/155 161/77/153 162/78/154
f 162/78/154 164/80/156 163/79/155
f 165/81/157 163/79/155 164/80/156
f 164/80/156 166/82/158 165/81/157
f 167/83/159 165/81/157 166/82/158
f 166/82/158 168/84/160 167/83/159
f 169/85/161 158/72/150 155/73/149
f 155/73/149 170/86/162 169/85/161
f 171/87/163 160/76/152 158/72/150
f 158/72/150 169/85/161 171/87/163
f 172/88/164 162/78/154 160/76/152
f 160/76/152 171/87/163 172/88/164
f 173/89/165 164/80/156 162/78/154
f 162/78/154 172/88/164 173/89/165
f 174/90/166 166/82/158 164/80/156
f 164/80/156 173/89/165 174/90/166
f 175/91/167 168/84/160 166/82/158
f 166/82/158 174/90/166 175/91/167
s 7
f 178/71/168 176/93/169 177/94/170
f 176/93/169 178/71/168 179/92/171
f 180/75/172 179/92/171 178/71/168
f 179/92/171 180/75/172 181/95/173
f 182/77/174 181/95/173 180/75/172
f 181/95/173 182/77/174 183/78/175
f 184/79/176 183/78/175 182/77/174
f 183/78/175 184/79/176 185/80/177
f 186/81/178 185/80/177 184/79/176
f 185/80/177 186/81/178 187/82/179
f 188/83/180 187/82/179 186/81/178
f 187/82/179 188/83/180 189/84/181
f 190/96/182 176/93/169 179/92/171
f 176/93/169 190/96/182 191/86/183
f 192/87/184 179/92/171 181/95/173
f 179/92/171 192/87/184 190/96/182
f 193/88/185 181/95/173 183/78/175
f 181/95/173 193/88/185 192/87/184
f 194/89/186 183/78/175 185/80/177
f 183/78/175 194/89/186 193/88/185
f 195/90/187 185/80/177 187/82/179
f 185/80/177 195/90/187 194/89/186
f 196/91/188 187/82/179 189/84/181
f 187/82/179 196/91/188 195/90/187
s 8
f 199/97/189 197/99/190 198/100/191
f 197/99/190 199/97/189 200/98/192
f 201/101/193 197/99/190 200/98/192
f 197/99/190 201/101/193 202/102/194
f 201/101/193 203/103/195 202/102/194
s 9
f 206/98/196 204/100/197 205/97/198
f 204/100/197 206/98/196 207/99/199
f 208/101/200 207/99/199 206/98/196
f 207/99/199 208/101/200 209/102/201
f 208/101/200 210/103/202 209/102/201
