# Blender 5.0.1
# www.blender.org
mtllib narukami_lampara_dos.mtl
g NarukamiShrine_mesh.087_Malla
v -0.118213 0.388010 0.185763
v -0.118213 0.388010 -0.169461
v -0.118213 0.360910 -0.169461
v -0.118213 0.360910 0.185763
v -0.135058 0.388010 0.185763
v -0.135058 0.360910 0.185763
v -0.135058 0.360910 -0.169461
v -0.135058 0.388010 -0.169461
v -0.135058 0.360910 0.185763
v -0.118213 0.360910 0.185763
v -0.118213 0.360910 -0.169461
v -0.135058 0.360910 -0.169461
v -0.135058 0.360910 0.185763
v -0.135058 0.388010 0.185763
v -0.118213 0.388010 0.185763
v -0.118213 0.360910 0.185763
v -0.135058 0.388010 0.185763
v -0.135058 0.388010 -0.169461
v -0.118213 0.388010 -0.169461
v -0.118213 0.388010 0.185763
v -0.135058 0.388010 -0.169461
v -0.135058 0.360910 -0.169461
v -0.118213 0.360910 -0.169461
v -0.118213 0.388010 -0.169461
v -0.163989 0.388010 0.139987
v -0.163989 0.360910 0.139987
v 0.191236 0.360910 0.139987
v 0.191236 0.388010 0.139987
v -0.163989 0.388010 0.156833
v 0.191236 0.388010 0.156833
v 0.191236 0.360910 0.156833
v -0.163989 0.360910 0.156833
v -0.163989 0.360910 0.156833
v 0.191236 0.360910 0.156833
v 0.191236 0.360910 0.139987
v -0.163989 0.360910 0.139987
v -0.163989 0.360910 0.156833
v -0.163989 0.360910 0.139987
v -0.163989 0.388010 0.139987
v -0.163989 0.388010 0.156833
v -0.163989 0.388010 0.156833
v -0.163989 0.388010 0.139987
v 0.191236 0.388010 0.139987
v 0.191236 0.388010 0.156833
v 0.191236 0.388010 0.156833
v 0.191236 0.388010 0.139987
v 0.191236 0.360910 0.139987
v 0.191236 0.360910 0.156833
v 0.145703 0.388010 0.185763
v 0.145703 0.360910 0.185763
v 0.145703 0.360910 -0.169461
v 0.145703 0.388010 -0.169461
v 0.162549 0.388010 0.185763
v 0.162549 0.388010 -0.169461
v 0.162549 0.360910 -0.169461
v 0.162549 0.360910 0.185763
v 0.162549 0.360910 0.185763
v 0.162549 0.360910 -0.169461
v 0.145703 0.360910 -0.169461
v 0.145703 0.360910 0.185763
v 0.162549 0.360910 0.185763
v 0.145703 0.360910 0.185763
v 0.145703 0.388010 0.185763
v 0.162549 0.388010 0.185763
v 0.162549 0.388010 0.185763
v 0.145703 0.388010 0.185763
v 0.145703 0.388010 -0.169461
v 0.162549 0.388010 -0.169461
v 0.162549 0.388010 -0.169461
v 0.145703 0.388010 -0.169461
v 0.145703 0.360910 -0.169461
v 0.162549 0.360910 -0.169461
v -0.163989 0.388010 -0.123929
v 0.191236 0.388010 -0.123929
v 0.191236 0.360910 -0.123929
v -0.163989 0.360910 -0.123929
v -0.163989 0.388010 -0.140774
v -0.163989 0.360910 -0.140774
v 0.191236 0.360910 -0.140774
v 0.191236 0.388010 -0.140774
v -0.163989 0.360910 -0.140774
v -0.163989 0.360910 -0.123929
v 0.191236 0.360910 -0.123929
v 0.191236 0.360910 -0.140774
v -0.163989 0.360910 -0.140774
v -0.163989 0.388010 -0.140774
v -0.163989 0.388010 -0.123929
v -0.163989 0.360910 -0.123929
v -0.163989 0.388010 -0.140774
v 0.191236 0.388010 -0.140774
v 0.191236 0.388010 -0.123929
v -0.163989 0.388010 -0.123929
v 0.191236 0.388010 -0.140774
v 0.191236 0.360910 -0.140774
v 0.191236 0.360910 -0.123929
v 0.191236 0.388010 -0.123929
v -0.122729 0.377268 0.143161
v 0.151807 0.377268 0.143161
v 0.151807 0.011133 0.143161
v -0.122729 0.011133 0.143161
v -0.122729 0.377268 -0.127469
v -0.122729 0.011133 -0.127469
v 0.151807 0.011133 -0.127469
v 0.151807 0.377268 -0.127469
v -0.122729 0.377268 -0.127469
v -0.122729 0.377268 0.143161
v -0.122729 0.011133 0.143161
v -0.122729 0.011133 -0.127469
v 0.151807 0.377268 -0.127469
v 0.151807 0.377268 0.143161
v -0.122729 0.377268 0.143161
v -0.122729 0.377268 -0.127469
v 0.151807 0.011133 -0.127469
v 0.151807 0.011133 0.143161
v 0.151807 0.377268 0.143161
v 0.151807 0.377268 -0.127469
v -0.118213 0.026773 0.185763
v -0.118213 0.026773 -0.169461
v -0.118213 -0.000315 -0.169461
v -0.118213 -0.000315 0.185763
v -0.135058 0.026773 0.185763
v -0.135058 -0.000315 0.185763
v -0.135058 -0.000315 -0.169461
v -0.135058 0.026773 -0.169461
v -0.135058 -0.000315 0.185763
v -0.135058 0.026773 0.185763
v -0.118213 0.026773 0.185763
v -0.118213 -0.000315 0.185763
v -0.135058 0.026773 0.185763
v -0.135058 0.026773 -0.169461
v -0.118213 0.026773 -0.169461
v -0.118213 0.026773 0.185763
v -0.135058 0.026773 -0.169461
v -0.135058 -0.000315 -0.169461
v -0.118213 -0.000315 -0.169461
v -0.118213 0.026773 -0.169461
v -0.163989 0.026773 0.139987
v -0.163989 -0.000315 0.139987
v 0.191236 -0.000315 0.139987
v 0.191236 0.026773 0.139987
v -0.163989 0.026773 0.156833
v 0.191236 0.026773 0.156833
v 0.191236 -0.000315 0.156833
v -0.163989 -0.000315 0.156833
v -0.163989 -0.000315 0.156833
v -0.163989 -0.000315 0.139987
v -0.163989 0.026773 0.139987
v -0.163989 0.026773 0.156833
v -0.163989 0.026773 0.156833
v -0.163989 0.026773 0.139987
v 0.191236 0.026773 0.139987
v 0.191236 0.026773 0.156833
v 0.191236 0.026773 0.156833
v 0.191236 0.026773 0.139987
v 0.191236 -0.000315 0.139987
v 0.191236 -0.000315 0.156833
v 0.145703 0.026773 0.185763
v 0.145703 -0.000315 0.185763
v 0.145703 -0.000315 -0.169461
v 0.145703 0.026773 -0.169461
v 0.162549 0.026773 0.185763
v 0.162549 0.026773 -0.169461
v 0.162549 -0.000315 -0.169461
v 0.162549 -0.000315 0.185763
v 0.162549 -0.000315 0.185763
v 0.145703 -0.000315 0.185763
v 0.145703 0.026773 0.185763
v 0.162549 0.026773 0.185763
v 0.162549 0.026773 0.185763
v 0.145703 0.026773 0.185763
v 0.145703 0.026773 -0.169461
v 0.162549 0.026773 -0.169461
v 0.162549 0.026773 -0.169461
v 0.145703 0.026773 -0.169461
v 0.145703 -0.000315 -0.169461
v 0.162549 -0.000315 -0.169461
v -0.163989 0.026773 -0.123929
v 0.191236 0.026773 -0.123929
v 0.191236 -0.000315 -0.123929
v -0.163989 -0.000315 -0.123929
v -0.163989 0.026773 -0.140774
v -0.163989 -0.000315 -0.140774
v 0.191236 -0.000315 -0.140774
v 0.191236 0.026773 -0.140774
v -0.163989 -0.000315 -0.140774
v -0.163989 0.026773 -0.140774
v -0.163989 0.026773 -0.123929
v -0.163989 -0.000315 -0.123929
v -0.163989 0.026773 -0.140774
v 0.191236 0.026773 -0.140774
v 0.191236 0.026773 -0.123929
v -0.163989 0.026773 -0.123929
v 0.191236 0.026773 -0.140774
v 0.191236 -0.000315 -0.140774
v 0.191236 -0.000315 -0.123929
v 0.191236 0.026773 -0.123929
v -0.113330 0.413889 -0.119168
v -0.113330 -0.158621 -0.119168
v -0.139331 -0.158621 -0.119168
v -0.139331 0.413889 -0.119168
v -0.113330 0.413889 -0.145047
v -0.139331 0.413889 -0.145047
v -0.139331 -0.158621 -0.145047
v -0.113330 -0.158621 -0.145047
v -0.139331 0.413889 -0.145047
v -0.139331 0.413889 -0.119168
v -0.139331 -0.158621 -0.119168
v -0.139331 -0.158621 -0.145047
v -0.139331 0.413889 -0.145047
v -0.113330 0.413889 -0.145047
v -0.113330 0.413889 -0.119168
v -0.139331 0.413889 -0.119168
v -0.113330 0.413889 -0.145047
v -0.113330 -0.158621 -0.145047
v -0.113330 -0.158621 -0.119168
v -0.113330 0.413889 -0.119168
v 0.166699 0.413889 -0.119168
v 0.166699 -0.158621 -0.119168
v 0.140821 -0.158621 -0.119168
v 0.140821 0.413889 -0.119168
v 0.166699 0.413889 -0.145047
v 0.140821 0.413889 -0.145047
v 0.140821 -0.158621 -0.145047
v 0.166699 -0.158621 -0.145047
v 0.140821 0.413889 -0.145047
v 0.140821 0.413889 -0.119168
v 0.140821 -0.158621 -0.119168
v 0.140821 -0.158621 -0.145047
v 0.140821 0.413889 -0.145047
v 0.166699 0.413889 -0.145047
v 0.166699 0.413889 -0.119168
v 0.140821 0.413889 -0.119168
v 0.166699 0.413889 -0.145047
v 0.166699 -0.158621 -0.145047
v 0.166699 -0.158621 -0.119168
v 0.166699 0.413889 -0.119168
v -0.113330 0.413889 0.161471
v -0.113330 -0.158621 0.161471
v -0.139331 -0.158621 0.161471
v -0.139331 0.413889 0.161471
v -0.113330 0.413889 0.135470
v -0.139331 0.413889 0.135470
v -0.139331 -0.158621 0.135470
v -0.113330 -0.158621 0.135470
v -0.139331 0.413889 0.135470
v -0.139331 0.413889 0.161471
v -0.139331 -0.158621 0.161471
v -0.139331 -0.158621 0.135470
v -0.139331 0.413889 0.135470
v -0.113330 0.413889 0.135470
v -0.113330 0.413889 0.161471
v -0.139331 0.413889 0.161471
v -0.113330 0.413889 0.135470
v -0.113330 -0.158621 0.135470
v -0.113330 -0.158621 0.161471
v -0.113330 0.413889 0.161471
v 0.166699 0.413889 0.161471
v 0.166699 -0.158621 0.161471
v 0.140821 -0.158621 0.161471
v 0.140821 0.413889 0.161471
v 0.166699 0.413889 0.135470
v 0.140821 0.413889 0.135470
v 0.140821 -0.158621 0.135470
v 0.166699 -0.158621 0.135470
v 0.140821 0.413889 0.135470
v 0.140821 0.413889 0.161471
v 0.140821 -0.158621 0.161471
v 0.140821 -0.158621 0.135470
v 0.140821 0.413889 0.135470
v 0.166699 0.413889 0.135470
v 0.166699 0.413889 0.161471
v 0.140821 0.413889 0.161471
v 0.166699 0.413889 0.135470
v 0.166699 -0.158621 0.135470
v 0.166699 -0.158621 0.161471
v 0.166699 0.413889 0.161471
v 0.151807 0.009943 -0.127469
v -0.122729 0.009943 -0.127469
v -0.122729 0.009943 0.143161
v 0.151807 0.009943 0.143161
vn 1.0000 -0.0000 -0.0000
vn -0.0000 1.0000 -0.0000
vn -0.0000 -0.0000 -1.0000
vn -0.0000 -0.0000 1.0000
vn -1.0000 -0.0000 -0.0000
vt 0.552246 -0.570801
vt 0.508789 -0.570801
vt 0.508789 -0.261230
vt 0.552246 -0.261230
vt 0.558594 -0.570801
vt 0.602539 -0.261230
vt 0.558594 -0.261230
vt 0.602539 -0.570801
vt 0.607910 -0.621094
vt 0.553223 -0.582520
vt 0.607910 -0.582520
vt 0.553223 -0.621094
vt 0.598633 -0.242310
vt 0.288818 -0.242310
vt 0.288818 -0.020966
vt 0.598633 -0.020966
vt 0.044739 -0.242188
vt 0.044739 -0.020828
vt 0.266113 -0.020828
vt 0.266113 -0.242188
s 1
g センター
g NarukamiShrine_mesh.087_Lamps_B
usemtl Lamps_B
f 3/1/1 2/2/1 1/3/1
f 1/3/1 4/4/1 3/1/1
s 2
f 7/3/1 5/1/1 6/2/1
f 5/1/1 7/3/1 8/4/1
s 3
f 11/5/2 9/6/2 10/7/2
f 9/6/2 11/5/2 12/8/2
s 4
f 15/9/3 13/10/3 14/11/3
f 13/10/3 15/9/3 16/12/3
s 5
f 19/6/2 18/7/2 17/5/2
f 17/5/2 20/8/2 19/6/2
s 6
f 23/11/3 22/9/3 21/12/3
f 21/12/3 24/10/3 23/11/3
s 7
f 27/1/3 26/4/3 25/3/3
f 25/3/3 28/2/3 27/1/3
s 8
f 31/3/3 29/1/3 30/4/3
f 29/1/3 31/3/3 32/2/3
s 9
f 35/5/2 33/6/2 34/8/2
f 33/6/2 35/5/2 36/7/2
s 10
f 39/9/1 37/10/1 38/12/1
f 37/10/1 39/9/1 40/11/1
s 11
f 43/6/2 42/8/2 41/5/2
f 41/5/2 44/7/2 43/6/2
s 12
f 47/11/1 46/10/1 45/12/1
f 45/12/1 48/9/1 47/11/1
s 13
f 51/1/1 49/3/1 50/4/1
f 49/3/1 51/1/1 52/2/1
s 14
f 55/3/1 54/4/1 53/1/1
f 53/1/1 56/2/1 55/3/1
s 15
f 59/5/2 57/6/2 58/8/2
f 57/6/2 59/5/2 60/7/2
s 16
f 63/9/3 61/10/3 62/12/3
f 61/10/3 63/9/3 64/11/3
s 17
f 67/6/2 66/8/2 65/5/2
f 65/5/2 68/7/2 67/6/2
s 18
f 71/11/3 70/10/3 69/12/3
f 69/12/3 72/9/3 71/11/3
s 19
f 75/1/3 73/3/3 74/2/3
f 73/3/3 75/1/3 76/4/3
s 20
f 79/3/3 78/2/3 77/1/3
f 77/1/3 80/4/3 79/3/3
s 21
f 83/5/2 81/6/2 82/7/2
f 81/6/2 83/5/2 84/8/2
s 22
f 87/9/1 85/10/1 86/11/1
f 85/10/1 87/9/1 88/12/1
s 23
f 91/6/2 90/7/2 89/5/2
f 89/5/2 92/8/2 91/6/2
s 24
f 95/11/1 94/9/1 93/12/1
f 93/12/1 96/10/1 95/11/1
s 25
f 99/13/4 98/14/4 97/15/4
f 97/15/4 100/16/4 99/13/4
s 26
f 103/16/3 102/13/3 101/14/3
f 101/14/3 104/15/3 103/16/3
s 27
f 107/13/5 106/14/5 105/15/5
f 105/15/5 108/16/5 107/13/5
s 28
f 111/17/2 110/18/2 109/19/2
f 109/19/2 112/20/2 111/17/2
s 29
f 115/15/1 114/16/1 113/13/1
f 113/13/1 116/14/1 115/15/1
s 30
f 119/1/1 118/2/1 117/3/1
f 117/3/1 120/4/1 119/1/1
s 31
f 123/3/1 121/1/1 122/2/1
f 121/1/1 123/3/1 124/4/1
s 32
f 127/9/3 125/10/3 126/11/3
f 125/10/3 127/9/3 128/12/3
s 33
f 131/6/2 130/7/2 129/5/2
f 129/5/2 132/8/2 131/6/2
s 34
f 135/11/3 134/9/3 133/12/3
f 133/12/3 136/10/3 135/11/3
s 35
f 139/1/3 138/4/3 137/3/3
f 137/3/3 140/2/3 139/1/3
s 36
f 143/3/3 141/1/3 142/4/3
f 141/1/3 143/3/3 144/2/3
s 37
f 147/9/1 145/10/1 146/12/1
f 145/10/1 147/9/1 148/11/1
s 38
f 151/6/2 150/8/2 149/5/2
f 149/5/2 152/7/2 151/6/2
s 39
f 155/11/1 154/10/1 153/12/1
f 153/12/1 156/9/1 155/11/1
s 40
f 159/1/1 157/3/1 158/4/1
f 157/3/1 159/1/1 160/2/1
s 41
f 163/3/1 162/4/1 161/1/1
f 161/1/1 164/2/1 163/3/1
s 42
f 167/9/3 165/10/3 166/12/3
f 165/10/3 167/9/3 168/11/3
s 43
f 171/6/2 170/8/2 169/5/2
f 169/5/2 172/7/2 171/6/2
s 44
f 175/11/3 174/10/3 173/12/3
f 173/12/3 176/9/3 175/11/3
s 45
f 179/1/3 177/3/3 178/2/3
f 177/3/3 179/1/3 180/4/3
s 46
f 183/3/3 182/2/3 181/1/3
f 181/1/3 184/4/3 183/3/3
s 47
f 187/9/1 185/10/1 186/11/1
f 185/10/1 187/9/1 188/12/1
s 48
f 191/6/2 190/7/2 189/5/2
f 189/5/2 192/8/2 191/6/2
s 49
f 195/11/1 194/9/1 193/12/1
f 193/12/1 196/10/1 195/11/1
s 50
f 199/1/3 197/3/3 198/2/3
f 197/3/3 199/1/3 200/4/3
s 51
f 203/3/3 202/2/3 201/1/3
f 201/1/3 204/4/3 203/3/3
s 52
f 207/5/1 205/6/1 206/7/1
f 205/6/1 207/5/1 208/8/1
s 53
f 211/9/2 210/11/2 209/10/2
f 209/10/2 212/12/2 211/9/2
s 54
f 215/6/1 214/7/1 213/5/1
f 213/5/1 216/8/1 215/6/1
s 55
f 219/1/3 217/3/3 218/2/3
f 217/3/3 219/1/3 220/4/3
s 56
f 223/3/3 222/2/3 221/1/3
f 221/1/3 224/4/3 223/3/3
s 57
f 227/5/1 225/6/1 226/7/1
f 225/6/1 227/5/1 228/8/1
s 58
f 231/9/2 230/11/2 229/10/2
f 229/10/2 232/12/2 231/9/2
s 59
f 235/6/1 234/7/1 233/5/1
f 233/5/1 236/8/1 235/6/1
s 60
f 239/1/3 237/3/3 238/2/3
f 237/3/3 239/1/3 240/4/3
s 61
f 243/3/3 242/2/3 241/1/3
f 241/1/3 244/4/3 243/3/3
s 62
f 247/5/1 245/6/1 246/7/1
f 245/6/1 247/5/1 248/8/1
s 63
f 251/9/2 250/11/2 249/10/2
f 249/10/2 252/12/2 251/9/2
s 64
f 255/6/1 254/7/1 253/5/1
f 253/5/1 256/8/1 255/6/1
s 65
f 259/1/3 257/3/3 258/2/3
f 257/3/3 259/1/3 260/4/3
s 66
f 263/3/3 262/2/3 261/1/3
f 261/1/3 264/4/3 263/3/3
s 67
f 267/5/1 265/6/1 266/7/1
f 265/6/1 267/5/1 268/8/1
s 68
f 271/9/2 270/11/2 269/10/2
f 269/10/2 272/12/2 271/9/2
s 69
f 275/6/1 274/7/1 273/5/1
f 273/5/1 276/8/1 275/6/1
s 70
f 279/17/2 277/19/2 278/20/2
f 277/19/2 279/17/2 280/18/2
