# Blender 5.0.1
# www.blender.org
mtllib tibia_der_yae.mtl
g 肌.008_Malla
v -0.002788 -0.132676 0.019033
v -0.005342 -0.132643 0.022558
v -0.004843 -0.124854 0.022574
v -0.004843 -0.124854 0.022574
v -0.001981 -0.125005 0.019023
v -0.002788 -0.132676 0.019033
v -0.008194 -0.124656 0.023299
v -0.004843 -0.124854 0.022574
v -0.005342 -0.132643 0.022558
v -0.005342 -0.132643 0.022558
v -0.008418 -0.132580 0.023519
v -0.008194 -0.124656 0.023299
v -0.013632 -0.132612 0.011240
v -0.013299 -0.124462 0.011225
v -0.013321 -0.124347 0.016160
v -0.013321 -0.124347 0.016160
v -0.013256 -0.132620 0.017527
v -0.013632 -0.132612 0.011240
v -0.008194 -0.124656 0.023299
v -0.008418 -0.132580 0.023519
v -0.011291 -0.132574 0.022107
v -0.011291 -0.132574 0.022107
v -0.011249 -0.124511 0.021534
v -0.008194 -0.124656 0.023299
v -0.001981 -0.125005 0.019023
v -0.000080 -0.125075 0.013492
v -0.000775 -0.132681 0.014457
v -0.000775 -0.132681 0.014457
v -0.002788 -0.132676 0.019033
v -0.001981 -0.125005 0.019023
v -0.007100 -0.124694 0.002963
v -0.007641 -0.132539 0.003101
v -0.004410 -0.132558 0.003907
v -0.004410 -0.132558 0.003907
v -0.003769 -0.124850 0.003921
v -0.007100 -0.124694 0.002963
v -0.001297 -0.132650 0.007786
v -0.000775 -0.132681 0.014457
v -0.000080 -0.125075 0.013492
v -0.000080 -0.125075 0.013492
v -0.000617 -0.125055 0.007277
v -0.001297 -0.132650 0.007786
v -0.013299 -0.124462 0.011225
v -0.013632 -0.132612 0.011240
v -0.011542 -0.132585 0.005832
v -0.011542 -0.132585 0.005832
v -0.011136 -0.124545 0.005579
v -0.013299 -0.124462 0.011225
v -0.011136 -0.124545 0.005579
v -0.011542 -0.132585 0.005832
v -0.007641 -0.132539 0.003101
v -0.007641 -0.132539 0.003101
v -0.007100 -0.124694 0.002963
v -0.011136 -0.124545 0.005579
v -0.003769 -0.124850 0.003921
v -0.004410 -0.132558 0.003907
v -0.001297 -0.132650 0.007786
v -0.001297 -0.132650 0.007786
v -0.000617 -0.125055 0.007277
v -0.003769 -0.124850 0.003921
v -0.011249 -0.124511 0.021534
v -0.011291 -0.132574 0.022107
v -0.013256 -0.132620 0.017527
v -0.013256 -0.132620 0.017527
v -0.013321 -0.124347 0.016160
v -0.011249 -0.124511 0.021534
v -0.000844 -0.139921 0.015764
v -0.003359 -0.140857 0.020410
v -0.002788 -0.132676 0.019033
v -0.002788 -0.132676 0.019033
v -0.000775 -0.132681 0.014457
v -0.000844 -0.139921 0.015764
v -0.000775 -0.132681 0.014457
v -0.001297 -0.132650 0.007786
v -0.000810 -0.141798 0.010517
v -0.000810 -0.141798 0.010517
v -0.000844 -0.139921 0.015764
v -0.000775 -0.132681 0.014457
v -0.003359 -0.140857 0.020410
v -0.005612 -0.140085 0.022982
v -0.005342 -0.132643 0.022558
v -0.005342 -0.132643 0.022558
v -0.002788 -0.132676 0.019033
v -0.003359 -0.140857 0.020410
v -0.001297 -0.132650 0.007786
v -0.002142 -0.140394 0.005734
v -0.000810 -0.141798 0.010517
v -0.005342 -0.132643 0.022558
v -0.005612 -0.140085 0.022982
v -0.008712 -0.139687 0.024387
v -0.008712 -0.139687 0.024387
v -0.008418 -0.132580 0.023519
v -0.005342 -0.132643 0.022558
v -0.008712 -0.139687 0.024387
v -0.011846 -0.139765 0.023372
v -0.011291 -0.132574 0.022107
v -0.011291 -0.132574 0.022107
v -0.008418 -0.132580 0.023519
v -0.008712 -0.139687 0.024387
v -0.011291 -0.132574 0.022107
v -0.011846 -0.139765 0.023372
v -0.013396 -0.140561 0.020115
v -0.013396 -0.140561 0.020115
v -0.013256 -0.132620 0.017527
v -0.011291 -0.132574 0.022107
v -0.013396 -0.140561 0.020115
v -0.014342 -0.140510 0.016188
v -0.013256 -0.132620 0.017527
v -0.013256 -0.132620 0.017527
v -0.014342 -0.140510 0.016188
v -0.014293 -0.139132 0.011270
v -0.014293 -0.139132 0.011270
v -0.013632 -0.132612 0.011240
v -0.013256 -0.132620 0.017527
v -0.013632 -0.132612 0.011240
v -0.014293 -0.139132 0.011270
v -0.013559 -0.140242 0.007653
v -0.013559 -0.140242 0.007653
v -0.011542 -0.132585 0.005832
v -0.013632 -0.132612 0.011240
v -0.011647 -0.139959 0.004991
v -0.011542 -0.132585 0.005832
v -0.013559 -0.140242 0.007653
v -0.008376 -0.139376 0.002832
v -0.007641 -0.132539 0.003101
v -0.011542 -0.132585 0.005832
v -0.011542 -0.132585 0.005832
v -0.011647 -0.139959 0.004991
v -0.008376 -0.139376 0.002832
v -0.004410 -0.132558 0.003907
v -0.004985 -0.139468 0.003058
v -0.002142 -0.140394 0.005734
v -0.002142 -0.140394 0.005734
v -0.001297 -0.132650 0.007786
v -0.004410 -0.132558 0.003907
v -0.007641 -0.132539 0.003101
v -0.008376 -0.139376 0.002832
v -0.004985 -0.139468 0.003058
v -0.004985 -0.139468 0.003058
v -0.004410 -0.132558 0.003907
v -0.007641 -0.132539 0.003101
v 0.006479 0.000511 -0.012644
v -0.001051 -0.000168 -0.015200
v -0.000907 -0.004419 -0.013797
v -0.000907 -0.004419 -0.013797
v 0.006559 -0.003471 -0.011402
v 0.006479 0.000511 -0.012644
v -0.009801 0.000691 -0.010560
v -0.009569 -0.003483 -0.009397
v -0.000907 -0.004419 -0.013797
v -0.000907 -0.004419 -0.013797
v -0.001051 -0.000168 -0.015200
v -0.009801 0.000691 -0.010560
v -0.013981 0.000061 0.008054
v -0.014578 -0.001609 -0.000577
v -0.014704 0.002636 -0.001120
v 0.006801 -0.006981 -0.010198
v 0.010849 -0.005334 -0.004145
v 0.010688 -0.001943 -0.005037
v 0.010688 -0.001943 -0.005037
v 0.006559 -0.003471 -0.011402
v 0.006801 -0.006981 -0.010198
v -0.012880 -0.020013 0.012190
v -0.013714 -0.034666 0.015056
v -0.013613 -0.035591 0.006352
v -0.013613 -0.035591 0.006352
v -0.012804 -0.021368 0.003824
v -0.012880 -0.020013 0.012190
v 0.014341 -0.019748 0.018936
v 0.015460 -0.020897 0.008542
v 0.016492 -0.036258 0.011252
v 0.016492 -0.036258 0.011252
v 0.015164 -0.035225 0.022214
v 0.014341 -0.019748 0.018936
v -0.000381 -0.051691 -0.005482
v 0.000680 -0.037497 -0.007346
v -0.007503 -0.037002 -0.003342
v -0.007503 -0.037002 -0.003342
v -0.008558 -0.050872 -0.001666
v -0.000381 -0.051691 -0.005482
v -0.001524 -0.019327 0.025129
v -0.001809 -0.034101 0.028745
v -0.009732 -0.033973 0.024462
v -0.009732 -0.033973 0.024462
v -0.009005 -0.018994 0.020346
v -0.001524 -0.019327 0.025129
v 0.006568 -0.050453 0.028903
v -0.002934 -0.049866 0.028940
v -0.001809 -0.034101 0.028745
v -0.001809 -0.034101 0.028745
v 0.007750 -0.034450 0.028636
v 0.006568 -0.050453 0.028903
v 0.006559 -0.003471 -0.011402
v -0.000907 -0.004419 -0.013797
v -0.000634 -0.007950 -0.012578
v -0.000634 -0.007950 -0.012578
v 0.006801 -0.006981 -0.010198
v 0.006559 -0.003471 -0.011402
v 0.007221 -0.051889 -0.003491
v 0.008307 -0.037455 -0.005205
v 0.000680 -0.037497 -0.007346
v 0.000680 -0.037497 -0.007346
v -0.000381 -0.051691 -0.005482
v 0.007221 -0.051889 -0.003491
v -0.014747 -0.049900 0.007989
v -0.013613 -0.035591 0.006352
v -0.013714 -0.034666 0.015056
v -0.013714 -0.034666 0.015056
v -0.015093 -0.049753 0.016092
v -0.014747 -0.049900 0.007989
v 0.007750 -0.034450 0.028636
v 0.015164 -0.035225 0.022214
v 0.013577 -0.051281 0.023236
v 0.013577 -0.051281 0.023236
v 0.006568 -0.050453 0.028903
v 0.007750 -0.034450 0.028636
v 0.015164 -0.035225 0.022214
v 0.016492 -0.036258 0.011252
v 0.015646 -0.051959 0.012579
v 0.015646 -0.051959 0.012579
v 0.013577 -0.051281 0.023236
v 0.015164 -0.035225 0.022214
v 0.006559 -0.003471 -0.011402
v 0.010688 -0.001943 -0.005037
v 0.010891 0.001257 -0.005846
v 0.010891 0.001257 -0.005846
v 0.006479 0.000511 -0.012644
v 0.006559 -0.003471 -0.011402
v -0.008558 -0.050872 -0.001666
v -0.007503 -0.037002 -0.003342
v -0.013613 -0.035591 0.006352
v -0.013613 -0.035591 0.006352
v -0.014747 -0.049900 0.007989
v -0.008558 -0.050872 -0.001666
v 0.012944 -0.021952 -0.000194
v 0.007975 -0.022635 -0.007007
v 0.008307 -0.037455 -0.005205
v 0.008307 -0.037455 -0.005205
v 0.013816 -0.037018 0.001394
v 0.012944 -0.021952 -0.000194
v -0.013423 -0.009084 0.009344
v -0.012880 -0.020013 0.012190
v -0.012804 -0.021368 0.003824
v -0.012804 -0.021368 0.003824
v -0.013436 -0.010624 0.000750
v -0.013423 -0.009084 0.009344
v 0.006102 -0.008066 0.021284
v 0.012355 -0.008455 0.015696
v 0.014341 -0.019748 0.018936
v 0.014341 -0.019748 0.018936
v 0.007362 -0.019482 0.024975
v 0.006102 -0.008066 0.021284
v 0.007975 -0.022635 -0.007007
v 0.000711 -0.022876 -0.008965
v 0.000680 -0.037497 -0.007346
v 0.000680 -0.037497 -0.007346
v 0.008307 -0.037455 -0.005205
v 0.007975 -0.022635 -0.007007
v -0.007160 -0.022597 -0.005180
v 0.000711 -0.022876 -0.008965
v 0.000135 -0.013031 -0.010716
v 0.000135 -0.013031 -0.010716
v -0.008108 -0.012501 -0.006909
v -0.007160 -0.022597 -0.005180
v -0.012804 -0.021368 0.003824
v -0.013613 -0.035591 0.006352
v -0.007503 -0.037002 -0.003342
v -0.007503 -0.037002 -0.003342
v -0.007160 -0.022597 -0.005180
v -0.012804 -0.021368 0.003824
v -0.002934 -0.049866 0.028940
v -0.010889 -0.049153 0.024767
v -0.009732 -0.033973 0.024462
v -0.009732 -0.033973 0.024462
v -0.001809 -0.034101 0.028745
v -0.002934 -0.049866 0.028940
v 0.005361 0.001454 0.018119
v 0.006102 -0.008066 0.021284
v -0.001784 -0.007902 0.021159
v -0.001784 -0.007902 0.021159
v -0.002092 0.001485 0.018160
v 0.005361 0.001454 0.018119
v -0.001809 -0.034101 0.028745
v -0.001524 -0.019327 0.025129
v 0.007362 -0.019482 0.024975
v 0.007362 -0.019482 0.024975
v 0.007750 -0.034450 0.028636
v -0.001809 -0.034101 0.028745
v 0.006102 -0.008066 0.021284
v 0.007362 -0.019482 0.024975
v -0.001524 -0.019327 0.025129
v -0.001524 -0.019327 0.025129
v -0.001784 -0.007902 0.021159
v 0.006102 -0.008066 0.021284
v 0.007975 -0.022635 -0.007007
v 0.012944 -0.021952 -0.000194
v 0.011522 -0.010839 -0.002614
v 0.011522 -0.010839 -0.002614
v 0.007382 -0.012271 -0.008404
v 0.007975 -0.022635 -0.007007
v 0.007382 -0.012271 -0.008404
v 0.000135 -0.013031 -0.010716
v 0.000711 -0.022876 -0.008965
v 0.000711 -0.022876 -0.008965
v 0.007975 -0.022635 -0.007007
v 0.007382 -0.012271 -0.008404
v -0.009078 -0.008114 0.016544
v -0.013423 -0.009084 0.009344
v -0.013981 0.000061 0.008054
v -0.000907 -0.004419 -0.013797
v -0.009569 -0.003483 -0.009397
v -0.008970 -0.007123 -0.008271
v -0.008970 -0.007123 -0.008271
v -0.000634 -0.007950 -0.012578
v -0.000907 -0.004419 -0.013797
v 0.006102 -0.008066 0.021284
v 0.005361 0.001454 0.018119
v 0.012355 -0.008455 0.015696
v -0.001784 -0.007902 0.021159
v -0.009078 -0.008114 0.016544
v -0.002092 0.001485 0.018160
v -0.001784 -0.007902 0.021159
v -0.001524 -0.019327 0.025129
v -0.009005 -0.018994 0.020346
v -0.009005 -0.018994 0.020346
v -0.009078 -0.008114 0.016544
v -0.001784 -0.007902 0.021159
v 0.012355 -0.008455 0.015696
v 0.014169 -0.009323 0.005547
v 0.015460 -0.020897 0.008542
v 0.015460 -0.020897 0.008542
v 0.014341 -0.019748 0.018936
v 0.012355 -0.008455 0.015696
v 0.012503 0.007086 0.011507
v 0.013737 0.000318 0.003031
v 0.012355 -0.008455 0.015696
v 0.007362 -0.019482 0.024975
v 0.014341 -0.019748 0.018936
v 0.015164 -0.035225 0.022214
v 0.015164 -0.035225 0.022214
v 0.007750 -0.034450 0.028636
v 0.007362 -0.019482 0.024975
v -0.009078 -0.008114 0.016544
v -0.009005 -0.018994 0.020346
v -0.012880 -0.020013 0.012190
v -0.012880 -0.020013 0.012190
v -0.013423 -0.009084 0.009344
v -0.009078 -0.008114 0.016544
v -0.014250 -0.004990 -0.000128
v -0.014578 -0.001609 -0.000577
v -0.013981 0.000061 0.008054
v -0.008108 -0.012501 -0.006909
v -0.013436 -0.010624 0.000750
v -0.012804 -0.021368 0.003824
v -0.012804 -0.021368 0.003824
v -0.007160 -0.022597 -0.005180
v -0.008108 -0.012501 -0.006909
v -0.009569 -0.003483 -0.009397
v -0.014578 -0.001609 -0.000577
v -0.014250 -0.004990 -0.000128
v -0.014250 -0.004990 -0.000128
v -0.008970 -0.007123 -0.008271
v -0.009569 -0.003483 -0.009397
v 0.012981 -0.051939 0.002760
v 0.015646 -0.051959 0.012579
v 0.016492 -0.036258 0.011252
v 0.016492 -0.036258 0.011252
v 0.013816 -0.037018 0.001394
v 0.012981 -0.051939 0.002760
v 0.010891 0.001257 -0.005846
v 0.010688 -0.001943 -0.005037
v 0.013737 0.000318 0.003031
v -0.009801 0.000691 -0.010560
v -0.014704 0.002636 -0.001120
v -0.014578 -0.001609 -0.000577
v -0.014578 -0.001609 -0.000577
v -0.009569 -0.003483 -0.009397
v -0.009801 0.000691 -0.010560
v 0.000680 -0.037497 -0.007346
v 0.000711 -0.022876 -0.008965
v -0.007160 -0.022597 -0.005180
v -0.007160 -0.022597 -0.005180
v -0.007503 -0.037002 -0.003342
v 0.000680 -0.037497 -0.007346
v 0.013816 -0.037018 0.001394
v 0.016492 -0.036258 0.011252
v 0.015460 -0.020897 0.008542
v 0.015460 -0.020897 0.008542
v 0.012944 -0.021952 -0.000194
v 0.013816 -0.037018 0.001394
v 0.007221 -0.051889 -0.003491
v 0.012981 -0.051939 0.002760
v 0.013816 -0.037018 0.001394
v 0.013816 -0.037018 0.001394
v 0.008307 -0.037455 -0.005205
v 0.007221 -0.051889 -0.003491
v 0.014169 -0.009323 0.005547
v 0.011522 -0.010839 -0.002614
v 0.012944 -0.021952 -0.000194
v 0.012944 -0.021952 -0.000194
v 0.015460 -0.020897 0.008542
v 0.014169 -0.009323 0.005547
v 0.013737 0.000318 0.003031
v 0.010688 -0.001943 -0.005037
v 0.010849 -0.005334 -0.004145
v -0.013714 -0.034666 0.015056
v -0.012880 -0.020013 0.012190
v -0.009005 -0.018994 0.020346
v -0.009005 -0.018994 0.020346
v -0.009732 -0.033973 0.024462
v -0.013714 -0.034666 0.015056
v -0.010889 -0.049153 0.024767
v -0.015093 -0.049753 0.016092
v -0.013714 -0.034666 0.015056
v -0.013714 -0.034666 0.015056
v -0.009732 -0.033973 0.024462
v -0.010889 -0.049153 0.024767
v -0.003576 -0.091265 -0.000121
v -0.007100 -0.124694 0.002963
v -0.003769 -0.124850 0.003921
v -0.003769 -0.124850 0.003921
v 0.001422 -0.091809 0.001206
v -0.003576 -0.091265 -0.000121
v 0.004460 -0.068486 0.027030
v 0.006568 -0.050453 0.028903
v 0.013577 -0.051281 0.023236
v 0.013577 -0.051281 0.023236
v 0.010490 -0.069044 0.022235
v 0.004460 -0.068486 0.027030
v -0.001981 -0.125005 0.019023
v -0.004843 -0.124854 0.022574
v 0.000645 -0.091561 0.024732
v 0.000645 -0.091561 0.024732
v 0.005101 -0.092091 0.020319
v -0.001981 -0.125005 0.019023
v -0.004843 -0.124854 0.022574
v -0.008194 -0.124656 0.023299
v -0.005752 -0.090829 0.025025
v -0.005752 -0.090829 0.025025
v 0.000645 -0.091561 0.024732
v -0.004843 -0.124854 0.022574
v -0.002934 -0.049866 0.028940
v -0.004092 -0.067441 0.027031
v -0.011122 -0.066661 0.023389
v -0.011122 -0.066661 0.023389
v -0.010889 -0.049153 0.024767
v -0.002934 -0.049866 0.028940
v -0.005752 -0.090829 0.025025
v -0.004092 -0.067441 0.027031
v 0.004460 -0.068486 0.027030
v 0.004460 -0.068486 0.027030
v 0.000645 -0.091561 0.024732
v -0.005752 -0.090829 0.025025
v -0.013464 -0.090003 0.010120
v -0.013299 -0.124462 0.011225
v -0.011136 -0.124545 0.005579
v -0.011136 -0.124545 0.005579
v -0.009558 -0.090544 0.002765
v -0.013464 -0.090003 0.010120
v 0.007221 -0.051889 -0.003491
v -0.000381 -0.051691 -0.005482
v -0.001477 -0.068309 -0.003233
v -0.001477 -0.068309 -0.003233
v 0.005155 -0.068984 -0.001444
v 0.007221 -0.051889 -0.003491
v 0.005101 -0.092091 0.020319
v 0.000645 -0.091561 0.024732
v 0.004460 -0.068486 0.027030
v 0.004460 -0.068486 0.027030
v 0.010490 -0.069044 0.022235
v 0.005101 -0.092091 0.020319
v -0.011122 -0.066661 0.023389
v -0.014804 -0.066736 0.016552
v -0.015093 -0.049753 0.016092
v -0.015093 -0.049753 0.016092
v -0.010889 -0.049153 0.024767
v -0.011122 -0.066661 0.023389
v -0.013792 -0.089881 0.016086
v -0.013464 -0.090003 0.010120
v -0.014409 -0.066983 0.009335
v -0.014409 -0.066983 0.009335
v -0.014804 -0.066736 0.016552
v -0.013792 -0.089881 0.016086
v -0.001477 -0.068309 -0.003233
v -0.000381 -0.051691 -0.005482
v -0.008558 -0.050872 -0.001666
v -0.008558 -0.050872 -0.001666
v -0.009086 -0.067592 0.000212
v -0.001477 -0.068309 -0.003233
v -0.014409 -0.066983 0.009335
v -0.014747 -0.049900 0.007989
v -0.015093 -0.049753 0.016092
v -0.015093 -0.049753 0.016092
v -0.014804 -0.066736 0.016552
v -0.014409 -0.066983 0.009335
v -0.003576 -0.091265 -0.000121
v 0.001422 -0.091809 0.001206
v 0.005155 -0.068984 -0.001444
v 0.005155 -0.068984 -0.001444
v -0.001477 -0.068309 -0.003233
v -0.003576 -0.091265 -0.000121
v -0.009558 -0.090544 0.002765
v -0.011136 -0.124545 0.005579
v -0.007100 -0.124694 0.002963
v -0.007100 -0.124694 0.002963
v -0.003576 -0.091265 -0.000121
v -0.009558 -0.090544 0.002765
v -0.009086 -0.067592 0.000212
v -0.008558 -0.050872 -0.001666
v -0.014747 -0.049900 0.007989
v -0.014747 -0.049900 0.007989
v -0.014409 -0.066983 0.009335
v -0.009086 -0.067592 0.000212
v -0.009086 -0.067592 0.000212
v -0.014409 -0.066983 0.009335
v -0.013464 -0.090003 0.010120
v -0.013464 -0.090003 0.010120
v -0.009558 -0.090544 0.002765
v -0.009086 -0.067592 0.000212
v -0.005752 -0.090829 0.025025
v -0.008194 -0.124656 0.023299
v -0.011249 -0.124511 0.021534
v -0.011249 -0.124511 0.021534
v -0.010968 -0.090131 0.021981
v -0.005752 -0.090829 0.025025
v 0.004460 -0.068486 0.027030
v -0.004092 -0.067441 0.027031
v -0.002934 -0.049866 0.028940
v -0.002934 -0.049866 0.028940
v 0.006568 -0.050453 0.028903
v 0.004460 -0.068486 0.027030
v -0.004092 -0.067441 0.027031
v -0.005752 -0.090829 0.025025
v -0.010968 -0.090131 0.021981
v -0.010968 -0.090131 0.021981
v -0.011122 -0.066661 0.023389
v -0.004092 -0.067441 0.027031
v -0.000080 -0.125075 0.013492
v -0.001981 -0.125005 0.019023
v 0.005101 -0.092091 0.020319
v 0.005101 -0.092091 0.020319
v 0.007357 -0.092323 0.012816
v -0.000080 -0.125075 0.013492
v 0.010490 -0.069044 0.022235
v 0.013577 -0.051281 0.023236
v 0.015646 -0.051959 0.012579
v 0.015646 -0.051959 0.012579
v 0.012692 -0.069110 0.012789
v 0.010490 -0.069044 0.022235
v 0.010490 -0.069044 0.022235
v 0.012692 -0.069110 0.012789
v 0.007357 -0.092323 0.012816
v 0.007357 -0.092323 0.012816
v 0.005101 -0.092091 0.020319
v 0.010490 -0.069044 0.022235
v 0.001422 -0.091809 0.001206
v -0.003769 -0.124850 0.003921
v -0.000617 -0.125055 0.007277
v -0.000617 -0.125055 0.007277
v 0.005726 -0.092269 0.005479
v 0.001422 -0.091809 0.001206
v 0.010441 -0.069207 0.003979
v 0.012981 -0.051939 0.002760
v 0.007221 -0.051889 -0.003491
v 0.007221 -0.051889 -0.003491
v 0.005155 -0.068984 -0.001444
v 0.010441 -0.069207 0.003979
v 0.010441 -0.069207 0.003979
v 0.005726 -0.092269 0.005479
v 0.007357 -0.092323 0.012816
v 0.007357 -0.092323 0.012816
v 0.012692 -0.069110 0.012789
v 0.010441 -0.069207 0.003979
v -0.009086 -0.067592 0.000212
v -0.009558 -0.090544 0.002765
v -0.003576 -0.091265 -0.000121
v -0.003576 -0.091265 -0.000121
v -0.001477 -0.068309 -0.003233
v -0.009086 -0.067592 0.000212
v 0.012981 -0.051939 0.002760
v 0.010441 -0.069207 0.003979
v 0.012692 -0.069110 0.012789
v 0.012692 -0.069110 0.012789
v 0.015646 -0.051959 0.012579
v 0.012981 -0.051939 0.002760
v 0.005726 -0.092269 0.005479
v 0.010441 -0.069207 0.003979
v 0.005155 -0.068984 -0.001444
v 0.005155 -0.068984 -0.001444
v 0.001422 -0.091809 0.001206
v 0.005726 -0.092269 0.005479
v -0.010968 -0.090131 0.021981
v -0.011249 -0.124511 0.021534
v -0.013321 -0.124347 0.016160
v -0.013321 -0.124347 0.016160
v -0.013792 -0.089881 0.016086
v -0.010968 -0.090131 0.021981
v -0.010968 -0.090131 0.021981
v -0.013792 -0.089881 0.016086
v -0.014804 -0.066736 0.016552
v -0.014804 -0.066736 0.016552
v -0.011122 -0.066661 0.023389
v -0.010968 -0.090131 0.021981
v -0.013423 -0.009084 0.009344
v -0.013436 -0.010624 0.000750
v -0.014250 -0.004990 -0.000128
v -0.014250 -0.004990 -0.000128
v -0.013981 0.000061 0.008054
v -0.013423 -0.009084 0.009344
v -0.008970 -0.007123 -0.008271
v -0.014250 -0.004990 -0.000128
v -0.013436 -0.010624 0.000750
v -0.013436 -0.010624 0.000750
v -0.008108 -0.012501 -0.006909
v -0.008970 -0.007123 -0.008271
v -0.000634 -0.007950 -0.012578
v -0.008970 -0.007123 -0.008271
v -0.008108 -0.012501 -0.006909
v -0.008108 -0.012501 -0.006909
v 0.000135 -0.013031 -0.010716
v -0.000634 -0.007950 -0.012578
v 0.006801 -0.006981 -0.010198
v -0.000634 -0.007950 -0.012578
v 0.000135 -0.013031 -0.010716
v 0.000135 -0.013031 -0.010716
v 0.007382 -0.012271 -0.008404
v 0.006801 -0.006981 -0.010198
v 0.007382 -0.012271 -0.008404
v 0.011522 -0.010839 -0.002614
v 0.010849 -0.005334 -0.004145
v 0.010849 -0.005334 -0.004145
v 0.006801 -0.006981 -0.010198
v 0.007382 -0.012271 -0.008404
v 0.014169 -0.009323 0.005547
v 0.013737 0.000318 0.003031
v 0.010849 -0.005334 -0.004145
v 0.010849 -0.005334 -0.004145
v 0.011522 -0.010839 -0.002614
v 0.014169 -0.009323 0.005547
v 0.007357 -0.092323 0.012816
v 0.005726 -0.092269 0.005479
v -0.000617 -0.125055 0.007277
v -0.000617 -0.125055 0.007277
v -0.000080 -0.125075 0.013492
v 0.007357 -0.092323 0.012816
v -0.013464 -0.090003 0.010120
v -0.013792 -0.089881 0.016086
v -0.013321 -0.124347 0.016160
v -0.013321 -0.124347 0.016160
v -0.013299 -0.124462 0.011225
v -0.013464 -0.090003 0.010120
v 0.013737 0.000318 0.003031
v 0.014169 -0.009323 0.005547
v 0.012355 -0.008455 0.015696
v 0.012503 0.007086 0.011507
v 0.012355 -0.008455 0.015696
v 0.005361 0.001454 0.018119
v -0.009165 0.007607 0.013958
v -0.002092 0.001485 0.018160
v -0.009078 -0.008114 0.016544
v -0.009078 -0.008114 0.016544
v -0.013981 0.000061 0.008054
v -0.009165 0.007607 0.013958
vn 0.5142 -0.0845 0.8535
vn 0.5826 0.0198 0.8125
vn 0.8626 -0.0168 0.5056
vn 0.8600 -0.1330 0.4926
vn 0.5142 -0.0844 0.8535
vn 0.5826 0.0199 0.8126
vn 0.5141 -0.0845 0.8536
vn -0.1521 -0.0056 0.9883
vn -0.0751 0.0775 0.9942
vn 0.5826 0.0198 0.8126
vn -0.9836 0.0174 0.1797
vn -0.9829 0.0145 -0.1833
vn -0.9859 0.0760 -0.1494
vn -0.9706 0.0745 0.2288
vn -0.7198 0.0983 0.6872
vn -0.0752 0.0775 0.9942
vn -0.1522 -0.0056 0.9883
vn -0.7616 0.0275 0.6475
vn 0.9862 -0.0252 0.1633
vn 0.9820 -0.1494 0.1156
vn 0.8600 -0.1331 0.4926
vn 0.5380 0.0181 -0.8428
vn -0.1884 0.0413 -0.9812
vn -0.1537 -0.0443 -0.9871
vn -0.1538 -0.0443 -0.9871
vn 0.5182 -0.1044 -0.8489
vn 0.5379 0.0181 -0.8428
vn 0.9820 -0.1494 0.1155
vn 0.9863 -0.0252 0.1632
vn 0.9304 -0.0261 -0.3655
vn 0.9304 -0.0262 -0.3655
vn 0.8953 -0.1577 -0.4166
vn -0.7825 0.0731 -0.6183
vn -0.9858 0.0760 -0.1494
vn -0.9829 0.0145 -0.1834
vn -0.7785 -0.0014 -0.6276
vn -0.1885 0.0413 -0.9812
vn -0.7824 0.0731 -0.6184
vn -0.7785 -0.0014 -0.6277
vn -0.7785 -0.0013 -0.6277
vn 0.9304 -0.0261 -0.3656
vn 0.5380 0.0181 -0.8427
vn 0.5182 -0.1044 -0.8488
vn 0.5182 -0.1045 -0.8488
vn 0.8953 -0.1577 -0.4167
vn -0.7199 0.0983 0.6871
vn -0.7617 0.0275 0.6474
vn -0.9835 0.0174 0.1798
vn 0.8104 0.1004 0.5772
vn 0.9662 0.0969 0.2388
vn 0.9662 0.0969 0.2389
vn 0.9863 -0.0252 0.1633
vn 0.8626 -0.0167 0.5055
vn 0.9885 0.0648 -0.1368
vn 0.9662 0.0968 0.2387
vn 0.9885 0.0648 -0.1367
vn 0.5826 0.0199 0.8125
vn 0.6146 0.1158 0.7803
vn 0.8103 0.1004 0.5773
vn 0.9885 0.0647 -0.1368
vn 0.8674 0.1112 -0.4851
vn 0.0514 0.2177 0.9747
vn 0.5825 0.0199 0.8126
vn -0.0750 0.0775 0.9942
vn -0.6633 0.2422 0.7081
vn 0.0513 0.2177 0.9747
vn 0.0513 0.2178 0.9747
vn -0.9319 0.1836 0.3128
vn -0.6633 0.2422 0.7080
vn -0.9319 0.1836 0.3127
vn -0.9702 0.1913 0.1490
vn -0.9788 0.1756 -0.1052
vn -0.9702 0.1913 0.1489
vn -0.8993 0.1235 -0.4194
vn -0.9788 0.1756 -0.1053
vn -0.7825 0.0732 -0.6183
vn -0.8993 0.1235 -0.4195
vn -0.7825 0.0731 -0.6184
vn -0.7081 0.1520 -0.6896
vn -0.7824 0.0732 -0.6184
vn -0.2818 0.1929 -0.9399
vn -0.7080 0.1520 -0.6897
vn 0.8673 0.1112 -0.4852
vn 0.4262 0.1718 -0.8882
vn 0.4261 0.1719 -0.8882
vn -0.2817 0.1929 -0.9399
vn -0.0789 -0.3203 -0.9440
vn -0.0836 -0.2846 -0.9550
vn 0.6009 -0.2427 -0.7616
vn 0.6138 -0.2236 -0.7571
vn -0.0790 -0.3203 -0.9440
vn -0.6891 -0.2649 -0.6744
vn -0.7056 -0.2052 -0.6783
vn -0.0837 -0.2846 -0.9550
vn -0.9827 -0.0453 -0.1794
vn -0.9763 -0.0928 -0.1955
vn -0.9464 0.0190 0.3225
vn 0.8961 -0.1188 -0.4278
vn 0.8940 -0.0559 -0.4446
vn 0.6153 -0.2046 -0.7613
vn 0.6152 -0.2046 -0.7613
vn 0.6139 -0.2236 -0.7570
vn -0.9592 0.0234 -0.2817
vn -0.9755 0.0951 0.1986
vn -0.9724 0.0679 0.2231
vn -0.9724 0.0678 0.2231
vn -0.9612 -0.0573 -0.2698
vn -0.9592 0.0234 -0.2818
vn 0.9977 -0.0048 -0.0680
vn 0.9932 0.0834 -0.0806
vn 0.8738 0.2066 0.4403
vn 0.8738 0.2066 0.4402
vn 0.8774 0.0531 0.4767
vn -0.6671 -0.0603 -0.7425
vn -0.0861 -0.1160 -0.9895
vn -0.0987 -0.1230 -0.9875
vn -0.6637 -0.0512 -0.7462
vn -0.7242 0.1347 0.6763
vn -0.2271 0.1325 0.9648
vn -0.2475 0.2762 0.9287
vn -0.7355 0.2116 0.6436
vn -0.7242 0.1346 0.6763
vn -0.2270 0.1325 0.9648
vn -0.2390 -0.0275 0.9706
vn 0.3292 -0.0714 0.9416
vn 0.3572 0.1131 0.9272
vn -0.0722 -0.3339 -0.9398
vn 0.6139 -0.2236 -0.7571
vn 0.6152 -0.2046 -0.7614
vn -0.0860 -0.1159 -0.9895
vn 0.5539 -0.1063 -0.8258
vn 0.5145 -0.1447 -0.8452
vn -0.0986 -0.1230 -0.9875
vn -0.0860 -0.1160 -0.9895
vn -0.9567 0.0081 -0.2908
vn -0.9781 0.0402 0.2044
vn 0.8444 -0.1162 0.5229
vn 0.8774 0.0531 0.4768
vn 0.3573 0.1130 0.9271
vn 0.3293 -0.0714 0.9415
vn 0.9917 -0.1243 -0.0318
vn 0.8775 0.0531 0.4767
vn 0.8445 -0.1163 0.5229
vn 0.9917 -0.1243 -0.0317
vn 0.8879 -0.1849 -0.4212
vn 0.6010 -0.2427 -0.7615
vn 0.8879 -0.1849 -0.4213
vn -0.6672 -0.0603 -0.7424
vn -0.6638 -0.0512 -0.7462
vn -0.6638 -0.0512 -0.7461
vn -0.9567 0.0081 -0.2909
vn -0.9592 0.0234 -0.2819
vn 0.5539 -0.1064 -0.8257
vn 0.5727 -0.0794 -0.8159
vn 0.8967 0.0012 -0.4426
vn 0.8864 -0.0514 -0.4601
vn 0.5539 -0.1063 -0.8257
vn -0.9626 -0.0101 0.2707
vn -0.9492 -0.1631 -0.2693
vn -0.9612 -0.0573 -0.2697
vn 0.8575 0.2164 0.4667
vn 0.3382 0.3280 0.8820
vn 0.3382 0.3280 0.8821
vn 0.3560 0.2731 0.8937
vn 0.8737 0.2066 0.4404
vn -0.0795 -0.1378 -0.9873
vn 0.5726 -0.0794 -0.8160
vn 0.5539 -0.1064 -0.8258
vn -0.0450 -0.2650 -0.9632
vn -0.0796 -0.1378 -0.9873
vn -0.6634 -0.1305 -0.7368
vn -0.6560 -0.2467 -0.7133
vn -0.9612 -0.0573 -0.2699
vn -0.6635 -0.1305 -0.7367
vn -0.7206 0.0201 0.6930
vn -0.2391 -0.0275 0.9706
vn -0.2718 0.3013 0.9140
vn 0.3381 0.3280 0.8821
vn 0.3234 0.2119 0.9222
vn -0.2324 0.1875 0.9544
vn -0.2718 0.3013 0.9139
vn 0.3559 0.2731 0.8938
vn -0.2474 0.2762 0.9287
vn 0.3559 0.2731 0.8937
vn -0.2718 0.3014 0.9140
vn 0.8936 -0.0009 -0.4489
vn 0.6106 -0.1319 -0.7809
vn 0.8936 -0.0009 -0.4490
vn -0.0449 -0.2650 -0.9632
vn -0.9463 0.0190 0.3226
vn -0.9626 -0.0101 0.2708
vn -0.7107 0.1632 0.6843
vn -0.6706 -0.2942 -0.6810
vn -0.6892 -0.2649 -0.6744
vn -0.0723 -0.3339 -0.9398
vn 0.3235 0.2118 0.9222
vn -0.2326 0.1875 0.9543
vn -0.7107 0.1633 0.6843
vn -0.2719 0.3013 0.9139
vn -0.2719 0.3014 0.9139
vn 0.9932 0.0835 -0.0806
vn 0.9947 0.0675 -0.0777
vn 0.8576 0.2163 0.4667
vn 0.9932 0.0835 -0.0807
vn 0.9942 -0.0629 -0.0877
vn 0.8625 0.0084 0.5059
vn 0.8737 0.2066 0.4403
vn 0.3573 0.1131 0.9271
vn -0.9724 0.0679 0.2232
vn -0.7356 0.2116 0.6435
vn -0.9724 0.0678 0.2232
vn -0.9464 0.0190 0.3226
vn -0.9647 -0.1455 -0.2197
vn -0.9491 -0.1631 -0.2694
vn -0.6561 -0.2467 -0.7132
vn -0.9646 -0.1455 -0.2198
vn -0.9763 -0.0928 -0.1956
vn -0.6707 -0.2942 -0.6809
vn 0.8712 -0.1269 -0.4743
vn 0.9942 -0.0629 -0.0878
vn 0.8961 -0.1188 -0.4277
vn -0.7057 -0.2051 -0.6782
vn -0.7056 -0.2051 -0.6782
vn -0.0861 -0.1159 -0.9895
vn -0.0861 -0.1158 -0.9895
vn 0.9932 0.0834 -0.0807
vn 0.9977 -0.0048 -0.0681
vn 0.8864 -0.0513 -0.4601
vn 0.8968 0.0012 -0.4425
vn 0.8711 -0.1269 -0.4744
vn 0.5146 -0.1447 -0.8452
vn 0.5145 -0.1448 -0.8452
vn 0.8864 -0.0514 -0.4602
vn 0.9947 0.0675 -0.0778
vn 0.8940 -0.0559 -0.4445
vn 0.8961 -0.1187 -0.4277
vn -0.7356 0.2116 0.6436
vn -0.9754 0.0951 0.1987
vn -0.7243 0.1347 0.6762
vn -0.9780 0.0402 0.2045
vn -0.7207 0.0200 0.6930
vn 0.5181 -0.1044 -0.8489
vn -0.1028 -0.1054 -0.9891
vn 0.4792 -0.1638 -0.8623
vn 0.8444 -0.1163 0.5229
vn 0.3244 -0.1448 0.9348
vn 0.8245 -0.1965 0.5306
vn 0.3874 -0.1431 0.9108
vn 0.8296 -0.2095 0.5175
vn 0.3874 -0.1432 0.9107
vn -0.2455 -0.0562 0.9678
vn -0.1521 -0.0056 0.9884
vn 0.3873 -0.1431 0.9108
vn -0.2454 -0.0563 0.9678
vn -0.7075 -0.0424 0.7055
vn -0.2469 -0.0800 0.9657
vn -0.7206 0.0200 0.6931
vn 0.3243 -0.1448 0.9348
vn -0.2468 -0.0800 0.9658
vn 0.3873 -0.1432 0.9108
vn -0.9636 -0.0245 -0.2662
vn -0.6979 -0.0424 -0.7150
vn -0.7786 -0.0013 -0.6276
vn -0.0904 -0.1252 -0.9880
vn 0.4915 -0.1693 -0.8543
vn 0.3874 -0.1431 0.9107
vn -0.9780 0.0401 0.2045
vn -0.9752 -0.0256 0.2198
vn -0.7075 -0.0425 0.7054
vn -0.7075 -0.0424 0.7054
vn -0.9781 0.0401 0.2045
vn -0.9588 -0.0438 -0.2806
vn -0.9807 -0.0303 0.1931
vn -0.9752 -0.0256 0.2197
vn -0.9588 -0.0438 -0.2807
vn -0.0988 -0.1230 -0.9875
vn -0.0906 -0.1252 -0.9880
vn -0.0905 -0.1252 -0.9880
vn -0.6723 -0.0707 -0.7369
vn -0.9781 0.0401 0.2044
vn -0.9752 -0.0257 0.2197
vn 0.4792 -0.1639 -0.8623
vn -0.1028 -0.1053 -0.9891
vn -0.6978 -0.0424 -0.7150
vn -0.6978 -0.0423 -0.7150
vn -0.1029 -0.1054 -0.9891
vn -0.1538 -0.0442 -0.9871
vn -0.6724 -0.0707 -0.7368
vn -0.7616 0.0275 0.6474
vn -0.2455 -0.0563 0.9678
vn -0.7358 -0.0277 0.6767
vn 0.8297 -0.2095 0.5175
vn 0.8600 -0.1331 0.4925
vn 0.9749 -0.2201 0.0344
vn 0.8297 -0.2096 0.5174
vn 0.8246 -0.1965 0.5306
vn 0.9809 -0.1945 -0.0093
vn 0.8246 -0.1965 0.5305
vn 0.8245 -0.1966 0.5306
vn 0.8297 -0.2096 0.5175
vn 0.4793 -0.1639 -0.8622
vn 0.8547 -0.2006 -0.4789
vn 0.5146 -0.1447 -0.8451
vn 0.8587 -0.1875 -0.4769
vn 0.4916 -0.1693 -0.8542
vn 0.9749 -0.2201 0.0343
vn 0.8547 -0.2006 -0.4788
vn 0.8587 -0.1875 -0.4768
vn -0.1029 -0.1053 -0.9891
vn -0.6723 -0.0708 -0.7369
vn 0.9809 -0.1945 -0.0094
vn 0.8547 -0.2005 -0.4789
vn 0.4792 -0.1639 -0.8622
vn -0.7358 -0.0277 0.6766
vn -0.9807 -0.0303 0.1932
vn -0.9752 -0.0257 0.2198
vn -0.9491 -0.1631 -0.2693
vn 0.6106 -0.1320 -0.7809
vn 0.9947 0.0674 -0.0778
vn 0.8936 -0.0008 -0.4489
vn 0.8953 -0.1578 -0.4166
vn -0.9636 -0.0245 -0.2661
vn 0.8575 0.2163 0.4667
vn 0.8625 0.0084 0.5060
vn -0.7106 0.1633 0.6843
vn -0.2325 0.1875 0.9543
vn -0.6478 0.0919 0.7562
vn -0.6479 0.0919 0.7562
vt 0.371097 0.150901
vt 0.369608 0.138437
vt 0.363051 0.139410
vt 0.363841 0.151730
vt 0.376533 0.150085
vt 0.374463 0.137505
vt 0.306619 0.147048
vt 0.314371 0.148613
vt 0.316592 0.135792
vt 0.306744 0.133918
vt 0.379343 0.136545
vt 0.382116 0.149119
vt 0.355447 0.140178
vt 0.354432 0.152442
vt 0.337619 0.139885
vt 0.332663 0.139099
vt 0.331460 0.151620
vt 0.336929 0.152200
vt 0.345167 0.140423
vt 0.344309 0.152588
vt 0.325515 0.137635
vt 0.323918 0.150408
vt 0.387059 0.135117
vt 0.391150 0.147371
vt 0.227479 0.111554
vt 0.217000 0.108470
vt 0.217362 0.115753
vt 0.226763 0.118006
vt 0.214306 0.122814
vt 0.226260 0.126699
vt 0.228273 0.105951
vt 0.218614 0.104027
vt 0.215748 0.129617
vt 0.219948 0.099656
vt 0.229050 0.101805
vt 0.238979 0.162626
vt 0.231269 0.168476
vt 0.234165 0.171833
vt 0.241545 0.166010
vt 0.227928 0.164693
vt 0.235615 0.156872
vt 0.225376 0.159794
vt 0.223901 0.152996
vt 0.231761 0.149416
vt 0.220377 0.148979
vt 0.228716 0.142497
vt 0.219070 0.144765
vt 0.227115 0.136861
vt 0.218148 0.139459
vt 0.217194 0.134898
vt 0.226498 0.132889
vt 0.314370 0.359132
vt 0.313737 0.366102
vt 0.326836 0.367716
vt 0.327473 0.361081
vt 0.298508 0.357367
vt 0.297893 0.364004
vt 0.280762 0.362047
vt 0.282076 0.355567
vt 0.268135 0.353682
vt 0.340714 0.362548
vt 0.341005 0.356908
vt 0.328161 0.355180
vt 0.284538 0.300292
vt 0.270646 0.298424
vt 0.270992 0.322324
vt 0.284638 0.323889
vt 0.356695 0.304935
vt 0.356912 0.329419
vt 0.373169 0.328021
vt 0.372713 0.303989
vt 0.302661 0.302497
vt 0.316708 0.304381
vt 0.317190 0.280800
vt 0.303524 0.279353
vt 0.414092 0.300963
vt 0.400690 0.301716
vt 0.401038 0.325298
vt 0.414686 0.325871
vt 0.399853 0.277293
vt 0.385735 0.278869
vt 0.386789 0.302737
vt 0.314916 0.353278
vt 0.328804 0.305172
vt 0.328843 0.281627
vt 0.285921 0.276541
vt 0.273407 0.273551
vt 0.372435 0.279706
vt 0.356456 0.280454
vt 0.340636 0.367902
vt 0.328799 0.329269
vt 0.342418 0.329511
vt 0.341660 0.305319
vt 0.270858 0.339645
vt 0.284800 0.341614
vt 0.374189 0.346656
vt 0.388284 0.345026
vt 0.387349 0.326140
vt 0.316514 0.328353
vt 0.316051 0.344670
vt 0.302110 0.326352
vt 0.300579 0.342703
vt 0.413410 0.276369
vt 0.401333 0.344362
vt 0.388993 0.361135
vt 0.402155 0.359928
vt 0.341713 0.347704
vt 0.329232 0.346268
vt 0.428568 0.357358
vt 0.429008 0.343423
vt 0.415434 0.344020
vt 0.299313 0.351428
vt 0.356655 0.348400
vt 0.356453 0.364709
vt 0.373792 0.373338
vt 0.428857 0.325611
vt 0.283170 0.350388
vt 0.341485 0.281500
vt 0.430057 0.300011
vt 0.428134 0.273274
vt 0.324437 0.215880
vt 0.332848 0.216323
vt 0.382721 0.251086
vt 0.370720 0.252392
vt 0.378024 0.214629
vt 0.367760 0.215441
vt 0.388446 0.213217
vt 0.408718 0.248225
vt 0.396171 0.249869
vt 0.300595 0.212285
vt 0.313736 0.214725
vt 0.319717 0.253441
vt 0.330314 0.253711
vt 0.420590 0.245097
vt 0.290688 0.248719
vt 0.291338 0.209970
vt 0.279544 0.245993
vt 0.306912 0.251841
vt 0.398197 0.211750
vt 0.354949 0.216128
vt 0.355802 0.253671
vt 0.342716 0.216366
vt 0.341882 0.253900
vt 0.408395 0.209266
vt 0.416198 0.369054
s 1
g 右ひざD
g 肌.008_Материал.020
usemtl Материал.020
f 3/1/1 2/2/2 1/3/3
s 2
f 6/3/3 5/4/4 4/1/5
s 3
f 9/2/6 8/1/7 7/5/8
s 4
f 12/5/8 11/6/9 10/2/10
s 5
f 15/7/11 14/8/12 13/9/13
s 6
f 18/9/13 17/10/14 16/7/11
s 7
f 21/11/15 20/6/16 19/5/17
s 8
f 24/5/17 23/12/18 22/11/15
s 9
f 27/13/19 26/14/20 25/4/21
s 10
f 30/4/21 29/3/3 28/13/19
s 11
f 33/15/22 32/16/23 31/17/24
s 12
f 36/17/25 35/18/26 34/15/27
s 13
f 39/14/28 38/13/29 37/19/30
s 14
f 42/19/31 41/20/32 40/14/28
s 15
f 45/21/33 44/9/34 43/8/35
s 16
f 48/8/35 47/22/36 46/21/33
s 17
f 51/16/37 50/21/38 49/22/39
s 18
f 54/22/40 53/17/25 52/16/23
s 19
f 57/19/41 56/15/42 55/18/43
s 20
f 60/18/44 59/20/45 58/19/41
s 21
f 63/23/14 62/11/46 61/12/47
s 22
f 66/12/47 65/24/48 64/23/14
s 23
f 69/25/3 68/26/49 67/27/50
s 24
f 72/27/51 71/28/52 70/25/53
s 25
f 75/29/54 74/30/30 73/28/52
s 26
f 78/28/29 77/27/55 76/29/56
s 27
f 81/31/57 80/32/58 79/26/59
s 28
f 84/26/59 83/25/3 82/31/57
s 29
f 87/29/60 86/33/61 85/30/41
s 30
f 90/34/62 89/32/58 88/31/57
s 31
f 93/31/63 92/35/64 91/34/62
s 32
f 96/36/46 95/37/65 94/38/66
s 33
f 99/38/67 98/39/16 97/36/15
s 34
f 102/40/68 101/37/69 100/36/46
s 35
f 105/36/46 104/41/14 103/40/70
s 36
f 108/41/14 107/42/71 106/40/70
s 37
f 111/43/72 110/42/73 109/41/14
s 38
f 114/41/14 113/44/13 112/43/72
s 39
f 117/45/74 116/43/75 115/44/13
s 40
f 120/44/13 119/46/76 118/45/77
s 41
f 123/45/77 122/46/78 121/47/79
s 42
f 126/46/80 125/48/23 124/49/81
s 43
f 129/49/81 128/47/82 127/46/80
s 44
f 132/33/83 131/50/84 130/51/42
s 45
f 135/51/42 134/30/41 133/33/83
s 46
f 138/50/85 137/49/86 136/48/23
s 47
f 141/48/23 140/51/27 139/50/85
s 48
g 右足D
f 144/52/87 143/53/88 142/54/89
s 49
g 右ひざD
f 147/54/89 146/55/90 145/52/87
s 50
f 150/52/91 149/56/92 148/57/93
s 51
g 右足D
f 153/57/93 152/53/94 151/52/91
s 52
g 右ひざD
f 156/58/95 155/59/96 154/60/97
s 53
f 159/61/98 158/62/99 157/63/100
s 54
f 162/63/101 161/55/102 160/61/98
s 55
f 165/64/103 164/65/104 163/66/105
s 56
f 168/66/106 167/67/107 166/64/108
s 57
f 171/68/109 170/69/110 169/70/111
s 58
f 174/70/112 173/71/113 172/68/109
s 59
f 177/72/114 176/73/115 175/74/116
s 60
f 180/74/116 179/75/117 178/72/114
s 61
f 183/76/118 182/77/119 181/78/120
s 62
f 186/78/120 185/79/121 184/76/122
s 63
f 189/77/123 188/80/124 187/81/125
s 64
f 192/81/125 191/82/126 190/77/123
s 65
f 195/83/127 194/52/87 193/55/128
s 66
f 198/55/90 197/63/129 196/83/127
s 67
f 201/73/130 200/84/131 199/85/132
s 68
f 204/85/132 203/74/133 202/73/134
s 69
f 207/65/104 206/64/108 205/86/135
s 70
f 210/86/135 209/87/136 208/65/104
s 71
f 213/88/137 212/71/138 211/82/139
s 72
f 216/82/139 215/81/140 214/88/137
s 73
f 219/89/141 218/68/109 217/71/142
s 74
f 222/71/142 221/88/143 220/89/144
s 75
f 225/90/145 224/61/98 223/55/102
s 76
g 右足D
f 228/55/102 227/54/146 226/90/147
s 77
g 右ひざD
f 231/64/108 230/72/148 229/75/149
s 78
f 234/75/150 233/86/151 232/64/152
s 79
f 237/84/153 236/91/154 235/92/155
s 80
f 240/92/155 239/93/156 238/84/157
s 81
f 243/67/107 242/66/106 241/94/158
s 82
f 246/94/158 245/95/159 244/67/160
s 83
f 249/70/111 248/96/161 247/97/162
s 84
f 252/97/163 251/98/164 250/70/165
s 85
f 255/73/130 254/99/166 253/91/167
s 86
f 258/91/167 257/84/168 256/73/134
s 87
f 261/100/169 260/99/170 259/101/171
s 88
f 264/101/171 263/102/172 262/100/169
s 89
f 267/72/148 266/64/152 265/67/173
s 90
f 270/67/173 269/101/174 268/72/148
s 91
f 273/76/122 272/103/175 271/80/176
s 92
f 276/80/176 275/77/119 274/76/122
s 93
f 279/104/177 278/97/178 277/105/179
s 94
f 282/105/179 281/106/180 280/104/181
s 95
f 285/98/182 284/78/183 283/77/123
s 96
f 288/77/123 287/82/126 286/98/184
s 97
f 291/78/183 290/98/182 289/97/178
s 98
f 294/97/178 293/104/185 292/78/183
s 99
f 297/107/186 296/92/155 295/91/154
s 100
f 300/91/167 299/108/187 298/107/188
s 101
f 303/99/166 302/100/189 301/108/187
s 102
f 306/108/187 305/91/167 304/99/166
s 103
f 309/109/190 308/110/191 307/111/192
s 104
f 312/112/193 311/56/194 310/52/91
s 105
f 315/52/91 314/83/195 313/112/193
s 106
f 318/96/161 317/105/196 316/97/163
s 107
f 321/106/197 320/111/198 319/104/199
s 108
f 324/79/121 323/78/120 322/104/200
s 109
f 327/104/199 326/111/198 325/79/121
s 110
f 330/69/201 329/113/202 328/96/203
s 111
f 333/96/203 332/70/111 331/69/204
s 112
f 336/96/203 335/114/205 334/115/206
s 113
f 339/71/138 338/70/207 337/98/184
s 114
f 342/98/184 341/82/208 340/71/138
s 115
f 345/116/209 344/79/210 343/111/198
s 116
f 348/111/192 347/110/191 346/116/211
s 117
f 351/60/212 350/59/96 349/117/213
s 118
f 354/67/107 353/95/214 352/102/215
s 119
f 357/102/215 356/101/174 355/67/173
s 120
f 360/117/216 359/59/217 358/56/194
s 121
f 363/56/194 362/112/218 361/117/216
s 122
f 366/68/109 365/89/141 364/118/219
s 123
f 369/118/219 368/93/156 367/68/109
s 124
f 372/114/220 371/61/221 370/90/145
s 125
g 右足D
f 375/59/217 374/58/95 373/57/222
s 126
g 右ひざD
f 378/57/223 377/56/194 376/59/217
s 127
f 381/101/171 380/99/170 379/73/224
s 128
f 384/73/225 383/72/114 382/101/171
s 129
f 387/69/226 386/68/227 385/93/228
s 130
f 390/93/228 389/92/229 388/69/226
s 131
f 393/93/156 392/118/230 391/85/231
s 132
f 396/85/232 395/84/153 394/93/233
s 133
f 399/92/229 398/107/186 397/113/234
s 134
f 402/113/234 401/69/226 400/92/229
s 135
f 405/62/235 404/61/236 403/114/220
s 136
f 408/79/237 407/116/211 406/119/238
s 137
f 411/119/238 410/76/239 409/79/210
s 138
f 414/119/238 413/120/240 412/103/241
s 139
f 417/103/241 416/76/239 415/119/238
s 140
f 420/18/242 419/17/25 418/121/243
s 141
f 423/121/243 422/122/244 421/18/242
s 142
f 426/88/245 425/81/140 424/123/246
s 143
f 429/123/246 428/124/247 427/88/137
s 144
f 432/125/248 431/1/1 430/4/21
s 145
f 435/4/21 434/126/249 433/125/250
s 146
f 438/127/251 437/5/252 436/1/7
s 147
f 441/1/7 440/125/253 439/127/254
s 148
f 444/128/255 443/129/256 442/80/176
s 149
f 447/80/176 446/103/257 445/128/255
s 150
f 450/123/258 449/129/259 448/127/254
s 151
f 453/127/251 452/125/260 451/123/258
s 152
f 456/22/36 455/8/35 454/130/261
s 153
f 459/130/261 458/131/262 457/22/263
s 154
f 462/132/264 461/74/116 460/85/132
s 155
f 465/85/132 464/133/265 463/132/264
s 156
f 468/123/246 467/125/266 466/126/249
s 157
f 471/126/249 470/124/247 469/123/246
s 158
f 474/120/267 473/134/268 472/128/269
s 159
f 477/128/270 476/103/241 475/120/271
s 160
f 480/135/272 479/130/261 478/136/273
s 161
f 483/136/273 482/137/274 481/135/275
s 162
f 486/75/117 485/74/276 484/132/277
s 163
f 489/132/278 488/138/279 487/75/117
s 164
f 492/87/280 491/86/135 490/135/272
s 165
f 495/135/272 494/137/281 493/87/280
s 166
f 498/133/265 497/122/282 496/121/243
s 167
f 501/121/283 500/132/264 499/133/265
s 168
f 504/17/25 503/22/40 502/131/284
s 169
f 507/131/285 506/121/286 505/17/287
s 170
f 510/86/151 509/75/150 508/138/288
s 171
f 513/138/288 512/135/275 511/86/151
s 172
f 516/130/261 515/135/275 514/138/288
s 173
f 519/138/288 518/131/262 517/130/261
s 174
f 522/12/289 521/5/17 520/127/290
s 175
f 525/127/251 524/139/291 523/12/289
s 176
f 528/80/124 527/129/259 526/123/258
s 177
f 531/123/258 530/81/125 529/80/124
s 178
f 534/139/291 533/127/251 532/129/256
s 179
f 537/129/256 536/128/255 535/139/291
s 180
f 540/126/292 539/4/293 538/14/20
s 181
f 543/14/20 542/140/294 541/126/295
s 182
f 546/89/144 545/88/137 544/124/247
s 183
f 549/124/296 548/141/297 547/89/144
s 184
f 552/140/294 551/141/297 550/124/298
s 185
f 555/124/299 554/126/300 553/140/294
s 186
f 558/20/45 557/18/44 556/122/301
s 187
f 561/122/301 560/142/302 559/20/45
s 188
f 564/85/303 563/118/230 562/143/304
s 189
f 567/143/304 566/133/305 565/85/132
s 190
f 570/140/306 569/142/307 568/143/308
s 191
f 573/143/304 572/141/297 571/140/306
s 192
f 576/121/309 575/131/284 574/138/310
s 193
f 579/138/310 578/132/278 577/121/309
s 194
f 582/141/311 581/143/304 580/118/219
s 195
f 585/118/219 584/89/141 583/141/297
s 196
f 588/133/305 587/143/304 586/142/312
s 197
f 591/142/302 590/122/313 589/133/305
s 198
f 594/24/48 593/12/47 592/139/314
s 199
f 597/139/314 596/144/315 595/24/48
s 200
f 600/134/316 599/144/315 598/139/314
s 201
f 603/139/314 602/128/270 601/134/316
s 202
f 606/117/213 605/95/317 604/94/158
s 203
f 609/94/158 608/60/97 607/117/213
s 204
f 612/95/214 611/117/216 610/112/218
s 205
f 615/112/218 614/102/215 613/95/214
s 206
f 618/102/172 617/112/193 616/83/195
s 207
f 621/83/195 620/100/169 619/102/172
s 208
f 624/100/189 623/83/127 622/63/129
s 209
f 627/63/129 626/108/318 625/100/189
s 210
f 630/62/99 629/107/188 628/108/187
s 211
f 633/108/187 632/63/100 631/62/99
s 212
f 636/62/235 635/114/220 634/113/319
s 213
f 639/113/319 638/107/320 637/62/235
s 214
f 642/20/321 641/142/307 640/140/306
s 215
f 645/140/306 644/14/28 643/20/32
s 216
f 648/7/11 647/136/273 646/130/322
s 217
f 651/130/261 650/8/12 649/7/11
s 218
f 654/96/203 653/113/202 652/114/205
s 219
f 657/105/196 656/96/323 655/115/324
s 220
f 660/111/325 659/106/326 658/145/327
s 221
f 663/145/328 662/109/190 661/111/192
