# Blender 5.0.1
# www.blender.org
mtllib tp_base.mtl
g NarukamiShrine_mesh.089_Malla
v -0.029998 1.577847 0.449924
v -0.143074 1.577847 0.427380
v -0.248437 1.577847 0.383720
v -0.338968 1.577847 0.314423
v -0.408262 1.577847 0.223896
v -0.451925 1.577847 0.118530
v -0.466876 1.577847 0.005451
v -0.451925 1.577847 -0.107620
v -0.453824 1.579746 -0.108097
v -0.029998 1.577847 -0.433323
v -0.143074 1.577847 -0.416470
v -0.248437 1.577847 -0.372810
v -0.338968 1.577847 -0.303516
v -0.408262 1.577847 -0.212986
v 0.391930 1.577847 0.118530
v 0.406879 1.577847 0.005451
v 0.348266 1.577847 0.223896
v 0.278973 1.577847 0.314423
v 0.188440 1.577847 0.383720
v 0.083077 1.577847 0.427380
v -0.029998 1.577847 0.449924
v 0.391930 1.577847 -0.107620
v 0.348266 1.577847 -0.212986
v 0.278973 1.577847 -0.303516
v 0.188440 1.577847 -0.372810
v 0.083077 1.577847 -0.416470
v -0.029998 1.577847 -0.433323
v -0.029991 1.579746 0.451824
v -0.143608 1.579746 0.429279
v -0.249386 1.579746 0.385380
v -0.340392 1.579746 0.315849
v -0.409923 1.579746 0.224842
v -0.453824 1.579746 0.119007
v -0.468774 1.579746 0.005428
v -0.029998 1.579746 -0.435455
v -0.143608 1.579746 -0.418369
v -0.249386 1.579746 -0.374470
v -0.340392 1.579746 -0.304939
v -0.409923 1.579746 -0.213932
v 0.393827 1.579746 0.119007
v 0.408778 1.579746 0.005451
v 0.349926 1.579746 0.224842
v 0.280396 1.579746 0.315849
v 0.189389 1.579746 0.385380
v 0.083611 1.579746 0.429279
v -0.029991 1.579746 0.451824
v 0.393827 1.579746 -0.108097
v 0.349926 1.579746 -0.213932
v 0.280396 1.579746 -0.304939
v 0.189389 1.579746 -0.374470
v 0.083611 1.579746 -0.418369
v -0.029998 1.579746 -0.435455
v -0.575002 0.329134 -0.142708
v -0.494248 0.329134 0.005444
v -0.594507 0.329134 0.005444
v -0.478158 0.329134 0.127644
v -0.355958 0.329134 -0.328415
v -0.258172 0.329134 -0.403450
v -0.478158 0.329134 -0.116756
v -0.430992 0.329134 -0.230633
v -0.460328 0.362688 0.005444
v -0.445395 0.362688 0.118866
v -0.241212 0.362688 -0.374073
v -0.144298 0.329134 -0.450619
v -0.445395 0.362688 -0.107975
v -0.401616 0.362688 -0.213673
v -0.358209 0.362688 0.199497
v -0.331974 0.362688 -0.304432
v -0.135520 0.362688 -0.417854
v -0.122547 0.362688 -0.369442
v -0.958402 0.124653 -0.173428
v -0.849259 0.124653 0.005444
v -0.821074 0.124653 0.219528
v -0.738440 0.124653 0.419022
v -1.021706 0.124653 -0.239056
v -1.064713 0.124653 -0.304653
v -1.074414 0.124653 -0.372005
v -1.063057 0.124653 -0.434307
v -1.081006 0.124653 -0.605915
v -0.733644 0.124653 -0.737995
v -0.499700 0.124653 -0.821785
v -0.269325 0.124653 -0.917213
v -1.123030 0.124653 -0.537086
v -1.136605 0.124653 -0.589077
v -0.977303 0.124653 0.005444
v -1.012212 0.026807 0.016731
v -0.944755 0.124653 0.252670
v -0.981131 0.026807 0.272968
v -0.849329 0.124653 0.483044
v -0.884934 0.026807 0.503601
v -0.992303 0.026807 -0.160549
v -1.062694 0.026807 -0.230412
v -1.107747 0.026807 -0.303177
v -1.119887 0.026807 -0.377975
v -1.101933 0.124653 -0.489857
v -1.108534 0.026807 -0.439697
v -1.146025 0.026807 -0.494991
v -1.165360 0.026807 -0.541798
v -1.176664 0.026807 -0.601212
v -0.650953 0.026807 -0.751785
v -0.507379 0.026807 -0.857666
v -0.269929 0.026807 -0.958862
v -0.022098 0.026807 -0.990871
v -0.746656 0.026807 -0.777809
v -0.645162 0.124653 -0.715977
v -0.832197 0.026807 -0.780445
v -0.811956 0.124653 -0.742439
v -0.903044 0.026807 -0.753555
v -0.875134 0.124653 -0.717163
v -0.923417 0.124653 -0.676174
v -0.990957 0.124653 -0.682072
v -1.017451 0.026807 -0.717686
v -0.950820 0.026807 -0.712868
v -1.042409 0.124653 -0.676723
v -1.067652 0.026807 -0.711025
v -1.094225 0.124653 -0.662483
v -1.124761 0.026807 -0.691109
v -1.131759 0.124653 -0.635220
v -1.174769 0.026807 -0.660049
v -0.575004 0.329134 0.153591
v -0.821074 0.124653 -0.208641
v -0.517819 0.329134 -0.280762
v -0.738440 0.124653 -0.408138
v -0.426853 0.329134 -0.399307
v -0.606988 0.124653 -0.579445
v -0.308302 0.329134 -0.490276
v -0.435678 0.124653 -0.710896
v -0.170249 0.329134 -0.547462
v -0.236183 0.124653 -0.793533
v -0.358209 0.362688 -0.188610
v -0.265181 0.222663 -0.134899
v -0.396981 0.362688 -0.095001
v -0.296532 0.362688 -0.268986
v -0.216151 0.362688 -0.330666
v -0.410206 0.362688 0.005444
v -0.296409 0.222663 0.053875
v -0.396981 0.362688 0.105892
v -0.265181 0.222663 0.145790
v -0.022098 0.222663 0.005444
v -0.117311 0.222663 -0.256329
v -0.022098 0.222663 -0.275246
v -0.201196 0.222663 -0.207901
v -0.296409 0.222663 -0.042984
v 0.311764 0.329134 -0.328415
v 0.386796 0.329134 -0.230633
v 0.213977 0.329134 -0.403450
v 0.264107 0.329134 -0.490276
v 0.100105 0.329134 -0.450619
v 0.433964 0.329134 -0.116756
v 0.530807 0.329134 -0.142708
v 0.450053 0.329134 0.005444
v 0.550312 0.329134 0.005444
v 0.287778 0.362688 -0.304432
v 0.197018 0.362688 -0.374073
v -0.022098 0.329134 -0.466705
v -0.022098 0.362688 -0.432785
v 0.416134 0.362688 0.005444
v 0.433964 0.329134 0.127644
v 0.386796 0.329134 0.241516
v 0.357421 0.362688 0.224560
v 0.252337 0.362688 -0.268990
v 0.357421 0.362688 -0.213673
v 0.314014 0.362688 -0.188610
v 0.091325 0.362688 -0.417854
v 0.078352 0.362688 -0.369442
v -0.022098 0.362688 -0.382664
v 0.352787 0.362688 -0.095001
v 0.401200 0.362688 -0.107975
v 0.401200 0.362688 0.118866
v 0.352787 0.362688 0.105892
v 0.455506 0.124653 -0.821785
v -0.022098 0.124653 -0.949760
v 0.694245 0.124653 -0.408138
v 1.036811 0.124653 -0.605915
v 1.057737 0.124653 -0.489857
v 1.030220 0.124653 -0.372005
v 0.776878 0.124653 -0.208641
v 0.933108 0.124653 0.005444
v 0.606759 0.026807 -0.751785
v 0.463184 0.026807 -0.857666
v 0.225735 0.026807 -0.958862
v 0.225129 0.124653 -0.917213
v 0.689448 0.124653 -0.737995
v 0.600967 0.124653 -0.715984
v 0.702462 0.026807 -0.777809
v 0.788002 0.026807 -0.780445
v 0.767762 0.124653 -0.742439
v 0.858849 0.026807 -0.753555
v 0.830940 0.124653 -0.717163
v 0.879223 0.124653 -0.676174
v 0.946762 0.124653 -0.682072
v 0.906625 0.026807 -0.712868
v 0.973257 0.026807 -0.717686
v 0.998214 0.124653 -0.676723
v 1.023457 0.026807 -0.711025
v 1.050031 0.124653 -0.662483
v 1.080564 0.026807 -0.691116
v 1.087565 0.124653 -0.635220
v 1.130573 0.026807 -0.660049
v 0.968018 0.026807 0.016731
v 0.914207 0.124653 -0.173428
v 0.900560 0.124653 0.252670
v 0.936935 0.026807 0.272968
v 0.840737 0.026807 0.503601
v 0.977511 0.124653 -0.239056
v 1.018499 0.026807 -0.230415
v 0.948108 0.026807 -0.160549
v 1.063552 0.026807 -0.303177
v 1.020517 0.124653 -0.304653
v 1.075692 0.026807 -0.377975
v 1.064337 0.026807 -0.439697
v 1.101830 0.026807 -0.494991
v 1.018863 0.124653 -0.434307
v 1.078835 0.124653 -0.537086
v 1.121164 0.026807 -0.541798
v 1.092410 0.124653 -0.589077
v 1.132470 0.026807 -0.601212
v -0.022098 0.124653 -0.821716
v 0.191988 0.124653 -0.793533
v 0.126054 0.329134 -0.547462
v -0.022098 0.329134 -0.566963
v 0.391483 0.124653 -0.710896
v 0.382658 0.329134 -0.399307
v 0.562794 0.124653 -0.579445
v 0.473625 0.329134 -0.280762
v 0.805064 0.124653 0.005444
v 0.530807 0.329134 0.153591
v 0.776878 0.124653 0.219524
v 0.473625 0.329134 0.291649
v 0.220985 0.222662 -0.134899
v 0.157001 0.222663 -0.207901
v 0.252216 0.222662 -0.042984
v 0.366012 0.362688 0.005444
v 0.252216 0.222663 0.053875
v 0.171957 0.362688 -0.330666
v 0.073115 0.222663 -0.256329
v -0.170247 0.329133 0.558350
v -0.355958 0.329134 0.339306
v 0.100103 0.329134 0.461506
v -0.022098 0.329133 0.477592
v 0.213977 0.329134 0.414341
v 0.197018 0.362688 0.384964
v 0.311762 0.329134 0.339306
v 0.287778 0.362688 0.315319
v -0.144298 0.329134 0.461506
v -0.135520 0.362688 0.428745
v -0.258172 0.329134 0.414341
v -0.241212 0.362688 0.384964
v -0.331973 0.362688 0.315319
v -0.430990 0.329134 0.241516
v 0.078352 0.362688 0.380325
v 0.091325 0.362688 0.428745
v -0.022098 0.362688 0.443676
v 0.171957 0.362688 0.341557
v 0.252337 0.362688 0.279877
v -0.122547 0.362688 0.380325
v -0.216151 0.362688 0.341557
v -0.296531 0.362688 0.279877
v -0.401616 0.362688 0.224560
v 0.455504 0.124653 0.832676
v 0.291142 0.124653 0.905746
v 0.191987 0.124653 0.804417
v 0.391482 0.124653 0.721786
v 0.694245 0.124653 0.419022
v 0.265965 0.124653 0.993378
v 0.230656 0.124653 1.063419
v 0.177182 0.124653 1.105503
v 0.117542 0.124653 1.126820
v -0.022098 0.124653 1.228168
v 0.088877 0.124653 1.188255
v -0.161737 0.124653 1.126820
v -0.133072 0.124653 1.188255
v -0.221377 0.124653 1.105503
v -0.274852 0.124653 1.063419
v -0.335337 0.124653 0.905746
v -0.236181 0.124653 0.804417
v -0.606988 0.124653 0.590336
v -0.697529 0.124653 0.680878
v -0.022098 0.124653 1.286770
v -0.102717 0.124653 1.230145
v 0.482735 0.026807 0.857265
v 0.653335 0.124653 0.680878
v 0.689104 0.026807 0.702225
v 0.805134 0.124653 0.483044
v 0.319252 0.026807 0.928661
v 0.293940 0.026807 1.024555
v 0.253452 0.026807 1.099953
v 0.194746 0.026807 1.147869
v 0.135614 0.026807 1.168896
v 0.106475 0.026807 1.229012
v 0.058523 0.124653 1.230145
v 0.075609 0.026807 1.269157
v 0.020282 0.124653 1.267899
v 0.029806 0.026807 1.308655
v -0.022098 0.026807 1.336433
v -0.526930 0.026807 0.857265
v -0.499700 0.124653 0.832676
v -0.733299 0.026807 0.702225
v -0.310160 0.124653 0.993378
v -0.338136 0.026807 1.024555
v -0.363447 0.026807 0.928661
v -0.297648 0.026807 1.099953
v -0.238940 0.026807 1.147869
v -0.179809 0.026807 1.168896
v -0.150670 0.026807 1.229012
v -0.119804 0.026807 1.269157
v -0.064477 0.124653 1.267899
v -0.074001 0.026807 1.308655
v 0.562793 0.124653 0.590336
v 0.382657 0.329133 0.410198
v 0.264107 0.329133 0.501163
v 0.126052 0.329133 0.558350
v -0.022098 0.124653 0.832607
v -0.022098 0.329133 0.577854
v -0.308302 0.329134 0.501163
v -0.435677 0.124653 0.721786
v -0.426851 0.329134 0.410198
v -0.517818 0.329134 0.291649
v -0.022098 0.362688 0.393555
v 0.073115 0.222662 0.267220
v -0.117311 0.222662 0.267220
v -0.201196 0.222663 0.218788
v 0.220985 0.222662 0.145790
v 0.314014 0.362688 0.199497
v -0.022098 0.222662 0.286133
v 0.157001 0.222663 0.218788
v -0.664966 0.143403 -0.661041
v -0.485790 0.143403 -0.591839
v -0.771712 0.143403 -0.096607
v -1.043194 0.143403 -0.498795
v -1.075318 0.143403 -0.556133
v -0.915316 0.143403 -0.213020
v -0.798488 0.104964 -0.094524
v -0.935707 0.104964 -0.207047
v -0.990932 0.143403 -0.310970
v -1.006534 0.104964 -0.302078
v -1.020831 0.104964 -0.388687
v -1.006020 0.143403 -0.394451
v -1.058192 0.104964 -0.494934
v -1.000768 0.143403 -0.447262
v -1.017167 0.104964 -0.445782
v -1.086918 0.104964 -0.555744
v -1.075931 0.143403 -0.603645
v -0.669988 0.104964 -0.681690
v -0.497371 0.104964 -0.616070
v -0.781682 0.143403 -0.674988
v -0.781785 0.104964 -0.692947
v -0.862626 0.104964 -0.664150
v -0.860207 0.143403 -0.648449
v -0.903993 0.143403 -0.614880
v -0.973725 0.104964 -0.642311
v -0.910912 0.104964 -0.629822
v -0.969571 0.143403 -0.627396
v -1.036753 0.143403 -0.625645
v -1.042214 0.104964 -0.635887
v -1.089670 0.104964 -0.611580
v 0.883490 0.143403 -0.222069
v 0.448048 0.143403 -0.596729
v 0.953924 0.143403 -0.316174
v 0.743298 0.143403 -0.679401
v 0.823136 0.143403 -0.650723
v 0.970203 0.143403 -0.397449
v 0.932091 0.143403 -0.630745
v 1.006649 0.143403 -0.502686
v 0.997811 0.143403 -0.629898
v 0.620666 0.143403 -0.662888
v 0.459628 0.104964 -0.620964
v 0.625686 0.104964 -0.683537
v 0.743399 0.104964 -0.697353
v 0.825554 0.104964 -0.666431
v 0.866249 0.143403 -0.619774
v 0.936245 0.104964 -0.645664
v 0.873168 0.104964 -0.634708
v 1.003274 0.104964 -0.640137
v 1.039262 0.143403 -0.606670
v 1.053001 0.104964 -0.614605
v 0.733968 0.143403 -0.101498
v 0.903880 0.104964 -0.216091
v 0.760744 0.104964 -0.099415
v 0.969524 0.104964 -0.307281
v 0.985013 0.104964 -0.391689
v 0.979423 0.104964 -0.450676
v 1.021647 0.104964 -0.498825
v 0.963023 0.143403 -0.452148
v 1.038726 0.143403 -0.561745
v 1.050326 0.104964 -0.561356
v 0.242270 0.143403 0.892246
v -0.300559 0.143403 0.709671
v 0.130502 0.143403 1.061508
v -0.111412 0.143403 1.083366
v 0.058722 0.143403 1.145874
v 0.271283 0.143403 0.709671
v 0.286479 0.104964 0.731815
v 0.257639 0.104964 0.906914
v 0.195254 0.143403 1.006702
v 0.210755 0.104964 1.015766
v 0.142895 0.104964 1.071453
v 0.069566 0.104964 1.156933
v 0.082137 0.143403 1.083366
v 0.091617 0.104964 1.096828
v 0.025126 0.143403 1.202366
v 0.031263 0.104964 1.212215
v -0.015713 0.143403 1.226650
v -0.270904 0.143403 0.899448
v -0.286274 0.104964 0.914116
v -0.315753 0.104964 0.731815
v -0.224621 0.143403 1.007492
v -0.240122 0.104964 1.016560
v -0.174768 0.104964 1.072178
v -0.162375 0.143403 1.062229
v -0.120891 0.104964 1.096828
v -0.100303 0.104964 1.157475
v -0.089459 0.143403 1.146416
v -0.054355 0.143403 1.203720
v -0.060493 0.104964 1.213573
v -0.015711 0.104964 1.242519
vn 0.7126 -0.7015 0.0002
vn 0.6682 -0.7222 0.1787
vn 0.6677 -0.7224 0.1800
vn -0.0028 -0.7599 -0.6500
vn 0.1850 -0.7168 -0.6723
vn 0.1847 -0.7170 -0.6722
vn -0.3556 -0.7029 -0.6160
vn -0.1850 -0.7171 -0.6719
vn -0.1848 -0.7165 -0.6727
vn -0.4790 -0.7359 -0.4786
vn -0.3554 -0.7028 -0.6162
vn -0.6678 -0.7223 -0.1800
vn -0.6154 -0.7036 -0.3553
vn -0.6154 -0.7034 -0.3557
vn 0.3569 -0.7012 -0.6172
vn 0.3565 -0.7014 -0.6173
vn 0.4777 -0.7370 -0.4782
vn 0.6157 -0.7035 -0.3550
vn 0.6159 -0.7030 -0.3556
vn 0.1992 -0.7275 0.6566
vn 0.0013 -0.6985 0.7156
vn 0.2004 -0.7277 0.6560
vn -0.6679 -0.7225 -0.1787
vn -0.7127 -0.7014 0.0004
vn -0.7129 -0.7013 -0.0006
vn -0.1987 -0.7277 0.6565
vn -0.0027 -0.6981 0.7160
vn -0.0010 -0.6977 0.7164
vn 0.6158 -0.7031 0.3555
vn 0.3553 -0.7032 0.6159
vn 0.4781 -0.7370 0.4777
vn 0.4780 -0.7371 0.4777
vn -0.6679 -0.7224 0.1790
vn -0.6674 -0.7225 0.1803
vn 0.6681 -0.7222 -0.1790
vn 0.6675 -0.7224 -0.1803
vn -0.6159 -0.7032 0.3552
vn -0.4775 -0.7373 0.4779
vn -0.4774 -0.7374 0.4778
vn 0.4776 -0.7372 -0.4780
vn 0.6158 -0.7028 0.3561
vn -0.3566 -0.7018 0.6167
vn -0.1998 -0.7278 0.6560
vn -0.6159 -0.7031 0.3555
vn -0.4789 -0.7360 -0.4785
vn -0.3562 -0.7019 0.6168
vn 0.3555 -0.7032 0.6157
vn 0.0016 -0.7589 -0.6512
vn 0.0006 -0.7591 -0.6510
vn -0.7676 0.3513 0.5360
vn -0.8770 0.3781 0.2965
vn -0.8864 0.3879 0.2526
vn 0.4311 0.3732 -0.8215
vn 0.1817 0.3780 -0.9078
vn 0.4122 0.3708 -0.8322
vn 0.0599 0.3372 -0.9395
vn -0.2665 0.3020 -0.9153
vn 0.0872 0.3501 -0.9326
vn 0.8657 0.0285 -0.4998
vn 0.4139 0.3836 -0.8255
vn 0.3964 0.3825 -0.8346
vn -0.0000 1.0000 -0.0000
vn -0.2490 0.3975 -0.8832
vn -0.4619 0.4183 -0.7821
vn -0.4655 0.4221 -0.7779
vn -0.8922 0.3812 0.2422
vn -0.8326 0.2752 0.4807
vn -0.8973 0.3778 0.2283
vn -0.0000 0.8798 0.4753
vn -0.2045 0.6116 0.7643
vn -0.0000 0.6087 0.7934
vn -0.4973 0.7109 0.4973
vn -0.3516 0.7109 0.6090
vn -0.6634 0.6428 0.3830
vn -0.6793 0.7109 0.1820
vn -0.1820 0.7109 -0.6793
vn -0.3516 0.7109 -0.6090
vn -0.6090 0.7109 -0.3516
vn -0.6793 0.7109 -0.1820
vn -0.0000 0.7109 0.7033
vn -0.1820 0.7109 0.6793
vn 0.6793 0.7109 -0.1820
vn 0.7033 0.7109 -0.0000
vn 0.7225 0.4211 0.5484
vn 0.8605 0.4378 0.2606
vn 0.8694 0.4373 0.2302
vn -0.7233 0.4214 0.5470
vn -0.5115 0.3707 0.7752
vn -0.4897 0.3727 0.7882
vn 0.8534 -0.1696 -0.4928
vn 0.9321 0.2939 0.2117
vn 0.8587 -0.1307 -0.4955
vn 0.2509 0.3777 -0.8913
vn 0.4571 0.3404 -0.8217
vn 0.2363 0.3811 -0.8938
vn -0.8839 0.3542 0.3054
vn -0.9424 0.3345 0.0022
vn -0.8860 0.3474 0.3071
vn 0.8680 0.3530 0.3494
vn 0.7207 0.3889 0.5740
vn 0.6996 0.3904 0.5984
vn 0.6642 0.3020 0.6838
vn 0.8416 0.3374 0.4217
vn 0.8480 0.3513 0.3967
vn -0.2827 0.2939 -0.9131
vn -0.8076 0.3612 -0.4661
vn 0.8910 0.4311 0.1422
vn 0.6776 0.6982 0.2312
vn 0.8111 0.3444 0.4728
vn 0.6872 0.7044 0.1775
vn -0.7642 0.6116 -0.2051
vn -0.4241 0.9055 -0.0127
vn -0.6144 0.7047 -0.3548
vn 0.8354 0.4213 0.3529
vn 0.9271 0.3706 0.0554
vn 0.9275 0.3726 0.0300
vn 0.1137 0.4211 -0.8999
vn 0.1039 0.4211 -0.9010
vn 0.1672 0.3692 -0.9142
vn 0.0381 0.3457 -0.9376
vn -0.0039 0.3444 -0.9388
vn -0.9312 0.2933 0.2163
vn -0.9243 0.3020 0.2334
vn -0.1840 0.3781 -0.9073
vn 0.9083 0.4183 -0.0090
vn 0.8681 0.3904 0.3067
vn 0.9064 0.4221 -0.0142
vn -0.6046 0.7799 0.1620
vn -0.5955 0.7261 0.3438
vn -0.5956 0.7259 0.3439
vn -0.4156 0.3706 -0.8306
vn -0.1121 0.4214 -0.8999
vn -0.1038 0.4212 -0.9010
vn -0.1629 0.8845 0.4371
vn -0.3952 0.6126 0.6845
vn 0.1559 0.3492 -0.9240
vn -0.1775 0.3542 -0.9182
vn 0.1314 0.3530 -0.9264
vn 0.6090 0.7109 -0.3516
vn 0.4973 0.7109 -0.4973
vn -0.4973 0.7109 -0.4973
vn 0.1820 0.7109 -0.6793
vn 0.3516 0.7109 -0.6090
vn 0.1820 0.7109 0.6793
vn 0.3516 0.7109 0.6090
vn 0.9424 0.3345 0.0021
vn 0.6785 0.6984 0.2278
vn 0.6792 0.6974 0.2289
vn 0.4831 0.3404 0.8067
vn 0.6464 0.3778 0.6630
vn 0.4731 0.3345 0.8151
vn 0.8922 0.3812 0.2422
vn 0.7980 0.3886 0.4607
vn 0.7984 0.3874 0.4610
vn 0.8574 0.3889 0.3371
vn 0.7365 0.3530 0.5770
vn -0.6996 0.3904 0.5984
vn -0.4464 0.4183 0.7911
vn -0.7207 0.3889 0.5740
vn 0.6403 0.3975 0.6572
vn 0.8150 0.3444 0.4660
vn 0.7929 0.3457 0.5018
vn 0.8310 0.3457 0.4358
vn 0.8753 0.3692 0.3123
vn 0.9210 0.3825 0.0740
vn 0.8938 0.3603 0.2671
vn 0.9219 0.3836 0.0543
vn -0.0000 0.4283 0.9037
vn -0.5080 0.3836 0.7713
vn -0.0000 0.4526 0.8917
vn 0.7064 0.3542 0.6128
vn 0.8973 0.3778 0.2283
vn 0.9402 0.3404 0.0150
vn 0.6559 0.3811 0.6516
vn 0.8781 0.3492 0.3270
vn -0.9083 0.4183 -0.0090
vn -0.8681 0.3904 0.3067
vn -0.8574 0.3889 0.3371
vn 0.4619 0.4183 -0.7821
vn 0.2490 0.3975 -0.8832
vn 0.4655 0.4221 -0.7779
vn -0.8753 0.3692 0.3123
vn -0.8310 0.3457 0.4358
vn -0.8111 0.3444 0.4728
vn 0.6782 0.3603 0.6405
vn 0.5245 0.3825 0.7607
vn 0.5080 0.3836 0.7713
vn 0.6260 0.7799 -0.0000
vn 0.6046 0.7799 -0.1620
vn 0.3130 0.7799 0.5421
vn 0.1620 0.7799 0.6046
vn -0.3130 0.7799 -0.5421
vn -0.4426 0.7799 -0.4426
vn -0.0000 0.7799 -0.6260
vn 0.1620 0.7799 -0.6046
vn 0.3130 0.7799 -0.5421
vn 0.4426 0.7799 0.4426
vn -0.1620 0.7799 0.6046
vn -0.3130 0.7799 0.5421
vn -0.6046 0.7799 -0.1620
vn -0.5421 0.7799 -0.3130
vn -0.5597 0.6116 -0.5592
vn -0.2045 0.6116 -0.7643
vn 0.4217 0.7978 -0.4310
vn -0.0000 0.6087 -0.7934
vn 0.5597 0.6116 0.5592
vn 0.2971 0.8845 0.3597
vn 0.3952 0.6126 0.6845
vn 0.7904 0.6126 -0.0000
vn 0.4600 0.8845 -0.0775
vn 0.4600 0.8845 0.0775
vn 0.7642 0.6116 0.2051
vn -0.7904 0.6126 -0.0000
vn -0.4600 0.8845 -0.0775
vn 0.4116 0.8798 0.2377
vn 0.1629 0.8845 0.4371
vn 0.1971 0.9528 -0.2312
vn -0.0000 0.7109 -0.7033
vn -0.7033 0.7109 -0.0000
vn 0.6793 0.7109 0.1820
vn 0.6634 0.6428 0.3830
vn 0.4973 0.7109 0.4973
vn 0.8777 0.3781 0.2943
vn 0.8875 0.3882 0.2484
vn -0.2510 0.3777 -0.8913
vn -0.4571 0.3404 -0.8217
vn -0.4693 0.3345 -0.8172
vn -0.0000 0.3886 -0.9214
vn -0.2363 0.3811 -0.8938
vn -0.7064 0.3542 0.6128
vn -0.8782 0.3492 0.3270
vn -0.7090 0.3474 0.6137
vn -0.1368 0.3889 -0.9111
vn -0.1685 0.3904 -0.9051
vn -0.8893 0.3975 0.2260
vn -0.9064 0.4221 -0.0142
vn 0.0039 0.3444 -0.9388
vn -0.0381 0.3457 -0.9376
vn -0.1672 0.3692 -0.9142
vn -0.2156 0.3603 -0.9076
vn -0.3965 0.3824 -0.8346
vn 0.8648 0.0529 -0.4993
vn -0.6938 0.3781 0.6130
vn -0.6589 0.3881 0.6443
vn -0.9402 0.3404 0.0150
vn -0.0000 0.3874 -0.9219
vn -0.7222 0.3492 0.5970
vn 0.1368 0.3889 -0.9111
vn -0.1314 0.3530 -0.9264
vn -0.1559 0.3492 -0.9240
vn 0.1685 0.3904 -0.9051
vn -0.6404 0.3975 0.6572
vn -0.5945 0.4078 0.6930
vn -0.7081 0.3692 0.6019
vn -0.7929 0.3457 0.5018
vn -0.6782 0.3603 0.6405
vn -0.7826 0.4283 -0.4518
vn -0.9219 0.3836 0.0543
vn -0.9210 0.3825 0.0739
vn -0.6260 0.7799 -0.0000
vn 0.5421 0.7799 -0.3130
vn 0.4426 0.7799 -0.4426
vn -0.1620 0.7799 -0.6046
vn 0.6046 0.7799 0.1620
vn -0.4426 0.7799 0.4426
vn 0.7642 0.6116 -0.2051
vn 0.6144 0.7047 -0.3547
vn -0.4116 0.8798 0.2377
vn -0.5597 0.6116 0.5592
vn -0.2971 0.8845 0.3597
vn -0.7642 0.6116 0.2051
vn -0.4600 0.8845 0.0775
vn 0.6750 0.6897 -0.2623
vn 0.3952 0.6126 -0.6845
vn 0.5690 0.7400 -0.3586
vn 0.2045 0.6116 0.7643
vn -0.8581 0.4387 0.2668
vn -0.7284 0.4212 0.5403
vn 0.1775 0.3542 -0.9182
vn 0.4693 0.3345 -0.8172
vn 0.1770 0.3474 -0.9209
vn -0.4831 0.3404 0.8067
vn -0.6464 0.3778 0.6630
vn -0.6559 0.3811 0.6516
vn -0.8327 0.2746 0.4808
vn -0.8680 0.3530 0.3494
vn -0.8150 0.3444 0.4660
vn -0.5245 0.3825 0.7607
vn -0.4139 0.3836 -0.8255
vn 0.7222 0.3492 0.5970
vn -0.7365 0.3530 0.5770
vn 0.4464 0.4183 0.7911
vn 0.4409 0.4221 0.7921
vn 0.5944 0.4078 0.6930
vn 0.7081 0.3692 0.6019
vn -0.8938 0.3603 0.2671
vn -0.0000 0.7799 0.6260
vn 0.1620 0.7798 0.6046
vn 0.5956 0.7259 0.3439
vn 0.2045 0.6116 -0.7643
vn -0.3952 0.6126 -0.6845
vn -0.3858 0.6131 -0.6894
vn -0.5381 0.6706 -0.5107
vn 0.5597 0.6116 -0.5592
vn -0.8678 0.4381 0.2343
vn -0.8918 0.4302 0.1399
vn -0.2045 0.4378 -0.8755
vn -0.2353 0.4374 -0.8680
vn 0.6953 0.3780 0.6112
vn 0.2600 0.3020 -0.9171
vn -0.0556 0.3374 -0.9397
vn -0.0804 0.3513 -0.9328
vn 0.2783 0.2933 -0.9146
vn -0.8513 0.3502 0.3908
vn 0.7837 0.3372 0.5217
vn 0.9260 0.3020 0.2268
vn 0.7641 0.3502 0.5418
vn -0.5687 0.4310 0.7005
vn -0.6341 0.4373 0.6378
vn -0.6560 0.4378 0.6149
vn 0.5147 0.3708 0.7731
vn 0.4959 0.3731 0.7841
vn 0.6620 0.3879 0.6414
vn 0.2156 0.3603 -0.9076
vn 0.6530 0.2934 0.6983
vn 0.0002 0.3613 0.9325
vn -0.0004 0.3816 0.9243
vn 0.3247 0.4302 -0.8423
vn 0.2310 0.4382 -0.8687
vn 0.3249 0.4324 -0.8411
vn 0.1980 0.4387 -0.8765
vn -0.4377 0.3726 -0.8183
vn -0.6594 0.3020 0.6885
vn -0.8436 0.3373 0.4178
vn -0.6494 0.2940 0.7014
vn -0.3223 0.4311 -0.8428
vn -0.8361 0.4211 0.3515
vn -0.9268 0.3708 0.0592
vn -0.8322 0.4212 0.3605
vn -0.9270 0.3732 0.0374
vn -0.7860 0.3374 0.5180
vn 0.5671 0.4302 0.7024
vn 0.6368 0.4382 0.6344
vn 0.5660 0.4323 0.7019
vn 0.6601 0.4387 0.6098
vn 0.8322 0.4212 0.3607
vn -0.4731 0.3345 0.8151
vn 0.7128 -0.7014 0.0002
vn -0.0015 -0.7600 -0.6499
vn 0.0008 -0.6982 0.7159
vn 0.2245 0.3878 -0.8940
vn -0.3029 0.4078 -0.8613
vn 0.7284 0.4212 0.5405
vn -0.8003 0.3815 -0.4625
vn 0.8901 0.4333 0.1414
vn -0.2285 0.3882 -0.8928
vn -0.1769 0.3475 -0.9208
vn -0.4409 0.4221 0.7921
vn 0.7090 0.3474 0.6137
vn 0.3029 0.4078 -0.8613
vn 0.6871 0.6087 0.3967
vn -0.8974 0.4078 0.1683
vn -0.7722 0.4526 -0.4459
vn -0.6871 0.6087 0.3967
vn 0.5957 0.7258 0.3439
vn -0.8909 0.4323 0.1392
vn -0.5676 0.4333 0.7001
vn -0.3225 0.4334 -0.8415
vt 1.693359 -0.463135
vt 1.724609 -0.463135
vt 1.524414 -0.463135
vt 1.546875 -0.463135
vt 0.572754 -0.463135
vt 0.546387 -0.463135
vt 0.601074 -0.463135
vt 0.662109 -0.463135
vt 0.631348 -0.463135
vt 1.572266 -0.463135
vt 1.601563 -0.463135
vt 1.630859 -0.463135
vt 1.838867 -0.463135
vt 1.860352 -0.463135
vt 0.693359 -0.463135
vt 0.838867 -0.463135
vt 0.860840 -0.463135
vt 1.755859 -0.463135
vt 1.813477 -0.463135
vt 1.785156 -0.463135
vt 0.724609 -0.463135
vt 1.662109 -0.463135
vt 0.755371 -0.463135
vt 0.785156 -0.463135
vt 0.813477 -0.463135
vt 0.524414 -0.463135
vt 0.925988 -0.816403
vt 0.940482 -0.824076
vt 0.932621 -0.831947
vt 0.946597 -0.841929
vt 0.942538 -0.826946
vt 0.954306 -0.834721
vt 0.874824 -0.809433
vt 0.891564 -0.802735
vt 0.882638 -0.816093
vt 1.904229 -0.046898
vt 1.919650 -0.029568
vt 1.919650 -0.046898
vt 0.923039 -0.819450
vt 0.878057 -0.835579
vt 0.884684 -0.819304
vt 0.897813 -0.099285
vt 0.917315 -0.081994
vt 0.917315 -0.099285
vt 0.916937 -0.110170
vt 0.989343 -0.126846
vt 0.916937 -0.126846
vt 1.628484 -0.068895
vt 1.615871 -0.020661
vt 1.634070 -0.020661
vt 1.492320 -0.382501
vt 1.535742 -0.402258
vt 1.492320 -0.402258
vt 0.796401 -0.382501
vt 0.751692 -0.402258
vt 0.751692 -0.382501
vt 0.492320 -0.402258
vt 0.535742 -0.382501
vt 0.535742 -0.402258
vt 0.622350 -0.402258
vt 0.665593 -0.382501
vt 0.665593 -0.402258
vt 1.622350 -0.382501
vt 1.579106 -0.402258
vt 1.579106 -0.382501
vt 1.535742 -0.382501
vt 0.963037 -0.856137
vt 0.985016 -0.878381
vt 0.975271 -0.884076
vt 0.914053 -0.805675
vt 0.845995 -0.855096
vt 0.854077 -0.834074
vt 0.861682 -0.841223
vt 0.900846 -0.798171
vt 0.886320 -0.794673
vt 0.900884 -0.788385
vt 1.916937 -0.126846
vt 1.842676 -0.110170
vt 1.916937 -0.110170
vt 0.789769 -0.110170
vt 0.842676 -0.126846
vt 0.789769 -0.126846
vt 1.965423 -0.056232
vt 1.938812 -0.073523
vt 1.938812 -0.056232
vt 0.828781 -0.934276
vt 0.971454 -0.885628
vt 0.979248 -0.934280
vt 0.917344 -0.803153
vt 0.933893 -0.809693
vt 0.836737 -0.885628
vt 0.958991 -0.857165
vt 0.993006 -0.924892
vt 1.905340 -0.006874
vt 1.923709 -0.024204
vt 1.905340 -0.024204
vt 1.472663 -0.020661
vt 1.459452 -0.068895
vt 1.454149 -0.020661
vt 0.971937 -0.850306
vt 1.936551 -0.046898
vt 1.954520 -0.029568
vt 1.954520 -0.046898
vt 0.907431 -0.798214
vt 0.922671 -0.795068
vt 0.645278 -0.072200
vt 0.731056 -0.072199
vt 0.688239 -0.170665
vt 0.868511 -0.823770
vt 1.917315 -0.081994
vt 1.940663 -0.099285
vt 1.917315 -0.099285
vt 0.853552 -0.299177
vt 0.927756 -0.186919
vt 0.927756 -0.299177
vt 0.837148 -0.849293
vt 1.603341 -0.068895
vt 1.594279 -0.020661
vt 1.784902 -0.131403
vt 1.838086 -0.170665
vt 1.764344 -0.170665
vt 0.967398 -0.081994
vt 0.990593 -0.099285
vt 0.967398 -0.099285
vt 0.596584 -0.410973
vt 0.557148 -0.431728
vt 0.557148 -0.410973
vt 0.517650 -0.431728
vt 0.517650 -0.410973
vt 0.457013 -0.367486
vt 0.408976 -0.331025
vt 0.457013 -0.331025
vt 1.675174 -0.431728
vt 1.635879 -0.410973
vt 1.675174 -0.410973
vt 1.538032 -0.131403
vt 1.465116 -0.170665
vt 1.464879 -0.131403
vt 0.506667 -0.367486
vt 0.506667 -0.331025
vt 1.704932 -0.367486
vt 1.655332 -0.331025
vt 1.704932 -0.331025
vt 1.714203 -0.410973
vt 1.714203 -0.431728
vt 0.675174 -0.431728
vt 0.714203 -0.410973
vt 0.714203 -0.431728
vt 1.622350 -0.402258
vt 1.665593 -0.382501
vt 1.665593 -0.402258
vt 0.579106 -0.382501
vt 0.579106 -0.402258
vt 1.751692 -0.402258
vt 1.708633 -0.382501
vt 1.751692 -0.382501
vt 1.708633 -0.402258
vt 0.794705 -0.431728
vt 0.753243 -0.410973
vt 0.794705 -0.410973
vt 1.557148 -0.410973
vt 1.596585 -0.431728
vt 1.557148 -0.431728
vt 1.556212 -0.367486
vt 1.506667 -0.331025
vt 1.556212 -0.331025
vt 1.754523 -0.367486
vt 1.754523 -0.331025
vt 0.754523 -0.367486
vt 0.808869 -0.331025
vt 0.808869 -0.367486
vt 1.392089 -0.170665
vt 1.392089 -0.131403
vt 1.635879 -0.431728
vt 1.596585 -0.410973
vt 1.753243 -0.431728
vt 1.794705 -0.410973
vt 1.794705 -0.431728
vt 1.517650 -0.431728
vt 1.479033 -0.410973
vt 1.517650 -0.410973
vt 0.764344 -0.170665
vt 0.784902 -0.131403
vt 0.776546 -0.111768
vt 0.765799 -0.091683
vt 0.749366 -0.078752
vt 1.645278 -0.072200
vt 1.731055 -0.072199
vt 1.688239 -0.170665
vt 0.688168 -0.041052
vt 0.722265 -0.053317
vt 0.654070 -0.053317
vt 0.626967 -0.078753
vt 0.610533 -0.091684
vt 0.599785 -0.111773
vt 0.591409 -0.131403
vt 0.612018 -0.170665
vt 1.591409 -0.131403
vt 1.538032 -0.170665
vt 1.605729 -0.331025
vt 0.712940 -0.040444
vt 0.701191 -0.028840
vt 0.688168 -0.023040
vt 0.675145 -0.028840
vt 0.663396 -0.040444
vt 1.527454 -0.125362
vt 1.583240 -0.108049
vt 1.583240 -0.125362
vt 1.842676 -0.126846
vt 1.462357 -0.108049
vt 1.385901 -0.125362
vt 1.385901 -0.108049
vt 1.940663 -0.081994
vt 1.967398 -0.099285
vt 1.897813 -0.099285
vt 1.975038 -0.029568
vt 1.923709 -0.006874
vt 1.939184 -0.024204
vt 1.955019 -0.024204
vt 1.939184 -0.006874
vt 1.955019 -0.006874
vt 1.973821 -0.024204
vt 1.973821 -0.006874
vt 1.789768 -0.110170
vt 1.462357 -0.125362
vt 1.527454 -0.108049
vt 1.989343 -0.126846
vt 1.989343 -0.110170
vt 1.988650 -0.056232
vt 1.965423 -0.073523
vt 0.915868 -0.073523
vt 0.938812 -0.056232
vt 0.938812 -0.073523
vt 1.915868 -0.073523
vt 1.895742 -0.056232
vt 1.915868 -0.056232
vt 0.936551 -0.046898
vt 0.954519 -0.029568
vt 0.954519 -0.046898
vt 1.936551 -0.029568
vt 1.539662 -0.299177
vt 1.602441 -0.186919
vt 1.602441 -0.299177
vt 1.790775 -0.299177
vt 1.727998 -0.186919
vt 1.790775 -0.186919
vt 0.539662 -0.299177
vt 0.602441 -0.186919
vt 0.602441 -0.299177
vt 1.927756 -0.186919
vt 1.853552 -0.299177
vt 1.853552 -0.186919
vt 1.539662 -0.186919
vt 0.727998 -0.186919
vt 0.665220 -0.299177
vt 0.665220 -0.186919
vt 1.569910 -0.020661
vt 1.542462 -0.068895
vt 1.544301 -0.020661
vt 0.518604 -0.020661
vt 0.512094 -0.068895
vt 0.494346 -0.020661
vt 0.594279 -0.020661
vt 0.603341 -0.068895
vt 0.574593 -0.068895
vt 0.569910 -0.020661
vt 1.494346 -0.020661
vt 1.484374 -0.068895
vt 0.542462 -0.068895
vt 0.738221 -0.050451
vt 0.759863 -0.030956
vt 0.812280 -0.099992
vt 0.784798 -0.018433
vt 0.811932 -0.013583
vt 0.839074 -0.018546
vt 0.864061 -0.031263
vt 0.885540 -0.051022
vt 1.910880 -0.170665
vt 1.983662 -0.131403
vt 1.983662 -0.170665
vt 1.838086 -0.131403
vt 0.479033 -0.410973
vt 0.635879 -0.410973
vt 0.596584 -0.431728
vt 0.449496 -0.402258
vt 0.492320 -0.382501
vt 1.449496 -0.402258
vt 1.449496 -0.382501
vt 0.708633 -0.402258
vt 0.708633 -0.382501
vt 1.753243 -0.410973
vt 0.910880 -0.170665
vt 0.983662 -0.131403
vt 0.983662 -0.170665
vt 0.392089 -0.131403
vt 0.465116 -0.170665
vt 0.392089 -0.170665
vt 1.479033 -0.431728
vt 1.605729 -0.367486
vt 0.675174 -0.410973
vt 0.635879 -0.431728
vt 1.776546 -0.111768
vt 1.765799 -0.091683
vt 1.749366 -0.078752
vt 1.688168 -0.041052
vt 1.722265 -0.053317
vt 1.654070 -0.053317
vt 1.626967 -0.078753
vt 1.610533 -0.091684
vt 1.599785 -0.111773
vt 1.612018 -0.170665
vt 0.838086 -0.170665
vt 1.506667 -0.367486
vt 1.712940 -0.040444
vt 1.701191 -0.028840
vt 1.688168 -0.023040
vt 1.675145 -0.028840
vt 1.663396 -0.040444
vt 0.866370 -0.826281
vt 0.874317 -0.834301
vt 0.462357 -0.125362
vt 0.527454 -0.108049
vt 0.527454 -0.125362
vt 0.385901 -0.125362
vt 0.462357 -0.108049
vt 1.990593 -0.099285
vt 1.967398 -0.081994
vt 1.990593 -0.081994
vt 0.940663 -0.081994
vt 0.940663 -0.099285
vt 0.895742 -0.056232
vt 0.915868 -0.056232
vt 0.923709 -0.024204
vt 0.905340 -0.006874
vt 0.923709 -0.006874
vt 0.939184 -0.024204
vt 0.939184 -0.006874
vt 0.955019 -0.024204
vt 0.842676 -0.110170
vt 0.965423 -0.073523
vt 0.988650 -0.056232
vt 0.988650 -0.073523
vt 1.897813 -0.081994
vt 0.975038 -0.029568
vt 0.904229 -0.046898
vt 0.919650 -0.029568
vt 0.919650 -0.046898
vt 0.790775 -0.186919
vt 0.790775 -0.299177
vt 1.665220 -0.299177
vt 1.727998 -0.299177
vt 0.476884 -0.299177
vt 0.539662 -0.186919
vt 0.417914 -0.186919
vt 0.417914 -0.299177
vt 1.476884 -0.186919
vt 0.727998 -0.299177
vt 0.628484 -0.068895
vt 0.615871 -0.020661
vt 0.634070 -0.020661
vt 1.574593 -0.068895
vt 1.518604 -0.020661
vt 1.512094 -0.068895
vt 0.484374 -0.068895
vt 0.472663 -0.020661
vt 0.459452 -0.068895
vt 0.454149 -0.020661
vt 1.738221 -0.050451
vt 1.759863 -0.030956
vt 1.812280 -0.099992
vt 1.784798 -0.018433
vt 1.811932 -0.013583
vt 1.839074 -0.018546
vt 1.864061 -0.031263
vt 1.885540 -0.051022
vt 0.838086 -0.131403
vt 0.910880 -0.131403
vt 1.457013 -0.367486
vt 1.408976 -0.331025
vt 1.457013 -0.331025
vt 0.655332 -0.331025
vt 0.704932 -0.367486
vt 0.655332 -0.367486
vt 0.824454 -0.877373
vt 0.605729 -0.367486
vt 0.605729 -0.331025
vt 0.754523 -0.331025
vt 1.796401 -0.382501
vt 0.622350 -0.382501
vt 1.796401 -0.402258
vt 1.408976 -0.367486
vt 1.910880 -0.131403
vt 0.538032 -0.131403
vt 0.464879 -0.131403
vt 1.808869 -0.331025
vt 1.808869 -0.367486
vt 0.753243 -0.431728
vt 0.556212 -0.331025
vt 0.556212 -0.367486
vt 0.538032 -0.170665
vt 1.655332 -0.367486
vt 1.789768 -0.126846
vt 1.988650 -0.073523
vt 0.955019 -0.006874
vt 0.973821 -0.024204
vt 0.583239 -0.108049
vt 0.965423 -0.056232
vt 1.895742 -0.073523
vt 0.936551 -0.029568
vt 1.904229 -0.029568
vt 1.665220 -0.186919
vt 1.417914 -0.299177
vt 1.417914 -0.186919
vt 1.476884 -0.299177
vt 1.927756 -0.299177
vt 0.942243 -0.842691
vt 0.848963 -0.856942
vt 0.865078 -0.842691
vt 0.929935 -0.835610
vt 0.894029 -0.805318
vt 0.903747 -0.800540
vt 0.834094 -0.883021
vt 0.816338 -0.923508
vt 0.907469 -0.788359
vt 0.876309 -0.831639
vt 0.934516 -0.834979
vt 0.826348 -0.930378
vt 0.897813 -0.081994
vt 0.989343 -0.110170
vt 0.796401 -0.402258
vt 0.982922 -0.931832
vt 0.853552 -0.186919
vt 0.990593 -0.081994
vt 0.408976 -0.367486
vt 1.975038 -0.046898
vt 0.544301 -0.020661
vt 0.479033 -0.431728
vt 0.449496 -0.382501
vt 0.385901 -0.108049
vt 0.895742 -0.073523
vt 0.905340 -0.024204
vt 0.975038 -0.046898
vt 0.904229 -0.029568
vt 0.476884 -0.186919
vt 0.704932 -0.331025
vt 0.973821 -0.006874
vt 0.583239 -0.125362
s 1
g センター
g NarukamiShrine_mesh.089_Teleport_Waypoint_B
usemtl Teleport_Waypoint_B
f 16/1/1 40/2/2 15/2/3
f 27/3/4 51/4/5 26/4/6
s 2
f 12/5/7 36/6/8 11/6/9
f 13/7/10 37/5/11 12/5/7
f 8/8/12 39/9/13 14/9/14
s 1
f 25/10/15 51/4/5 50/10/16
f 24/11/17 48/12/18 23/12/19
f 45/13/20 21/14/21 20/13/22
s 2
f 9/8/23 7/15/24 34/15/25
f 29/16/26 1/17/27 28/17/28
s 1
f 42/18/29 15/2/3 40/2/2
f 44/19/30 18/20/31 43/20/32
s 2
f 33/21/33 7/15/24 6/21/34
s 1
f 47/22/35 16/1/1 22/22/36
f 22/22/36 48/12/18 47/22/35
s 2
f 32/23/37 4/24/38 31/24/39
s 1
f 24/11/17 50/10/16 49/11/40
f 42/18/29 18/20/31 17/18/41
s 2
f 29/16/26 3/25/42 2/16/43
f 32/23/37 6/21/34 5/23/44
f 13/7/10 39/9/13 38/7/45
f 30/25/46 4/24/38 3/25/42
s 1
f 45/13/20 19/19/47 44/19/30
s 2
f 10/26/48 36/6/8 35/26/49
s 1
f 16/1/1 41/1/348 40/2/2
f 27/3/4 52/3/349 51/4/5
s 2
f 12/5/7 37/5/11 36/6/8
f 13/7/10 38/7/45 37/5/11
f 8/8/12 9/8/23 39/9/13
s 1
f 25/10/15 26/4/6 51/4/5
f 24/11/17 49/11/40 48/12/18
f 45/13/20 46/14/350 21/14/21
s 2
f 9/8/23 8/8/12 7/15/24
f 29/16/26 2/16/43 1/17/27
s 1
f 42/18/29 17/18/41 15/2/3
f 44/19/30 19/19/47 18/20/31
s 2
f 33/21/33 34/15/25 7/15/24
s 1
f 47/22/35 41/1/348 16/1/1
f 22/22/36 23/12/19 48/12/18
s 2
f 32/23/37 5/23/44 4/24/38
s 1
f 24/11/17 25/10/15 50/10/16
f 42/18/29 43/20/32 18/20/31
s 2
f 29/16/26 30/25/46 3/25/42
f 32/23/37 33/21/33 6/21/34
f 13/7/10 14/9/14 39/9/13
f 30/25/46 31/24/39 4/24/38
s 1
f 45/13/20 20/13/22 19/19/47
s 2
f 10/26/48 11/6/9 36/6/8
s 3
g NarukamiShrine_mesh.089_Material.013
usemtl Material.013
f 330/27/50 341/28/51 340/29/52
s 4
f 361/30/53 373/31/54 370/32/55
s 3
f 351/33/56 354/34/57 353/35/58
s 5
f 198/36/59 197/37/60 196/38/61
s 6
f 330/39/62 350/40/62 353/41/62
s 5
f 113/42/63 109/43/64 108/44/65
f 88/45/66 89/46/67 87/47/68
s 7
f 141/48/69 165/49/70 166/50/71
s 8
f 238/51/72 248/52/73 249/53/72
f 250/54/74 62/55/75 56/56/75
f 69/57/76 58/58/77 63/59/77
f 66/60/78 59/61/79 65/62/79
f 240/63/80 246/64/81 245/65/81
f 168/64/82 151/66/83 149/65/82
s 9
f 395/67/84 394/68/85 387/69/86
s 10
f 364/41/62 365/70/62 363/39/62
s 9
f 407/71/87 409/72/88 410/73/89
s 4
f 375/74/90 386/75/91 376/76/92
s 5
f 182/77/93 180/78/94 181/79/95
f 91/80/96 85/81/97 71/82/98
f 286/83/99 266/84/100 287/85/101
s 11
f 388/86/62 387/87/62 392/88/62
s 9
f 401/89/102 398/90/103 391/27/104
s 10
f 357/91/62 360/92/62 366/87/62
s 3
f 355/75/105 343/74/106 354/34/57
s 9
f 393/93/107 387/69/86 394/68/85
s 5
f 211/94/108 175/95/109 213/96/110
s 7
f 170/97/111 323/98/112 324/99/113
s 4
f 359/71/114 381/72/115 362/73/116
f 360/67/117 370/32/55 369/100/118
s 5
f 194/101/119 193/102/120 191/103/121
s 3
f 343/104/106 342/105/122 331/89/123
s 12
f 110/106/62 78/107/62 123/108/62
s 3
f 353/35/58 352/109/124 351/33/56
s 5
f 176/110/125 208/111/126 210/112/127
s 13
f 120/113/128 74/114/129 318/115/130
s 3
f 348/72/131 346/71/132 347/116/133
s 7
f 236/117/134 235/118/135 165/49/70
s 12
f 184/119/62 222/120/62 224/121/62
s 5
f 80/122/136 100/123/137 104/124/138
s 14
f 68/125/62 134/126/62 63/127/62
f 63/127/62 70/128/62 69/129/62
s 15
f 64/130/62 221/131/62 128/132/62
s 14
f 161/133/62 162/134/62 153/135/62
s 12
f 178/136/62 228/137/62 202/138/62
s 15
f 58/139/62 128/132/62 126/140/62
f 146/141/62 223/142/62 147/143/62
s 14
f 161/133/62 154/144/62 235/145/62
f 132/146/62 61/147/62 135/148/62
s 8
f 162/149/139 144/150/140 153/151/140
f 63/59/77 57/152/141 68/153/141
f 164/154/142 146/155/143 148/156/142
f 252/151/144 240/63/80 239/150/144
f 146/155/143 153/151/140 144/150/140
f 252/151/144 241/155/145 242/157/145
s 14
f 67/158/62 62/159/62 259/160/62
f 248/161/62 256/162/62 257/163/62
s 15
f 149/164/62 152/165/62 150/166/62
f 148/167/62 147/143/62 220/168/62
f 56/169/62 318/170/62 250/171/62
s 12
f 202/138/62 264/172/62 284/173/62
s 14
f 319/174/62 246/175/62 253/134/62
f 168/175/62 233/163/62 157/161/62
f 165/176/62 156/177/62 166/178/62
f 258/179/62 259/180/62 249/181/62
s 12
f 121/182/62 123/108/62 71/183/62
f 71/183/62 123/108/62 75/184/62
f 75/184/62 123/108/62 76/185/62
f 123/108/62 77/186/62 76/185/62
f 123/108/62 78/107/62 77/186/62
f 213/187/62 190/188/62 173/189/62
f 78/107/62 79/190/62 95/191/62
f 110/106/62 111/192/62 79/190/62
f 109/193/62 110/106/62 123/108/62
f 107/194/62 109/193/62 123/108/62
f 80/195/62 107/194/62 123/108/62
f 105/196/62 80/195/62 123/108/62
f 125/197/62 105/196/62 123/108/62
f 201/198/62 226/199/62 178/136/62
s 14
f 154/144/62 165/176/62 235/145/62
s 15
f 314/200/62 245/164/62 237/166/62
s 12
f 79/190/62 83/201/62 95/191/62
f 83/201/62 79/190/62 84/202/62
f 84/202/62 79/190/62 118/203/62
f 116/204/62 118/203/62 79/190/62
f 114/205/62 116/204/62 79/190/62
f 111/192/62 114/205/62 79/190/62
s 5
f 178/206/146 207/207/147 201/208/148
f 281/78/149 282/77/150 260/209/151
f 203/210/152 284/211/153 204/212/154
f 209/213/155 206/214/156 208/111/126
f 302/111/157 273/110/158 274/213/159
f 211/215/108 176/110/125 210/112/127
f 289/216/160 270/103/161 290/102/162
f 212/217/163 214/218/164 175/95/109
f 216/219/165 215/220/166 217/221/167
f 279/222/168 308/221/169 295/223/170
f 260/209/151 285/224/171 281/78/149
f 202/225/172 200/226/173 178/206/146
f 284/227/153 283/79/174 204/228/154
f 285/229/171 265/230/175 286/83/99
f 77/231/176 93/232/177 76/233/178
f 189/234/179 192/235/180 188/236/181
f 83/237/182 97/238/183 95/239/184
f 292/240/185 293/38/186 294/37/187
s 13
f 152/241/188 177/242/189 150/243/189
f 311/244/190 262/245/191 263/246/190
f 126/247/192 125/248/193 124/249/193
f 218/250/194 220/251/195 219/252/195
f 222/246/196 220/251/195 147/244/196
f 309/252/197 311/244/190 263/246/190
f 237/243/198 316/253/199 276/242/198
f 121/254/200 122/255/201 123/256/201
s 7
f 323/48/112 255/49/202 324/50/113
f 251/257/203 325/258/204 319/259/205
f 133/260/206 142/261/207 134/262/208
f 135/263/209 136/264/210 143/265/211
f 132/266/212 135/263/209 143/265/211
f 233/267/213 234/268/214 170/97/111
f 133/260/206 131/269/215 142/261/207
f 141/270/69 140/271/216 139/272/62
f 140/271/216 142/273/207 139/272/62
f 142/273/207 131/274/215 139/272/62
f 131/274/215 143/275/211 139/272/62
f 143/275/211 136/276/210 139/272/62
f 136/276/210 138/277/217 139/272/62
s 12
f 309/278/62 284/279/62 264/280/62
f 219/278/62 172/279/62 218/280/62
f 277/137/62 89/173/62 278/138/62
f 171/281/62 219/278/62 222/120/62
s 14
f 252/135/62 319/174/62 253/134/62
f 70/128/62 156/282/62 69/129/62
s 15
f 243/167/62 311/143/62 310/168/62
s 14
f 66/283/62 133/284/62 68/125/62
s 8
f 156/285/218 64/286/76 69/57/76
f 238/51/72 259/287/74 250/288/74
f 162/149/139 149/65/82 145/63/139
f 56/56/75 61/289/219 54/290/219
f 157/52/83 158/51/220 151/66/83
f 54/290/219 65/62/79 59/61/79
f 169/53/220 159/288/221 158/51/220
f 242/157/145 243/156/222 244/154/222
s 14
f 255/176/62 160/177/62 324/178/62
f 254/145/62 244/291/62 255/176/62
s 12
f 73/292/62 89/293/62 74/294/62
f 172/295/62 129/296/62 218/297/62
s 14
f 169/181/62 324/298/62 160/180/62
f 157/161/62 170/179/62 169/181/62
s 15
f 241/141/62 312/142/62 311/143/62
f 223/142/62 145/299/62 225/200/62
s 12
f 261/119/62 263/120/62 262/121/62
s 14
f 163/174/62 168/175/62 162/134/62
f 65/300/62 130/301/62 66/283/62
s 12
f 224/121/62 173/189/62 184/119/62
f 184/119/62 173/189/62 183/302/62
f 183/302/62 173/189/62 187/303/62
f 173/189/62 189/304/62 187/303/62
f 173/189/62 190/188/62 189/304/62
f 271/187/62 268/188/62 313/189/62
f 190/188/62 174/305/62 191/306/62
f 213/187/62 175/307/62 174/305/62
f 176/308/62 213/187/62 173/189/62
f 209/309/62 176/308/62 173/189/62
f 205/310/62 209/309/62 173/189/62
f 201/198/62 205/310/62 173/189/62
f 177/311/62 201/198/62 173/189/62
f 71/183/62 72/312/62 121/182/62
s 15
f 237/166/62 247/313/62 315/165/62
f 145/299/62 150/166/62 225/200/62
s 12
f 174/305/62 194/314/62 191/306/62
f 194/314/62 174/305/62 196/315/62
f 196/315/62 174/305/62 198/316/62
f 216/317/62 198/316/62 174/305/62
f 214/318/62 216/317/62 174/305/62
f 175/307/62 214/318/62 174/305/62
s 4
f 362/73/116 382/319/223 384/320/224
s 5
f 82/321/225 101/322/226 81/323/227
f 172/324/228 102/325/229 82/321/225
f 301/326/230 299/327/231 275/328/232
f 107/329/233 104/124/138 106/330/234
f 109/43/64 106/330/234 108/44/65
f 77/231/176 96/331/235 94/332/236
f 111/333/237 113/334/63 112/335/238
f 112/335/238 114/336/239 111/333/237
f 115/337/240 116/338/241 114/336/239
f 198/222/59 217/221/167 199/223/242
s 9
f 410/73/89 411/319/243 390/320/244
s 5
f 86/339/245 87/47/68 85/81/97
f 172/227/228 181/79/95 103/228/246
f 75/340/247 91/341/96 71/342/98
f 187/84/248 185/83/249 183/230/250
f 189/234/179 186/85/251 187/84/248
f 273/110/158 304/215/252 271/343/253
f 96/344/235 95/239/184 97/238/183
f 280/218/254 305/217/255 306/220/256
f 118/345/257 99/346/258 84/347/259
s 13
f 72/348/260 120/113/128 55/349/260
f 225/350/261 224/245/262 223/351/262
f 125/248/193 122/255/201 124/249/193
f 128/352/263 127/353/192 126/247/192
f 218/354/194 128/352/263 221/355/194
f 152/241/188 228/356/264 226/253/188
f 121/254/200 55/349/260 53/357/200
f 315/241/199 277/356/265 316/253/199
s 7
f 138/358/217 137/359/266 67/360/267
f 230/258/268 161/257/269 231/361/270
f 167/362/271 232/363/272 233/267/213
f 322/268/273 257/267/274 321/363/275
f 167/362/271 230/258/268 232/363/272
f 161/257/269 235/118/135 231/361/270
f 134/262/208 140/364/216 70/365/276
f 70/365/276 141/366/69 166/367/71
f 323/368/112 234/369/214 139/370/62
f 234/369/214 232/371/272 139/370/62
f 232/371/272 230/372/268 139/370/62
f 230/372/268 231/373/270 139/370/62
f 231/373/270 236/374/134 139/370/62
f 236/374/134 141/375/69 139/370/62
s 12
f 73/292/62 85/376/62 87/377/62
s 14
f 251/133/62 242/144/62 254/145/62
s 12
f 297/136/62 277/137/62 278/138/62
s 15
f 238/378/62 318/379/62 317/380/62
f 53/381/62 54/382/62 59/383/62
s 9
f 407/71/87 405/384/277 408/116/278
s 15
f 53/381/62 60/385/62 122/386/62
f 54/382/62 120/387/62 56/169/62
s 8
f 155/388/218 164/154/142 148/156/142
f 247/66/73 246/64/81 248/52/73
f 66/60/78 57/152/141 60/389/78
f 243/156/222 160/390/221 244/154/222
s 15
f 315/165/62 238/378/62 317/380/62
f 227/380/62 159/391/62 229/379/62
s 12
f 309/278/62 260/281/62 282/392/62
f 81/393/62 129/296/62 82/394/62
s 15
f 243/167/62 229/395/62 159/396/62
s 14
f 61/147/62 137/397/62 135/148/62
s 15
f 60/385/62 124/398/62 122/386/62
f 151/313/62 227/380/62 152/165/62
s 12
f 275/198/62 316/199/62 297/136/62
s 15
f 148/167/62 221/395/62 155/396/62
f 57/399/62 126/140/62 124/398/62
s 12
f 262/121/62 313/189/62 261/119/62
f 261/119/62 313/189/62 265/302/62
f 265/302/62 313/189/62 266/303/62
f 313/189/62 267/304/62 266/303/62
f 313/189/62 268/188/62 267/304/62
f 268/188/62 269/305/62 270/306/62
f 271/187/62 272/307/62 269/305/62
f 273/308/62 271/187/62 313/189/62
f 274/309/62 273/308/62 313/189/62
f 299/310/62 274/309/62 313/189/62
f 275/198/62 299/310/62 313/189/62
f 276/311/62 275/198/62 313/189/62
f 105/196/62 127/400/62 81/393/62
s 14
f 249/181/62 257/163/62 258/179/62
s 15
f 314/200/62 239/401/62 240/299/62
s 12
f 269/305/62 291/314/62 270/306/62
f 291/314/62 269/305/62 293/315/62
f 293/315/62 269/305/62 279/316/62
f 307/317/62 279/316/62 269/305/62
f 280/318/62 307/317/62 269/305/62
f 272/307/62 280/318/62 269/305/62
s 5
f 179/224/279 171/209/280 184/402/281
f 296/226/282 278/225/283 298/210/284
f 298/210/284 89/211/67 90/212/285
f 183/230/250 179/229/279 184/403/281
f 300/214/286 274/213/159 299/327/231
f 304/94/252 272/95/287 271/96/253
f 306/220/256 307/219/288 280/218/254
f 117/404/289 118/405/257 116/338/241
f 100/406/137 81/323/227 101/322/226
f 205/327/290 207/326/147 206/214/156
f 76/233/178 92/407/291 75/340/247
f 287/85/101 267/234/292 288/236/293
f 289/235/160 267/234/292 268/408/294
f 192/216/180 191/103/121 193/102/120
f 291/101/295 290/102/162 270/103/161
f 84/347/259 98/409/296 83/237/182
f 294/37/187 279/36/168 295/410/170
s 13
f 147/244/196 224/245/262 222/246/196
f 314/350/297 276/242/198 313/411/297
f 277/356/265 318/412/130 74/413/129
f 314/350/297 262/245/191 312/351/298
f 229/412/299 228/356/264 227/414/264
f 177/242/189 225/350/261 150/243/189
f 309/252/197 229/415/299 310/251/197
s 7
f 325/258/204 256/362/300 319/259/205
f 131/269/215 132/266/212 143/265/211
f 256/362/300 321/363/275 257/267/274
f 254/118/301 326/117/302 320/361/303
f 251/257/203 254/118/301 320/361/303
f 138/98/217 258/97/304 322/268/273
f 138/368/217 322/369/273 139/370/62
f 322/369/273 321/371/275 139/370/62
f 321/371/275 325/372/204 139/370/62
f 325/372/204 320/373/303 139/370/62
f 320/373/303 326/374/302 139/370/62
f 326/374/302 323/375/112 139/370/62
s 11
f 404/91/62 395/92/62 387/87/62
s 6
f 338/416/62 335/92/62 346/417/62
f 346/417/62 349/418/62 338/416/62
f 338/416/62 349/418/62 350/40/62
f 350/40/62 340/419/62 338/416/62
s 11
f 391/39/62 390/40/62 413/41/62
s 6
f 354/420/62 343/421/62 331/70/62
s 9
f 404/422/305 406/423/306 405/384/277
s 4
f 360/67/117 368/68/307 366/69/308
s 9
f 400/28/309 391/27/104 398/90/103
s 4
f 365/89/310 372/90/311 363/27/312
f 374/105/313 375/104/90 376/424/92
s 9
f 411/109/243 413/35/314 390/425/244
s 4
f 383/33/315 385/34/316 364/35/317
s 6
f 328/86/62 332/87/62 329/88/62
f 327/91/62 335/92/62 332/87/62
s 10
f 361/416/62 360/92/62 359/417/62
f 359/417/62 362/418/62 361/416/62
f 361/416/62 362/418/62 384/40/62
f 384/40/62 371/419/62 361/416/62
s 11
f 413/41/62 401/70/62 391/39/62
s 10
f 385/420/62 375/421/62 365/70/62
s 3
f 333/93/318 332/69/319 334/68/320
s 9
f 397/32/321 395/67/84 389/30/322
f 400/31/309 389/30/322 399/426/323
s 5
f 196/38/61 195/240/324 194/101/119
s 9
f 402/105/325 403/104/326 416/424/327
s 3
f 345/423/328 327/422/329 328/427/330
f 346/71/132 344/384/331 347/116/133
f 352/319/124 349/73/332 348/72/131
s 9
f 414/34/333 412/33/334 415/75/335
f 403/74/326 415/75/335 416/76/327
s 10
f 377/86/62 366/87/62 358/88/62
s 11
f 389/416/62 395/92/62 407/417/62
f 407/417/62 410/418/62 389/416/62
f 389/416/62 410/418/62 390/40/62
f 390/40/62 399/419/62 389/416/62
s 10
f 363/39/62 384/40/62 364/41/62
s 6
f 353/41/62 331/70/62 330/39/62
s 11
f 414/420/62 403/421/62 401/70/62
s 4
f 367/93/336 366/69/308 368/68/307
s 3
f 335/67/337 334/68/320 332/69/319
f 335/67/337 337/32/338 336/100/339
f 338/30/340 341/31/51 337/32/338
s 4
f 373/28/54 363/27/312 372/90/311
s 3
f 331/89/123 339/90/341 330/27/50
s 4
f 379/423/342 357/422/343 377/427/344
f 359/71/114 378/384/345 380/116/346
s 5
f 297/206/347 301/207/230 275/208/232
s 4
f 382/109/223 364/35/317 384/425/224
s 3
f 330/27/50 339/90/341 341/28/51
s 4
f 361/30/53 371/426/351 373/31/54
s 3
f 351/33/56 355/75/105 354/34/57
s 5
f 198/36/59 199/410/242 197/37/60
s 6
f 330/39/62 340/419/62 350/40/62
s 5
f 113/42/63 110/428/352 109/43/64
f 88/45/66 90/429/285 89/46/67
s 7
f 141/48/69 236/117/134 165/49/70
s 8
f 238/51/72 247/66/73 248/52/73
f 250/54/74 259/430/74 62/55/75
f 69/57/76 64/286/76 58/58/77
f 66/60/78 60/389/78 59/61/79
f 240/63/80 253/149/80 246/64/81
f 168/64/82 157/52/83 151/66/83
s 9
f 395/67/84 396/100/353 394/68/85
s 10
f 364/41/62 385/420/62 365/70/62
s 9
f 407/71/87 408/116/278 409/72/88
s 4
f 375/74/90 385/34/316 386/75/91
s 5
f 182/77/93 171/209/280 180/78/94
f 91/80/96 86/339/245 85/81/97
f 286/83/99 265/230/175 266/84/100
s 11
f 388/86/62 404/91/62 387/87/62
s 9
f 401/89/102 402/105/325 398/90/103
s 10
f 357/91/62 359/417/62 360/92/62
s 3
f 355/75/105 356/76/354 343/74/106
s 9
f 393/93/107 392/431/355 387/69/86
s 5
f 211/94/108 212/217/163 175/95/109
s 7
f 170/97/111 234/268/214 323/98/112
s 4
f 359/71/114 380/116/346 381/72/115
f 360/67/117 361/30/53 370/32/55
s 5
f 194/101/119 195/240/324 193/102/120
s 3
f 343/104/106 356/424/354 342/105/122
s 12
f 110/106/62 79/190/62 78/107/62
s 3
f 353/35/58 350/425/356 352/109/124
s 5
f 176/110/125 209/213/155 208/111/126
s 13
f 120/113/128 73/432/128 74/114/129
s 3
f 348/72/131 349/73/332 346/71/132
s 7
f 236/117/134 231/361/270 235/118/135
s 12
f 184/119/62 171/281/62 222/120/62
s 5
f 80/122/136 105/433/357 100/123/137
s 14
f 68/125/62 133/284/62 134/126/62
f 63/127/62 134/126/62 70/128/62
s 15
f 64/130/62 155/434/62 221/131/62
s 14
f 161/133/62 163/174/62 162/134/62
s 12
f 178/136/62 226/199/62 228/137/62
s 15
f 58/139/62 64/130/62 128/132/62
f 146/141/62 144/401/62 223/142/62
s 14
f 161/133/62 153/135/62 154/144/62
f 132/146/62 65/300/62 61/147/62
s 8
f 162/149/139 145/63/139 144/150/140
f 63/59/77 58/58/77 57/152/141
f 164/154/142 154/157/143 146/155/143
f 252/151/144 253/149/80 240/63/80
f 146/155/143 154/157/143 153/151/140
f 252/151/144 239/150/144 241/155/145
s 14
f 67/158/62 137/397/62 62/159/62
f 248/161/62 246/175/62 256/162/62
s 15
f 149/164/62 151/313/62 152/165/62
f 148/167/62 146/141/62 147/143/62
f 56/169/62 120/387/62 318/170/62
s 12
f 202/138/62 228/137/62 264/172/62
s 14
f 319/174/62 256/162/62 246/175/62
f 168/175/62 167/162/62 233/163/62
f 165/176/62 164/291/62 156/177/62
f 258/179/62 67/298/62 259/180/62
s 12
f 213/187/62 174/305/62 190/188/62
f 201/198/62 177/311/62 226/199/62
s 14
f 154/144/62 164/291/62 165/176/62
s 15
f 314/200/62 240/299/62 245/164/62
s 5
f 178/206/146 200/226/173 207/207/147
f 281/78/149 283/79/174 282/77/150
f 203/210/152 202/225/172 284/211/153
f 209/213/155 205/327/290 206/214/156
f 302/111/157 303/112/358 273/110/158
f 211/215/108 213/343/110 176/110/125
f 289/216/160 268/435/294 270/103/161
f 212/217/163 215/220/166 214/218/164
f 216/219/165 214/218/164 215/220/166
f 279/222/168 307/219/288 308/221/169
f 260/209/151 261/402/359 285/224/171
f 202/225/172 203/210/152 200/226/173
f 284/227/153 282/77/150 283/79/174
f 285/229/171 261/403/359 265/230/175
f 77/231/176 94/332/236 93/232/177
f 189/234/179 190/408/360 192/235/180
f 83/237/182 98/409/296 97/238/183
f 292/240/185 291/101/295 293/38/186
s 13
f 152/241/188 226/253/188 177/242/189
f 311/244/190 312/351/298 262/245/191
f 126/247/192 127/353/192 125/248/193
f 218/250/194 221/415/194 220/251/195
f 222/246/196 219/252/195 220/251/195
f 309/252/197 310/251/197 311/244/190
f 237/243/198 315/241/199 316/253/199
f 121/254/200 53/357/200 122/255/201
s 7
f 323/48/112 326/117/302 255/49/202
f 251/257/203 320/361/303 325/258/204
f 135/263/209 137/359/266 136/264/210
f 233/267/213 232/363/272 234/268/214
f 133/260/206 130/436/361 131/269/215
s 12
f 309/278/62 282/392/62 284/279/62
f 219/278/62 182/392/62 172/279/62
f 277/137/62 74/172/62 89/173/62
f 171/281/62 182/392/62 219/278/62
s 14
f 252/135/62 251/133/62 319/174/62
f 70/128/62 166/437/62 156/282/62
s 15
f 243/167/62 241/141/62 311/143/62
s 14
f 66/283/62 130/301/62 133/284/62
s 8
f 156/285/218 155/438/218 64/286/76
f 238/51/72 249/53/72 259/287/74
f 162/149/139 168/64/82 149/65/82
f 56/56/75 62/55/75 61/289/219
f 157/52/83 169/53/220 158/51/220
f 54/290/219 61/289/219 65/62/79
f 169/53/220 160/287/221 159/288/221
f 242/157/145 241/155/145 243/156/222
s 14
f 255/176/62 244/291/62 160/177/62
f 254/145/62 242/144/62 244/291/62
s 12
f 73/292/62 87/377/62 89/293/62
f 172/295/62 82/394/62 129/296/62
s 14
f 169/181/62 170/179/62 324/298/62
f 157/161/62 233/163/62 170/179/62
s 15
f 241/141/62 239/401/62 312/142/62
f 223/142/62 144/401/62 145/299/62
s 12
f 261/119/62 260/281/62 263/120/62
s 14
f 163/174/62 167/162/62 168/175/62
f 65/300/62 132/146/62 130/301/62
s 12
f 271/187/62 269/305/62 268/188/62
f 71/183/62 85/376/62 72/312/62
s 15
f 237/166/62 245/164/62 247/313/62
f 145/299/62 149/164/62 150/166/62
s 4
f 362/73/116 381/72/115 382/319/223
s 5
f 82/321/225 102/325/229 101/322/226
f 172/324/228 103/439/246 102/325/229
f 301/326/230 300/214/286 299/327/231
f 107/329/233 80/122/136 104/124/138
f 109/43/64 107/329/233 106/330/234
f 77/231/176 78/440/362 96/331/235
f 111/333/237 110/441/352 113/334/63
f 112/335/238 115/337/240 114/336/239
f 115/337/240 117/404/289 116/338/241
f 198/222/59 216/219/165 217/221/167
s 9
f 410/73/89 409/72/88 411/319/243
s 5
f 86/339/245 88/45/66 87/47/68
f 172/227/228 182/77/93 181/79/95
f 75/340/247 92/407/291 91/341/96
f 187/84/248 186/85/251 185/83/249
f 189/234/179 188/236/181 186/85/251
f 273/110/158 303/112/358 304/215/252
f 96/344/235 78/442/362 95/239/184
f 280/218/254 272/95/287 305/217/255
f 118/345/257 119/443/363 99/346/258
s 13
f 72/348/260 73/432/128 120/113/128
f 225/350/261 173/411/261 224/245/262
f 125/248/193 123/256/201 122/255/201
f 128/352/263 129/444/263 127/353/192
f 218/354/194 129/444/263 128/352/263
f 152/241/188 227/414/264 228/356/264
f 121/254/200 72/348/260 55/349/260
f 315/241/199 317/414/265 277/356/265
s 7
f 138/358/217 136/264/210 137/359/266
f 230/258/268 163/259/364 161/257/269
f 322/268/273 258/97/304 257/267/274
f 167/362/271 163/259/364 230/258/268
f 134/262/208 142/261/207 140/364/216
f 70/365/276 140/364/216 141/366/69
s 12
f 73/292/62 72/312/62 85/376/62
s 14
f 251/133/62 252/135/62 242/144/62
s 12
f 297/136/62 316/199/62 277/137/62
s 15
f 238/378/62 250/391/62 318/379/62
f 53/381/62 55/445/62 54/382/62
s 9
f 407/71/87 404/422/305 405/384/277
s 15
f 53/381/62 59/383/62 60/385/62
f 54/382/62 55/445/62 120/387/62
s 8
f 155/388/218 156/390/218 164/154/142
f 247/66/73 245/65/81 246/64/81
f 66/60/78 68/153/141 57/152/141
f 243/156/222 159/388/221 160/390/221
s 15
f 315/165/62 247/313/62 238/378/62
f 227/380/62 158/378/62 159/391/62
s 12
f 309/278/62 263/120/62 260/281/62
f 81/393/62 127/400/62 129/296/62
s 15
f 243/167/62 310/168/62 229/395/62
s 14
f 61/147/62 62/159/62 137/397/62
s 15
f 60/385/62 57/399/62 124/398/62
f 151/313/62 158/378/62 227/380/62
s 12
f 275/198/62 276/311/62 316/199/62
s 15
f 148/167/62 220/168/62 221/395/62
f 57/399/62 58/139/62 126/140/62
s 12
f 105/196/62 125/197/62 127/400/62
s 14
f 249/181/62 248/161/62 257/163/62
s 15
f 314/200/62 312/142/62 239/401/62
s 5
f 179/224/279 180/78/94 171/209/280
f 296/226/282 297/206/347 278/225/283
f 298/210/284 278/225/283 89/211/67
f 183/230/250 185/83/249 179/229/279
f 300/214/286 302/111/157 274/213/159
f 304/94/252 305/217/255 272/95/287
f 306/220/256 308/221/169 307/219/288
f 117/404/289 119/446/363 118/405/257
f 100/406/137 105/447/357 81/323/227
f 205/327/290 201/328/148 207/326/147
f 76/233/178 93/232/177 92/407/291
f 287/85/101 266/84/100 267/234/292
f 289/235/160 288/236/293 267/234/292
f 192/216/180 190/435/360 191/103/121
f 291/101/295 292/240/185 290/102/162
f 84/347/259 99/346/258 98/409/296
f 294/37/187 293/38/186 279/36/168
s 13
f 147/244/196 223/351/262 224/245/262
f 314/350/297 237/243/198 276/242/198
f 277/356/265 317/414/265 318/412/130
f 314/350/297 313/411/297 262/245/191
f 229/412/299 264/413/365 228/356/264
f 177/242/189 173/411/261 225/350/261
f 309/252/197 264/250/365 229/415/299
s 7
f 325/258/204 321/363/275 256/362/300
f 131/269/215 130/436/361 132/266/212
f 254/118/301 255/49/202 326/117/302
f 138/98/217 67/99/267 258/97/304
s 11
f 404/91/62 407/417/62 395/92/62
f 391/39/62 399/419/62 390/40/62
s 9
f 404/422/305 388/427/366 406/423/306
s 4
f 360/67/117 369/100/118 368/68/307
s 9
f 400/28/309 399/29/323 391/27/104
s 4
f 365/89/310 374/105/313 372/90/311
f 374/105/313 365/89/310 375/104/90
s 9
f 411/109/243 412/33/334 413/35/314
s 4
f 383/33/315 386/75/91 385/34/316
s 6
f 328/86/62 327/91/62 332/87/62
f 327/91/62 346/417/62 335/92/62
s 11
f 413/41/62 414/420/62 401/70/62
s 3
f 333/93/318 329/431/367 332/69/319
s 9
f 397/32/321 396/100/353 395/67/84
f 400/31/309 397/32/321 389/30/322
s 5
f 196/38/61 197/37/60 195/240/324
s 9
f 402/105/325 401/89/102 403/104/326
s 3
f 345/423/328 344/384/331 327/422/329
f 346/71/132 327/422/329 344/384/331
f 352/319/124 350/320/356 349/73/332
s 9
f 414/34/333 413/35/314 412/33/334
f 403/74/326 414/34/333 415/75/335
s 10
f 377/86/62 357/91/62 366/87/62
f 363/39/62 371/419/62 384/40/62
s 6
f 353/41/62 354/420/62 331/70/62
s 4
f 367/93/336 358/431/368 366/69/308
s 3
f 335/67/337 336/100/339 334/68/320
f 335/67/337 338/30/340 337/32/338
f 338/30/340 340/426/52 341/31/51
s 4
f 373/28/54 371/29/351 363/27/312
s 3
f 331/89/123 342/105/122 339/90/341
s 4
f 379/423/342 378/384/345 357/422/343
f 359/71/114 357/422/343 378/384/345
s 5
f 297/206/347 296/226/282 301/207/230
s 4
f 382/109/223 383/33/315 364/35/317
